<?xml version="1.0" encoding="UTF-8"?> <svg xmlns="http://www.w3.org/2000/svg" width="185" height="52" viewBox="0 0 185 52" fill="none"><path d="M73.8649 5.86C74.0299 6.3 72.8199 6.63 71.4449 6.63C70.0699 6.63 68.0349 6.41 65.2299 5.915C62.4249 5.42 59.9499 4.98 57.7499 4.54C54.7799 7.18 51.6999 10.15 48.5099 13.505L40.0949 22.36C34.9799 27.75 29.6999 32.15 24.2549 35.56C18.8099 38.915 13.3099 40.51 7.80989 40.235C5.88489 40.18 4.12489 39.63 2.47489 38.585C0.824893 37.54 -0.000107363 35.725 -0.000107363 33.03C-0.000107363 30.17 1.20989 26.815 3.57489 23.57C3.07989 23.185 1.42989 21.48 1.37489 17.96C1.31989 14.165 3.51989 10.15 8.02989 6.025C12.5399 1.845 20.3499 -0.245002 31.4049 -0.245002C35.1999 -0.245002 39.4349 0.0849969 44.1099 0.799998C48.7849 1.46 53.2399 2.23 57.4749 3.11C58.4099 2.285 60.7749 0.854997 62.7549 0.36C63.4699 0.139999 64.0199 0.0849969 64.0199 0.36C64.0199 0.579997 63.5799 0.635 63.0849 0.854997C61.3249 1.57 59.6749 2.56 58.7399 3.385C60.8299 3.88 63.3049 4.43 66.1649 5.035C69.0249 5.64 71.1149 5.915 72.3799 5.915C73.4249 5.915 73.8099 5.695 73.8649 5.86ZM56.1549 4.265C52.6899 3.66 48.5099 3.11 43.7249 2.56C38.9399 1.955 34.7599 1.68 31.2949 1.68C20.8449 1.68 13.3649 3.44 8.85489 7.015C4.39989 10.59 2.14489 14.22 2.19989 17.905C2.19989 20.38 3.02489 22.25 3.90489 23.13C5.82989 20.71 8.30489 18.345 11.2199 16.31C13.4749 14.77 16.1699 13.395 19.3049 12.24C22.4949 11.085 25.5199 10.48 28.4349 10.48C30.3599 10.48 32.0099 10.865 33.3299 11.635C34.6499 12.35 35.2549 13.725 35.1999 15.65C35.1999 16.145 34.9799 16.585 34.8149 16.585C34.5399 16.585 34.5949 16.2 34.5949 15.485C34.5399 12.46 32.0099 11.25 29.1499 11.25C26.5649 11.25 23.6499 12.02 20.5149 13.505C17.3799 14.99 14.7399 16.53 12.5949 18.125C5.60989 23.02 0.879893 28.52 0.879893 33.36C0.879893 35.725 1.64989 37.265 3.13489 38.09C4.67489 38.915 6.32489 39.3 8.02989 39.355C12.4849 39.465 17.3249 37.65 22.5499 33.91C27.8299 30.115 32.7799 25.99 37.4549 21.425C44.8799 14.165 50.6549 8.61 56.1549 4.265ZM50.0267 26.705C48.6517 27.97 47.3867 29.345 46.1217 30.94C44.8567 32.48 44.2517 33.69 44.2517 34.57C44.2517 35.285 44.6367 35.67 45.5167 35.67C46.6167 35.67 48.4317 34.955 50.2467 33.8C52.8867 32.205 55.6917 29.73 57.0667 28.465C57.4517 28.19 57.8367 27.805 58.0567 28.025C58.2767 28.245 58.0017 28.575 57.7817 28.795C55.9667 30.5 53.8217 32.315 51.4017 33.91C49.5867 35.175 47.1667 36.495 45.0217 36.495C43.7017 36.495 42.2167 36.055 42.2167 33.91C42.2167 32.535 42.9867 29.675 46.5067 26.32C48.3217 24.615 50.4117 23.075 52.7217 21.755C55.0867 20.38 56.9017 19.72 58.2217 19.72C59.3217 19.72 59.8717 20.38 59.8717 21.095C59.8717 22.25 58.4967 23.735 56.9567 24.78C55.1967 25.935 52.6667 26.925 51.0717 26.925C50.6317 26.925 50.2467 26.76 50.0267 26.705ZM50.4117 26.32C50.4667 26.375 50.6867 26.43 50.8517 26.43C51.9517 26.43 54.3167 25.55 56.3517 23.845C57.8917 22.69 58.9367 21.37 58.9367 20.71C58.9367 20.49 58.8267 20.38 58.5517 20.38C57.9467 20.38 56.7917 21.04 54.9767 22.415C53.1617 23.79 51.6767 25.055 50.4117 26.32ZM90.0671 6.96C90.2321 6.96 90.2871 7.015 90.0671 7.07C88.5821 7.455 86.6571 8.775 85.7221 9.49C80.1671 13.67 74.7771 18.785 68.6171 25.11C66.2521 27.585 63.8871 30.17 62.4021 32.15C61.4671 33.415 60.8621 34.405 60.8621 35.01C60.8621 35.285 61.0821 35.505 61.4671 35.505C62.2921 35.505 63.8871 34.68 65.8121 33.305C66.6371 32.755 67.6271 31.985 68.8921 30.94C70.1571 29.895 71.0921 29.07 71.7521 28.465C71.9721 28.3 72.3021 27.915 72.5771 28.19C72.7421 28.41 72.5771 28.685 72.3021 28.96C71.6971 29.565 70.7071 30.39 69.4421 31.435C68.1771 32.48 67.0221 33.36 65.9771 34.075C64.0521 35.45 62.1271 36.495 60.8621 36.495C59.7071 36.495 58.9921 35.78 58.9921 34.625C58.9921 33.8 59.4871 32.645 60.2021 31.49C61.3571 29.675 63.8321 26.65 67.2971 23.13C70.2671 20.105 73.1821 17.355 76.0971 14.77C79.0121 12.185 81.4321 10.26 83.3021 8.995C84.4571 8.28 85.6121 7.62 86.6571 7.345C87.5371 7.07 88.6921 6.905 90.0671 6.96ZM81.222 26.705C79.847 27.97 78.582 29.345 77.317 30.94C76.052 32.48 75.447 33.69 75.447 34.57C75.447 35.285 75.832 35.67 76.712 35.67C77.812 35.67 79.627 34.955 81.442 33.8C84.082 32.205 86.887 29.73 88.262 28.465C88.647 28.19 89.032 27.805 89.252 28.025C89.472 28.245 89.197 28.575 88.977 28.795C87.162 30.5 85.017 32.315 82.597 33.91C80.782 35.175 78.362 36.495 76.217 36.495C74.897 36.495 73.412 36.055 73.412 33.91C73.412 32.535 74.182 29.675 77.702 26.32C79.517 24.615 81.607 23.075 83.917 21.755C86.282 20.38 88.097 19.72 89.417 19.72C90.517 19.72 91.067 20.38 91.067 21.095C91.067 22.25 89.692 23.735 88.152 24.78C86.392 25.935 83.862 26.925 82.267 26.925C81.827 26.925 81.442 26.76 81.222 26.705ZM81.607 26.32C81.662 26.375 81.882 26.43 82.047 26.43C83.147 26.43 85.512 25.55 87.547 23.845C89.087 22.69 90.132 21.37 90.132 20.71C90.132 20.49 90.022 20.38 89.747 20.38C89.142 20.38 87.987 21.04 86.172 22.415C84.357 23.79 82.872 25.055 81.607 26.32ZM113.012 20.325H113.617C112.682 21.26 111.307 22.8 109.382 24.945L105.092 29.84L99.4274 36C96.6224 39.025 93.7624 41.665 90.8474 43.865C83.8624 49.2 77.0974 51.785 70.7724 51.785C67.9124 51.785 65.4374 51.18 63.3474 50.025C61.2574 48.87 60.0474 47.275 59.7724 45.24C59.6074 44.36 59.7724 43.865 60.0474 43.81C60.3224 43.755 60.4324 44.195 60.4874 44.69C60.8724 46.725 62.0274 48.265 63.9524 49.31C65.8774 50.355 68.0774 50.85 70.4974 50.85C73.7974 50.85 77.0424 50.025 80.1774 48.43C83.3124 46.835 86.1724 45.02 88.6474 43.04C92.7724 39.74 97.4474 34.955 101.407 30.555C101.627 30.335 101.462 30.17 101.242 30.39C97.2824 34.13 93.7624 36.495 92.0024 36.495C90.6274 36.495 90.0774 35.78 90.1324 34.68C90.1324 32.645 92.0574 29.345 94.4774 26.87C96.4024 24.89 98.6574 23.185 101.187 21.81C103.772 20.435 105.752 19.72 107.237 19.72C108.172 19.72 109.052 19.885 109.052 20.985C109.052 21.59 108.612 22.58 107.457 23.845C107.402 24.01 107.457 24.01 107.622 23.955C108.062 23.515 108.722 22.91 109.547 22.195C110.372 21.425 111.032 20.93 111.417 20.71C111.857 20.435 112.407 20.325 113.012 20.325ZM108.282 21.095C108.282 20.82 108.062 20.545 107.677 20.545C106.137 20.545 102.067 23.35 97.0074 28.19C95.6324 29.51 94.4774 30.83 93.4324 32.205C92.3874 33.58 91.8924 34.57 91.8924 35.175C91.8924 35.45 92.0024 35.725 92.4424 35.725C93.1574 35.67 94.5324 34.9 96.5674 33.415C98.6024 31.875 100.637 30.005 102.782 27.86C103.717 26.87 104.872 25.66 106.247 24.285C107.622 22.855 108.282 21.81 108.282 21.095ZM119.041 25.385C120.801 23.57 122.726 21.81 124.046 20.985C124.926 20.38 126.576 20.05 127.951 20.05C125.751 21.535 122.506 24.45 120.251 27.035C119.976 27.31 120.086 27.42 120.306 27.255C121.791 25.99 123.606 24.505 125.861 22.745C128.116 20.93 129.986 20.05 131.361 20.05C132.461 20.05 133.011 20.71 133.011 21.645C133.011 22.47 132.406 22.855 132.186 22.8C132.021 22.745 131.801 22.525 131.526 22.36C131.141 22.085 130.646 21.92 129.931 21.92C128.776 21.92 127.236 22.635 125.201 24.12C123.221 25.55 121.296 27.145 119.426 28.905C117.666 30.61 116.401 31.875 115.686 32.7C114.971 33.525 113.926 34.9 112.441 36.715C112.001 36.715 111.726 36.11 111.726 35.45C111.726 34.845 112.441 33.58 113.816 31.655C115.191 29.675 116.896 27.585 119.041 25.385ZM153.569 20.27H154.009C151.644 22.36 149.444 24.45 147.354 26.595C145.319 28.685 143.779 30.28 142.844 31.435C141.469 33.03 140.534 34.295 140.534 35.01C140.534 35.285 140.699 35.505 141.084 35.505C141.579 35.505 142.404 35.175 143.449 34.46C144.494 33.745 145.429 33.085 146.144 32.535C147.904 31.16 149.939 29.29 151.259 28.135C151.479 28.08 151.809 27.75 152.029 28.025C152.249 28.245 152.029 28.465 151.754 28.685C150.159 30.225 148.014 31.985 146.639 33.085C145.814 33.745 144.824 34.46 143.669 35.23C142.514 36 141.524 36.385 140.699 36.385C139.379 36.385 138.774 35.78 138.774 34.515C138.774 33.8 139.214 32.48 140.369 31.105C137.234 33.965 133.714 36.385 131.954 36.385C130.634 36.385 130.084 35.67 130.084 34.57C130.029 32.59 131.899 29.345 134.374 26.87C136.244 25 138.444 23.35 140.974 21.92C143.559 20.435 145.594 19.72 147.189 19.72C148.124 19.72 148.949 19.995 148.949 20.93C148.949 21.535 148.509 22.525 147.354 23.68C147.299 23.735 147.354 23.79 147.409 23.735C149.114 22.14 150.984 20.765 151.864 20.49C152.469 20.27 152.964 20.27 153.569 20.27ZM148.179 21.15C148.179 20.765 147.959 20.545 147.519 20.545C145.979 20.545 142.019 23.295 136.904 28.19C134.209 30.885 131.844 33.855 131.844 35.01C131.844 35.285 131.899 35.56 132.394 35.56C133.109 35.56 134.429 34.845 136.409 33.36C138.444 31.875 140.534 30.06 142.679 27.86L146.144 24.34C147.519 22.91 148.179 21.865 148.179 21.15ZM173.449 19.83C174.384 19.83 174.934 20.38 174.934 21.26C174.934 22.085 174.494 23.185 173.779 24.065C175.374 23.02 176.969 22.085 178.619 21.15C180.269 20.215 181.534 19.775 182.469 19.775C183.624 19.775 184.174 20.6 184.174 21.425C184.174 22.36 183.569 23.515 182.359 24.78C181.149 26.045 180.049 27.09 179.059 27.97C177.299 29.565 175.814 31.105 174.659 32.26C173.504 33.525 172.679 34.46 172.679 35.065C172.679 35.505 173.009 35.615 173.284 35.615C174.219 35.615 176.034 34.68 177.849 33.36C180.104 31.765 182.029 30.06 183.349 28.96C183.954 28.465 184.339 28.135 184.559 28.355C184.779 28.52 184.614 28.85 184.339 29.07C183.679 29.675 182.689 30.5 181.424 31.545C180.159 32.59 179.059 33.47 178.014 34.185C176.089 35.56 174.109 36.495 172.734 36.495C171.799 36.495 170.809 35.835 170.809 34.46C170.809 33.635 171.249 32.645 171.964 31.49C173.339 29.565 174.439 28.52 176.694 26.485C177.519 25.66 178.674 24.67 180.104 23.515C181.534 22.36 182.249 21.48 182.249 20.985C182.249 20.765 182.139 20.655 181.919 20.655C181.314 20.655 180.049 21.205 178.124 22.305C176.199 23.35 174.274 24.56 172.404 25.935C170.149 27.695 167.839 29.565 165.364 32.37C164.264 33.635 162.724 35.56 161.789 36.715C161.514 36.715 161.129 36.11 161.129 35.395C161.129 34.9 161.789 33.69 163.054 31.875C164.319 30.06 165.859 28.245 167.674 26.485C168.499 25.66 169.599 24.67 171.029 23.46C172.459 22.25 173.174 21.425 173.174 20.985C173.174 20.82 173.119 20.655 172.844 20.655C171.909 20.655 169.984 21.59 166.959 23.46C163.934 25.33 161.514 27.145 159.699 28.905C156.179 32.26 153.979 34.9 152.714 36.715C152.439 36.715 151.999 36.165 151.999 35.34C151.999 34.735 152.714 33.47 154.199 31.49C155.629 29.455 157.334 27.42 159.314 25.385C161.074 23.46 163.109 21.81 164.429 20.93C165.364 20.325 166.849 20.05 168.224 20.05C166.299 21.37 163.219 24.175 160.799 26.87C160.634 27.035 160.744 27.09 160.799 27.035C162.174 25.88 164.209 24.395 167.014 22.58C169.819 20.765 171.964 19.83 173.449 19.83Z" fill="#426E8F" fill-opacity="0.2"></path></svg> 