<?xml version="1.0" encoding="UTF-8"?> <svg xmlns="http://www.w3.org/2000/svg" width="177" height="30" viewBox="0 0 177 30" fill="none"><rect x="0.5" y="0.5" width="176" height="29" stroke="#426E8F"></rect><path d="M45.1496 18.525C45.1496 18.605 45.1596 18.695 45.1796 18.795C45.1996 18.885 45.2246 18.97 45.2546 19.05C45.2946 19.13 45.3396 19.2 45.3896 19.26C45.4496 19.32 45.5196 19.35 45.5996 19.35V19.5H43.6946V19.35C43.7746 19.35 43.8446 19.325 43.9046 19.275C43.9646 19.215 44.0096 19.145 44.0396 19.065C44.0796 18.975 44.1096 18.885 44.1296 18.795C44.1496 18.695 44.1596 18.605 44.1596 18.525V14.13C44.1596 14.06 44.1496 13.98 44.1296 13.89C44.1096 13.79 44.0796 13.705 44.0396 13.635C43.9996 13.555 43.9496 13.49 43.8896 13.44C43.8296 13.38 43.7646 13.35 43.6946 13.35V13.2H49.9196V13.35C49.7596 13.35 49.6396 13.445 49.5596 13.635C49.4796 13.815 49.4396 13.98 49.4396 14.13V18.525C49.4396 18.605 49.4496 18.695 49.4696 18.795C49.4896 18.885 49.5196 18.97 49.5596 19.05C49.5996 19.13 49.6496 19.2 49.7096 19.26C49.7796 19.32 49.8496 19.35 49.9196 19.35V19.5H47.9846V19.35C48.0746 19.35 48.1446 19.325 48.1946 19.275C48.2546 19.215 48.3046 19.145 48.3446 19.065C48.3846 18.975 48.4096 18.885 48.4196 18.795C48.4396 18.695 48.4496 18.605 48.4496 18.525V13.725H45.1496V18.525ZM52.6157 16.47C52.6557 16.82 52.7407 17.155 52.8707 17.475C53.0007 17.785 53.1707 18.06 53.3807 18.3C53.6007 18.54 53.8657 18.735 54.1757 18.885C54.4857 19.025 54.8457 19.095 55.2557 19.095C55.4757 19.095 55.7057 19.065 55.9457 19.005C56.1957 18.935 56.4257 18.84 56.6357 18.72C56.8457 18.6 57.0307 18.455 57.1907 18.285C57.3607 18.105 57.4757 17.905 57.5357 17.685H57.6707V18.81C57.6107 18.81 57.5407 18.83 57.4607 18.87C57.3907 18.91 57.3057 18.96 57.2057 19.02C57.0057 19.14 56.7357 19.27 56.3957 19.41C56.0557 19.54 55.6057 19.605 55.0457 19.605C54.5957 19.605 54.1657 19.54 53.7557 19.41C53.3557 19.28 53.0007 19.08 52.6907 18.81C52.3807 18.54 52.1307 18.195 51.9407 17.775C51.7607 17.355 51.6707 16.855 51.6707 16.275C51.6707 15.905 51.7307 15.53 51.8507 15.15C51.9807 14.77 52.1707 14.43 52.4207 14.13C52.6807 13.82 53.0107 13.57 53.4107 13.38C53.8107 13.19 54.2907 13.095 54.8507 13.095C55.3507 13.095 55.7857 13.18 56.1557 13.35C56.5357 13.52 56.8457 13.755 57.0857 14.055C57.3357 14.355 57.5207 14.71 57.6407 15.12C57.7607 15.53 57.8207 15.98 57.8207 16.47H52.6157ZM54.7907 13.59C54.4407 13.59 54.1357 13.66 53.8757 13.8C53.6257 13.94 53.4107 14.12 53.2307 14.34C53.0507 14.56 52.9107 14.81 52.8107 15.09C52.7107 15.37 52.6457 15.65 52.6157 15.93H56.8907C56.8807 15.64 56.8257 15.355 56.7257 15.075C56.6357 14.795 56.5057 14.545 56.3357 14.325C56.1657 14.105 55.9507 13.93 55.6907 13.8C55.4307 13.66 55.1307 13.59 54.7907 13.59ZM61.925 13.095C62.465 13.095 62.93 13.19 63.32 13.38C63.72 13.56 64.05 13.8 64.31 14.1C64.58 14.4 64.78 14.745 64.91 15.135C65.04 15.525 65.105 15.925 65.105 16.335C65.105 16.735 65.04 17.13 64.91 17.52C64.79 17.91 64.6 18.26 64.34 18.57C64.09 18.88 63.775 19.13 63.395 19.32C63.015 19.51 62.565 19.605 62.045 19.605C61.735 19.605 61.415 19.525 61.085 19.365C60.765 19.195 60.475 18.985 60.215 18.735V21.825C60.215 21.905 60.225 21.99 60.245 22.08C60.265 22.18 60.295 22.27 60.335 22.35C60.385 22.43 60.435 22.5 60.485 22.56C60.545 22.62 60.615 22.65 60.695 22.65V22.8H58.745V22.65C58.815 22.65 58.88 22.62 58.94 22.56C59 22.5 59.05 22.43 59.09 22.35C59.14 22.27 59.175 22.18 59.195 22.08C59.215 21.99 59.225 21.905 59.225 21.825V14.085C59.225 13.995 59.22 13.91 59.21 13.83C59.21 13.74 59.195 13.665 59.165 13.605C59.135 13.535 59.085 13.48 59.015 13.44C58.955 13.39 58.865 13.36 58.745 13.35V13.2H60.215V13.86C60.415 13.62 60.655 13.435 60.935 13.305C61.225 13.165 61.555 13.095 61.925 13.095ZM62.06 19.095C62.41 19.085 62.715 19.005 62.975 18.855C63.235 18.705 63.45 18.51 63.62 18.27C63.79 18.03 63.915 17.765 63.995 17.475C64.075 17.175 64.115 16.865 64.115 16.545C64.115 16.185 64.065 15.83 63.965 15.48C63.865 15.13 63.72 14.82 63.53 14.55C63.34 14.27 63.105 14.045 62.825 13.875C62.555 13.695 62.245 13.605 61.895 13.605C61.685 13.605 61.475 13.645 61.265 13.725C61.065 13.805 60.885 13.92 60.725 14.07C60.575 14.22 60.45 14.4 60.35 14.61C60.26 14.81 60.215 15.035 60.215 15.285V17.25C60.215 17.52 60.27 17.77 60.38 18C60.49 18.22 60.63 18.415 60.8 18.585C60.98 18.745 61.18 18.87 61.4 18.96C61.62 19.05 61.84 19.095 62.06 19.095ZM67.7247 16.47C67.7647 16.82 67.8497 17.155 67.9797 17.475C68.1097 17.785 68.2797 18.06 68.4897 18.3C68.7097 18.54 68.9747 18.735 69.2847 18.885C69.5947 19.025 69.9547 19.095 70.3647 19.095C70.5847 19.095 70.8147 19.065 71.0547 19.005C71.3047 18.935 71.5347 18.84 71.7447 18.72C71.9547 18.6 72.1397 18.455 72.2997 18.285C72.4697 18.105 72.5847 17.905 72.6447 17.685H72.7797V18.81C72.7197 18.81 72.6497 18.83 72.5697 18.87C72.4997 18.91 72.4147 18.96 72.3147 19.02C72.1147 19.14 71.8447 19.27 71.5047 19.41C71.1647 19.54 70.7147 19.605 70.1547 19.605C69.7047 19.605 69.2747 19.54 68.8647 19.41C68.4647 19.28 68.1097 19.08 67.7997 18.81C67.4897 18.54 67.2397 18.195 67.0497 17.775C66.8697 17.355 66.7797 16.855 66.7797 16.275C66.7797 15.905 66.8397 15.53 66.9597 15.15C67.0897 14.77 67.2797 14.43 67.5297 14.13C67.7897 13.82 68.1197 13.57 68.5197 13.38C68.9197 13.19 69.3997 13.095 69.9597 13.095C70.4597 13.095 70.8947 13.18 71.2647 13.35C71.6447 13.52 71.9547 13.755 72.1947 14.055C72.4447 14.355 72.6297 14.71 72.7497 15.12C72.8697 15.53 72.9297 15.98 72.9297 16.47H67.7247ZM69.8997 13.59C69.5497 13.59 69.2447 13.66 68.9847 13.8C68.7347 13.94 68.5197 14.12 68.3397 14.34C68.1597 14.56 68.0197 14.81 67.9197 15.09C67.8197 15.37 67.7547 15.65 67.7247 15.93H71.9997C71.9897 15.64 71.9347 15.355 71.8347 15.075C71.7447 14.795 71.6147 14.545 71.4447 14.325C71.2747 14.105 71.0597 13.93 70.7997 13.8C70.5397 13.66 70.2397 13.59 69.8997 13.59ZM80.645 18.525C80.645 18.605 80.655 18.695 80.675 18.795C80.705 18.885 80.74 18.97 80.78 19.05C80.82 19.13 80.87 19.2 80.93 19.26C81 19.32 81.065 19.35 81.125 19.35V19.5H79.205V19.35C79.275 19.35 79.34 19.325 79.4 19.275C79.46 19.215 79.51 19.145 79.55 19.065C79.59 18.975 79.62 18.885 79.64 18.795C79.66 18.695 79.67 18.605 79.67 18.525V14.925L76.1 18.42V18.525C76.1 18.605 76.11 18.695 76.13 18.795C76.15 18.885 76.18 18.97 76.22 19.05C76.26 19.13 76.305 19.2 76.355 19.26C76.415 19.32 76.48 19.35 76.55 19.35V19.5H74.645V19.35C74.715 19.35 74.78 19.325 74.84 19.275C74.9 19.215 74.95 19.145 74.99 19.065C75.03 18.975 75.06 18.885 75.08 18.795C75.1 18.695 75.11 18.605 75.11 18.525V14.13C75.11 14.06 75.1 13.98 75.08 13.89C75.06 13.8 75.03 13.715 74.99 13.635C74.95 13.555 74.9 13.49 74.84 13.44C74.78 13.38 74.715 13.35 74.645 13.35V13.2H76.55V13.35C76.47 13.35 76.4 13.38 76.34 13.44C76.29 13.49 76.245 13.555 76.205 13.635C76.175 13.715 76.15 13.8 76.13 13.89C76.11 13.98 76.1 14.06 76.1 14.13V17.715L79.67 14.22V14.13C79.67 14.06 79.66 13.98 79.64 13.89C79.62 13.8 79.59 13.715 79.55 13.635C79.51 13.555 79.46 13.49 79.4 13.44C79.34 13.38 79.275 13.35 79.205 13.35V13.2H81.125V13.35C81.045 13.35 80.97 13.38 80.9 13.44C80.84 13.49 80.79 13.555 80.75 13.635C80.72 13.715 80.695 13.8 80.675 13.89C80.655 13.98 80.645 14.06 80.645 14.13V18.525ZM79.49 11.175C79.49 11.335 79.45 11.51 79.37 11.7C79.29 11.88 79.175 12.05 79.025 12.21C78.875 12.36 78.695 12.485 78.485 12.585C78.285 12.685 78.06 12.735 77.81 12.735C77.58 12.735 77.36 12.69 77.15 12.6C76.95 12.5 76.775 12.375 76.625 12.225C76.475 12.075 76.355 11.91 76.265 11.73C76.175 11.54 76.13 11.355 76.13 11.175H76.22C76.23 11.235 76.26 11.32 76.31 11.43C76.37 11.53 76.46 11.635 76.58 11.745C76.7 11.855 76.855 11.95 77.045 12.03C77.245 12.11 77.495 12.15 77.795 12.15C78.105 12.15 78.36 12.11 78.56 12.03C78.76 11.95 78.92 11.855 79.04 11.745C79.16 11.635 79.245 11.53 79.295 11.43C79.345 11.32 79.38 11.235 79.4 11.175H79.49ZM88.0894 14.775C88.0894 14.665 88.0694 14.545 88.0294 14.415C87.9894 14.285 87.9294 14.17 87.8494 14.07C87.7694 13.96 87.6694 13.87 87.5494 13.8C87.4294 13.73 87.2894 13.695 87.1294 13.695H85.8094V18.525C85.8094 18.605 85.8194 18.69 85.8394 18.78C85.8594 18.87 85.8894 18.96 85.9294 19.05C85.9794 19.13 86.0294 19.2 86.0794 19.26C86.1394 19.32 86.2094 19.35 86.2894 19.35V19.5H84.3394V19.35C84.4194 19.35 84.4894 19.32 84.5494 19.26C84.6094 19.2 84.6594 19.13 84.6994 19.05C84.7494 18.97 84.7844 18.885 84.8044 18.795C84.8244 18.695 84.8344 18.605 84.8344 18.525V13.695H83.5444C83.3844 13.695 83.2444 13.73 83.1244 13.8C83.0044 13.87 82.9044 13.96 82.8244 14.07C82.7544 14.17 82.6994 14.285 82.6594 14.415C82.6194 14.545 82.5994 14.665 82.5994 14.775H82.4494V13.2H88.2244V14.775H88.0894ZM95.5489 18.525C95.5489 18.605 95.5589 18.695 95.5789 18.795C95.6089 18.885 95.6439 18.97 95.6839 19.05C95.7239 19.13 95.7739 19.2 95.8339 19.26C95.9039 19.32 95.9689 19.35 96.0289 19.35V19.5H94.1089V19.35C94.1789 19.35 94.2439 19.325 94.3039 19.275C94.3639 19.215 94.4139 19.145 94.4539 19.065C94.4939 18.975 94.5239 18.885 94.5439 18.795C94.5639 18.695 94.5739 18.605 94.5739 18.525V14.925L91.0039 18.42V18.525C91.0039 18.605 91.0139 18.695 91.0339 18.795C91.0539 18.885 91.0839 18.97 91.1239 19.05C91.1639 19.13 91.2089 19.2 91.2589 19.26C91.3189 19.32 91.3839 19.35 91.4539 19.35V19.5H89.5489V19.35C89.6189 19.35 89.6839 19.325 89.7439 19.275C89.8039 19.215 89.8539 19.145 89.8939 19.065C89.9339 18.975 89.9639 18.885 89.9839 18.795C90.0039 18.695 90.0139 18.605 90.0139 18.525V14.13C90.0139 14.06 90.0039 13.98 89.9839 13.89C89.9639 13.8 89.9339 13.715 89.8939 13.635C89.8539 13.555 89.8039 13.49 89.7439 13.44C89.6839 13.38 89.6189 13.35 89.5489 13.35V13.2H91.4539V13.35C91.3739 13.35 91.3039 13.38 91.2439 13.44C91.1939 13.49 91.1489 13.555 91.1089 13.635C91.0789 13.715 91.0539 13.8 91.0339 13.89C91.0139 13.98 91.0039 14.06 91.0039 14.13V17.715L94.5739 14.22V14.13C94.5739 14.06 94.5639 13.98 94.5439 13.89C94.5239 13.8 94.4939 13.715 94.4539 13.635C94.4139 13.555 94.3639 13.49 94.3039 13.44C94.2439 13.38 94.1789 13.35 94.1089 13.35V13.2H96.0289V13.35C95.9489 13.35 95.8739 13.38 95.8039 13.44C95.7439 13.49 95.6939 13.555 95.6539 13.635C95.6239 13.715 95.5989 13.8 95.5789 13.89C95.5589 13.98 95.5489 14.06 95.5489 14.13V18.525ZM107.355 14.7C107.355 14.87 107.32 15.03 107.25 15.18C107.18 15.33 107.09 15.47 106.98 15.6C106.88 15.72 106.76 15.83 106.62 15.93C106.48 16.02 106.345 16.09 106.215 16.14C106.385 16.17 106.56 16.225 106.74 16.305C106.93 16.385 107.1 16.49 107.25 16.62C107.41 16.75 107.54 16.915 107.64 17.115C107.74 17.305 107.79 17.535 107.79 17.805C107.79 17.945 107.755 18.115 107.685 18.315C107.625 18.505 107.51 18.69 107.34 18.87C107.18 19.04 106.955 19.19 106.665 19.32C106.385 19.44 106.02 19.5 105.57 19.5H102.27V19.35C102.35 19.35 102.42 19.32 102.48 19.26C102.54 19.2 102.59 19.13 102.63 19.05C102.68 18.97 102.715 18.885 102.735 18.795C102.755 18.695 102.765 18.605 102.765 18.525V14.145C102.765 13.985 102.72 13.815 102.63 13.635C102.55 13.445 102.43 13.35 102.27 13.35V13.2H105.33C105.69 13.2 105.995 13.25 106.245 13.35C106.505 13.44 106.715 13.56 106.875 13.71C107.045 13.85 107.165 14.01 107.235 14.19C107.315 14.36 107.355 14.53 107.355 14.7ZM103.74 15.945H104.895C105.185 15.945 105.425 15.915 105.615 15.855C105.815 15.785 105.975 15.695 106.095 15.585C106.215 15.475 106.3 15.35 106.35 15.21C106.41 15.07 106.44 14.925 106.44 14.775C106.44 14.655 106.405 14.53 106.335 14.4C106.265 14.27 106.16 14.155 106.02 14.055C105.89 13.945 105.73 13.855 105.54 13.785C105.35 13.715 105.135 13.68 104.895 13.68H103.74V15.945ZM105.21 19.02C105.33 19.02 105.48 19.01 105.66 18.99C105.85 18.96 106.03 18.905 106.2 18.825C106.38 18.735 106.53 18.61 106.65 18.45C106.78 18.28 106.845 18.06 106.845 17.79C106.845 17.5 106.76 17.265 106.59 17.085C106.42 16.905 106.22 16.77 105.99 16.68C105.77 16.58 105.54 16.515 105.3 16.485C105.06 16.455 104.875 16.44 104.745 16.44H103.74V19.02H105.21ZM118.917 18.555C118.917 18.635 118.927 18.72 118.947 18.81C118.977 18.9 119.012 18.985 119.052 19.065C119.092 19.145 119.137 19.215 119.187 19.275C119.237 19.325 119.302 19.35 119.382 19.35V19.5H117.477V19.35C117.547 19.35 117.607 19.325 117.657 19.275C117.717 19.215 117.767 19.145 117.807 19.065C117.847 18.985 117.877 18.9 117.897 18.81C117.917 18.72 117.927 18.635 117.927 18.555V16.485C117.697 16.725 117.452 16.91 117.192 17.04C116.942 17.16 116.627 17.22 116.247 17.22C115.887 17.22 115.567 17.15 115.287 17.01C115.007 16.87 114.772 16.685 114.582 16.455C114.402 16.215 114.262 15.95 114.162 15.66C114.072 15.36 114.027 15.05 114.027 14.73V14.13C114.027 14.06 114.017 13.98 113.997 13.89C113.987 13.8 113.967 13.715 113.937 13.635C113.907 13.555 113.867 13.49 113.817 13.44C113.777 13.38 113.732 13.35 113.682 13.35V13.2H115.437V13.35C115.377 13.35 115.317 13.38 115.257 13.44C115.207 13.49 115.162 13.555 115.122 13.635C115.092 13.715 115.067 13.8 115.047 13.89C115.027 13.98 115.017 14.06 115.017 14.13V14.73C115.017 15.07 115.067 15.36 115.167 15.6C115.267 15.83 115.392 16.02 115.542 16.17C115.692 16.31 115.857 16.415 116.037 16.485C116.217 16.545 116.392 16.575 116.562 16.575C116.822 16.575 117.057 16.515 117.267 16.395C117.487 16.265 117.707 16.07 117.927 15.81V14.13C117.927 14.06 117.917 13.98 117.897 13.89C117.877 13.8 117.847 13.715 117.807 13.635C117.767 13.555 117.717 13.49 117.657 13.44C117.607 13.38 117.547 13.35 117.477 13.35V13.2H119.382V13.35C119.302 13.35 119.237 13.38 119.187 13.44C119.137 13.49 119.092 13.555 119.052 13.635C119.012 13.715 118.977 13.8 118.947 13.89C118.927 13.98 118.917 14.06 118.917 14.13V18.555ZM125.26 19.5V18.735L125.185 18.81C124.935 19.06 124.645 19.255 124.315 19.395C123.995 19.535 123.605 19.605 123.145 19.605C122.795 19.605 122.495 19.565 122.245 19.485C121.995 19.405 121.79 19.295 121.63 19.155C121.47 19.005 121.35 18.835 121.27 18.645C121.2 18.455 121.165 18.255 121.165 18.045C121.165 17.705 121.255 17.405 121.435 17.145C121.625 16.885 121.895 16.655 122.245 16.455C122.595 16.255 123.02 16.075 123.52 15.915C124.03 15.745 124.61 15.58 125.26 15.42C125.24 15.03 125.16 14.715 125.02 14.475C124.88 14.235 124.715 14.05 124.525 13.92C124.335 13.78 124.135 13.69 123.925 13.65C123.715 13.6 123.535 13.575 123.385 13.575C123.125 13.575 122.895 13.615 122.695 13.695C122.495 13.765 122.32 13.865 122.17 13.995C122.02 14.115 121.895 14.255 121.795 14.415C121.705 14.575 121.635 14.735 121.585 14.895H121.45V13.725C121.54 13.725 121.645 13.695 121.765 13.635C121.885 13.565 122.025 13.49 122.185 13.41C122.355 13.33 122.555 13.26 122.785 13.2C123.025 13.13 123.31 13.095 123.64 13.095C124.19 13.095 124.635 13.165 124.975 13.305C125.315 13.445 125.575 13.63 125.755 13.86C125.945 14.09 126.07 14.355 126.13 14.655C126.19 14.945 126.22 15.245 126.22 15.555V18.525C126.22 18.725 126.27 18.915 126.37 19.095C126.47 19.265 126.605 19.35 126.775 19.35V19.5H125.26ZM125.26 18.075V15.93L125.11 15.96C124.87 16.02 124.575 16.1 124.225 16.2C123.885 16.3 123.56 16.43 123.25 16.59C122.94 16.75 122.675 16.94 122.455 17.16C122.235 17.38 122.125 17.635 122.125 17.925C122.125 18.245 122.255 18.51 122.515 18.72C122.775 18.93 123.115 19.035 123.535 19.035C123.865 19.035 124.155 18.965 124.405 18.825C124.655 18.675 124.885 18.485 125.095 18.255L125.26 18.075ZM133.676 14.775C133.676 14.665 133.656 14.545 133.616 14.415C133.576 14.285 133.516 14.17 133.436 14.07C133.356 13.96 133.256 13.87 133.136 13.8C133.016 13.73 132.876 13.695 132.716 13.695H131.396V18.525C131.396 18.605 131.406 18.69 131.426 18.78C131.446 18.87 131.476 18.96 131.516 19.05C131.566 19.13 131.616 19.2 131.666 19.26C131.726 19.32 131.796 19.35 131.876 19.35V19.5H129.926V19.35C130.006 19.35 130.076 19.32 130.136 19.26C130.196 19.2 130.246 19.13 130.286 19.05C130.336 18.97 130.371 18.885 130.391 18.795C130.411 18.695 130.421 18.605 130.421 18.525V13.695H129.131C128.971 13.695 128.831 13.73 128.711 13.8C128.591 13.87 128.491 13.96 128.411 14.07C128.341 14.17 128.286 14.285 128.246 14.415C128.206 14.545 128.186 14.665 128.186 14.775H128.036V13.2H133.811V14.775H133.676Z" fill="#426E8F"></path></svg> 