<?xml version="1.0" encoding="UTF-8"?> <svg xmlns="http://www.w3.org/2000/svg" width="225" height="33" viewBox="0 0 225 33" fill="none"><path d="M11.1961 32.8681C9.01209 32.8681 7.06809 32.4241 5.36409 31.5361C3.68409 30.6721 2.36409 29.3881 1.40409 27.6841C0.468088 25.9561 8.79765e-05 23.8441 8.79765e-05 21.3481C8.79765e-05 19.8601 0.192088 18.3721 0.576088 16.8841C0.960088 15.3961 1.47609 13.9681 2.12409 12.6001C2.79609 11.2321 3.54009 9.97211 4.35609 8.82011C3.99609 7.38011 3.81609 5.82011 3.81609 4.14011C3.81609 2.86811 3.96009 1.65611 4.24809 0.504111C4.34409 0.168111 4.51209 0.000111341 4.75209 0.000111341C4.94409 0.000111341 5.02809 0.120111 5.00409 0.360111C4.93209 0.840112 4.87209 1.35611 4.82409 1.90811C4.77609 2.43611 4.75209 3.07211 4.75209 3.81611C4.75209 5.20811 4.88409 6.52811 5.14809 7.77611C5.38809 7.46411 5.62809 7.17611 5.86809 6.91211C6.85209 5.83211 8.01609 4.82411 9.36009 3.88811C10.7041 2.92811 12.1921 2.16011 13.8241 1.58411C15.4801 1.00811 17.2321 0.720113 19.0801 0.720113C20.8081 0.720113 22.3921 1.04411 23.8321 1.69211C25.2721 2.31611 26.4241 3.22811 27.2881 4.42811C28.1761 5.60411 28.6201 7.03211 28.6201 8.71211C28.6201 9.76811 28.3321 10.8481 27.7561 11.9521C27.2041 13.0561 26.4001 14.0761 25.3441 15.0121C24.3121 15.9241 23.0521 16.6681 21.5641 17.2441C20.1001 17.8201 18.4561 18.1081 16.6321 18.1081C14.2321 18.1081 12.0361 17.5801 10.0441 16.5241C8.05209 15.4681 6.50409 13.8601 5.40009 11.7001C4.44009 13.4041 3.73209 15.1321 3.27609 16.8841C2.82009 18.6361 2.59209 20.3041 2.59209 21.8881C2.59209 24.1921 2.97609 26.0641 3.74409 27.5041C4.51209 28.9441 5.56809 30.0001 6.91209 30.6721C8.28009 31.3681 9.84009 31.7161 11.5921 31.7161C14.7121 31.7161 17.4481 30.9241 19.8001 29.3401C22.1761 27.7801 24.1321 25.3561 25.6681 22.0681C25.9561 22.0681 26.1001 22.1761 26.1001 22.3921C24.6121 25.9441 22.5721 28.5721 19.9801 30.2761C17.4121 32.0041 14.4841 32.8681 11.1961 32.8681ZM6.94809 9.28811C6.63609 9.72011 6.33609 10.1641 6.04809 10.6201C6.88809 12.5881 8.17209 14.1721 9.90009 15.3721C11.6281 16.5721 13.8001 17.1721 16.4161 17.1721C18.0721 17.1721 19.5481 16.9201 20.8441 16.4161C22.1641 15.9121 23.2681 15.2401 24.1561 14.4001C25.0681 13.5601 25.7641 12.6361 26.2441 11.6281C26.7241 10.5961 26.9641 9.56411 26.9641 8.53211C26.9641 7.26011 26.6161 6.14411 25.9201 5.18411C25.2481 4.22411 24.3241 3.48011 23.1481 2.95211C21.9721 2.40011 20.6401 2.12411 19.1521 2.12411C17.6641 2.12411 16.1641 2.43611 14.6521 3.06011C13.1641 3.68411 11.7481 4.53611 10.4041 5.61611C9.08409 6.69611 7.93209 7.92011 6.94809 9.28811ZM35.4193 20.1241C35.4193 20.8441 35.2273 21.7081 34.8433 22.7161C34.4593 23.7241 33.9193 24.7081 33.2233 25.6681C32.5273 26.6281 31.6993 27.4321 30.7393 28.0801C29.8033 28.7041 28.7833 29.0161 27.6793 29.0161C26.7193 29.0161 26.0473 28.7281 25.6633 28.1521C25.2793 27.5761 25.0873 26.8561 25.0873 25.9921C25.0873 25.5121 25.1473 25.0201 25.2673 24.5161C25.3873 24.0121 25.6393 23.3521 26.0233 22.5361C25.8073 22.5361 25.6873 22.4881 25.6633 22.3921C25.6633 22.2721 25.6633 22.1641 25.6633 22.0681C25.9033 21.4921 26.2513 20.7361 26.7073 19.8001C27.1633 18.8401 27.6913 17.7961 28.2913 16.6681C28.8913 15.5161 29.5273 14.3641 30.1993 13.2121C30.8713 12.0601 31.5433 10.9801 32.2153 9.97211C32.8873 8.94011 33.5233 8.08811 34.1233 7.41611C35.6833 5.56811 37.2073 4.12811 38.6953 3.09611C40.1833 2.04011 41.6113 1.51211 42.9793 1.51211C43.7953 1.51211 44.4193 1.71611 44.8513 2.12411C45.3073 2.50811 45.5353 3.02411 45.5353 3.67211C45.5353 4.56011 45.1273 5.64011 44.3113 6.91211C43.4953 8.16011 42.2713 9.45611 40.6393 10.8001C39.6553 11.6161 38.3473 12.5041 36.7153 13.4641C35.0833 14.4001 33.1633 15.1801 30.9553 15.8041H30.8833C30.0673 17.2921 29.3353 18.7321 28.6873 20.1241C28.0633 21.5161 27.5713 22.7761 27.2113 23.9041C26.8513 25.0081 26.6713 25.8961 26.6713 26.5681C26.6713 26.9281 26.7073 27.2521 26.7793 27.5401C26.8273 27.7321 26.9353 27.9121 27.1033 28.0801C27.2953 28.2241 27.5233 28.2961 27.7873 28.2961C28.1233 28.2961 28.5073 28.1641 28.9393 27.9001C29.3953 27.6361 29.8993 27.1681 30.4513 26.4961C30.7873 26.0881 31.1353 25.5961 31.4953 25.0201C31.8553 24.4441 32.1913 23.8561 32.5033 23.2561C32.8153 22.6321 33.0673 22.0801 33.2593 21.6001C33.6673 20.6401 33.8713 19.7641 33.8713 18.9721C33.8713 18.2041 33.6913 17.7001 33.3313 17.4601C32.9953 17.2201 32.4793 17.1001 31.7833 17.1001C31.3513 17.1001 31.1353 16.9801 31.1353 16.7401C31.1353 16.6441 31.1953 16.5481 31.3153 16.4521C31.4593 16.3561 31.6513 16.3081 31.8913 16.3081C32.8033 16.3081 33.6193 16.6441 34.3393 17.3161C35.0593 17.9881 35.4193 18.9241 35.4193 20.1241ZM42.9793 2.70011C42.1633 2.70011 41.2633 3.04811 40.2793 3.74411C39.3193 4.41611 38.3233 5.32811 37.2913 6.48011C36.2593 7.63211 35.2393 8.94011 34.2313 10.4041C33.2473 11.8441 32.3113 13.3321 31.4233 14.8681C33.2713 14.2921 34.9513 13.5601 36.4633 12.6721C37.9753 11.7601 39.1993 10.9201 40.1353 10.1521C41.5513 8.97611 42.6073 7.84811 43.3033 6.76811C43.9993 5.66411 44.3473 4.76411 44.3473 4.06811C44.3473 3.66011 44.2273 3.33611 43.9873 3.09611C43.7713 2.83211 43.4353 2.70011 42.9793 2.70011ZM37.0925 28.4761C37.5005 28.4761 38.0045 28.2481 38.6045 27.7921C39.2285 27.3121 39.8765 26.7121 40.5485 25.9921C41.2205 25.2481 41.8445 24.4681 42.4205 23.6521C42.1325 23.7241 41.8325 23.7601 41.5205 23.7601C40.6565 23.7601 40.0205 23.5321 39.6125 23.0761C39.2285 22.6201 39.0365 22.0561 39.0365 21.3841C39.0365 20.6641 39.2405 19.9201 39.6485 19.1521C40.0565 18.3601 40.6205 17.7001 41.3405 17.1721C42.0845 16.6441 42.9125 16.3801 43.8245 16.3801C45.0245 16.3801 45.7445 16.8961 45.9845 17.9281C46.0565 17.7361 46.1405 17.5561 46.2365 17.3881C46.3805 17.1001 46.5725 16.9081 46.8125 16.8121C47.0525 16.6921 47.3405 16.6321 47.6765 16.6321H49.6205C49.4045 16.8001 48.9965 17.1961 48.3965 17.8201C47.8205 18.4201 47.1485 19.5001 46.3805 21.0601C46.1165 21.5881 45.8285 22.2121 45.5165 22.9321C45.2045 23.6521 44.9405 24.3841 44.7245 25.1281C44.5085 25.8721 44.4005 26.5321 44.4005 27.1081C44.4005 27.9001 44.6765 28.2961 45.2285 28.2961C45.7805 28.2961 46.3325 27.9961 46.8845 27.3961C47.4605 26.7721 48.0125 26.0401 48.5405 25.2001C48.6605 25.2001 48.7565 25.2601 48.8285 25.3801C48.9005 25.4761 48.9365 25.5721 48.9365 25.6681C48.3365 26.6281 47.6645 27.4801 46.9205 28.2241C46.1765 28.9441 45.3245 29.3041 44.3645 29.3041C43.6925 29.3041 43.2125 29.1121 42.9245 28.7281C42.6605 28.3441 42.5285 27.8401 42.5285 27.2161C42.5285 26.6161 42.6245 25.9681 42.8165 25.2721C43.0085 24.5761 43.2365 23.8921 43.5005 23.2201V23.2561C42.7805 24.2401 42.0365 25.1881 41.2685 26.1001C40.5005 27.0121 39.7205 27.7681 38.9285 28.3681C38.1365 28.9681 37.3805 29.2681 36.6605 29.2681C35.9645 29.2681 35.4245 29.0641 35.0405 28.6561C34.6565 28.2481 34.4645 27.7321 34.4645 27.1081C34.4645 26.6281 34.5845 26.1721 34.8245 25.7401C35.0645 25.3081 35.3645 24.9481 35.7245 24.6601C36.0845 24.3721 36.4565 24.2281 36.8405 24.2281C37.0085 24.2281 37.1645 24.2521 37.3085 24.3001C37.4765 24.3481 37.6325 24.4321 37.7765 24.5521C37.3205 24.9361 36.9725 25.4041 36.7325 25.9561C36.4925 26.5081 36.3725 26.9881 36.3725 27.3961C36.3725 27.6841 36.4205 27.9361 36.5165 28.1521C36.6365 28.3681 36.8285 28.4761 37.0925 28.4761ZM41.8805 23.2201C42.4805 23.2201 43.0085 22.9801 43.4645 22.5001C43.9205 21.9961 44.2805 21.3841 44.5445 20.6641C44.8325 19.9201 44.9765 19.2121 44.9765 18.5401C44.9765 17.5081 44.6645 16.9921 44.0405 16.9921C43.6565 16.9921 43.2725 17.1601 42.8885 17.4961C42.5045 17.8081 42.1445 18.2281 41.8085 18.7561C41.4725 19.2601 41.1965 19.7881 40.9805 20.3401C40.7885 20.8921 40.6925 21.3961 40.6925 21.8521C40.6925 22.2361 40.7765 22.5601 40.9445 22.8241C41.1365 23.0881 41.4485 23.2201 41.8805 23.2201ZM54.69 24.8401V24.8041C53.898 26.0041 52.974 27.0361 51.918 27.9001C50.886 28.7401 49.89 29.1601 48.93 29.1601C48.186 29.1601 47.61 28.9681 47.202 28.5841C46.794 28.2001 46.59 27.7321 46.59 27.1801C46.59 26.5321 46.818 25.9321 47.274 25.3801C47.73 24.8281 48.222 24.5521 48.75 24.5521C48.942 24.5521 49.11 24.6241 49.254 24.7681C48.918 25.1521 48.63 25.6081 48.39 26.1361C48.15 26.6401 48.03 27.0961 48.03 27.5041V27.6121C48.03 28.1161 48.246 28.3681 48.678 28.3681C49.038 28.3681 49.458 28.2001 49.938 27.8641C50.418 27.5041 50.886 27.0841 51.342 26.6041C51.822 26.1001 52.194 25.6561 52.458 25.2721C52.698 24.9361 52.998 24.4321 53.358 23.7601C53.718 23.0881 54.042 22.3321 54.33 21.4921C54.618 20.6521 54.762 19.8361 54.762 19.0441C54.786 18.4201 54.69 17.9401 54.474 17.6041C54.282 17.2681 54.018 17.1001 53.682 17.1001C53.202 17.1001 52.77 17.2801 52.386 17.6401C52.002 18.0001 51.594 18.6721 51.162 19.6561C50.85 19.6801 50.646 19.6321 50.55 19.5121C50.454 19.3921 50.406 19.2601 50.406 19.1161C50.406 18.8281 50.61 18.4681 51.018 18.0361C51.426 17.6041 51.93 17.2201 52.53 16.8841C53.13 16.5241 53.706 16.3441 54.258 16.3441C55.026 16.3441 55.626 16.5961 56.058 17.1001C56.514 17.6041 56.742 18.3001 56.742 19.1881C56.742 19.6681 56.67 20.1841 56.526 20.7361C56.406 21.2641 56.226 21.8041 55.986 22.3561C56.466 21.7801 56.994 21.1801 57.57 20.5561C58.146 19.9081 58.698 19.3081 59.226 18.7561C59.778 18.1801 60.258 17.7121 60.666 17.3521C61.074 16.9681 61.35 16.7641 61.494 16.7401C61.806 16.8361 61.986 16.9921 62.034 17.2081C62.106 17.4241 62.13 17.6281 62.106 17.8201C62.082 17.9881 62.022 18.2041 61.926 18.4681C61.854 18.7081 61.686 19.0441 61.422 19.4761C60.966 20.2441 60.522 21.0721 60.09 21.9601C59.658 22.8241 59.166 23.9281 58.614 25.2721C59.718 23.6881 60.87 22.2481 62.07 20.9521C63.294 19.6561 64.482 18.5881 65.634 17.7481C66.186 17.2921 66.738 16.9321 67.29 16.6681C67.866 16.4041 68.382 16.2721 68.838 16.2721C69.414 16.2721 69.882 16.4641 70.242 16.8481C70.602 17.2321 70.782 17.7001 70.782 18.2521C70.782 18.7081 70.662 19.1401 70.422 19.5481C70.182 19.9561 69.906 20.2921 69.594 20.5561C69.282 20.7961 69.018 20.9161 68.802 20.9161C68.658 20.9161 68.514 20.8441 68.37 20.7001C68.562 20.4361 68.766 20.1361 68.982 19.8001C69.222 19.4641 69.39 19.1401 69.486 18.8281C69.558 18.5401 69.594 18.2521 69.594 17.9641C69.594 17.6281 69.522 17.4001 69.378 17.2801C69.234 17.1361 69.03 17.0641 68.766 17.0641C68.238 17.0641 67.686 17.3521 67.11 17.9281C66.534 18.5041 66.006 19.2481 65.526 20.1601C65.046 21.0481 64.65 21.9961 64.338 23.0041C64.026 24.0121 63.858 24.9361 63.834 25.7761C63.81 26.4001 63.906 27.0001 64.122 27.5761C64.338 28.1281 64.77 28.4041 65.418 28.4041C66.162 28.4041 66.894 28.1041 67.614 27.5041C68.358 26.9041 69.066 26.1241 69.738 25.1641C70.41 24.1801 70.998 23.1481 71.502 22.0681C71.598 22.0681 71.694 22.0921 71.79 22.1401C71.886 22.1641 71.934 22.2481 71.934 22.3921C71.406 23.5921 70.77 24.7081 70.026 25.7401C69.306 26.7721 68.502 27.6001 67.614 28.2241C66.75 28.8481 65.838 29.1601 64.878 29.1601C63.87 29.1601 63.102 28.8241 62.574 28.1521C62.07 27.4801 61.818 26.6641 61.818 25.7041C61.818 24.8641 61.986 23.9281 62.322 22.8961C62.682 21.8641 63.114 20.9281 63.618 20.0881C62.754 20.8801 61.902 21.7801 61.062 22.7881C60.246 23.7961 59.526 24.8281 58.902 25.8841C58.278 26.9401 57.846 27.9121 57.606 28.8001C57.27 28.8001 57.042 28.6561 56.922 28.3681C56.802 28.0561 56.742 27.7321 56.742 27.3961C56.742 26.7001 56.898 25.8961 57.21 24.9841C57.522 24.0721 57.822 23.3041 58.11 22.6801C58.518 21.8401 58.89 21.1081 59.226 20.4841C59.562 19.8361 59.85 19.2961 60.09 18.8641C59.994 18.8641 59.79 19.0201 59.478 19.3321C59.19 19.6201 58.854 19.9801 58.47 20.4121C58.11 20.8441 57.774 21.2401 57.462 21.6001C56.742 22.4161 56.154 23.0761 55.698 23.5801C55.242 24.0841 54.906 24.5041 54.69 24.8401ZM72.5511 29.0161C72.2871 29.0161 71.9631 28.9561 71.5791 28.8361C71.2191 28.7161 70.8951 28.5001 70.6071 28.1881C70.3431 27.8521 70.2111 27.3601 70.2111 26.7121C70.2111 26.0881 70.4151 25.3681 70.8231 24.5521C71.2311 23.7361 71.5911 23.0161 71.9031 22.3921C71.6391 22.3921 71.5071 22.2841 71.5071 22.0681C71.5311 21.9961 71.6391 21.7681 71.8311 21.3841C72.0231 21.0001 72.2511 20.5441 72.5151 20.0161C72.7791 19.4881 73.0311 18.9841 73.2711 18.5041C73.5351 18.0001 73.7391 17.6161 73.8831 17.3521C74.1711 16.8241 74.6271 16.5601 75.2511 16.5601H77.4831C77.0751 16.8721 76.7031 17.2201 76.3671 17.6041C76.0551 17.9641 75.6591 18.6361 75.1791 19.6201C75.1791 19.6201 75.0951 19.7881 74.9271 20.1241C74.7591 20.4601 74.5431 20.8921 74.2791 21.4201C74.0391 21.9241 73.7871 22.4401 73.5231 22.9681C73.2831 23.4961 73.0791 23.9401 72.9111 24.3001C72.5991 24.9721 72.3951 25.5121 72.2991 25.9201C72.2031 26.3041 72.1551 26.6641 72.1551 27.0001C72.1551 27.7921 72.4191 28.1881 72.9471 28.1881C73.5231 28.1881 74.2191 27.7201 75.0351 26.7841C75.7071 25.9921 76.3671 25.0441 77.0151 23.9401C77.6631 22.8361 78.2751 21.6961 78.8511 20.5201C79.4511 19.3441 79.9791 18.2881 80.4351 17.3521C80.6991 16.8241 81.1671 16.5601 81.8391 16.5601H83.8191C83.2911 16.9921 82.7511 17.6401 82.1991 18.5041C81.6711 19.3681 81.0831 20.4721 80.4351 21.8161C80.2671 22.1761 80.0511 22.6321 79.7871 23.1841C79.5231 23.7361 79.2831 24.3241 79.0671 24.9481C78.8751 25.5721 78.7791 26.1961 78.7791 26.8201C78.7791 27.6601 79.0791 28.0801 79.6791 28.0801C80.4951 28.0801 81.2871 27.5161 82.0551 26.3881C82.8231 25.2601 83.5791 23.8201 84.3231 22.0681C84.5151 22.0681 84.6231 22.0801 84.6471 22.1041C84.6951 22.1281 84.7311 22.2241 84.7551 22.3921C84.4911 23.0401 84.1671 23.7481 83.7831 24.5161C83.4231 25.2601 83.0031 25.9801 82.5231 26.6761C82.0671 27.3721 81.5511 27.9361 80.9751 28.3681C80.4231 28.8001 79.8111 29.0161 79.1391 29.0161C78.5391 29.0161 78.0471 28.8001 77.6631 28.3681C77.2791 27.9121 77.0871 27.2761 77.0871 26.4601C77.0871 25.8121 77.2071 25.1161 77.4471 24.3721C77.0391 25.0921 76.5711 25.8121 76.0431 26.5321C75.5151 27.2521 74.9511 27.8521 74.3511 28.3321C73.7511 28.7881 73.1511 29.0161 72.5511 29.0161ZM96.3991 14.8681C95.7991 14.8681 95.1631 14.7841 94.4911 14.6161C93.8431 14.4481 93.1831 14.2801 92.5111 14.1121C91.8631 13.9441 91.2511 13.8601 90.6751 13.8601C90.1951 13.8601 89.7511 13.9441 89.3431 14.1121C88.9351 14.2561 88.5991 14.5561 88.3351 15.0121L88.2271 15.1921C88.1551 15.2881 88.0951 15.3361 88.0471 15.3361C87.9991 15.3361 87.9511 15.3001 87.9031 15.2281C87.8551 15.1561 87.8431 15.0721 87.8671 14.9761C88.1311 14.3041 88.6111 13.7761 89.3071 13.3921C90.0031 12.9841 90.7951 12.7801 91.6831 12.7801C92.3071 12.7801 93.0991 12.8641 94.0591 13.0321C95.0431 13.2001 95.9311 13.2841 96.7231 13.2841C97.2271 13.2841 97.7911 13.2601 98.4151 13.2121C99.0631 13.1401 99.6751 12.9841 100.251 12.7441C100.851 12.4801 101.307 12.0601 101.619 11.4841C101.859 11.4841 101.979 11.5681 101.979 11.7361C101.523 12.8161 100.899 13.6081 100.107 14.1121C99.3151 14.6161 98.0791 14.8681 96.3991 14.8681ZM82.0711 29.0161C81.8071 29.0161 81.5911 29.0161 81.4231 29.0161C81.2311 29.0401 81.0391 29.1001 80.8471 29.1961C81.7351 27.4921 82.5751 25.7881 83.3671 24.0841C84.1591 22.3561 84.9631 20.7241 85.7791 19.1881C86.2591 18.3241 86.6551 17.7241 86.9671 17.3881C87.3031 17.0281 87.7471 16.8481 88.2991 16.8481C88.4911 16.8481 88.6951 16.8841 88.9111 16.9561C89.1271 17.0041 89.3431 17.0281 89.5591 17.0281C89.7031 17.0281 89.8111 17.0161 89.8831 16.9921C89.5471 17.1841 89.1151 17.6641 88.5871 18.4321C88.0591 19.1761 87.5191 20.0401 86.9671 21.0241C86.4151 22.0081 85.9231 22.9321 85.4911 23.7961C85.9471 23.2441 86.4151 22.6921 86.8951 22.1401C87.3991 21.5881 87.9511 21.0601 88.5511 20.5561C89.0791 20.1001 89.6311 19.6081 90.2071 19.0801C90.8071 18.5281 91.3951 18.0601 91.9711 17.6761C92.5471 17.2921 93.0511 17.1001 93.4831 17.1001C93.6511 17.1001 93.7591 17.1121 93.8071 17.1361C94.2631 17.3281 94.4911 17.6401 94.4911 18.0721C94.4911 18.2161 94.4311 18.4321 94.3111 18.7201C93.9991 19.5361 93.5911 20.3761 93.0871 21.2401C92.6071 22.0801 92.1511 22.9321 91.7191 23.7961C92.0791 23.3641 92.5231 22.8361 93.0511 22.2121C93.6031 21.5881 94.1551 21.0361 94.7071 20.5561C95.2351 20.0761 95.9071 19.5721 96.7231 19.0441C97.5391 18.5161 98.3431 18.0601 99.1351 17.6761C99.9271 17.2921 100.563 17.1001 101.043 17.1001C101.211 17.1001 101.331 17.1121 101.403 17.1361C101.403 17.1361 101.271 17.3761 101.007 17.8561C100.743 18.3121 100.407 18.9241 99.9991 19.6921C99.6151 20.4361 99.2191 21.2401 98.8111 22.1041C98.4031 22.9441 98.0311 23.7601 97.6951 24.5521C97.3831 25.3201 97.1791 25.9681 97.0831 26.4961C97.0111 26.8081 96.9751 27.0961 96.9751 27.3601C96.9751 27.7441 97.0471 27.9961 97.1911 28.1161C97.3351 28.2361 97.4911 28.2961 97.6591 28.2961C98.1391 28.2961 98.6071 28.0921 99.0631 27.6841C99.5431 27.2761 100.011 26.7601 100.467 26.1361C100.923 25.4881 101.331 24.8041 101.691 24.0841C102.075 23.3641 102.399 22.6921 102.663 22.0681C102.951 22.0681 103.095 22.1761 103.095 22.3921C102.831 23.0401 102.495 23.7601 102.087 24.5521C101.703 25.3201 101.259 26.0521 100.755 26.7481C100.251 27.4441 99.6991 28.0201 99.0991 28.4761C98.4991 28.9321 97.8511 29.1601 97.1551 29.1601C96.6511 29.1601 96.1711 28.9921 95.7151 28.6561C95.2831 28.3201 95.0671 27.6961 95.0671 26.7841C95.0671 25.8001 95.2951 24.8161 95.7511 23.8321C96.2311 22.8481 96.7231 21.9481 97.2271 21.1321C97.4671 20.7241 97.5871 20.4001 97.5871 20.1601C97.5871 19.8721 97.4431 19.7281 97.1551 19.7281C96.9151 19.7281 96.5791 19.8481 96.1471 20.0881C95.7391 20.3281 95.2231 20.7481 94.5991 21.3481C94.2151 21.7081 93.7591 22.2121 93.2311 22.8601C92.7271 23.4841 92.2111 24.1681 91.6831 24.9121C91.1551 25.6561 90.6991 26.3881 90.3151 27.1081C89.9311 27.8281 89.6791 28.4641 89.5591 29.0161C89.1991 29.0161 88.9111 28.8721 88.6951 28.5841C88.4791 28.2721 88.3711 27.9121 88.3711 27.5041C88.3711 27.4321 88.3711 27.3601 88.3711 27.2881C88.3711 27.2161 88.3831 27.1321 88.4071 27.0361C88.5271 26.2921 88.7191 25.6681 88.9831 25.1641C89.2471 24.6361 89.5471 24.0241 89.8831 23.3281C90.0511 23.0161 90.2431 22.6561 90.4591 22.2481C90.6751 21.8161 90.8671 21.4081 91.0351 21.0241C91.2031 20.6161 91.2871 20.2801 91.2871 20.0161C91.2871 19.7761 91.1911 19.6561 90.9991 19.6561C90.7831 19.6561 90.4951 19.7641 90.1351 19.9801C89.7991 20.1961 89.4751 20.4481 89.1631 20.7361C88.8511 21.0001 88.6111 21.2041 88.4431 21.3481C87.8431 21.9241 87.1111 22.7521 86.2471 23.8321C85.4071 24.9121 84.4831 26.4481 83.4751 28.4401C83.3311 28.7041 83.1631 28.8721 82.9711 28.9441C82.7791 28.9921 82.4791 29.0161 82.0711 29.0161ZM105.247 29.1601C104.359 29.1601 103.555 28.8721 102.835 28.2961C102.139 27.7201 101.791 26.8441 101.791 25.6681C101.791 24.6841 102.007 23.6401 102.439 22.5361C102.895 21.4321 103.483 20.4001 104.203 19.4401C104.947 18.4561 105.763 17.6641 106.651 17.0641C107.563 16.4401 108.475 16.1281 109.387 16.1281C109.843 16.1281 110.287 16.2601 110.719 16.5241C111.151 16.7881 111.367 17.2441 111.367 17.8921C111.367 18.4921 111.139 19.1521 110.683 19.8721C110.227 20.5921 109.579 21.2641 108.739 21.8881C108.379 22.1521 107.923 22.4041 107.371 22.6441C106.819 22.8841 106.267 23.0881 105.715 23.2561C105.163 23.4001 104.707 23.4721 104.347 23.4721C104.227 23.7601 104.107 24.1441 103.987 24.6241C103.891 25.1041 103.843 25.5961 103.843 26.1001C103.843 26.7001 103.963 27.2401 104.203 27.7201C104.443 28.2001 104.887 28.4401 105.535 28.4401C106.327 28.4401 107.059 28.2121 107.731 27.7561C108.427 27.3001 109.039 26.7241 109.567 26.0281C110.119 25.3321 110.587 24.6241 110.971 23.9041C111.355 23.1841 111.655 22.5721 111.871 22.0681C112.159 22.0681 112.303 22.1761 112.303 22.3921C111.991 23.0641 111.631 23.7961 111.223 24.5881C110.839 25.3801 110.371 26.1241 109.819 26.8201C109.291 27.4921 108.643 28.0561 107.875 28.5121C107.131 28.9441 106.255 29.1601 105.247 29.1601ZM104.599 22.8241C104.935 22.8241 105.499 22.7041 106.291 22.4641C107.083 22.2001 107.803 21.7921 108.451 21.2401C109.075 20.6881 109.555 20.0881 109.891 19.4401C110.227 18.7681 110.395 18.2041 110.395 17.7481C110.395 17.2201 110.203 16.9561 109.819 16.9561C109.531 16.9561 109.135 17.1481 108.631 17.5321C108.127 17.9161 107.503 18.5641 106.759 19.4761C106.303 20.0521 105.871 20.6761 105.463 21.3481C105.055 22.0201 104.767 22.5121 104.599 22.8241ZM114.962 29.1601C113.642 29.1601 112.658 28.8121 112.01 28.1161C111.386 27.4201 111.074 26.4841 111.074 25.3081C111.074 24.7561 111.182 24.1201 111.398 23.4001C111.614 22.6801 111.902 21.9481 112.262 21.2041C112.622 20.4601 113.018 19.8001 113.45 19.2241C114.146 18.2881 114.914 17.5681 115.754 17.0641C116.594 16.5361 117.446 16.2721 118.31 16.2721C119.222 16.2721 119.87 16.4761 120.254 16.8841C120.662 17.2681 120.866 17.7241 120.866 18.2521C120.866 18.7561 120.746 19.2121 120.506 19.6201C120.266 20.0041 119.99 20.3161 119.678 20.5561C119.39 20.7961 119.138 20.9161 118.922 20.9161C118.73 20.9161 118.562 20.8441 118.418 20.7001C118.61 20.4601 118.814 20.1721 119.03 19.8361C119.246 19.5001 119.402 19.1761 119.498 18.8641C119.594 18.5761 119.642 18.2881 119.642 18.0001C119.642 17.3761 119.354 17.0641 118.778 17.0641C118.082 17.0641 117.398 17.3521 116.726 17.9281C116.078 18.5041 115.478 19.2481 114.926 20.1601C114.398 21.0481 113.966 21.9961 113.63 23.0041C113.318 23.9881 113.162 24.9001 113.162 25.7401C113.162 26.5081 113.318 27.1441 113.63 27.6481C113.966 28.1521 114.506 28.4041 115.25 28.4041C116.234 28.4041 117.098 28.0921 117.842 27.4681C118.586 26.8201 119.246 26.0161 119.822 25.0561C120.398 24.0721 120.902 23.0761 121.334 22.0681C121.43 22.0681 121.526 22.0921 121.622 22.1401C121.718 22.1641 121.766 22.2481 121.766 22.3921C121.286 23.5921 120.722 24.7081 120.074 25.7401C119.426 26.7721 118.682 27.6001 117.842 28.2241C117.026 28.8481 116.066 29.1601 114.962 29.1601ZM128.919 24.5161C128.511 25.3561 127.995 26.1361 127.371 26.8561C126.747 27.5761 126.039 28.1641 125.247 28.6201C124.455 29.0521 123.591 29.2681 122.655 29.2681C121.671 29.2681 120.963 28.9921 120.531 28.4401C120.123 27.8881 119.919 27.2041 119.919 26.3881C119.919 25.9081 119.979 25.4401 120.099 24.9841C120.219 24.5281 120.363 24.0721 120.531 23.6161C120.771 23.0401 121.107 22.3441 121.539 21.5281C121.971 20.7121 122.451 19.9081 122.979 19.1161C123.507 18.3241 124.035 17.6641 124.563 17.1361C125.091 16.6081 125.559 16.3441 125.967 16.3441C126.159 16.3441 126.363 16.3801 126.579 16.4521C126.795 16.5001 127.023 16.5241 127.263 16.5241C127.359 16.5241 127.443 16.5121 127.515 16.4881C127.371 16.5601 127.143 16.7881 126.831 17.1721C126.519 17.5321 126.159 17.9761 125.751 18.5041C125.367 19.0321 124.971 19.5721 124.563 20.1241C124.155 20.6761 123.795 21.1681 123.483 21.6001C123.891 21.1681 124.431 20.7361 125.103 20.3041C125.775 19.8481 126.483 19.6201 127.227 19.6201C128.043 19.6201 128.643 19.8481 129.027 20.3041C129.411 20.7601 129.603 21.3001 129.603 21.9241C129.603 22.3561 129.531 22.8121 129.387 23.2921C129.267 23.7481 129.111 24.1561 128.919 24.5161ZM126.903 25.0921C127.191 24.5401 127.395 24.0241 127.515 23.5441C127.635 23.0401 127.695 22.6321 127.695 22.3201C127.695 21.8401 127.599 21.4441 127.407 21.1321C127.215 20.7961 126.879 20.6281 126.399 20.6281C125.799 20.6281 125.139 20.9641 124.419 21.6361C123.699 22.3081 123.051 23.1721 122.475 24.2281C122.115 24.9001 121.851 25.4881 121.683 25.9921C121.539 26.4961 121.467 26.9761 121.467 27.4321C121.467 27.8161 121.563 28.1281 121.755 28.3681C121.947 28.6081 122.295 28.7281 122.799 28.7281C123.327 28.7281 123.999 28.4041 124.815 27.7561C125.655 27.0841 126.351 26.1961 126.903 25.0921ZM141.47 29.1601C140.15 29.1601 139.166 28.8121 138.518 28.1161C137.894 27.4201 137.582 26.4841 137.582 25.3081C137.582 24.7561 137.69 24.1201 137.906 23.4001C138.122 22.6801 138.41 21.9481 138.77 21.2041C139.13 20.4601 139.526 19.8001 139.958 19.2241C140.654 18.2881 141.422 17.5681 142.262 17.0641C143.102 16.5361 143.954 16.2721 144.818 16.2721C145.73 16.2721 146.378 16.4761 146.762 16.8841C147.17 17.2681 147.374 17.7241 147.374 18.2521C147.374 18.7561 147.254 19.2121 147.014 19.6201C146.774 20.0041 146.498 20.3161 146.186 20.5561C145.898 20.7961 145.646 20.9161 145.43 20.9161C145.238 20.9161 145.07 20.8441 144.926 20.7001C145.118 20.4601 145.322 20.1721 145.538 19.8361C145.754 19.5001 145.91 19.1761 146.006 18.8641C146.102 18.5761 146.15 18.2881 146.15 18.0001C146.15 17.3761 145.862 17.0641 145.286 17.0641C144.59 17.0641 143.906 17.3521 143.234 17.9281C142.586 18.5041 141.986 19.2481 141.434 20.1601C140.906 21.0481 140.474 21.9961 140.138 23.0041C139.826 23.9881 139.67 24.9001 139.67 25.7401C139.67 26.5081 139.826 27.1441 140.138 27.6481C140.474 28.1521 141.014 28.4041 141.758 28.4041C142.742 28.4041 143.606 28.0921 144.35 27.4681C145.094 26.8201 145.754 26.0161 146.33 25.0561C146.906 24.0721 147.41 23.0761 147.842 22.0681C147.938 22.0681 148.034 22.0921 148.13 22.1401C148.226 22.1641 148.274 22.2481 148.274 22.3921C147.794 23.5921 147.23 24.7081 146.582 25.7401C145.934 26.7721 145.19 27.6001 144.35 28.2241C143.534 28.8481 142.574 29.1601 141.47 29.1601ZM153.987 16.3801C154.971 16.3801 155.691 16.7161 156.147 17.3881C156.627 18.0601 156.867 18.9121 156.867 19.9441C156.867 20.8801 156.675 21.8761 156.291 22.9321C155.907 23.9641 155.379 24.9481 154.707 25.8841C154.059 26.7961 153.327 27.5521 152.511 28.1521C151.695 28.7281 150.855 29.0161 149.991 29.0161C149.007 29.0161 148.275 28.6681 147.795 27.9721C147.339 27.2521 147.111 26.3881 147.111 25.3801C147.111 24.4441 147.291 23.4721 147.651 22.4641C148.035 21.3601 148.563 20.3521 149.235 19.4401C149.931 18.5281 150.687 17.7961 151.503 17.2441C152.343 16.6681 153.171 16.3801 153.987 16.3801ZM150.495 28.2241C151.071 28.2241 151.671 27.9721 152.295 27.4681C152.943 26.9401 153.543 26.2561 154.095 25.4161C154.647 24.5761 155.091 23.6521 155.427 22.6441C155.787 21.6361 155.967 20.6401 155.967 19.6561C155.967 19.0321 155.847 18.5281 155.607 18.1441C155.391 17.7361 155.043 17.5321 154.563 17.5321C154.059 17.5321 153.531 17.7481 152.979 18.1801C152.427 18.6121 151.899 19.1881 151.395 19.9081C150.915 20.6281 150.495 21.4321 150.135 22.3201C149.823 23.0641 149.583 23.7721 149.415 24.4441C149.247 25.0921 149.163 25.6921 149.163 26.2441C149.163 26.8441 149.271 27.3241 149.487 27.6841C149.703 28.0441 150.039 28.2241 150.495 28.2241ZM164.516 27.3601C164.516 27.6001 164.564 27.8281 164.66 28.0441C164.78 28.2361 164.972 28.3321 165.236 28.3321C165.716 28.3321 166.208 28.0801 166.712 27.5761C167.216 27.0481 167.732 26.3761 168.26 25.5601C168.812 24.7201 169.352 23.8561 169.88 22.9681C170.72 21.5521 171.452 20.3761 172.076 19.4401C172.724 18.5041 173.324 17.8081 173.876 17.3521C174.236 17.0401 174.548 16.8481 174.812 16.7761C175.076 16.6801 175.34 16.6321 175.604 16.6321H175.856C176.84 16.6321 177.116 17.0881 176.684 18.0001L175.388 20.7001C175.172 21.1321 174.908 21.6721 174.596 22.3201C174.308 22.9441 174.02 23.5921 173.732 24.2641C173.444 24.9121 173.216 25.5361 173.048 26.1361C172.88 26.7121 172.82 27.1801 172.868 27.5401C172.916 27.9001 173.132 28.0801 173.516 28.0801C173.828 28.0801 174.2 27.8161 174.632 27.2881C175.088 26.7361 175.568 26.0401 176.072 25.2001C176.6 24.3601 177.128 23.4721 177.656 22.5361C178.208 21.6001 178.748 20.7121 179.276 19.8721C179.828 19.0321 180.344 18.3601 180.824 17.8561C180.944 17.7361 181.208 17.5081 181.616 17.1721C182.024 16.8121 182.42 16.6321 182.804 16.6321H183.056C183.488 16.6321 183.788 16.7401 183.956 16.9561C184.124 17.1481 184.088 17.4961 183.848 18.0001L182.588 20.7001C182.372 21.1321 182.108 21.6721 181.796 22.3201C181.508 22.9441 181.22 23.5921 180.932 24.2641C180.668 24.9121 180.452 25.5361 180.284 26.1361C180.14 26.7121 180.092 27.1801 180.14 27.5401C180.212 27.9001 180.452 28.0801 180.86 28.0801C181.46 28.0801 182.048 27.7681 182.624 27.1441C183.224 26.5201 183.788 25.7521 184.316 24.8401C184.844 23.9041 185.312 22.9801 185.72 22.0681C185.816 22.0681 185.912 22.1041 186.008 22.1761C186.104 22.2241 186.152 22.2961 186.152 22.3921C185.72 23.4721 185.216 24.5161 184.64 25.5241C184.088 26.5321 183.452 27.3601 182.732 28.0081C182.012 28.6561 181.184 28.9801 180.248 28.9801C179.456 28.9801 178.916 28.7401 178.628 28.2601C178.34 27.7801 178.244 27.1441 178.34 26.3521C178.46 25.5361 178.7 24.6361 179.06 23.6521C179.444 22.6441 179.9 21.6241 180.428 20.5921C180.956 19.5601 181.496 18.5881 182.048 17.6761C182.144 17.5081 182.144 17.4241 182.048 17.4241C181.976 17.4241 181.82 17.5561 181.58 17.8201C181.34 18.0841 181.196 18.2401 181.148 18.2881C180.524 18.9841 179.936 19.8001 179.384 20.7361C178.856 21.6481 178.328 22.5841 177.8 23.5441C177.296 24.5041 176.78 25.4041 176.252 26.2441C175.724 27.0601 175.172 27.7201 174.596 28.2241C174.02 28.7281 173.384 28.9801 172.688 28.9801C171.92 28.9801 171.428 28.6681 171.212 28.0441C171.02 27.3961 171.044 26.5321 171.284 25.4521C171.548 24.3721 171.992 23.1601 172.616 21.8161C173.24 20.4721 173.984 19.0921 174.848 17.6761C174.944 17.5081 174.932 17.4241 174.812 17.4241C174.692 17.4241 174.44 17.6161 174.056 18.0001C173.792 18.2641 173.528 18.5641 173.264 18.9001C173.024 19.2361 172.7 19.7401 172.292 20.4121C171.884 21.0601 171.308 22.0321 170.564 23.3281C170.012 24.2881 169.436 25.2121 168.836 26.1001C168.26 26.9881 167.648 27.7201 167 28.2961C166.352 28.8481 165.644 29.1241 164.876 29.1241C164.3 29.1241 163.784 28.9561 163.328 28.6201C162.872 28.2601 162.644 27.7441 162.644 27.0721C162.644 26.6641 162.74 26.2201 162.932 25.7401C163.1 25.2601 163.352 24.8521 163.688 24.5161C164.048 24.1801 164.48 24.0361 164.984 24.0841C165.32 24.1081 165.62 24.2401 165.884 24.4801C165.452 24.8881 165.116 25.3681 164.876 25.9201C164.636 26.4721 164.516 26.9521 164.516 27.3601ZM185.442 28.4761C185.418 28.7161 185.274 28.8841 185.01 28.9801C184.77 29.0521 184.53 29.0881 184.29 29.0881C183.906 29.0881 183.618 29.1481 183.426 29.2681C183.426 28.7881 183.558 28.1161 183.822 27.2521C184.086 26.3641 184.398 25.4161 184.758 24.4081C185.142 23.3761 185.526 22.4161 185.91 21.5281C186.318 20.6161 186.654 19.9081 186.918 19.4041C187.494 18.3481 187.974 17.6761 188.358 17.3881C188.766 17.1001 189.234 16.9561 189.762 16.9561C190.242 16.9561 190.578 16.9801 190.77 17.0281C190.986 17.0521 191.142 17.0641 191.238 17.0641C190.71 17.3521 190.086 18.0241 189.366 19.0801C188.67 20.1361 188.01 21.3121 187.386 22.6081C187.578 22.4161 187.794 22.2601 188.034 22.1401C188.298 22.0201 188.598 21.9601 188.934 21.9601C189.39 21.9601 189.786 22.0441 190.122 22.2121C190.458 22.3561 190.926 22.4281 191.526 22.4281C191.982 22.4281 192.282 22.2841 192.426 21.9961C192.81 21.1321 193.206 20.2921 193.614 19.4761C194.022 18.6361 194.358 17.9401 194.622 17.3881C194.766 17.0761 194.958 16.8721 195.198 16.7761C195.462 16.6801 195.75 16.6321 196.062 16.6321H198.006C197.598 16.9681 197.25 17.2801 196.962 17.5681C196.698 17.8321 196.434 18.1561 196.17 18.5401C195.93 18.9241 195.618 19.4761 195.234 20.1961C194.922 20.7961 194.55 21.5761 194.118 22.5361C193.686 23.4961 193.362 24.3481 193.146 25.0921C193.05 25.3561 192.966 25.6681 192.894 26.0281C192.846 26.3881 192.822 26.7241 192.822 27.0361C192.822 27.4201 192.882 27.7441 193.002 28.0081C193.122 28.2721 193.326 28.4041 193.614 28.4041C194.07 28.4041 194.538 28.2121 195.018 27.8281C195.498 27.4201 195.966 26.9041 196.422 26.2801C196.878 25.6321 197.298 24.9361 197.682 24.1921C198.09 23.4481 198.438 22.7401 198.726 22.0681C198.918 22.0681 199.038 22.0921 199.086 22.1401C199.134 22.1881 199.158 22.2721 199.158 22.3921C198.87 23.1121 198.51 23.8801 198.078 24.6961C197.67 25.4881 197.19 26.2321 196.638 26.9281C196.11 27.6241 195.522 28.2001 194.874 28.6561C194.25 29.0881 193.578 29.3041 192.858 29.3041C192.138 29.3041 191.622 29.0881 191.31 28.6561C191.022 28.2241 190.878 27.6841 190.878 27.0361C190.878 26.7001 190.914 26.3401 190.986 25.9561C191.082 25.5721 191.19 25.1881 191.31 24.8041C191.406 24.5161 191.514 24.2161 191.634 23.9041C191.754 23.5681 191.886 23.2441 192.03 22.9321C191.886 23.1241 191.706 23.2801 191.49 23.4001C191.274 23.4961 190.998 23.5441 190.662 23.5441C190.326 23.5441 190.05 23.4961 189.834 23.4001C189.618 23.3041 189.39 23.2081 189.15 23.1121C188.91 23.0161 188.598 22.9681 188.214 22.9681C187.974 22.9681 187.722 23.0161 187.458 23.1121C187.218 23.2081 187.026 23.4241 186.882 23.7601C186.522 24.6001 186.21 25.4281 185.946 26.2441C185.706 27.0601 185.538 27.8041 185.442 28.4761ZM200.898 29.0161C199.914 29.0161 199.182 28.6681 198.702 27.9721C198.246 27.2521 198.018 26.3881 198.018 25.3801C198.018 24.4441 198.198 23.4721 198.558 22.4641C198.942 21.3601 199.47 20.3521 200.142 19.4401C200.838 18.5281 201.594 17.7961 202.41 17.2441C203.25 16.6681 204.078 16.3801 204.894 16.3801C205.878 16.3801 206.598 16.7161 207.054 17.3881C207.534 18.0601 207.774 18.9121 207.774 19.9441C207.774 20.6641 207.654 21.4201 207.414 22.2121C207.174 23.0041 206.85 23.7841 206.442 24.5521C206.754 24.8641 207.198 25.0201 207.774 25.0201C208.446 25.0201 209.022 24.8041 209.502 24.3721C209.982 23.9401 210.45 23.1721 210.906 22.0681C211.194 22.0681 211.338 22.1761 211.338 22.3921C210.882 23.4961 210.354 24.3121 209.754 24.8401C209.178 25.3441 208.434 25.5841 207.522 25.5601C206.97 25.5601 206.514 25.4041 206.154 25.0921C205.482 26.1961 204.678 27.1321 203.742 27.9001C202.83 28.6441 201.882 29.0161 200.898 29.0161ZM201.402 28.2241C201.954 28.2241 202.506 27.9961 203.058 27.5401C203.61 27.0601 204.114 26.5201 204.57 25.9201C205.026 25.3201 205.35 24.8041 205.542 24.3721C205.158 23.6761 204.93 23.1601 204.858 22.8241C204.81 22.4641 204.786 22.2001 204.786 22.0321C204.786 21.5761 204.906 21.2281 205.146 20.9881C205.386 20.7481 205.626 20.6281 205.866 20.6281C206.202 20.6281 206.49 20.7721 206.73 21.0601C206.778 20.7961 206.814 20.5561 206.838 20.3401C206.862 20.1001 206.874 19.8721 206.874 19.6561C206.874 19.0321 206.754 18.5281 206.514 18.1441C206.298 17.7361 205.95 17.5321 205.47 17.5321C204.966 17.5321 204.438 17.7481 203.886 18.1801C203.334 18.6121 202.806 19.1881 202.302 19.9081C201.822 20.6281 201.402 21.4321 201.042 22.3201C200.73 23.0641 200.49 23.7721 200.322 24.4441C200.154 25.0921 200.07 25.6921 200.07 26.2441C200.07 26.8441 200.178 27.3241 200.394 27.6841C200.61 28.0441 200.946 28.2241 201.402 28.2241ZM211.946 29.0161C211.682 29.0161 211.358 28.9561 210.974 28.8361C210.614 28.7161 210.29 28.5001 210.002 28.1881C209.738 27.8521 209.606 27.3601 209.606 26.7121C209.606 26.0881 209.81 25.3681 210.218 24.5521C210.626 23.7361 210.986 23.0161 211.298 22.3921C211.034 22.3921 210.902 22.2841 210.902 22.0681C210.926 21.9961 211.034 21.7681 211.226 21.3841C211.418 21.0001 211.646 20.5441 211.91 20.0161C212.174 19.4881 212.426 18.9841 212.666 18.5041C212.93 18.0001 213.134 17.6161 213.278 17.3521C213.566 16.8241 214.022 16.5601 214.646 16.5601H216.878C216.47 16.8721 216.098 17.2201 215.762 17.6041C215.45 17.9641 215.054 18.6361 214.574 19.6201C214.574 19.6201 214.49 19.7881 214.322 20.1241C214.154 20.4601 213.938 20.8921 213.674 21.4201C213.434 21.9241 213.182 22.4401 212.918 22.9681C212.678 23.4961 212.474 23.9401 212.306 24.3001C211.994 24.9721 211.79 25.5121 211.694 25.9201C211.598 26.3041 211.55 26.6641 211.55 27.0001C211.55 27.7921 211.814 28.1881 212.342 28.1881C212.918 28.1881 213.614 27.7201 214.43 26.7841C215.102 25.9921 215.762 25.0441 216.41 23.9401C217.058 22.8361 217.67 21.6961 218.246 20.5201C218.846 19.3441 219.374 18.2881 219.83 17.3521C220.094 16.8241 220.562 16.5601 221.234 16.5601H223.214C222.686 16.9921 222.146 17.6401 221.594 18.5041C221.066 19.3681 220.478 20.4721 219.83 21.8161C219.662 22.1761 219.446 22.6321 219.182 23.1841C218.918 23.7361 218.678 24.3241 218.462 24.9481C218.27 25.5721 218.174 26.1961 218.174 26.8201C218.174 27.6601 218.474 28.0801 219.074 28.0801C219.89 28.0801 220.682 27.5161 221.45 26.3881C222.218 25.2601 222.974 23.8201 223.718 22.0681C223.91 22.0681 224.018 22.0801 224.042 22.1041C224.09 22.1281 224.126 22.2241 224.15 22.3921C223.886 23.0401 223.562 23.7481 223.178 24.5161C222.818 25.2601 222.398 25.9801 221.918 26.6761C221.462 27.3721 220.946 27.9361 220.37 28.3681C219.818 28.8001 219.206 29.0161 218.534 29.0161C217.934 29.0161 217.442 28.8001 217.058 28.3681C216.674 27.9121 216.482 27.2761 216.482 26.4601C216.482 25.8121 216.602 25.1161 216.842 24.3721C216.434 25.0921 215.966 25.8121 215.438 26.5321C214.91 27.2521 214.346 27.8521 213.746 28.3321C213.146 28.7881 212.546 29.0161 211.946 29.0161ZM223.178 10.9801C223.418 10.9561 223.562 11.0161 223.61 11.1601C223.658 11.3041 223.682 11.4241 223.682 11.5201C223.298 12.1921 222.722 12.8161 221.954 13.3921C221.21 13.9441 220.334 14.2201 219.326 14.2201C218.39 14.2201 217.622 13.9561 217.022 13.4281C216.422 12.8761 216.122 12.2281 216.122 11.4841C216.122 10.9321 216.266 10.4641 216.554 10.0801C216.866 9.69611 217.262 9.50411 217.742 9.50411C218.126 9.50411 218.39 9.61211 218.534 9.82811C218.702 10.0441 218.786 10.2481 218.786 10.4401C218.786 10.7041 218.678 10.9201 218.462 11.0881C218.03 11.3281 217.814 11.6641 217.814 12.0961C217.814 12.4801 217.934 12.8041 218.174 13.0681C218.438 13.3321 218.87 13.4641 219.47 13.4641C220.238 13.4641 220.958 13.2361 221.63 12.7801C222.302 12.3241 222.818 11.7241 223.178 10.9801Z" fill="#E7E0CB"></path></svg> 