<?xml version="1.0" encoding="UTF-8"?> <svg xmlns="http://www.w3.org/2000/svg" width="288" height="18" viewBox="0 0 288 18" fill="none"><path d="M-3.62098e-06 15.295H0.114996C0.237663 15.295 0.344996 15.2567 0.436996 15.18C0.528996 15.088 0.605663 14.9807 0.666996 14.858C0.72833 14.72 0.77433 14.582 0.804996 14.444C0.835663 14.2907 0.850996 14.1527 0.850996 14.03V1.77102C0.850996 1.66369 0.827996 1.54102 0.781996 1.40302C0.75133 1.26502 0.70533 1.13469 0.643996 1.01202C0.582663 0.889357 0.505996 0.78969 0.413996 0.713023C0.321996 0.621023 0.22233 0.575024 0.114996 0.575024H-3.62098e-06V0.345024H11.776V0.575024H11.592C11.4847 0.575024 11.3927 0.621023 11.316 0.713023C11.2393 0.78969 11.1703 0.897023 11.109 1.03502C11.063 1.15769 11.0247 1.28802 10.994 1.42602C10.9633 1.56402 10.948 1.67902 10.948 1.77102V14.03C10.948 14.1527 10.9557 14.283 10.971 14.421C11.0017 14.559 11.04 14.697 11.086 14.835C11.1473 14.9577 11.2163 15.065 11.293 15.157C11.385 15.249 11.4847 15.295 11.592 15.295H11.776V15.525H8.556V15.295H8.763C8.87033 15.295 8.96233 15.249 9.039 15.157C9.131 15.065 9.2 14.9577 9.246 14.835C9.30733 14.7124 9.34566 14.582 9.361 14.444C9.39166 14.2907 9.407 14.1527 9.407 14.03V1.15002H2.392V14.03C2.392 14.1527 2.40733 14.2907 2.438 14.444C2.46866 14.582 2.507 14.7124 2.553 14.835C2.61433 14.9577 2.691 15.065 2.783 15.157C2.875 15.249 2.98233 15.295 3.105 15.295H3.22V15.525H-3.62098e-06V15.295ZM14.6377 0.345024H17.9037C19.6057 0.345024 20.8937 0.67469 21.7677 1.33402C22.657 1.97802 23.1017 2.89802 23.1017 4.09402C23.1017 4.73802 22.9484 5.31302 22.6417 5.81902C22.335 6.32502 21.9287 6.75436 21.4227 7.10702C20.932 7.44436 20.3724 7.70502 19.7437 7.88902C19.1304 8.07302 18.517 8.16502 17.9037 8.16502H17.0297V14.03C17.0297 14.1527 17.045 14.2907 17.0757 14.444C17.1064 14.582 17.1524 14.7124 17.2137 14.835C17.2904 14.9577 17.367 15.065 17.4437 15.157C17.5357 15.249 17.643 15.295 17.7657 15.295H17.8807V15.525H14.6377V15.295H14.7527C14.86 15.295 14.9597 15.249 15.0517 15.157C15.1437 15.065 15.2204 14.9577 15.2817 14.835C15.343 14.7124 15.389 14.582 15.4197 14.444C15.4504 14.2907 15.4657 14.1527 15.4657 14.03V1.77102C15.4657 1.55636 15.4044 1.31102 15.2817 1.03502C15.159 0.759024 14.9827 0.605691 14.7527 0.575024H14.6377V0.345024ZM17.0297 1.15002V7.36002H17.7197C18.333 7.36002 18.8774 7.27569 19.3527 7.10702C19.8434 6.93836 20.2497 6.71602 20.5717 6.44002C20.8937 6.16402 21.139 5.84969 21.3077 5.49702C21.4764 5.14436 21.5607 4.78402 21.5607 4.41602C21.5607 3.97136 21.484 3.55736 21.3307 3.17402C21.1927 2.77536 20.955 2.43036 20.6177 2.13902C20.2957 1.83236 19.8664 1.59469 19.3297 1.42602C18.793 1.24202 18.1337 1.15002 17.3517 1.15002H17.0297ZM34.9041 15.295H35.0191C35.1418 15.295 35.2491 15.2567 35.3411 15.18C35.4331 15.088 35.5098 14.9807 35.5711 14.858C35.6478 14.72 35.7014 14.582 35.7321 14.444C35.7628 14.2907 35.7781 14.1527 35.7781 14.03V3.49602L28.1421 13.823V14.03C28.1421 14.1527 28.1574 14.2907 28.1881 14.444C28.2341 14.582 28.2878 14.7124 28.3491 14.835C28.4104 14.9577 28.4871 15.065 28.5791 15.157C28.6711 15.249 28.7784 15.295 28.9011 15.295H29.0161V15.525H25.7501V15.295H25.8651C25.9878 15.295 26.0951 15.2567 26.1871 15.18C26.2791 15.088 26.3558 14.9807 26.4171 14.858C26.4938 14.72 26.5474 14.582 26.5781 14.444C26.6088 14.2907 26.6241 14.1527 26.6241 14.03V1.77102C26.6241 1.66369 26.6088 1.54102 26.5781 1.40302C26.5474 1.26502 26.4938 1.13469 26.4171 1.01202C26.3558 0.889357 26.2791 0.78969 26.1871 0.713023C26.0951 0.621023 25.9878 0.575024 25.8651 0.575024H25.7501V0.345024H29.0161V0.575024H28.8321C28.7248 0.590357 28.6251 0.644024 28.5331 0.736024C28.4564 0.828024 28.3874 0.935357 28.3261 1.05802C28.2648 1.16536 28.2188 1.28802 28.1881 1.42602C28.1574 1.54869 28.1421 1.66369 28.1421 1.77102V12.397L35.7781 2.07002V1.77102C35.7781 1.66369 35.7628 1.54102 35.7321 1.40302C35.7014 1.26502 35.6478 1.13469 35.5711 1.01202C35.5098 0.889357 35.4331 0.78969 35.3411 0.713023C35.2491 0.621023 35.1418 0.575024 35.0191 0.575024H34.9041V0.345024H38.1701V0.575024H38.0551C37.9324 0.575024 37.8251 0.621023 37.7331 0.713023C37.6411 0.78969 37.5644 0.889357 37.5031 1.01202C37.4418 1.13469 37.3881 1.26502 37.3421 1.40302C37.3114 1.54102 37.2961 1.66369 37.2961 1.77102V14.03C37.2961 14.1527 37.3114 14.283 37.3421 14.421C37.3881 14.559 37.4418 14.697 37.5031 14.835C37.5644 14.9577 37.6411 15.065 37.7331 15.157C37.8251 15.249 37.9324 15.295 38.0551 15.295H38.1701V15.525H34.9041V15.295ZM44.2367 15.295H44.3517V15.525H41.0397V15.295H41.1547C41.2774 15.295 41.3847 15.2567 41.4767 15.18C41.5687 15.088 41.6454 14.9807 41.7067 14.858C41.7834 14.7354 41.8371 14.605 41.8677 14.467C41.8984 14.329 41.9137 14.1987 41.9137 14.076V1.77102C41.9137 1.66369 41.8984 1.54102 41.8677 1.40302C41.8371 1.26502 41.7834 1.13469 41.7067 1.01202C41.6454 0.889357 41.5687 0.78969 41.4767 0.713023C41.3847 0.621023 41.2774 0.575024 41.1547 0.575024H41.0397V0.345024H49.8947V2.78302H49.6647C49.6647 2.23102 49.5421 1.82469 49.2967 1.56402C49.0667 1.28802 48.6987 1.15002 48.1927 1.15002H43.4777V14.076C43.4777 14.1987 43.4931 14.329 43.5237 14.467C43.5544 14.605 43.6004 14.7354 43.6617 14.858C43.7384 14.9807 43.8227 15.088 43.9147 15.18C44.0067 15.2567 44.1141 15.295 44.2367 15.295ZM50.3556 13.915C50.2176 14.3137 50.003 14.6817 49.7116 15.019C49.4203 15.3564 48.991 15.525 48.4236 15.525H47.7106V15.295C47.8026 15.295 47.9253 15.272 48.0786 15.226C48.232 15.1647 48.393 15.0727 48.5616 14.95C48.7303 14.8274 48.899 14.674 49.0676 14.49C49.2363 14.2907 49.382 14.0454 49.5046 13.754L53.8516 1.84002C53.9283 1.61002 53.9666 1.43369 53.9666 1.31102C53.9666 1.08102 53.8976 0.904691 53.7596 0.782024C53.637 0.644024 53.5066 0.575024 53.3686 0.575024V0.345024H55.2546L60.4066 14.421C60.4833 14.6357 60.629 14.835 60.8436 15.019C61.0583 15.1877 61.296 15.2797 61.5566 15.295V15.525H58.2676V15.295C58.3903 15.295 58.513 15.249 58.6356 15.157C58.7736 15.0497 58.8426 14.9117 58.8426 14.743C58.8426 14.697 58.8273 14.628 58.7966 14.536L54.4726 2.62202L50.3556 13.915ZM72.7458 15.295H72.8608C73.2288 15.295 73.4128 15.1264 73.4128 14.789C73.4128 14.6664 73.3898 14.536 73.3438 14.398L71.2738 8.80902H67.2488L65.2478 14.306C65.2018 14.4287 65.1788 14.5437 65.1788 14.651C65.1788 14.8504 65.2324 15.0114 65.3398 15.134C65.4471 15.2414 65.5621 15.295 65.6848 15.295H65.7998V15.525H63.2468V15.295H63.3618C63.5611 15.295 63.7528 15.18 63.9368 14.95C64.1361 14.7047 64.2971 14.421 64.4198 14.099L69.6868 0.0690233L74.8388 13.961C74.9461 14.2677 75.0918 14.5667 75.2758 14.858C75.4751 15.1494 75.7281 15.295 76.0348 15.295H76.1498V15.525H72.7458V15.295ZM67.4788 8.02702H71.0208L69.2498 3.22002L67.4788 8.02702ZM85.3002 0.345024H88.4512V0.575024H88.3362C88.2135 0.575024 88.1062 0.621023 88.0142 0.713023C87.9222 0.78969 87.8455 0.889357 87.7842 1.01202C87.7382 1.13469 87.6998 1.26502 87.6692 1.40302C87.6385 1.52569 87.6232 1.63302 87.6232 1.72502V14.697H93.1432V1.84002C93.1432 1.73269 93.1278 1.61002 93.0972 1.47202C93.0818 1.31869 93.0512 1.18069 93.0052 1.05802C92.9592 0.935357 92.8902 0.828024 92.7982 0.736024C92.7215 0.644024 92.6218 0.590357 92.4992 0.575024H92.3382V0.345024H95.4892V0.575024H95.3742C95.2362 0.575024 95.1212 0.621023 95.0292 0.713023C94.9525 0.805024 94.8835 0.912357 94.8222 1.03502C94.7608 1.15769 94.7148 1.29569 94.6842 1.44902C94.6688 1.60236 94.6612 1.73269 94.6612 1.84002V14.099C94.6612 14.2064 94.6765 14.329 94.7072 14.467C94.7532 14.605 94.8068 14.7354 94.8682 14.858C94.9295 14.9807 94.9985 15.088 95.0752 15.18C95.1672 15.2567 95.2668 15.295 95.3742 15.295H95.4892V15.525H78.2392V15.295H78.3542C78.4615 15.295 78.5612 15.2567 78.6532 15.18C78.7452 15.088 78.8218 14.9807 78.8832 14.858C78.9445 14.7354 78.9905 14.605 79.0212 14.467C79.0518 14.329 79.0672 14.2064 79.0672 14.099V1.84002C79.0672 1.73269 79.0518 1.60236 79.0212 1.44902C79.0058 1.29569 78.9675 1.15769 78.9062 1.03502C78.8448 0.912357 78.7682 0.805024 78.6762 0.713023C78.5995 0.621023 78.4922 0.575024 78.3542 0.575024H78.2392V0.345024H81.3902V0.575024H81.2292C81.1065 0.590357 80.9992 0.644024 80.9072 0.736024C80.8305 0.828024 80.7692 0.935357 80.7232 1.05802C80.6772 1.18069 80.6388 1.31869 80.6082 1.47202C80.5928 1.61002 80.5852 1.73269 80.5852 1.84002V14.697H86.1052V1.84002C86.1052 1.73269 86.0898 1.60236 86.0592 1.44902C86.0285 1.29569 85.9825 1.15769 85.9212 1.03502C85.8752 0.912357 85.8062 0.805024 85.7142 0.713023C85.6222 0.621023 85.5225 0.575024 85.4152 0.575024H85.3002V0.345024ZM98.4247 15.295H98.5397C98.6624 15.295 98.7697 15.2567 98.8617 15.18C98.9537 15.088 99.0304 14.9807 99.0917 14.858C99.1684 14.7354 99.2221 14.605 99.2527 14.467C99.2987 14.329 99.3217 14.1987 99.3217 14.076V1.77102C99.3217 1.66369 99.2987 1.54102 99.2527 1.40302C99.2221 1.26502 99.1684 1.13469 99.0917 1.01202C99.0304 0.889357 98.9537 0.78969 98.8617 0.713023C98.7697 0.621023 98.6624 0.575024 98.5397 0.575024H98.4247V0.345024H107.28V2.48402H107.05C107.019 2.13136 106.881 1.82469 106.636 1.56402C106.39 1.28802 106.007 1.15002 105.486 1.15002H100.863V6.96902H104.681C105.033 6.96902 105.325 6.86169 105.555 6.64702C105.8 6.43236 105.923 6.17936 105.923 5.88802H106.153V8.76302H105.923C105.923 8.48702 105.808 8.24936 105.578 8.05002C105.348 7.85069 105.049 7.75102 104.681 7.75102H100.863V14.72H105.9C106.191 14.72 106.444 14.651 106.659 14.513C106.873 14.375 107.05 14.214 107.188 14.03C107.341 13.8307 107.448 13.6237 107.51 13.409C107.586 13.179 107.625 12.9874 107.625 12.834H107.855V15.525H98.4247V15.295ZM119.455 15.295H119.57C119.677 15.295 119.777 15.2567 119.869 15.18C119.961 15.088 120.037 14.9807 120.099 14.858C120.175 14.72 120.229 14.582 120.26 14.444C120.29 14.2907 120.306 14.1527 120.306 14.03V7.77402H112.946V14.03C112.946 14.1527 112.961 14.2907 112.992 14.444C113.022 14.582 113.068 14.7124 113.13 14.835C113.191 14.9577 113.26 15.065 113.337 15.157C113.429 15.249 113.536 15.295 113.659 15.295H113.774V15.525H110.554V15.295H110.669C110.776 15.295 110.876 15.2567 110.968 15.18C111.06 15.088 111.136 14.9807 111.198 14.858C111.274 14.72 111.328 14.582 111.359 14.444C111.389 14.2907 111.405 14.1527 111.405 14.03V1.77102C111.405 1.66369 111.389 1.54102 111.359 1.40302C111.328 1.26502 111.282 1.13469 111.221 1.01202C111.159 0.889357 111.083 0.78969 110.991 0.713023C110.899 0.621023 110.791 0.575024 110.669 0.575024H110.554V0.345024H113.774V0.575024H113.659C113.536 0.575024 113.429 0.621023 113.337 0.713023C113.245 0.78969 113.168 0.889357 113.107 1.01202C113.061 1.13469 113.022 1.26502 112.992 1.40302C112.961 1.54102 112.946 1.66369 112.946 1.77102V6.96902H120.306V1.77102C120.306 1.66369 120.29 1.54102 120.26 1.40302C120.229 1.26502 120.183 1.13469 120.122 1.01202C120.06 0.889357 119.984 0.78969 119.892 0.713023C119.8 0.621023 119.692 0.575024 119.57 0.575024H119.455V0.345024H122.675V0.575024H122.56C122.437 0.575024 122.33 0.621023 122.238 0.713023C122.146 0.78969 122.069 0.889357 122.008 1.01202C121.962 1.13469 121.923 1.26502 121.893 1.40302C121.862 1.54102 121.847 1.66369 121.847 1.77102V14.03C121.847 14.1527 121.862 14.2907 121.893 14.444C121.939 14.582 121.992 14.7124 122.054 14.835C122.115 14.9577 122.184 15.065 122.261 15.157C122.353 15.249 122.452 15.295 122.56 15.295H122.675V15.525H119.455V15.295ZM134.429 15.295H134.544C134.667 15.295 134.774 15.2567 134.866 15.18C134.958 15.088 135.035 14.9807 135.096 14.858C135.173 14.72 135.227 14.582 135.257 14.444C135.288 14.2907 135.303 14.1527 135.303 14.03V3.49602L127.667 13.823V14.03C127.667 14.1527 127.683 14.2907 127.713 14.444C127.759 14.582 127.813 14.7124 127.874 14.835C127.936 14.9577 128.012 15.065 128.104 15.157C128.196 15.249 128.304 15.295 128.426 15.295H128.541V15.525H125.275V15.295H125.39C125.513 15.295 125.62 15.2567 125.712 15.18C125.804 15.088 125.881 14.9807 125.942 14.858C126.019 14.72 126.073 14.582 126.103 14.444C126.134 14.2907 126.149 14.1527 126.149 14.03V1.77102C126.149 1.66369 126.134 1.54102 126.103 1.40302C126.073 1.26502 126.019 1.13469 125.942 1.01202C125.881 0.889357 125.804 0.78969 125.712 0.713023C125.62 0.621023 125.513 0.575024 125.39 0.575024H125.275V0.345024H128.541V0.575024H128.357C128.25 0.590357 128.15 0.644024 128.058 0.736024C127.982 0.828024 127.913 0.935357 127.851 1.05802C127.79 1.16536 127.744 1.28802 127.713 1.42602C127.683 1.54869 127.667 1.66369 127.667 1.77102V12.397L135.303 2.07002V1.77102C135.303 1.66369 135.288 1.54102 135.257 1.40302C135.227 1.26502 135.173 1.13469 135.096 1.01202C135.035 0.889357 134.958 0.78969 134.866 0.713023C134.774 0.621023 134.667 0.575024 134.544 0.575024H134.429V0.345024H137.695V0.575024H137.58C137.458 0.575024 137.35 0.621023 137.258 0.713023C137.166 0.78969 137.09 0.889357 137.028 1.01202C136.967 1.13469 136.913 1.26502 136.867 1.40302C136.837 1.54102 136.821 1.66369 136.821 1.77102V14.03C136.821 14.1527 136.837 14.283 136.867 14.421C136.913 14.559 136.967 14.697 137.028 14.835C137.09 14.9577 137.166 15.065 137.258 15.157C137.35 15.249 137.458 15.295 137.58 15.295H137.695V15.525H134.429V15.295ZM140.565 15.295H140.68C140.803 15.295 140.91 15.2567 141.002 15.18C141.094 15.088 141.171 14.9807 141.232 14.858C141.309 14.7354 141.362 14.605 141.393 14.467C141.439 14.329 141.462 14.1987 141.462 14.076V1.77102C141.462 1.66369 141.439 1.54102 141.393 1.40302C141.362 1.26502 141.309 1.13469 141.232 1.01202C141.171 0.889357 141.094 0.78969 141.002 0.713023C140.91 0.621023 140.803 0.575024 140.68 0.575024H140.565V0.345024H149.42V2.48402H149.19C149.159 2.13136 149.021 1.82469 148.776 1.56402C148.531 1.28802 148.147 1.15002 147.626 1.15002H143.003V6.96902H146.821C147.174 6.96902 147.465 6.86169 147.695 6.64702C147.94 6.43236 148.063 6.17936 148.063 5.88802H148.293V8.76302H148.063C148.063 8.48702 147.948 8.24936 147.718 8.05002C147.488 7.85069 147.189 7.75102 146.821 7.75102H143.003V14.72H148.04C148.331 14.72 148.584 14.651 148.799 14.513C149.014 14.375 149.19 14.214 149.328 14.03C149.481 13.8307 149.589 13.6237 149.65 13.409C149.727 13.179 149.765 12.9874 149.765 12.834H149.995V15.525H140.565V15.295ZM168.26 15.295H168.375C168.482 15.295 168.582 15.2567 168.674 15.18C168.766 15.088 168.842 14.9807 168.904 14.858C168.98 14.72 169.034 14.582 169.065 14.444C169.095 14.2907 169.111 14.1527 169.111 14.03V7.77402H161.751V14.03C161.751 14.1527 161.766 14.2907 161.797 14.444C161.827 14.582 161.873 14.7124 161.935 14.835C161.996 14.9577 162.065 15.065 162.142 15.157C162.234 15.249 162.341 15.295 162.464 15.295H162.579V15.525H159.359V15.295H159.474C159.581 15.295 159.681 15.2567 159.773 15.18C159.865 15.088 159.941 14.9807 160.003 14.858C160.079 14.72 160.133 14.582 160.164 14.444C160.194 14.2907 160.21 14.1527 160.21 14.03V1.77102C160.21 1.66369 160.194 1.54102 160.164 1.40302C160.133 1.26502 160.087 1.13469 160.026 1.01202C159.964 0.889357 159.888 0.78969 159.796 0.713023C159.704 0.621023 159.596 0.575024 159.474 0.575024H159.359V0.345024H162.579V0.575024H162.464C162.341 0.575024 162.234 0.621023 162.142 0.713023C162.05 0.78969 161.973 0.889357 161.912 1.01202C161.866 1.13469 161.827 1.26502 161.797 1.40302C161.766 1.54102 161.751 1.66369 161.751 1.77102V6.96902H169.111V1.77102C169.111 1.66369 169.095 1.54102 169.065 1.40302C169.034 1.26502 168.988 1.13469 168.927 1.01202C168.865 0.889357 168.789 0.78969 168.697 0.713023C168.605 0.621023 168.497 0.575024 168.375 0.575024H168.26V0.345024H171.48V0.575024H171.365C171.242 0.575024 171.135 0.621023 171.043 0.713023C170.951 0.78969 170.874 0.889357 170.813 1.01202C170.767 1.13469 170.728 1.26502 170.698 1.40302C170.667 1.54102 170.652 1.66369 170.652 1.77102V14.03C170.652 14.1527 170.667 14.2907 170.698 14.444C170.744 14.582 170.797 14.7124 170.859 14.835C170.92 14.9577 170.989 15.065 171.066 15.157C171.158 15.249 171.257 15.295 171.365 15.295H171.48V15.525H168.26V15.295ZM182.866 15.295H182.981C183.349 15.295 183.533 15.1264 183.533 14.789C183.533 14.6664 183.51 14.536 183.464 14.398L181.394 8.80902H177.369L175.368 14.306C175.322 14.4287 175.299 14.5437 175.299 14.651C175.299 14.8504 175.353 15.0114 175.46 15.134C175.568 15.2414 175.683 15.295 175.805 15.295H175.92V15.525H173.367V15.295H173.482C173.682 15.295 173.873 15.18 174.057 14.95C174.257 14.7047 174.418 14.421 174.54 14.099L179.807 0.0690233L184.959 13.961C185.067 14.2677 185.212 14.5667 185.396 14.858C185.596 15.1494 185.849 15.295 186.155 15.295H186.27V15.525H182.866V15.295ZM177.599 8.02702H181.141L179.37 3.22002L177.599 8.02702ZM203.097 0.943024C201.963 0.943024 200.974 1.15002 200.13 1.56402C199.302 1.96269 198.612 2.49169 198.06 3.15102C197.508 3.79502 197.094 4.52336 196.818 5.33602C196.558 6.14869 196.427 6.95369 196.427 7.75102C196.427 8.65569 196.604 9.54502 196.956 10.419C197.309 11.2777 197.792 12.0444 198.405 12.719C199.034 13.3784 199.762 13.915 200.59 14.329C201.418 14.7277 202.315 14.927 203.281 14.927C203.557 14.927 203.879 14.8964 204.247 14.835C204.631 14.7737 205.006 14.6587 205.374 14.49C205.742 14.306 206.08 14.053 206.386 13.731C206.708 13.409 206.954 12.9874 207.122 12.466H207.352V15.019C207.122 15.019 206.877 15.0497 206.616 15.111C206.371 15.1724 206.095 15.2414 205.788 15.318C205.39 15.4254 204.945 15.525 204.454 15.617C203.979 15.709 203.473 15.755 202.936 15.755C201.602 15.755 200.429 15.525 199.417 15.065C198.405 14.605 197.562 14.007 196.887 13.271C196.213 12.535 195.707 11.707 195.369 10.787C195.032 9.85169 194.863 8.90869 194.863 7.95802C194.863 7.00736 195.032 6.06436 195.369 5.12902C195.707 4.19369 196.22 3.35802 196.91 2.62202C197.6 1.87069 198.467 1.26502 199.509 0.805023C200.552 0.345024 201.779 0.115024 203.189 0.115024C203.695 0.115024 204.148 0.161024 204.546 0.253024C204.96 0.345023 205.328 0.437024 205.65 0.529024C205.88 0.605691 206.087 0.667024 206.271 0.713023C206.471 0.74369 206.662 0.759024 206.846 0.759024V3.31202H206.616C206.524 2.83669 206.356 2.44569 206.11 2.13902C205.865 1.81702 205.574 1.57169 205.236 1.40302C204.914 1.23436 204.562 1.11936 204.178 1.05802C203.81 0.981358 203.45 0.943024 203.097 0.943024ZM210.021 15.295H210.136C210.244 15.295 210.343 15.249 210.435 15.157C210.527 15.065 210.604 14.9577 210.665 14.835C210.742 14.7124 210.796 14.582 210.826 14.444C210.857 14.2907 210.872 14.1527 210.872 14.03V1.79402C210.872 1.68669 210.857 1.56402 210.826 1.42602C210.796 1.28802 210.742 1.15769 210.665 1.03502C210.604 0.897023 210.52 0.78969 210.412 0.713023C210.32 0.621023 210.213 0.575024 210.09 0.575024H209.975V0.345024H213.747C215.173 0.345024 216.285 0.659357 217.082 1.28802C217.895 1.91669 218.301 2.75236 218.301 3.79502C218.301 4.23969 218.225 4.63836 218.071 4.99102C217.918 5.34369 217.719 5.65802 217.473 5.93402C217.243 6.21002 216.99 6.44769 216.714 6.64702C216.438 6.83102 216.178 6.98436 215.932 7.10702C216.576 7.22969 217.113 7.43669 217.542 7.72802C217.972 8.01936 218.317 8.35669 218.577 8.74002C218.853 9.10802 219.045 9.50669 219.152 9.93602C219.26 10.3654 219.313 10.787 219.313 11.201C219.313 11.9984 219.168 12.673 218.876 13.225C218.585 13.7617 218.194 14.2064 217.703 14.559C217.228 14.8964 216.676 15.1417 216.047 15.295C215.434 15.4484 214.798 15.525 214.138 15.525H210.021V15.295ZM217.749 11.339C217.627 10.1584 217.228 9.24602 216.553 8.60202C215.879 7.95802 214.928 7.63602 213.701 7.63602H212.413V14.766H213.747C214.989 14.766 215.963 14.49 216.668 13.938C217.389 13.3707 217.749 12.5887 217.749 11.592V11.339ZM216.806 4.00202C216.76 3.11269 216.446 2.40736 215.863 1.88602C215.296 1.36469 214.529 1.10402 213.563 1.10402H212.413V6.90002H213.609C214.253 6.90002 214.775 6.81569 215.173 6.64702C215.587 6.47836 215.917 6.26369 216.162 6.00302C216.408 5.72702 216.576 5.42802 216.668 5.10602C216.76 4.78402 216.806 4.46969 216.806 4.16302V4.00202ZM230.75 15.295H230.865C231.233 15.295 231.417 15.1264 231.417 14.789C231.417 14.6664 231.394 14.536 231.348 14.398L229.278 8.80902H225.253L223.252 14.306C223.206 14.4287 223.183 14.5437 223.183 14.651C223.183 14.8504 223.237 15.0114 223.344 15.134C223.452 15.2414 223.567 15.295 223.689 15.295H223.804V15.525H221.251V15.295H221.366C221.566 15.295 221.757 15.18 221.941 14.95C222.141 14.7047 222.302 14.421 222.424 14.099L227.691 0.0690233L232.843 13.961C232.951 14.2677 233.096 14.5667 233.28 14.858C233.48 15.1494 233.733 15.295 234.039 15.295H234.154V15.525H230.75V15.295ZM225.483 8.02702H229.025L227.254 3.22002L225.483 8.02702ZM250.366 14.72V17.595H250.136C250.12 17.3957 250.067 17.1734 249.975 16.928C249.883 16.6827 249.752 16.4527 249.584 16.238C249.43 16.0387 249.246 15.87 249.032 15.732C248.817 15.594 248.579 15.525 248.319 15.525H237.716C237.455 15.525 237.217 15.594 237.003 15.732C236.788 15.8854 236.596 16.0617 236.428 16.261C236.274 16.4757 236.144 16.7057 236.037 16.951C235.945 17.1964 235.891 17.411 235.876 17.595H235.646V14.72H236.658C237.148 14.72 237.493 14.4364 237.693 13.869L242.983 2.41399e-05L248.319 13.8C248.426 14.03 248.572 14.2447 248.756 14.444C248.94 14.628 249.154 14.72 249.4 14.72H250.366ZM238.199 14.72H247.054L242.615 3.28902L238.199 14.72ZM252.925 15.295H253.04C253.148 15.295 253.247 15.2567 253.339 15.18C253.431 15.088 253.508 14.9807 253.569 14.858C253.631 14.7354 253.677 14.605 253.707 14.467C253.753 14.329 253.776 14.2064 253.776 14.099V1.84002C253.776 1.73269 253.761 1.60236 253.73 1.44902C253.7 1.29569 253.646 1.15769 253.569 1.03502C253.508 0.912357 253.431 0.805024 253.339 0.713023C253.247 0.621023 253.148 0.575024 253.04 0.575024H252.925V0.345024H256.168V0.575024H256.007C255.793 0.605691 255.624 0.774358 255.501 1.08102C255.379 1.37236 255.317 1.62536 255.317 1.84002V6.78502H256.605C257.311 6.78502 258.001 6.86169 258.675 7.01502C259.365 7.15302 259.971 7.39836 260.492 7.75102C261.029 8.08836 261.458 8.54069 261.78 9.10802C262.102 9.66002 262.263 10.35 262.263 11.178C262.263 11.8527 262.125 12.4584 261.849 12.995C261.573 13.5317 261.198 13.9917 260.722 14.375C260.247 14.743 259.68 15.0267 259.02 15.226C258.376 15.4254 257.679 15.525 256.927 15.525H252.925V15.295ZM255.662 14.72C257.441 14.72 258.714 14.4134 259.48 13.8C260.262 13.1867 260.653 12.3434 260.653 11.27C260.653 10.1814 260.262 9.29202 259.48 8.60202C258.714 7.91202 257.579 7.56702 256.076 7.56702H255.317V14.72H255.662ZM264.846 15.295H264.961C265.084 15.295 265.191 15.2567 265.283 15.18C265.375 15.088 265.452 14.9807 265.513 14.858C265.59 14.7354 265.643 14.605 265.674 14.467C265.72 14.329 265.743 14.1987 265.743 14.076V1.77102C265.743 1.66369 265.72 1.54102 265.674 1.40302C265.643 1.26502 265.59 1.13469 265.513 1.01202C265.452 0.889357 265.375 0.78969 265.283 0.713023C265.191 0.621023 265.084 0.575024 264.961 0.575024H264.846V0.345024H273.264V2.53002H273.034C273.034 2.17736 272.911 1.87069 272.666 1.61002C272.421 1.33402 272.045 1.19602 271.539 1.19602H267.284V6.78502H268.342C269.047 6.78502 269.745 6.85402 270.435 6.99202C271.14 7.13002 271.769 7.36769 272.321 7.70502C272.888 8.02702 273.341 8.47169 273.678 9.03902C274.031 9.60636 274.207 10.3194 274.207 11.178C274.207 11.8527 274.077 12.4584 273.816 12.995C273.571 13.5317 273.218 13.9917 272.758 14.375C272.298 14.743 271.746 15.0267 271.102 15.226C270.473 15.4254 269.783 15.525 269.032 15.525H264.846V15.295ZM268.181 14.72C268.948 14.72 269.607 14.6357 270.159 14.467C270.726 14.2984 271.194 14.0684 271.562 13.777C271.93 13.4704 272.198 13.1177 272.367 12.719C272.551 12.305 272.643 11.8604 272.643 11.385C272.643 10.2657 272.244 9.35336 271.447 8.64802C270.65 7.92736 269.515 7.56702 268.043 7.56702H267.284V14.72H268.181ZM275.421 0.345024H278.618V0.575024H278.48C278.311 0.575024 278.196 0.62869 278.135 0.736024C278.073 0.828024 278.043 0.92769 278.043 1.03502C278.043 1.11169 278.05 1.18069 278.066 1.24202C278.081 1.30336 278.096 1.34936 278.112 1.38002L282.045 9.98202L285.564 1.63302C285.579 1.60236 285.602 1.54102 285.633 1.44902C285.663 1.34169 285.679 1.24202 285.679 1.15002C285.679 0.935357 285.602 0.78969 285.449 0.713023C285.295 0.621023 285.18 0.575024 285.104 0.575024V0.345024H287.565V0.575024C287.289 0.575024 287.074 0.65169 286.921 0.805023C286.783 0.943023 286.675 1.08869 286.599 1.24202L281.079 14.444C280.895 14.8887 280.649 15.2184 280.343 15.433C280.036 15.6324 279.706 15.732 279.354 15.732C279.124 15.732 278.917 15.6937 278.733 15.617C278.549 15.5557 278.388 15.479 278.25 15.387C278.112 15.295 278.004 15.2107 277.928 15.134C277.866 15.0574 277.836 15.019 277.836 15.019L278.411 13.754C278.533 14.0454 278.694 14.2754 278.894 14.444C279.093 14.5974 279.3 14.674 279.515 14.674C279.653 14.674 279.791 14.628 279.929 14.536C280.082 14.4287 280.212 14.2677 280.32 14.053L281.217 11.868L276.433 1.31102C276.218 0.851024 275.881 0.605691 275.421 0.575024V0.345024Z" fill="white"></path></svg> 