<?xml version="1.0" encoding="UTF-8"?> <svg xmlns="http://www.w3.org/2000/svg" width="177" height="30" viewBox="0 0 177 30" fill="none"><rect x="0.5" y="0.5" width="176" height="29" stroke="white"></rect><path d="M22.0833 18.525C22.0833 18.605 22.0933 18.695 22.1133 18.795C22.1333 18.885 22.1583 18.97 22.1883 19.05C22.2283 19.13 22.2733 19.2 22.3233 19.26C22.3833 19.32 22.4533 19.35 22.5333 19.35V19.5H20.6283V19.35C20.7083 19.35 20.7783 19.325 20.8383 19.275C20.8983 19.215 20.9433 19.145 20.9733 19.065C21.0133 18.975 21.0433 18.885 21.0633 18.795C21.0833 18.695 21.0933 18.605 21.0933 18.525V14.13C21.0933 14.06 21.0833 13.98 21.0633 13.89C21.0433 13.79 21.0133 13.705 20.9733 13.635C20.9333 13.555 20.8833 13.49 20.8233 13.44C20.7633 13.38 20.6983 13.35 20.6283 13.35V13.2H26.8533V13.35C26.6933 13.35 26.5733 13.445 26.4933 13.635C26.4133 13.815 26.3733 13.98 26.3733 14.13V18.525C26.3733 18.605 26.3833 18.695 26.4033 18.795C26.4233 18.885 26.4533 18.97 26.4933 19.05C26.5333 19.13 26.5833 19.2 26.6433 19.26C26.7133 19.32 26.7833 19.35 26.8533 19.35V19.5H24.9183V19.35C25.0083 19.35 25.0783 19.325 25.1283 19.275C25.1883 19.215 25.2383 19.145 25.2783 19.065C25.3183 18.975 25.3433 18.885 25.3533 18.795C25.3733 18.695 25.3833 18.605 25.3833 18.525V13.725H22.0833V18.525ZM31.8744 19.605C31.3744 19.605 30.9244 19.525 30.5244 19.365C30.1244 19.195 29.7794 18.97 29.4894 18.69C29.2094 18.4 28.9894 18.06 28.8294 17.67C28.6794 17.28 28.6044 16.855 28.6044 16.395C28.6044 15.905 28.6894 15.46 28.8594 15.06C29.0294 14.65 29.2644 14.3 29.5644 14.01C29.8644 13.72 30.2194 13.495 30.6294 13.335C31.0394 13.175 31.4844 13.095 31.9644 13.095C32.4444 13.095 32.8844 13.175 33.2844 13.335C33.6844 13.485 34.0294 13.7 34.3194 13.98C34.6094 14.26 34.8344 14.595 34.9944 14.985C35.1544 15.365 35.2344 15.785 35.2344 16.245C35.2344 16.675 35.1594 17.095 35.0094 17.505C34.8694 17.905 34.6544 18.26 34.3644 18.57C34.0844 18.88 33.7344 19.13 33.3144 19.32C32.9044 19.51 32.4244 19.605 31.8744 19.605ZM31.7844 13.59C31.4244 13.61 31.1044 13.7 30.8244 13.86C30.5544 14.01 30.3244 14.21 30.1344 14.46C29.9544 14.7 29.8144 14.975 29.7144 15.285C29.6244 15.595 29.5794 15.91 29.5794 16.23C29.5794 16.6 29.6344 16.96 29.7444 17.31C29.8644 17.65 30.0294 17.955 30.2394 18.225C30.4594 18.495 30.7194 18.71 31.0194 18.87C31.3194 19.03 31.6544 19.11 32.0244 19.11C32.3944 19.11 32.7194 19.03 32.9994 18.87C33.2894 18.71 33.5294 18.505 33.7194 18.255C33.9094 17.995 34.0494 17.705 34.1394 17.385C34.2394 17.065 34.2894 16.745 34.2894 16.425C34.2894 16.095 34.2394 15.765 34.1394 15.435C34.0394 15.095 33.8844 14.79 33.6744 14.52C33.4644 14.24 33.1994 14.015 32.8794 13.845C32.5694 13.675 32.2044 13.59 31.7844 13.59ZM42.561 18.96C42.481 18.96 42.406 18.98 42.336 19.02C42.266 19.05 42.186 19.09 42.096 19.14C41.926 19.24 41.701 19.345 41.421 19.455C41.141 19.555 40.791 19.605 40.371 19.605C39.861 19.605 39.391 19.525 38.961 19.365C38.541 19.195 38.176 18.965 37.866 18.675C37.556 18.375 37.316 18.03 37.146 17.64C36.976 17.24 36.891 16.81 36.891 16.35C36.891 15.92 36.966 15.51 37.116 15.12C37.276 14.73 37.501 14.385 37.791 14.085C38.081 13.785 38.436 13.545 38.856 13.365C39.286 13.185 39.771 13.095 40.311 13.095C40.681 13.095 40.981 13.14 41.211 13.23C41.441 13.31 41.636 13.39 41.796 13.47C41.886 13.52 41.971 13.56 42.051 13.59C42.141 13.62 42.231 13.635 42.321 13.635V14.775H42.171C42.121 14.585 42.031 14.42 41.901 14.28C41.771 14.13 41.621 14.005 41.451 13.905C41.281 13.805 41.096 13.73 40.896 13.68C40.696 13.63 40.501 13.605 40.311 13.605C39.901 13.605 39.541 13.68 39.231 13.83C38.921 13.97 38.666 14.16 38.466 14.4C38.266 14.63 38.116 14.895 38.016 15.195C37.916 15.495 37.866 15.805 37.866 16.125C37.866 16.495 37.921 16.86 38.031 17.22C38.151 17.57 38.316 17.885 38.526 18.165C38.746 18.445 39.011 18.67 39.321 18.84C39.641 19.01 40.001 19.095 40.401 19.095C40.681 19.095 40.941 19.055 41.181 18.975C41.421 18.895 41.626 18.79 41.796 18.66C41.976 18.53 42.116 18.39 42.216 18.24C42.326 18.08 42.391 17.93 42.411 17.79H42.561V18.96ZM50.8792 18.525C50.8792 18.605 50.8892 18.695 50.9092 18.795C50.9292 18.885 50.9592 18.97 50.9992 19.05C51.0492 19.13 51.1042 19.2 51.1642 19.26C51.2242 19.32 51.2942 19.35 51.3742 19.35V19.5H49.4242V19.35C49.5042 19.35 49.5742 19.325 49.6342 19.275C49.6942 19.215 49.7442 19.145 49.7842 19.065C49.8242 18.975 49.8542 18.885 49.8742 18.795C49.8942 18.695 49.9042 18.605 49.9042 18.525V14.475L47.3992 19.635L44.9992 14.775V18.525C44.9992 18.605 45.0092 18.695 45.0292 18.795C45.0492 18.885 45.0792 18.97 45.1192 19.05C45.1592 19.13 45.2092 19.2 45.2692 19.26C45.3292 19.32 45.3992 19.35 45.4792 19.35V19.5H44.0242V19.35C44.1042 19.35 44.1742 19.32 44.2342 19.26C44.2942 19.2 44.3392 19.13 44.3692 19.05C44.4092 18.97 44.4392 18.885 44.4592 18.795C44.4792 18.695 44.4892 18.605 44.4892 18.525V14.13C44.4892 13.95 44.4642 13.775 44.4142 13.605C44.3742 13.435 44.2442 13.35 44.0242 13.35V13.2H45.3592L47.6542 17.895L49.9492 13.2H51.3742V13.35C51.2242 13.35 51.1042 13.445 51.0142 13.635C50.9242 13.815 50.8792 13.98 50.8792 14.13V18.525ZM56.4422 19.605C55.9422 19.605 55.4922 19.525 55.0922 19.365C54.6922 19.195 54.3472 18.97 54.0572 18.69C53.7772 18.4 53.5572 18.06 53.3972 17.67C53.2472 17.28 53.1722 16.855 53.1722 16.395C53.1722 15.905 53.2572 15.46 53.4272 15.06C53.5972 14.65 53.8322 14.3 54.1322 14.01C54.4322 13.72 54.7872 13.495 55.1972 13.335C55.6072 13.175 56.0522 13.095 56.5322 13.095C57.0122 13.095 57.4522 13.175 57.8522 13.335C58.2522 13.485 58.5972 13.7 58.8872 13.98C59.1772 14.26 59.4022 14.595 59.5622 14.985C59.7222 15.365 59.8022 15.785 59.8022 16.245C59.8022 16.675 59.7272 17.095 59.5772 17.505C59.4372 17.905 59.2222 18.26 58.9322 18.57C58.6522 18.88 58.3022 19.13 57.8822 19.32C57.4722 19.51 56.9922 19.605 56.4422 19.605ZM56.3522 13.59C55.9922 13.61 55.6722 13.7 55.3922 13.86C55.1222 14.01 54.8922 14.21 54.7022 14.46C54.5222 14.7 54.3822 14.975 54.2822 15.285C54.1922 15.595 54.1472 15.91 54.1472 16.23C54.1472 16.6 54.2022 16.96 54.3122 17.31C54.4322 17.65 54.5972 17.955 54.8072 18.225C55.0272 18.495 55.2872 18.71 55.5872 18.87C55.8872 19.03 56.2222 19.11 56.5922 19.11C56.9622 19.11 57.2872 19.03 57.5672 18.87C57.8572 18.71 58.0972 18.505 58.2872 18.255C58.4772 17.995 58.6172 17.705 58.7072 17.385C58.8072 17.065 58.8572 16.745 58.8572 16.425C58.8572 16.095 58.8072 15.765 58.7072 15.435C58.6072 15.095 58.4522 14.79 58.2422 14.52C58.0322 14.24 57.7672 14.015 57.4472 13.845C57.1372 13.675 56.7722 13.59 56.3522 13.59ZM66.444 14.775C66.444 14.665 66.424 14.545 66.384 14.415C66.344 14.285 66.284 14.17 66.204 14.07C66.124 13.96 66.024 13.87 65.904 13.8C65.784 13.73 65.644 13.695 65.484 13.695H64.164V18.525C64.164 18.605 64.174 18.69 64.194 18.78C64.214 18.87 64.244 18.96 64.284 19.05C64.334 19.13 64.384 19.2 64.434 19.26C64.494 19.32 64.564 19.35 64.644 19.35V19.5H62.694V19.35C62.774 19.35 62.844 19.32 62.904 19.26C62.964 19.2 63.014 19.13 63.054 19.05C63.104 18.97 63.139 18.885 63.159 18.795C63.179 18.695 63.189 18.605 63.189 18.525V13.695H61.899C61.739 13.695 61.599 13.73 61.479 13.8C61.359 13.87 61.259 13.96 61.179 14.07C61.109 14.17 61.054 14.285 61.014 14.415C60.974 14.545 60.954 14.665 60.954 14.775H60.804V13.2H66.579V14.775H66.444ZM71.0835 13.095C71.6235 13.095 72.0885 13.19 72.4785 13.38C72.8785 13.56 73.2085 13.8 73.4685 14.1C73.7385 14.4 73.9385 14.745 74.0685 15.135C74.1985 15.525 74.2635 15.925 74.2635 16.335C74.2635 16.735 74.1985 17.13 74.0685 17.52C73.9485 17.91 73.7585 18.26 73.4985 18.57C73.2485 18.88 72.9335 19.13 72.5535 19.32C72.1735 19.51 71.7235 19.605 71.2035 19.605C70.8935 19.605 70.5735 19.525 70.2435 19.365C69.9235 19.195 69.6335 18.985 69.3735 18.735V21.825C69.3735 21.905 69.3835 21.99 69.4035 22.08C69.4235 22.18 69.4535 22.27 69.4935 22.35C69.5435 22.43 69.5935 22.5 69.6435 22.56C69.7035 22.62 69.7735 22.65 69.8535 22.65V22.8H67.9035V22.65C67.9735 22.65 68.0385 22.62 68.0985 22.56C68.1585 22.5 68.2085 22.43 68.2485 22.35C68.2985 22.27 68.3335 22.18 68.3535 22.08C68.3735 21.99 68.3835 21.905 68.3835 21.825V14.085C68.3835 13.995 68.3785 13.91 68.3685 13.83C68.3685 13.74 68.3535 13.665 68.3235 13.605C68.2935 13.535 68.2435 13.48 68.1735 13.44C68.1135 13.39 68.0235 13.36 67.9035 13.35V13.2H69.3735V13.86C69.5735 13.62 69.8135 13.435 70.0935 13.305C70.3835 13.165 70.7135 13.095 71.0835 13.095ZM71.2185 19.095C71.5685 19.085 71.8735 19.005 72.1335 18.855C72.3935 18.705 72.6085 18.51 72.7785 18.27C72.9485 18.03 73.0735 17.765 73.1535 17.475C73.2335 17.175 73.2735 16.865 73.2735 16.545C73.2735 16.185 73.2235 15.83 73.1235 15.48C73.0235 15.13 72.8785 14.82 72.6885 14.55C72.4985 14.27 72.2635 14.045 71.9835 13.875C71.7135 13.695 71.4035 13.605 71.0535 13.605C70.8435 13.605 70.6335 13.645 70.4235 13.725C70.2235 13.805 70.0435 13.92 69.8835 14.07C69.7335 14.22 69.6085 14.4 69.5085 14.61C69.4185 14.81 69.3735 15.035 69.3735 15.285V17.25C69.3735 17.52 69.4285 17.77 69.5385 18C69.6485 18.22 69.7885 18.415 69.9585 18.585C70.1385 18.745 70.3385 18.87 70.5585 18.96C70.7785 19.05 70.9985 19.095 71.2185 19.095ZM76.8832 16.47C76.9232 16.82 77.0082 17.155 77.1382 17.475C77.2682 17.785 77.4382 18.06 77.6482 18.3C77.8682 18.54 78.1332 18.735 78.4432 18.885C78.7532 19.025 79.1132 19.095 79.5232 19.095C79.7432 19.095 79.9732 19.065 80.2132 19.005C80.4632 18.935 80.6932 18.84 80.9032 18.72C81.1132 18.6 81.2982 18.455 81.4582 18.285C81.6282 18.105 81.7432 17.905 81.8032 17.685H81.9382V18.81C81.8782 18.81 81.8082 18.83 81.7282 18.87C81.6582 18.91 81.5732 18.96 81.4732 19.02C81.2732 19.14 81.0032 19.27 80.6632 19.41C80.3232 19.54 79.8732 19.605 79.3132 19.605C78.8632 19.605 78.4332 19.54 78.0232 19.41C77.6232 19.28 77.2682 19.08 76.9582 18.81C76.6482 18.54 76.3982 18.195 76.2082 17.775C76.0282 17.355 75.9382 16.855 75.9382 16.275C75.9382 15.905 75.9982 15.53 76.1182 15.15C76.2482 14.77 76.4382 14.43 76.6882 14.13C76.9482 13.82 77.2782 13.57 77.6782 13.38C78.0782 13.19 78.5582 13.095 79.1182 13.095C79.6182 13.095 80.0532 13.18 80.4232 13.35C80.8032 13.52 81.1132 13.755 81.3532 14.055C81.6032 14.355 81.7882 14.71 81.9082 15.12C82.0282 15.53 82.0882 15.98 82.0882 16.47H76.8832ZM79.0582 13.59C78.7082 13.59 78.4032 13.66 78.1432 13.8C77.8932 13.94 77.6782 14.12 77.4982 14.34C77.3182 14.56 77.1782 14.81 77.0782 15.09C76.9782 15.37 76.9132 15.65 76.8832 15.93H81.1582C81.1482 15.64 81.0932 15.355 80.9932 15.075C80.9032 14.795 80.7732 14.545 80.6032 14.325C80.4332 14.105 80.2182 13.93 79.9582 13.8C79.6982 13.66 79.3982 13.59 79.0582 13.59ZM88.8585 14.775C88.8585 14.665 88.8385 14.545 88.7985 14.415C88.7585 14.285 88.6985 14.17 88.6185 14.07C88.5385 13.96 88.4385 13.87 88.3185 13.8C88.1985 13.73 88.0585 13.695 87.8985 13.695H86.5785V18.525C86.5785 18.605 86.5885 18.69 86.6085 18.78C86.6285 18.87 86.6585 18.96 86.6985 19.05C86.7485 19.13 86.7985 19.2 86.8485 19.26C86.9085 19.32 86.9785 19.35 87.0585 19.35V19.5H85.1085V19.35C85.1885 19.35 85.2585 19.32 85.3185 19.26C85.3785 19.2 85.4285 19.13 85.4685 19.05C85.5185 18.97 85.5535 18.885 85.5735 18.795C85.5935 18.695 85.6035 18.605 85.6035 18.525V13.695H84.3135C84.1535 13.695 84.0135 13.73 83.8935 13.8C83.7735 13.87 83.6735 13.96 83.5935 14.07C83.5235 14.17 83.4685 14.285 83.4285 14.415C83.3885 14.545 83.3685 14.665 83.3685 14.775H83.2185V13.2H88.9935V14.775H88.8585ZM92.9429 15.93C93.4029 15.93 93.8029 15.975 94.1429 16.065C94.4929 16.155 94.7779 16.28 94.9979 16.44C95.2279 16.6 95.3979 16.79 95.5079 17.01C95.6179 17.22 95.6729 17.45 95.6729 17.7C95.6729 17.95 95.6179 18.185 95.5079 18.405C95.3979 18.625 95.2229 18.815 94.9829 18.975C94.7529 19.135 94.4629 19.265 94.1129 19.365C93.7629 19.455 93.3479 19.5 92.8679 19.5H90.3029V19.35C90.3829 19.35 90.4529 19.325 90.5129 19.275C90.5729 19.215 90.6229 19.145 90.6629 19.065C90.7129 18.975 90.7479 18.885 90.7679 18.795C90.7879 18.695 90.7979 18.605 90.7979 18.525V14.13C90.7979 14.06 90.7879 13.98 90.7679 13.89C90.7479 13.8 90.7129 13.715 90.6629 13.635C90.6229 13.555 90.5729 13.49 90.5129 13.44C90.4529 13.38 90.3829 13.35 90.3029 13.35V13.2H92.2679V13.35C92.1179 13.35 91.9979 13.445 91.9079 13.635C91.8179 13.815 91.7729 13.98 91.7729 14.13V15.93H92.9429ZM92.8379 19.005C93.4979 19.005 93.9729 18.9 94.2629 18.69C94.5629 18.47 94.7129 18.2 94.7129 17.88C94.7129 17.7 94.6729 17.525 94.5929 17.355C94.5129 17.175 94.3879 17.02 94.2179 16.89C94.0579 16.75 93.8579 16.64 93.6179 16.56C93.3779 16.47 93.1029 16.425 92.7929 16.425H91.7729V19.005H92.8379ZM103.249 18.525C103.249 18.605 103.259 18.695 103.279 18.795C103.299 18.885 103.329 18.97 103.369 19.05C103.409 19.13 103.454 19.2 103.504 19.26C103.564 19.32 103.629 19.35 103.699 19.35V19.5H101.809V19.35C101.879 19.35 101.939 19.325 101.989 19.275C102.049 19.215 102.099 19.145 102.139 19.065C102.179 18.975 102.209 18.885 102.229 18.795C102.249 18.695 102.259 18.605 102.259 18.525V14.13C102.259 14.06 102.249 13.98 102.229 13.89C102.209 13.8 102.179 13.715 102.139 13.635C102.099 13.555 102.049 13.49 101.989 13.44C101.939 13.38 101.879 13.35 101.809 13.35V13.2H103.699V13.35C103.619 13.35 103.549 13.38 103.489 13.44C103.439 13.49 103.394 13.555 103.354 13.635C103.324 13.715 103.299 13.8 103.279 13.89C103.259 13.98 103.249 14.06 103.249 14.13V15.945H106.669V14.13C106.669 14.06 106.659 13.98 106.639 13.89C106.619 13.8 106.589 13.715 106.549 13.635C106.519 13.555 106.474 13.49 106.414 13.44C106.364 13.38 106.299 13.35 106.219 13.35V13.2H108.109V13.35C108.029 13.35 107.959 13.38 107.899 13.44C107.849 13.49 107.804 13.555 107.764 13.635C107.724 13.715 107.694 13.8 107.674 13.89C107.664 13.98 107.659 14.06 107.659 14.13V18.525C107.659 18.605 107.669 18.695 107.689 18.795C107.709 18.885 107.739 18.97 107.779 19.05C107.819 19.13 107.864 19.2 107.914 19.26C107.974 19.32 108.039 19.35 108.109 19.35V19.5H106.219V19.35C106.289 19.35 106.349 19.325 106.399 19.275C106.459 19.215 106.509 19.145 106.549 19.065C106.589 18.975 106.619 18.885 106.639 18.795C106.659 18.695 106.669 18.605 106.669 18.525V16.44H103.249V18.525ZM113.967 19.5V18.735L113.892 18.81C113.642 19.06 113.352 19.255 113.022 19.395C112.702 19.535 112.312 19.605 111.852 19.605C111.502 19.605 111.202 19.565 110.952 19.485C110.702 19.405 110.497 19.295 110.337 19.155C110.177 19.005 110.057 18.835 109.977 18.645C109.907 18.455 109.872 18.255 109.872 18.045C109.872 17.705 109.962 17.405 110.142 17.145C110.332 16.885 110.602 16.655 110.952 16.455C111.302 16.255 111.727 16.075 112.227 15.915C112.737 15.745 113.317 15.58 113.967 15.42C113.947 15.03 113.867 14.715 113.727 14.475C113.587 14.235 113.422 14.05 113.232 13.92C113.042 13.78 112.842 13.69 112.632 13.65C112.422 13.6 112.242 13.575 112.092 13.575C111.832 13.575 111.602 13.615 111.402 13.695C111.202 13.765 111.027 13.865 110.877 13.995C110.727 14.115 110.602 14.255 110.502 14.415C110.412 14.575 110.342 14.735 110.292 14.895H110.157V13.725C110.247 13.725 110.352 13.695 110.472 13.635C110.592 13.565 110.732 13.49 110.892 13.41C111.062 13.33 111.262 13.26 111.492 13.2C111.732 13.13 112.017 13.095 112.347 13.095C112.897 13.095 113.342 13.165 113.682 13.305C114.022 13.445 114.282 13.63 114.462 13.86C114.652 14.09 114.777 14.355 114.837 14.655C114.897 14.945 114.927 15.245 114.927 15.555V18.525C114.927 18.725 114.977 18.915 115.077 19.095C115.177 19.265 115.312 19.35 115.482 19.35V19.5H113.967ZM113.967 18.075V15.93L113.817 15.96C113.577 16.02 113.282 16.1 112.932 16.2C112.592 16.3 112.267 16.43 111.957 16.59C111.647 16.75 111.382 16.94 111.162 17.16C110.942 17.38 110.832 17.635 110.832 17.925C110.832 18.245 110.962 18.51 111.222 18.72C111.482 18.93 111.822 19.035 112.242 19.035C112.572 19.035 112.862 18.965 113.112 18.825C113.362 18.675 113.592 18.485 113.802 18.255L113.967 18.075ZM126.204 18.33C126.264 18.44 126.344 18.555 126.444 18.675C126.544 18.795 126.654 18.905 126.774 19.005C126.904 19.105 127.034 19.19 127.164 19.26C127.294 19.32 127.419 19.35 127.539 19.35V19.5H126.969C126.509 19.5 126.154 19.405 125.904 19.215C125.654 19.025 125.459 18.8 125.319 18.54L124.614 17.205C124.504 16.995 124.319 16.815 124.059 16.665C123.799 16.505 123.524 16.425 123.234 16.425V18.555C123.234 18.635 123.239 18.72 123.249 18.81C123.269 18.9 123.299 18.985 123.339 19.065C123.379 19.145 123.429 19.215 123.489 19.275C123.549 19.325 123.619 19.35 123.699 19.35V19.5H121.764V19.35C121.834 19.35 121.899 19.325 121.959 19.275C122.029 19.215 122.084 19.145 122.124 19.065C122.164 18.985 122.194 18.9 122.214 18.81C122.234 18.72 122.244 18.635 122.244 18.555V14.145C122.244 14.075 122.234 13.995 122.214 13.905C122.194 13.805 122.164 13.715 122.124 13.635C122.094 13.555 122.049 13.49 121.989 13.44C121.929 13.38 121.854 13.35 121.764 13.35V13.2H123.684V13.35C123.614 13.35 123.549 13.38 123.489 13.44C123.439 13.49 123.394 13.555 123.354 13.635C123.314 13.715 123.284 13.805 123.264 13.905C123.244 13.995 123.234 14.075 123.234 14.145V15.69C123.664 15.31 124.089 14.945 124.509 14.595C124.929 14.235 125.354 13.865 125.784 13.485C125.784 13.475 125.789 13.465 125.799 13.455C125.809 13.445 125.814 13.435 125.814 13.425C125.814 13.375 125.789 13.35 125.739 13.35V13.2H127.044V13.35C126.994 13.35 126.934 13.365 126.864 13.395C126.794 13.425 126.724 13.46 126.654 13.5C126.574 13.54 126.494 13.59 126.414 13.65C125.964 14.03 125.514 14.42 125.064 14.82C124.614 15.21 124.164 15.595 123.714 15.975C124.144 15.975 124.494 16.055 124.764 16.215C125.044 16.375 125.279 16.63 125.469 16.98L126.204 18.33ZM132.837 19.5V18.735L132.762 18.81C132.512 19.06 132.222 19.255 131.892 19.395C131.572 19.535 131.182 19.605 130.722 19.605C130.372 19.605 130.072 19.565 129.822 19.485C129.572 19.405 129.367 19.295 129.207 19.155C129.047 19.005 128.927 18.835 128.847 18.645C128.777 18.455 128.742 18.255 128.742 18.045C128.742 17.705 128.832 17.405 129.012 17.145C129.202 16.885 129.472 16.655 129.822 16.455C130.172 16.255 130.597 16.075 131.097 15.915C131.607 15.745 132.187 15.58 132.837 15.42C132.817 15.03 132.737 14.715 132.597 14.475C132.457 14.235 132.292 14.05 132.102 13.92C131.912 13.78 131.712 13.69 131.502 13.65C131.292 13.6 131.112 13.575 130.962 13.575C130.702 13.575 130.472 13.615 130.272 13.695C130.072 13.765 129.897 13.865 129.747 13.995C129.597 14.115 129.472 14.255 129.372 14.415C129.282 14.575 129.212 14.735 129.162 14.895H129.027V13.725C129.117 13.725 129.222 13.695 129.342 13.635C129.462 13.565 129.602 13.49 129.762 13.41C129.932 13.33 130.132 13.26 130.362 13.2C130.602 13.13 130.887 13.095 131.217 13.095C131.767 13.095 132.212 13.165 132.552 13.305C132.892 13.445 133.152 13.63 133.332 13.86C133.522 14.09 133.647 14.355 133.707 14.655C133.767 14.945 133.797 15.245 133.797 15.555V18.525C133.797 18.725 133.847 18.915 133.947 19.095C134.047 19.265 134.182 19.35 134.352 19.35V19.5H132.837ZM132.837 18.075V15.93L132.687 15.96C132.447 16.02 132.152 16.1 131.802 16.2C131.462 16.3 131.137 16.43 130.827 16.59C130.517 16.75 130.252 16.94 130.032 17.16C129.812 17.38 129.702 17.635 129.702 17.925C129.702 18.245 129.832 18.51 130.092 18.72C130.352 18.93 130.692 19.035 131.112 19.035C131.442 19.035 131.732 18.965 131.982 18.825C132.232 18.675 132.462 18.485 132.672 18.255L132.837 18.075ZM139.377 13.095C139.917 13.095 140.382 13.19 140.772 13.38C141.172 13.56 141.502 13.8 141.762 14.1C142.032 14.4 142.232 14.745 142.362 15.135C142.492 15.525 142.557 15.925 142.557 16.335C142.557 16.735 142.492 17.13 142.362 17.52C142.242 17.91 142.052 18.26 141.792 18.57C141.542 18.88 141.227 19.13 140.847 19.32C140.467 19.51 140.017 19.605 139.497 19.605C139.187 19.605 138.867 19.525 138.537 19.365C138.217 19.195 137.927 18.985 137.667 18.735V21.825C137.667 21.905 137.677 21.99 137.697 22.08C137.717 22.18 137.747 22.27 137.787 22.35C137.837 22.43 137.887 22.5 137.937 22.56C137.997 22.62 138.067 22.65 138.147 22.65V22.8H136.197V22.65C136.267 22.65 136.332 22.62 136.392 22.56C136.452 22.5 136.502 22.43 136.542 22.35C136.592 22.27 136.627 22.18 136.647 22.08C136.667 21.99 136.677 21.905 136.677 21.825V14.085C136.677 13.995 136.672 13.91 136.662 13.83C136.662 13.74 136.647 13.665 136.617 13.605C136.587 13.535 136.537 13.48 136.467 13.44C136.407 13.39 136.317 13.36 136.197 13.35V13.2H137.667V13.86C137.867 13.62 138.107 13.435 138.387 13.305C138.677 13.165 139.007 13.095 139.377 13.095ZM139.512 19.095C139.862 19.085 140.167 19.005 140.427 18.855C140.687 18.705 140.902 18.51 141.072 18.27C141.242 18.03 141.367 17.765 141.447 17.475C141.527 17.175 141.567 16.865 141.567 16.545C141.567 16.185 141.517 15.83 141.417 15.48C141.317 15.13 141.172 14.82 140.982 14.55C140.792 14.27 140.557 14.045 140.277 13.875C140.007 13.695 139.697 13.605 139.347 13.605C139.137 13.605 138.927 13.645 138.717 13.725C138.517 13.805 138.337 13.92 138.177 14.07C138.027 14.22 137.902 14.4 137.802 14.61C137.712 14.81 137.667 15.035 137.667 15.285V17.25C137.667 17.52 137.722 17.77 137.832 18C137.942 18.22 138.082 18.415 138.252 18.585C138.432 18.745 138.632 18.87 138.852 18.96C139.072 19.05 139.292 19.095 139.512 19.095ZM149.202 14.775C149.202 14.665 149.182 14.545 149.142 14.415C149.102 14.285 149.042 14.17 148.962 14.07C148.882 13.96 148.782 13.87 148.662 13.8C148.542 13.73 148.402 13.695 148.242 13.695H146.922V18.525C146.922 18.605 146.932 18.69 146.952 18.78C146.972 18.87 147.002 18.96 147.042 19.05C147.092 19.13 147.142 19.2 147.192 19.26C147.252 19.32 147.322 19.35 147.402 19.35V19.5H145.452V19.35C145.532 19.35 145.602 19.32 145.662 19.26C145.722 19.2 145.772 19.13 145.812 19.05C145.862 18.97 145.897 18.885 145.917 18.795C145.937 18.695 145.947 18.605 145.947 18.525V13.695H144.657C144.497 13.695 144.357 13.73 144.237 13.8C144.117 13.87 144.017 13.96 143.937 14.07C143.867 14.17 143.812 14.285 143.772 14.415C143.732 14.545 143.712 14.665 143.712 14.775H143.562V13.2H149.337V14.775H149.202ZM151.281 16.47C151.321 16.82 151.406 17.155 151.536 17.475C151.666 17.785 151.836 18.06 152.046 18.3C152.266 18.54 152.531 18.735 152.841 18.885C153.151 19.025 153.511 19.095 153.921 19.095C154.141 19.095 154.371 19.065 154.611 19.005C154.861 18.935 155.091 18.84 155.301 18.72C155.511 18.6 155.696 18.455 155.856 18.285C156.026 18.105 156.141 17.905 156.201 17.685H156.336V18.81C156.276 18.81 156.206 18.83 156.126 18.87C156.056 18.91 155.971 18.96 155.871 19.02C155.671 19.14 155.401 19.27 155.061 19.41C154.721 19.54 154.271 19.605 153.711 19.605C153.261 19.605 152.831 19.54 152.421 19.41C152.021 19.28 151.666 19.08 151.356 18.81C151.046 18.54 150.796 18.195 150.606 17.775C150.426 17.355 150.336 16.855 150.336 16.275C150.336 15.905 150.396 15.53 150.516 15.15C150.646 14.77 150.836 14.43 151.086 14.13C151.346 13.82 151.676 13.57 152.076 13.38C152.476 13.19 152.956 13.095 153.516 13.095C154.016 13.095 154.451 13.18 154.821 13.35C155.201 13.52 155.511 13.755 155.751 14.055C156.001 14.355 156.186 14.71 156.306 15.12C156.426 15.53 156.486 15.98 156.486 16.47H151.281ZM153.456 13.59C153.106 13.59 152.801 13.66 152.541 13.8C152.291 13.94 152.076 14.12 151.896 14.34C151.716 14.56 151.576 14.81 151.476 15.09C151.376 15.37 151.311 15.65 151.281 15.93H155.556C155.546 15.64 155.491 15.355 155.391 15.075C155.301 14.795 155.171 14.545 155.001 14.325C154.831 14.105 154.616 13.93 154.356 13.8C154.096 13.66 153.796 13.59 153.456 13.59Z" fill="white"></path></svg> 