<?xml version="1.0" encoding="UTF-8"?> <svg xmlns="http://www.w3.org/2000/svg" width="240" height="29" viewBox="0 0 240 29" fill="none"><path d="M8.05501 9.75002H8.13001C8.20001 9.75002 8.26501 9.72002 8.32501 9.66002C8.38501 9.60002 8.43501 9.53002 8.47501 9.45002C8.52501 9.37002 8.56001 9.28502 8.58001 9.19502C8.60001 9.09502 8.61001 9.00502 8.61001 8.92502V1.03502L4.74001 10.065L1.06501 1.50002V8.92502C1.06501 9.00502 1.07501 9.09502 1.09501 9.19502C1.11501 9.28502 1.14501 9.37002 1.18501 9.45002C1.23501 9.53002 1.29001 9.60002 1.35001 9.66002C1.41001 9.72002 1.48001 9.75002 1.56001 9.75002H1.63501V9.90002H1.28746e-05V9.75002H0.0750129C0.145013 9.75002 0.210013 9.72002 0.270013 9.66002C0.330013 9.60002 0.380013 9.53002 0.420013 9.45002C0.460013 9.37002 0.490013 9.28502 0.510013 9.19502C0.530013 9.09502 0.540013 9.00502 0.540013 8.92502V0.930024C0.540013 0.860024 0.530013 0.780024 0.510013 0.690024C0.490013 0.600024 0.460013 0.515024 0.420013 0.435024C0.380013 0.355024 0.330013 0.290024 0.270013 0.240024C0.210013 0.180024 0.145013 0.150024 0.0750129 0.150024H1.28746e-05V2.40207e-05H1.53001L5.01001 8.20502L8.49001 2.40207e-05H10.185V0.150024H10.11C10.03 0.150024 9.96001 0.180024 9.90001 0.240024C9.84001 0.290024 9.78501 0.355024 9.73501 0.435024C9.69501 0.515024 9.66501 0.600024 9.64501 0.690024C9.62501 0.780024 9.61501 0.860024 9.61501 0.930024V8.92502C9.61501 9.00502 9.62501 9.09502 9.64501 9.19502C9.66501 9.28502 9.69501 9.37002 9.73501 9.45002C9.78501 9.53002 9.84001 9.60002 9.90001 9.66002C9.96001 9.72002 10.03 9.75002 10.11 9.75002H10.185V9.90002H8.05501V9.75002ZM18.3052 9.90002V9.75002C18.3752 9.75002 18.4402 9.72502 18.5002 9.67502C18.5602 9.61502 18.6102 9.54502 18.6502 9.46502C18.7002 9.37502 18.7352 9.28502 18.7552 9.19502C18.7752 9.09502 18.7852 9.00502 18.7852 8.92502V4.53002C18.7852 4.46002 18.7752 4.38002 18.7552 4.29002C18.7352 4.20002 18.7002 4.11502 18.6502 4.03502C18.6102 3.95502 18.5602 3.89002 18.5002 3.84002C18.4402 3.78002 18.3752 3.75002 18.3052 3.75002V3.60002H20.2552V3.75002C20.1052 3.75002 19.9852 3.84502 19.8952 4.03502C19.8052 4.21502 19.7602 4.38002 19.7602 4.53002V8.92502C19.7602 9.00502 19.7702 9.09502 19.7902 9.19502C19.8102 9.28502 19.8402 9.37002 19.8802 9.45002C19.9302 9.53002 19.9852 9.60002 20.0452 9.66002C20.1052 9.72002 20.1752 9.75002 20.2552 9.75002V9.90002H18.3052ZM14.7652 6.33002C15.6852 6.33002 16.3652 6.50002 16.8052 6.84002C17.2552 7.18002 17.4802 7.60002 17.4802 8.10002C17.4802 8.35002 17.4202 8.58502 17.3002 8.80502C17.1902 9.02502 17.0202 9.21502 16.7902 9.37502C16.5602 9.53502 16.2702 9.66502 15.9202 9.76502C15.5702 9.85502 15.1552 9.90002 14.6752 9.90002H12.1252V9.75002C12.1952 9.75002 12.2602 9.72502 12.3202 9.67502C12.3802 9.61502 12.4302 9.54502 12.4702 9.46502C12.5202 9.37502 12.5552 9.28502 12.5752 9.19502C12.5952 9.09502 12.6052 9.00502 12.6052 8.92502V4.53002C12.6052 4.46002 12.5952 4.38002 12.5752 4.29002C12.5552 4.20002 12.5202 4.11502 12.4702 4.03502C12.4302 3.95502 12.3802 3.89002 12.3202 3.84002C12.2602 3.78002 12.1952 3.75002 12.1252 3.75002V3.60002H14.0752V3.75002C13.9252 3.75002 13.8052 3.84502 13.7152 4.03502C13.6252 4.21502 13.5802 4.38002 13.5802 4.53002V6.33002H14.7652ZM14.6452 9.40502C15.3052 9.40502 15.7802 9.30002 16.0702 9.09002C16.3702 8.87002 16.5202 8.60002 16.5202 8.28002C16.5202 8.10002 16.4802 7.92502 16.4002 7.75502C16.3202 7.57502 16.1952 7.42002 16.0252 7.29002C15.8652 7.15002 15.6652 7.04002 15.4252 6.96002C15.1852 6.87002 14.9102 6.82502 14.6002 6.82502H13.5802V9.40502H14.6452ZM29.7703 3.49502C30.2703 3.49502 30.7203 3.58002 31.1203 3.75002C31.5303 3.91002 31.8753 4.13502 32.1553 4.42502C32.4453 4.70502 32.6653 5.04002 32.8153 5.43002C32.9653 5.82002 33.0403 6.24502 33.0403 6.70502C33.0403 7.19502 32.9553 7.64502 32.7853 8.05502C32.6153 8.45502 32.3803 8.80002 32.0803 9.09002C31.7803 9.38002 31.4253 9.60502 31.0153 9.76502C30.6053 9.92502 30.1603 10.005 29.6803 10.005C29.1703 10.005 28.7153 9.91002 28.3153 9.72002C27.9153 9.52002 27.5753 9.25002 27.2953 8.91002C27.0153 8.57002 26.8003 8.17002 26.6503 7.71002C26.5003 7.24002 26.4253 6.73502 26.4253 6.19502C26.4253 5.88502 26.4403 5.60002 26.4703 5.34002C26.5103 5.08002 26.5653 4.83002 26.6353 4.59002C26.7153 4.34002 26.8103 4.10002 26.9203 3.87002C27.0303 3.64002 27.1603 3.40002 27.3103 3.15002C27.7303 2.49002 28.2553 1.97002 28.8853 1.59002C29.5253 1.21002 30.1753 1.02002 30.8353 1.02002H32.7403L32.1553 1.98002H30.5953C30.2753 1.98002 29.9553 2.04002 29.6353 2.16002C29.3153 2.27002 29.0103 2.44002 28.7203 2.67002C28.4403 2.89002 28.1903 3.16002 27.9703 3.48002C27.7503 3.80002 27.5753 4.16502 27.4453 4.57502C27.7153 4.24502 28.0253 3.98502 28.3753 3.79502C28.7353 3.59502 29.2003 3.49502 29.7703 3.49502ZM29.8603 9.49502C30.2303 9.47502 30.5553 9.39002 30.8353 9.24002C31.1153 9.08002 31.3503 8.88002 31.5403 8.64002C31.7303 8.39002 31.8703 8.11502 31.9603 7.81502C32.0603 7.50502 32.1103 7.19002 32.1103 6.87002C32.1103 6.50002 32.0503 6.14502 31.9303 5.80502C31.8103 5.45502 31.6403 5.15002 31.4203 4.89002C31.2003 4.63002 30.9353 4.42002 30.6253 4.26002C30.3253 4.10002 29.9903 4.02002 29.6203 4.02002C29.2603 4.02002 28.9403 4.10002 28.6603 4.26002C28.3803 4.41002 28.1453 4.61002 27.9553 4.86002C27.7653 5.11002 27.6203 5.39502 27.5203 5.71502C27.4303 6.03502 27.3853 6.35502 27.3853 6.67502C27.3853 6.99502 27.4403 7.32502 27.5503 7.66502C27.6703 7.99502 27.8353 8.29502 28.0453 8.56502C28.2653 8.83502 28.5253 9.06002 28.8253 9.24002C29.1353 9.41002 29.4803 9.49502 29.8603 9.49502ZM37.2319 12.045C37.0919 12.465 36.9119 12.75 36.6919 12.9C36.4819 13.05 36.2619 13.125 36.0319 13.125C35.8819 13.125 35.7469 13.1 35.6269 13.05C35.5069 13 35.4019 12.945 35.3119 12.885C35.2219 12.825 35.1519 12.77 35.1019 12.72C35.0619 12.67 35.0419 12.645 35.0419 12.645L35.5369 11.43C35.5769 11.59 35.6269 11.725 35.6869 11.835C35.7369 11.935 35.8069 12.025 35.8969 12.105C35.9869 12.185 36.0969 12.225 36.2269 12.225C36.4669 12.225 36.6569 12.05 36.7969 11.7L37.5169 9.85502L35.1169 4.39502C35.0369 4.22502 34.9519 4.07502 34.8619 3.94502C34.7819 3.81502 34.6419 3.75002 34.4419 3.75002V3.60002H36.3769V3.75002C36.3369 3.75002 36.2869 3.78502 36.2269 3.85502C36.1669 3.92502 36.1369 4.01502 36.1369 4.12502C36.1369 4.20502 36.1569 4.28502 36.1969 4.36502L38.0419 8.61002L39.8119 4.27502C39.8419 4.20502 39.8569 4.14002 39.8569 4.08002C39.8569 3.98002 39.8219 3.90002 39.7519 3.84002C39.6919 3.78002 39.6269 3.75002 39.5569 3.75002V3.60002H41.0119V3.75002C40.8519 3.75002 40.7119 3.82002 40.5919 3.96002C40.4819 4.09002 40.3919 4.24002 40.3219 4.41002L37.2319 12.045ZM49.0614 9.40502V11.25H48.9114C48.8914 11.13 48.8564 10.99 48.8064 10.83C48.7564 10.68 48.6864 10.535 48.5964 10.395C48.5064 10.255 48.3964 10.135 48.2664 10.035C48.1464 9.94502 48.0064 9.90002 47.8464 9.90002H43.0764C42.9164 9.90002 42.7714 9.94502 42.6414 10.035C42.5114 10.135 42.3964 10.255 42.2964 10.395C42.2064 10.535 42.1314 10.68 42.0714 10.83C42.0214 10.99 41.9914 11.13 41.9814 11.25H41.8314V9.40502H42.4014C42.4614 9.40502 42.5164 9.38002 42.5664 9.33002C42.6264 9.28002 42.6814 9.22002 42.7314 9.15002C42.7914 9.08002 42.8464 9.00502 42.8964 8.92502C42.9464 8.83502 42.9914 8.75502 43.0314 8.68502C43.1814 8.34502 43.3614 7.94002 43.5714 7.47002C43.7914 7.00002 44.0114 6.51502 44.2314 6.01502C44.4614 5.51502 44.6814 5.03002 44.8914 4.56002C45.1014 4.08002 45.2814 3.67002 45.4314 3.33002L47.9664 8.86502C48.0464 9.03502 48.1214 9.17002 48.1914 9.27002C48.2614 9.36002 48.3564 9.40502 48.4764 9.40502H49.0614ZM43.2264 9.40502H47.1264L45.1764 5.13002L43.2264 9.40502ZM51.22 6.87002C51.26 7.22002 51.345 7.55502 51.475 7.87502C51.605 8.18502 51.775 8.46002 51.985 8.70002C52.205 8.94002 52.47 9.13502 52.78 9.28502C53.09 9.42502 53.45 9.49502 53.86 9.49502C54.08 9.49502 54.31 9.46502 54.55 9.40502C54.8 9.33502 55.03 9.24002 55.24 9.12002C55.45 9.00002 55.635 8.85502 55.795 8.68502C55.965 8.50502 56.08 8.30502 56.14 8.08502H56.275V9.21002C56.215 9.21002 56.145 9.23002 56.065 9.27002C55.995 9.31002 55.91 9.36002 55.81 9.42002C55.61 9.54002 55.34 9.67002 55 9.81002C54.66 9.94002 54.21 10.005 53.65 10.005C53.2 10.005 52.77 9.94002 52.36 9.81002C51.96 9.68002 51.605 9.48002 51.295 9.21002C50.985 8.94002 50.735 8.59502 50.545 8.17502C50.365 7.75502 50.275 7.25502 50.275 6.67502C50.275 6.30502 50.335 5.93002 50.455 5.55002C50.585 5.17002 50.775 4.83002 51.025 4.53002C51.285 4.22002 51.615 3.97002 52.015 3.78002C52.415 3.59002 52.895 3.49502 53.455 3.49502C53.955 3.49502 54.39 3.58002 54.76 3.75002C55.14 3.92002 55.45 4.15502 55.69 4.45502C55.94 4.75502 56.125 5.11002 56.245 5.52002C56.365 5.93002 56.425 6.38002 56.425 6.87002H51.22ZM53.395 3.99002C53.045 3.99002 52.74 4.06002 52.48 4.20002C52.23 4.34002 52.015 4.52002 51.835 4.74002C51.655 4.96002 51.515 5.21002 51.415 5.49002C51.315 5.77002 51.25 6.05002 51.22 6.33002H55.495C55.485 6.04002 55.43 5.75502 55.33 5.47502C55.24 5.19502 55.11 4.94502 54.94 4.72502C54.77 4.50502 54.555 4.33002 54.295 4.20002C54.035 4.06002 53.735 3.99002 53.395 3.99002ZM64.9952 8.92502C64.9952 9.00502 65.0052 9.09502 65.0252 9.19502C65.0452 9.28502 65.0752 9.37002 65.1152 9.45002C65.1652 9.53002 65.2202 9.60002 65.2802 9.66002C65.3402 9.72002 65.4102 9.75002 65.4902 9.75002V9.90002H63.5402V9.75002C63.6202 9.75002 63.6902 9.72502 63.7502 9.67502C63.8102 9.61502 63.8602 9.54502 63.9002 9.46502C63.9402 9.37502 63.9702 9.28502 63.9902 9.19502C64.0102 9.09502 64.0202 9.00502 64.0202 8.92502V4.87502L61.5152 10.035L59.1152 5.17502V8.92502C59.1152 9.00502 59.1252 9.09502 59.1452 9.19502C59.1652 9.28502 59.1952 9.37002 59.2352 9.45002C59.2752 9.53002 59.3252 9.60002 59.3852 9.66002C59.4452 9.72002 59.5152 9.75002 59.5952 9.75002V9.90002H58.1402V9.75002C58.2202 9.75002 58.2902 9.72002 58.3502 9.66002C58.4102 9.60002 58.4552 9.53002 58.4852 9.45002C58.5252 9.37002 58.5552 9.28502 58.5752 9.19502C58.5952 9.09502 58.6052 9.00502 58.6052 8.92502V4.53002C58.6052 4.35002 58.5802 4.17502 58.5302 4.00502C58.4902 3.83502 58.3602 3.75002 58.1402 3.75002V3.60002H59.4752L61.7702 8.29502L64.0652 3.60002H65.4902V3.75002C65.3402 3.75002 65.2202 3.84502 65.1302 4.03502C65.0402 4.21502 64.9952 4.38002 64.9952 4.53002V8.92502ZM74.9947 3.49502C75.4947 3.49502 75.9447 3.58002 76.3447 3.75002C76.7547 3.91002 77.0997 4.13502 77.3797 4.42502C77.6697 4.70502 77.8897 5.04002 78.0397 5.43002C78.1897 5.82002 78.2647 6.24502 78.2647 6.70502C78.2647 7.19502 78.1797 7.64502 78.0097 8.05502C77.8397 8.45502 77.6047 8.80002 77.3047 9.09002C77.0047 9.38002 76.6497 9.60502 76.2397 9.76502C75.8297 9.92502 75.3847 10.005 74.9047 10.005C74.3947 10.005 73.9397 9.91002 73.5397 9.72002C73.1397 9.52002 72.7997 9.25002 72.5197 8.91002C72.2397 8.57002 72.0247 8.17002 71.8747 7.71002C71.7247 7.24002 71.6497 6.73502 71.6497 6.19502C71.6497 5.88502 71.6647 5.60002 71.6947 5.34002C71.7347 5.08002 71.7897 4.83002 71.8597 4.59002C71.9397 4.34002 72.0347 4.10002 72.1447 3.87002C72.2547 3.64002 72.3847 3.40002 72.5347 3.15002C72.9547 2.49002 73.4797 1.97002 74.1097 1.59002C74.7497 1.21002 75.3997 1.02002 76.0597 1.02002H77.9647L77.3797 1.98002H75.8197C75.4997 1.98002 75.1797 2.04002 74.8597 2.16002C74.5397 2.27002 74.2347 2.44002 73.9447 2.67002C73.6647 2.89002 73.4147 3.16002 73.1947 3.48002C72.9747 3.80002 72.7997 4.16502 72.6697 4.57502C72.9397 4.24502 73.2497 3.98502 73.5997 3.79502C73.9597 3.59502 74.4247 3.49502 74.9947 3.49502ZM75.0847 9.49502C75.4547 9.47502 75.7797 9.39002 76.0597 9.24002C76.3397 9.08002 76.5747 8.88002 76.7647 8.64002C76.9547 8.39002 77.0947 8.11502 77.1847 7.81502C77.2847 7.50502 77.3347 7.19002 77.3347 6.87002C77.3347 6.50002 77.2747 6.14502 77.1547 5.80502C77.0347 5.45502 76.8647 5.15002 76.6447 4.89002C76.4247 4.63002 76.1597 4.42002 75.8497 4.26002C75.5497 4.10002 75.2147 4.02002 74.8447 4.02002C74.4847 4.02002 74.1647 4.10002 73.8847 4.26002C73.6047 4.41002 73.3697 4.61002 73.1797 4.86002C72.9897 5.11002 72.8447 5.39502 72.7447 5.71502C72.6547 6.03502 72.6097 6.35502 72.6097 6.67502C72.6097 6.99502 72.6647 7.32502 72.7747 7.66502C72.8947 7.99502 73.0597 8.29502 73.2697 8.56502C73.4897 8.83502 73.7497 9.06002 74.0497 9.24002C74.3597 9.41002 74.7047 9.49502 75.0847 9.49502ZM80.8813 6.87002C80.9213 7.22002 81.0063 7.55502 81.1363 7.87502C81.2663 8.18502 81.4363 8.46002 81.6463 8.70002C81.8663 8.94002 82.1313 9.13502 82.4413 9.28502C82.7513 9.42502 83.1113 9.49502 83.5213 9.49502C83.7413 9.49502 83.9713 9.46502 84.2113 9.40502C84.4613 9.33502 84.6913 9.24002 84.9013 9.12002C85.1113 9.00002 85.2963 8.85502 85.4563 8.68502C85.6263 8.50502 85.7413 8.30502 85.8013 8.08502H85.9363V9.21002C85.8763 9.21002 85.8063 9.23002 85.7263 9.27002C85.6563 9.31002 85.5713 9.36002 85.4713 9.42002C85.2713 9.54002 85.0013 9.67002 84.6613 9.81002C84.3213 9.94002 83.8713 10.005 83.3113 10.005C82.8613 10.005 82.4313 9.94002 82.0213 9.81002C81.6213 9.68002 81.2663 9.48002 80.9563 9.21002C80.6463 8.94002 80.3963 8.59502 80.2063 8.17502C80.0263 7.75502 79.9363 7.25502 79.9363 6.67502C79.9363 6.30502 79.9963 5.93002 80.1163 5.55002C80.2463 5.17002 80.4363 4.83002 80.6863 4.53002C80.9463 4.22002 81.2763 3.97002 81.6763 3.78002C82.0763 3.59002 82.5563 3.49502 83.1163 3.49502C83.6163 3.49502 84.0513 3.58002 84.4213 3.75002C84.8013 3.92002 85.1113 4.15502 85.3513 4.45502C85.6013 4.75502 85.7863 5.11002 85.9063 5.52002C86.0263 5.93002 86.0863 6.38002 86.0863 6.87002H80.8813ZM83.0563 3.99002C82.7063 3.99002 82.4013 4.06002 82.1413 4.20002C81.8913 4.34002 81.6763 4.52002 81.4963 4.74002C81.3163 4.96002 81.1763 5.21002 81.0763 5.49002C80.9763 5.77002 80.9113 6.05002 80.8813 6.33002H85.1563C85.1463 6.04002 85.0913 5.75502 84.9913 5.47502C84.9013 5.19502 84.7713 4.94502 84.6013 4.72502C84.4313 4.50502 84.2163 4.33002 83.9563 4.20002C83.6963 4.06002 83.3963 3.99002 83.0563 3.99002ZM91.8816 5.07002C91.8816 5.31002 91.7766 5.57002 91.5666 5.85002C91.3566 6.12002 91.0716 6.33502 90.7116 6.49502C91.2716 6.61502 91.6716 6.82502 91.9116 7.12502C92.1616 7.41502 92.2866 7.72502 92.2866 8.05502C92.2866 8.36502 92.2116 8.64002 92.0616 8.88002C91.9116 9.12002 91.7066 9.32002 91.4466 9.48002C91.1966 9.64002 90.9066 9.76002 90.5766 9.84002C90.2566 9.92002 89.9216 9.96002 89.5716 9.96002C89.2416 9.96002 88.9466 9.93002 88.6866 9.87002C88.4266 9.80002 88.2016 9.73002 88.0116 9.66002C87.8216 9.58002 87.6616 9.51002 87.5316 9.45002C87.4116 9.38002 87.3166 9.34502 87.2466 9.34502V8.13002H87.3816C87.4016 8.34002 87.4716 8.53002 87.5916 8.70002C87.7116 8.86002 87.8616 9.00002 88.0416 9.12002C88.2316 9.23002 88.4416 9.31502 88.6716 9.37502C88.9116 9.43502 89.1566 9.46502 89.4066 9.46502C89.6366 9.46502 89.8616 9.44002 90.0816 9.39002C90.3116 9.34002 90.5116 9.26502 90.6816 9.16502C90.8616 9.05502 91.0066 8.92002 91.1166 8.76002C91.2266 8.60002 91.2816 8.41502 91.2816 8.20502C91.2816 7.98502 91.2216 7.79002 91.1016 7.62002C90.9816 7.44002 90.8216 7.29002 90.6216 7.17002C90.4316 7.05002 90.2166 6.96002 89.9766 6.90002C89.7466 6.84002 89.5166 6.81002 89.2866 6.81002H88.8066V6.33002H89.3316C89.5416 6.33002 89.7416 6.29502 89.9316 6.22502C90.1316 6.15502 90.3016 6.06502 90.4416 5.95502C90.5816 5.84502 90.6916 5.72002 90.7716 5.58002C90.8616 5.43002 90.9066 5.28002 90.9066 5.13002C90.9066 4.95002 90.8566 4.79002 90.7566 4.65002C90.6666 4.51002 90.5416 4.39002 90.3816 4.29002C90.2216 4.19002 90.0416 4.11502 89.8416 4.06502C89.6516 4.00502 89.4516 3.97502 89.2416 3.97502C89.0516 3.97502 88.8666 4.00002 88.6866 4.05002C88.5066 4.09002 88.3416 4.16002 88.1916 4.26002C88.0516 4.36002 87.9316 4.48502 87.8316 4.63502C87.7416 4.78502 87.6816 4.96502 87.6516 5.17502H87.5166V4.00502C87.5966 4.00502 87.6716 3.99502 87.7416 3.97502C87.8116 3.94502 87.8916 3.90502 87.9816 3.85502C88.1416 3.77502 88.3366 3.70002 88.5666 3.63002C88.7966 3.55002 89.0866 3.51002 89.4366 3.51002C90.2166 3.51002 90.8166 3.65002 91.2366 3.93002C91.6666 4.21002 91.8816 4.59002 91.8816 5.07002ZM96.3495 12.045C96.2095 12.465 96.0295 12.75 95.8095 12.9C95.5995 13.05 95.3795 13.125 95.1495 13.125C94.9995 13.125 94.8645 13.1 94.7445 13.05C94.6245 13 94.5195 12.945 94.4295 12.885C94.3395 12.825 94.2695 12.77 94.2195 12.72C94.1795 12.67 94.1595 12.645 94.1595 12.645L94.6545 11.43C94.6945 11.59 94.7445 11.725 94.8045 11.835C94.8545 11.935 94.9245 12.025 95.0145 12.105C95.1045 12.185 95.2145 12.225 95.3445 12.225C95.5845 12.225 95.7745 12.05 95.9145 11.7L96.6345 9.85502L94.2345 4.39502C94.1545 4.22502 94.0695 4.07502 93.9795 3.94502C93.8995 3.81502 93.7595 3.75002 93.5595 3.75002V3.60002H95.4945V3.75002C95.4545 3.75002 95.4045 3.78502 95.3445 3.85502C95.2845 3.92502 95.2545 4.01502 95.2545 4.12502C95.2545 4.20502 95.2745 4.28502 95.3145 4.36502L97.1595 8.61002L98.9295 4.27502C98.9595 4.20502 98.9745 4.14002 98.9745 4.08002C98.9745 3.98002 98.9395 3.90002 98.8695 3.84002C98.8095 3.78002 98.7445 3.75002 98.6745 3.75002V3.60002H100.129V3.75002C99.9695 3.75002 99.8295 3.82002 99.7095 3.96002C99.5995 4.09002 99.5095 4.24002 99.4395 4.41002L96.3495 12.045ZM108.374 8.92502C108.374 9.00502 108.384 9.09502 108.404 9.19502C108.424 9.28502 108.454 9.37002 108.494 9.45002C108.544 9.53002 108.599 9.60002 108.659 9.66002C108.719 9.72002 108.789 9.75002 108.869 9.75002V9.90002H106.919V9.75002C106.999 9.75002 107.069 9.72502 107.129 9.67502C107.189 9.61502 107.239 9.54502 107.279 9.46502C107.319 9.37502 107.349 9.28502 107.369 9.19502C107.389 9.09502 107.399 9.00502 107.399 8.92502V4.87502L104.894 10.035L102.494 5.17502V8.92502C102.494 9.00502 102.504 9.09502 102.524 9.19502C102.544 9.28502 102.574 9.37002 102.614 9.45002C102.654 9.53002 102.704 9.60002 102.764 9.66002C102.824 9.72002 102.894 9.75002 102.974 9.75002V9.90002H101.519V9.75002C101.599 9.75002 101.669 9.72002 101.729 9.66002C101.789 9.60002 101.834 9.53002 101.864 9.45002C101.904 9.37002 101.934 9.28502 101.954 9.19502C101.974 9.09502 101.984 9.00502 101.984 8.92502V4.53002C101.984 4.35002 101.959 4.17502 101.909 4.00502C101.869 3.83502 101.739 3.75002 101.519 3.75002V3.60002H102.854L105.149 8.29502L107.444 3.60002H108.869V3.75002C108.719 3.75002 108.599 3.84502 108.509 4.03502C108.419 4.21502 108.374 4.38002 108.374 4.53002V8.92502ZM112.257 8.92502C112.257 9.00502 112.267 9.09502 112.287 9.19502C112.307 9.28502 112.337 9.37002 112.377 9.45002C112.417 9.53002 112.462 9.60002 112.512 9.66002C112.572 9.72002 112.637 9.75002 112.707 9.75002V9.90002H110.817V9.75002C110.887 9.75002 110.947 9.72502 110.997 9.67502C111.057 9.61502 111.107 9.54502 111.147 9.46502C111.187 9.37502 111.217 9.28502 111.237 9.19502C111.257 9.09502 111.267 9.00502 111.267 8.92502V4.53002C111.267 4.46002 111.257 4.38002 111.237 4.29002C111.217 4.20002 111.187 4.11502 111.147 4.03502C111.107 3.95502 111.057 3.89002 110.997 3.84002C110.947 3.78002 110.887 3.75002 110.817 3.75002V3.60002H112.707V3.75002C112.627 3.75002 112.557 3.78002 112.497 3.84002C112.447 3.89002 112.402 3.95502 112.362 4.03502C112.332 4.11502 112.307 4.20002 112.287 4.29002C112.267 4.38002 112.257 4.46002 112.257 4.53002V6.34502H115.677V4.53002C115.677 4.46002 115.667 4.38002 115.647 4.29002C115.627 4.20002 115.597 4.11502 115.557 4.03502C115.527 3.95502 115.482 3.89002 115.422 3.84002C115.372 3.78002 115.307 3.75002 115.227 3.75002V3.60002H117.117V3.75002C117.037 3.75002 116.967 3.78002 116.907 3.84002C116.857 3.89002 116.812 3.95502 116.772 4.03502C116.732 4.11502 116.702 4.20002 116.682 4.29002C116.672 4.38002 116.667 4.46002 116.667 4.53002V8.92502C116.667 9.00502 116.677 9.09502 116.697 9.19502C116.717 9.28502 116.747 9.37002 116.787 9.45002C116.827 9.53002 116.872 9.60002 116.922 9.66002C116.982 9.72002 117.047 9.75002 117.117 9.75002V9.90002H115.227V9.75002C115.297 9.75002 115.357 9.72502 115.407 9.67502C115.467 9.61502 115.517 9.54502 115.557 9.46502C115.597 9.37502 115.627 9.28502 115.647 9.19502C115.667 9.09502 115.677 9.00502 115.677 8.92502V6.84002H112.257V8.92502ZM122.165 10.005C121.665 10.005 121.215 9.92502 120.815 9.76502C120.415 9.59502 120.07 9.37002 119.78 9.09002C119.5 8.80002 119.28 8.46002 119.12 8.07002C118.97 7.68002 118.895 7.25502 118.895 6.79502C118.895 6.30502 118.98 5.86002 119.15 5.46002C119.32 5.05002 119.555 4.70002 119.855 4.41002C120.155 4.12002 120.51 3.89502 120.92 3.73502C121.33 3.57502 121.775 3.49502 122.255 3.49502C122.735 3.49502 123.175 3.57502 123.575 3.73502C123.975 3.88502 124.32 4.10002 124.61 4.38002C124.9 4.66002 125.125 4.99502 125.285 5.38502C125.445 5.76502 125.525 6.18502 125.525 6.64502C125.525 7.07502 125.45 7.49502 125.3 7.90502C125.16 8.30502 124.945 8.66002 124.655 8.97002C124.375 9.28002 124.025 9.53002 123.605 9.72002C123.195 9.91002 122.715 10.005 122.165 10.005ZM122.075 3.99002C121.715 4.01002 121.395 4.10002 121.115 4.26002C120.845 4.41002 120.615 4.61002 120.425 4.86002C120.245 5.10002 120.105 5.37502 120.005 5.68502C119.915 5.99502 119.87 6.31002 119.87 6.63002C119.87 7.00002 119.925 7.36002 120.035 7.71002C120.155 8.05002 120.32 8.35502 120.53 8.62502C120.75 8.89502 121.01 9.11002 121.31 9.27002C121.61 9.43002 121.945 9.51002 122.315 9.51002C122.685 9.51002 123.01 9.43002 123.29 9.27002C123.58 9.11002 123.82 8.90502 124.01 8.65502C124.2 8.39502 124.34 8.10502 124.43 7.78502C124.53 7.46502 124.58 7.14502 124.58 6.82502C124.58 6.49502 124.53 6.16502 124.43 5.83502C124.33 5.49502 124.175 5.19002 123.965 4.92002C123.755 4.64002 123.49 4.41502 123.17 4.24502C122.86 4.07502 122.495 3.99002 122.075 3.99002ZM134.858 3.49502C135.398 3.49502 135.863 3.59002 136.253 3.78002C136.653 3.96002 136.983 4.20002 137.243 4.50002C137.513 4.80002 137.713 5.14502 137.843 5.53502C137.973 5.92502 138.038 6.32502 138.038 6.73502C138.038 7.13502 137.973 7.53002 137.843 7.92002C137.723 8.31002 137.533 8.66002 137.273 8.97002C137.023 9.28002 136.708 9.53002 136.328 9.72002C135.948 9.91002 135.498 10.005 134.978 10.005C134.668 10.005 134.348 9.92502 134.018 9.76502C133.698 9.59502 133.408 9.38502 133.148 9.13502V12.225C133.148 12.305 133.158 12.39 133.178 12.48C133.198 12.58 133.228 12.67 133.268 12.75C133.318 12.83 133.368 12.9 133.418 12.96C133.478 13.02 133.548 13.05 133.628 13.05V13.2H131.678V13.05C131.748 13.05 131.813 13.02 131.873 12.96C131.933 12.9 131.983 12.83 132.023 12.75C132.073 12.67 132.108 12.58 132.128 12.48C132.148 12.39 132.158 12.305 132.158 12.225V4.48502C132.158 4.39502 132.153 4.31002 132.143 4.23002C132.143 4.14002 132.128 4.06502 132.098 4.00502C132.068 3.93502 132.018 3.88002 131.948 3.84002C131.888 3.79002 131.798 3.76002 131.678 3.75002V3.60002H133.148V4.26002C133.348 4.02002 133.588 3.83502 133.868 3.70502C134.158 3.56502 134.488 3.49502 134.858 3.49502ZM134.993 9.49502C135.343 9.48502 135.648 9.40502 135.908 9.25502C136.168 9.10502 136.383 8.91002 136.553 8.67002C136.723 8.43002 136.848 8.16502 136.928 7.87502C137.008 7.57502 137.048 7.26502 137.048 6.94502C137.048 6.58502 136.998 6.23002 136.898 5.88002C136.798 5.53002 136.653 5.22002 136.463 4.95002C136.273 4.67002 136.038 4.44502 135.758 4.27502C135.488 4.09502 135.178 4.00502 134.828 4.00502C134.618 4.00502 134.408 4.04502 134.198 4.12502C133.998 4.20502 133.818 4.32002 133.658 4.47002C133.508 4.62002 133.383 4.80002 133.283 5.01002C133.193 5.21002 133.148 5.43502 133.148 5.68502V7.65002C133.148 7.92002 133.203 8.17002 133.313 8.40002C133.423 8.62002 133.563 8.81502 133.733 8.98502C133.913 9.14502 134.113 9.27002 134.333 9.36002C134.553 9.45002 134.773 9.49502 134.993 9.49502ZM143.793 9.90002V9.13502L143.718 9.21002C143.468 9.46002 143.178 9.65502 142.848 9.79502C142.528 9.93502 142.138 10.005 141.678 10.005C141.328 10.005 141.028 9.96502 140.778 9.88502C140.528 9.80502 140.323 9.69502 140.163 9.55502C140.003 9.40502 139.883 9.23502 139.803 9.04502C139.733 8.85502 139.698 8.65502 139.698 8.44502C139.698 8.10502 139.788 7.80502 139.968 7.54502C140.158 7.28502 140.428 7.05502 140.778 6.85502C141.128 6.65502 141.553 6.47502 142.053 6.31502C142.563 6.14502 143.143 5.98002 143.793 5.82002C143.773 5.43002 143.693 5.11502 143.553 4.87502C143.413 4.63502 143.248 4.45002 143.058 4.32002C142.868 4.18002 142.668 4.09002 142.458 4.05002C142.248 4.00002 142.068 3.97502 141.918 3.97502C141.658 3.97502 141.428 4.01502 141.228 4.09502C141.028 4.16502 140.853 4.26502 140.703 4.39502C140.553 4.51502 140.428 4.65502 140.328 4.81502C140.238 4.97502 140.168 5.13502 140.118 5.29502H139.983V4.12502C140.073 4.12502 140.178 4.09502 140.298 4.03502C140.418 3.96502 140.558 3.89002 140.718 3.81002C140.888 3.73002 141.088 3.66002 141.318 3.60002C141.558 3.53002 141.843 3.49502 142.173 3.49502C142.723 3.49502 143.168 3.56502 143.508 3.70502C143.848 3.84502 144.108 4.03002 144.288 4.26002C144.478 4.49002 144.603 4.75502 144.663 5.05502C144.723 5.34502 144.753 5.64502 144.753 5.95502V8.92502C144.753 9.12502 144.803 9.31502 144.903 9.49502C145.003 9.66502 145.138 9.75002 145.308 9.75002V9.90002H143.793ZM143.793 8.47502V6.33002L143.643 6.36002C143.403 6.42002 143.108 6.50002 142.758 6.60002C142.418 6.70002 142.093 6.83002 141.783 6.99002C141.473 7.15002 141.208 7.34002 140.988 7.56002C140.768 7.78002 140.658 8.03502 140.658 8.32502C140.658 8.64502 140.788 8.91002 141.048 9.12002C141.308 9.33002 141.648 9.43502 142.068 9.43502C142.398 9.43502 142.688 9.36502 142.938 9.22502C143.188 9.07502 143.418 8.88502 143.628 8.65502L143.793 8.47502ZM153.814 9.40502V11.25H153.664C153.644 11.13 153.609 10.99 153.559 10.83C153.509 10.68 153.439 10.535 153.349 10.395C153.259 10.255 153.149 10.135 153.019 10.035C152.899 9.94502 152.759 9.90002 152.599 9.90002H147.829C147.669 9.90002 147.524 9.94502 147.394 10.035C147.264 10.135 147.149 10.255 147.049 10.395C146.959 10.535 146.884 10.68 146.824 10.83C146.774 10.99 146.744 11.13 146.734 11.25H146.584V9.40502H147.154C147.214 9.40502 147.269 9.38002 147.319 9.33002C147.379 9.28002 147.434 9.22002 147.484 9.15002C147.544 9.08002 147.599 9.00502 147.649 8.92502C147.699 8.83502 147.744 8.75502 147.784 8.68502C147.934 8.34502 148.114 7.94002 148.324 7.47002C148.544 7.00002 148.764 6.51502 148.984 6.01502C149.214 5.51502 149.434 5.03002 149.644 4.56002C149.854 4.08002 150.034 3.67002 150.184 3.33002L152.719 8.86502C152.799 9.03502 152.874 9.17002 152.944 9.27002C153.014 9.36002 153.109 9.40502 153.229 9.40502H153.814ZM147.979 9.40502H151.879L149.929 5.13002L147.979 9.40502ZM161.357 9.90002V9.75002C161.427 9.75002 161.492 9.72502 161.552 9.67502C161.612 9.61502 161.662 9.54502 161.702 9.46502C161.752 9.37502 161.787 9.28502 161.807 9.19502C161.827 9.09502 161.837 9.00502 161.837 8.92502V4.53002C161.837 4.46002 161.827 4.38002 161.807 4.29002C161.787 4.20002 161.752 4.11502 161.702 4.03502C161.662 3.95502 161.612 3.89002 161.552 3.84002C161.492 3.78002 161.427 3.75002 161.357 3.75002V3.60002H163.307V3.75002C163.157 3.75002 163.037 3.84502 162.947 4.03502C162.857 4.21502 162.812 4.38002 162.812 4.53002V8.92502C162.812 9.00502 162.822 9.09502 162.842 9.19502C162.862 9.28502 162.892 9.37002 162.932 9.45002C162.982 9.53002 163.037 9.60002 163.097 9.66002C163.157 9.72002 163.227 9.75002 163.307 9.75002V9.90002H161.357ZM157.817 6.33002C158.737 6.33002 159.417 6.50002 159.857 6.84002C160.307 7.18002 160.532 7.60002 160.532 8.10002C160.532 8.35002 160.472 8.58502 160.352 8.80502C160.242 9.02502 160.072 9.21502 159.842 9.37502C159.612 9.53502 159.322 9.66502 158.972 9.76502C158.622 9.85502 158.207 9.90002 157.727 9.90002H155.177V9.75002C155.247 9.75002 155.312 9.72502 155.372 9.67502C155.432 9.61502 155.482 9.54502 155.522 9.46502C155.572 9.37502 155.607 9.28502 155.627 9.19502C155.647 9.09502 155.657 9.00502 155.657 8.92502V4.53002C155.657 4.46002 155.647 4.38002 155.627 4.29002C155.607 4.20002 155.572 4.11502 155.522 4.03502C155.482 3.95502 155.432 3.89002 155.372 3.84002C155.312 3.78002 155.247 3.75002 155.177 3.75002V3.60002H157.127V3.75002C156.977 3.75002 156.857 3.84502 156.767 4.03502C156.677 4.21502 156.632 4.38002 156.632 4.53002V6.33002H157.817ZM157.697 9.40502C158.357 9.40502 158.832 9.30002 159.122 9.09002C159.422 8.87002 159.572 8.60002 159.572 8.28002C159.572 8.10002 159.532 7.92502 159.452 7.75502C159.372 7.57502 159.247 7.42002 159.077 7.29002C158.917 7.15002 158.717 7.04002 158.477 6.96002C158.237 6.87002 157.962 6.82502 157.652 6.82502H156.632V9.40502H157.697ZM174.667 5.10002C174.667 5.27002 174.632 5.43002 174.562 5.58002C174.492 5.73002 174.402 5.87002 174.292 6.00002C174.192 6.12002 174.072 6.23002 173.932 6.33002C173.792 6.42002 173.657 6.49002 173.527 6.54002C173.697 6.57002 173.872 6.62502 174.052 6.70502C174.242 6.78502 174.412 6.89002 174.562 7.02002C174.722 7.15002 174.852 7.31502 174.952 7.51502C175.052 7.70502 175.102 7.93502 175.102 8.20502C175.102 8.34502 175.067 8.51502 174.997 8.71502C174.937 8.90502 174.822 9.09002 174.652 9.27002C174.492 9.44002 174.267 9.59002 173.977 9.72002C173.697 9.84002 173.332 9.90002 172.882 9.90002H169.582V9.75002C169.662 9.75002 169.732 9.72002 169.792 9.66002C169.852 9.60002 169.902 9.53002 169.942 9.45002C169.992 9.37002 170.027 9.28502 170.047 9.19502C170.067 9.09502 170.077 9.00502 170.077 8.92502V4.54502C170.077 4.38502 170.032 4.21502 169.942 4.03502C169.862 3.84502 169.742 3.75002 169.582 3.75002V3.60002H172.642C173.002 3.60002 173.307 3.65002 173.557 3.75002C173.817 3.84002 174.027 3.96002 174.187 4.11002C174.357 4.25002 174.477 4.41002 174.547 4.59002C174.627 4.76002 174.667 4.93002 174.667 5.10002ZM171.052 6.34502H172.207C172.497 6.34502 172.737 6.31502 172.927 6.25502C173.127 6.18502 173.287 6.09502 173.407 5.98502C173.527 5.87502 173.612 5.75002 173.662 5.61002C173.722 5.47002 173.752 5.32502 173.752 5.17502C173.752 5.05502 173.717 4.93002 173.647 4.80002C173.577 4.67002 173.472 4.55502 173.332 4.45502C173.202 4.34502 173.042 4.25502 172.852 4.18502C172.662 4.11502 172.447 4.08002 172.207 4.08002H171.052V6.34502ZM172.522 9.42002C172.642 9.42002 172.792 9.41002 172.972 9.39002C173.162 9.36002 173.342 9.30502 173.512 9.22502C173.692 9.13502 173.842 9.01002 173.962 8.85002C174.092 8.68002 174.157 8.46002 174.157 8.19002C174.157 7.90002 174.072 7.66502 173.902 7.48502C173.732 7.30502 173.532 7.17002 173.302 7.08002C173.082 6.98002 172.852 6.91502 172.612 6.88502C172.372 6.85502 172.187 6.84002 172.057 6.84002H171.052V9.42002H172.522ZM182.873 8.92502C182.873 9.00502 182.883 9.09502 182.903 9.19502C182.933 9.28502 182.968 9.37002 183.008 9.45002C183.048 9.53002 183.098 9.60002 183.158 9.66002C183.228 9.72002 183.293 9.75002 183.353 9.75002V9.90002H181.433V9.75002C181.503 9.75002 181.568 9.72502 181.628 9.67502C181.688 9.61502 181.738 9.54502 181.778 9.46502C181.818 9.37502 181.848 9.28502 181.868 9.19502C181.888 9.09502 181.898 9.00502 181.898 8.92502V5.32502L178.328 8.82002V8.92502C178.328 9.00502 178.338 9.09502 178.358 9.19502C178.378 9.28502 178.408 9.37002 178.448 9.45002C178.488 9.53002 178.533 9.60002 178.583 9.66002C178.643 9.72002 178.708 9.75002 178.778 9.75002V9.90002H176.873V9.75002C176.943 9.75002 177.008 9.72502 177.068 9.67502C177.128 9.61502 177.178 9.54502 177.218 9.46502C177.258 9.37502 177.288 9.28502 177.308 9.19502C177.328 9.09502 177.338 9.00502 177.338 8.92502V4.53002C177.338 4.46002 177.328 4.38002 177.308 4.29002C177.288 4.20002 177.258 4.11502 177.218 4.03502C177.178 3.95502 177.128 3.89002 177.068 3.84002C177.008 3.78002 176.943 3.75002 176.873 3.75002V3.60002H178.778V3.75002C178.698 3.75002 178.628 3.78002 178.568 3.84002C178.518 3.89002 178.473 3.95502 178.433 4.03502C178.403 4.11502 178.378 4.20002 178.358 4.29002C178.338 4.38002 178.328 4.46002 178.328 4.53002V8.11502L181.898 4.62002V4.53002C181.898 4.46002 181.888 4.38002 181.868 4.29002C181.848 4.20002 181.818 4.11502 181.778 4.03502C181.738 3.95502 181.688 3.89002 181.628 3.84002C181.568 3.78002 181.503 3.75002 181.433 3.75002V3.60002H183.353V3.75002C183.273 3.75002 183.198 3.78002 183.128 3.84002C183.068 3.89002 183.018 3.95502 182.978 4.03502C182.948 4.11502 182.923 4.20002 182.903 4.29002C182.883 4.38002 182.873 4.46002 182.873 4.53002V8.92502ZM191.923 9.40502V11.25H191.773C191.753 11.13 191.718 10.99 191.668 10.83C191.618 10.68 191.548 10.535 191.458 10.395C191.368 10.255 191.258 10.135 191.128 10.035C191.008 9.94502 190.868 9.90002 190.708 9.90002H185.938C185.778 9.90002 185.633 9.94502 185.503 10.035C185.373 10.135 185.258 10.255 185.158 10.395C185.068 10.535 184.993 10.68 184.933 10.83C184.883 10.99 184.853 11.13 184.843 11.25H184.693V9.40502H185.263C185.323 9.40502 185.378 9.38002 185.428 9.33002C185.488 9.28002 185.543 9.22002 185.593 9.15002C185.653 9.08002 185.708 9.00502 185.758 8.92502C185.808 8.83502 185.853 8.75502 185.893 8.68502C186.043 8.34502 186.223 7.94002 186.433 7.47002C186.653 7.00002 186.873 6.51502 187.093 6.01502C187.323 5.51502 187.543 5.03002 187.753 4.56002C187.963 4.08002 188.143 3.67002 188.293 3.33002L190.828 8.86502C190.908 9.03502 190.983 9.17002 191.053 9.27002C191.123 9.36002 191.218 9.40502 191.338 9.40502H191.923ZM186.088 9.40502H189.988L188.038 5.13002L186.088 9.40502ZM194.081 6.87002C194.121 7.22002 194.206 7.55502 194.336 7.87502C194.466 8.18502 194.636 8.46002 194.846 8.70002C195.066 8.94002 195.331 9.13502 195.641 9.28502C195.951 9.42502 196.311 9.49502 196.721 9.49502C196.941 9.49502 197.171 9.46502 197.411 9.40502C197.661 9.33502 197.891 9.24002 198.101 9.12002C198.311 9.00002 198.496 8.85502 198.656 8.68502C198.826 8.50502 198.941 8.30502 199.001 8.08502H199.136V9.21002C199.076 9.21002 199.006 9.23002 198.926 9.27002C198.856 9.31002 198.771 9.36002 198.671 9.42002C198.471 9.54002 198.201 9.67002 197.861 9.81002C197.521 9.94002 197.071 10.005 196.511 10.005C196.061 10.005 195.631 9.94002 195.221 9.81002C194.821 9.68002 194.466 9.48002 194.156 9.21002C193.846 8.94002 193.596 8.59502 193.406 8.17502C193.226 7.75502 193.136 7.25502 193.136 6.67502C193.136 6.30502 193.196 5.93002 193.316 5.55002C193.446 5.17002 193.636 4.83002 193.886 4.53002C194.146 4.22002 194.476 3.97002 194.876 3.78002C195.276 3.59002 195.756 3.49502 196.316 3.49502C196.816 3.49502 197.251 3.58002 197.621 3.75002C198.001 3.92002 198.311 4.15502 198.551 4.45502C198.801 4.75502 198.986 5.11002 199.106 5.52002C199.226 5.93002 199.286 6.38002 199.286 6.87002H194.081ZM196.256 3.99002C195.906 3.99002 195.601 4.06002 195.341 4.20002C195.091 4.34002 194.876 4.52002 194.696 4.74002C194.516 4.96002 194.376 5.21002 194.276 5.49002C194.176 5.77002 194.111 6.05002 194.081 6.33002H198.356C198.346 6.04002 198.291 5.75502 198.191 5.47502C198.101 5.19502 197.971 4.94502 197.801 4.72502C197.631 4.50502 197.416 4.33002 197.156 4.20002C196.896 4.06002 196.596 3.99002 196.256 3.99002ZM206.057 5.17502C206.057 5.06502 206.037 4.94502 205.997 4.81502C205.957 4.68502 205.897 4.57002 205.817 4.47002C205.737 4.36002 205.637 4.27002 205.517 4.20002C205.397 4.13002 205.257 4.09502 205.097 4.09502H203.777V8.92502C203.777 9.00502 203.787 9.09002 203.807 9.18002C203.827 9.27002 203.857 9.36002 203.897 9.45002C203.947 9.53002 203.997 9.60002 204.047 9.66002C204.107 9.72002 204.177 9.75002 204.257 9.75002V9.90002H202.307V9.75002C202.387 9.75002 202.457 9.72002 202.517 9.66002C202.577 9.60002 202.627 9.53002 202.667 9.45002C202.717 9.37002 202.752 9.28502 202.772 9.19502C202.792 9.09502 202.802 9.00502 202.802 8.92502V4.09502H201.512C201.352 4.09502 201.212 4.13002 201.092 4.20002C200.972 4.27002 200.872 4.36002 200.792 4.47002C200.722 4.57002 200.667 4.68502 200.627 4.81502C200.587 4.94502 200.567 5.06502 200.567 5.17502H200.417V3.60002H206.192V5.17502H206.057ZM210.141 6.33002C210.601 6.33002 211.001 6.37502 211.341 6.46502C211.691 6.55502 211.976 6.68002 212.196 6.84002C212.426 7.00002 212.596 7.19002 212.706 7.41002C212.816 7.62002 212.871 7.85002 212.871 8.10002C212.871 8.35002 212.816 8.58502 212.706 8.80502C212.596 9.02502 212.421 9.21502 212.181 9.37502C211.951 9.53502 211.661 9.66502 211.311 9.76502C210.961 9.85502 210.546 9.90002 210.066 9.90002H207.501V9.75002C207.581 9.75002 207.651 9.72502 207.711 9.67502C207.771 9.61502 207.821 9.54502 207.861 9.46502C207.911 9.37502 207.946 9.28502 207.966 9.19502C207.986 9.09502 207.996 9.00502 207.996 8.92502V4.53002C207.996 4.46002 207.986 4.38002 207.966 4.29002C207.946 4.20002 207.911 4.11502 207.861 4.03502C207.821 3.95502 207.771 3.89002 207.711 3.84002C207.651 3.78002 207.581 3.75002 207.501 3.75002V3.60002H209.466V3.75002C209.316 3.75002 209.196 3.84502 209.106 4.03502C209.016 4.21502 208.971 4.38002 208.971 4.53002V6.33002H210.141ZM210.036 9.40502C210.696 9.40502 211.171 9.30002 211.461 9.09002C211.761 8.87002 211.911 8.60002 211.911 8.28002C211.911 8.10002 211.871 7.92502 211.791 7.75502C211.711 7.57502 211.586 7.42002 211.416 7.29002C211.256 7.15002 211.056 7.04002 210.816 6.96002C210.576 6.87002 210.301 6.82502 209.991 6.82502H208.971V9.40502H210.036ZM224.062 5.10002C224.062 5.27002 224.027 5.43002 223.957 5.58002C223.887 5.73002 223.797 5.87002 223.687 6.00002C223.587 6.12002 223.467 6.23002 223.327 6.33002C223.187 6.42002 223.052 6.49002 222.922 6.54002C223.092 6.57002 223.267 6.62502 223.447 6.70502C223.637 6.78502 223.807 6.89002 223.957 7.02002C224.117 7.15002 224.247 7.31502 224.347 7.51502C224.447 7.70502 224.497 7.93502 224.497 8.20502C224.497 8.34502 224.462 8.51502 224.392 8.71502C224.332 8.90502 224.217 9.09002 224.047 9.27002C223.887 9.44002 223.662 9.59002 223.372 9.72002C223.092 9.84002 222.727 9.90002 222.277 9.90002H218.977V9.75002C219.057 9.75002 219.127 9.72002 219.187 9.66002C219.247 9.60002 219.297 9.53002 219.337 9.45002C219.387 9.37002 219.422 9.28502 219.442 9.19502C219.462 9.09502 219.472 9.00502 219.472 8.92502V4.54502C219.472 4.38502 219.427 4.21502 219.337 4.03502C219.257 3.84502 219.137 3.75002 218.977 3.75002V3.60002H222.037C222.397 3.60002 222.702 3.65002 222.952 3.75002C223.212 3.84002 223.422 3.96002 223.582 4.11002C223.752 4.25002 223.872 4.41002 223.942 4.59002C224.022 4.76002 224.062 4.93002 224.062 5.10002ZM220.447 6.34502H221.602C221.892 6.34502 222.132 6.31502 222.322 6.25502C222.522 6.18502 222.682 6.09502 222.802 5.98502C222.922 5.87502 223.007 5.75002 223.057 5.61002C223.117 5.47002 223.147 5.32502 223.147 5.17502C223.147 5.05502 223.112 4.93002 223.042 4.80002C222.972 4.67002 222.867 4.55502 222.727 4.45502C222.597 4.34502 222.437 4.25502 222.247 4.18502C222.057 4.11502 221.842 4.08002 221.602 4.08002H220.447V6.34502ZM221.917 9.42002C222.037 9.42002 222.187 9.41002 222.367 9.39002C222.557 9.36002 222.737 9.30502 222.907 9.22502C223.087 9.13502 223.237 9.01002 223.357 8.85002C223.487 8.68002 223.552 8.46002 223.552 8.19002C223.552 7.90002 223.467 7.66502 223.297 7.48502C223.127 7.30502 222.927 7.17002 222.697 7.08002C222.477 6.98002 222.247 6.91502 222.007 6.88502C221.767 6.85502 221.582 6.84002 221.452 6.84002H220.447V9.42002H221.917ZM230.214 9.90002V9.13502L230.139 9.21002C229.889 9.46002 229.599 9.65502 229.269 9.79502C228.949 9.93502 228.559 10.005 228.099 10.005C227.749 10.005 227.449 9.96502 227.199 9.88502C226.949 9.80502 226.744 9.69502 226.584 9.55502C226.424 9.40502 226.304 9.23502 226.224 9.04502C226.154 8.85502 226.119 8.65502 226.119 8.44502C226.119 8.10502 226.209 7.80502 226.389 7.54502C226.579 7.28502 226.849 7.05502 227.199 6.85502C227.549 6.65502 227.974 6.47502 228.474 6.31502C228.984 6.14502 229.564 5.98002 230.214 5.82002C230.194 5.43002 230.114 5.11502 229.974 4.87502C229.834 4.63502 229.669 4.45002 229.479 4.32002C229.289 4.18002 229.089 4.09002 228.879 4.05002C228.669 4.00002 228.489 3.97502 228.339 3.97502C228.079 3.97502 227.849 4.01502 227.649 4.09502C227.449 4.16502 227.274 4.26502 227.124 4.39502C226.974 4.51502 226.849 4.65502 226.749 4.81502C226.659 4.97502 226.589 5.13502 226.539 5.29502H226.404V4.12502C226.494 4.12502 226.599 4.09502 226.719 4.03502C226.839 3.96502 226.979 3.89002 227.139 3.81002C227.309 3.73002 227.509 3.66002 227.739 3.60002C227.979 3.53002 228.264 3.49502 228.594 3.49502C229.144 3.49502 229.589 3.56502 229.929 3.70502C230.269 3.84502 230.529 4.03002 230.709 4.26002C230.899 4.49002 231.024 4.75502 231.084 5.05502C231.144 5.34502 231.174 5.64502 231.174 5.95502V8.92502C231.174 9.12502 231.224 9.31502 231.324 9.49502C231.424 9.66502 231.559 9.75002 231.729 9.75002V9.90002H230.214ZM230.214 8.47502V6.33002L230.064 6.36002C229.824 6.42002 229.529 6.50002 229.179 6.60002C228.839 6.70002 228.514 6.83002 228.204 6.99002C227.894 7.15002 227.629 7.34002 227.409 7.56002C227.189 7.78002 227.079 8.03502 227.079 8.32502C227.079 8.64502 227.209 8.91002 227.469 9.12002C227.729 9.33002 228.069 9.43502 228.489 9.43502C228.819 9.43502 229.109 9.36502 229.359 9.22502C229.609 9.07502 229.839 8.88502 230.049 8.65502L230.214 8.47502ZM239.094 9.36002C239.014 9.36002 238.939 9.38002 238.869 9.42002C238.799 9.45002 238.719 9.49002 238.629 9.54002C238.459 9.64002 238.234 9.74502 237.954 9.85502C237.674 9.95502 237.324 10.005 236.904 10.005C236.394 10.005 235.924 9.92502 235.494 9.76502C235.074 9.59502 234.709 9.36502 234.399 9.07502C234.089 8.77502 233.849 8.43002 233.679 8.04002C233.509 7.64002 233.424 7.21002 233.424 6.75002C233.424 6.32002 233.499 5.91002 233.649 5.52002C233.809 5.13002 234.034 4.78502 234.324 4.48502C234.614 4.18502 234.969 3.94502 235.389 3.76502C235.819 3.58502 236.304 3.49502 236.844 3.49502C237.214 3.49502 237.514 3.54002 237.744 3.63002C237.974 3.71002 238.169 3.79002 238.329 3.87002C238.419 3.92002 238.504 3.96002 238.584 3.99002C238.674 4.02002 238.764 4.03502 238.854 4.03502V5.17502H238.704C238.654 4.98502 238.564 4.82002 238.434 4.68002C238.304 4.53002 238.154 4.40502 237.984 4.30502C237.814 4.20502 237.629 4.13002 237.429 4.08002C237.229 4.03002 237.034 4.00502 236.844 4.00502C236.434 4.00502 236.074 4.08002 235.764 4.23002C235.454 4.37002 235.199 4.56002 234.999 4.80002C234.799 5.03002 234.649 5.29502 234.549 5.59502C234.449 5.89502 234.399 6.20502 234.399 6.52502C234.399 6.89502 234.454 7.26002 234.564 7.62002C234.684 7.97002 234.849 8.28502 235.059 8.56502C235.279 8.84502 235.544 9.07002 235.854 9.24002C236.174 9.41002 236.534 9.49502 236.934 9.49502C237.214 9.49502 237.474 9.45502 237.714 9.37502C237.954 9.29502 238.159 9.19002 238.329 9.06002C238.509 8.93002 238.649 8.79002 238.749 8.64002C238.859 8.48002 238.924 8.33002 238.944 8.19002H239.094V9.36002ZM52.1548 20.1C52.1548 20.27 52.1198 20.43 52.0498 20.58C51.9798 20.73 51.8898 20.87 51.7798 21C51.6798 21.12 51.5598 21.23 51.4198 21.33C51.2798 21.42 51.1448 21.49 51.0148 21.54C51.1848 21.57 51.3598 21.625 51.5398 21.705C51.7298 21.785 51.8998 21.89 52.0498 22.02C52.2098 22.15 52.3398 22.315 52.4398 22.515C52.5398 22.705 52.5898 22.935 52.5898 23.205C52.5898 23.345 52.5548 23.515 52.4848 23.715C52.4248 23.905 52.3098 24.09 52.1398 24.27C51.9798 24.44 51.7548 24.59 51.4648 24.72C51.1848 24.84 50.8198 24.9 50.3698 24.9H47.0698V24.75C47.1498 24.75 47.2198 24.72 47.2798 24.66C47.3398 24.6 47.3898 24.53 47.4298 24.45C47.4798 24.37 47.5148 24.285 47.5348 24.195C47.5548 24.095 47.5648 24.005 47.5648 23.925V19.545C47.5648 19.385 47.5198 19.215 47.4298 19.035C47.3498 18.845 47.2298 18.75 47.0698 18.75V18.6H50.1298C50.4898 18.6 50.7948 18.65 51.0448 18.75C51.3048 18.84 51.5148 18.96 51.6748 19.11C51.8448 19.25 51.9648 19.41 52.0348 19.59C52.1148 19.76 52.1548 19.93 52.1548 20.1ZM48.5398 21.345H49.6948C49.9848 21.345 50.2248 21.315 50.4148 21.255C50.6148 21.185 50.7748 21.095 50.8948 20.985C51.0148 20.875 51.0998 20.75 51.1498 20.61C51.2098 20.47 51.2398 20.325 51.2398 20.175C51.2398 20.055 51.2048 19.93 51.1348 19.8C51.0648 19.67 50.9598 19.555 50.8198 19.455C50.6898 19.345 50.5298 19.255 50.3398 19.185C50.1498 19.115 49.9348 19.08 49.6948 19.08H48.5398V21.345ZM50.0098 24.42C50.1298 24.42 50.2798 24.41 50.4598 24.39C50.6498 24.36 50.8298 24.305 50.9998 24.225C51.1798 24.135 51.3298 24.01 51.4498 23.85C51.5798 23.68 51.6448 23.46 51.6448 23.19C51.6448 22.9 51.5598 22.665 51.3898 22.485C51.2198 22.305 51.0198 22.17 50.7898 22.08C50.5698 21.98 50.3398 21.915 50.0998 21.885C49.8598 21.855 49.6748 21.84 49.5448 21.84H48.5398V24.42H50.0098ZM63.2374 23.73C63.2974 23.84 63.3774 23.955 63.4774 24.075C63.5774 24.195 63.6874 24.305 63.8074 24.405C63.9374 24.505 64.0674 24.59 64.1974 24.66C64.3274 24.72 64.4524 24.75 64.5724 24.75V24.9H64.0024C63.5424 24.9 63.1874 24.805 62.9374 24.615C62.6874 24.425 62.4924 24.2 62.3524 23.94L61.6474 22.605C61.5374 22.395 61.3524 22.215 61.0924 22.065C60.8324 21.905 60.5574 21.825 60.2674 21.825V23.955C60.2674 24.035 60.2724 24.12 60.2824 24.21C60.3024 24.3 60.3324 24.385 60.3724 24.465C60.4124 24.545 60.4624 24.615 60.5224 24.675C60.5824 24.725 60.6524 24.75 60.7324 24.75V24.9H58.7974V24.75C58.8674 24.75 58.9324 24.725 58.9924 24.675C59.0624 24.615 59.1174 24.545 59.1574 24.465C59.1974 24.385 59.2274 24.3 59.2474 24.21C59.2674 24.12 59.2774 24.035 59.2774 23.955V19.545C59.2774 19.475 59.2674 19.395 59.2474 19.305C59.2274 19.205 59.1974 19.115 59.1574 19.035C59.1274 18.955 59.0824 18.89 59.0224 18.84C58.9624 18.78 58.8874 18.75 58.7974 18.75V18.6H60.7174V18.75C60.6474 18.75 60.5824 18.78 60.5224 18.84C60.4724 18.89 60.4274 18.955 60.3874 19.035C60.3474 19.115 60.3174 19.205 60.2974 19.305C60.2774 19.395 60.2674 19.475 60.2674 19.545V21.09C60.6974 20.71 61.1224 20.345 61.5424 19.995C61.9624 19.635 62.3874 19.265 62.8174 18.885C62.8174 18.875 62.8224 18.865 62.8324 18.855C62.8424 18.845 62.8474 18.835 62.8474 18.825C62.8474 18.775 62.8224 18.75 62.7724 18.75V18.6H64.0774V18.75C64.0274 18.75 63.9674 18.765 63.8974 18.795C63.8274 18.825 63.7574 18.86 63.6874 18.9C63.6074 18.94 63.5274 18.99 63.4474 19.05C62.9974 19.43 62.5474 19.82 62.0974 20.22C61.6474 20.61 61.1974 20.995 60.7474 21.375C61.1774 21.375 61.5274 21.455 61.7974 21.615C62.0774 21.775 62.3124 22.03 62.5024 22.38L63.2374 23.73ZM69.105 18.495C69.645 18.495 70.11 18.59 70.5 18.78C70.9 18.96 71.23 19.2 71.49 19.5C71.76 19.8 71.96 20.145 72.09 20.535C72.22 20.925 72.285 21.325 72.285 21.735C72.285 22.135 72.22 22.53 72.09 22.92C71.97 23.31 71.78 23.66 71.52 23.97C71.27 24.28 70.955 24.53 70.575 24.72C70.195 24.91 69.745 25.005 69.225 25.005C68.915 25.005 68.595 24.925 68.265 24.765C67.945 24.595 67.655 24.385 67.395 24.135V27.225C67.395 27.305 67.405 27.39 67.425 27.48C67.445 27.58 67.475 27.67 67.515 27.75C67.565 27.83 67.615 27.9 67.665 27.96C67.725 28.02 67.795 28.05 67.875 28.05V28.2H65.925V28.05C65.995 28.05 66.06 28.02 66.12 27.96C66.18 27.9 66.23 27.83 66.27 27.75C66.32 27.67 66.355 27.58 66.375 27.48C66.395 27.39 66.405 27.305 66.405 27.225V19.485C66.405 19.395 66.4 19.31 66.39 19.23C66.39 19.14 66.375 19.065 66.345 19.005C66.315 18.935 66.265 18.88 66.195 18.84C66.135 18.79 66.045 18.76 65.925 18.75V18.6H67.395V19.26C67.595 19.02 67.835 18.835 68.115 18.705C68.405 18.565 68.735 18.495 69.105 18.495ZM69.24 24.495C69.59 24.485 69.895 24.405 70.155 24.255C70.415 24.105 70.63 23.91 70.8 23.67C70.97 23.43 71.095 23.165 71.175 22.875C71.255 22.575 71.295 22.265 71.295 21.945C71.295 21.585 71.245 21.23 71.145 20.88C71.045 20.53 70.9 20.22 70.71 19.95C70.52 19.67 70.285 19.445 70.005 19.275C69.735 19.095 69.425 19.005 69.075 19.005C68.865 19.005 68.655 19.045 68.445 19.125C68.245 19.205 68.065 19.32 67.905 19.47C67.755 19.62 67.63 19.8 67.53 20.01C67.44 20.21 67.395 20.435 67.395 20.685V22.65C67.395 22.92 67.45 23.17 67.56 23.4C67.67 23.62 67.81 23.815 67.98 23.985C68.16 24.145 68.36 24.27 68.58 24.36C68.8 24.45 69.02 24.495 69.24 24.495ZM76.4797 27.045C76.3397 27.465 76.1597 27.75 75.9397 27.9C75.7297 28.05 75.5097 28.125 75.2797 28.125C75.1297 28.125 74.9947 28.1 74.8747 28.05C74.7547 28 74.6497 27.945 74.5597 27.885C74.4697 27.825 74.3997 27.77 74.3497 27.72C74.3097 27.67 74.2897 27.645 74.2897 27.645L74.7847 26.43C74.8247 26.59 74.8747 26.725 74.9347 26.835C74.9847 26.935 75.0547 27.025 75.1447 27.105C75.2347 27.185 75.3447 27.225 75.4747 27.225C75.7147 27.225 75.9047 27.05 76.0447 26.7L76.7647 24.855L74.3647 19.395C74.2847 19.225 74.1997 19.075 74.1097 18.945C74.0297 18.815 73.8897 18.75 73.6897 18.75V18.6H75.6247V18.75C75.5847 18.75 75.5347 18.785 75.4747 18.855C75.4147 18.925 75.3847 19.015 75.3847 19.125C75.3847 19.205 75.4047 19.285 75.4447 19.365L77.2897 23.61L79.0597 19.275C79.0897 19.205 79.1047 19.14 79.1047 19.08C79.1047 18.98 79.0697 18.9 78.9997 18.84C78.9397 18.78 78.8747 18.75 78.8047 18.75V18.6H80.2597V18.75C80.0997 18.75 79.9597 18.82 79.8397 18.96C79.7297 19.09 79.6397 19.24 79.5697 19.41L76.4797 27.045ZM86.2842 18.6V20.16H86.1342C86.1342 20.05 86.1092 19.935 86.0592 19.815C86.0192 19.685 85.9542 19.57 85.8642 19.47C85.7742 19.36 85.6642 19.27 85.5342 19.2C85.4142 19.13 85.2742 19.095 85.1142 19.095H83.1192V23.955C83.1192 24.035 83.1292 24.12 83.1492 24.21C83.1792 24.3 83.2142 24.385 83.2542 24.465C83.3042 24.545 83.3592 24.615 83.4192 24.675C83.4792 24.725 83.5492 24.75 83.6292 24.75V24.9H81.6342V24.75C81.7142 24.75 81.7842 24.725 81.8442 24.675C81.9042 24.615 81.9542 24.545 81.9942 24.465C82.0442 24.385 82.0792 24.3 82.0992 24.21C82.1192 24.12 82.1292 24.035 82.1292 23.955V19.53C82.1292 19.46 82.1192 19.38 82.0992 19.29C82.0792 19.2 82.0442 19.115 81.9942 19.035C81.9542 18.955 81.9042 18.89 81.8442 18.84C81.7842 18.78 81.7142 18.75 81.6342 18.75V18.6H86.2842ZM89.9774 27.045C89.8374 27.465 89.6574 27.75 89.4374 27.9C89.2274 28.05 89.0074 28.125 88.7774 28.125C88.6274 28.125 88.4924 28.1 88.3724 28.05C88.2524 28 88.1474 27.945 88.0574 27.885C87.9674 27.825 87.8974 27.77 87.8474 27.72C87.8074 27.67 87.7874 27.645 87.7874 27.645L88.2824 26.43C88.3224 26.59 88.3724 26.725 88.4324 26.835C88.4824 26.935 88.5524 27.025 88.6424 27.105C88.7324 27.185 88.8424 27.225 88.9724 27.225C89.2124 27.225 89.4024 27.05 89.5424 26.7L90.2624 24.855L87.8624 19.395C87.7824 19.225 87.6974 19.075 87.6074 18.945C87.5274 18.815 87.3874 18.75 87.1874 18.75V18.6H89.1224V18.75C89.0824 18.75 89.0324 18.785 88.9724 18.855C88.9124 18.925 88.8824 19.015 88.8824 19.125C88.8824 19.205 88.9024 19.285 88.9424 19.365L90.7874 23.61L92.5574 19.275C92.5874 19.205 92.6024 19.14 92.6024 19.08C92.6024 18.98 92.5674 18.9 92.4974 18.84C92.4374 18.78 92.3724 18.75 92.3024 18.75V18.6H93.7574V18.75C93.5974 18.75 93.4574 18.82 93.3374 18.96C93.2274 19.09 93.1374 19.24 93.0674 19.41L89.9774 27.045ZM100.948 23.925C100.948 24.005 100.958 24.095 100.978 24.195C100.998 24.285 101.028 24.37 101.068 24.45C101.108 24.53 101.153 24.6 101.203 24.66C101.263 24.72 101.328 24.75 101.398 24.75V24.9H99.5084V24.75C99.5784 24.75 99.6384 24.725 99.6884 24.675C99.7484 24.615 99.7984 24.545 99.8384 24.465C99.8784 24.375 99.9084 24.285 99.9284 24.195C99.9484 24.095 99.9584 24.005 99.9584 23.925V19.53C99.9584 19.46 99.9484 19.38 99.9284 19.29C99.9084 19.2 99.8784 19.115 99.8384 19.035C99.7984 18.955 99.7484 18.89 99.6884 18.84C99.6384 18.78 99.5784 18.75 99.5084 18.75V18.6H101.398V18.75C101.318 18.75 101.248 18.78 101.188 18.84C101.138 18.89 101.093 18.955 101.053 19.035C101.023 19.115 100.998 19.2 100.978 19.29C100.958 19.38 100.948 19.46 100.948 19.53V21.345H104.368V19.53C104.368 19.46 104.358 19.38 104.338 19.29C104.318 19.2 104.288 19.115 104.248 19.035C104.218 18.955 104.173 18.89 104.113 18.84C104.063 18.78 103.998 18.75 103.918 18.75V18.6H105.808V18.75C105.728 18.75 105.658 18.78 105.598 18.84C105.548 18.89 105.503 18.955 105.463 19.035C105.423 19.115 105.393 19.2 105.373 19.29C105.363 19.38 105.358 19.46 105.358 19.53V23.925C105.358 24.005 105.368 24.095 105.388 24.195C105.408 24.285 105.438 24.37 105.478 24.45C105.518 24.53 105.563 24.6 105.613 24.66C105.673 24.72 105.738 24.75 105.808 24.75V24.9H103.918V24.75C103.988 24.75 104.048 24.725 104.098 24.675C104.158 24.615 104.208 24.545 104.248 24.465C104.288 24.375 104.318 24.285 104.338 24.195C104.358 24.095 104.368 24.005 104.368 23.925V21.84H100.948V23.925ZM111.667 24.9V24.135L111.592 24.21C111.342 24.46 111.052 24.655 110.722 24.795C110.402 24.935 110.012 25.005 109.552 25.005C109.202 25.005 108.902 24.965 108.652 24.885C108.402 24.805 108.197 24.695 108.037 24.555C107.877 24.405 107.757 24.235 107.677 24.045C107.607 23.855 107.572 23.655 107.572 23.445C107.572 23.105 107.662 22.805 107.842 22.545C108.032 22.285 108.302 22.055 108.652 21.855C109.002 21.655 109.427 21.475 109.927 21.315C110.437 21.145 111.017 20.98 111.667 20.82C111.647 20.43 111.567 20.115 111.427 19.875C111.287 19.635 111.122 19.45 110.932 19.32C110.742 19.18 110.542 19.09 110.332 19.05C110.122 19 109.942 18.975 109.792 18.975C109.532 18.975 109.302 19.015 109.102 19.095C108.902 19.165 108.727 19.265 108.577 19.395C108.427 19.515 108.302 19.655 108.202 19.815C108.112 19.975 108.042 20.135 107.992 20.295H107.857V19.125C107.947 19.125 108.052 19.095 108.172 19.035C108.292 18.965 108.432 18.89 108.592 18.81C108.762 18.73 108.962 18.66 109.192 18.6C109.432 18.53 109.717 18.495 110.047 18.495C110.597 18.495 111.042 18.565 111.382 18.705C111.722 18.845 111.982 19.03 112.162 19.26C112.352 19.49 112.477 19.755 112.537 20.055C112.597 20.345 112.627 20.645 112.627 20.955V23.925C112.627 24.125 112.677 24.315 112.777 24.495C112.877 24.665 113.012 24.75 113.182 24.75V24.9H111.667ZM111.667 23.475V21.33L111.517 21.36C111.277 21.42 110.982 21.5 110.632 21.6C110.292 21.7 109.967 21.83 109.657 21.99C109.347 22.15 109.082 22.34 108.862 22.56C108.642 22.78 108.532 23.035 108.532 23.325C108.532 23.645 108.662 23.91 108.922 24.12C109.182 24.33 109.522 24.435 109.942 24.435C110.272 24.435 110.562 24.365 110.812 24.225C111.062 24.075 111.292 23.885 111.502 23.655L111.667 23.475ZM116.422 24.405H119.137V19.575C119.137 19.505 119.127 19.42 119.107 19.32C119.087 19.22 119.057 19.13 119.017 19.05C118.987 18.97 118.942 18.9 118.882 18.84C118.822 18.78 118.757 18.75 118.687 18.75V18.6H120.547V18.75C120.467 18.75 120.397 18.78 120.337 18.84C120.287 18.89 120.242 18.955 120.202 19.035C120.172 19.115 120.147 19.2 120.127 19.29C120.107 19.37 120.097 19.44 120.097 19.5V24.405H122.827V19.575C122.827 19.505 122.817 19.42 122.797 19.32C122.787 19.22 122.762 19.13 122.722 19.05C122.692 18.97 122.647 18.9 122.587 18.84C122.527 18.78 122.452 18.75 122.362 18.75V18.6H124.252V18.75C124.172 18.75 124.102 18.78 124.042 18.84C123.992 18.9 123.947 18.97 123.907 19.05C123.867 19.13 123.837 19.22 123.817 19.32C123.807 19.42 123.802 19.505 123.802 19.575V23.97C123.802 24.04 123.812 24.12 123.832 24.21C123.852 24.3 123.877 24.385 123.907 24.465C123.947 24.545 123.992 24.615 124.042 24.675C124.102 24.725 124.167 24.75 124.237 24.75V24.9H115.012V24.75C115.082 24.75 115.142 24.725 115.192 24.675C115.242 24.615 115.287 24.545 115.327 24.465C115.367 24.385 115.397 24.3 115.417 24.21C115.437 24.12 115.447 24.04 115.447 23.97V19.575C115.447 19.505 115.437 19.42 115.417 19.32C115.407 19.22 115.382 19.13 115.342 19.05C115.312 18.97 115.267 18.9 115.207 18.84C115.157 18.78 115.092 18.75 115.012 18.75V18.6H116.872V18.75C116.792 18.75 116.722 18.78 116.662 18.84C116.602 18.9 116.552 18.97 116.512 19.05C116.482 19.13 116.457 19.22 116.437 19.32C116.427 19.42 116.422 19.505 116.422 19.575V24.405ZM132.083 23.925C132.083 24.005 132.093 24.095 132.113 24.195C132.143 24.285 132.178 24.37 132.218 24.45C132.258 24.53 132.308 24.6 132.368 24.66C132.438 24.72 132.503 24.75 132.563 24.75V24.9H130.643V24.75C130.713 24.75 130.778 24.725 130.838 24.675C130.898 24.615 130.948 24.545 130.988 24.465C131.028 24.375 131.058 24.285 131.078 24.195C131.098 24.095 131.108 24.005 131.108 23.925V20.325L127.538 23.82V23.925C127.538 24.005 127.548 24.095 127.568 24.195C127.588 24.285 127.618 24.37 127.658 24.45C127.698 24.53 127.743 24.6 127.793 24.66C127.853 24.72 127.918 24.75 127.988 24.75V24.9H126.083V24.75C126.153 24.75 126.218 24.725 126.278 24.675C126.338 24.615 126.388 24.545 126.428 24.465C126.468 24.375 126.498 24.285 126.518 24.195C126.538 24.095 126.548 24.005 126.548 23.925V19.53C126.548 19.46 126.538 19.38 126.518 19.29C126.498 19.2 126.468 19.115 126.428 19.035C126.388 18.955 126.338 18.89 126.278 18.84C126.218 18.78 126.153 18.75 126.083 18.75V18.6H127.988V18.75C127.908 18.75 127.838 18.78 127.778 18.84C127.728 18.89 127.683 18.955 127.643 19.035C127.613 19.115 127.588 19.2 127.568 19.29C127.548 19.38 127.538 19.46 127.538 19.53V23.115L131.108 19.62V19.53C131.108 19.46 131.098 19.38 131.078 19.29C131.058 19.2 131.028 19.115 130.988 19.035C130.948 18.955 130.898 18.89 130.838 18.84C130.778 18.78 130.713 18.75 130.643 18.75V18.6H132.563V18.75C132.483 18.75 132.408 18.78 132.338 18.84C132.278 18.89 132.228 18.955 132.188 19.035C132.158 19.115 132.133 19.2 132.113 19.29C132.093 19.38 132.083 19.46 132.083 19.53V23.925ZM138.312 24.75C138.392 24.75 138.457 24.73 138.507 24.69C138.567 24.65 138.597 24.6 138.597 24.54C138.597 24.47 138.537 24.36 138.417 24.21C138.157 23.87 137.902 23.525 137.652 23.175C137.412 22.825 137.167 22.48 136.917 22.14L135.357 24.255C135.327 24.295 135.292 24.35 135.252 24.42C135.212 24.49 135.192 24.55 135.192 24.6C135.192 24.7 135.247 24.75 135.357 24.75V24.9H133.947V24.75C134.087 24.75 134.237 24.695 134.397 24.585C134.557 24.465 134.692 24.325 134.802 24.165L136.617 21.705L134.937 19.425C134.887 19.365 134.827 19.295 134.757 19.215C134.697 19.135 134.627 19.065 134.547 19.005C134.467 18.935 134.387 18.875 134.307 18.825C134.227 18.775 134.152 18.75 134.082 18.75V18.6H136.242V18.75C136.182 18.75 136.117 18.77 136.047 18.81C135.987 18.85 135.957 18.925 135.957 19.035C135.957 19.095 135.987 19.165 136.047 19.245L137.262 20.925L138.417 19.395C138.497 19.295 138.547 19.215 138.567 19.155C138.587 19.095 138.597 19.04 138.597 18.99C138.597 18.93 138.577 18.875 138.537 18.825C138.507 18.775 138.457 18.75 138.387 18.75V18.6H139.827V18.75C139.667 18.75 139.512 18.83 139.362 18.99C139.222 19.15 139.102 19.3 139.002 19.44L137.547 21.36L139.557 24.075C139.687 24.255 139.832 24.415 139.992 24.555C140.152 24.685 140.307 24.75 140.457 24.75V24.9H138.312V24.75ZM150.891 18.6V20.16H150.741C150.741 20.05 150.716 19.935 150.666 19.815C150.626 19.685 150.561 19.57 150.471 19.47C150.381 19.36 150.271 19.27 150.141 19.2C150.021 19.13 149.881 19.095 149.721 19.095H147.726V23.955C147.726 24.035 147.736 24.12 147.756 24.21C147.786 24.3 147.821 24.385 147.861 24.465C147.911 24.545 147.966 24.615 148.026 24.675C148.086 24.725 148.156 24.75 148.236 24.75V24.9H146.241V24.75C146.321 24.75 146.391 24.725 146.451 24.675C146.511 24.615 146.561 24.545 146.601 24.465C146.651 24.385 146.686 24.3 146.706 24.21C146.726 24.12 146.736 24.035 146.736 23.955V19.53C146.736 19.46 146.726 19.38 146.706 19.29C146.686 19.2 146.651 19.115 146.601 19.035C146.561 18.955 146.511 18.89 146.451 18.84C146.391 18.78 146.321 18.75 146.241 18.75V18.6H150.891ZM155.114 25.005C154.614 25.005 154.164 24.925 153.764 24.765C153.364 24.595 153.019 24.37 152.729 24.09C152.449 23.8 152.229 23.46 152.069 23.07C151.919 22.68 151.844 22.255 151.844 21.795C151.844 21.305 151.929 20.86 152.099 20.46C152.269 20.05 152.504 19.7 152.804 19.41C153.104 19.12 153.459 18.895 153.869 18.735C154.279 18.575 154.724 18.495 155.204 18.495C155.684 18.495 156.124 18.575 156.524 18.735C156.924 18.885 157.269 19.1 157.559 19.38C157.849 19.66 158.074 19.995 158.234 20.385C158.394 20.765 158.474 21.185 158.474 21.645C158.474 22.075 158.399 22.495 158.249 22.905C158.109 23.305 157.894 23.66 157.604 23.97C157.324 24.28 156.974 24.53 156.554 24.72C156.144 24.91 155.664 25.005 155.114 25.005ZM155.024 18.99C154.664 19.01 154.344 19.1 154.064 19.26C153.794 19.41 153.564 19.61 153.374 19.86C153.194 20.1 153.054 20.375 152.954 20.685C152.864 20.995 152.819 21.31 152.819 21.63C152.819 22 152.874 22.36 152.984 22.71C153.104 23.05 153.269 23.355 153.479 23.625C153.699 23.895 153.959 24.11 154.259 24.27C154.559 24.43 154.894 24.51 155.264 24.51C155.634 24.51 155.959 24.43 156.239 24.27C156.529 24.11 156.769 23.905 156.959 23.655C157.149 23.395 157.289 23.105 157.379 22.785C157.479 22.465 157.529 22.145 157.529 21.825C157.529 21.495 157.479 21.165 157.379 20.835C157.279 20.495 157.124 20.19 156.914 19.92C156.704 19.64 156.439 19.415 156.119 19.245C155.809 19.075 155.444 18.99 155.024 18.99ZM165.801 24.36C165.721 24.36 165.646 24.38 165.576 24.42C165.506 24.45 165.426 24.49 165.336 24.54C165.166 24.64 164.941 24.745 164.661 24.855C164.381 24.955 164.031 25.005 163.611 25.005C163.101 25.005 162.631 24.925 162.201 24.765C161.781 24.595 161.416 24.365 161.106 24.075C160.796 23.775 160.556 23.43 160.386 23.04C160.216 22.64 160.131 22.21 160.131 21.75C160.131 21.32 160.206 20.91 160.356 20.52C160.516 20.13 160.741 19.785 161.031 19.485C161.321 19.185 161.676 18.945 162.096 18.765C162.526 18.585 163.011 18.495 163.551 18.495C163.921 18.495 164.221 18.54 164.451 18.63C164.681 18.71 164.876 18.79 165.036 18.87C165.126 18.92 165.211 18.96 165.291 18.99C165.381 19.02 165.471 19.035 165.561 19.035V20.175H165.411C165.361 19.985 165.271 19.82 165.141 19.68C165.011 19.53 164.861 19.405 164.691 19.305C164.521 19.205 164.336 19.13 164.136 19.08C163.936 19.03 163.741 19.005 163.551 19.005C163.141 19.005 162.781 19.08 162.471 19.23C162.161 19.37 161.906 19.56 161.706 19.8C161.506 20.03 161.356 20.295 161.256 20.595C161.156 20.895 161.106 21.205 161.106 21.525C161.106 21.895 161.161 22.26 161.271 22.62C161.391 22.97 161.556 23.285 161.766 23.565C161.986 23.845 162.251 24.07 162.561 24.24C162.881 24.41 163.241 24.495 163.641 24.495C163.921 24.495 164.181 24.455 164.421 24.375C164.661 24.295 164.866 24.19 165.036 24.06C165.216 23.93 165.356 23.79 165.456 23.64C165.566 23.48 165.631 23.33 165.651 23.19H165.801V24.36ZM172.319 20.175C172.319 20.065 172.299 19.945 172.259 19.815C172.219 19.685 172.159 19.57 172.079 19.47C171.999 19.36 171.899 19.27 171.779 19.2C171.659 19.13 171.519 19.095 171.359 19.095H170.039V23.925C170.039 24.005 170.049 24.09 170.069 24.18C170.089 24.27 170.119 24.36 170.159 24.45C170.209 24.53 170.259 24.6 170.309 24.66C170.369 24.72 170.439 24.75 170.519 24.75V24.9H168.569V24.75C168.649 24.75 168.719 24.72 168.779 24.66C168.839 24.6 168.889 24.53 168.929 24.45C168.979 24.37 169.014 24.285 169.034 24.195C169.054 24.095 169.064 24.005 169.064 23.925V19.095H167.774C167.614 19.095 167.474 19.13 167.354 19.2C167.234 19.27 167.134 19.36 167.054 19.47C166.984 19.57 166.929 19.685 166.889 19.815C166.849 19.945 166.829 20.065 166.829 20.175H166.679V18.6H172.454V20.175H172.319ZM174.398 21.87C174.438 22.22 174.523 22.555 174.653 22.875C174.783 23.185 174.953 23.46 175.163 23.7C175.383 23.94 175.648 24.135 175.958 24.285C176.268 24.425 176.628 24.495 177.038 24.495C177.258 24.495 177.488 24.465 177.728 24.405C177.978 24.335 178.208 24.24 178.418 24.12C178.628 24 178.813 23.855 178.973 23.685C179.143 23.505 179.258 23.305 179.318 23.085H179.453V24.21C179.393 24.21 179.323 24.23 179.243 24.27C179.173 24.31 179.088 24.36 178.988 24.42C178.788 24.54 178.518 24.67 178.178 24.81C177.838 24.94 177.388 25.005 176.828 25.005C176.378 25.005 175.948 24.94 175.538 24.81C175.138 24.68 174.783 24.48 174.473 24.21C174.163 23.94 173.913 23.595 173.723 23.175C173.543 22.755 173.453 22.255 173.453 21.675C173.453 21.305 173.513 20.93 173.633 20.55C173.763 20.17 173.953 19.83 174.203 19.53C174.463 19.22 174.793 18.97 175.193 18.78C175.593 18.59 176.073 18.495 176.633 18.495C177.133 18.495 177.568 18.58 177.938 18.75C178.318 18.92 178.628 19.155 178.868 19.455C179.118 19.755 179.303 20.11 179.423 20.52C179.543 20.93 179.603 21.38 179.603 21.87H174.398ZM176.573 18.99C176.223 18.99 175.918 19.06 175.658 19.2C175.408 19.34 175.193 19.52 175.013 19.74C174.833 19.96 174.693 20.21 174.593 20.49C174.493 20.77 174.428 21.05 174.398 21.33H178.673C178.663 21.04 178.608 20.755 178.508 20.475C178.418 20.195 178.288 19.945 178.118 19.725C177.948 19.505 177.733 19.33 177.473 19.2C177.213 19.06 176.913 18.99 176.573 18.99ZM187.318 23.925C187.318 24.005 187.328 24.095 187.348 24.195C187.378 24.285 187.413 24.37 187.453 24.45C187.493 24.53 187.543 24.6 187.603 24.66C187.673 24.72 187.738 24.75 187.798 24.75V24.9H185.878V24.75C185.948 24.75 186.013 24.725 186.073 24.675C186.133 24.615 186.183 24.545 186.223 24.465C186.263 24.375 186.293 24.285 186.313 24.195C186.333 24.095 186.343 24.005 186.343 23.925V20.325L182.773 23.82V23.925C182.773 24.005 182.783 24.095 182.803 24.195C182.823 24.285 182.853 24.37 182.893 24.45C182.933 24.53 182.978 24.6 183.028 24.66C183.088 24.72 183.153 24.75 183.223 24.75V24.9H181.318V24.75C181.388 24.75 181.453 24.725 181.513 24.675C181.573 24.615 181.623 24.545 181.663 24.465C181.703 24.375 181.733 24.285 181.753 24.195C181.773 24.095 181.783 24.005 181.783 23.925V19.53C181.783 19.46 181.773 19.38 181.753 19.29C181.733 19.2 181.703 19.115 181.663 19.035C181.623 18.955 181.573 18.89 181.513 18.84C181.453 18.78 181.388 18.75 181.318 18.75V18.6H183.223V18.75C183.143 18.75 183.073 18.78 183.013 18.84C182.963 18.89 182.918 18.955 182.878 19.035C182.848 19.115 182.823 19.2 182.803 19.29C182.783 19.38 182.773 19.46 182.773 19.53V23.115L186.343 19.62V19.53C186.343 19.46 186.333 19.38 186.313 19.29C186.293 19.2 186.263 19.115 186.223 19.035C186.183 18.955 186.133 18.89 186.073 18.84C186.013 18.78 185.948 18.75 185.878 18.75V18.6H187.798V18.75C187.718 18.75 187.643 18.78 187.573 18.84C187.513 18.89 187.463 18.955 187.423 19.035C187.393 19.115 187.368 19.2 187.348 19.29C187.328 19.38 187.318 19.46 187.318 19.53V23.925ZM186.163 16.575C186.163 16.735 186.123 16.91 186.043 17.1C185.963 17.28 185.848 17.45 185.698 17.61C185.548 17.76 185.368 17.885 185.158 17.985C184.958 18.085 184.733 18.135 184.483 18.135C184.253 18.135 184.033 18.09 183.823 18C183.623 17.9 183.448 17.775 183.298 17.625C183.148 17.475 183.028 17.31 182.938 17.13C182.848 16.94 182.803 16.755 182.803 16.575H182.893C182.903 16.635 182.933 16.72 182.983 16.83C183.043 16.93 183.133 17.035 183.253 17.145C183.373 17.255 183.528 17.35 183.718 17.43C183.918 17.51 184.168 17.55 184.468 17.55C184.778 17.55 185.033 17.51 185.233 17.43C185.433 17.35 185.593 17.255 185.713 17.145C185.833 17.035 185.918 16.93 185.968 16.83C186.018 16.72 186.053 16.635 186.073 16.575H186.163ZM189.888 15.015H191.823V15.165C191.693 15.165 191.593 15.26 191.523 15.45C191.453 15.63 191.413 15.795 191.403 15.945L191.013 23.19H190.833L190.383 15.945C190.383 15.875 190.368 15.795 190.338 15.705C190.318 15.615 190.288 15.53 190.248 15.45C190.208 15.37 190.158 15.305 190.098 15.255C190.038 15.195 189.968 15.165 189.888 15.165V15.015ZM190.218 24.33C190.218 24.13 190.283 23.96 190.413 23.82C190.553 23.68 190.723 23.61 190.923 23.61C191.123 23.61 191.288 23.68 191.418 23.82C191.558 23.96 191.628 24.13 191.628 24.33C191.628 24.53 191.558 24.7 191.418 24.84C191.288 24.97 191.123 25.035 190.923 25.035C190.723 25.035 190.553 24.97 190.413 24.84C190.283 24.7 190.218 24.53 190.218 24.33Z" fill="#281814"></path></svg> 