<?xml version="1.0" encoding="UTF-8"?> <svg xmlns="http://www.w3.org/2000/svg" width="223" height="14" viewBox="0 0 223 14" fill="none"><path d="M0.0299576 9.75002H0.104958C0.174958 9.75002 0.239958 9.72002 0.299958 9.66002C0.359958 9.60002 0.409958 9.53002 0.449958 9.45002C0.499958 9.37002 0.534958 9.28502 0.554958 9.19502C0.574958 9.09502 0.584958 9.00502 0.584958 8.92502V0.945024C0.584958 0.875024 0.574958 0.795024 0.554958 0.705024C0.534958 0.615024 0.499958 0.530024 0.449958 0.450024C0.409958 0.360024 0.354958 0.290024 0.284958 0.240024C0.224958 0.180024 0.154958 0.150024 0.0749576 0.150024H-4.23975e-05V2.40207e-05H2.45996C3.38996 2.40207e-05 4.11496 0.205024 4.63496 0.615024C5.16496 1.02502 5.42996 1.57002 5.42996 2.25002C5.42996 2.54002 5.37996 2.80002 5.27996 3.03002C5.17996 3.26002 5.04996 3.46502 4.88996 3.64502C4.73996 3.82502 4.57496 3.98002 4.39496 4.11002C4.21496 4.23002 4.04496 4.33002 3.88496 4.41002C4.30496 4.49002 4.65496 4.62502 4.93496 4.81502C5.21496 5.00502 5.43996 5.22502 5.60996 5.47502C5.78996 5.71502 5.91496 5.97502 5.98496 6.25502C6.05496 6.53502 6.08996 6.81002 6.08996 7.08002C6.08996 7.60002 5.99496 8.04002 5.80496 8.40002C5.61496 8.75002 5.35996 9.04002 5.03996 9.27002C4.72996 9.49002 4.36996 9.65002 3.95996 9.75002C3.55996 9.85002 3.14496 9.90002 2.71496 9.90002H0.0299576V9.75002ZM5.06996 7.17002C4.98996 6.40002 4.72996 5.80502 4.28996 5.38502C3.84996 4.96502 3.22996 4.75502 2.42996 4.75502H1.58996V9.40502H2.45996C3.26996 9.40502 3.90496 9.22502 4.36496 8.86502C4.83496 8.49502 5.06996 7.98502 5.06996 7.33502V7.17002ZM4.45496 2.38502C4.42496 1.80502 4.21996 1.34502 3.83996 1.00502C3.46996 0.665024 2.96996 0.495024 2.33996 0.495024H1.58996V4.27502H2.36996C2.78996 4.27502 3.12996 4.22002 3.38996 4.11002C3.65996 4.00002 3.87496 3.86002 4.03496 3.69002C4.19496 3.51002 4.30496 3.31502 4.36496 3.10502C4.42496 2.89502 4.45496 2.69002 4.45496 2.49002V2.38502ZM12.3638 8.73002C12.4238 8.84002 12.5038 8.95502 12.6038 9.07502C12.7038 9.19502 12.8138 9.30502 12.9338 9.40502C13.0638 9.50502 13.1938 9.59002 13.3238 9.66002C13.4538 9.72002 13.5788 9.75002 13.6988 9.75002V9.90002H13.1288C12.6688 9.90002 12.3138 9.80502 12.0638 9.61502C11.8138 9.42502 11.6188 9.20002 11.4788 8.94002L10.7738 7.60502C10.6638 7.39502 10.4788 7.21502 10.2188 7.06502C9.95883 6.90502 9.68383 6.82502 9.39383 6.82502V8.95502C9.39383 9.03502 9.39883 9.12002 9.40883 9.21002C9.42883 9.30002 9.45883 9.38502 9.49883 9.46502C9.53883 9.54502 9.58883 9.61502 9.64883 9.67502C9.70883 9.72502 9.77883 9.75002 9.85883 9.75002V9.90002H7.92383V9.75002C7.99383 9.75002 8.05883 9.72502 8.11883 9.67502C8.18883 9.61502 8.24383 9.54502 8.28383 9.46502C8.32383 9.38502 8.35383 9.30002 8.37383 9.21002C8.39383 9.12002 8.40383 9.03502 8.40383 8.95502V4.54502C8.40383 4.47502 8.39383 4.39502 8.37383 4.30502C8.35383 4.20502 8.32383 4.11502 8.28383 4.03502C8.25383 3.95502 8.20883 3.89002 8.14883 3.84002C8.08883 3.78002 8.01383 3.75002 7.92383 3.75002V3.60002H9.84383V3.75002C9.77383 3.75002 9.70883 3.78002 9.64883 3.84002C9.59883 3.89002 9.55383 3.95502 9.51383 4.03502C9.47383 4.11502 9.44383 4.20502 9.42383 4.30502C9.40383 4.39502 9.39383 4.47502 9.39383 4.54502V6.09002C9.82383 5.71002 10.2488 5.34502 10.6688 4.99502C11.0888 4.63502 11.5138 4.26502 11.9438 3.88502C11.9438 3.87502 11.9488 3.86502 11.9588 3.85502C11.9688 3.84502 11.9738 3.83502 11.9738 3.82502C11.9738 3.77502 11.9488 3.75002 11.8988 3.75002V3.60002H13.2038V3.75002C13.1538 3.75002 13.0938 3.76502 13.0238 3.79502C12.9538 3.82502 12.8838 3.86002 12.8138 3.90002C12.7338 3.94002 12.6538 3.99002 12.5738 4.05002C12.1238 4.43002 11.6738 4.82002 11.2238 5.22002C10.7738 5.61002 10.3238 5.99502 9.87383 6.37502C10.3038 6.37502 10.6538 6.45502 10.9238 6.61502C11.2038 6.77502 11.4388 7.03002 11.6288 7.38002L12.3638 8.73002ZM17.4364 12.045C17.2964 12.465 17.1164 12.75 16.8964 12.9C16.6864 13.05 16.4664 13.125 16.2364 13.125C16.0864 13.125 15.9514 13.1 15.8314 13.05C15.7114 13 15.6064 12.945 15.5164 12.885C15.4264 12.825 15.3564 12.77 15.3064 12.72C15.2664 12.67 15.2464 12.645 15.2464 12.645L15.7414 11.43C15.7814 11.59 15.8314 11.725 15.8914 11.835C15.9414 11.935 16.0114 12.025 16.1014 12.105C16.1914 12.185 16.3014 12.225 16.4314 12.225C16.6714 12.225 16.8614 12.05 17.0014 11.7L17.7214 9.85502L15.3214 4.39502C15.2414 4.22502 15.1564 4.07502 15.0664 3.94502C14.9864 3.81502 14.8464 3.75002 14.6464 3.75002V3.60002H16.5814V3.75002C16.5414 3.75002 16.4914 3.78502 16.4314 3.85502C16.3714 3.92502 16.3414 4.01502 16.3414 4.12502C16.3414 4.20502 16.3614 4.28502 16.4014 4.36502L18.2464 8.61002L20.0164 4.27502C20.0464 4.20502 20.0614 4.14002 20.0614 4.08002C20.0614 3.98002 20.0264 3.90002 19.9564 3.84002C19.8964 3.78002 19.8314 3.75002 19.7614 3.75002V3.60002H21.2164V3.75002C21.0564 3.75002 20.9164 3.82002 20.7964 3.96002C20.6864 4.09002 20.5964 4.24002 20.5264 4.41002L17.4364 12.045ZM27.0566 9.36002C26.9766 9.36002 26.9016 9.38002 26.8316 9.42002C26.7616 9.45002 26.6816 9.49002 26.5916 9.54002C26.4216 9.64002 26.1966 9.74502 25.9166 9.85502C25.6366 9.95502 25.2866 10.005 24.8666 10.005C24.3566 10.005 23.8866 9.92502 23.4566 9.76502C23.0366 9.59502 22.6716 9.36502 22.3616 9.07502C22.0516 8.77502 21.8116 8.43002 21.6416 8.04002C21.4716 7.64002 21.3866 7.21002 21.3866 6.75002C21.3866 6.32002 21.4616 5.91002 21.6116 5.52002C21.7716 5.13002 21.9966 4.78502 22.2866 4.48502C22.5766 4.18502 22.9316 3.94502 23.3516 3.76502C23.7816 3.58502 24.2666 3.49502 24.8066 3.49502C25.1766 3.49502 25.4766 3.54002 25.7066 3.63002C25.9366 3.71002 26.1316 3.79002 26.2916 3.87002C26.3816 3.92002 26.4666 3.96002 26.5466 3.99002C26.6366 4.02002 26.7266 4.03502 26.8166 4.03502V5.17502H26.6666C26.6166 4.98502 26.5266 4.82002 26.3966 4.68002C26.2666 4.53002 26.1166 4.40502 25.9466 4.30502C25.7766 4.20502 25.5916 4.13002 25.3916 4.08002C25.1916 4.03002 24.9966 4.00502 24.8066 4.00502C24.3966 4.00502 24.0366 4.08002 23.7266 4.23002C23.4166 4.37002 23.1616 4.56002 22.9616 4.80002C22.7616 5.03002 22.6116 5.29502 22.5116 5.59502C22.4116 5.89502 22.3616 6.20502 22.3616 6.52502C22.3616 6.89502 22.4166 7.26002 22.5266 7.62002C22.6466 7.97002 22.8116 8.28502 23.0216 8.56502C23.2416 8.84502 23.5066 9.07002 23.8166 9.24002C24.1366 9.41002 24.4966 9.49502 24.8966 9.49502C25.1766 9.49502 25.4366 9.45502 25.6766 9.37502C25.9166 9.29502 26.1216 9.19002 26.2916 9.06002C26.4716 8.93002 26.6116 8.79002 26.7116 8.64002C26.8216 8.48002 26.8866 8.33002 26.9066 8.19002H27.0566V9.36002ZM29.9748 8.92502C29.9748 9.00502 29.9848 9.09502 30.0048 9.19502C30.0248 9.28502 30.0548 9.37002 30.0948 9.45002C30.1348 9.53002 30.1798 9.60002 30.2298 9.66002C30.2898 9.72002 30.3548 9.75002 30.4248 9.75002V9.90002H28.5348V9.75002C28.6048 9.75002 28.6648 9.72502 28.7148 9.67502C28.7748 9.61502 28.8248 9.54502 28.8648 9.46502C28.9048 9.37502 28.9348 9.28502 28.9548 9.19502C28.9748 9.09502 28.9848 9.00502 28.9848 8.92502V4.53002C28.9848 4.46002 28.9748 4.38002 28.9548 4.29002C28.9348 4.20002 28.9048 4.11502 28.8648 4.03502C28.8248 3.95502 28.7748 3.89002 28.7148 3.84002C28.6648 3.78002 28.6048 3.75002 28.5348 3.75002V3.60002H30.4248V3.75002C30.3448 3.75002 30.2748 3.78002 30.2148 3.84002C30.1648 3.89002 30.1198 3.95502 30.0798 4.03502C30.0498 4.11502 30.0248 4.20002 30.0048 4.29002C29.9848 4.38002 29.9748 4.46002 29.9748 4.53002V6.34502H33.3948V4.53002C33.3948 4.46002 33.3848 4.38002 33.3648 4.29002C33.3448 4.20002 33.3148 4.11502 33.2748 4.03502C33.2448 3.95502 33.1998 3.89002 33.1398 3.84002C33.0898 3.78002 33.0248 3.75002 32.9448 3.75002V3.60002H34.8348V3.75002C34.7548 3.75002 34.6848 3.78002 34.6248 3.84002C34.5748 3.89002 34.5298 3.95502 34.4898 4.03502C34.4498 4.11502 34.4198 4.20002 34.3998 4.29002C34.3898 4.38002 34.3848 4.46002 34.3848 4.53002V8.92502C34.3848 9.00502 34.3948 9.09502 34.4148 9.19502C34.4348 9.28502 34.4648 9.37002 34.5048 9.45002C34.5448 9.53002 34.5898 9.60002 34.6398 9.66002C34.6998 9.72002 34.7648 9.75002 34.8348 9.75002V9.90002H32.9448V9.75002C33.0148 9.75002 33.0748 9.72502 33.1248 9.67502C33.1848 9.61502 33.2348 9.54502 33.2748 9.46502C33.3148 9.37502 33.3448 9.28502 33.3648 9.19502C33.3848 9.09502 33.3948 9.00502 33.3948 8.92502V6.84002H29.9748V8.92502ZM40.6931 9.90002V9.13502L40.6181 9.21002C40.3681 9.46002 40.0781 9.65502 39.7481 9.79502C39.4281 9.93502 39.0381 10.005 38.5781 10.005C38.2281 10.005 37.9281 9.96502 37.6781 9.88502C37.4281 9.80502 37.2231 9.69502 37.0631 9.55502C36.9031 9.40502 36.7831 9.23502 36.7031 9.04502C36.6331 8.85502 36.5981 8.65502 36.5981 8.44502C36.5981 8.10502 36.6881 7.80502 36.8681 7.54502C37.0581 7.28502 37.3281 7.05502 37.6781 6.85502C38.0281 6.65502 38.4531 6.47502 38.9531 6.31502C39.4631 6.14502 40.0431 5.98002 40.6931 5.82002C40.6731 5.43002 40.5931 5.11502 40.4531 4.87502C40.3131 4.63502 40.1481 4.45002 39.9581 4.32002C39.7681 4.18002 39.5681 4.09002 39.3581 4.05002C39.1481 4.00002 38.9681 3.97502 38.8181 3.97502C38.5581 3.97502 38.3281 4.01502 38.1281 4.09502C37.9281 4.16502 37.7531 4.26502 37.6031 4.39502C37.4531 4.51502 37.3281 4.65502 37.2281 4.81502C37.1381 4.97502 37.0681 5.13502 37.0181 5.29502H36.8831V4.12502C36.9731 4.12502 37.0781 4.09502 37.1981 4.03502C37.3181 3.96502 37.4581 3.89002 37.6181 3.81002C37.7881 3.73002 37.9881 3.66002 38.2181 3.60002C38.4581 3.53002 38.7431 3.49502 39.0731 3.49502C39.6231 3.49502 40.0681 3.56502 40.4081 3.70502C40.7481 3.84502 41.0081 4.03002 41.1881 4.26002C41.3781 4.49002 41.5031 4.75502 41.5631 5.05502C41.6231 5.34502 41.6531 5.64502 41.6531 5.95502V8.92502C41.6531 9.12502 41.7031 9.31502 41.8031 9.49502C41.9031 9.66502 42.0381 9.75002 42.2081 9.75002V9.90002H40.6931ZM40.6931 8.47502V6.33002L40.5431 6.36002C40.3031 6.42002 40.0081 6.50002 39.6581 6.60002C39.3181 6.70002 38.9931 6.83002 38.6831 6.99002C38.3731 7.15002 38.1081 7.34002 37.8881 7.56002C37.6681 7.78002 37.5581 8.03502 37.5581 8.32502C37.5581 8.64502 37.6881 8.91002 37.9481 9.12002C38.2081 9.33002 38.5481 9.43502 38.9681 9.43502C39.2981 9.43502 39.5881 9.36502 39.8381 9.22502C40.0881 9.07502 40.3181 8.88502 40.5281 8.65502L40.6931 8.47502ZM48.8236 8.92502C48.8236 9.00502 48.8336 9.09502 48.8536 9.19502C48.8736 9.28502 48.9036 9.37502 48.9436 9.46502C48.9936 9.54502 49.0436 9.61502 49.0936 9.67502C49.1536 9.72502 49.2236 9.75002 49.3036 9.75002V9.90002H47.3536V9.75002C47.4236 9.75002 47.4886 9.72002 47.5486 9.66002C47.6086 9.60002 47.6586 9.53002 47.6986 9.45002C47.7486 9.37002 47.7836 9.28502 47.8036 9.19502C47.8236 9.09502 47.8336 9.00502 47.8336 8.92502V6.82502C47.7236 6.84502 47.5986 6.90502 47.4586 7.00502C47.3186 7.09502 47.1736 7.21502 47.0236 7.36502C46.8736 7.50502 46.7286 7.66002 46.5886 7.83002C46.4486 8.00002 46.3186 8.17002 46.1986 8.34002C46.0986 8.48002 46.0136 8.59502 45.9436 8.68502C45.8736 8.77502 45.8136 8.86002 45.7636 8.94002C45.6636 9.07002 45.5636 9.19502 45.4636 9.31502C45.3636 9.42502 45.2486 9.52502 45.1186 9.61502C44.9986 9.70502 44.8536 9.77502 44.6836 9.82502C44.5136 9.87502 44.3136 9.90002 44.0836 9.90002H43.5286V9.75002C43.6486 9.75002 43.7686 9.71502 43.8886 9.64502C44.0186 9.57502 44.1436 9.49002 44.2636 9.39002C44.3836 9.28002 44.4936 9.16502 44.5936 9.04502C44.7036 8.91502 44.7986 8.79502 44.8786 8.68502L45.3436 8.04002C45.5136 7.81002 45.6886 7.58502 45.8686 7.36502C46.0486 7.13502 46.2536 6.95502 46.4836 6.82502C46.1236 6.81502 45.8036 6.76502 45.5236 6.67502C45.2436 6.58502 45.0086 6.46502 44.8186 6.31502C44.6286 6.16502 44.4836 5.99502 44.3836 5.80502C44.2936 5.60502 44.2486 5.39502 44.2486 5.17502C44.2486 4.96502 44.2936 4.76502 44.3836 4.57502C44.4836 4.38502 44.6386 4.22002 44.8486 4.08002C45.0586 3.93002 45.3236 3.81502 45.6436 3.73502C45.9736 3.64502 46.3686 3.60002 46.8286 3.60002H49.3036V3.75002C49.2236 3.75002 49.1536 3.78002 49.0936 3.84002C49.0436 3.89002 48.9936 3.95502 48.9436 4.03502C48.9036 4.11502 48.8736 4.20002 48.8536 4.29002C48.8336 4.38002 48.8236 4.46002 48.8236 4.53002V8.92502ZM45.2236 5.08502C45.2236 5.23502 45.2686 5.38502 45.3586 5.53502C45.4586 5.68502 45.5886 5.82002 45.7486 5.94002C45.9186 6.06002 46.1086 6.16002 46.3186 6.24002C46.5286 6.31002 46.7536 6.34502 46.9936 6.34502H47.8336V4.08002H46.8586C46.2586 4.08002 45.8336 4.17502 45.5836 4.36502C45.3436 4.55502 45.2236 4.79502 45.2236 5.08502ZM56.369 6.87002C56.409 7.22002 56.494 7.55502 56.624 7.87502C56.754 8.18502 56.924 8.46002 57.134 8.70002C57.354 8.94002 57.619 9.13502 57.929 9.28502C58.239 9.42502 58.599 9.49502 59.009 9.49502C59.229 9.49502 59.459 9.46502 59.699 9.40502C59.949 9.33502 60.179 9.24002 60.389 9.12002C60.599 9.00002 60.784 8.85502 60.944 8.68502C61.114 8.50502 61.229 8.30502 61.289 8.08502H61.424V9.21002C61.364 9.21002 61.294 9.23002 61.214 9.27002C61.144 9.31002 61.059 9.36002 60.959 9.42002C60.759 9.54002 60.489 9.67002 60.149 9.81002C59.809 9.94002 59.359 10.005 58.799 10.005C58.349 10.005 57.919 9.94002 57.509 9.81002C57.109 9.68002 56.754 9.48002 56.444 9.21002C56.134 8.94002 55.884 8.59502 55.694 8.17502C55.514 7.75502 55.424 7.25502 55.424 6.67502C55.424 6.30502 55.484 5.93002 55.604 5.55002C55.734 5.17002 55.924 4.83002 56.174 4.53002C56.434 4.22002 56.764 3.97002 57.164 3.78002C57.564 3.59002 58.044 3.49502 58.604 3.49502C59.104 3.49502 59.539 3.58002 59.909 3.75002C60.289 3.92002 60.599 4.15502 60.839 4.45502C61.089 4.75502 61.274 5.11002 61.394 5.52002C61.514 5.93002 61.574 6.38002 61.574 6.87002H56.369ZM58.544 3.99002C58.194 3.99002 57.889 4.06002 57.629 4.20002C57.379 4.34002 57.164 4.52002 56.984 4.74002C56.804 4.96002 56.664 5.21002 56.564 5.49002C56.464 5.77002 56.399 6.05002 56.369 6.33002H60.644C60.634 6.04002 60.579 5.75502 60.479 5.47502C60.389 5.19502 60.259 4.94502 60.089 4.72502C59.919 4.50502 59.704 4.33002 59.444 4.20002C59.184 4.06002 58.884 3.99002 58.544 3.99002ZM69.5977 9.40502V11.25H69.4477C69.4277 11.13 69.3927 10.99 69.3427 10.83C69.2927 10.68 69.2227 10.535 69.1327 10.395C69.0427 10.255 68.9327 10.135 68.8027 10.035C68.6827 9.94502 68.5427 9.90002 68.3827 9.90002H63.6127C63.4527 9.90002 63.3077 9.94502 63.1777 10.035C63.0477 10.135 62.9327 10.255 62.8327 10.395C62.7427 10.535 62.6677 10.68 62.6077 10.83C62.5577 10.99 62.5277 11.13 62.5177 11.25H62.3677V9.40502H62.9377C62.9977 9.40502 63.0527 9.38002 63.1027 9.33002C63.1627 9.28002 63.2177 9.22002 63.2677 9.15002C63.3277 9.08002 63.3827 9.00502 63.4327 8.92502C63.4827 8.83502 63.5277 8.75502 63.5677 8.68502C63.7177 8.34502 63.8977 7.94002 64.1077 7.47002C64.3277 7.00002 64.5477 6.51502 64.7677 6.01502C64.9977 5.51502 65.2177 5.03002 65.4277 4.56002C65.6377 4.08002 65.8177 3.67002 65.9677 3.33002L68.5027 8.86502C68.5827 9.03502 68.6577 9.17002 68.7277 9.27002C68.7977 9.36002 68.8927 9.40502 69.0127 9.40502H69.5977ZM63.7627 9.40502H67.6627L65.7127 5.13002L63.7627 9.40502ZM74.7302 9.90002V9.13502L74.6552 9.21002C74.4052 9.46002 74.1152 9.65502 73.7852 9.79502C73.4652 9.93502 73.0752 10.005 72.6152 10.005C72.2652 10.005 71.9652 9.96502 71.7152 9.88502C71.4652 9.80502 71.2602 9.69502 71.1002 9.55502C70.9402 9.40502 70.8202 9.23502 70.7402 9.04502C70.6702 8.85502 70.6352 8.65502 70.6352 8.44502C70.6352 8.10502 70.7252 7.80502 70.9052 7.54502C71.0952 7.28502 71.3652 7.05502 71.7152 6.85502C72.0652 6.65502 72.4902 6.47502 72.9902 6.31502C73.5002 6.14502 74.0802 5.98002 74.7302 5.82002C74.7102 5.43002 74.6302 5.11502 74.4902 4.87502C74.3502 4.63502 74.1852 4.45002 73.9952 4.32002C73.8052 4.18002 73.6052 4.09002 73.3952 4.05002C73.1852 4.00002 73.0052 3.97502 72.8552 3.97502C72.5952 3.97502 72.3652 4.01502 72.1652 4.09502C71.9652 4.16502 71.7902 4.26502 71.6402 4.39502C71.4902 4.51502 71.3652 4.65502 71.2652 4.81502C71.1752 4.97502 71.1052 5.13502 71.0552 5.29502H70.9202V4.12502C71.0102 4.12502 71.1152 4.09502 71.2352 4.03502C71.3552 3.96502 71.4952 3.89002 71.6552 3.81002C71.8252 3.73002 72.0252 3.66002 72.2552 3.60002C72.4952 3.53002 72.7802 3.49502 73.1102 3.49502C73.6602 3.49502 74.1052 3.56502 74.4452 3.70502C74.7852 3.84502 75.0452 4.03002 75.2252 4.26002C75.4152 4.49002 75.5402 4.75502 75.6002 5.05502C75.6602 5.34502 75.6902 5.64502 75.6902 5.95502V8.92502C75.6902 9.12502 75.7402 9.31502 75.8402 9.49502C75.9402 9.66502 76.0752 9.75002 76.2452 9.75002V9.90002H74.7302ZM74.7302 8.47502V6.33002L74.5802 6.36002C74.3402 6.42002 74.0452 6.50002 73.6952 6.60002C73.3552 6.70002 73.0302 6.83002 72.7202 6.99002C72.4102 7.15002 72.1452 7.34002 71.9252 7.56002C71.7052 7.78002 71.5952 8.03502 71.5952 8.32502C71.5952 8.64502 71.7252 8.91002 71.9852 9.12002C72.2452 9.33002 72.5852 9.43502 73.0052 9.43502C73.3352 9.43502 73.6252 9.36502 73.8752 9.22502C74.1252 9.07502 74.3552 8.88502 74.5652 8.65502L74.7302 8.47502ZM78.2107 8.50502C78.5007 8.50502 78.7107 8.60502 78.8407 8.80502C78.9807 9.00502 79.0507 9.23502 79.0507 9.49502C79.0507 9.64502 79.0307 9.81002 78.9907 9.99002C78.9507 10.18 78.8707 10.365 78.7507 10.545C78.6407 10.735 78.4757 10.92 78.2557 11.1C78.0457 11.29 77.7657 11.465 77.4157 11.625L77.3407 11.49C77.5407 11.31 77.6957 11.145 77.8057 10.995C77.9257 10.855 78.0107 10.725 78.0607 10.605C78.1207 10.495 78.1557 10.39 78.1657 10.29C78.1857 10.19 78.1957 10.085 78.1957 9.97502C78.1957 9.89502 78.1707 9.83502 78.1207 9.79502C78.0707 9.74502 78.0157 9.70002 77.9557 9.66002C77.8757 9.61002 77.7957 9.55502 77.7157 9.49502C77.6357 9.42502 77.5957 9.31002 77.5957 9.15002C77.5957 8.96002 77.6557 8.80502 77.7757 8.68502C77.8957 8.56502 78.0407 8.50502 78.2107 8.50502ZM89.7586 5.17502C89.7586 5.06502 89.7386 4.94502 89.6985 4.81502C89.6586 4.68502 89.5986 4.57002 89.5186 4.47002C89.4386 4.36002 89.3386 4.27002 89.2185 4.20002C89.0985 4.13002 88.9585 4.09502 88.7985 4.09502H87.4785V8.92502C87.4785 9.00502 87.4885 9.09002 87.5085 9.18002C87.5285 9.27002 87.5585 9.36002 87.5985 9.45002C87.6486 9.53002 87.6986 9.60002 87.7485 9.66002C87.8086 9.72002 87.8786 9.75002 87.9585 9.75002V9.90002H86.0085V9.75002C86.0885 9.75002 86.1585 9.72002 86.2185 9.66002C86.2785 9.60002 86.3285 9.53002 86.3685 9.45002C86.4185 9.37002 86.4535 9.28502 86.4735 9.19502C86.4935 9.09502 86.5035 9.00502 86.5035 8.92502V4.09502H85.2135C85.0535 4.09502 84.9135 4.13002 84.7935 4.20002C84.6735 4.27002 84.5735 4.36002 84.4935 4.47002C84.4235 4.57002 84.3685 4.68502 84.3285 4.81502C84.2885 4.94502 84.2685 5.06502 84.2685 5.17502H84.1185V3.60002H89.8936V5.17502H89.7586ZM95.163 9.90002V9.13502L95.088 9.21002C94.838 9.46002 94.548 9.65502 94.218 9.79502C93.898 9.93502 93.508 10.005 93.048 10.005C92.698 10.005 92.398 9.96502 92.148 9.88502C91.898 9.80502 91.693 9.69502 91.533 9.55502C91.373 9.40502 91.253 9.23502 91.173 9.04502C91.103 8.85502 91.068 8.65502 91.068 8.44502C91.068 8.10502 91.158 7.80502 91.338 7.54502C91.528 7.28502 91.798 7.05502 92.148 6.85502C92.498 6.65502 92.923 6.47502 93.423 6.31502C93.933 6.14502 94.513 5.98002 95.163 5.82002C95.143 5.43002 95.063 5.11502 94.923 4.87502C94.783 4.63502 94.618 4.45002 94.428 4.32002C94.238 4.18002 94.038 4.09002 93.828 4.05002C93.618 4.00002 93.438 3.97502 93.288 3.97502C93.028 3.97502 92.798 4.01502 92.598 4.09502C92.398 4.16502 92.223 4.26502 92.073 4.39502C91.923 4.51502 91.798 4.65502 91.698 4.81502C91.608 4.97502 91.538 5.13502 91.488 5.29502H91.353V4.12502C91.443 4.12502 91.548 4.09502 91.668 4.03502C91.788 3.96502 91.928 3.89002 92.088 3.81002C92.258 3.73002 92.458 3.66002 92.688 3.60002C92.928 3.53002 93.213 3.49502 93.543 3.49502C94.093 3.49502 94.538 3.56502 94.878 3.70502C95.218 3.84502 95.478 4.03002 95.658 4.26002C95.848 4.49002 95.973 4.75502 96.033 5.05502C96.093 5.34502 96.123 5.64502 96.123 5.95502V8.92502C96.123 9.12502 96.173 9.31502 96.273 9.49502C96.373 9.66502 96.508 9.75002 96.678 9.75002V9.90002H95.163ZM95.163 8.47502V6.33002L95.013 6.36002C94.773 6.42002 94.478 6.50002 94.128 6.60002C93.788 6.70002 93.463 6.83002 93.153 6.99002C92.843 7.15002 92.578 7.34002 92.358 7.56002C92.138 7.78002 92.028 8.03502 92.028 8.32502C92.028 8.64502 92.158 8.91002 92.418 9.12002C92.678 9.33002 93.018 9.43502 93.438 9.43502C93.768 9.43502 94.058 9.36502 94.308 9.22502C94.558 9.07502 94.788 8.88502 94.998 8.65502L95.163 8.47502ZM99.9785 8.92502C99.9785 9.00502 99.9885 9.09502 100.008 9.19502C100.028 9.28502 100.058 9.37002 100.098 9.45002C100.138 9.53002 100.183 9.60002 100.233 9.66002C100.293 9.72002 100.358 9.75002 100.428 9.75002V9.90002H98.5385V9.75002C98.6085 9.75002 98.6685 9.72502 98.7185 9.67502C98.7785 9.61502 98.8285 9.54502 98.8685 9.46502C98.9085 9.37502 98.9385 9.28502 98.9585 9.19502C98.9785 9.09502 98.9885 9.00502 98.9885 8.92502V4.53002C98.9885 4.46002 98.9785 4.38002 98.9585 4.29002C98.9385 4.20002 98.9085 4.11502 98.8685 4.03502C98.8285 3.95502 98.7785 3.89002 98.7185 3.84002C98.6685 3.78002 98.6085 3.75002 98.5385 3.75002V3.60002H100.428V3.75002C100.348 3.75002 100.278 3.78002 100.218 3.84002C100.168 3.89002 100.123 3.95502 100.083 4.03502C100.053 4.11502 100.028 4.20002 100.008 4.29002C99.9885 4.38002 99.9785 4.46002 99.9785 4.53002V6.34502H103.398V4.53002C103.398 4.46002 103.388 4.38002 103.368 4.29002C103.348 4.20002 103.318 4.11502 103.278 4.03502C103.248 3.95502 103.203 3.89002 103.143 3.84002C103.093 3.78002 103.028 3.75002 102.948 3.75002V3.60002H104.838V3.75002C104.758 3.75002 104.688 3.78002 104.628 3.84002C104.578 3.89002 104.533 3.95502 104.493 4.03502C104.453 4.11502 104.423 4.20002 104.403 4.29002C104.393 4.38002 104.388 4.46002 104.388 4.53002V8.92502C104.388 9.00502 104.398 9.09502 104.418 9.19502C104.438 9.28502 104.468 9.37002 104.508 9.45002C104.548 9.53002 104.593 9.60002 104.643 9.66002C104.703 9.72002 104.768 9.75002 104.838 9.75002V9.90002H102.948V9.75002C103.018 9.75002 103.078 9.72502 103.128 9.67502C103.188 9.61502 103.238 9.54502 103.278 9.46502C103.318 9.37502 103.348 9.28502 103.368 9.19502C103.388 9.09502 103.398 9.00502 103.398 8.92502V6.84002H99.9785V8.92502ZM113.547 9.40502V11.22H113.397C113.397 11.09 113.362 10.95 113.292 10.8C113.232 10.65 113.147 10.505 113.037 10.365C112.927 10.235 112.797 10.125 112.647 10.035C112.507 9.94502 112.357 9.90002 112.197 9.90002H106.752V9.75002C106.822 9.75002 106.882 9.72502 106.932 9.67502C106.992 9.61502 107.042 9.54502 107.082 9.46502C107.122 9.37502 107.152 9.28502 107.172 9.19502C107.192 9.10502 107.202 9.03002 107.202 8.97002V4.57502C107.202 4.50502 107.192 4.42002 107.172 4.32002C107.162 4.22002 107.142 4.13002 107.112 4.05002C107.082 3.97002 107.037 3.90002 106.977 3.84002C106.917 3.78002 106.842 3.75002 106.752 3.75002V3.60002H108.657V3.75002C108.567 3.75002 108.492 3.78002 108.432 3.84002C108.382 3.89002 108.337 3.96002 108.297 4.05002C108.257 4.13002 108.227 4.22002 108.207 4.32002C108.197 4.41002 108.192 4.49502 108.192 4.57502V9.40502H111.462V4.57502C111.462 4.50502 111.452 4.42002 111.432 4.32002C111.422 4.22002 111.397 4.13002 111.357 4.05002C111.317 3.97002 111.267 3.90002 111.207 3.84002C111.157 3.78002 111.087 3.75002 110.997 3.75002V3.60002H112.902V3.75002C112.812 3.75002 112.737 3.78002 112.677 3.84002C112.627 3.89002 112.582 3.96002 112.542 4.05002C112.512 4.13002 112.487 4.22002 112.467 4.32002C112.457 4.41002 112.452 4.49502 112.452 4.57502V8.58002C112.452 8.78002 112.492 8.97002 112.572 9.15002C112.662 9.32002 112.827 9.40502 113.067 9.40502H113.547ZM121.087 9.90002V9.75002C121.157 9.75002 121.222 9.72502 121.282 9.67502C121.342 9.61502 121.392 9.54502 121.432 9.46502C121.482 9.37502 121.517 9.28502 121.537 9.19502C121.557 9.09502 121.567 9.00502 121.567 8.92502V4.53002C121.567 4.46002 121.557 4.38002 121.537 4.29002C121.517 4.20002 121.482 4.11502 121.432 4.03502C121.392 3.95502 121.342 3.89002 121.282 3.84002C121.222 3.78002 121.157 3.75002 121.087 3.75002V3.60002H123.037V3.75002C122.887 3.75002 122.767 3.84502 122.677 4.03502C122.587 4.21502 122.542 4.38002 122.542 4.53002V8.92502C122.542 9.00502 122.552 9.09502 122.572 9.19502C122.592 9.28502 122.622 9.37002 122.662 9.45002C122.712 9.53002 122.767 9.60002 122.827 9.66002C122.887 9.72002 122.957 9.75002 123.037 9.75002V9.90002H121.087ZM117.547 6.33002C118.467 6.33002 119.147 6.50002 119.587 6.84002C120.037 7.18002 120.262 7.60002 120.262 8.10002C120.262 8.35002 120.202 8.58502 120.082 8.80502C119.972 9.02502 119.802 9.21502 119.572 9.37502C119.342 9.53502 119.052 9.66502 118.702 9.76502C118.352 9.85502 117.937 9.90002 117.457 9.90002H114.907V9.75002C114.977 9.75002 115.042 9.72502 115.102 9.67502C115.162 9.61502 115.212 9.54502 115.252 9.46502C115.302 9.37502 115.337 9.28502 115.357 9.19502C115.377 9.09502 115.387 9.00502 115.387 8.92502V4.53002C115.387 4.46002 115.377 4.38002 115.357 4.29002C115.337 4.20002 115.302 4.11502 115.252 4.03502C115.212 3.95502 115.162 3.89002 115.102 3.84002C115.042 3.78002 114.977 3.75002 114.907 3.75002V3.60002H116.857V3.75002C116.707 3.75002 116.587 3.84502 116.497 4.03502C116.407 4.21502 116.362 4.38002 116.362 4.53002V6.33002H117.547ZM117.427 9.40502C118.087 9.40502 118.562 9.30002 118.852 9.09002C119.152 8.87002 119.302 8.60002 119.302 8.28002C119.302 8.10002 119.262 7.92502 119.182 7.75502C119.102 7.57502 118.977 7.42002 118.807 7.29002C118.647 7.15002 118.447 7.04002 118.207 6.96002C117.967 6.87002 117.692 6.82502 117.382 6.82502H116.362V9.40502H117.427ZM135.327 8.92502C135.327 9.00502 135.337 9.09502 135.357 9.19502C135.387 9.28502 135.422 9.37002 135.462 9.45002C135.502 9.53002 135.552 9.60002 135.612 9.66002C135.682 9.72002 135.747 9.75002 135.807 9.75002V9.90002H133.887V9.75002C133.957 9.75002 134.022 9.72502 134.082 9.67502C134.142 9.61502 134.192 9.54502 134.232 9.46502C134.272 9.37502 134.302 9.28502 134.322 9.19502C134.342 9.09502 134.352 9.00502 134.352 8.92502V5.32502L130.782 8.82002V8.92502C130.782 9.00502 130.792 9.09502 130.812 9.19502C130.832 9.28502 130.862 9.37002 130.902 9.45002C130.942 9.53002 130.987 9.60002 131.037 9.66002C131.097 9.72002 131.162 9.75002 131.232 9.75002V9.90002H129.327V9.75002C129.397 9.75002 129.462 9.72502 129.522 9.67502C129.582 9.61502 129.632 9.54502 129.672 9.46502C129.712 9.37502 129.742 9.28502 129.762 9.19502C129.782 9.09502 129.792 9.00502 129.792 8.92502V4.53002C129.792 4.46002 129.782 4.38002 129.762 4.29002C129.742 4.20002 129.712 4.11502 129.672 4.03502C129.632 3.95502 129.582 3.89002 129.522 3.84002C129.462 3.78002 129.397 3.75002 129.327 3.75002V3.60002H131.232V3.75002C131.152 3.75002 131.082 3.78002 131.022 3.84002C130.972 3.89002 130.927 3.95502 130.887 4.03502C130.857 4.11502 130.832 4.20002 130.812 4.29002C130.792 4.38002 130.782 4.46002 130.782 4.53002V8.11502L134.352 4.62002V4.53002C134.352 4.46002 134.342 4.38002 134.322 4.29002C134.302 4.20002 134.272 4.11502 134.232 4.03502C134.192 3.95502 134.142 3.89002 134.082 3.84002C134.022 3.78002 133.957 3.75002 133.887 3.75002V3.60002H135.807V3.75002C135.727 3.75002 135.652 3.78002 135.582 3.84002C135.522 3.89002 135.472 3.95502 135.432 4.03502C135.402 4.11502 135.377 4.20002 135.357 4.29002C135.337 4.38002 135.327 4.46002 135.327 4.53002V8.92502ZM145.243 3.49502C145.783 3.49502 146.248 3.59002 146.638 3.78002C147.038 3.96002 147.368 4.20002 147.628 4.50002C147.898 4.80002 148.098 5.14502 148.228 5.53502C148.358 5.92502 148.423 6.32502 148.423 6.73502C148.423 7.13502 148.358 7.53002 148.228 7.92002C148.108 8.31002 147.918 8.66002 147.658 8.97002C147.408 9.28002 147.093 9.53002 146.713 9.72002C146.333 9.91002 145.883 10.005 145.363 10.005C145.053 10.005 144.733 9.92502 144.403 9.76502C144.083 9.59502 143.793 9.38502 143.533 9.13502V12.225C143.533 12.305 143.543 12.39 143.563 12.48C143.583 12.58 143.613 12.67 143.653 12.75C143.703 12.83 143.753 12.9 143.803 12.96C143.863 13.02 143.933 13.05 144.013 13.05V13.2H142.063V13.05C142.133 13.05 142.198 13.02 142.258 12.96C142.318 12.9 142.368 12.83 142.408 12.75C142.458 12.67 142.493 12.58 142.513 12.48C142.533 12.39 142.543 12.305 142.543 12.225V4.48502C142.543 4.39502 142.538 4.31002 142.528 4.23002C142.528 4.14002 142.513 4.06502 142.483 4.00502C142.453 3.93502 142.403 3.88002 142.333 3.84002C142.273 3.79002 142.183 3.76002 142.063 3.75002V3.60002H143.533V4.26002C143.733 4.02002 143.973 3.83502 144.253 3.70502C144.543 3.56502 144.873 3.49502 145.243 3.49502ZM145.378 9.49502C145.728 9.48502 146.033 9.40502 146.293 9.25502C146.553 9.10502 146.768 8.91002 146.938 8.67002C147.108 8.43002 147.233 8.16502 147.313 7.87502C147.393 7.57502 147.433 7.26502 147.433 6.94502C147.433 6.58502 147.383 6.23002 147.283 5.88002C147.183 5.53002 147.038 5.22002 146.848 4.95002C146.658 4.67002 146.423 4.44502 146.143 4.27502C145.873 4.09502 145.563 4.00502 145.213 4.00502C145.003 4.00502 144.793 4.04502 144.583 4.12502C144.383 4.20502 144.203 4.32002 144.043 4.47002C143.893 4.62002 143.768 4.80002 143.668 5.01002C143.578 5.21002 143.533 5.43502 143.533 5.68502V7.65002C143.533 7.92002 143.588 8.17002 143.698 8.40002C143.808 8.62002 143.948 8.81502 144.118 8.98502C144.298 9.14502 144.498 9.27002 144.718 9.36002C144.938 9.45002 145.158 9.49502 145.378 9.49502ZM154.178 9.90002V9.13502L154.103 9.21002C153.853 9.46002 153.563 9.65502 153.233 9.79502C152.913 9.93502 152.523 10.005 152.063 10.005C151.713 10.005 151.413 9.96502 151.163 9.88502C150.913 9.80502 150.708 9.69502 150.548 9.55502C150.388 9.40502 150.268 9.23502 150.188 9.04502C150.118 8.85502 150.083 8.65502 150.083 8.44502C150.083 8.10502 150.173 7.80502 150.353 7.54502C150.543 7.28502 150.813 7.05502 151.163 6.85502C151.513 6.65502 151.938 6.47502 152.438 6.31502C152.948 6.14502 153.528 5.98002 154.178 5.82002C154.158 5.43002 154.078 5.11502 153.938 4.87502C153.798 4.63502 153.633 4.45002 153.443 4.32002C153.253 4.18002 153.053 4.09002 152.843 4.05002C152.633 4.00002 152.453 3.97502 152.303 3.97502C152.043 3.97502 151.813 4.01502 151.613 4.09502C151.413 4.16502 151.238 4.26502 151.088 4.39502C150.938 4.51502 150.813 4.65502 150.713 4.81502C150.623 4.97502 150.553 5.13502 150.503 5.29502H150.368V4.12502C150.458 4.12502 150.563 4.09502 150.683 4.03502C150.803 3.96502 150.943 3.89002 151.103 3.81002C151.273 3.73002 151.473 3.66002 151.703 3.60002C151.943 3.53002 152.228 3.49502 152.558 3.49502C153.108 3.49502 153.553 3.56502 153.893 3.70502C154.233 3.84502 154.493 4.03002 154.673 4.26002C154.863 4.49002 154.988 4.75502 155.048 5.05502C155.108 5.34502 155.138 5.64502 155.138 5.95502V8.92502C155.138 9.12502 155.188 9.31502 155.288 9.49502C155.388 9.66502 155.523 9.75002 155.693 9.75002V9.90002H154.178ZM154.178 8.47502V6.33002L154.028 6.36002C153.788 6.42002 153.493 6.50002 153.143 6.60002C152.803 6.70002 152.478 6.83002 152.168 6.99002C151.858 7.15002 151.593 7.34002 151.373 7.56002C151.153 7.78002 151.043 8.03502 151.043 8.32502C151.043 8.64502 151.173 8.91002 151.433 9.12002C151.693 9.33002 152.033 9.43502 152.453 9.43502C152.783 9.43502 153.073 9.36502 153.323 9.22502C153.573 9.07502 153.803 8.88502 154.013 8.65502L154.178 8.47502ZM161.619 5.07002C161.619 5.31002 161.514 5.57002 161.304 5.85002C161.094 6.12002 160.809 6.33502 160.449 6.49502C161.009 6.61502 161.409 6.82502 161.649 7.12502C161.899 7.41502 162.024 7.72502 162.024 8.05502C162.024 8.36502 161.949 8.64002 161.799 8.88002C161.649 9.12002 161.444 9.32002 161.184 9.48002C160.934 9.64002 160.644 9.76002 160.314 9.84002C159.994 9.92002 159.659 9.96002 159.309 9.96002C158.979 9.96002 158.684 9.93002 158.424 9.87002C158.164 9.80002 157.939 9.73002 157.749 9.66002C157.559 9.58002 157.399 9.51002 157.269 9.45002C157.149 9.38002 157.054 9.34502 156.984 9.34502V8.13002H157.119C157.139 8.34002 157.209 8.53002 157.329 8.70002C157.449 8.86002 157.599 9.00002 157.779 9.12002C157.969 9.23002 158.179 9.31502 158.409 9.37502C158.649 9.43502 158.894 9.46502 159.144 9.46502C159.374 9.46502 159.599 9.44002 159.819 9.39002C160.049 9.34002 160.249 9.26502 160.419 9.16502C160.599 9.05502 160.744 8.92002 160.854 8.76002C160.964 8.60002 161.019 8.41502 161.019 8.20502C161.019 7.98502 160.959 7.79002 160.839 7.62002C160.719 7.44002 160.559 7.29002 160.359 7.17002C160.169 7.05002 159.954 6.96002 159.714 6.90002C159.484 6.84002 159.254 6.81002 159.024 6.81002H158.544V6.33002H159.069C159.279 6.33002 159.479 6.29502 159.669 6.22502C159.869 6.15502 160.039 6.06502 160.179 5.95502C160.319 5.84502 160.429 5.72002 160.509 5.58002C160.599 5.43002 160.644 5.28002 160.644 5.13002C160.644 4.95002 160.594 4.79002 160.494 4.65002C160.404 4.51002 160.279 4.39002 160.119 4.29002C159.959 4.19002 159.779 4.11502 159.579 4.06502C159.389 4.00502 159.189 3.97502 158.979 3.97502C158.789 3.97502 158.604 4.00002 158.424 4.05002C158.244 4.09002 158.079 4.16002 157.929 4.26002C157.789 4.36002 157.669 4.48502 157.569 4.63502C157.479 4.78502 157.419 4.96502 157.389 5.17502H157.254V4.00502C157.334 4.00502 157.409 3.99502 157.479 3.97502C157.549 3.94502 157.629 3.90502 157.719 3.85502C157.879 3.77502 158.074 3.70002 158.304 3.63002C158.534 3.55002 158.824 3.51002 159.174 3.51002C159.954 3.51002 160.554 3.65002 160.974 3.93002C161.404 4.21002 161.619 4.59002 161.619 5.07002ZM168.771 5.10002C168.771 5.27002 168.736 5.43002 168.666 5.58002C168.596 5.73002 168.506 5.87002 168.396 6.00002C168.296 6.12002 168.176 6.23002 168.036 6.33002C167.896 6.42002 167.761 6.49002 167.631 6.54002C167.801 6.57002 167.976 6.62502 168.156 6.70502C168.346 6.78502 168.516 6.89002 168.666 7.02002C168.826 7.15002 168.956 7.31502 169.056 7.51502C169.156 7.70502 169.206 7.93502 169.206 8.20502C169.206 8.34502 169.171 8.51502 169.101 8.71502C169.041 8.90502 168.926 9.09002 168.756 9.27002C168.596 9.44002 168.371 9.59002 168.081 9.72002C167.801 9.84002 167.436 9.90002 166.986 9.90002H163.686V9.75002C163.766 9.75002 163.836 9.72002 163.896 9.66002C163.956 9.60002 164.006 9.53002 164.046 9.45002C164.096 9.37002 164.131 9.28502 164.151 9.19502C164.171 9.09502 164.181 9.00502 164.181 8.92502V4.54502C164.181 4.38502 164.136 4.21502 164.046 4.03502C163.966 3.84502 163.846 3.75002 163.686 3.75002V3.60002H166.746C167.106 3.60002 167.411 3.65002 167.661 3.75002C167.921 3.84002 168.131 3.96002 168.291 4.11002C168.461 4.25002 168.581 4.41002 168.651 4.59002C168.731 4.76002 168.771 4.93002 168.771 5.10002ZM165.156 6.34502H166.311C166.601 6.34502 166.841 6.31502 167.031 6.25502C167.231 6.18502 167.391 6.09502 167.511 5.98502C167.631 5.87502 167.716 5.75002 167.766 5.61002C167.826 5.47002 167.856 5.32502 167.856 5.17502C167.856 5.05502 167.821 4.93002 167.751 4.80002C167.681 4.67002 167.576 4.55502 167.436 4.45502C167.306 4.34502 167.146 4.25502 166.956 4.18502C166.766 4.11502 166.551 4.08002 166.311 4.08002H165.156V6.34502ZM166.626 9.42002C166.746 9.42002 166.896 9.41002 167.076 9.39002C167.266 9.36002 167.446 9.30502 167.616 9.22502C167.796 9.13502 167.946 9.01002 168.066 8.85002C168.196 8.68002 168.261 8.46002 168.261 8.19002C168.261 7.90002 168.176 7.66502 168.006 7.48502C167.836 7.30502 167.636 7.17002 167.406 7.08002C167.186 6.98002 166.956 6.91502 166.716 6.88502C166.476 6.85502 166.291 6.84002 166.161 6.84002H165.156V9.42002H166.626ZM175.463 9.75002C175.533 9.75002 175.613 9.72002 175.703 9.66002C175.793 9.60002 175.838 9.51502 175.838 9.40502C175.838 9.38502 175.828 9.34502 175.808 9.28502C175.798 9.21502 175.773 9.14002 175.733 9.06002L173.828 4.56002L171.848 9.28502C171.678 9.69502 171.343 9.90002 170.843 9.90002H170.513V9.75002C170.653 9.75002 170.803 9.68002 170.963 9.54002C171.133 9.39002 171.268 9.21502 171.368 9.01502L173.408 4.24502C173.458 4.11502 173.483 4.01002 173.483 3.93002C173.483 3.81002 173.403 3.75002 173.243 3.75002V3.60002H174.458L176.768 9.00002C176.838 9.15002 176.938 9.31502 177.068 9.49502C177.208 9.66502 177.338 9.75002 177.458 9.75002V9.90002H175.463V9.75002ZM179.635 6.87002C179.675 7.22002 179.76 7.55502 179.89 7.87502C180.02 8.18502 180.19 8.46002 180.4 8.70002C180.62 8.94002 180.885 9.13502 181.195 9.28502C181.505 9.42502 181.865 9.49502 182.275 9.49502C182.495 9.49502 182.725 9.46502 182.965 9.40502C183.215 9.33502 183.445 9.24002 183.655 9.12002C183.865 9.00002 184.05 8.85502 184.21 8.68502C184.38 8.50502 184.495 8.30502 184.555 8.08502H184.69V9.21002C184.63 9.21002 184.56 9.23002 184.48 9.27002C184.41 9.31002 184.325 9.36002 184.225 9.42002C184.025 9.54002 183.755 9.67002 183.415 9.81002C183.075 9.94002 182.625 10.005 182.065 10.005C181.615 10.005 181.185 9.94002 180.775 9.81002C180.375 9.68002 180.02 9.48002 179.71 9.21002C179.4 8.94002 179.15 8.59502 178.96 8.17502C178.78 7.75502 178.69 7.25502 178.69 6.67502C178.69 6.30502 178.75 5.93002 178.87 5.55002C179 5.17002 179.19 4.83002 179.44 4.53002C179.7 4.22002 180.03 3.97002 180.43 3.78002C180.83 3.59002 181.31 3.49502 181.87 3.49502C182.37 3.49502 182.805 3.58002 183.175 3.75002C183.555 3.92002 183.865 4.15502 184.105 4.45502C184.355 4.75502 184.54 5.11002 184.66 5.52002C184.78 5.93002 184.84 6.38002 184.84 6.87002H179.635ZM181.81 3.99002C181.46 3.99002 181.155 4.06002 180.895 4.20002C180.645 4.34002 180.43 4.52002 180.25 4.74002C180.07 4.96002 179.93 5.21002 179.83 5.49002C179.73 5.77002 179.665 6.05002 179.635 6.33002H183.91C183.9 6.04002 183.845 5.75502 183.745 5.47502C183.655 5.19502 183.525 4.94502 183.355 4.72502C183.185 4.50502 182.97 4.33002 182.71 4.20002C182.45 4.06002 182.15 3.99002 181.81 3.99002ZM190.95 8.95502C190.95 9.03502 190.96 9.12002 190.98 9.21002C191.01 9.30002 191.045 9.38502 191.085 9.46502C191.125 9.54502 191.17 9.61502 191.22 9.67502C191.27 9.72502 191.335 9.75002 191.415 9.75002V9.90002H189.51V9.75002C189.58 9.75002 189.64 9.72502 189.69 9.67502C189.75 9.61502 189.8 9.54502 189.84 9.46502C189.88 9.38502 189.91 9.30002 189.93 9.21002C189.95 9.12002 189.96 9.03502 189.96 8.95502V6.88502C189.73 7.12502 189.485 7.31002 189.225 7.44002C188.975 7.56002 188.66 7.62002 188.28 7.62002C187.92 7.62002 187.6 7.55002 187.32 7.41002C187.04 7.27002 186.805 7.08502 186.615 6.85502C186.435 6.61502 186.295 6.35002 186.195 6.06002C186.105 5.76002 186.06 5.45002 186.06 5.13002V4.53002C186.06 4.46002 186.05 4.38002 186.03 4.29002C186.02 4.20002 186 4.11502 185.97 4.03502C185.94 3.95502 185.9 3.89002 185.85 3.84002C185.81 3.78002 185.765 3.75002 185.715 3.75002V3.60002H187.47V3.75002C187.41 3.75002 187.35 3.78002 187.29 3.84002C187.24 3.89002 187.195 3.95502 187.155 4.03502C187.125 4.11502 187.1 4.20002 187.08 4.29002C187.06 4.38002 187.05 4.46002 187.05 4.53002V5.13002C187.05 5.47002 187.1 5.76002 187.2 6.00002C187.3 6.23002 187.425 6.42002 187.575 6.57002C187.725 6.71002 187.89 6.81502 188.07 6.88502C188.25 6.94502 188.425 6.97502 188.595 6.97502C188.855 6.97502 189.09 6.91502 189.3 6.79502C189.52 6.66502 189.74 6.47002 189.96 6.21002V4.53002C189.96 4.46002 189.95 4.38002 189.93 4.29002C189.91 4.20002 189.88 4.11502 189.84 4.03502C189.8 3.95502 189.75 3.89002 189.69 3.84002C189.64 3.78002 189.58 3.75002 189.51 3.75002V3.60002H191.415V3.75002C191.335 3.75002 191.27 3.78002 191.22 3.84002C191.17 3.89002 191.125 3.95502 191.085 4.03502C191.045 4.11502 191.01 4.20002 190.98 4.29002C190.96 4.38002 190.95 4.46002 190.95 4.53002V8.95502ZM194.158 6.87002C194.198 7.22002 194.283 7.55502 194.413 7.87502C194.543 8.18502 194.713 8.46002 194.923 8.70002C195.143 8.94002 195.408 9.13502 195.718 9.28502C196.028 9.42502 196.388 9.49502 196.798 9.49502C197.018 9.49502 197.248 9.46502 197.488 9.40502C197.738 9.33502 197.968 9.24002 198.178 9.12002C198.388 9.00002 198.573 8.85502 198.733 8.68502C198.903 8.50502 199.018 8.30502 199.078 8.08502H199.213V9.21002C199.153 9.21002 199.083 9.23002 199.003 9.27002C198.933 9.31002 198.848 9.36002 198.748 9.42002C198.548 9.54002 198.278 9.67002 197.938 9.81002C197.598 9.94002 197.148 10.005 196.588 10.005C196.138 10.005 195.708 9.94002 195.298 9.81002C194.898 9.68002 194.543 9.48002 194.233 9.21002C193.923 8.94002 193.673 8.59502 193.483 8.17502C193.303 7.75502 193.213 7.25502 193.213 6.67502C193.213 6.30502 193.273 5.93002 193.393 5.55002C193.523 5.17002 193.713 4.83002 193.963 4.53002C194.223 4.22002 194.553 3.97002 194.953 3.78002C195.353 3.59002 195.833 3.49502 196.393 3.49502C196.893 3.49502 197.328 3.58002 197.698 3.75002C198.078 3.92002 198.388 4.15502 198.628 4.45502C198.878 4.75502 199.063 5.11002 199.183 5.52002C199.303 5.93002 199.363 6.38002 199.363 6.87002H194.158ZM196.333 3.99002C195.983 3.99002 195.678 4.06002 195.418 4.20002C195.168 4.34002 194.953 4.52002 194.773 4.74002C194.593 4.96002 194.453 5.21002 194.353 5.49002C194.253 5.77002 194.188 6.05002 194.158 6.33002H198.433C198.423 6.04002 198.368 5.75502 198.268 5.47502C198.178 5.19502 198.048 4.94502 197.878 4.72502C197.708 4.50502 197.493 4.33002 197.233 4.20002C196.973 4.06002 196.673 3.99002 196.333 3.99002ZM202.533 8.92502C202.533 9.00502 202.543 9.09502 202.563 9.19502C202.583 9.28502 202.613 9.37002 202.653 9.45002C202.693 9.53002 202.738 9.60002 202.788 9.66002C202.848 9.72002 202.913 9.75002 202.983 9.75002V9.90002H201.093V9.75002C201.163 9.75002 201.223 9.72502 201.273 9.67502C201.333 9.61502 201.383 9.54502 201.423 9.46502C201.463 9.37502 201.493 9.28502 201.513 9.19502C201.533 9.09502 201.543 9.00502 201.543 8.92502V4.53002C201.543 4.46002 201.533 4.38002 201.513 4.29002C201.493 4.20002 201.463 4.11502 201.423 4.03502C201.383 3.95502 201.333 3.89002 201.273 3.84002C201.223 3.78002 201.163 3.75002 201.093 3.75002V3.60002H202.983V3.75002C202.903 3.75002 202.833 3.78002 202.773 3.84002C202.723 3.89002 202.678 3.95502 202.638 4.03502C202.608 4.11502 202.583 4.20002 202.563 4.29002C202.543 4.38002 202.533 4.46002 202.533 4.53002V6.34502H205.953V4.53002C205.953 4.46002 205.943 4.38002 205.923 4.29002C205.903 4.20002 205.873 4.11502 205.833 4.03502C205.803 3.95502 205.758 3.89002 205.698 3.84002C205.648 3.78002 205.583 3.75002 205.503 3.75002V3.60002H207.393V3.75002C207.313 3.75002 207.243 3.78002 207.183 3.84002C207.133 3.89002 207.088 3.95502 207.048 4.03502C207.008 4.11502 206.978 4.20002 206.958 4.29002C206.948 4.38002 206.943 4.46002 206.943 4.53002V8.92502C206.943 9.00502 206.953 9.09502 206.973 9.19502C206.993 9.28502 207.023 9.37002 207.063 9.45002C207.103 9.53002 207.148 9.60002 207.198 9.66002C207.258 9.72002 207.323 9.75002 207.393 9.75002V9.90002H205.503V9.75002C205.573 9.75002 205.633 9.72502 205.683 9.67502C205.743 9.61502 205.793 9.54502 205.833 9.46502C205.873 9.37502 205.903 9.28502 205.923 9.19502C205.943 9.09502 205.953 9.00502 205.953 8.92502V6.84002H202.533V8.92502ZM215.307 8.92502C215.307 9.00502 215.317 9.09502 215.337 9.19502C215.367 9.28502 215.402 9.37002 215.442 9.45002C215.482 9.53002 215.532 9.60002 215.592 9.66002C215.662 9.72002 215.727 9.75002 215.787 9.75002V9.90002H213.867V9.75002C213.937 9.75002 214.002 9.72502 214.062 9.67502C214.122 9.61502 214.172 9.54502 214.212 9.46502C214.252 9.37502 214.282 9.28502 214.302 9.19502C214.322 9.09502 214.332 9.00502 214.332 8.92502V5.32502L210.762 8.82002V8.92502C210.762 9.00502 210.772 9.09502 210.792 9.19502C210.812 9.28502 210.842 9.37002 210.882 9.45002C210.922 9.53002 210.967 9.60002 211.017 9.66002C211.077 9.72002 211.142 9.75002 211.212 9.75002V9.90002H209.307V9.75002C209.377 9.75002 209.442 9.72502 209.502 9.67502C209.562 9.61502 209.612 9.54502 209.652 9.46502C209.692 9.37502 209.722 9.28502 209.742 9.19502C209.762 9.09502 209.772 9.00502 209.772 8.92502V4.53002C209.772 4.46002 209.762 4.38002 209.742 4.29002C209.722 4.20002 209.692 4.11502 209.652 4.03502C209.612 3.95502 209.562 3.89002 209.502 3.84002C209.442 3.78002 209.377 3.75002 209.307 3.75002V3.60002H211.212V3.75002C211.132 3.75002 211.062 3.78002 211.002 3.84002C210.952 3.89002 210.907 3.95502 210.867 4.03502C210.837 4.11502 210.812 4.20002 210.792 4.29002C210.772 4.38002 210.762 4.46002 210.762 4.53002V8.11502L214.332 4.62002V4.53002C214.332 4.46002 214.322 4.38002 214.302 4.29002C214.282 4.20002 214.252 4.11502 214.212 4.03502C214.172 3.95502 214.122 3.89002 214.062 3.84002C214.002 3.78002 213.937 3.75002 213.867 3.75002V3.60002H215.787V3.75002C215.707 3.75002 215.632 3.78002 215.562 3.84002C215.502 3.89002 215.452 3.95502 215.412 4.03502C215.382 4.11502 215.357 4.20002 215.337 4.29002C215.317 4.38002 215.307 4.46002 215.307 4.53002V8.92502ZM222.466 8.92502C222.466 9.00502 222.476 9.09502 222.496 9.19502C222.516 9.28502 222.546 9.37502 222.586 9.46502C222.636 9.54502 222.686 9.61502 222.736 9.67502C222.796 9.72502 222.866 9.75002 222.946 9.75002V9.90002H220.996V9.75002C221.066 9.75002 221.131 9.72002 221.191 9.66002C221.251 9.60002 221.301 9.53002 221.341 9.45002C221.391 9.37002 221.426 9.28502 221.446 9.19502C221.466 9.09502 221.476 9.00502 221.476 8.92502V6.82502C221.366 6.84502 221.241 6.90502 221.101 7.00502C220.961 7.09502 220.816 7.21502 220.666 7.36502C220.516 7.50502 220.371 7.66002 220.231 7.83002C220.091 8.00002 219.961 8.17002 219.841 8.34002C219.741 8.48002 219.656 8.59502 219.586 8.68502C219.516 8.77502 219.456 8.86002 219.406 8.94002C219.306 9.07002 219.206 9.19502 219.106 9.31502C219.006 9.42502 218.891 9.52502 218.761 9.61502C218.641 9.70502 218.496 9.77502 218.326 9.82502C218.156 9.87502 217.956 9.90002 217.726 9.90002H217.171V9.75002C217.291 9.75002 217.411 9.71502 217.531 9.64502C217.661 9.57502 217.786 9.49002 217.906 9.39002C218.026 9.28002 218.136 9.16502 218.236 9.04502C218.346 8.91502 218.441 8.79502 218.521 8.68502L218.986 8.04002C219.156 7.81002 219.331 7.58502 219.511 7.36502C219.691 7.13502 219.896 6.95502 220.126 6.82502C219.766 6.81502 219.446 6.76502 219.166 6.67502C218.886 6.58502 218.651 6.46502 218.461 6.31502C218.271 6.16502 218.126 5.99502 218.026 5.80502C217.936 5.60502 217.891 5.39502 217.891 5.17502C217.891 4.96502 217.936 4.76502 218.026 4.57502C218.126 4.38502 218.281 4.22002 218.491 4.08002C218.701 3.93002 218.966 3.81502 219.286 3.73502C219.616 3.64502 220.011 3.60002 220.471 3.60002H222.946V3.75002C222.866 3.75002 222.796 3.78002 222.736 3.84002C222.686 3.89002 222.636 3.95502 222.586 4.03502C222.546 4.11502 222.516 4.20002 222.496 4.29002C222.476 4.38002 222.466 4.46002 222.466 4.53002V8.92502ZM218.866 5.08502C218.866 5.23502 218.911 5.38502 219.001 5.53502C219.101 5.68502 219.231 5.82002 219.391 5.94002C219.561 6.06002 219.751 6.16002 219.961 6.24002C220.171 6.31002 220.396 6.34502 220.636 6.34502H221.476V4.08002H220.501C219.901 4.08002 219.476 4.17502 219.226 4.36502C218.986 4.55502 218.866 4.79502 218.866 5.08502Z" fill="white"></path></svg> 