<?xml version="1.0" encoding="UTF-8"?> <svg xmlns="http://www.w3.org/2000/svg" width="249" height="40" viewBox="0 0 249 40" fill="none"><path d="M22.0771 9.74999H22.1521C22.2321 9.74999 22.3021 9.72499 22.3621 9.67499C22.4221 9.61499 22.4721 9.54499 22.5121 9.46499C22.5521 9.37499 22.5821 9.28499 22.6021 9.19499C22.6221 9.09499 22.6321 9.00499 22.6321 8.92499V0.929993C22.6321 0.859993 22.6171 0.779994 22.5871 0.689994C22.5671 0.599994 22.5371 0.514993 22.4971 0.434993C22.4571 0.354993 22.4071 0.289993 22.3471 0.239993C22.2871 0.179993 22.2221 0.149993 22.1521 0.149993H22.0771V-6.49691e-06H29.7571V0.149993H29.6371C29.5671 0.149993 29.5071 0.179993 29.4571 0.239993C29.4071 0.289993 29.3621 0.359993 29.3221 0.449993C29.2921 0.529993 29.2671 0.614993 29.2471 0.704993C29.2271 0.794993 29.2171 0.869993 29.2171 0.929993V8.92499C29.2171 9.00499 29.2221 9.08999 29.2321 9.17999C29.2521 9.26999 29.2771 9.35999 29.3071 9.44999C29.3471 9.52999 29.3921 9.59999 29.4421 9.65999C29.5021 9.71999 29.5671 9.74999 29.6371 9.74999H29.7571V9.89999H27.6571V9.74999H27.7921C27.8621 9.74999 27.9221 9.71999 27.9721 9.65999C28.0321 9.59999 28.0771 9.52999 28.1071 9.44999C28.1471 9.36999 28.1721 9.28499 28.1821 9.19499C28.2021 9.09499 28.2121 9.00499 28.2121 8.92499V0.524994H23.6371V8.92499C23.6371 9.00499 23.6471 9.09499 23.6671 9.19499C23.6871 9.28499 23.7121 9.36999 23.7421 9.44999C23.7821 9.52999 23.8321 9.59999 23.8921 9.65999C23.9521 9.71999 24.0221 9.74999 24.1021 9.74999H24.1771V9.89999H22.0771V9.74999ZM34.7885 10.005C34.2885 10.005 33.8385 9.92499 33.4385 9.76499C33.0385 9.59499 32.6935 9.36999 32.4035 9.08999C32.1235 8.79999 31.9035 8.45999 31.7435 8.06999C31.5935 7.67999 31.5185 7.25499 31.5185 6.79499C31.5185 6.30499 31.6035 5.85999 31.7735 5.45999C31.9435 5.04999 32.1785 4.69999 32.4785 4.40999C32.7785 4.11999 33.1335 3.89499 33.5435 3.73499C33.9535 3.57499 34.3985 3.49499 34.8785 3.49499C35.3585 3.49499 35.7985 3.57499 36.1985 3.73499C36.5985 3.88499 36.9435 4.09999 37.2335 4.37999C37.5235 4.65999 37.7485 4.99499 37.9085 5.38499C38.0685 5.76499 38.1485 6.18499 38.1485 6.64499C38.1485 7.07499 38.0735 7.49499 37.9235 7.90499C37.7835 8.30499 37.5685 8.65999 37.2785 8.96999C36.9985 9.27999 36.6485 9.52999 36.2285 9.71999C35.8185 9.90999 35.3385 10.005 34.7885 10.005ZM34.6985 3.98999C34.3385 4.00999 34.0185 4.09999 33.7385 4.25999C33.4685 4.40999 33.2385 4.60999 33.0485 4.85999C32.8685 5.09999 32.7285 5.37499 32.6285 5.68499C32.5385 5.99499 32.4935 6.30999 32.4935 6.62999C32.4935 6.99999 32.5485 7.35999 32.6585 7.70999C32.7785 8.04999 32.9435 8.35499 33.1535 8.62499C33.3735 8.89499 33.6335 9.10999 33.9335 9.26999C34.2335 9.42999 34.5685 9.50999 34.9385 9.50999C35.3085 9.50999 35.6335 9.42999 35.9135 9.26999C36.2035 9.10999 36.4435 8.90499 36.6335 8.65499C36.8235 8.39499 36.9635 8.10499 37.0535 7.78499C37.1535 7.46499 37.2035 7.14499 37.2035 6.82499C37.2035 6.49499 37.1535 6.16499 37.0535 5.83499C36.9535 5.49499 36.7985 5.18999 36.5885 4.91999C36.3785 4.63999 36.1135 4.41499 35.7935 4.24499C35.4835 4.07499 35.1185 3.98999 34.6985 3.98999ZM47.14 8.71499C47.2 8.83499 47.275 8.95499 47.365 9.07499C47.465 9.19499 47.57 9.30499 47.68 9.40499C47.79 9.49499 47.905 9.57499 48.025 9.64499C48.155 9.70499 48.275 9.73999 48.385 9.74999V9.89999H47.86C47.44 9.89999 47.11 9.81499 46.87 9.64499C46.64 9.46499 46.455 9.23999 46.315 8.96999L45.595 7.55999C45.505 7.32999 45.345 7.12999 45.115 6.95999C44.885 6.78999 44.645 6.69499 44.395 6.67499V8.90999C44.395 8.97999 44.405 9.06499 44.425 9.16499C44.445 9.25499 44.475 9.34499 44.515 9.43499C44.565 9.51499 44.62 9.58499 44.68 9.64499C44.74 9.70499 44.81 9.73999 44.89 9.74999V9.89999H42.97V9.74999C43.05 9.73999 43.12 9.70499 43.18 9.64499C43.24 9.58499 43.29 9.51499 43.33 9.43499C43.38 9.34499 43.415 9.25499 43.435 9.16499C43.455 9.07499 43.465 8.98999 43.465 8.90999V6.67499C43.205 6.69499 42.965 6.78999 42.745 6.95999C42.535 7.12999 42.375 7.32999 42.265 7.55999L41.56 8.96999C41.43 9.22999 41.24 9.44999 40.99 9.62999C40.75 9.80999 40.42 9.89999 40 9.89999H39.475V9.74999C39.585 9.73999 39.7 9.70499 39.82 9.64499C39.94 9.57499 40.055 9.49499 40.165 9.40499C40.285 9.30499 40.39 9.19499 40.48 9.07499C40.58 8.95499 40.66 8.83499 40.72 8.71499L41.425 7.25999C41.545 7.02999 41.745 6.82999 42.025 6.65999C42.315 6.47999 42.645 6.37999 43.015 6.35999C42.635 5.99999 42.23 5.61499 41.8 5.20499C41.37 4.79499 40.96 4.40999 40.57 4.04999C40.54 4.02999 40.46 3.97999 40.33 3.89999C40.21 3.80999 40.1 3.75999 40 3.74999V3.59999H41.155V3.76499C41.125 3.78499 41.11 3.79999 41.11 3.80999C41.11 3.85999 41.125 3.90499 41.155 3.94499L43.465 6.08999V4.54499C43.465 4.40499 43.42 4.24499 43.33 4.06499C43.25 3.87499 43.13 3.76999 42.97 3.74999V3.59999H44.89V3.74999C44.81 3.75999 44.74 3.79499 44.68 3.85499C44.62 3.90499 44.57 3.96999 44.53 4.04999C44.49 4.12999 44.455 4.21499 44.425 4.30499C44.405 4.39499 44.395 4.47499 44.395 4.54499V6.08999L46.72 3.91499C46.74 3.89499 46.75 3.85999 46.75 3.80999C46.75 3.79999 46.735 3.78499 46.705 3.76499V3.59999H47.86V3.74999C47.81 3.74999 47.75 3.76499 47.68 3.79499C47.62 3.82499 47.56 3.85999 47.5 3.89999C47.43 3.93999 47.36 3.98999 47.29 4.04999L44.845 6.35999C45.245 6.36999 45.58 6.45999 45.85 6.62999C46.12 6.78999 46.315 6.99999 46.435 7.25999L47.14 8.71499ZM53.7543 9.89999V9.13499L53.6793 9.20999C53.4293 9.45999 53.1393 9.65499 52.8093 9.79499C52.4893 9.93499 52.0993 10.005 51.6393 10.005C51.2893 10.005 50.9893 9.96499 50.7393 9.88499C50.4893 9.80499 50.2843 9.69499 50.1243 9.55499C49.9643 9.40499 49.8443 9.23499 49.7643 9.04499C49.6943 8.85499 49.6593 8.65499 49.6593 8.44499C49.6593 8.10499 49.7493 7.80499 49.9293 7.54499C50.1193 7.28499 50.3893 7.05499 50.7393 6.85499C51.0893 6.65499 51.5143 6.47499 52.0143 6.31499C52.5243 6.14499 53.1043 5.97999 53.7543 5.81999C53.7343 5.42999 53.6543 5.11499 53.5143 4.87499C53.3743 4.63499 53.2093 4.44999 53.0193 4.31999C52.8293 4.17999 52.6293 4.08999 52.4193 4.04999C52.2093 3.99999 52.0293 3.97499 51.8793 3.97499C51.6193 3.97499 51.3893 4.01499 51.1893 4.09499C50.9893 4.16499 50.8143 4.26499 50.6643 4.39499C50.5143 4.51499 50.3893 4.65499 50.2893 4.81499C50.1993 4.97499 50.1293 5.13499 50.0793 5.29499H49.9443V4.12499C50.0343 4.12499 50.1393 4.09499 50.2593 4.03499C50.3793 3.96499 50.5193 3.88999 50.6793 3.80999C50.8493 3.72999 51.0493 3.65999 51.2793 3.59999C51.5193 3.52999 51.8043 3.49499 52.1343 3.49499C52.6843 3.49499 53.1293 3.56499 53.4693 3.70499C53.8093 3.84499 54.0693 4.02999 54.2493 4.25999C54.4393 4.48999 54.5643 4.75499 54.6243 5.05499C54.6843 5.34499 54.7143 5.64499 54.7143 5.95499V8.92499C54.7143 9.12499 54.7643 9.31499 54.8643 9.49499C54.9643 9.66499 55.0993 9.74999 55.2693 9.74999V9.89999H53.7543ZM53.7543 8.47499V6.32999L53.6043 6.35999C53.3643 6.41999 53.0693 6.49999 52.7193 6.59999C52.3793 6.69999 52.0543 6.82999 51.7443 6.98999C51.4343 7.14999 51.1693 7.33999 50.9493 7.55999C50.7293 7.77999 50.6193 8.03499 50.6193 8.32499C50.6193 8.64499 50.7493 8.90999 51.0093 9.11999C51.2693 9.32999 51.6093 9.43499 52.0293 9.43499C52.3593 9.43499 52.6493 9.36499 52.8993 9.22499C53.1493 9.07499 53.3793 8.88499 53.5893 8.65499L53.7543 8.47499ZM61.5998 9.74999C61.6698 9.74999 61.7498 9.71999 61.8398 9.65999C61.9298 9.59999 61.9748 9.51499 61.9748 9.40499C61.9748 9.38499 61.9648 9.34499 61.9448 9.28499C61.9348 9.21499 61.9098 9.13999 61.8698 9.05999L59.9648 4.55999L57.9848 9.28499C57.8148 9.69499 57.4798 9.89999 56.9798 9.89999H56.6498V9.74999C56.7898 9.74999 56.9398 9.67999 57.0998 9.53999C57.2698 9.38999 57.4048 9.21499 57.5048 9.01499L59.5448 4.24499C59.5948 4.11499 59.6198 4.00999 59.6198 3.92999C59.6198 3.80999 59.5398 3.74999 59.3798 3.74999V3.59999H60.5948L62.9048 8.99999C62.9748 9.14999 63.0748 9.31499 63.2048 9.49499C63.3448 9.66499 63.4748 9.74999 63.5948 9.74999V9.89999H61.5998V9.74999ZM67.3473 12.045C67.2073 12.465 67.0273 12.75 66.8073 12.9C66.5973 13.05 66.3773 13.125 66.1473 13.125C65.9973 13.125 65.8623 13.1 65.7423 13.05C65.6223 13 65.5173 12.945 65.4273 12.885C65.3373 12.825 65.2673 12.77 65.2173 12.72C65.1773 12.67 65.1573 12.645 65.1573 12.645L65.6523 11.43C65.6923 11.59 65.7423 11.725 65.8023 11.835C65.8523 11.935 65.9223 12.025 66.0123 12.105C66.1023 12.185 66.2123 12.225 66.3423 12.225C66.5823 12.225 66.7723 12.05 66.9123 11.7L67.6323 9.85499L65.2323 4.39499C65.1523 4.22499 65.0673 4.07499 64.9773 3.94499C64.8973 3.81499 64.7573 3.74999 64.5573 3.74999V3.59999H66.4923V3.74999C66.4523 3.74999 66.4023 3.78499 66.3423 3.85499C66.2823 3.92499 66.2523 4.01499 66.2523 4.12499C66.2523 4.20499 66.2723 4.28499 66.3123 4.36499L68.1573 8.60999L69.9273 4.27499C69.9573 4.20499 69.9723 4.13999 69.9723 4.07999C69.9723 3.97999 69.9373 3.89999 69.8673 3.83999C69.8073 3.77999 69.7423 3.74999 69.6723 3.74999V3.59999H71.1273V3.74999C70.9673 3.74999 70.8273 3.81999 70.7073 3.95999C70.5973 4.08999 70.5073 4.23999 70.4373 4.40999L67.3473 12.045ZM78.5168 8.92499C78.5168 9.00499 78.5268 9.09499 78.5468 9.19499C78.5768 9.28499 78.6118 9.36999 78.6518 9.44999C78.6918 9.52999 78.7418 9.59999 78.8018 9.65999C78.8718 9.71999 78.9368 9.74999 78.9968 9.74999V9.89999H77.0768V9.74999C77.1468 9.74999 77.2118 9.72499 77.2718 9.67499C77.3318 9.61499 77.3818 9.54499 77.4218 9.46499C77.4618 9.37499 77.4918 9.28499 77.5118 9.19499C77.5318 9.09499 77.5418 9.00499 77.5418 8.92499V5.32499L73.9718 8.81999V8.92499C73.9718 9.00499 73.9818 9.09499 74.0018 9.19499C74.0218 9.28499 74.0518 9.36999 74.0918 9.44999C74.1318 9.52999 74.1768 9.59999 74.2268 9.65999C74.2868 9.71999 74.3518 9.74999 74.4218 9.74999V9.89999H72.5168V9.74999C72.5868 9.74999 72.6518 9.72499 72.7118 9.67499C72.7718 9.61499 72.8218 9.54499 72.8618 9.46499C72.9018 9.37499 72.9318 9.28499 72.9518 9.19499C72.9718 9.09499 72.9818 9.00499 72.9818 8.92499V4.52999C72.9818 4.45999 72.9718 4.37999 72.9518 4.28999C72.9318 4.19999 72.9018 4.11499 72.8618 4.03499C72.8218 3.95499 72.7718 3.88999 72.7118 3.83999C72.6518 3.77999 72.5868 3.74999 72.5168 3.74999V3.59999H74.4218V3.74999C74.3418 3.74999 74.2718 3.77999 74.2118 3.83999C74.1618 3.88999 74.1168 3.95499 74.0768 4.03499C74.0468 4.11499 74.0218 4.19999 74.0018 4.28999C73.9818 4.37999 73.9718 4.45999 73.9718 4.52999V8.11499L77.5418 4.61999V4.52999C77.5418 4.45999 77.5318 4.37999 77.5118 4.28999C77.4918 4.19999 77.4618 4.11499 77.4218 4.03499C77.3818 3.95499 77.3318 3.88999 77.2718 3.83999C77.2118 3.77999 77.1468 3.74999 77.0768 3.74999V3.59999H78.9968V3.74999C78.9168 3.74999 78.8418 3.77999 78.7718 3.83999C78.7118 3.88999 78.6618 3.95499 78.6218 4.03499C78.5918 4.11499 78.5668 4.19999 78.5468 4.28999C78.5268 4.37999 78.5168 4.45999 78.5168 4.52999V8.92499ZM77.3618 1.57499C77.3618 1.73499 77.3218 1.90999 77.2418 2.09999C77.1618 2.27999 77.0468 2.44999 76.8968 2.60999C76.7468 2.75999 76.5668 2.88499 76.3568 2.98499C76.1568 3.08499 75.9318 3.13499 75.6818 3.13499C75.4518 3.13499 75.2318 3.08999 75.0218 2.99999C74.8218 2.89999 74.6468 2.77499 74.4968 2.62499C74.3468 2.47499 74.2268 2.30999 74.1368 2.12999C74.0468 1.93999 74.0018 1.75499 74.0018 1.57499H74.0918C74.1018 1.63499 74.1318 1.71999 74.1818 1.82999C74.2418 1.92999 74.3318 2.03499 74.4518 2.14499C74.5718 2.25499 74.7268 2.34999 74.9168 2.42999C75.1168 2.50999 75.3668 2.54999 75.6668 2.54999C75.9768 2.54999 76.2318 2.50999 76.4318 2.42999C76.6318 2.34999 76.7918 2.25499 76.9118 2.14499C77.0318 2.03499 77.1168 1.92999 77.1668 1.82999C77.2168 1.71999 77.2518 1.63499 77.2718 1.57499H77.3618ZM86.4262 9.35999C86.3462 9.35999 86.2712 9.37999 86.2012 9.41999C86.1312 9.44999 86.0512 9.48999 85.9612 9.53999C85.7912 9.63999 85.5662 9.74499 85.2862 9.85499C85.0062 9.95499 84.6562 10.005 84.2362 10.005C83.7262 10.005 83.2562 9.92499 82.8262 9.76499C82.4062 9.59499 82.0412 9.36499 81.7312 9.07499C81.4212 8.77499 81.1812 8.42999 81.0112 8.03999C80.8412 7.63999 80.7562 7.20999 80.7562 6.74999C80.7562 6.31999 80.8312 5.90999 80.9812 5.51999C81.1412 5.12999 81.3662 4.78499 81.6562 4.48499C81.9462 4.18499 82.3012 3.94499 82.7212 3.76499C83.1512 3.58499 83.6362 3.49499 84.1762 3.49499C84.5462 3.49499 84.8462 3.53999 85.0762 3.62999C85.3062 3.70999 85.5012 3.78999 85.6612 3.86999C85.7512 3.91999 85.8362 3.95999 85.9162 3.98999C86.0062 4.01999 86.0962 4.03499 86.1862 4.03499V5.17499H86.0362C85.9862 4.98499 85.8962 4.81999 85.7662 4.67999C85.6362 4.52999 85.4862 4.40499 85.3162 4.30499C85.1462 4.20499 84.9612 4.12999 84.7612 4.07999C84.5612 4.02999 84.3662 4.00499 84.1762 4.00499C83.7662 4.00499 83.4062 4.07999 83.0962 4.22999C82.7862 4.36999 82.5312 4.55999 82.3312 4.79999C82.1312 5.02999 81.9812 5.29499 81.8812 5.59499C81.7812 5.89499 81.7312 6.20499 81.7312 6.52499C81.7312 6.89499 81.7862 7.25999 81.8962 7.61999C82.0162 7.96999 82.1812 8.28499 82.3912 8.56499C82.6112 8.84499 82.8762 9.06999 83.1862 9.23999C83.5062 9.40999 83.8662 9.49499 84.2662 9.49499C84.5462 9.49499 84.8062 9.45499 85.0462 9.37499C85.2862 9.29499 85.4912 9.18999 85.6612 9.05999C85.8412 8.92999 85.9812 8.78999 86.0812 8.63999C86.1912 8.47999 86.2562 8.32999 86.2762 8.18999H86.4262V9.35999ZM92.9444 5.17499C92.9444 5.06499 92.9244 4.94499 92.8844 4.81499C92.8444 4.68499 92.7844 4.56999 92.7044 4.46999C92.6244 4.35999 92.5244 4.26999 92.4044 4.19999C92.2844 4.12999 92.1444 4.09499 91.9844 4.09499H90.6644V8.92499C90.6644 9.00499 90.6744 9.08999 90.6944 9.17999C90.7144 9.26999 90.7444 9.35999 90.7844 9.44999C90.8344 9.52999 90.8844 9.59999 90.9344 9.65999C90.9944 9.71999 91.0644 9.74999 91.1444 9.74999V9.89999H89.1944V9.74999C89.2744 9.74999 89.3444 9.71999 89.4044 9.65999C89.4644 9.59999 89.5144 9.52999 89.5544 9.44999C89.6044 9.36999 89.6394 9.28499 89.6594 9.19499C89.6794 9.09499 89.6894 9.00499 89.6894 8.92499V4.09499H88.3994C88.2394 4.09499 88.0994 4.12999 87.9794 4.19999C87.8594 4.26999 87.7594 4.35999 87.6794 4.46999C87.6094 4.56999 87.5544 4.68499 87.5144 4.81499C87.4744 4.94499 87.4544 5.06499 87.4544 5.17499H87.3044V3.59999H93.0794V5.17499H92.9444ZM98.3489 9.89999V9.13499L98.2739 9.20999C98.0239 9.45999 97.7339 9.65499 97.4039 9.79499C97.0839 9.93499 96.6939 10.005 96.2339 10.005C95.8839 10.005 95.5839 9.96499 95.3339 9.88499C95.0839 9.80499 94.8789 9.69499 94.7189 9.55499C94.5589 9.40499 94.4389 9.23499 94.3589 9.04499C94.2889 8.85499 94.2539 8.65499 94.2539 8.44499C94.2539 8.10499 94.3439 7.80499 94.5239 7.54499C94.7139 7.28499 94.9839 7.05499 95.3339 6.85499C95.6839 6.65499 96.1089 6.47499 96.6089 6.31499C97.1189 6.14499 97.6989 5.97999 98.3489 5.81999C98.3289 5.42999 98.2489 5.11499 98.1089 4.87499C97.9689 4.63499 97.8039 4.44999 97.6139 4.31999C97.4239 4.17999 97.2239 4.08999 97.0139 4.04999C96.8039 3.99999 96.6239 3.97499 96.4739 3.97499C96.2139 3.97499 95.9839 4.01499 95.7839 4.09499C95.5839 4.16499 95.4089 4.26499 95.2589 4.39499C95.1089 4.51499 94.9839 4.65499 94.8839 4.81499C94.7939 4.97499 94.7239 5.13499 94.6739 5.29499H94.5389V4.12499C94.6289 4.12499 94.7339 4.09499 94.8539 4.03499C94.9739 3.96499 95.1139 3.88999 95.2739 3.80999C95.4439 3.72999 95.6439 3.65999 95.8739 3.59999C96.1139 3.52999 96.3989 3.49499 96.7289 3.49499C97.2789 3.49499 97.7239 3.56499 98.0639 3.70499C98.4039 3.84499 98.6639 4.02999 98.8439 4.25999C99.0339 4.48999 99.1589 4.75499 99.2189 5.05499C99.2789 5.34499 99.3089 5.64499 99.3089 5.95499V8.92499C99.3089 9.12499 99.3589 9.31499 99.4589 9.49499C99.5589 9.66499 99.6939 9.74999 99.8639 9.74999V9.89999H98.3489ZM98.3489 8.47499V6.32999L98.1989 6.35999C97.9589 6.41999 97.6639 6.49999 97.3139 6.59999C96.9739 6.69999 96.6489 6.82999 96.3389 6.98999C96.0289 7.14999 95.7639 7.33999 95.5439 7.55999C95.3239 7.77999 95.2139 8.03499 95.2139 8.32499C95.2139 8.64499 95.3439 8.90999 95.6039 9.11999C95.8639 9.32999 96.2039 9.43499 96.6239 9.43499C96.9539 9.43499 97.2439 9.36499 97.4939 9.22499C97.7439 9.07499 97.9739 8.88499 98.1839 8.65499L98.3489 8.47499ZM101.829 8.50499C102.119 8.50499 102.329 8.60499 102.459 8.80499C102.599 9.00499 102.669 9.23499 102.669 9.49499C102.669 9.64499 102.649 9.80999 102.609 9.98999C102.569 10.18 102.489 10.365 102.369 10.545C102.259 10.735 102.094 10.92 101.874 11.1C101.664 11.29 101.384 11.465 101.034 11.625L100.959 11.49C101.159 11.31 101.314 11.145 101.424 10.995C101.544 10.855 101.629 10.725 101.679 10.605C101.739 10.495 101.774 10.39 101.784 10.29C101.804 10.19 101.814 10.085 101.814 9.97499C101.814 9.89499 101.789 9.83499 101.739 9.79499C101.689 9.74499 101.634 9.69999 101.574 9.65999C101.494 9.60999 101.414 9.55499 101.334 9.49499C101.254 9.42499 101.214 9.30999 101.214 9.14999C101.214 8.95999 101.274 8.80499 101.394 8.68499C101.514 8.56499 101.659 8.50499 101.829 8.50499ZM112.402 5.06999C112.402 5.30999 112.297 5.56999 112.087 5.84999C111.877 6.11999 111.592 6.33499 111.232 6.49499C111.792 6.61499 112.192 6.82499 112.432 7.12499C112.682 7.41499 112.807 7.72499 112.807 8.05499C112.807 8.36499 112.732 8.63999 112.582 8.87999C112.432 9.11999 112.227 9.31999 111.967 9.47999C111.717 9.63999 111.427 9.75999 111.097 9.83999C110.777 9.91999 110.442 9.95999 110.092 9.95999C109.762 9.95999 109.467 9.92999 109.207 9.86999C108.947 9.79999 108.722 9.72999 108.532 9.65999C108.342 9.57999 108.182 9.50999 108.052 9.44999C107.932 9.37999 107.837 9.34499 107.767 9.34499V8.12999H107.902C107.922 8.33999 107.992 8.52999 108.112 8.69999C108.232 8.85999 108.382 8.99999 108.562 9.11999C108.752 9.22999 108.962 9.31499 109.192 9.37499C109.432 9.43499 109.677 9.46499 109.927 9.46499C110.157 9.46499 110.382 9.43999 110.602 9.38999C110.832 9.33999 111.032 9.26499 111.202 9.16499C111.382 9.05499 111.527 8.91999 111.637 8.75999C111.747 8.59999 111.802 8.41499 111.802 8.20499C111.802 7.98499 111.742 7.78999 111.622 7.61999C111.502 7.43999 111.342 7.28999 111.142 7.16999C110.952 7.04999 110.737 6.95999 110.497 6.89999C110.267 6.83999 110.037 6.80999 109.807 6.80999H109.327V6.32999H109.852C110.062 6.32999 110.262 6.29499 110.452 6.22499C110.652 6.15499 110.822 6.06499 110.962 5.95499C111.102 5.84499 111.212 5.71999 111.292 5.57999C111.382 5.42999 111.427 5.27999 111.427 5.12999C111.427 4.94999 111.377 4.78999 111.277 4.64999C111.187 4.50999 111.062 4.38999 110.902 4.28999C110.742 4.18999 110.562 4.11499 110.362 4.06499C110.172 4.00499 109.972 3.97499 109.762 3.97499C109.572 3.97499 109.387 3.99999 109.207 4.04999C109.027 4.08999 108.862 4.15999 108.712 4.25999C108.572 4.35999 108.452 4.48499 108.352 4.63499C108.262 4.78499 108.202 4.96499 108.172 5.17499H108.037V4.00499C108.117 4.00499 108.192 3.99499 108.262 3.97499C108.332 3.94499 108.412 3.90499 108.502 3.85499C108.662 3.77499 108.857 3.69999 109.087 3.62999C109.317 3.54999 109.607 3.50999 109.957 3.50999C110.737 3.50999 111.337 3.64999 111.757 3.92999C112.187 4.20999 112.402 4.58999 112.402 5.06999ZM118.43 9.89999V9.13499L118.355 9.20999C118.105 9.45999 117.815 9.65499 117.485 9.79499C117.165 9.93499 116.775 10.005 116.315 10.005C115.965 10.005 115.665 9.96499 115.415 9.88499C115.165 9.80499 114.96 9.69499 114.8 9.55499C114.64 9.40499 114.52 9.23499 114.44 9.04499C114.37 8.85499 114.335 8.65499 114.335 8.44499C114.335 8.10499 114.425 7.80499 114.605 7.54499C114.795 7.28499 115.065 7.05499 115.415 6.85499C115.765 6.65499 116.19 6.47499 116.69 6.31499C117.2 6.14499 117.78 5.97999 118.43 5.81999C118.41 5.42999 118.33 5.11499 118.19 4.87499C118.05 4.63499 117.885 4.44999 117.695 4.31999C117.505 4.17999 117.305 4.08999 117.095 4.04999C116.885 3.99999 116.705 3.97499 116.555 3.97499C116.295 3.97499 116.065 4.01499 115.865 4.09499C115.665 4.16499 115.49 4.26499 115.34 4.39499C115.19 4.51499 115.065 4.65499 114.965 4.81499C114.875 4.97499 114.805 5.13499 114.755 5.29499H114.62V4.12499C114.71 4.12499 114.815 4.09499 114.935 4.03499C115.055 3.96499 115.195 3.88999 115.355 3.80999C115.525 3.72999 115.725 3.65999 115.955 3.59999C116.195 3.52999 116.48 3.49499 116.81 3.49499C117.36 3.49499 117.805 3.56499 118.145 3.70499C118.485 3.84499 118.745 4.02999 118.925 4.25999C119.115 4.48999 119.24 4.75499 119.3 5.05499C119.36 5.34499 119.39 5.64499 119.39 5.95499V8.92499C119.39 9.12499 119.44 9.31499 119.54 9.49499C119.64 9.66499 119.775 9.74999 119.945 9.74999V9.89999H118.43ZM118.43 8.47499V6.32999L118.28 6.35999C118.04 6.41999 117.745 6.49999 117.395 6.59999C117.055 6.69999 116.73 6.82999 116.42 6.98999C116.11 7.14999 115.845 7.33999 115.625 7.55999C115.405 7.77999 115.295 8.03499 115.295 8.32499C115.295 8.64499 115.425 8.90999 115.685 9.11999C115.945 9.32999 116.285 9.43499 116.705 9.43499C117.035 9.43499 117.325 9.36499 117.575 9.22499C117.825 9.07499 118.055 8.88499 118.265 8.65499L118.43 8.47499ZM123.246 8.92499C123.246 9.00499 123.256 9.09499 123.276 9.19499C123.296 9.28499 123.321 9.36999 123.351 9.44999C123.391 9.52999 123.436 9.59999 123.486 9.65999C123.546 9.71999 123.616 9.74999 123.696 9.74999V9.89999H121.791V9.74999C121.871 9.74999 121.941 9.72499 122.001 9.67499C122.061 9.61499 122.106 9.54499 122.136 9.46499C122.176 9.37499 122.206 9.28499 122.226 9.19499C122.246 9.09499 122.256 9.00499 122.256 8.92499V4.52999C122.256 4.45999 122.246 4.37999 122.226 4.28999C122.206 4.18999 122.176 4.10499 122.136 4.03499C122.096 3.95499 122.046 3.88999 121.986 3.83999C121.926 3.77999 121.861 3.74999 121.791 3.74999V3.59999H128.016V3.74999C127.856 3.74999 127.736 3.84499 127.656 4.03499C127.576 4.21499 127.536 4.37999 127.536 4.52999V8.92499C127.536 9.00499 127.546 9.09499 127.566 9.19499C127.586 9.28499 127.616 9.36999 127.656 9.44999C127.696 9.52999 127.746 9.59999 127.806 9.65999C127.876 9.71999 127.946 9.74999 128.016 9.74999V9.89999H126.081V9.74999C126.171 9.74999 126.241 9.72499 126.291 9.67499C126.351 9.61499 126.401 9.54499 126.441 9.46499C126.481 9.37499 126.506 9.28499 126.516 9.19499C126.536 9.09499 126.546 9.00499 126.546 8.92499V4.12499H123.246V8.92499ZM133.037 10.005C132.537 10.005 132.087 9.92499 131.687 9.76499C131.287 9.59499 130.942 9.36999 130.652 9.08999C130.372 8.79999 130.152 8.45999 129.992 8.06999C129.842 7.67999 129.767 7.25499 129.767 6.79499C129.767 6.30499 129.852 5.85999 130.022 5.45999C130.192 5.04999 130.427 4.69999 130.727 4.40999C131.027 4.11999 131.382 3.89499 131.792 3.73499C132.202 3.57499 132.647 3.49499 133.127 3.49499C133.607 3.49499 134.047 3.57499 134.447 3.73499C134.847 3.88499 135.192 4.09999 135.482 4.37999C135.772 4.65999 135.997 4.99499 136.157 5.38499C136.317 5.76499 136.397 6.18499 136.397 6.64499C136.397 7.07499 136.322 7.49499 136.172 7.90499C136.032 8.30499 135.817 8.65999 135.527 8.96999C135.247 9.27999 134.897 9.52999 134.477 9.71999C134.067 9.90999 133.587 10.005 133.037 10.005ZM132.947 3.98999C132.587 4.00999 132.267 4.09999 131.987 4.25999C131.717 4.40999 131.487 4.60999 131.297 4.85999C131.117 5.09999 130.977 5.37499 130.877 5.68499C130.787 5.99499 130.742 6.30999 130.742 6.62999C130.742 6.99999 130.797 7.35999 130.907 7.70999C131.027 8.04999 131.192 8.35499 131.402 8.62499C131.622 8.89499 131.882 9.10999 132.182 9.26999C132.482 9.42999 132.817 9.50999 133.187 9.50999C133.557 9.50999 133.882 9.42999 134.162 9.26999C134.452 9.10999 134.692 8.90499 134.882 8.65499C135.072 8.39499 135.212 8.10499 135.302 7.78499C135.402 7.46499 135.452 7.14499 135.452 6.82499C135.452 6.49499 135.402 6.16499 135.302 5.83499C135.202 5.49499 135.047 5.18999 134.837 4.91999C134.627 4.63999 134.362 4.41499 134.042 4.24499C133.732 4.07499 133.367 3.98999 132.947 3.98999ZM142.688 9.74999C142.758 9.74999 142.838 9.71999 142.928 9.65999C143.018 9.59999 143.063 9.51499 143.063 9.40499C143.063 9.38499 143.053 9.34499 143.033 9.28499C143.023 9.21499 142.998 9.13999 142.958 9.05999L141.053 4.55999L139.073 9.28499C138.903 9.69499 138.568 9.89999 138.068 9.89999H137.738V9.74999C137.878 9.74999 138.028 9.67999 138.188 9.53999C138.358 9.38999 138.493 9.21499 138.593 9.01499L140.633 4.24499C140.683 4.11499 140.708 4.00999 140.708 3.92999C140.708 3.80999 140.628 3.74999 140.468 3.74999V3.59999H141.683L143.993 8.99999C144.063 9.14999 144.163 9.31499 144.293 9.49499C144.433 9.66499 144.563 9.74999 144.683 9.74999V9.89999H142.688V9.74999ZM147.506 8.92499C147.506 9.00499 147.516 9.09499 147.536 9.19499C147.556 9.28499 147.586 9.36999 147.626 9.44999C147.666 9.52999 147.711 9.59999 147.761 9.65999C147.821 9.71999 147.886 9.74999 147.956 9.74999V9.89999H146.066V9.74999C146.136 9.74999 146.196 9.72499 146.246 9.67499C146.306 9.61499 146.356 9.54499 146.396 9.46499C146.436 9.37499 146.466 9.28499 146.486 9.19499C146.506 9.09499 146.516 9.00499 146.516 8.92499V4.52999C146.516 4.45999 146.506 4.37999 146.486 4.28999C146.466 4.19999 146.436 4.11499 146.396 4.03499C146.356 3.95499 146.306 3.88999 146.246 3.83999C146.196 3.77999 146.136 3.74999 146.066 3.74999V3.59999H147.956V3.74999C147.876 3.74999 147.806 3.77999 147.746 3.83999C147.696 3.88999 147.651 3.95499 147.611 4.03499C147.581 4.11499 147.556 4.19999 147.536 4.28999C147.516 4.37999 147.506 4.45999 147.506 4.52999V6.34499H150.926V4.52999C150.926 4.45999 150.916 4.37999 150.896 4.28999C150.876 4.19999 150.846 4.11499 150.806 4.03499C150.776 3.95499 150.731 3.88999 150.671 3.83999C150.621 3.77999 150.556 3.74999 150.476 3.74999V3.59999H152.366V3.74999C152.286 3.74999 152.216 3.77999 152.156 3.83999C152.106 3.88999 152.061 3.95499 152.021 4.03499C151.981 4.11499 151.951 4.19999 151.931 4.28999C151.921 4.37999 151.916 4.45999 151.916 4.52999V8.92499C151.916 9.00499 151.926 9.09499 151.946 9.19499C151.966 9.28499 151.996 9.36999 152.036 9.44999C152.076 9.52999 152.121 9.59999 152.171 9.65999C152.231 9.71999 152.296 9.74999 152.366 9.74999V9.89999H150.476V9.74999C150.546 9.74999 150.606 9.72499 150.656 9.67499C150.716 9.61499 150.766 9.54499 150.806 9.46499C150.846 9.37499 150.876 9.28499 150.896 9.19499C150.916 9.09499 150.926 9.00499 150.926 8.92499V6.83999H147.506V8.92499ZM160.279 8.92499C160.279 9.00499 160.289 9.09499 160.309 9.19499C160.339 9.28499 160.374 9.36999 160.414 9.44999C160.454 9.52999 160.504 9.59999 160.564 9.65999C160.634 9.71999 160.699 9.74999 160.759 9.74999V9.89999H158.839V9.74999C158.909 9.74999 158.974 9.72499 159.034 9.67499C159.094 9.61499 159.144 9.54499 159.184 9.46499C159.224 9.37499 159.254 9.28499 159.274 9.19499C159.294 9.09499 159.304 9.00499 159.304 8.92499V5.32499L155.734 8.81999V8.92499C155.734 9.00499 155.744 9.09499 155.764 9.19499C155.784 9.28499 155.814 9.36999 155.854 9.44999C155.894 9.52999 155.939 9.59999 155.989 9.65999C156.049 9.71999 156.114 9.74999 156.184 9.74999V9.89999H154.279V9.74999C154.349 9.74999 154.414 9.72499 154.474 9.67499C154.534 9.61499 154.584 9.54499 154.624 9.46499C154.664 9.37499 154.694 9.28499 154.714 9.19499C154.734 9.09499 154.744 9.00499 154.744 8.92499V4.52999C154.744 4.45999 154.734 4.37999 154.714 4.28999C154.694 4.19999 154.664 4.11499 154.624 4.03499C154.584 3.95499 154.534 3.88999 154.474 3.83999C154.414 3.77999 154.349 3.74999 154.279 3.74999V3.59999H156.184V3.74999C156.104 3.74999 156.034 3.77999 155.974 3.83999C155.924 3.88999 155.879 3.95499 155.839 4.03499C155.809 4.11499 155.784 4.19999 155.764 4.28999C155.744 4.37999 155.734 4.45999 155.734 4.52999V8.11499L159.304 4.61999V4.52999C159.304 4.45999 159.294 4.37999 159.274 4.28999C159.254 4.19999 159.224 4.11499 159.184 4.03499C159.144 3.95499 159.094 3.88999 159.034 3.83999C158.974 3.77999 158.909 3.74999 158.839 3.74999V3.59999H160.759V3.74999C160.679 3.74999 160.604 3.77999 160.534 3.83999C160.474 3.88999 160.424 3.95499 160.384 4.03499C160.354 4.11499 160.329 4.19999 160.309 4.28999C160.289 4.37999 160.279 4.45999 160.279 4.52999V8.92499ZM167.724 5.17499C167.724 5.06499 167.704 4.94499 167.664 4.81499C167.624 4.68499 167.564 4.56999 167.484 4.46999C167.404 4.35999 167.304 4.26999 167.184 4.19999C167.064 4.12999 166.924 4.09499 166.764 4.09499H165.444V8.92499C165.444 9.00499 165.454 9.08999 165.474 9.17999C165.494 9.26999 165.524 9.35999 165.564 9.44999C165.614 9.52999 165.664 9.59999 165.714 9.65999C165.774 9.71999 165.844 9.74999 165.924 9.74999V9.89999H163.974V9.74999C164.054 9.74999 164.124 9.71999 164.184 9.65999C164.244 9.59999 164.294 9.52999 164.334 9.44999C164.384 9.36999 164.419 9.28499 164.439 9.19499C164.459 9.09499 164.469 9.00499 164.469 8.92499V4.09499H163.179C163.019 4.09499 162.879 4.12999 162.759 4.19999C162.639 4.26999 162.539 4.35999 162.459 4.46999C162.389 4.56999 162.334 4.68499 162.294 4.81499C162.254 4.94499 162.234 5.06499 162.234 5.17499H162.084V3.59999H167.859V5.17499H167.724ZM169.803 6.86999C169.843 7.21999 169.928 7.55499 170.058 7.87499C170.188 8.18499 170.358 8.45999 170.568 8.69999C170.788 8.93999 171.053 9.13499 171.363 9.28499C171.673 9.42499 172.033 9.49499 172.443 9.49499C172.663 9.49499 172.893 9.46499 173.133 9.40499C173.383 9.33499 173.613 9.23999 173.823 9.11999C174.033 8.99999 174.218 8.85499 174.378 8.68499C174.548 8.50499 174.663 8.30499 174.723 8.08499H174.858V9.20999C174.798 9.20999 174.728 9.22999 174.648 9.26999C174.578 9.30999 174.493 9.35999 174.393 9.41999C174.193 9.53999 173.923 9.66999 173.583 9.80999C173.243 9.93999 172.793 10.005 172.233 10.005C171.783 10.005 171.353 9.93999 170.943 9.80999C170.543 9.67999 170.188 9.47999 169.878 9.20999C169.568 8.93999 169.318 8.59499 169.128 8.17499C168.948 7.75499 168.858 7.25499 168.858 6.67499C168.858 6.30499 168.918 5.92999 169.038 5.54999C169.168 5.16999 169.358 4.82999 169.608 4.52999C169.868 4.21999 170.198 3.96999 170.598 3.77999C170.998 3.58999 171.478 3.49499 172.038 3.49499C172.538 3.49499 172.973 3.57999 173.343 3.74999C173.723 3.91999 174.033 4.15499 174.273 4.45499C174.523 4.75499 174.708 5.10999 174.828 5.51999C174.948 5.92999 175.008 6.37999 175.008 6.86999H169.803ZM171.978 3.98999C171.628 3.98999 171.323 4.05999 171.063 4.19999C170.813 4.33999 170.598 4.51999 170.418 4.73999C170.238 4.95999 170.098 5.20999 169.998 5.48999C169.898 5.76999 169.833 6.04999 169.803 6.32999H174.078C174.068 6.03999 174.013 5.75499 173.913 5.47499C173.823 5.19499 173.693 4.94499 173.523 4.72499C173.353 4.50499 173.138 4.32999 172.878 4.19999C172.618 4.05999 172.318 3.98999 171.978 3.98999ZM185.014 9.89999V9.13499L184.939 9.20999C184.689 9.45999 184.399 9.65499 184.069 9.79499C183.749 9.93499 183.359 10.005 182.899 10.005C182.549 10.005 182.249 9.96499 181.999 9.88499C181.749 9.80499 181.544 9.69499 181.384 9.55499C181.224 9.40499 181.104 9.23499 181.024 9.04499C180.954 8.85499 180.919 8.65499 180.919 8.44499C180.919 8.10499 181.009 7.80499 181.189 7.54499C181.379 7.28499 181.649 7.05499 181.999 6.85499C182.349 6.65499 182.774 6.47499 183.274 6.31499C183.784 6.14499 184.364 5.97999 185.014 5.81999C184.994 5.42999 184.914 5.11499 184.774 4.87499C184.634 4.63499 184.469 4.44999 184.279 4.31999C184.089 4.17999 183.889 4.08999 183.679 4.04999C183.469 3.99999 183.289 3.97499 183.139 3.97499C182.879 3.97499 182.649 4.01499 182.449 4.09499C182.249 4.16499 182.074 4.26499 181.924 4.39499C181.774 4.51499 181.649 4.65499 181.549 4.81499C181.459 4.97499 181.389 5.13499 181.339 5.29499H181.204V4.12499C181.294 4.12499 181.399 4.09499 181.519 4.03499C181.639 3.96499 181.779 3.88999 181.939 3.80999C182.109 3.72999 182.309 3.65999 182.539 3.59999C182.779 3.52999 183.064 3.49499 183.394 3.49499C183.944 3.49499 184.389 3.56499 184.729 3.70499C185.069 3.84499 185.329 4.02999 185.509 4.25999C185.699 4.48999 185.824 4.75499 185.884 5.05499C185.944 5.34499 185.974 5.64499 185.974 5.95499V8.92499C185.974 9.12499 186.024 9.31499 186.124 9.49499C186.224 9.66499 186.359 9.74999 186.529 9.74999V9.89999H185.014ZM185.014 8.47499V6.32999L184.864 6.35999C184.624 6.41999 184.329 6.49999 183.979 6.59999C183.639 6.69999 183.314 6.82999 183.004 6.98999C182.694 7.14999 182.429 7.33999 182.209 7.55999C181.989 7.77999 181.879 8.03499 181.879 8.32499C181.879 8.64499 182.009 8.90999 182.269 9.11999C182.529 9.32999 182.869 9.43499 183.289 9.43499C183.619 9.43499 183.909 9.36499 184.159 9.22499C184.409 9.07499 184.639 8.88499 184.849 8.65499L185.014 8.47499ZM189.83 8.92499C189.83 9.00499 189.84 9.09499 189.86 9.19499C189.88 9.28499 189.91 9.36999 189.95 9.44999C189.99 9.52999 190.035 9.59999 190.085 9.65999C190.145 9.71999 190.21 9.74999 190.28 9.74999V9.89999H188.39V9.74999C188.46 9.74999 188.52 9.72499 188.57 9.67499C188.63 9.61499 188.68 9.54499 188.72 9.46499C188.76 9.37499 188.79 9.28499 188.81 9.19499C188.83 9.09499 188.84 9.00499 188.84 8.92499V4.52999C188.84 4.45999 188.83 4.37999 188.81 4.28999C188.79 4.19999 188.76 4.11499 188.72 4.03499C188.68 3.95499 188.63 3.88999 188.57 3.83999C188.52 3.77999 188.46 3.74999 188.39 3.74999V3.59999H190.28V3.74999C190.2 3.74999 190.13 3.77999 190.07 3.83999C190.02 3.88999 189.975 3.95499 189.935 4.03499C189.905 4.11499 189.88 4.19999 189.86 4.28999C189.84 4.37999 189.83 4.45999 189.83 4.52999V6.34499H193.25V4.52999C193.25 4.45999 193.24 4.37999 193.22 4.28999C193.2 4.19999 193.17 4.11499 193.13 4.03499C193.1 3.95499 193.055 3.88999 192.995 3.83999C192.945 3.77999 192.88 3.74999 192.8 3.74999V3.59999H194.69V3.74999C194.61 3.74999 194.54 3.77999 194.48 3.83999C194.43 3.88999 194.385 3.95499 194.345 4.03499C194.305 4.11499 194.275 4.19999 194.255 4.28999C194.245 4.37999 194.24 4.45999 194.24 4.52999V8.92499C194.24 9.00499 194.25 9.09499 194.27 9.19499C194.29 9.28499 194.32 9.36999 194.36 9.44999C194.4 9.52999 194.445 9.59999 194.495 9.65999C194.555 9.71999 194.62 9.74999 194.69 9.74999V9.89999H192.8V9.74999C192.87 9.74999 192.93 9.72499 192.98 9.67499C193.04 9.61499 193.09 9.54499 193.13 9.46499C193.17 9.37499 193.2 9.28499 193.22 9.19499C193.24 9.09499 193.25 9.00499 193.25 8.92499V6.83999H189.83V8.92499ZM201.133 8.72999C201.193 8.83999 201.273 8.95499 201.373 9.07499C201.473 9.19499 201.583 9.30499 201.703 9.40499C201.833 9.50499 201.963 9.58999 202.093 9.65999C202.223 9.71999 202.348 9.74999 202.468 9.74999V9.89999H201.898C201.438 9.89999 201.083 9.80499 200.833 9.61499C200.583 9.42499 200.388 9.19999 200.248 8.93999L199.543 7.60499C199.433 7.39499 199.248 7.21499 198.988 7.06499C198.728 6.90499 198.453 6.82499 198.163 6.82499V8.95499C198.163 9.03499 198.168 9.11999 198.178 9.20999C198.198 9.29999 198.228 9.38499 198.268 9.46499C198.308 9.54499 198.358 9.61499 198.418 9.67499C198.478 9.72499 198.548 9.74999 198.628 9.74999V9.89999H196.693V9.74999C196.763 9.74999 196.828 9.72499 196.888 9.67499C196.958 9.61499 197.013 9.54499 197.053 9.46499C197.093 9.38499 197.123 9.29999 197.143 9.20999C197.163 9.11999 197.173 9.03499 197.173 8.95499V4.54499C197.173 4.47499 197.163 4.39499 197.143 4.30499C197.123 4.20499 197.093 4.11499 197.053 4.03499C197.023 3.95499 196.978 3.88999 196.918 3.83999C196.858 3.77999 196.783 3.74999 196.693 3.74999V3.59999H198.613V3.74999C198.543 3.74999 198.478 3.77999 198.418 3.83999C198.368 3.88999 198.323 3.95499 198.283 4.03499C198.243 4.11499 198.213 4.20499 198.193 4.30499C198.173 4.39499 198.163 4.47499 198.163 4.54499V6.08999C198.593 5.70999 199.018 5.34499 199.438 4.99499C199.858 4.63499 200.283 4.26499 200.713 3.88499C200.713 3.87499 200.718 3.86499 200.728 3.85499C200.738 3.84499 200.743 3.83499 200.743 3.82499C200.743 3.77499 200.718 3.74999 200.668 3.74999V3.59999H201.973V3.74999C201.923 3.74999 201.863 3.76499 201.793 3.79499C201.723 3.82499 201.653 3.85999 201.583 3.89999C201.503 3.93999 201.423 3.98999 201.343 4.04999C200.893 4.42999 200.443 4.81999 199.993 5.21999C199.543 5.60999 199.093 5.99499 198.643 6.37499C199.073 6.37499 199.423 6.45499 199.693 6.61499C199.973 6.77499 200.208 7.02999 200.398 7.37999L201.133 8.72999ZM204.015 6.86999C204.055 7.21999 204.14 7.55499 204.27 7.87499C204.4 8.18499 204.57 8.45999 204.78 8.69999C205 8.93999 205.265 9.13499 205.575 9.28499C205.885 9.42499 206.245 9.49499 206.655 9.49499C206.875 9.49499 207.105 9.46499 207.345 9.40499C207.595 9.33499 207.825 9.23999 208.035 9.11999C208.245 8.99999 208.43 8.85499 208.59 8.68499C208.76 8.50499 208.875 8.30499 208.935 8.08499H209.07V9.20999C209.01 9.20999 208.94 9.22999 208.86 9.26999C208.79 9.30999 208.705 9.35999 208.605 9.41999C208.405 9.53999 208.135 9.66999 207.795 9.80999C207.455 9.93999 207.005 10.005 206.445 10.005C205.995 10.005 205.565 9.93999 205.155 9.80999C204.755 9.67999 204.4 9.47999 204.09 9.20999C203.78 8.93999 203.53 8.59499 203.34 8.17499C203.16 7.75499 203.07 7.25499 203.07 6.67499C203.07 6.30499 203.13 5.92999 203.25 5.54999C203.38 5.16999 203.57 4.82999 203.82 4.52999C204.08 4.21999 204.41 3.96999 204.81 3.77999C205.21 3.58999 205.69 3.49499 206.25 3.49499C206.75 3.49499 207.185 3.57999 207.555 3.74999C207.935 3.91999 208.245 4.15499 208.485 4.45499C208.735 4.75499 208.92 5.10999 209.04 5.51999C209.16 5.92999 209.22 6.37999 209.22 6.86999H204.015ZM206.19 3.98999C205.84 3.98999 205.535 4.05999 205.275 4.19999C205.025 4.33999 204.81 4.51999 204.63 4.73999C204.45 4.95999 204.31 5.20999 204.21 5.48999C204.11 5.76999 204.045 6.04999 204.015 6.32999H208.29C208.28 6.03999 208.225 5.75499 208.125 5.47499C208.035 5.19499 207.905 4.94499 207.735 4.72499C207.565 4.50499 207.35 4.32999 207.09 4.19999C206.83 4.05999 206.53 3.98999 206.19 3.98999ZM215.991 5.17499C215.991 5.06499 215.971 4.94499 215.931 4.81499C215.891 4.68499 215.831 4.56999 215.751 4.46999C215.671 4.35999 215.571 4.26999 215.451 4.19999C215.331 4.12999 215.191 4.09499 215.031 4.09499H213.711V8.92499C213.711 9.00499 213.721 9.08999 213.741 9.17999C213.761 9.26999 213.791 9.35999 213.831 9.44999C213.881 9.52999 213.931 9.59999 213.981 9.65999C214.041 9.71999 214.111 9.74999 214.191 9.74999V9.89999H212.241V9.74999C212.321 9.74999 212.391 9.71999 212.451 9.65999C212.511 9.59999 212.561 9.52999 212.601 9.44999C212.651 9.36999 212.686 9.28499 212.706 9.19499C212.726 9.09499 212.736 9.00499 212.736 8.92499V4.09499H211.446C211.286 4.09499 211.146 4.12999 211.026 4.19999C210.906 4.26999 210.806 4.35999 210.726 4.46999C210.656 4.56999 210.601 4.68499 210.561 4.81499C210.521 4.94499 210.501 5.06499 210.501 5.17499H210.351V3.59999H216.126V5.17499H215.991ZM219.835 12.045C219.695 12.465 219.515 12.75 219.295 12.9C219.085 13.05 218.865 13.125 218.635 13.125C218.485 13.125 218.35 13.1 218.23 13.05C218.11 13 218.005 12.945 217.915 12.885C217.825 12.825 217.755 12.77 217.705 12.72C217.665 12.67 217.645 12.645 217.645 12.645L218.14 11.43C218.18 11.59 218.23 11.725 218.29 11.835C218.34 11.935 218.41 12.025 218.5 12.105C218.59 12.185 218.7 12.225 218.83 12.225C219.07 12.225 219.26 12.05 219.4 11.7L220.12 9.85499L217.72 4.39499C217.64 4.22499 217.555 4.07499 217.465 3.94499C217.385 3.81499 217.245 3.74999 217.045 3.74999V3.59999H218.98V3.74999C218.94 3.74999 218.89 3.78499 218.83 3.85499C218.77 3.92499 218.74 4.01499 218.74 4.12499C218.74 4.20499 218.76 4.28499 218.8 4.36499L220.645 8.60999L222.415 4.27499C222.445 4.20499 222.46 4.13999 222.46 4.07999C222.46 3.97999 222.425 3.89999 222.355 3.83999C222.295 3.77999 222.23 3.74999 222.16 3.74999V3.59999H223.615V3.74999C223.455 3.74999 223.315 3.81999 223.195 3.95999C223.085 4.08999 222.995 4.23999 222.925 4.40999L219.835 12.045ZM7.23008 24.405V26.25H7.08008C7.06008 26.13 7.02508 25.99 6.97508 25.83C6.92508 25.68 6.85508 25.535 6.76508 25.395C6.67508 25.255 6.56508 25.135 6.43508 25.035C6.31508 24.945 6.17508 24.9 6.01508 24.9H1.24508C1.08508 24.9 0.940081 24.945 0.810081 25.035C0.680081 25.135 0.565081 25.255 0.465081 25.395C0.375081 25.535 0.300081 25.68 0.240081 25.83C0.190081 25.99 0.160081 26.13 0.150081 26.25H8.11825e-05V24.405H0.570081C0.630081 24.405 0.685081 24.38 0.735081 24.33C0.795081 24.28 0.850081 24.22 0.900081 24.15C0.960081 24.08 1.01508 24.005 1.06508 23.925C1.11508 23.835 1.16008 23.755 1.20008 23.685C1.35008 23.345 1.53008 22.94 1.74008 22.47C1.96008 22 2.18008 21.515 2.40008 21.015C2.63008 20.515 2.85008 20.03 3.06008 19.56C3.27008 19.08 3.45008 18.67 3.60008 18.33L6.13508 23.865C6.21508 24.035 6.29008 24.17 6.36008 24.27C6.43008 24.36 6.52508 24.405 6.64508 24.405H7.23008ZM1.39508 24.405H5.29508L3.34508 20.13L1.39508 24.405ZM11.7137 25.005C11.2137 25.005 10.7637 24.925 10.3637 24.765C9.96368 24.595 9.61868 24.37 9.32868 24.09C9.04868 23.8 8.82868 23.46 8.66868 23.07C8.51868 22.68 8.44368 22.255 8.44368 21.795C8.44368 21.305 8.52868 20.86 8.69868 20.46C8.86868 20.05 9.10368 19.7 9.40368 19.41C9.70368 19.12 10.0587 18.895 10.4687 18.735C10.8787 18.575 11.3237 18.495 11.8037 18.495C12.2837 18.495 12.7237 18.575 13.1237 18.735C13.5237 18.885 13.8687 19.1 14.1587 19.38C14.4487 19.66 14.6737 19.995 14.8337 20.385C14.9937 20.765 15.0737 21.185 15.0737 21.645C15.0737 22.075 14.9987 22.495 14.8487 22.905C14.7087 23.305 14.4937 23.66 14.2037 23.97C13.9237 24.28 13.5737 24.53 13.1537 24.72C12.7437 24.91 12.2637 25.005 11.7137 25.005ZM11.6237 18.99C11.2637 19.01 10.9437 19.1 10.6637 19.26C10.3937 19.41 10.1637 19.61 9.97368 19.86C9.79368 20.1 9.65368 20.375 9.55368 20.685C9.46368 20.995 9.41868 21.31 9.41868 21.63C9.41868 22 9.47368 22.36 9.58368 22.71C9.70368 23.05 9.86868 23.355 10.0787 23.625C10.2987 23.895 10.5587 24.11 10.8587 24.27C11.1587 24.43 11.4937 24.51 11.8637 24.51C12.2337 24.51 12.5587 24.43 12.8387 24.27C13.1287 24.11 13.3687 23.905 13.5587 23.655C13.7487 23.395 13.8887 23.105 13.9787 22.785C14.0787 22.465 14.1287 22.145 14.1287 21.825C14.1287 21.495 14.0787 21.165 13.9787 20.835C13.8787 20.495 13.7237 20.19 13.5137 19.92C13.3037 19.64 13.0387 19.415 12.7187 19.245C12.4087 19.075 12.0437 18.99 11.6237 18.99ZM21.0917 20.25C21.0917 19.48 21.1867 18.8 21.3767 18.21C21.5767 17.62 21.8367 17.13 22.1567 16.74C22.4767 16.34 22.8367 16.04 23.2367 15.84C23.6467 15.63 24.0617 15.525 24.4817 15.525C24.9017 15.525 25.3167 15.63 25.7267 15.84C26.1367 16.04 26.4967 16.34 26.8067 16.74C27.1267 17.13 27.3817 17.62 27.5717 18.21C27.7717 18.8 27.8717 19.48 27.8717 20.25C27.8717 21.03 27.7717 21.72 27.5717 22.32C27.3817 22.91 27.1267 23.41 26.8067 23.82C26.4967 24.22 26.1367 24.525 25.7267 24.735C25.3167 24.945 24.9017 25.05 24.4817 25.05C24.0617 25.05 23.6467 24.945 23.2367 24.735C22.8367 24.525 22.4767 24.22 22.1567 23.82C21.8367 23.41 21.5767 22.91 21.3767 22.32C21.1867 21.72 21.0917 21.03 21.0917 20.25ZM26.9267 20.64C26.9267 19.92 26.8467 19.285 26.6867 18.735C26.5267 18.175 26.3167 17.71 26.0567 17.34C25.8067 16.96 25.5167 16.675 25.1867 16.485C24.8667 16.285 24.5367 16.185 24.1967 16.185C23.8567 16.185 23.5467 16.285 23.2667 16.485C22.9967 16.675 22.7667 16.93 22.5767 17.25C22.3867 17.57 22.2367 17.94 22.1267 18.36C22.0267 18.78 21.9767 19.22 21.9767 19.68C21.9767 20.23 22.0417 20.79 22.1717 21.36C22.3017 21.92 22.4867 22.43 22.7267 22.89C22.9667 23.34 23.2517 23.71 23.5817 24C23.9217 24.29 24.2917 24.435 24.6917 24.435C24.9817 24.435 25.2617 24.355 25.5317 24.195C25.8017 24.025 26.0367 23.78 26.2367 23.46C26.4467 23.14 26.6117 22.745 26.7317 22.275C26.8617 21.805 26.9267 21.26 26.9267 20.64ZM30.5448 24.9V24.75C30.7848 24.75 30.9348 24.68 30.9948 24.54C31.0648 24.39 31.0998 24.215 31.0998 24.015V16.83C31.0998 16.73 31.0498 16.68 30.9498 16.68C30.9098 16.68 30.8548 16.695 30.7848 16.725L29.0748 17.265V16.725L32.5698 15.51V15.915C32.4098 15.985 32.2798 16.095 32.1798 16.245C32.0898 16.395 32.0548 16.57 32.0748 16.77V23.955C32.0748 24.165 32.1098 24.35 32.1798 24.51C32.2498 24.67 32.4098 24.75 32.6598 24.75V24.9H30.5448ZM35.0927 24.255C35.0927 24.055 35.1577 23.885 35.2877 23.745C35.4277 23.605 35.5977 23.535 35.7977 23.535C35.9977 23.535 36.1677 23.605 36.3077 23.745C36.4477 23.885 36.5177 24.055 36.5177 24.255C36.5177 24.455 36.4477 24.625 36.3077 24.765C36.1677 24.895 35.9977 24.96 35.7977 24.96C35.5977 24.96 35.4277 24.895 35.2877 24.765C35.1577 24.625 35.0927 24.455 35.0927 24.255ZM39.3403 24.9V24.75C39.5803 24.75 39.7303 24.68 39.7903 24.54C39.8603 24.39 39.8953 24.215 39.8953 24.015V16.83C39.8953 16.73 39.8453 16.68 39.7453 16.68C39.7053 16.68 39.6503 16.695 39.5803 16.725L37.8703 17.265V16.725L41.3653 15.51V15.915C41.2053 15.985 41.0753 16.095 40.9753 16.245C40.8853 16.395 40.8503 16.57 40.8703 16.77V23.955C40.8703 24.165 40.9053 24.35 40.9753 24.51C41.0453 24.67 41.2053 24.75 41.4553 24.75V24.9H39.3403ZM44.6682 24.9V24.75C44.9082 24.75 45.0582 24.68 45.1182 24.54C45.1882 24.39 45.2232 24.215 45.2232 24.015V16.83C45.2232 16.73 45.1732 16.68 45.0732 16.68C45.0332 16.68 44.9782 16.695 44.9082 16.725L43.1982 17.265V16.725L46.6932 15.51V15.915C46.5332 15.985 46.4032 16.095 46.3032 16.245C46.2132 16.395 46.1782 16.57 46.1982 16.77V23.955C46.1982 24.165 46.2332 24.35 46.3032 24.51C46.3732 24.67 46.5332 24.75 46.7832 24.75V24.9H44.6682ZM49.2161 24.255C49.2161 24.055 49.2811 23.885 49.4111 23.745C49.5511 23.605 49.7211 23.535 49.9211 23.535C50.1211 23.535 50.2911 23.605 50.4311 23.745C50.5711 23.885 50.6411 24.055 50.6411 24.255C50.6411 24.455 50.5711 24.625 50.4311 24.765C50.2911 24.895 50.1211 24.96 49.9211 24.96C49.7211 24.96 49.5511 24.895 49.4111 24.765C49.2811 24.625 49.2161 24.455 49.2161 24.255ZM52.2487 16.515H52.3837C52.4337 16.515 52.4937 16.49 52.5637 16.44C52.6437 16.39 52.7287 16.335 52.8187 16.275C52.9187 16.205 53.0337 16.125 53.1637 16.035C53.3037 15.945 53.4587 15.865 53.6287 15.795C53.8087 15.715 54.0087 15.65 54.2287 15.6C54.4487 15.55 54.6937 15.525 54.9637 15.525C55.3037 15.525 55.6337 15.575 55.9537 15.675C56.2737 15.765 56.5587 15.91 56.8087 16.11C57.0587 16.3 57.2587 16.545 57.4087 16.845C57.5587 17.145 57.6337 17.505 57.6337 17.925C57.6337 18.275 57.5737 18.595 57.4537 18.885C57.3337 19.175 57.1687 19.445 56.9587 19.695C56.7587 19.945 56.5287 20.185 56.2687 20.415C56.0187 20.635 55.7587 20.855 55.4887 21.075C55.2287 21.285 54.9737 21.5 54.7237 21.72C54.4837 21.94 54.2637 22.17 54.0637 22.41C53.8737 22.65 53.7137 22.91 53.5837 23.19C53.4537 23.46 53.3787 23.75 53.3587 24.06H56.4787C56.8587 24.06 57.1587 23.995 57.3787 23.865C57.5987 23.725 57.7137 23.5 57.7237 23.19H57.8587V24.9H52.3087C52.3087 24.45 52.3837 24.035 52.5337 23.655C52.6837 23.265 52.8787 22.91 53.1187 22.59C53.3587 22.26 53.6237 21.955 53.9137 21.675C54.2137 21.395 54.5087 21.125 54.7987 20.865C55.0387 20.655 55.2687 20.445 55.4887 20.235C55.7187 20.025 55.9187 19.815 56.0887 19.605C56.2687 19.385 56.4087 19.16 56.5087 18.93C56.6187 18.69 56.6737 18.44 56.6737 18.18C56.6737 17.85 56.6137 17.555 56.4937 17.295C56.3837 17.035 56.2337 16.815 56.0437 16.635C55.8637 16.455 55.6537 16.32 55.4137 16.23C55.1737 16.13 54.9337 16.08 54.6937 16.08C54.1837 16.08 53.7337 16.235 53.3437 16.545C52.9537 16.845 52.6387 17.235 52.3987 17.715H52.2487V16.515ZM59.3394 20.25C59.3394 19.48 59.4344 18.8 59.6244 18.21C59.8244 17.62 60.0844 17.13 60.4044 16.74C60.7244 16.34 61.0844 16.04 61.4844 15.84C61.8944 15.63 62.3094 15.525 62.7294 15.525C63.1494 15.525 63.5644 15.63 63.9744 15.84C64.3844 16.04 64.7444 16.34 65.0544 16.74C65.3744 17.13 65.6294 17.62 65.8194 18.21C66.0194 18.8 66.1194 19.48 66.1194 20.25C66.1194 21.03 66.0194 21.72 65.8194 22.32C65.6294 22.91 65.3744 23.41 65.0544 23.82C64.7444 24.22 64.3844 24.525 63.9744 24.735C63.5644 24.945 63.1494 25.05 62.7294 25.05C62.3094 25.05 61.8944 24.945 61.4844 24.735C61.0844 24.525 60.7244 24.22 60.4044 23.82C60.0844 23.41 59.8244 22.91 59.6244 22.32C59.4344 21.72 59.3394 21.03 59.3394 20.25ZM65.1744 20.64C65.1744 19.92 65.0944 19.285 64.9344 18.735C64.7744 18.175 64.5644 17.71 64.3044 17.34C64.0544 16.96 63.7644 16.675 63.4344 16.485C63.1144 16.285 62.7844 16.185 62.4444 16.185C62.1044 16.185 61.7944 16.285 61.5144 16.485C61.2444 16.675 61.0144 16.93 60.8244 17.25C60.6344 17.57 60.4844 17.94 60.3744 18.36C60.2744 18.78 60.2244 19.22 60.2244 19.68C60.2244 20.23 60.2894 20.79 60.4194 21.36C60.5494 21.92 60.7344 22.43 60.9744 22.89C61.2144 23.34 61.4994 23.71 61.8294 24C62.1694 24.29 62.5394 24.435 62.9394 24.435C63.2294 24.435 63.5094 24.355 63.7794 24.195C64.0494 24.025 64.2844 23.78 64.4844 23.46C64.6944 23.14 64.8594 22.745 64.9794 22.275C65.1094 21.805 65.1744 21.26 65.1744 20.64ZM67.5774 16.515H67.7124C67.7624 16.515 67.8224 16.49 67.8924 16.44C67.9724 16.39 68.0574 16.335 68.1474 16.275C68.2474 16.205 68.3624 16.125 68.4924 16.035C68.6324 15.945 68.7874 15.865 68.9574 15.795C69.1374 15.715 69.3374 15.65 69.5574 15.6C69.7774 15.55 70.0224 15.525 70.2924 15.525C70.6324 15.525 70.9624 15.575 71.2824 15.675C71.6024 15.765 71.8874 15.91 72.1374 16.11C72.3874 16.3 72.5874 16.545 72.7374 16.845C72.8874 17.145 72.9624 17.505 72.9624 17.925C72.9624 18.275 72.9024 18.595 72.7824 18.885C72.6624 19.175 72.4974 19.445 72.2874 19.695C72.0874 19.945 71.8574 20.185 71.5974 20.415C71.3474 20.635 71.0874 20.855 70.8174 21.075C70.5574 21.285 70.3024 21.5 70.0524 21.72C69.8124 21.94 69.5924 22.17 69.3924 22.41C69.2024 22.65 69.0424 22.91 68.9124 23.19C68.7824 23.46 68.7074 23.75 68.6874 24.06H71.8074C72.1874 24.06 72.4874 23.995 72.7074 23.865C72.9274 23.725 73.0424 23.5 73.0524 23.19H73.1874V24.9H67.6374C67.6374 24.45 67.7124 24.035 67.8624 23.655C68.0124 23.265 68.2074 22.91 68.4474 22.59C68.6874 22.26 68.9524 21.955 69.2424 21.675C69.5424 21.395 69.8374 21.125 70.1274 20.865C70.3674 20.655 70.5974 20.445 70.8174 20.235C71.0474 20.025 71.2474 19.815 71.4174 19.605C71.5974 19.385 71.7374 19.16 71.8374 18.93C71.9474 18.69 72.0024 18.44 72.0024 18.18C72.0024 17.85 71.9424 17.555 71.8224 17.295C71.7124 17.035 71.5624 16.815 71.3724 16.635C71.1924 16.455 70.9824 16.32 70.7424 16.23C70.5024 16.13 70.2624 16.08 70.0224 16.08C69.5124 16.08 69.0624 16.235 68.6724 16.545C68.2824 16.845 67.9674 17.235 67.7274 17.715H67.5774V16.515ZM77.6681 19.35C77.3081 19.35 76.9931 19.415 76.7231 19.545C76.4631 19.665 76.2431 19.83 76.0631 20.04C75.8931 20.25 75.7631 20.49 75.6731 20.76C75.5931 21.03 75.5531 21.31 75.5531 21.6C75.5531 21.95 75.6031 22.3 75.7031 22.65C75.8131 23 75.9681 23.315 76.1681 23.595C76.3781 23.865 76.6281 24.09 76.9181 24.27C77.2081 24.44 77.5431 24.525 77.9231 24.525C78.2631 24.525 78.5631 24.46 78.8231 24.33C79.0831 24.19 79.2981 24.01 79.4681 23.79C79.6481 23.56 79.7781 23.3 79.8581 23.01C79.9481 22.72 79.9931 22.425 79.9931 22.125C79.9931 21.785 79.9381 21.45 79.8281 21.12C79.7281 20.79 79.5781 20.495 79.3781 20.235C79.1881 19.965 78.9481 19.75 78.6581 19.59C78.3681 19.43 78.0381 19.35 77.6681 19.35ZM79.7981 16.875C79.6381 16.675 79.4431 16.515 79.2131 16.395C78.9931 16.275 78.7831 16.215 78.5831 16.215C78.1231 16.215 77.7231 16.33 77.3831 16.56C77.0431 16.78 76.7581 17.055 76.5281 17.385C76.3081 17.715 76.1331 18.075 76.0031 18.465C75.8731 18.845 75.7881 19.2 75.7481 19.53C76.0381 19.27 76.3631 19.09 76.7231 18.99C77.0831 18.88 77.4581 18.825 77.8481 18.825C78.3581 18.825 78.8031 18.915 79.1831 19.095C79.5731 19.265 79.8931 19.495 80.1431 19.785C80.4031 20.065 80.5931 20.39 80.7131 20.76C80.8431 21.13 80.9081 21.51 80.9081 21.9C80.9081 22.29 80.8431 22.675 80.7131 23.055C80.5831 23.435 80.3881 23.775 80.1281 24.075C79.8681 24.365 79.5431 24.6 79.1531 24.78C78.7731 24.96 78.3281 25.05 77.8181 25.05C77.2581 25.05 76.7731 24.945 76.3631 24.735C75.9531 24.525 75.6181 24.245 75.3581 23.895C75.0981 23.535 74.9031 23.12 74.7731 22.65C74.6531 22.18 74.5931 21.69 74.5931 21.18C74.5931 20.52 74.6831 19.865 74.8631 19.215C75.0531 18.555 75.3281 17.965 75.6881 17.445C76.0481 16.915 76.4881 16.485 77.0081 16.155C77.5281 15.825 78.1231 15.66 78.7931 15.66C78.9331 15.66 79.0781 15.67 79.2281 15.69C79.3881 15.71 79.5281 15.73 79.6481 15.75C79.7081 15.76 79.7681 15.77 79.8281 15.78C79.8981 15.79 79.9381 15.795 79.9481 15.795V16.875H79.7981ZM82.7413 23.505C83.0313 23.505 83.2413 23.605 83.3713 23.805C83.5113 24.005 83.5813 24.235 83.5813 24.495C83.5813 24.645 83.5613 24.81 83.5213 24.99C83.4813 25.18 83.4013 25.365 83.2813 25.545C83.1713 25.735 83.0063 25.92 82.7863 26.1C82.5763 26.29 82.2963 26.465 81.9463 26.625L81.8713 26.49C82.0713 26.31 82.2263 26.145 82.3363 25.995C82.4563 25.855 82.5413 25.725 82.5913 25.605C82.6513 25.495 82.6863 25.39 82.6963 25.29C82.7163 25.19 82.7263 25.085 82.7263 24.975C82.7263 24.895 82.7013 24.835 82.6513 24.795C82.6013 24.745 82.5463 24.7 82.4863 24.66C82.4063 24.61 82.3263 24.555 82.2463 24.495C82.1663 24.425 82.1263 24.31 82.1263 24.15C82.1263 23.96 82.1863 23.805 82.3063 23.685C82.4263 23.565 82.5713 23.505 82.7413 23.505ZM94.2441 23.955C94.2441 24.035 94.2541 24.12 94.2741 24.21C94.3041 24.3 94.3391 24.385 94.3791 24.465C94.4191 24.545 94.4641 24.615 94.5141 24.675C94.5641 24.725 94.6291 24.75 94.7091 24.75V24.9H92.8041V24.75C92.8741 24.75 92.9341 24.725 92.9841 24.675C93.0441 24.615 93.0941 24.545 93.1341 24.465C93.1741 24.385 93.2041 24.3 93.2241 24.21C93.2441 24.12 93.2541 24.035 93.2541 23.955V21.885C93.0241 22.125 92.7791 22.31 92.5191 22.44C92.2691 22.56 91.9541 22.62 91.5741 22.62C91.2141 22.62 90.8941 22.55 90.6141 22.41C90.3341 22.27 90.0991 22.085 89.9091 21.855C89.7291 21.615 89.5891 21.35 89.4891 21.06C89.3991 20.76 89.3541 20.45 89.3541 20.13V19.53C89.3541 19.46 89.3441 19.38 89.3241 19.29C89.3141 19.2 89.2941 19.115 89.2641 19.035C89.2341 18.955 89.1941 18.89 89.1441 18.84C89.1041 18.78 89.0591 18.75 89.0091 18.75V18.6H90.7641V18.75C90.7041 18.75 90.6441 18.78 90.5841 18.84C90.5341 18.89 90.4891 18.955 90.4491 19.035C90.4191 19.115 90.3941 19.2 90.3741 19.29C90.3541 19.38 90.3441 19.46 90.3441 19.53V20.13C90.3441 20.47 90.3941 20.76 90.4941 21C90.5941 21.23 90.7191 21.42 90.8691 21.57C91.0191 21.71 91.1841 21.815 91.3641 21.885C91.5441 21.945 91.7191 21.975 91.8891 21.975C92.1491 21.975 92.3841 21.915 92.5941 21.795C92.8141 21.665 93.0341 21.47 93.2541 21.21V19.53C93.2541 19.46 93.2441 19.38 93.2241 19.29C93.2041 19.2 93.1741 19.115 93.1341 19.035C93.0941 18.955 93.0441 18.89 92.9841 18.84C92.9341 18.78 92.8741 18.75 92.8041 18.75V18.6H94.7091V18.75C94.6291 18.75 94.5641 18.78 94.5141 18.84C94.4641 18.89 94.4191 18.955 94.3791 19.035C94.3391 19.115 94.3041 19.2 94.2741 19.29C94.2541 19.38 94.2441 19.46 94.2441 19.53V23.955ZM101.697 20.175C101.697 20.065 101.677 19.945 101.637 19.815C101.597 19.685 101.537 19.57 101.457 19.47C101.377 19.36 101.277 19.27 101.157 19.2C101.037 19.13 100.897 19.095 100.737 19.095H99.4171V23.925C99.4171 24.005 99.4271 24.09 99.4471 24.18C99.4671 24.27 99.4971 24.36 99.5371 24.45C99.5871 24.53 99.6371 24.6 99.6871 24.66C99.7471 24.72 99.8171 24.75 99.8971 24.75V24.9H97.9471V24.75C98.0271 24.75 98.0971 24.72 98.1571 24.66C98.2171 24.6 98.2671 24.53 98.3071 24.45C98.3571 24.37 98.3921 24.285 98.4121 24.195C98.4321 24.095 98.4421 24.005 98.4421 23.925V19.095H97.1521C96.9921 19.095 96.8521 19.13 96.7321 19.2C96.6121 19.27 96.5121 19.36 96.4321 19.47C96.3621 19.57 96.3071 19.685 96.2671 19.815C96.2271 19.945 96.2071 20.065 96.2071 20.175H96.0571V18.6H101.832V20.175H101.697ZM106.072 25.005C105.572 25.005 105.122 24.925 104.722 24.765C104.322 24.595 103.977 24.37 103.687 24.09C103.407 23.8 103.187 23.46 103.027 23.07C102.877 22.68 102.802 22.255 102.802 21.795C102.802 21.305 102.887 20.86 103.057 20.46C103.227 20.05 103.462 19.7 103.762 19.41C104.062 19.12 104.417 18.895 104.827 18.735C105.237 18.575 105.682 18.495 106.162 18.495C106.642 18.495 107.082 18.575 107.482 18.735C107.882 18.885 108.227 19.1 108.517 19.38C108.807 19.66 109.032 19.995 109.192 20.385C109.352 20.765 109.432 21.185 109.432 21.645C109.432 22.075 109.357 22.495 109.207 22.905C109.067 23.305 108.852 23.66 108.562 23.97C108.282 24.28 107.932 24.53 107.512 24.72C107.102 24.91 106.622 25.005 106.072 25.005ZM105.982 18.99C105.622 19.01 105.302 19.1 105.022 19.26C104.752 19.41 104.522 19.61 104.332 19.86C104.152 20.1 104.012 20.375 103.912 20.685C103.822 20.995 103.777 21.31 103.777 21.63C103.777 22 103.832 22.36 103.942 22.71C104.062 23.05 104.227 23.355 104.437 23.625C104.657 23.895 104.917 24.11 105.217 24.27C105.517 24.43 105.852 24.51 106.222 24.51C106.592 24.51 106.917 24.43 107.197 24.27C107.487 24.11 107.727 23.905 107.917 23.655C108.107 23.395 108.247 23.105 108.337 22.785C108.437 22.465 108.487 22.145 108.487 21.825C108.487 21.495 108.437 21.165 108.337 20.835C108.237 20.495 108.082 20.19 107.872 19.92C107.662 19.64 107.397 19.415 107.077 19.245C106.767 19.075 106.402 18.99 105.982 18.99ZM114.463 18.495C114.963 18.495 115.413 18.58 115.813 18.75C116.223 18.91 116.568 19.135 116.848 19.425C117.138 19.705 117.358 20.04 117.508 20.43C117.658 20.82 117.733 21.245 117.733 21.705C117.733 22.195 117.648 22.645 117.478 23.055C117.308 23.455 117.073 23.8 116.773 24.09C116.473 24.38 116.118 24.605 115.708 24.765C115.298 24.925 114.853 25.005 114.373 25.005C113.863 25.005 113.408 24.91 113.008 24.72C112.608 24.52 112.268 24.25 111.988 23.91C111.708 23.57 111.493 23.17 111.343 22.71C111.193 22.24 111.118 21.735 111.118 21.195C111.118 20.885 111.133 20.6 111.163 20.34C111.203 20.08 111.258 19.83 111.328 19.59C111.408 19.34 111.503 19.1 111.613 18.87C111.723 18.64 111.853 18.4 112.003 18.15C112.423 17.49 112.948 16.97 113.578 16.59C114.218 16.21 114.868 16.02 115.528 16.02H117.433L116.848 16.98H115.288C114.968 16.98 114.648 17.04 114.328 17.16C114.008 17.27 113.703 17.44 113.413 17.67C113.133 17.89 112.883 18.16 112.663 18.48C112.443 18.8 112.268 19.165 112.138 19.575C112.408 19.245 112.718 18.985 113.068 18.795C113.428 18.595 113.893 18.495 114.463 18.495ZM114.553 24.495C114.923 24.475 115.248 24.39 115.528 24.24C115.808 24.08 116.043 23.88 116.233 23.64C116.423 23.39 116.563 23.115 116.653 22.815C116.753 22.505 116.803 22.19 116.803 21.87C116.803 21.5 116.743 21.145 116.623 20.805C116.503 20.455 116.333 20.15 116.113 19.89C115.893 19.63 115.628 19.42 115.318 19.26C115.018 19.1 114.683 19.02 114.313 19.02C113.953 19.02 113.633 19.1 113.353 19.26C113.073 19.41 112.838 19.61 112.648 19.86C112.458 20.11 112.313 20.395 112.213 20.715C112.123 21.035 112.078 21.355 112.078 21.675C112.078 21.995 112.133 22.325 112.243 22.665C112.363 22.995 112.528 23.295 112.738 23.565C112.958 23.835 113.218 24.06 113.518 24.24C113.828 24.41 114.173 24.495 114.553 24.495ZM125.735 24.9V24.75C125.805 24.75 125.87 24.725 125.93 24.675C125.99 24.615 126.04 24.545 126.08 24.465C126.13 24.375 126.165 24.285 126.185 24.195C126.205 24.095 126.215 24.005 126.215 23.925V19.53C126.215 19.46 126.205 19.38 126.185 19.29C126.165 19.2 126.13 19.115 126.08 19.035C126.04 18.955 125.99 18.89 125.93 18.84C125.87 18.78 125.805 18.75 125.735 18.75V18.6H127.685V18.75C127.535 18.75 127.415 18.845 127.325 19.035C127.235 19.215 127.19 19.38 127.19 19.53V23.925C127.19 24.005 127.2 24.095 127.22 24.195C127.24 24.285 127.27 24.37 127.31 24.45C127.36 24.53 127.415 24.6 127.475 24.66C127.535 24.72 127.605 24.75 127.685 24.75V24.9H125.735ZM122.195 21.33C123.115 21.33 123.795 21.5 124.235 21.84C124.685 22.18 124.91 22.6 124.91 23.1C124.91 23.35 124.85 23.585 124.73 23.805C124.62 24.025 124.45 24.215 124.22 24.375C123.99 24.535 123.7 24.665 123.35 24.765C123 24.855 122.585 24.9 122.105 24.9H119.555V24.75C119.625 24.75 119.69 24.725 119.75 24.675C119.81 24.615 119.86 24.545 119.9 24.465C119.95 24.375 119.985 24.285 120.005 24.195C120.025 24.095 120.035 24.005 120.035 23.925V19.53C120.035 19.46 120.025 19.38 120.005 19.29C119.985 19.2 119.95 19.115 119.9 19.035C119.86 18.955 119.81 18.89 119.75 18.84C119.69 18.78 119.625 18.75 119.555 18.75V18.6H121.505V18.75C121.355 18.75 121.235 18.845 121.145 19.035C121.055 19.215 121.01 19.38 121.01 19.53V21.33H122.195ZM122.075 24.405C122.735 24.405 123.21 24.3 123.5 24.09C123.8 23.87 123.95 23.6 123.95 23.28C123.95 23.1 123.91 22.925 123.83 22.755C123.75 22.575 123.625 22.42 123.455 22.29C123.295 22.15 123.095 22.04 122.855 21.96C122.615 21.87 122.34 21.825 122.03 21.825H121.01V24.405H122.075ZM140.83 23.925C140.83 24.005 140.84 24.095 140.86 24.195C140.88 24.285 140.91 24.37 140.95 24.45C141 24.53 141.055 24.6 141.115 24.66C141.175 24.72 141.245 24.75 141.325 24.75V24.9H139.375V24.75C139.455 24.75 139.525 24.725 139.585 24.675C139.645 24.615 139.695 24.545 139.735 24.465C139.775 24.375 139.805 24.285 139.825 24.195C139.845 24.095 139.855 24.005 139.855 23.925V19.875L137.35 25.035L134.95 20.175V23.925C134.95 24.005 134.96 24.095 134.98 24.195C135 24.285 135.03 24.37 135.07 24.45C135.11 24.53 135.16 24.6 135.22 24.66C135.28 24.72 135.35 24.75 135.43 24.75V24.9H133.975V24.75C134.055 24.75 134.125 24.72 134.185 24.66C134.245 24.6 134.29 24.53 134.32 24.45C134.36 24.37 134.39 24.285 134.41 24.195C134.43 24.095 134.44 24.005 134.44 23.925V19.53C134.44 19.35 134.415 19.175 134.365 19.005C134.325 18.835 134.195 18.75 133.975 18.75V18.6H135.31L137.605 23.295L139.9 18.6H141.325V18.75C141.175 18.75 141.055 18.845 140.965 19.035C140.875 19.215 140.83 19.38 140.83 19.53V23.925ZM149.453 24.9V24.75C149.523 24.75 149.588 24.725 149.648 24.675C149.708 24.615 149.758 24.545 149.798 24.465C149.848 24.375 149.883 24.285 149.903 24.195C149.923 24.095 149.933 24.005 149.933 23.925V19.53C149.933 19.46 149.923 19.38 149.903 19.29C149.883 19.2 149.848 19.115 149.798 19.035C149.758 18.955 149.708 18.89 149.648 18.84C149.588 18.78 149.523 18.75 149.453 18.75V18.6H151.403V18.75C151.253 18.75 151.133 18.845 151.043 19.035C150.953 19.215 150.908 19.38 150.908 19.53V23.925C150.908 24.005 150.918 24.095 150.938 24.195C150.958 24.285 150.988 24.37 151.028 24.45C151.078 24.53 151.133 24.6 151.193 24.66C151.253 24.72 151.323 24.75 151.403 24.75V24.9H149.453ZM145.913 21.33C146.833 21.33 147.513 21.5 147.953 21.84C148.403 22.18 148.628 22.6 148.628 23.1C148.628 23.35 148.568 23.585 148.448 23.805C148.338 24.025 148.168 24.215 147.938 24.375C147.708 24.535 147.418 24.665 147.068 24.765C146.718 24.855 146.303 24.9 145.823 24.9H143.273V24.75C143.343 24.75 143.408 24.725 143.468 24.675C143.528 24.615 143.578 24.545 143.618 24.465C143.668 24.375 143.703 24.285 143.723 24.195C143.743 24.095 143.753 24.005 143.753 23.925V19.53C143.753 19.46 143.743 19.38 143.723 19.29C143.703 19.2 143.668 19.115 143.618 19.035C143.578 18.955 143.528 18.89 143.468 18.84C143.408 18.78 143.343 18.75 143.273 18.75V18.6H145.223V18.75C145.073 18.75 144.953 18.845 144.863 19.035C144.773 19.215 144.728 19.38 144.728 19.53V21.33H145.913ZM145.793 24.405C146.453 24.405 146.928 24.3 147.218 24.09C147.518 23.87 147.668 23.6 147.668 23.28C147.668 23.1 147.628 22.925 147.548 22.755C147.468 22.575 147.343 22.42 147.173 22.29C147.013 22.15 146.813 22.04 146.573 21.96C146.333 21.87 146.058 21.825 145.748 21.825H144.728V24.405H145.793ZM163.213 24.36C163.133 24.36 163.058 24.38 162.988 24.42C162.918 24.45 162.838 24.49 162.748 24.54C162.578 24.64 162.353 24.745 162.073 24.855C161.793 24.955 161.443 25.005 161.023 25.005C160.513 25.005 160.043 24.925 159.613 24.765C159.193 24.595 158.828 24.365 158.518 24.075C158.208 23.775 157.968 23.43 157.798 23.04C157.628 22.64 157.543 22.21 157.543 21.75C157.543 21.32 157.618 20.91 157.768 20.52C157.928 20.13 158.153 19.785 158.443 19.485C158.733 19.185 159.088 18.945 159.508 18.765C159.938 18.585 160.423 18.495 160.963 18.495C161.333 18.495 161.633 18.54 161.863 18.63C162.093 18.71 162.288 18.79 162.448 18.87C162.538 18.92 162.623 18.96 162.703 18.99C162.793 19.02 162.883 19.035 162.973 19.035V20.175H162.823C162.773 19.985 162.683 19.82 162.553 19.68C162.423 19.53 162.273 19.405 162.103 19.305C161.933 19.205 161.748 19.13 161.548 19.08C161.348 19.03 161.153 19.005 160.963 19.005C160.553 19.005 160.193 19.08 159.883 19.23C159.573 19.37 159.318 19.56 159.118 19.8C158.918 20.03 158.768 20.295 158.668 20.595C158.568 20.895 158.518 21.205 158.518 21.525C158.518 21.895 158.573 22.26 158.683 22.62C158.803 22.97 158.968 23.285 159.178 23.565C159.398 23.845 159.663 24.07 159.973 24.24C160.293 24.41 160.653 24.495 161.053 24.495C161.333 24.495 161.593 24.455 161.833 24.375C162.073 24.295 162.278 24.19 162.448 24.06C162.628 23.93 162.768 23.79 162.868 23.64C162.978 23.48 163.043 23.33 163.063 23.19H163.213V24.36ZM171.532 23.925C171.532 24.005 171.542 24.095 171.562 24.195C171.582 24.285 171.612 24.37 171.652 24.45C171.702 24.53 171.757 24.6 171.817 24.66C171.877 24.72 171.947 24.75 172.027 24.75V24.9H170.077V24.75C170.157 24.75 170.227 24.725 170.287 24.675C170.347 24.615 170.397 24.545 170.437 24.465C170.477 24.375 170.507 24.285 170.527 24.195C170.547 24.095 170.557 24.005 170.557 23.925V19.875L168.052 25.035L165.652 20.175V23.925C165.652 24.005 165.662 24.095 165.682 24.195C165.702 24.285 165.732 24.37 165.772 24.45C165.812 24.53 165.862 24.6 165.922 24.66C165.982 24.72 166.052 24.75 166.132 24.75V24.9H164.677V24.75C164.757 24.75 164.827 24.72 164.887 24.66C164.947 24.6 164.992 24.53 165.022 24.45C165.062 24.37 165.092 24.285 165.112 24.195C165.132 24.095 165.142 24.005 165.142 23.925V19.53C165.142 19.35 165.117 19.175 165.067 19.005C165.027 18.835 164.897 18.75 164.677 18.75V18.6H166.012L168.307 23.295L170.602 18.6H172.027V18.75C171.877 18.75 171.757 18.845 171.667 19.035C171.577 19.215 171.532 19.38 171.532 19.53V23.925ZM177.095 25.005C176.595 25.005 176.145 24.925 175.745 24.765C175.345 24.595 175 24.37 174.71 24.09C174.43 23.8 174.21 23.46 174.05 23.07C173.9 22.68 173.825 22.255 173.825 21.795C173.825 21.305 173.91 20.86 174.08 20.46C174.25 20.05 174.485 19.7 174.785 19.41C175.085 19.12 175.44 18.895 175.85 18.735C176.26 18.575 176.705 18.495 177.185 18.495C177.665 18.495 178.105 18.575 178.505 18.735C178.905 18.885 179.25 19.1 179.54 19.38C179.83 19.66 180.055 19.995 180.215 20.385C180.375 20.765 180.455 21.185 180.455 21.645C180.455 22.075 180.38 22.495 180.23 22.905C180.09 23.305 179.875 23.66 179.585 23.97C179.305 24.28 178.955 24.53 178.535 24.72C178.125 24.91 177.645 25.005 177.095 25.005ZM177.005 18.99C176.645 19.01 176.325 19.1 176.045 19.26C175.775 19.41 175.545 19.61 175.355 19.86C175.175 20.1 175.035 20.375 174.935 20.685C174.845 20.995 174.8 21.31 174.8 21.63C174.8 22 174.855 22.36 174.965 22.71C175.085 23.05 175.25 23.355 175.46 23.625C175.68 23.895 175.94 24.11 176.24 24.27C176.54 24.43 176.875 24.51 177.245 24.51C177.615 24.51 177.94 24.43 178.22 24.27C178.51 24.11 178.75 23.905 178.94 23.655C179.13 23.395 179.27 23.105 179.36 22.785C179.46 22.465 179.51 22.145 179.51 21.825C179.51 21.495 179.46 21.165 179.36 20.835C179.26 20.495 179.105 20.19 178.895 19.92C178.685 19.64 178.42 19.415 178.1 19.245C177.79 19.075 177.425 18.99 177.005 18.99ZM186.896 18.6V20.16H186.746C186.746 20.05 186.721 19.935 186.671 19.815C186.631 19.685 186.566 19.57 186.476 19.47C186.386 19.36 186.276 19.27 186.146 19.2C186.026 19.13 185.886 19.095 185.726 19.095H183.731V23.955C183.731 24.035 183.741 24.12 183.761 24.21C183.791 24.3 183.826 24.385 183.866 24.465C183.916 24.545 183.971 24.615 184.031 24.675C184.091 24.725 184.161 24.75 184.241 24.75V24.9H182.246V24.75C182.326 24.75 182.396 24.725 182.456 24.675C182.516 24.615 182.566 24.545 182.606 24.465C182.656 24.385 182.691 24.3 182.711 24.21C182.731 24.12 182.741 24.035 182.741 23.955V19.53C182.741 19.46 182.731 19.38 182.711 19.29C182.691 19.2 182.656 19.115 182.606 19.035C182.566 18.955 182.516 18.89 182.456 18.84C182.396 18.78 182.326 18.75 182.246 18.75V18.6H186.896ZM191.327 24.75C191.397 24.75 191.477 24.72 191.567 24.66C191.657 24.6 191.702 24.515 191.702 24.405C191.702 24.385 191.692 24.345 191.672 24.285C191.662 24.215 191.637 24.14 191.597 24.06L189.692 19.56L187.712 24.285C187.542 24.695 187.207 24.9 186.707 24.9H186.377V24.75C186.517 24.75 186.667 24.68 186.827 24.54C186.997 24.39 187.132 24.215 187.232 24.015L189.272 19.245C189.322 19.115 189.347 19.01 189.347 18.93C189.347 18.81 189.267 18.75 189.107 18.75V18.6H190.322L192.632 24C192.702 24.15 192.802 24.315 192.932 24.495C193.072 24.665 193.202 24.75 193.322 24.75V24.9H191.327V24.75ZM200.689 23.925C200.689 24.005 200.699 24.095 200.719 24.195C200.749 24.285 200.784 24.37 200.824 24.45C200.864 24.53 200.914 24.6 200.974 24.66C201.044 24.72 201.109 24.75 201.169 24.75V24.9H199.249V24.75C199.319 24.75 199.384 24.725 199.444 24.675C199.504 24.615 199.554 24.545 199.594 24.465C199.634 24.375 199.664 24.285 199.684 24.195C199.704 24.095 199.714 24.005 199.714 23.925V20.325L196.144 23.82V23.925C196.144 24.005 196.154 24.095 196.174 24.195C196.194 24.285 196.224 24.37 196.264 24.45C196.304 24.53 196.349 24.6 196.399 24.66C196.459 24.72 196.524 24.75 196.594 24.75V24.9H194.689V24.75C194.759 24.75 194.824 24.725 194.884 24.675C194.944 24.615 194.994 24.545 195.034 24.465C195.074 24.375 195.104 24.285 195.124 24.195C195.144 24.095 195.154 24.005 195.154 23.925V19.53C195.154 19.46 195.144 19.38 195.124 19.29C195.104 19.2 195.074 19.115 195.034 19.035C194.994 18.955 194.944 18.89 194.884 18.84C194.824 18.78 194.759 18.75 194.689 18.75V18.6H196.594V18.75C196.514 18.75 196.444 18.78 196.384 18.84C196.334 18.89 196.289 18.955 196.249 19.035C196.219 19.115 196.194 19.2 196.174 19.29C196.154 19.38 196.144 19.46 196.144 19.53V23.115L199.714 19.62V19.53C199.714 19.46 199.704 19.38 199.684 19.29C199.664 19.2 199.634 19.115 199.594 19.035C199.554 18.955 199.504 18.89 199.444 18.84C199.384 18.78 199.319 18.75 199.249 18.75V18.6H201.169V18.75C201.089 18.75 201.014 18.78 200.944 18.84C200.884 18.89 200.834 18.955 200.794 19.035C200.764 19.115 200.739 19.2 200.719 19.29C200.699 19.38 200.689 19.46 200.689 19.53V23.925ZM209.81 27.045C209.67 27.465 209.49 27.75 209.27 27.9C209.06 28.05 208.84 28.125 208.61 28.125C208.46 28.125 208.325 28.1 208.205 28.05C208.085 28 207.98 27.945 207.89 27.885C207.8 27.825 207.73 27.77 207.68 27.72C207.64 27.67 207.62 27.645 207.62 27.645L208.115 26.43C208.155 26.59 208.205 26.725 208.265 26.835C208.315 26.935 208.385 27.025 208.475 27.105C208.565 27.185 208.675 27.225 208.805 27.225C209.045 27.225 209.235 27.05 209.375 26.7L210.095 24.855L207.695 19.395C207.615 19.225 207.53 19.075 207.44 18.945C207.36 18.815 207.22 18.75 207.02 18.75V18.6H208.955V18.75C208.915 18.75 208.865 18.785 208.805 18.855C208.745 18.925 208.715 19.015 208.715 19.125C208.715 19.205 208.735 19.285 208.775 19.365L210.62 23.61L212.39 19.275C212.42 19.205 212.435 19.14 212.435 19.08C212.435 18.98 212.4 18.9 212.33 18.84C212.27 18.78 212.205 18.75 212.135 18.75V18.6H213.59V18.75C213.43 18.75 213.29 18.82 213.17 18.96C213.06 19.09 212.97 19.24 212.9 19.41L209.81 27.045ZM219.99 23.955C219.99 24.035 220 24.12 220.02 24.21C220.05 24.3 220.085 24.385 220.125 24.465C220.165 24.545 220.21 24.615 220.26 24.675C220.31 24.725 220.375 24.75 220.455 24.75V24.9H218.55V24.75C218.62 24.75 218.68 24.725 218.73 24.675C218.79 24.615 218.84 24.545 218.88 24.465C218.92 24.385 218.95 24.3 218.97 24.21C218.99 24.12 219 24.035 219 23.955V21.885C218.77 22.125 218.525 22.31 218.265 22.44C218.015 22.56 217.7 22.62 217.32 22.62C216.96 22.62 216.64 22.55 216.36 22.41C216.08 22.27 215.845 22.085 215.655 21.855C215.475 21.615 215.335 21.35 215.235 21.06C215.145 20.76 215.1 20.45 215.1 20.13V19.53C215.1 19.46 215.09 19.38 215.07 19.29C215.06 19.2 215.04 19.115 215.01 19.035C214.98 18.955 214.94 18.89 214.89 18.84C214.85 18.78 214.805 18.75 214.755 18.75V18.6H216.51V18.75C216.45 18.75 216.39 18.78 216.33 18.84C216.28 18.89 216.235 18.955 216.195 19.035C216.165 19.115 216.14 19.2 216.12 19.29C216.1 19.38 216.09 19.46 216.09 19.53V20.13C216.09 20.47 216.14 20.76 216.24 21C216.34 21.23 216.465 21.42 216.615 21.57C216.765 21.71 216.93 21.815 217.11 21.885C217.29 21.945 217.465 21.975 217.635 21.975C217.895 21.975 218.13 21.915 218.34 21.795C218.56 21.665 218.78 21.47 219 21.21V19.53C219 19.46 218.99 19.38 218.97 19.29C218.95 19.2 218.92 19.115 218.88 19.035C218.84 18.955 218.79 18.89 218.73 18.84C218.68 18.78 218.62 18.75 218.55 18.75V18.6H220.455V18.75C220.375 18.75 220.31 18.78 220.26 18.84C220.21 18.89 220.165 18.955 220.125 19.035C220.085 19.115 220.05 19.2 220.02 19.29C220 19.38 219.99 19.46 219.99 19.53V23.955ZM223.198 21.87C223.238 22.22 223.323 22.555 223.453 22.875C223.583 23.185 223.753 23.46 223.963 23.7C224.183 23.94 224.448 24.135 224.758 24.285C225.068 24.425 225.428 24.495 225.838 24.495C226.058 24.495 226.288 24.465 226.528 24.405C226.778 24.335 227.008 24.24 227.218 24.12C227.428 24 227.613 23.855 227.773 23.685C227.943 23.505 228.058 23.305 228.118 23.085H228.253V24.21C228.193 24.21 228.123 24.23 228.043 24.27C227.973 24.31 227.888 24.36 227.788 24.42C227.588 24.54 227.318 24.67 226.978 24.81C226.638 24.94 226.188 25.005 225.628 25.005C225.178 25.005 224.748 24.94 224.338 24.81C223.938 24.68 223.583 24.48 223.273 24.21C222.963 23.94 222.713 23.595 222.523 23.175C222.343 22.755 222.253 22.255 222.253 21.675C222.253 21.305 222.313 20.93 222.433 20.55C222.563 20.17 222.753 19.83 223.003 19.53C223.263 19.22 223.593 18.97 223.993 18.78C224.393 18.59 224.873 18.495 225.433 18.495C225.933 18.495 226.368 18.58 226.738 18.75C227.118 18.92 227.428 19.155 227.668 19.455C227.918 19.755 228.103 20.11 228.223 20.52C228.343 20.93 228.403 21.38 228.403 21.87H223.198ZM225.373 18.99C225.023 18.99 224.718 19.06 224.458 19.2C224.208 19.34 223.993 19.52 223.813 19.74C223.633 19.96 223.493 20.21 223.393 20.49C223.293 20.77 223.228 21.05 223.198 21.33H227.473C227.463 21.04 227.408 20.755 227.308 20.475C227.218 20.195 227.088 19.945 226.918 19.725C226.748 19.505 226.533 19.33 226.273 19.2C226.013 19.06 225.713 18.99 225.373 18.99ZM235.316 24.36C235.236 24.36 235.161 24.38 235.091 24.42C235.021 24.45 234.941 24.49 234.851 24.54C234.681 24.64 234.456 24.745 234.176 24.855C233.896 24.955 233.546 25.005 233.126 25.005C232.616 25.005 232.146 24.925 231.716 24.765C231.296 24.595 230.931 24.365 230.621 24.075C230.311 23.775 230.071 23.43 229.901 23.04C229.731 22.64 229.646 22.21 229.646 21.75C229.646 21.32 229.721 20.91 229.871 20.52C230.031 20.13 230.256 19.785 230.546 19.485C230.836 19.185 231.191 18.945 231.611 18.765C232.041 18.585 232.526 18.495 233.066 18.495C233.436 18.495 233.736 18.54 233.966 18.63C234.196 18.71 234.391 18.79 234.551 18.87C234.641 18.92 234.726 18.96 234.806 18.99C234.896 19.02 234.986 19.035 235.076 19.035V20.175H234.926C234.876 19.985 234.786 19.82 234.656 19.68C234.526 19.53 234.376 19.405 234.206 19.305C234.036 19.205 233.851 19.13 233.651 19.08C233.451 19.03 233.256 19.005 233.066 19.005C232.656 19.005 232.296 19.08 231.986 19.23C231.676 19.37 231.421 19.56 231.221 19.8C231.021 20.03 230.871 20.295 230.771 20.595C230.671 20.895 230.621 21.205 230.621 21.525C230.621 21.895 230.676 22.26 230.786 22.62C230.906 22.97 231.071 23.285 231.281 23.565C231.501 23.845 231.766 24.07 232.076 24.24C232.396 24.41 232.756 24.495 233.156 24.495C233.436 24.495 233.696 24.455 233.936 24.375C234.176 24.295 234.381 24.19 234.551 24.06C234.731 23.93 234.871 23.79 234.971 23.64C235.081 23.48 235.146 23.33 235.166 23.19H235.316V24.36ZM241.834 20.175C241.834 20.065 241.814 19.945 241.774 19.815C241.734 19.685 241.674 19.57 241.594 19.47C241.514 19.36 241.414 19.27 241.294 19.2C241.174 19.13 241.034 19.095 240.874 19.095H239.554V23.925C239.554 24.005 239.564 24.09 239.584 24.18C239.604 24.27 239.634 24.36 239.674 24.45C239.724 24.53 239.774 24.6 239.824 24.66C239.884 24.72 239.954 24.75 240.034 24.75V24.9H238.084V24.75C238.164 24.75 238.234 24.72 238.294 24.66C238.354 24.6 238.404 24.53 238.444 24.45C238.494 24.37 238.529 24.285 238.549 24.195C238.569 24.095 238.579 24.005 238.579 23.925V19.095H237.289C237.129 19.095 236.989 19.13 236.869 19.2C236.749 19.27 236.649 19.36 236.569 19.47C236.499 19.57 236.444 19.685 236.404 19.815C236.364 19.945 236.344 20.065 236.344 20.175H236.194V18.6H241.969V20.175H241.834ZM245.919 21.33C246.379 21.33 246.779 21.375 247.119 21.465C247.469 21.555 247.754 21.68 247.974 21.84C248.204 22 248.374 22.19 248.484 22.41C248.594 22.62 248.649 22.85 248.649 23.1C248.649 23.35 248.594 23.585 248.484 23.805C248.374 24.025 248.199 24.215 247.959 24.375C247.729 24.535 247.439 24.665 247.089 24.765C246.739 24.855 246.324 24.9 245.844 24.9H243.279V24.75C243.359 24.75 243.429 24.725 243.489 24.675C243.549 24.615 243.599 24.545 243.639 24.465C243.689 24.375 243.724 24.285 243.744 24.195C243.764 24.095 243.774 24.005 243.774 23.925V19.53C243.774 19.46 243.764 19.38 243.744 19.29C243.724 19.2 243.689 19.115 243.639 19.035C243.599 18.955 243.549 18.89 243.489 18.84C243.429 18.78 243.359 18.75 243.279 18.75V18.6H245.244V18.75C245.094 18.75 244.974 18.845 244.884 19.035C244.794 19.215 244.749 19.38 244.749 19.53V21.33H245.919ZM245.814 24.405C246.474 24.405 246.949 24.3 247.239 24.09C247.539 23.87 247.689 23.6 247.689 23.28C247.689 23.1 247.649 22.925 247.569 22.755C247.489 22.575 247.364 22.42 247.194 22.29C247.034 22.15 246.834 22.04 246.594 21.96C246.354 21.87 246.079 21.825 245.769 21.825H244.749V24.405H245.814ZM75.7715 35.1C75.7715 35.27 75.7365 35.43 75.6665 35.58C75.5965 35.73 75.5065 35.87 75.3965 36C75.2965 36.12 75.1765 36.23 75.0365 36.33C74.8965 36.42 74.7615 36.49 74.6315 36.54C74.8015 36.57 74.9765 36.625 75.1565 36.705C75.3465 36.785 75.5165 36.89 75.6665 37.02C75.8265 37.15 75.9565 37.315 76.0565 37.515C76.1565 37.705 76.2065 37.935 76.2065 38.205C76.2065 38.345 76.1715 38.515 76.1015 38.715C76.0415 38.905 75.9265 39.09 75.7565 39.27C75.5965 39.44 75.3715 39.59 75.0815 39.72C74.8015 39.84 74.4365 39.9 73.9865 39.9H70.6865V39.75C70.7665 39.75 70.8365 39.72 70.8965 39.66C70.9565 39.6 71.0065 39.53 71.0465 39.45C71.0965 39.37 71.1315 39.285 71.1515 39.195C71.1715 39.095 71.1815 39.005 71.1815 38.925V34.545C71.1815 34.385 71.1365 34.215 71.0465 34.035C70.9665 33.845 70.8465 33.75 70.6865 33.75V33.6H73.7465C74.1065 33.6 74.4115 33.65 74.6615 33.75C74.9215 33.84 75.1315 33.96 75.2915 34.11C75.4615 34.25 75.5815 34.41 75.6515 34.59C75.7315 34.76 75.7715 34.93 75.7715 35.1ZM72.1565 36.345H73.3115C73.6015 36.345 73.8415 36.315 74.0315 36.255C74.2315 36.185 74.3915 36.095 74.5115 35.985C74.6315 35.875 74.7165 35.75 74.7665 35.61C74.8265 35.47 74.8565 35.325 74.8565 35.175C74.8565 35.055 74.8215 34.93 74.7515 34.8C74.6815 34.67 74.5765 34.555 74.4365 34.455C74.3065 34.345 74.1465 34.255 73.9565 34.185C73.7665 34.115 73.5515 34.08 73.3115 34.08H72.1565V36.345ZM73.6265 39.42C73.7465 39.42 73.8965 39.41 74.0765 39.39C74.2665 39.36 74.4465 39.305 74.6165 39.225C74.7965 39.135 74.9465 39.01 75.0665 38.85C75.1965 38.68 75.2615 38.46 75.2615 38.19C75.2615 37.9 75.1765 37.665 75.0065 37.485C74.8365 37.305 74.6365 37.17 74.4065 37.08C74.1865 36.98 73.9565 36.915 73.7165 36.885C73.4765 36.855 73.2915 36.84 73.1615 36.84H72.1565V39.42H73.6265ZM81.9227 39.9V39.135L81.8477 39.21C81.5977 39.46 81.3077 39.655 80.9777 39.795C80.6577 39.935 80.2677 40.005 79.8077 40.005C79.4577 40.005 79.1577 39.965 78.9077 39.885C78.6577 39.805 78.4527 39.695 78.2927 39.555C78.1327 39.405 78.0127 39.235 77.9327 39.045C77.8627 38.855 77.8277 38.655 77.8277 38.445C77.8277 38.105 77.9177 37.805 78.0977 37.545C78.2877 37.285 78.5577 37.055 78.9077 36.855C79.2577 36.655 79.6827 36.475 80.1827 36.315C80.6927 36.145 81.2727 35.98 81.9227 35.82C81.9027 35.43 81.8227 35.115 81.6827 34.875C81.5427 34.635 81.3777 34.45 81.1877 34.32C80.9977 34.18 80.7977 34.09 80.5877 34.05C80.3777 34 80.1977 33.975 80.0477 33.975C79.7877 33.975 79.5577 34.015 79.3577 34.095C79.1577 34.165 78.9827 34.265 78.8327 34.395C78.6827 34.515 78.5577 34.655 78.4577 34.815C78.3677 34.975 78.2977 35.135 78.2477 35.295H78.1127V34.125C78.2027 34.125 78.3077 34.095 78.4277 34.035C78.5477 33.965 78.6877 33.89 78.8477 33.81C79.0177 33.73 79.2177 33.66 79.4477 33.6C79.6877 33.53 79.9727 33.495 80.3027 33.495C80.8527 33.495 81.2977 33.565 81.6377 33.705C81.9777 33.845 82.2377 34.03 82.4177 34.26C82.6077 34.49 82.7327 34.755 82.7927 35.055C82.8527 35.345 82.8827 35.645 82.8827 35.955V38.925C82.8827 39.125 82.9327 39.315 83.0327 39.495C83.1327 39.665 83.2677 39.75 83.4377 39.75V39.9H81.9227ZM81.9227 38.475V36.33L81.7727 36.36C81.5327 36.42 81.2377 36.5 80.8877 36.6C80.5477 36.7 80.2227 36.83 79.9127 36.99C79.6027 37.15 79.3377 37.34 79.1177 37.56C78.8977 37.78 78.7877 38.035 78.7877 38.325C78.7877 38.645 78.9177 38.91 79.1777 39.12C79.4377 39.33 79.7777 39.435 80.1977 39.435C80.5277 39.435 80.8177 39.365 81.0677 39.225C81.3177 39.075 81.5477 38.885 81.7577 38.655L81.9227 38.475ZM86.6782 39.405H89.3932V34.575C89.3932 34.505 89.3832 34.42 89.3632 34.32C89.3432 34.22 89.3132 34.13 89.2732 34.05C89.2432 33.97 89.1982 33.9 89.1382 33.84C89.0782 33.78 89.0132 33.75 88.9432 33.75V33.6H90.8032V33.75C90.7232 33.75 90.6532 33.78 90.5932 33.84C90.5432 33.89 90.4982 33.955 90.4582 34.035C90.4282 34.115 90.4032 34.2 90.3832 34.29C90.3632 34.37 90.3532 34.44 90.3532 34.5V39.405H93.0832V34.575C93.0832 34.505 93.0732 34.42 93.0532 34.32C93.0432 34.22 93.0182 34.13 92.9782 34.05C92.9482 33.97 92.9032 33.9 92.8432 33.84C92.7832 33.78 92.7082 33.75 92.6182 33.75V33.6H94.5082V33.75C94.4282 33.75 94.3582 33.78 94.2982 33.84C94.2482 33.9 94.2032 33.97 94.1632 34.05C94.1232 34.13 94.0932 34.22 94.0732 34.32C94.0632 34.42 94.0582 34.505 94.0582 34.575V38.97C94.0582 39.04 94.0682 39.12 94.0882 39.21C94.1082 39.3 94.1332 39.385 94.1632 39.465C94.2032 39.545 94.2482 39.615 94.2982 39.675C94.3582 39.725 94.4232 39.75 94.4932 39.75V39.9H85.2682V39.75C85.3382 39.75 85.3982 39.725 85.4482 39.675C85.4982 39.615 85.5432 39.545 85.5832 39.465C85.6232 39.385 85.6532 39.3 85.6732 39.21C85.6932 39.12 85.7032 39.04 85.7032 38.97V34.575C85.7032 34.505 85.6932 34.42 85.6732 34.32C85.6632 34.22 85.6382 34.13 85.5982 34.05C85.5682 33.97 85.5232 33.9 85.4632 33.84C85.4132 33.78 85.3482 33.75 85.2682 33.75V33.6H87.1282V33.75C87.0482 33.75 86.9782 33.78 86.9182 33.84C86.8582 33.9 86.8082 33.97 86.7682 34.05C86.7382 34.13 86.7132 34.22 86.6932 34.32C86.6832 34.42 86.6782 34.505 86.6782 34.575V39.405ZM102.339 38.925C102.339 39.005 102.349 39.095 102.369 39.195C102.399 39.285 102.434 39.37 102.474 39.45C102.514 39.53 102.564 39.6 102.624 39.66C102.694 39.72 102.759 39.75 102.819 39.75V39.9H100.899V39.75C100.969 39.75 101.034 39.725 101.094 39.675C101.154 39.615 101.204 39.545 101.244 39.465C101.284 39.375 101.314 39.285 101.334 39.195C101.354 39.095 101.364 39.005 101.364 38.925V35.325L97.7936 38.82V38.925C97.7936 39.005 97.8036 39.095 97.8236 39.195C97.8436 39.285 97.8736 39.37 97.9136 39.45C97.9536 39.53 97.9986 39.6 98.0486 39.66C98.1086 39.72 98.1736 39.75 98.2436 39.75V39.9H96.3386V39.75C96.4086 39.75 96.4736 39.725 96.5336 39.675C96.5936 39.615 96.6436 39.545 96.6836 39.465C96.7236 39.375 96.7536 39.285 96.7736 39.195C96.7936 39.095 96.8036 39.005 96.8036 38.925V34.53C96.8036 34.46 96.7936 34.38 96.7736 34.29C96.7536 34.2 96.7236 34.115 96.6836 34.035C96.6436 33.955 96.5936 33.89 96.5336 33.84C96.4736 33.78 96.4086 33.75 96.3386 33.75V33.6H98.2436V33.75C98.1636 33.75 98.0936 33.78 98.0336 33.84C97.9836 33.89 97.9386 33.955 97.8986 34.035C97.8686 34.115 97.8436 34.2 97.8236 34.29C97.8036 34.38 97.7936 34.46 97.7936 34.53V38.115L101.364 34.62V34.53C101.364 34.46 101.354 34.38 101.334 34.29C101.314 34.2 101.284 34.115 101.244 34.035C101.204 33.955 101.154 33.89 101.094 33.84C101.034 33.78 100.969 33.75 100.899 33.75V33.6H102.819V33.75C102.739 33.75 102.664 33.78 102.594 33.84C102.534 33.89 102.484 33.955 102.444 34.035C102.414 34.115 102.389 34.2 102.369 34.29C102.349 34.38 102.339 34.46 102.339 34.53V38.925ZM110.53 38.925C110.53 39.005 110.54 39.095 110.56 39.195C110.58 39.285 110.605 39.37 110.635 39.45C110.675 39.53 110.72 39.6 110.77 39.66C110.83 39.72 110.9 39.75 110.98 39.75V39.9H109.075V39.75C109.155 39.75 109.225 39.725 109.285 39.675C109.345 39.615 109.39 39.545 109.42 39.465C109.46 39.375 109.49 39.285 109.51 39.195C109.53 39.095 109.54 39.005 109.54 38.925V34.53C109.54 34.46 109.53 34.38 109.51 34.29C109.49 34.19 109.46 34.105 109.42 34.035C109.38 33.955 109.33 33.89 109.27 33.84C109.21 33.78 109.145 33.75 109.075 33.75V33.6H115.3V33.75C115.14 33.75 115.02 33.845 114.94 34.035C114.86 34.215 114.82 34.38 114.82 34.53V38.925C114.82 39.005 114.83 39.095 114.85 39.195C114.87 39.285 114.9 39.37 114.94 39.45C114.98 39.53 115.03 39.6 115.09 39.66C115.16 39.72 115.23 39.75 115.3 39.75V39.9H113.365V39.75C113.455 39.75 113.525 39.725 113.575 39.675C113.635 39.615 113.685 39.545 113.725 39.465C113.765 39.375 113.79 39.285 113.8 39.195C113.82 39.095 113.83 39.005 113.83 38.925V34.125H110.53V38.925ZM120.321 40.005C119.821 40.005 119.371 39.925 118.971 39.765C118.571 39.595 118.226 39.37 117.936 39.09C117.656 38.8 117.436 38.46 117.276 38.07C117.126 37.68 117.051 37.255 117.051 36.795C117.051 36.305 117.136 35.86 117.306 35.46C117.476 35.05 117.711 34.7 118.011 34.41C118.311 34.12 118.666 33.895 119.076 33.735C119.486 33.575 119.931 33.495 120.411 33.495C120.891 33.495 121.331 33.575 121.731 33.735C122.131 33.885 122.476 34.1 122.766 34.38C123.056 34.66 123.281 34.995 123.441 35.385C123.601 35.765 123.681 36.185 123.681 36.645C123.681 37.075 123.606 37.495 123.456 37.905C123.316 38.305 123.101 38.66 122.811 38.97C122.531 39.28 122.181 39.53 121.761 39.72C121.351 39.91 120.871 40.005 120.321 40.005ZM120.231 33.99C119.871 34.01 119.551 34.1 119.271 34.26C119.001 34.41 118.771 34.61 118.581 34.86C118.401 35.1 118.261 35.375 118.161 35.685C118.071 35.995 118.026 36.31 118.026 36.63C118.026 37 118.081 37.36 118.191 37.71C118.311 38.05 118.476 38.355 118.686 38.625C118.906 38.895 119.166 39.11 119.466 39.27C119.766 39.43 120.101 39.51 120.471 39.51C120.841 39.51 121.166 39.43 121.446 39.27C121.736 39.11 121.976 38.905 122.166 38.655C122.356 38.395 122.496 38.105 122.586 37.785C122.686 37.465 122.736 37.145 122.736 36.825C122.736 36.495 122.686 36.165 122.586 35.835C122.486 35.495 122.331 35.19 122.121 34.92C121.911 34.64 121.646 34.415 121.326 34.245C121.016 34.075 120.651 33.99 120.231 33.99ZM132.672 38.715C132.732 38.835 132.807 38.955 132.897 39.075C132.997 39.195 133.102 39.305 133.212 39.405C133.322 39.495 133.437 39.575 133.557 39.645C133.687 39.705 133.807 39.74 133.917 39.75V39.9H133.392C132.972 39.9 132.642 39.815 132.402 39.645C132.172 39.465 131.987 39.24 131.847 38.97L131.127 37.56C131.037 37.33 130.877 37.13 130.647 36.96C130.417 36.79 130.177 36.695 129.927 36.675V38.91C129.927 38.98 129.937 39.065 129.957 39.165C129.977 39.255 130.007 39.345 130.047 39.435C130.097 39.515 130.152 39.585 130.212 39.645C130.272 39.705 130.342 39.74 130.422 39.75V39.9H128.502V39.75C128.582 39.74 128.652 39.705 128.712 39.645C128.772 39.585 128.822 39.515 128.862 39.435C128.912 39.345 128.947 39.255 128.967 39.165C128.987 39.075 128.997 38.99 128.997 38.91V36.675C128.737 36.695 128.497 36.79 128.277 36.96C128.067 37.13 127.907 37.33 127.797 37.56L127.092 38.97C126.962 39.23 126.772 39.45 126.522 39.63C126.282 39.81 125.952 39.9 125.532 39.9H125.007V39.75C125.117 39.74 125.232 39.705 125.352 39.645C125.472 39.575 125.587 39.495 125.697 39.405C125.817 39.305 125.922 39.195 126.012 39.075C126.112 38.955 126.192 38.835 126.252 38.715L126.957 37.26C127.077 37.03 127.277 36.83 127.557 36.66C127.847 36.48 128.177 36.38 128.547 36.36C128.167 36 127.762 35.615 127.332 35.205C126.902 34.795 126.492 34.41 126.102 34.05C126.072 34.03 125.992 33.98 125.862 33.9C125.742 33.81 125.632 33.76 125.532 33.75V33.6H126.687V33.765C126.657 33.785 126.642 33.8 126.642 33.81C126.642 33.86 126.657 33.905 126.687 33.945L128.997 36.09V34.545C128.997 34.405 128.952 34.245 128.862 34.065C128.782 33.875 128.662 33.77 128.502 33.75V33.6H130.422V33.75C130.342 33.76 130.272 33.795 130.212 33.855C130.152 33.905 130.102 33.97 130.062 34.05C130.022 34.13 129.987 34.215 129.957 34.305C129.937 34.395 129.927 34.475 129.927 34.545V36.09L132.252 33.915C132.272 33.895 132.282 33.86 132.282 33.81C132.282 33.8 132.267 33.785 132.237 33.765V33.6H133.392V33.75C133.342 33.75 133.282 33.765 133.212 33.795C133.152 33.825 133.092 33.86 133.032 33.9C132.962 33.94 132.892 33.99 132.822 34.05L130.377 36.36C130.777 36.37 131.112 36.46 131.382 36.63C131.652 36.79 131.847 37 131.967 37.26L132.672 38.715ZM135.507 36.87C135.547 37.22 135.632 37.555 135.762 37.875C135.892 38.185 136.062 38.46 136.272 38.7C136.492 38.94 136.757 39.135 137.067 39.285C137.377 39.425 137.737 39.495 138.147 39.495C138.367 39.495 138.597 39.465 138.837 39.405C139.087 39.335 139.317 39.24 139.527 39.12C139.737 39 139.922 38.855 140.082 38.685C140.252 38.505 140.367 38.305 140.427 38.085H140.562V39.21C140.502 39.21 140.432 39.23 140.352 39.27C140.282 39.31 140.197 39.36 140.097 39.42C139.897 39.54 139.627 39.67 139.287 39.81C138.947 39.94 138.497 40.005 137.937 40.005C137.487 40.005 137.057 39.94 136.647 39.81C136.247 39.68 135.892 39.48 135.582 39.21C135.272 38.94 135.022 38.595 134.832 38.175C134.652 37.755 134.562 37.255 134.562 36.675C134.562 36.305 134.622 35.93 134.742 35.55C134.872 35.17 135.062 34.83 135.312 34.53C135.572 34.22 135.902 33.97 136.302 33.78C136.702 33.59 137.182 33.495 137.742 33.495C138.242 33.495 138.677 33.58 139.047 33.75C139.427 33.92 139.737 34.155 139.977 34.455C140.227 34.755 140.412 35.11 140.532 35.52C140.652 35.93 140.712 36.38 140.712 36.87H135.507ZM137.682 33.99C137.332 33.99 137.027 34.06 136.767 34.2C136.517 34.34 136.302 34.52 136.122 34.74C135.942 34.96 135.802 35.21 135.702 35.49C135.602 35.77 135.537 36.05 135.507 36.33H139.782C139.772 36.04 139.717 35.755 139.617 35.475C139.527 35.195 139.397 34.945 139.227 34.725C139.057 34.505 138.842 34.33 138.582 34.2C138.322 34.06 138.022 33.99 137.682 33.99ZM146.297 39.75C146.367 39.75 146.447 39.72 146.537 39.66C146.627 39.6 146.672 39.515 146.672 39.405C146.672 39.385 146.662 39.345 146.642 39.285C146.632 39.215 146.607 39.14 146.567 39.06L144.662 34.56L142.682 39.285C142.512 39.695 142.177 39.9 141.677 39.9H141.347V39.75C141.487 39.75 141.637 39.68 141.797 39.54C141.967 39.39 142.102 39.215 142.202 39.015L144.242 34.245C144.292 34.115 144.317 34.01 144.317 33.93C144.317 33.81 144.237 33.75 144.077 33.75V33.6H145.292L147.602 39C147.672 39.15 147.772 39.315 147.902 39.495C148.042 39.665 148.172 39.75 148.292 39.75V39.9H146.297V39.75ZM153.605 39.9V39.135L153.53 39.21C153.28 39.46 152.99 39.655 152.66 39.795C152.34 39.935 151.95 40.005 151.49 40.005C151.14 40.005 150.84 39.965 150.59 39.885C150.34 39.805 150.135 39.695 149.975 39.555C149.815 39.405 149.695 39.235 149.615 39.045C149.545 38.855 149.51 38.655 149.51 38.445C149.51 38.105 149.6 37.805 149.78 37.545C149.97 37.285 150.24 37.055 150.59 36.855C150.94 36.655 151.365 36.475 151.865 36.315C152.375 36.145 152.955 35.98 153.605 35.82C153.585 35.43 153.505 35.115 153.365 34.875C153.225 34.635 153.06 34.45 152.87 34.32C152.68 34.18 152.48 34.09 152.27 34.05C152.06 34 151.88 33.975 151.73 33.975C151.47 33.975 151.24 34.015 151.04 34.095C150.84 34.165 150.665 34.265 150.515 34.395C150.365 34.515 150.24 34.655 150.14 34.815C150.05 34.975 149.98 35.135 149.93 35.295H149.795V34.125C149.885 34.125 149.99 34.095 150.11 34.035C150.23 33.965 150.37 33.89 150.53 33.81C150.7 33.73 150.9 33.66 151.13 33.6C151.37 33.53 151.655 33.495 151.985 33.495C152.535 33.495 152.98 33.565 153.32 33.705C153.66 33.845 153.92 34.03 154.1 34.26C154.29 34.49 154.415 34.755 154.475 35.055C154.535 35.345 154.565 35.645 154.565 35.955V38.925C154.565 39.125 154.615 39.315 154.715 39.495C154.815 39.665 154.95 39.75 155.12 39.75V39.9H153.605ZM153.605 38.475V36.33L153.455 36.36C153.215 36.42 152.92 36.5 152.57 36.6C152.23 36.7 151.905 36.83 151.595 36.99C151.285 37.15 151.02 37.34 150.8 37.56C150.58 37.78 150.47 38.035 150.47 38.325C150.47 38.645 150.6 38.91 150.86 39.12C151.12 39.33 151.46 39.435 151.88 39.435C152.21 39.435 152.5 39.365 152.75 39.225C153 39.075 153.23 38.885 153.44 38.655L153.605 38.475ZM158.42 38.925C158.42 39.005 158.43 39.095 158.45 39.195C158.47 39.285 158.5 39.37 158.54 39.45C158.58 39.53 158.625 39.6 158.675 39.66C158.735 39.72 158.8 39.75 158.87 39.75V39.9H156.98V39.75C157.05 39.75 157.11 39.725 157.16 39.675C157.22 39.615 157.27 39.545 157.31 39.465C157.35 39.375 157.38 39.285 157.4 39.195C157.42 39.095 157.43 39.005 157.43 38.925V34.53C157.43 34.46 157.42 34.38 157.4 34.29C157.38 34.2 157.35 34.115 157.31 34.035C157.27 33.955 157.22 33.89 157.16 33.84C157.11 33.78 157.05 33.75 156.98 33.75V33.6H158.87V33.75C158.79 33.75 158.72 33.78 158.66 33.84C158.61 33.89 158.565 33.955 158.525 34.035C158.495 34.115 158.47 34.2 158.45 34.29C158.43 34.38 158.42 34.46 158.42 34.53V36.345H161.84V34.53C161.84 34.46 161.83 34.38 161.81 34.29C161.79 34.2 161.76 34.115 161.72 34.035C161.69 33.955 161.645 33.89 161.585 33.84C161.535 33.78 161.47 33.75 161.39 33.75V33.6H163.28V33.75C163.2 33.75 163.13 33.78 163.07 33.84C163.02 33.89 162.975 33.955 162.935 34.035C162.895 34.115 162.865 34.2 162.845 34.29C162.835 34.38 162.83 34.46 162.83 34.53V38.925C162.83 39.005 162.84 39.095 162.86 39.195C162.88 39.285 162.91 39.37 162.95 39.45C162.99 39.53 163.035 39.6 163.085 39.66C163.145 39.72 163.21 39.75 163.28 39.75V39.9H161.39V39.75C161.46 39.75 161.52 39.725 161.57 39.675C161.63 39.615 161.68 39.545 161.72 39.465C161.76 39.375 161.79 39.285 161.81 39.195C161.83 39.095 161.84 39.005 161.84 38.925V36.84H158.42V38.925ZM171.193 38.925C171.193 39.005 171.203 39.095 171.223 39.195C171.253 39.285 171.288 39.37 171.328 39.45C171.368 39.53 171.418 39.6 171.478 39.66C171.548 39.72 171.613 39.75 171.673 39.75V39.9H169.753V39.75C169.823 39.75 169.888 39.725 169.948 39.675C170.008 39.615 170.058 39.545 170.098 39.465C170.138 39.375 170.168 39.285 170.188 39.195C170.208 39.095 170.218 39.005 170.218 38.925V35.325L166.648 38.82V38.925C166.648 39.005 166.658 39.095 166.678 39.195C166.698 39.285 166.728 39.37 166.768 39.45C166.808 39.53 166.853 39.6 166.903 39.66C166.963 39.72 167.028 39.75 167.098 39.75V39.9H165.193V39.75C165.263 39.75 165.328 39.725 165.388 39.675C165.448 39.615 165.498 39.545 165.538 39.465C165.578 39.375 165.608 39.285 165.628 39.195C165.648 39.095 165.658 39.005 165.658 38.925V34.53C165.658 34.46 165.648 34.38 165.628 34.29C165.608 34.2 165.578 34.115 165.538 34.035C165.498 33.955 165.448 33.89 165.388 33.84C165.328 33.78 165.263 33.75 165.193 33.75V33.6H167.098V33.75C167.018 33.75 166.948 33.78 166.888 33.84C166.838 33.89 166.793 33.955 166.753 34.035C166.723 34.115 166.698 34.2 166.678 34.29C166.658 34.38 166.648 34.46 166.648 34.53V38.115L170.218 34.62V34.53C170.218 34.46 170.208 34.38 170.188 34.29C170.168 34.2 170.138 34.115 170.098 34.035C170.058 33.955 170.008 33.89 169.948 33.84C169.888 33.78 169.823 33.75 169.753 33.75V33.6H171.673V33.75C171.593 33.75 171.518 33.78 171.448 33.84C171.388 33.89 171.338 33.955 171.298 34.035C171.268 34.115 171.243 34.2 171.223 34.29C171.203 34.38 171.193 34.46 171.193 34.53V38.925ZM178.353 38.925C178.353 39.005 178.363 39.095 178.383 39.195C178.403 39.285 178.433 39.375 178.473 39.465C178.523 39.545 178.573 39.615 178.623 39.675C178.683 39.725 178.753 39.75 178.833 39.75V39.9H176.883V39.75C176.953 39.75 177.018 39.72 177.078 39.66C177.138 39.6 177.188 39.53 177.228 39.45C177.278 39.37 177.313 39.285 177.333 39.195C177.353 39.095 177.363 39.005 177.363 38.925V36.825C177.253 36.845 177.128 36.905 176.988 37.005C176.848 37.095 176.703 37.215 176.553 37.365C176.403 37.505 176.258 37.66 176.118 37.83C175.978 38 175.848 38.17 175.728 38.34C175.628 38.48 175.543 38.595 175.473 38.685C175.403 38.775 175.343 38.86 175.293 38.94C175.193 39.07 175.093 39.195 174.993 39.315C174.893 39.425 174.778 39.525 174.648 39.615C174.528 39.705 174.383 39.775 174.213 39.825C174.043 39.875 173.843 39.9 173.613 39.9H173.058V39.75C173.178 39.75 173.298 39.715 173.418 39.645C173.548 39.575 173.673 39.49 173.793 39.39C173.913 39.28 174.023 39.165 174.123 39.045C174.233 38.915 174.328 38.795 174.408 38.685L174.873 38.04C175.043 37.81 175.218 37.585 175.398 37.365C175.578 37.135 175.783 36.955 176.013 36.825C175.653 36.815 175.333 36.765 175.053 36.675C174.773 36.585 174.538 36.465 174.348 36.315C174.158 36.165 174.013 35.995 173.913 35.805C173.823 35.605 173.778 35.395 173.778 35.175C173.778 34.965 173.823 34.765 173.913 34.575C174.013 34.385 174.168 34.22 174.378 34.08C174.588 33.93 174.853 33.815 175.173 33.735C175.503 33.645 175.898 33.6 176.358 33.6H178.833V33.75C178.753 33.75 178.683 33.78 178.623 33.84C178.573 33.89 178.523 33.955 178.473 34.035C178.433 34.115 178.403 34.2 178.383 34.29C178.363 34.38 178.353 34.46 178.353 34.53V38.925ZM174.753 35.085C174.753 35.235 174.798 35.385 174.888 35.535C174.988 35.685 175.118 35.82 175.278 35.94C175.448 36.06 175.638 36.16 175.848 36.24C176.058 36.31 176.283 36.345 176.523 36.345H177.363V34.08H176.388C175.788 34.08 175.363 34.175 175.113 34.365C174.873 34.555 174.753 34.795 174.753 35.085Z" fill="white"></path></svg> 