<?xml version="1.0" encoding="UTF-8"?> <svg xmlns="http://www.w3.org/2000/svg" width="257" height="55" viewBox="0 0 257 55" fill="none"><path d="M-5.96046e-08 33.4002C-5.96046e-08 32.0669 0.25 30.7502 0.75 29.4502C1.21667 28.1502 1.86667 26.9669 2.7 25.9002C3.56667 24.8335 4.51667 23.9835 5.55 23.3502C6.58333 22.7169 7.65 22.4002 8.75 22.4002C9.05 22.4002 9.2 22.4835 9.2 22.6502C9.2 22.8502 9.05 23.0169 8.75 23.1502C7.11667 23.6835 5.83333 24.5835 4.9 25.8502C3.96667 27.1169 3.3 28.4835 2.9 29.9502C2.53333 31.4169 2.35 32.7669 2.35 34.0002C2.35 36.3335 2.93333 38.2502 4.1 39.7502C5.3 41.2835 6.95 42.4169 9.05 43.1502C11.15 43.8835 13.5333 44.2502 16.2 44.2502C19.4667 44.2502 22.5833 43.6669 25.55 42.5002C28.5167 41.3335 31.25 39.7169 33.75 37.6502C36.2833 35.5835 38.5 33.2169 40.4 30.5502C42.3 27.8502 43.8 24.9835 44.9 21.9502C45 21.6835 45.1 21.4169 45.2 21.1502C45.3 20.8502 45.3833 20.5669 45.45 20.3002C43.45 20.8335 41.3167 21.3002 39.05 21.7002C36.8167 22.0669 34.7333 22.2502 32.8 22.2502C30.9667 22.2502 29.3 22.0335 27.8 21.6002C26.3 21.1335 25.1 20.3669 24.2 19.3002C23.3333 18.2335 22.9 16.8002 22.9 15.0002C22.9 12.9002 23.4167 10.9669 24.45 9.20019C25.4833 7.40019 26.8333 5.83353 28.5 4.50019C30.2 3.16686 32.0333 2.13353 34 1.40019C36 0.633526 37.9667 0.250192 39.9 0.250192C41.7333 0.250192 43.4167 0.633526 44.95 1.40019C46.4833 2.13353 47.7167 3.33353 48.65 5.00019C49.5833 6.63353 50.05 8.78353 50.05 11.4502C50.05 12.3835 49.9833 13.3835 49.85 14.4502C49.7167 15.4835 49.5167 16.5835 49.25 17.7502C50.4833 17.2835 51.6667 16.8169 52.8 16.3502C53.9333 15.8502 54.9833 15.3669 55.95 14.9002C56.6833 14.5335 57.4 14.1335 58.1 13.7002C58.8333 13.2669 59.5667 13.0502 60.3 13.0502C59.6 14.0835 58.85 15.3502 58.05 16.8502C57.25 18.3169 56.4167 20.0169 55.55 21.9502C55.4167 22.2835 55.1333 22.9669 54.7 24.0002C54.3 25.0002 53.8667 26.1502 53.4 27.4502C52.9333 28.7502 52.5333 30.0169 52.2 31.2502C51.8667 32.4835 51.7 33.4835 51.7 34.2502C51.7 36.2169 52.25 37.2002 53.35 37.2002C54.1167 37.2002 54.8667 36.8669 55.6 36.2002C56.3333 35.5002 57.0167 34.6669 57.65 33.7002C58.3167 32.7002 58.9 31.7335 59.4 30.8002C59.9 29.8335 60.2667 29.0835 60.5 28.5502C60.9 28.5502 61.1 28.7002 61.1 29.0002C60.7667 29.7335 60.3333 30.6335 59.8 31.7002C59.3 32.7335 58.7167 33.7669 58.05 34.8002C57.3833 35.8002 56.6167 36.6502 55.75 37.3502C54.8833 38.0169 53.9 38.3502 52.8 38.3502C51.4 38.3502 50.4 37.9669 49.8 37.2002C49.2 36.4002 48.9 35.3835 48.9 34.1502C48.9 33.2502 49.0667 32.1335 49.4 30.8002C49.7667 29.4335 50.1833 28.0669 50.65 26.7002C51.15 25.3335 51.6 24.1169 52 23.0502C52.4333 21.9835 52.7333 21.2669 52.9 20.9002C53.3667 19.8669 53.7167 19.0335 53.95 18.4002C54.2167 17.7335 54.4833 17.1335 54.75 16.6002C54.1167 16.9335 53.3833 17.3169 52.55 17.7502C51.75 18.1502 50.8833 18.5002 49.95 18.8002C49.7833 18.8335 49.6 18.8835 49.4 18.9502C49.2333 19.0169 49.05 19.0835 48.85 19.1502C48.1833 21.6169 47.25 24.0669 46.05 26.5002C44.85 28.9335 43.45 31.1835 41.85 33.2502C38.7833 37.2502 35.0333 40.3835 30.6 42.6502C26.2 44.9502 21.4 46.1002 16.2 46.1002C14.1 46.1002 12.0667 45.8502 10.1 45.3502C8.16667 44.8835 6.43333 44.1335 4.9 43.1002C3.4 42.1002 2.21667 40.7835 1.35 39.1502C0.45 37.5502 -5.96046e-08 35.6335 -5.96046e-08 33.4002ZM25.6 13.6002C25.6 15.3335 26 16.7169 26.8 17.7502C27.6333 18.7835 28.75 19.5335 30.15 20.0002C31.55 20.4335 33.1333 20.6502 34.9 20.6502C36.5333 20.6502 38.3167 20.5002 40.25 20.2002C42.1833 19.8669 44.05 19.4335 45.85 18.9002C46.2167 17.5335 46.4833 16.2669 46.65 15.1002C46.8167 13.9002 46.9 12.7835 46.9 11.7502C46.9 9.35019 46.4667 7.41686 45.6 5.95019C44.7333 4.45019 43.6167 3.35019 42.25 2.65019C40.8833 1.95019 39.4333 1.60019 37.9 1.60019C36.4667 1.60019 35.0167 1.88353 33.55 2.45019C32.1167 3.01686 30.8 3.83353 29.6 4.90019C28.4 5.96686 27.4333 7.23353 26.7 8.70019C25.9667 10.1669 25.6 11.8002 25.6 13.6002ZM68.6496 37.4502C68.6163 37.7835 68.4163 38.0169 68.0496 38.1502C67.7163 38.2502 67.3829 38.3002 67.0496 38.3002C66.5163 38.3002 66.1163 38.3835 65.8496 38.5502C65.8496 37.8835 66.0329 36.9502 66.3996 35.7502C66.7663 34.5169 67.1996 33.2002 67.6996 31.8002C68.2329 30.3669 68.7663 29.0335 69.2996 27.8002C69.8663 26.5335 70.3329 25.5502 70.6996 24.8502C71.4996 23.3835 72.1663 22.4502 72.6996 22.0502C73.2663 21.6502 73.9163 21.4502 74.6496 21.4502C75.3163 21.4502 75.7829 21.4835 76.0496 21.5502C76.3496 21.5835 76.5663 21.6002 76.6996 21.6002C75.9663 22.0002 75.0996 22.9335 74.0996 24.4002C73.1329 25.8669 72.2163 27.5002 71.3496 29.3002C71.6163 29.0335 71.9163 28.8169 72.2496 28.6502C72.6163 28.4835 73.0329 28.4002 73.4996 28.4002C74.1329 28.4002 74.6829 28.5169 75.1496 28.7502C75.6163 28.9502 76.2663 29.0502 77.0996 29.0502C77.7329 29.0502 78.1496 28.8502 78.3496 28.4502C78.8829 27.2502 79.4329 26.0835 79.9996 24.9502C80.5663 23.7835 81.0329 22.8169 81.3996 22.0502C81.5996 21.6169 81.8663 21.3335 82.1996 21.2002C82.5663 21.0669 82.9663 21.0002 83.3996 21.0002H86.0996C85.5329 21.4669 85.0496 21.9002 84.6496 22.3002C84.2829 22.6669 83.9163 23.1169 83.5496 23.6502C83.2163 24.1835 82.7829 24.9502 82.2496 25.9502C81.8163 26.7835 81.2996 27.8669 80.6996 29.2002C80.0996 30.5335 79.6496 31.7169 79.3496 32.7502C79.2163 33.1169 79.0996 33.5502 78.9996 34.0502C78.9329 34.5502 78.8996 35.0169 78.8996 35.4502C78.8996 35.9835 78.9829 36.4335 79.1496 36.8002C79.3163 37.1669 79.5996 37.3502 79.9996 37.3502C80.6329 37.3502 81.2829 37.0835 81.9496 36.5502C82.6163 35.9835 83.2663 35.2669 83.8996 34.4002C84.5329 33.5002 85.1163 32.5335 85.6496 31.5002C86.2163 30.4669 86.6996 29.4835 87.0996 28.5502C87.3663 28.5502 87.5329 28.5835 87.5996 28.6502C87.6663 28.7169 87.6996 28.8335 87.6996 29.0002C87.2996 30.0002 86.7996 31.0669 86.1996 32.2002C85.6329 33.3002 84.9663 34.3335 84.1996 35.3002C83.4663 36.2669 82.6496 37.0669 81.7496 37.7002C80.8829 38.3002 79.9496 38.6002 78.9496 38.6002C77.9496 38.6002 77.2329 38.3002 76.7996 37.7002C76.3996 37.1002 76.1996 36.3502 76.1996 35.4502C76.1996 34.9835 76.2496 34.4835 76.3496 33.9502C76.4829 33.4169 76.6329 32.8835 76.7996 32.3502C76.9329 31.9502 77.0829 31.5335 77.2496 31.1002C77.4163 30.6335 77.5996 30.1835 77.7996 29.7502C77.5996 30.0169 77.3496 30.2335 77.0496 30.4002C76.7496 30.5335 76.3663 30.6002 75.8996 30.6002C75.4329 30.6002 75.0496 30.5335 74.7496 30.4002C74.4496 30.2669 74.1329 30.1335 73.7996 30.0002C73.4663 29.8669 73.0329 29.8002 72.4996 29.8002C72.1663 29.8002 71.8163 29.8669 71.4496 30.0002C71.1163 30.1335 70.8496 30.4335 70.6496 30.9002C70.1496 32.0669 69.7163 33.2169 69.3496 34.3502C69.0163 35.4835 68.7829 36.5169 68.6496 37.4502ZM97.966 38.3502C97.1994 38.3502 96.516 38.1335 95.916 37.7002C95.3493 37.2669 95.066 36.3835 95.066 35.0502C95.066 34.4835 95.0993 33.9502 95.166 33.4502C95.266 32.9502 95.3827 32.4169 95.516 31.8502C95.216 32.3502 94.7993 32.9669 94.266 33.7002C93.7327 34.4335 93.1327 35.1502 92.466 35.8502C91.8327 36.5502 91.166 37.1335 90.466 37.6002C89.7993 38.0669 89.166 38.3002 88.566 38.3002C87.6993 38.3002 86.9993 37.9169 86.466 37.1502C85.9327 36.3502 85.666 35.3169 85.666 34.0502C85.666 32.6835 85.9827 31.2169 86.616 29.6502C87.2493 28.0835 88.116 26.5835 89.216 25.1502C90.316 23.7169 91.5827 22.5502 93.016 21.6502C94.4493 20.7502 95.9493 20.3002 97.516 20.3002C98.2827 20.3002 99.016 20.4335 99.716 20.7002C100.416 20.9335 101.033 21.3335 101.566 21.9002C101.799 22.1335 101.916 22.4002 101.916 22.7002C101.916 22.9002 101.833 23.0669 101.666 23.2002C101.499 23.3335 101.283 23.3669 101.016 23.3002C100.649 22.1335 99.866 21.5502 98.666 21.5502C98.0993 21.5502 97.4493 21.7335 96.716 22.1002C95.816 22.5669 94.8493 23.3169 93.816 24.3502C92.816 25.3502 91.866 26.5002 90.966 27.8002C90.0993 29.0669 89.3827 30.3502 88.816 31.6502C88.2493 32.9502 87.966 34.1335 87.966 35.2002C87.966 36.3002 88.3827 36.8502 89.216 36.8502C89.9493 36.8502 90.6993 36.5002 91.466 35.8002C92.266 35.1002 93.016 34.2335 93.716 33.2002C94.4493 32.1335 95.116 31.0835 95.716 30.0502C96.316 29.0169 96.7827 28.1835 97.116 27.5502C97.616 26.6502 98.0827 25.9002 98.516 25.3002C98.9493 24.7002 99.566 24.4002 100.366 24.4002C100.733 24.4002 101.099 24.4502 101.466 24.5502C101.833 24.6502 102.216 24.6669 102.616 24.6002C101.616 25.6002 100.733 26.7835 99.966 28.1502C99.2327 29.5169 98.666 30.8669 98.266 32.2002C97.866 33.5002 97.666 34.6002 97.666 35.5002C97.666 36.5002 97.9993 37.0002 98.666 37.0002C99.1994 37.0002 99.766 36.7002 100.366 36.1002C100.999 35.5002 101.599 34.7502 102.166 33.8502C102.766 32.9169 103.316 31.9835 103.816 31.0502C104.316 30.0835 104.716 29.2502 105.016 28.5502C105.183 28.5502 105.316 28.5669 105.416 28.6002C105.549 28.6335 105.616 28.7669 105.616 29.0002C105.583 29.1335 105.516 29.2835 105.416 29.4502C105.349 29.5835 105.233 29.8335 105.066 30.2002C104.799 30.7335 104.433 31.4502 103.966 32.3502C103.499 33.2502 102.949 34.1669 102.316 35.1002C101.683 36.0002 100.999 36.7669 100.266 37.4002C99.5327 38.0335 98.766 38.3502 97.966 38.3502ZM100.236 38.6002C101.436 36.1669 102.586 33.7669 103.686 31.4002C104.786 29.0002 105.919 26.7169 107.086 24.5502C107.753 23.3502 108.319 22.5169 108.786 22.0502C109.253 21.5502 109.869 21.3002 110.636 21.3002C110.903 21.3002 111.186 21.3502 111.486 21.4502C111.786 21.5169 112.086 21.5502 112.386 21.5502C112.586 21.5502 112.736 21.5335 112.836 21.5002C112.369 21.7669 111.753 22.4335 110.986 23.5002C110.253 24.5335 109.503 25.7335 108.736 27.1002C107.969 28.4669 107.286 29.7502 106.686 30.9502C107.319 30.1835 107.986 29.4169 108.686 28.6502C109.386 27.8835 110.153 27.1502 110.986 26.4502C111.786 25.7502 112.736 25.0335 113.836 24.3002C114.969 23.5335 116.069 22.9002 117.136 22.4002C118.203 21.9002 119.053 21.6502 119.686 21.6502C119.919 21.6502 120.086 21.6669 120.186 21.7002C120.186 21.7002 120.003 22.0335 119.636 22.7002C119.269 23.3335 118.803 24.1835 118.236 25.2502C117.703 26.2835 117.153 27.4002 116.586 28.6002C116.019 29.7669 115.503 30.9002 115.036 32.0002C114.603 33.0669 114.319 33.9669 114.186 34.7002C114.086 35.1335 114.036 35.5335 114.036 35.9002C114.036 36.4335 114.136 36.7835 114.336 36.9502C114.536 37.1169 114.753 37.2002 114.986 37.2002C115.619 37.2002 116.269 36.9169 116.936 36.3502C117.603 35.7835 118.236 35.0669 118.836 34.2002C119.469 33.3002 120.053 32.3502 120.586 31.3502C121.119 30.3502 121.569 29.4169 121.936 28.5502C122.336 28.5502 122.536 28.7002 122.536 29.0002C122.169 29.9002 121.703 30.9002 121.136 32.0002C120.603 33.0669 119.986 34.0835 119.286 35.0502C118.619 36.0169 117.869 36.8169 117.036 37.4502C116.203 38.0835 115.303 38.4002 114.336 38.4002C113.669 38.4002 112.969 38.1669 112.236 37.7002C111.536 37.2335 111.186 36.3669 111.186 35.1002C111.186 34.7335 111.219 34.3502 111.286 33.9502C111.353 33.5169 111.469 33.0502 111.636 32.5502C111.903 31.8835 112.219 31.1669 112.586 30.4002C112.953 29.6335 113.553 28.5835 114.386 27.2502C114.619 26.8835 114.753 26.6002 114.786 26.4002C114.853 26.2002 114.886 26.0335 114.886 25.9002C114.886 25.5002 114.703 25.3002 114.336 25.3002C114.036 25.3002 113.586 25.4669 112.986 25.8002C112.419 26.1335 111.703 26.7169 110.836 27.5502C110.003 28.3502 109.003 29.4835 107.836 30.9502C106.703 32.4169 105.386 34.5835 103.886 37.4502C103.653 37.8835 103.386 38.1169 103.086 38.1502C102.819 38.1835 102.436 38.2169 101.936 38.2502C101.603 38.2835 101.286 38.3002 100.986 38.3002C100.686 38.3335 100.436 38.4335 100.236 38.6002ZM130.18 31.7502C129.614 32.7502 128.964 33.7502 128.23 34.7502C127.497 35.7502 126.714 36.5835 125.88 37.2502C125.047 37.8835 124.214 38.2002 123.38 38.2002C123.014 38.2002 122.564 38.1169 122.03 37.9502C121.53 37.7835 121.08 37.4835 120.68 37.0502C120.314 36.5835 120.13 35.9002 120.13 35.0002C120.13 34.1335 120.414 33.1335 120.98 32.0002C121.547 30.8669 122.047 29.8669 122.48 29.0002C122.114 29.0002 121.93 28.8502 121.93 28.5502C121.964 28.4502 122.114 28.1335 122.38 27.6002C122.647 27.0669 122.964 26.4335 123.33 25.7002C123.697 24.9669 124.047 24.2669 124.38 23.6002C124.747 22.9002 125.03 22.3669 125.23 22.0002C125.63 21.2669 126.264 20.9002 127.13 20.9002H130.23C129.664 21.3335 129.147 21.8169 128.68 22.3502C128.247 22.8502 127.697 23.7835 127.03 25.1502C127.03 25.1502 126.914 25.3835 126.68 25.8502C126.447 26.3169 126.147 26.9169 125.78 27.6502C125.447 28.3502 125.097 29.0669 124.73 29.8002C124.397 30.5335 124.114 31.1502 123.88 31.6502C123.447 32.5835 123.164 33.3335 123.03 33.9002C122.897 34.4335 122.83 34.9335 122.83 35.4002C122.83 36.5002 123.197 37.0502 123.93 37.0502C124.73 37.0502 125.697 36.4002 126.83 35.1002C127.764 34.0002 128.68 32.6835 129.58 31.1502C130.48 29.6169 131.33 28.0335 132.13 26.4002C132.964 24.7669 133.697 23.3002 134.33 22.0002C134.697 21.2669 135.347 20.9002 136.28 20.9002H139.03C138.53 21.3002 138.114 21.6835 137.78 22.0502C137.48 22.4169 137.164 22.8835 136.83 23.4502C136.497 24.0169 136.047 24.8335 135.48 25.9002C134.147 28.3335 133.18 30.4002 132.58 32.1002C132.447 32.5335 132.314 33.0335 132.18 33.6002C132.08 34.1669 132.03 34.7169 132.03 35.2502C132.03 35.8835 132.164 36.4835 132.43 37.0502C132.73 37.5835 133.18 37.9335 133.78 38.1002C134.314 38.2335 134.58 38.3169 134.58 38.3502C134.58 38.4502 134.464 38.5169 134.23 38.5502C134.03 38.5835 133.814 38.6002 133.58 38.6002C132.68 38.6002 131.814 38.2835 130.98 37.6502C130.18 36.9835 129.78 35.9335 129.78 34.5002C129.78 34.0335 129.814 33.5669 129.88 33.1002C129.98 32.6002 130.08 32.1502 130.18 31.7502ZM141.02 37.0502C141.82 37.0502 142.787 36.4002 143.92 35.1002C144.854 34.0002 145.77 32.6835 146.67 31.1502C147.57 29.6169 148.42 28.0335 149.22 26.4002C150.054 24.7669 150.787 23.3002 151.42 22.0002C151.787 21.2669 152.437 20.9002 153.37 20.9002H156.12C155.62 21.3002 155.204 21.6835 154.87 22.0502C154.537 22.4169 154.204 22.8835 153.87 23.4502C153.57 24.0169 153.154 24.8335 152.62 25.9002C151.754 27.6669 151.02 29.2169 150.42 30.5502C149.82 31.8835 149.437 32.9835 149.27 33.8502C149.237 34.1835 149.204 34.4335 149.17 34.6002C149.137 34.7335 149.12 34.9169 149.12 35.1502C149.12 36.3835 149.47 37.0002 150.17 37.0002C150.537 37.0002 150.97 36.8502 151.47 36.5502C151.97 36.2169 152.504 35.7335 153.07 35.1002C154.004 34.0002 154.92 32.6835 155.82 31.1502C156.72 29.6169 157.57 28.0335 158.37 26.4002C159.204 24.7669 159.937 23.3002 160.57 22.0002C160.937 21.2669 161.587 20.9002 162.52 20.9002H165.27C164.77 21.3002 164.354 21.6835 164.02 22.0502C163.687 22.4169 163.354 22.8835 163.02 23.4502C162.72 24.0169 162.304 24.8335 161.77 25.9002C161.137 27.1335 160.57 28.2669 160.07 29.3002C159.604 30.3335 159.22 31.2669 158.92 32.1002C158.787 32.5335 158.637 33.0335 158.47 33.6002C158.337 34.1669 158.27 34.7169 158.27 35.2502C158.27 35.8835 158.404 36.4835 158.67 37.0502C158.97 37.5835 159.42 37.9335 160.02 38.1002C160.554 38.2335 160.82 38.3169 160.82 38.3502C160.82 38.4502 160.704 38.5169 160.47 38.5502C160.27 38.5835 160.054 38.6002 159.82 38.6002C158.92 38.6002 158.054 38.2835 157.22 37.6502C156.42 36.9835 156.02 35.9335 156.02 34.5002C156.02 34.0335 156.054 33.5669 156.12 33.1002C156.22 32.6002 156.32 32.1502 156.42 31.7502C155.854 32.7502 155.204 33.7502 154.47 34.7502C153.737 35.7502 152.954 36.5835 152.12 37.2502C151.287 37.8835 150.454 38.2002 149.62 38.2002C148.787 38.2002 148.104 37.9002 147.57 37.3002C147.037 36.6669 146.77 35.7835 146.77 34.6502C146.77 33.7502 146.937 32.7835 147.27 31.7502C146.67 32.8169 146.004 33.8502 145.27 34.8502C144.537 35.8169 143.754 36.6169 142.92 37.2502C142.087 37.8835 141.237 38.2002 140.37 38.2002C140.037 38.2002 139.62 38.1169 139.12 37.9502C138.62 37.7835 138.17 37.4835 137.77 37.0502C137.404 36.5835 137.22 35.9002 137.22 35.0002C137.22 34.1335 137.404 33.1169 137.77 31.9502C138.137 30.7835 138.587 29.5669 139.12 28.3002C139.687 27.0335 140.254 25.8502 140.82 24.7502C141.42 23.6169 141.92 22.7002 142.32 22.0002C142.72 21.2669 143.354 20.9002 144.22 20.9002H147.32C146.954 21.2002 146.587 21.5169 146.22 21.8502C145.854 22.1835 145.437 22.6835 144.97 23.3502C144.537 24.0169 143.97 25.0002 143.27 26.3002C142.97 26.8335 142.637 27.5335 142.27 28.4002C141.904 29.2335 141.537 30.1002 141.17 31.0002C140.804 31.9002 140.504 32.7502 140.27 33.5502C140.037 34.3169 139.92 34.9335 139.92 35.4002C139.92 36.5002 140.287 37.0502 141.02 37.0502ZM142.22 41.6502C143.387 41.6502 144.72 41.7669 146.22 42.0002C147.754 42.2669 149.437 42.4002 151.27 42.4002C152.537 42.4002 153.77 42.2502 154.97 41.9502C156.204 41.6835 157.104 41.1669 157.67 40.4002C158.004 40.4002 158.17 40.5169 158.17 40.7502C157.637 41.5169 157.07 42.1835 156.47 42.7502C155.87 43.3502 155.137 43.8002 154.27 44.1002C153.404 44.4335 152.287 44.6002 150.92 44.6002C150.02 44.6002 149.004 44.4669 147.87 44.2002C146.737 43.9335 145.587 43.6669 144.42 43.4002C143.287 43.1669 142.22 43.0502 141.22 43.0502C140.42 43.0502 139.704 43.1669 139.07 43.4002C138.437 43.6669 137.937 44.1169 137.57 44.7502L137.42 45.0002C137.32 45.1335 137.237 45.2002 137.17 45.2002C137.104 45.2002 137.037 45.1502 136.97 45.0502C136.904 44.9502 136.887 44.8335 136.92 44.7002C137.287 43.7669 137.954 43.0169 138.92 42.4502C139.887 41.9169 140.987 41.6502 142.22 41.6502ZM161.04 54.1502C159.573 54.1502 158.573 53.8002 158.04 53.1002C157.507 52.4002 157.24 51.6002 157.24 50.7002C157.24 49.4335 157.657 48.2669 158.49 47.2002C159.29 46.1335 160.373 45.1669 161.74 44.3002C163.107 43.4335 164.623 42.6502 166.29 41.9502C167.957 41.2835 169.64 40.7002 171.34 40.2002C171.973 39.1002 172.557 37.8502 173.09 36.4502C173.623 35.0169 174.107 33.6335 174.54 32.3002C174.973 30.9335 175.323 29.8169 175.59 28.9502C175.19 29.6835 174.673 30.5835 174.04 31.6502C173.44 32.6835 172.757 33.7002 171.99 34.7002C171.223 35.7002 170.39 36.5335 169.49 37.2002C168.623 37.8669 167.707 38.2002 166.74 38.2002C166.373 38.2002 165.923 38.1169 165.39 37.9502C164.89 37.7835 164.44 37.4835 164.04 37.0502C163.673 36.5835 163.49 35.9002 163.49 35.0002C163.49 33.9335 163.673 32.8502 164.04 31.7502C164.407 30.6169 164.823 29.5502 165.29 28.5502C165.39 28.3502 165.59 27.9169 165.89 27.2502C166.19 26.5835 166.523 25.8502 166.89 25.0502C167.29 24.2502 167.64 23.5502 167.94 22.9502C168.307 22.1835 168.707 21.6502 169.14 21.3502C169.607 21.0502 170.057 20.9002 170.49 20.9002H173.59C173.357 21.1002 173.057 21.3335 172.69 21.6002C172.357 21.8335 172.04 22.2002 171.74 22.7002C170.84 24.2335 170.073 25.5835 169.44 26.7502C168.84 27.9169 168.307 28.9835 167.84 29.9502C167.173 31.3502 166.723 32.5002 166.49 33.4002C166.29 34.2669 166.19 34.9335 166.19 35.4002C166.19 36.5002 166.557 37.0502 167.29 37.0502C168.09 37.0502 169.057 36.4002 170.19 35.1002C171.123 34.0002 172.057 32.7002 172.99 31.2002C173.957 29.6669 174.873 28.1002 175.74 26.5002C176.64 24.8669 177.423 23.3669 178.09 22.0002C178.457 21.2669 179.107 20.9002 180.04 20.9002H182.79C181.823 21.5669 181.073 22.4335 180.54 23.5002C180.04 24.5669 179.473 25.9335 178.84 27.6002C178.14 29.4335 177.473 31.3335 176.84 33.3002C176.207 35.2335 175.457 37.2335 174.59 39.3002C176.657 38.6669 178.373 37.8002 179.74 36.7002C181.14 35.6002 182.273 34.3502 183.14 32.9502C184.04 31.5502 184.773 30.0835 185.34 28.5502C185.74 28.5502 185.94 28.7002 185.94 29.0002C185.173 30.7669 184.44 32.2502 183.74 33.4502C183.073 34.6502 182.323 35.6669 181.49 36.5002C180.69 37.3335 179.69 38.0669 178.49 38.7002C177.323 39.3335 175.84 39.9502 174.04 40.5502C173.24 42.0169 172.39 43.5335 171.49 45.1002C170.623 46.7002 169.673 48.1835 168.64 49.5502C167.64 50.9169 166.507 52.0169 165.24 52.8502C164.007 53.7169 162.607 54.1502 161.04 54.1502ZM160.49 53.1002C161.99 53.1002 163.557 52.0669 165.19 50.0002C166.823 47.9669 168.557 45.2335 170.39 41.8002C169.09 42.1335 167.74 42.6169 166.34 43.2502C164.94 43.8835 163.623 44.6002 162.39 45.4002C161.19 46.2335 160.207 47.1335 159.44 48.1002C158.673 49.0669 158.29 50.0669 158.29 51.1002C158.29 51.6335 158.473 52.1002 158.84 52.5002C159.173 52.9002 159.723 53.1002 160.49 53.1002ZM207.453 25.8502C207.453 26.8502 207.186 28.0502 206.653 29.4502C206.12 30.8502 205.37 32.2169 204.403 33.5502C203.436 34.8835 202.286 36.0002 200.953 36.9002C199.653 37.7669 198.236 38.2002 196.703 38.2002C195.37 38.2002 194.386 37.8002 193.753 37.0002C193.12 36.2002 192.803 35.1835 192.803 33.9502C192.803 32.9835 192.986 31.8835 193.353 30.6502C193.753 29.4169 194.27 27.9835 194.903 26.3502C195.07 25.9502 195.403 25.2335 195.903 24.2002C196.436 23.1335 197.086 21.9002 197.853 20.5002C198.62 19.0669 199.436 17.5835 200.303 16.0502C201.203 14.5169 202.103 13.0669 203.003 11.7002C203.936 10.3002 204.82 9.13353 205.653 8.20019C207.82 5.63353 209.936 3.63353 212.003 2.20019C214.07 0.733526 216.053 0.000192404 217.953 0.000192404C219.086 0.000192404 219.953 0.283526 220.553 0.850193C221.186 1.38353 221.503 2.10019 221.503 3.00019C221.503 4.23353 220.936 5.73353 219.803 7.50019C218.67 9.23353 216.97 11.0335 214.703 12.9002C213.236 14.2002 211.453 15.4335 209.353 16.6002C207.253 17.7669 204.503 18.8669 201.103 19.9002C199.97 21.9669 198.97 23.9669 198.103 25.9002C197.236 27.8002 196.553 29.5335 196.053 31.1002C195.553 32.6335 195.303 33.8669 195.303 34.8002C195.303 35.3002 195.353 35.7502 195.453 36.1502C195.52 36.4169 195.67 36.6669 195.903 36.9002C196.17 37.1002 196.486 37.2002 196.853 37.2002C197.32 37.2002 197.853 37.0169 198.453 36.6502C199.086 36.2835 199.786 35.6335 200.553 34.7002C201.02 34.1335 201.503 33.4502 202.003 32.6502C202.503 31.8502 202.97 31.0335 203.403 30.2002C203.836 29.3335 204.186 28.5669 204.453 27.9002C205.02 26.5669 205.303 25.3502 205.303 24.2502C205.303 23.1835 205.053 22.4835 204.553 22.1502C204.086 21.8169 203.37 21.6502 202.403 21.6502C201.803 21.6502 201.503 21.4835 201.503 21.1502C201.503 21.0169 201.586 20.8835 201.753 20.7502C201.953 20.6169 202.22 20.5502 202.553 20.5502C203.82 20.5502 204.953 21.0169 205.953 21.9502C206.953 22.8835 207.453 24.1835 207.453 25.8502ZM217.953 1.6502C216.82 1.6502 215.57 2.13353 214.203 3.10019C212.836 4.03353 211.436 5.31686 210.003 6.9502C208.57 8.58353 207.153 10.4169 205.753 12.4502C204.353 14.4502 203.036 16.5169 201.803 18.6502C204.636 17.7169 207.02 16.6835 208.953 15.5502C210.92 14.4169 212.603 13.2335 214.003 12.0002C215.97 10.3669 217.436 8.80019 218.403 7.30019C219.37 5.76686 219.853 4.51686 219.853 3.55019C219.853 2.98353 219.686 2.53353 219.353 2.20019C219.053 1.83353 218.586 1.6502 217.953 1.6502ZM220.427 38.3502C219.66 38.3502 218.977 38.1335 218.377 37.7002C217.81 37.2669 217.527 36.3835 217.527 35.0502C217.527 34.4835 217.56 33.9502 217.627 33.4502C217.727 32.9502 217.844 32.4169 217.977 31.8502C217.677 32.3502 217.26 32.9669 216.727 33.7002C216.194 34.4335 215.594 35.1502 214.927 35.8502C214.294 36.5502 213.627 37.1335 212.927 37.6002C212.26 38.0669 211.627 38.3002 211.027 38.3002C210.16 38.3002 209.46 37.9169 208.927 37.1502C208.394 36.3502 208.127 35.3169 208.127 34.0502C208.127 32.6835 208.444 31.2169 209.077 29.6502C209.71 28.0835 210.577 26.5835 211.677 25.1502C212.777 23.7169 214.044 22.5502 215.477 21.6502C216.91 20.7502 218.41 20.3002 219.977 20.3002C220.744 20.3002 221.477 20.4335 222.177 20.7002C222.877 20.9335 223.494 21.3335 224.027 21.9002C224.26 22.1335 224.377 22.4002 224.377 22.7002C224.377 22.9002 224.294 23.0669 224.127 23.2002C223.96 23.3335 223.744 23.3669 223.477 23.3002C223.11 22.1335 222.327 21.5502 221.127 21.5502C220.56 21.5502 219.91 21.7335 219.177 22.1002C218.277 22.5669 217.31 23.3169 216.277 24.3502C215.277 25.3502 214.327 26.5002 213.427 27.8002C212.56 29.0669 211.844 30.3502 211.277 31.6502C210.71 32.9502 210.427 34.1335 210.427 35.2002C210.427 36.3002 210.844 36.8502 211.677 36.8502C212.41 36.8502 213.16 36.5002 213.927 35.8002C214.727 35.1002 215.477 34.2335 216.177 33.2002C216.91 32.1335 217.577 31.0835 218.177 30.0502C218.777 29.0169 219.244 28.1835 219.577 27.5502C220.077 26.6502 220.544 25.9002 220.977 25.3002C221.41 24.7002 222.027 24.4002 222.827 24.4002C223.194 24.4002 223.56 24.4502 223.927 24.5502C224.294 24.6502 224.677 24.6669 225.077 24.6002C224.077 25.6002 223.194 26.7835 222.427 28.1502C221.694 29.5169 221.127 30.8669 220.727 32.2002C220.327 33.5002 220.127 34.6002 220.127 35.5002C220.127 36.5002 220.46 37.0002 221.127 37.0002C221.794 37.0002 222.51 36.5502 223.277 35.6502C224.044 34.7169 224.76 33.6835 225.427 32.5502C225.594 32.5502 225.71 32.6169 225.777 32.7502C225.877 32.8835 225.927 33.0169 225.927 33.1502C225.46 33.9835 224.927 34.8002 224.327 35.6002C223.76 36.4002 223.144 37.0669 222.477 37.6002C221.844 38.1002 221.16 38.3502 220.427 38.3502ZM226.647 35.9002C226.647 36.2335 226.714 36.5502 226.847 36.8502C227.014 37.1169 227.28 37.2502 227.647 37.2502C228.314 37.2502 228.997 36.9002 229.697 36.2002C230.397 35.4669 231.114 34.5335 231.847 33.4002C232.614 32.2335 233.364 31.0335 234.097 29.8002C235.264 27.8335 236.28 26.2002 237.147 24.9002C238.047 23.6002 238.88 22.6335 239.647 22.0002C240.147 21.5669 240.58 21.3002 240.947 21.2002C241.314 21.0669 241.68 21.0002 242.047 21.0002H242.397C243.764 21.0002 244.147 21.6335 243.547 22.9002L241.747 26.6502C241.447 27.2502 241.08 28.0002 240.647 28.9002C240.247 29.7669 239.847 30.6669 239.447 31.6002C239.047 32.5002 238.73 33.3669 238.497 34.2002C238.264 35.0002 238.18 35.6502 238.247 36.1502C238.314 36.6502 238.614 36.9002 239.147 36.9002C239.58 36.9002 240.097 36.5335 240.697 35.8002C241.33 35.0335 241.997 34.0669 242.697 32.9002C243.43 31.7335 244.164 30.5002 244.897 29.2002C245.664 27.9002 246.414 26.6669 247.147 25.5002C247.914 24.3335 248.63 23.4002 249.297 22.7002C249.464 22.5335 249.83 22.2169 250.397 21.7502C250.964 21.2502 251.514 21.0002 252.047 21.0002H252.397C252.997 21.0002 253.414 21.1502 253.647 21.4502C253.88 21.7169 253.83 22.2002 253.497 22.9002L251.747 26.6502C251.447 27.2502 251.08 28.0002 250.647 28.9002C250.247 29.7669 249.847 30.6669 249.447 31.6002C249.08 32.5002 248.78 33.3669 248.547 34.2002C248.347 35.0002 248.28 35.6502 248.347 36.1502C248.447 36.6502 248.78 36.9002 249.347 36.9002C250.18 36.9002 250.997 36.4669 251.797 35.6002C252.63 34.7335 253.414 33.6669 254.147 32.4002C254.88 31.1002 255.53 29.8169 256.097 28.5502C256.23 28.5502 256.364 28.6002 256.497 28.7002C256.63 28.7669 256.697 28.8669 256.697 29.0002C256.097 30.5002 255.397 31.9502 254.597 33.3502C253.83 34.7502 252.947 35.9002 251.947 36.8002C250.947 37.7002 249.797 38.1502 248.497 38.1502C247.397 38.1502 246.647 37.8169 246.247 37.1502C245.847 36.4835 245.714 35.6002 245.847 34.5002C246.014 33.3669 246.347 32.1169 246.847 30.7502C247.38 29.3502 248.014 27.9335 248.747 26.5002C249.48 25.0669 250.23 23.7169 250.997 22.4502C251.13 22.2169 251.13 22.1002 250.997 22.1002C250.897 22.1002 250.68 22.2835 250.347 22.6502C250.014 23.0169 249.814 23.2335 249.747 23.3002C248.88 24.2669 248.064 25.4002 247.297 26.7002C246.564 27.9669 245.83 29.2669 245.097 30.6002C244.397 31.9335 243.68 33.1835 242.947 34.3502C242.214 35.4835 241.447 36.4002 240.647 37.1002C239.847 37.8002 238.964 38.1502 237.997 38.1502C236.93 38.1502 236.247 37.7169 235.947 36.8502C235.68 35.9502 235.714 34.7502 236.047 33.2502C236.414 31.7502 237.03 30.0669 237.897 28.2002C238.764 26.3335 239.797 24.4169 240.997 22.4502C241.13 22.2169 241.114 22.1002 240.947 22.1002C240.78 22.1002 240.43 22.3669 239.897 22.9002C239.53 23.2669 239.164 23.6835 238.797 24.1502C238.464 24.6169 238.014 25.3169 237.447 26.2502C236.88 27.1502 236.08 28.5002 235.047 30.3002C234.28 31.6335 233.48 32.9169 232.647 34.1502C231.847 35.3835 230.997 36.4002 230.097 37.2002C229.197 37.9669 228.214 38.3502 227.147 38.3502C226.347 38.3502 225.63 38.1169 224.997 37.6502C224.364 37.1502 224.047 36.4335 224.047 35.5002C224.047 34.9335 224.18 34.3169 224.447 33.6502C224.68 32.9835 225.03 32.4169 225.497 31.9502C225.997 31.4835 226.597 31.2835 227.297 31.3502C227.764 31.3835 228.18 31.5669 228.547 31.9002C227.947 32.4669 227.48 33.1335 227.147 33.9002C226.814 34.6669 226.647 35.3335 226.647 35.9002Z" fill="#31010F"></path></svg> 