<?xml version="1.0" encoding="UTF-8"?> <svg xmlns="http://www.w3.org/2000/svg" width="236" height="20" viewBox="0 0 236 20" fill="none"><path d="M13.425 16.625H13.55C13.6666 16.625 13.775 16.575 13.875 16.475C13.975 16.375 14.0583 16.2583 14.125 16.125C14.2083 15.9917 14.2666 15.85 14.3 15.7C14.3333 15.5333 14.35 15.3833 14.35 15.25V2.1L7.89998 17.15L1.77498 2.875V15.25C1.77498 15.3833 1.79164 15.5333 1.82498 15.7C1.85831 15.85 1.90831 15.9917 1.97498 16.125C2.05831 16.2583 2.14998 16.375 2.24998 16.475C2.34998 16.575 2.46664 16.625 2.59998 16.625H2.72498V16.875H-2.43187e-05V16.625H0.124976C0.241642 16.625 0.349976 16.575 0.449976 16.475C0.549976 16.375 0.633309 16.2583 0.699976 16.125C0.766642 15.9917 0.816642 15.85 0.849976 15.7C0.883309 15.5333 0.899976 15.3833 0.899976 15.25V1.925C0.899976 1.80833 0.883309 1.675 0.849976 1.525C0.816642 1.375 0.766642 1.23333 0.699976 1.1C0.633309 0.966665 0.549976 0.858332 0.449976 0.774999C0.349976 0.674999 0.241642 0.624999 0.124976 0.624999H-2.43187e-05V0.374999H2.54998L8.34998 14.05L14.15 0.374999H16.975V0.624999H16.85C16.7166 0.624999 16.6 0.674999 16.5 0.774999C16.4 0.858332 16.3083 0.966665 16.225 1.1C16.1583 1.23333 16.1083 1.375 16.075 1.525C16.0416 1.675 16.025 1.80833 16.025 1.925V15.25C16.025 15.3833 16.0416 15.5333 16.075 15.7C16.1083 15.85 16.1583 15.9917 16.225 16.125C16.3083 16.2583 16.4 16.375 16.5 16.475C16.6 16.575 16.7166 16.625 16.85 16.625H16.975V16.875H13.425V16.625ZM20.1586 16.625H20.2836C20.4169 16.625 20.5336 16.5833 20.6336 16.5C20.7336 16.4 20.8169 16.2833 20.8836 16.15C20.9669 16.0167 21.0252 15.875 21.0586 15.725C21.1086 15.575 21.1336 15.4333 21.1336 15.3V1.925C21.1336 1.80833 21.1086 1.675 21.0586 1.525C21.0252 1.375 20.9669 1.23333 20.8836 1.1C20.8169 0.966665 20.7336 0.858332 20.6336 0.774999C20.5336 0.674999 20.4169 0.624999 20.2836 0.624999H20.1586V0.374999H29.7836V2.7H29.5336C29.5002 2.31667 29.3502 1.98333 29.0836 1.7C28.8169 1.4 28.4002 1.25 27.8336 1.25H22.8086V7.575H26.9586C27.3419 7.575 27.6586 7.45833 27.9086 7.225C28.1752 6.99167 28.3086 6.71667 28.3086 6.4H28.5586V9.525H28.3086C28.3086 9.225 28.1836 8.96667 27.9336 8.75C27.6836 8.53333 27.3586 8.425 26.9586 8.425H22.8086V16H28.2836C28.6002 16 28.8752 15.925 29.1086 15.775C29.3419 15.625 29.5336 15.45 29.6836 15.25C29.8502 15.0333 29.9669 14.8083 30.0336 14.575C30.1169 14.325 30.1586 14.1167 30.1586 13.95H30.4086V16.875H20.1586V16.625ZM41.0123 1.025C39.7789 1.025 38.7039 1.25 37.7873 1.7C36.8873 2.13333 36.1373 2.70833 35.5373 3.425C34.9373 4.125 34.4873 4.91667 34.1873 5.8C33.9039 6.68333 33.7623 7.55833 33.7623 8.425C33.7623 9.40833 33.9539 10.375 34.3373 11.325C34.7206 12.2583 35.2456 13.0917 35.9123 13.825C36.5956 14.5417 37.3873 15.125 38.2873 15.575C39.1873 16.0083 40.1623 16.225 41.2123 16.225C41.5123 16.225 41.8623 16.1917 42.2623 16.125C42.6789 16.0583 43.0873 15.9333 43.4873 15.75C43.8873 15.55 44.2539 15.275 44.5873 14.925C44.9373 14.575 45.2039 14.1167 45.3873 13.55H45.6373V16.325C45.3873 16.325 45.1206 16.3583 44.8373 16.425C44.5706 16.4917 44.2706 16.5667 43.9373 16.65C43.5039 16.7667 43.0206 16.875 42.4873 16.975C41.9706 17.075 41.4206 17.125 40.8373 17.125C39.3873 17.125 38.1123 16.875 37.0123 16.375C35.9123 15.875 34.9956 15.225 34.2623 14.425C33.5289 13.625 32.9789 12.725 32.6123 11.725C32.2456 10.7083 32.0623 9.68333 32.0623 8.65C32.0623 7.61667 32.2456 6.59167 32.6123 5.575C32.9789 4.55833 33.5373 3.65 34.2873 2.85C35.0373 2.03333 35.9789 1.375 37.1123 0.874999C38.2456 0.374999 39.5789 0.125 41.1123 0.125C41.6623 0.125 42.1539 0.174999 42.5873 0.274999C43.0373 0.374999 43.4373 0.474999 43.7873 0.575C44.0373 0.658333 44.2623 0.724999 44.4623 0.774999C44.6789 0.808333 44.8873 0.825 45.0873 0.825V3.6H44.8373C44.7373 3.08333 44.5539 2.65833 44.2873 2.325C44.0206 1.975 43.7039 1.70833 43.3373 1.525C42.9873 1.34167 42.6039 1.21667 42.1873 1.15C41.7873 1.06667 41.3956 1.025 41.0123 1.025ZM54.5949 16.625H54.7199V16.875H51.1699V16.625H51.2949C51.4282 16.625 51.5449 16.575 51.6449 16.475C51.7449 16.375 51.8282 16.2583 51.8949 16.125C51.9782 15.9917 52.0366 15.85 52.0699 15.7C52.1032 15.5333 52.1199 15.3833 52.1199 15.25V1.3H49.2199C48.9532 1.3 48.7199 1.35833 48.5199 1.475C48.3199 1.59167 48.1532 1.74167 48.0199 1.925C47.8866 2.09167 47.7866 2.28333 47.7199 2.5C47.6532 2.7 47.6199 2.9 47.6199 3.1H47.3699V0.374999H58.5949V3.1H58.3449C58.3449 2.9 58.3116 2.7 58.2449 2.5C58.1782 2.28333 58.0782 2.09167 57.9449 1.925C57.8116 1.74167 57.6449 1.59167 57.4449 1.475C57.2449 1.35833 57.0116 1.3 56.7449 1.3H53.7949V15.25C53.7949 15.3833 53.8116 15.5333 53.8449 15.7C53.8782 15.85 53.9282 15.9917 53.9949 16.125C54.0782 16.2583 54.1616 16.375 54.2449 16.475C54.3449 16.575 54.4616 16.625 54.5949 16.625ZM67.8209 0.125C69.1209 0.125 70.2875 0.358333 71.3209 0.825C72.3542 1.275 73.2292 1.89167 73.9459 2.675C74.6792 3.44167 75.2375 4.34167 75.6209 5.375C76.0209 6.39167 76.2209 7.45833 76.2209 8.575C76.2209 9.825 75.9875 10.975 75.5209 12.025C75.0709 13.075 74.4459 13.975 73.6459 14.725C72.8459 15.475 71.9125 16.0667 70.8459 16.5C69.7959 16.9167 68.6709 17.125 67.4709 17.125C66.1875 17.125 65.0292 16.8917 63.9959 16.425C62.9792 15.9583 62.1125 15.3417 61.3959 14.575C60.6959 13.8083 60.1542 12.925 59.7709 11.925C59.3875 10.925 59.1959 9.88333 59.1959 8.8C59.1959 7.73333 59.3875 6.68333 59.7709 5.65C60.1542 4.6 60.7125 3.66667 61.4459 2.85C62.1959 2.03333 63.1042 1.375 64.1709 0.874999C65.2375 0.374999 66.4542 0.125 67.8209 0.125ZM67.7959 16.25C68.9125 16.2 69.8875 15.95 70.7209 15.5C71.5709 15.0333 72.2792 14.45 72.8459 13.75C73.4125 13.0333 73.8292 12.25 74.0959 11.4C74.3792 10.55 74.5209 9.70833 74.5209 8.875C74.5209 7.95833 74.3542 7.03333 74.0209 6.1C73.6875 5.16667 73.2125 4.325 72.5959 3.575C71.9792 2.80833 71.2375 2.19167 70.3709 1.725C69.5209 1.24167 68.5625 0.999999 67.4959 0.999999C66.4625 0.999999 65.5375 1.23333 64.7209 1.7C63.9042 2.15 63.2042 2.73333 62.6209 3.45C62.0542 4.16667 61.6209 4.96667 61.3209 5.85C61.0209 6.73333 60.8709 7.6 60.8709 8.45C60.8709 9.36667 61.0459 10.2917 61.3959 11.225C61.7459 12.1417 62.2292 12.975 62.8459 13.725C63.4625 14.475 64.1875 15.0833 65.0209 15.55C65.8709 16.0167 66.7959 16.25 67.7959 16.25ZM86.4086 16.625H86.5336C86.6669 16.625 86.7836 16.5833 86.8836 16.5C86.9836 16.4 87.0669 16.2833 87.1336 16.15C87.2002 16 87.2502 15.85 87.2836 15.7C87.3169 15.5333 87.3336 15.3833 87.3336 15.25V1.925C87.3336 1.80833 87.3086 1.675 87.2586 1.525C87.2252 1.375 87.1752 1.23333 87.1086 1.1C87.0419 0.966665 86.9586 0.858332 86.8586 0.774999C86.7586 0.674999 86.6502 0.624999 86.5336 0.624999H86.4086V0.374999H99.2086V0.624999H99.0086C98.8919 0.624999 98.7919 0.674999 98.7086 0.774999C98.6252 0.858332 98.5502 0.974999 98.4836 1.125C98.4336 1.25833 98.3919 1.4 98.3586 1.55C98.3252 1.7 98.3086 1.825 98.3086 1.925V15.25C98.3086 15.3833 98.3169 15.525 98.3336 15.675C98.3669 15.825 98.4086 15.975 98.4586 16.125C98.5252 16.2583 98.6002 16.375 98.6836 16.475C98.7836 16.575 98.8919 16.625 99.0086 16.625H99.2086V16.875H95.7086V16.625H95.9336C96.0502 16.625 96.1502 16.575 96.2336 16.475C96.3336 16.375 96.4086 16.2583 96.4586 16.125C96.5252 15.9917 96.5669 15.85 96.5836 15.7C96.6169 15.5333 96.6336 15.3833 96.6336 15.25V1.25H89.0086V15.25C89.0086 15.3833 89.0252 15.5333 89.0586 15.7C89.0919 15.85 89.1336 15.9917 89.1836 16.125C89.2502 16.2583 89.3336 16.375 89.4336 16.475C89.5336 16.575 89.6502 16.625 89.7836 16.625H89.9086V16.875H86.4086V16.625ZM102.319 0.374999H105.869C107.719 0.374999 109.119 0.733333 110.069 1.45C111.036 2.15 111.519 3.15 111.519 4.45C111.519 5.15 111.352 5.775 111.019 6.325C110.686 6.875 110.244 7.34167 109.694 7.725C109.161 8.09167 108.552 8.375 107.869 8.575C107.202 8.775 106.536 8.875 105.869 8.875H104.919V15.25C104.919 15.3833 104.936 15.5333 104.969 15.7C105.002 15.85 105.052 15.9917 105.119 16.125C105.202 16.2583 105.286 16.375 105.369 16.475C105.469 16.575 105.586 16.625 105.719 16.625H105.844V16.875H102.319V16.625H102.444C102.561 16.625 102.669 16.575 102.769 16.475C102.869 16.375 102.952 16.2583 103.019 16.125C103.086 15.9917 103.136 15.85 103.169 15.7C103.202 15.5333 103.219 15.3833 103.219 15.25V1.925C103.219 1.69167 103.152 1.425 103.019 1.125C102.886 0.825 102.694 0.658333 102.444 0.624999H102.319V0.374999ZM104.919 1.25V8H105.669C106.336 8 106.927 7.90833 107.444 7.725C107.977 7.54167 108.419 7.3 108.769 7C109.119 6.7 109.386 6.35833 109.569 5.975C109.752 5.59167 109.844 5.2 109.844 4.8C109.844 4.31667 109.761 3.86667 109.594 3.45C109.444 3.01667 109.186 2.64167 108.819 2.325C108.469 1.99167 108.002 1.73333 107.419 1.55C106.836 1.35 106.119 1.25 105.269 1.25H104.919ZM122.823 0.125C124.123 0.125 125.289 0.358333 126.323 0.825C127.356 1.275 128.231 1.89167 128.948 2.675C129.681 3.44167 130.239 4.34167 130.623 5.375C131.023 6.39167 131.223 7.45833 131.223 8.575C131.223 9.825 130.989 10.975 130.523 12.025C130.073 13.075 129.448 13.975 128.648 14.725C127.848 15.475 126.914 16.0667 125.848 16.5C124.798 16.9167 123.673 17.125 122.473 17.125C121.189 17.125 120.031 16.8917 118.998 16.425C117.981 15.9583 117.114 15.3417 116.398 14.575C115.698 13.8083 115.156 12.925 114.773 11.925C114.389 10.925 114.198 9.88333 114.198 8.8C114.198 7.73333 114.389 6.68333 114.773 5.65C115.156 4.6 115.714 3.66667 116.448 2.85C117.198 2.03333 118.106 1.375 119.173 0.874999C120.239 0.374999 121.456 0.125 122.823 0.125ZM122.798 16.25C123.914 16.2 124.889 15.95 125.723 15.5C126.573 15.0333 127.281 14.45 127.848 13.75C128.414 13.0333 128.831 12.25 129.098 11.4C129.381 10.55 129.523 9.70833 129.523 8.875C129.523 7.95833 129.356 7.03333 129.023 6.1C128.689 5.16667 128.214 4.325 127.598 3.575C126.981 2.80833 126.239 2.19167 125.373 1.725C124.523 1.24167 123.564 0.999999 122.498 0.999999C121.464 0.999999 120.539 1.23333 119.723 1.7C118.906 2.15 118.206 2.73333 117.623 3.45C117.056 4.16667 116.623 4.96667 116.323 5.85C116.023 6.73333 115.873 7.6 115.873 8.45C115.873 9.36667 116.048 10.2917 116.398 11.225C116.748 12.1417 117.231 12.975 117.848 13.725C118.464 14.475 119.189 15.0833 120.023 15.55C120.873 16.0167 121.798 16.25 122.798 16.25ZM134.166 16.625H134.291C134.408 16.625 134.516 16.575 134.616 16.475C134.716 16.375 134.8 16.2583 134.866 16.125C134.95 15.9917 135.008 15.85 135.041 15.7C135.075 15.5333 135.091 15.3833 135.091 15.25V1.95C135.091 1.83333 135.075 1.7 135.041 1.55C135.008 1.4 134.95 1.25833 134.866 1.125C134.8 0.974999 134.708 0.858332 134.591 0.774999C134.491 0.674999 134.375 0.624999 134.241 0.624999H134.116V0.374999H138.216C139.766 0.374999 140.975 0.716666 141.841 1.4C142.725 2.08333 143.166 2.99167 143.166 4.125C143.166 4.60833 143.083 5.04167 142.916 5.425C142.75 5.80833 142.533 6.15 142.266 6.45C142.016 6.75 141.741 7.00833 141.441 7.225C141.141 7.425 140.858 7.59167 140.591 7.725C141.291 7.85833 141.875 8.08333 142.341 8.4C142.808 8.71667 143.183 9.08333 143.466 9.5C143.766 9.9 143.975 10.3333 144.091 10.8C144.208 11.2667 144.266 11.725 144.266 12.175C144.266 13.0417 144.108 13.775 143.791 14.375C143.475 14.9583 143.05 15.4417 142.516 15.825C142 16.1917 141.4 16.4583 140.716 16.625C140.05 16.7917 139.358 16.875 138.641 16.875H134.166V16.625ZM142.566 12.325C142.433 11.0417 142 10.05 141.266 9.35C140.533 8.65 139.5 8.3 138.166 8.3H136.766V16.05H138.216C139.566 16.05 140.625 15.75 141.391 15.15C142.175 14.5333 142.566 13.6833 142.566 12.6V12.325ZM141.541 4.35C141.491 3.38333 141.15 2.61667 140.516 2.05C139.9 1.48333 139.066 1.2 138.016 1.2H136.766V7.5H138.066C138.766 7.5 139.333 7.40833 139.766 7.225C140.216 7.04167 140.575 6.80833 140.841 6.525C141.108 6.225 141.291 5.9 141.391 5.55C141.491 5.2 141.541 4.85833 141.541 4.525V4.35ZM147.148 16.625H147.273C147.406 16.625 147.523 16.5833 147.623 16.5C147.723 16.4 147.806 16.2833 147.873 16.15C147.956 16.0167 148.014 15.875 148.048 15.725C148.098 15.575 148.123 15.4333 148.123 15.3V1.925C148.123 1.80833 148.098 1.675 148.048 1.525C148.014 1.375 147.956 1.23333 147.873 1.1C147.806 0.966665 147.723 0.858332 147.623 0.774999C147.523 0.674999 147.406 0.624999 147.273 0.624999H147.148V0.374999H156.773V2.7H156.523C156.489 2.31667 156.339 1.98333 156.073 1.7C155.806 1.4 155.389 1.25 154.823 1.25H149.798V7.575H153.948C154.331 7.575 154.648 7.45833 154.898 7.225C155.164 6.99167 155.298 6.71667 155.298 6.4H155.548V9.525H155.298C155.298 9.225 155.173 8.96667 154.923 8.75C154.673 8.53333 154.348 8.425 153.948 8.425H149.798V16H155.273C155.589 16 155.864 15.925 156.098 15.775C156.331 15.625 156.523 15.45 156.673 15.25C156.839 15.0333 156.956 14.8083 157.023 14.575C157.106 14.325 157.148 14.1167 157.148 13.95H157.398V16.875H147.148V16.625ZM175.407 16V19.125H175.157C175.14 18.9083 175.082 18.6667 174.982 18.4C174.882 18.1333 174.74 17.8833 174.557 17.65C174.39 17.4333 174.19 17.25 173.957 17.1C173.723 16.95 173.465 16.875 173.182 16.875H161.657C161.373 16.875 161.115 16.95 160.882 17.1C160.648 17.2667 160.44 17.4583 160.257 17.675C160.09 17.9083 159.948 18.1583 159.832 18.425C159.732 18.6917 159.673 18.925 159.657 19.125H159.407V16H160.507C161.04 16 161.415 15.6917 161.632 15.075L167.382 -2.98023e-07L173.182 15C173.298 15.25 173.457 15.4833 173.657 15.7C173.857 15.9 174.09 16 174.357 16H175.407ZM162.182 16H171.807L166.982 3.575L162.182 16ZM178.189 16.625H178.314C178.447 16.625 178.564 16.5833 178.664 16.5C178.764 16.4 178.847 16.2833 178.914 16.15C178.997 16.0167 179.056 15.875 179.089 15.725C179.139 15.575 179.164 15.4333 179.164 15.3V1.925C179.164 1.80833 179.139 1.675 179.089 1.525C179.056 1.375 178.997 1.23333 178.914 1.1C178.847 0.966665 178.764 0.858332 178.664 0.774999C178.564 0.674999 178.447 0.624999 178.314 0.624999H178.189V0.374999H187.814V2.7H187.564C187.531 2.31667 187.381 1.98333 187.114 1.7C186.847 1.4 186.431 1.25 185.864 1.25H180.839V7.575H184.989C185.372 7.575 185.689 7.45833 185.939 7.225C186.206 6.99167 186.339 6.71667 186.339 6.4H186.589V9.525H186.339C186.339 9.225 186.214 8.96667 185.964 8.75C185.714 8.53333 185.389 8.425 184.989 8.425H180.839V16H186.314C186.631 16 186.906 15.925 187.139 15.775C187.372 15.625 187.564 15.45 187.714 15.25C187.881 15.0333 187.997 14.8083 188.064 14.575C188.147 14.325 188.189 14.1167 188.189 13.95H188.439V16.875H178.189V16.625ZM201.048 16.625H201.173C201.289 16.625 201.398 16.5833 201.498 16.5C201.598 16.4 201.681 16.2833 201.748 16.15C201.831 16 201.889 15.85 201.923 15.7C201.956 15.5333 201.973 15.3833 201.973 15.25V8.45H193.973V15.25C193.973 15.3833 193.989 15.5333 194.023 15.7C194.056 15.85 194.106 15.9917 194.173 16.125C194.239 16.2583 194.314 16.375 194.398 16.475C194.498 16.575 194.614 16.625 194.748 16.625H194.873V16.875H191.373V16.625H191.498C191.614 16.625 191.723 16.5833 191.823 16.5C191.923 16.4 192.006 16.2833 192.073 16.15C192.156 16 192.214 15.85 192.248 15.7C192.281 15.5333 192.298 15.3833 192.298 15.25V1.925C192.298 1.80833 192.281 1.675 192.248 1.525C192.214 1.375 192.164 1.23333 192.098 1.1C192.031 0.966665 191.948 0.858332 191.848 0.774999C191.748 0.674999 191.631 0.624999 191.498 0.624999H191.373V0.374999H194.873V0.624999H194.748C194.614 0.624999 194.498 0.674999 194.398 0.774999C194.298 0.858332 194.214 0.966665 194.148 1.1C194.098 1.23333 194.056 1.375 194.023 1.525C193.989 1.675 193.973 1.80833 193.973 1.925V7.575H201.973V1.925C201.973 1.80833 201.956 1.675 201.923 1.525C201.889 1.375 201.839 1.23333 201.773 1.1C201.706 0.966665 201.623 0.858332 201.523 0.774999C201.423 0.674999 201.306 0.624999 201.173 0.624999H201.048V0.374999H204.548V0.624999H204.423C204.289 0.624999 204.173 0.674999 204.073 0.774999C203.973 0.858332 203.889 0.966665 203.823 1.1C203.773 1.23333 203.731 1.375 203.698 1.525C203.664 1.675 203.648 1.80833 203.648 1.925V15.25C203.648 15.3833 203.664 15.5333 203.698 15.7C203.748 15.85 203.806 15.9917 203.873 16.125C203.939 16.2583 204.014 16.375 204.098 16.475C204.198 16.575 204.306 16.625 204.423 16.625H204.548V16.875H201.048V16.625ZM217.324 16.625H217.449C217.583 16.625 217.699 16.5833 217.799 16.5C217.899 16.4 217.983 16.2833 218.049 16.15C218.133 16 218.191 15.85 218.224 15.7C218.258 15.5333 218.274 15.3833 218.274 15.25V3.8L209.974 15.025V15.25C209.974 15.3833 209.991 15.5333 210.024 15.7C210.074 15.85 210.133 15.9917 210.199 16.125C210.266 16.2583 210.349 16.375 210.449 16.475C210.549 16.575 210.666 16.625 210.799 16.625H210.924V16.875H207.374V16.625H207.499C207.633 16.625 207.749 16.5833 207.849 16.5C207.949 16.4 208.033 16.2833 208.099 16.15C208.183 16 208.241 15.85 208.274 15.7C208.308 15.5333 208.324 15.3833 208.324 15.25V1.925C208.324 1.80833 208.308 1.675 208.274 1.525C208.241 1.375 208.183 1.23333 208.099 1.1C208.033 0.966665 207.949 0.858332 207.849 0.774999C207.749 0.674999 207.633 0.624999 207.499 0.624999H207.374V0.374999H210.924V0.624999H210.724C210.608 0.641666 210.499 0.699999 210.399 0.8C210.316 0.9 210.241 1.01667 210.174 1.15C210.108 1.26667 210.058 1.4 210.024 1.55C209.991 1.68333 209.974 1.80833 209.974 1.925V13.475L218.274 2.25V1.925C218.274 1.80833 218.258 1.675 218.224 1.525C218.191 1.375 218.133 1.23333 218.049 1.1C217.983 0.966665 217.899 0.858332 217.799 0.774999C217.699 0.674999 217.583 0.624999 217.449 0.624999H217.324V0.374999H220.874V0.624999H220.749C220.616 0.624999 220.499 0.674999 220.399 0.774999C220.299 0.858332 220.216 0.966665 220.149 1.1C220.083 1.23333 220.024 1.375 219.974 1.525C219.941 1.675 219.924 1.80833 219.924 1.925V15.25C219.924 15.3833 219.941 15.525 219.974 15.675C220.024 15.825 220.083 15.975 220.149 16.125C220.216 16.2583 220.299 16.375 220.399 16.475C220.499 16.575 220.616 16.625 220.749 16.625H220.874V16.875H217.324V16.625ZM232.069 16.625H232.194C232.31 16.625 232.419 16.575 232.519 16.475C232.635 16.375 232.727 16.2583 232.794 16.125C232.86 15.9917 232.91 15.85 232.944 15.7C232.994 15.5333 233.019 15.3833 233.019 15.25V8.475C232.652 8.50833 232.302 8.625 231.969 8.825C231.652 9.025 231.344 9.29167 231.044 9.625C230.76 9.95833 230.485 10.3333 230.219 10.75C229.969 11.1667 229.727 11.6 229.494 12.05C229.31 12.3833 229.11 12.7417 228.894 13.125C228.677 13.4917 228.46 13.8667 228.244 14.25C227.844 14.9833 227.319 15.6083 226.669 16.125C226.019 16.625 225.269 16.875 224.419 16.875H223.094V16.625C223.477 16.625 223.835 16.5417 224.169 16.375C224.519 16.2083 224.835 16 225.119 15.75C225.402 15.5 225.652 15.225 225.869 14.925C226.102 14.625 226.294 14.3417 226.444 14.075L228.419 10.525C228.652 10.125 228.902 9.74167 229.169 9.375C229.452 8.99167 229.877 8.68333 230.444 8.45C229.744 8.4 229.119 8.26667 228.569 8.05C228.019 7.83333 227.552 7.55 227.169 7.2C226.785 6.85 226.494 6.45833 226.294 6.025C226.094 5.575 225.994 5.10833 225.994 4.625C225.994 4.00833 226.135 3.44167 226.419 2.925C226.702 2.39167 227.102 1.94167 227.619 1.575C228.135 1.19167 228.76 0.899999 229.494 0.7C230.244 0.483333 231.077 0.374999 231.994 0.374999H235.594V0.624999H235.469C235.352 0.624999 235.244 0.674999 235.144 0.774999C235.044 0.858332 234.96 0.966665 234.894 1.1C234.827 1.23333 234.777 1.375 234.744 1.525C234.71 1.675 234.694 1.80833 234.694 1.925V15.25C234.694 15.3833 234.71 15.5333 234.744 15.7C234.777 15.85 234.827 15.9917 234.894 16.125C234.96 16.2583 235.044 16.375 235.144 16.475C235.244 16.575 235.352 16.625 235.469 16.625H235.594V16.875H232.069V16.625ZM227.569 4.25C227.569 4.73333 227.669 5.18333 227.869 5.6C228.069 6 228.344 6.35 228.694 6.65C229.044 6.95 229.452 7.18333 229.919 7.35C230.385 7.51667 230.894 7.6 231.444 7.6H233.019V1.225H232.644C231.027 1.225 229.777 1.49167 228.894 2.025C228.01 2.55833 227.569 3.3 227.569 4.25Z" fill="white"></path></svg> 