<?xml version="1.0" encoding="UTF-8"?> <svg xmlns="http://www.w3.org/2000/svg" width="252" height="20" viewBox="0 0 252 20" fill="none"><path d="M2.45012e-05 0.374999H3.55002C5.40002 0.374999 6.80002 0.733332 7.75002 1.45C8.71669 2.15 9.20003 3.15 9.20003 4.45C9.20003 5.15 9.03336 5.775 8.70002 6.325C8.36669 6.875 7.92502 7.34167 7.37502 7.725C6.84169 8.09167 6.23336 8.375 5.55002 8.575C4.88336 8.775 4.21669 8.875 3.55002 8.875H2.60002V15.25C2.60002 15.3833 2.61669 15.5333 2.65002 15.7C2.68336 15.85 2.73336 15.9917 2.80002 16.125C2.88336 16.2583 2.96669 16.375 3.05002 16.475C3.15002 16.575 3.26669 16.625 3.40002 16.625H3.52502V16.875H2.45012e-05V16.625H0.125024C0.241691 16.625 0.350024 16.575 0.450024 16.475C0.550024 16.375 0.633358 16.2583 0.700025 16.125C0.766691 15.9917 0.816691 15.85 0.850024 15.7C0.883358 15.5333 0.900025 15.3833 0.900025 15.25V1.925C0.900025 1.69166 0.833358 1.425 0.700025 1.125C0.566691 0.824999 0.375024 0.658333 0.125024 0.624999H2.45012e-05V0.374999ZM2.60002 1.25V8H3.35002C4.01669 8 4.60836 7.90833 5.12502 7.725C5.65836 7.54167 6.10002 7.3 6.45002 7C6.80002 6.7 7.06669 6.35833 7.25002 5.975C7.43336 5.59167 7.52503 5.2 7.52503 4.8C7.52503 4.31667 7.44169 3.86667 7.27502 3.45C7.12502 3.01667 6.86669 2.64167 6.50002 2.325C6.15002 1.99167 5.68336 1.73333 5.10002 1.55C4.51669 1.35 3.80002 1.25 2.95002 1.25H2.60002ZM20.5037 0.124999C21.8037 0.124999 22.9704 0.358332 24.0037 0.824999C25.0371 1.275 25.9121 1.89167 26.6287 2.675C27.3621 3.44167 27.9204 4.34167 28.3037 5.375C28.7037 6.39167 28.9037 7.45833 28.9037 8.575C28.9037 9.825 28.6704 10.975 28.2037 12.025C27.7537 13.075 27.1287 13.975 26.3287 14.725C25.5287 15.475 24.5954 16.0667 23.5287 16.5C22.4787 16.9167 21.3537 17.125 20.1537 17.125C18.8704 17.125 17.7121 16.8917 16.6787 16.425C15.6621 15.9583 14.7954 15.3417 14.0787 14.575C13.3787 13.8083 12.8371 12.925 12.4537 11.925C12.0704 10.925 11.8787 9.88333 11.8787 8.8C11.8787 7.73333 12.0704 6.68333 12.4537 5.65C12.8371 4.6 13.3954 3.66667 14.1287 2.85C14.8787 2.03333 15.7871 1.375 16.8537 0.874998C17.9204 0.374999 19.1371 0.124999 20.5037 0.124999ZM20.4787 16.25C21.5954 16.2 22.5704 15.95 23.4037 15.5C24.2537 15.0333 24.9621 14.45 25.5287 13.75C26.0954 13.0333 26.5121 12.25 26.7787 11.4C27.0621 10.55 27.2037 9.70833 27.2037 8.875C27.2037 7.95833 27.0371 7.03333 26.7037 6.1C26.3704 5.16667 25.8954 4.325 25.2787 3.575C24.6621 2.80833 23.9204 2.19167 23.0537 1.725C22.2037 1.24167 21.2454 0.999998 20.1787 0.999998C19.1454 0.999998 18.2204 1.23333 17.4037 1.7C16.5871 2.15 15.8871 2.73333 15.3037 3.45C14.7371 4.16667 14.3037 4.96667 14.0037 5.85C13.7037 6.73333 13.5537 7.6 13.5537 8.45C13.5537 9.36667 13.7287 10.2917 14.0787 11.225C14.4287 12.1417 14.9121 12.975 15.5287 13.725C16.1454 14.475 16.8704 15.0833 17.7037 15.55C18.5537 16.0167 19.4787 16.25 20.4787 16.25ZM44.3903 16V19.125H44.1403C44.1236 18.9083 44.0653 18.6667 43.9653 18.4C43.8653 18.1333 43.7236 17.8833 43.5403 17.65C43.3736 17.4333 43.1736 17.25 42.9403 17.1C42.7069 16.95 42.4486 16.875 42.1653 16.875H30.6403C30.3569 16.875 30.0986 16.95 29.8653 17.1C29.6319 17.2667 29.4236 17.4583 29.2403 17.675C29.0736 17.9083 28.9319 18.1583 28.8153 18.425C28.7153 18.6917 28.6569 18.925 28.6403 19.125H28.3903V16H29.4903C30.0236 16 30.3986 15.6917 30.6153 15.075L36.3653 -7.7486e-07L42.1653 15C42.2819 15.25 42.4403 15.4833 42.6403 15.7C42.8403 15.9 43.0736 16 43.3403 16H44.3903ZM31.1653 16H40.7903L35.9653 3.575L31.1653 16ZM57.1475 16.625H57.2725C57.3892 16.625 57.4975 16.5833 57.5975 16.5C57.6975 16.4 57.7808 16.2833 57.8475 16.15C57.9308 16 57.9892 15.85 58.0225 15.7C58.0558 15.5333 58.0725 15.3833 58.0725 15.25V8.45H50.0725V15.25C50.0725 15.3833 50.0892 15.5333 50.1225 15.7C50.1558 15.85 50.2058 15.9917 50.2725 16.125C50.3392 16.2583 50.4142 16.375 50.4975 16.475C50.5975 16.575 50.7142 16.625 50.8475 16.625H50.9725V16.875H47.4725V16.625H47.5975C47.7142 16.625 47.8225 16.5833 47.9225 16.5C48.0225 16.4 48.1058 16.2833 48.1725 16.15C48.2558 16 48.3142 15.85 48.3475 15.7C48.3808 15.5333 48.3975 15.3833 48.3975 15.25V1.925C48.3975 1.80833 48.3808 1.675 48.3475 1.525C48.3142 1.375 48.2642 1.23333 48.1975 1.1C48.1308 0.966665 48.0475 0.858331 47.9475 0.774998C47.8475 0.674998 47.7308 0.624999 47.5975 0.624999H47.4725V0.374999H50.9725V0.624999H50.8475C50.7142 0.624999 50.5975 0.674998 50.4975 0.774998C50.3975 0.858331 50.3142 0.966665 50.2475 1.1C50.1975 1.23333 50.1558 1.375 50.1225 1.525C50.0892 1.675 50.0725 1.80833 50.0725 1.925V7.575H58.0725V1.925C58.0725 1.80833 58.0558 1.675 58.0225 1.525C57.9892 1.375 57.9392 1.23333 57.8725 1.1C57.8058 0.966665 57.7225 0.858331 57.6225 0.774998C57.5225 0.674998 57.4058 0.624999 57.2725 0.624999H57.1475V0.374999H60.6475V0.624999H60.5225C60.3892 0.624999 60.2725 0.674998 60.1725 0.774998C60.0725 0.858331 59.9892 0.966665 59.9225 1.1C59.8725 1.23333 59.8308 1.375 59.7975 1.525C59.7642 1.675 59.7475 1.80833 59.7475 1.925V15.25C59.7475 15.3833 59.7642 15.5333 59.7975 15.7C59.8475 15.85 59.9058 15.9917 59.9725 16.125C60.0392 16.2583 60.1142 16.375 60.1975 16.475C60.2975 16.575 60.4058 16.625 60.5225 16.625H60.6475V16.875H57.1475V16.625ZM63.5242 16.625H63.6492C63.7659 16.625 63.8742 16.5833 63.9742 16.5C64.0742 16.4 64.1576 16.2833 64.2242 16.15C64.2909 16.0167 64.3409 15.875 64.3742 15.725C64.4242 15.575 64.4492 15.4417 64.4492 15.325V2C64.4492 1.88333 64.4326 1.74166 64.3992 1.575C64.3659 1.40833 64.3076 1.25833 64.2242 1.125C64.1576 0.991666 64.0742 0.874999 63.9742 0.774998C63.8742 0.674998 63.7659 0.624999 63.6492 0.624999H63.5242V0.374999H67.0492V0.624999H66.8742C66.6409 0.658333 66.4576 0.841666 66.3242 1.175C66.1909 1.49167 66.1242 1.76667 66.1242 2V7.375H67.5242C68.2909 7.375 69.0409 7.45833 69.7742 7.625C70.5242 7.775 71.1826 8.04167 71.7492 8.425C72.3326 8.79167 72.7992 9.28333 73.1492 9.9C73.4992 10.5 73.6742 11.25 73.6742 12.15C73.6742 12.8833 73.5242 13.5417 73.2242 14.125C72.9242 14.7083 72.5159 15.2083 71.9992 15.625C71.4826 16.025 70.8659 16.3333 70.1492 16.55C69.4492 16.7667 68.6909 16.875 67.8742 16.875H63.5242V16.625ZM66.4992 16C68.4326 16 69.8159 15.6667 70.6492 15C71.4992 14.3333 71.9242 13.4167 71.9242 12.25C71.9242 11.0667 71.4992 10.1 70.6492 9.35C69.8159 8.6 68.5826 8.225 66.9492 8.225H66.1242V16H66.4992ZM75.3492 0.374999H78.8742V0.624999H78.6742C78.5576 0.641665 78.4492 0.699999 78.3492 0.799999C78.2659 0.899999 78.1909 1.01667 78.1242 1.15C78.0742 1.26667 78.0326 1.4 77.9992 1.55C77.9659 1.68333 77.9492 1.80833 77.9492 1.925V15.25C77.9492 15.3833 77.9659 15.525 77.9992 15.675C78.0326 15.825 78.0826 15.975 78.1492 16.125C78.2159 16.2583 78.2909 16.375 78.3742 16.475C78.4742 16.5583 78.5826 16.6083 78.6992 16.625H78.8742V16.875H75.3492V16.625H75.4742C75.6076 16.625 75.7242 16.5833 75.8242 16.5C75.9242 16.4 76.0076 16.2833 76.0742 16.15C76.1409 16 76.1909 15.85 76.2242 15.7C76.2576 15.5333 76.2742 15.3833 76.2742 15.25V1.925C76.2742 1.80833 76.2576 1.675 76.2242 1.525C76.1909 1.375 76.1409 1.23333 76.0742 1.1C76.0076 0.966665 75.9242 0.858331 75.8242 0.774998C75.7242 0.674998 75.6076 0.624999 75.4742 0.624999H75.3492V0.374999ZM82.0221 16.625H82.1471C82.2804 16.625 82.3971 16.5833 82.4971 16.5C82.5971 16.4 82.6804 16.2833 82.7471 16.15C82.8304 16.0167 82.8888 15.875 82.9221 15.725C82.9721 15.575 82.9971 15.4333 82.9971 15.3V1.925C82.9971 1.80833 82.9721 1.675 82.9221 1.525C82.8888 1.375 82.8304 1.23333 82.7471 1.1C82.6804 0.966665 82.5971 0.858331 82.4971 0.774998C82.3971 0.674998 82.2804 0.624999 82.1471 0.624999H82.0221V0.374999H91.6471V2.7H91.3971C91.3638 2.31667 91.2138 1.98333 90.9471 1.7C90.6804 1.4 90.2638 1.25 89.6971 1.25H84.6721V7.575H88.8221C89.2054 7.575 89.5221 7.45833 89.7721 7.225C90.0388 6.99167 90.1721 6.71667 90.1721 6.4H90.4221V9.525H90.1721C90.1721 9.225 90.0471 8.96667 89.7971 8.75C89.5471 8.53333 89.2221 8.425 88.8221 8.425H84.6721V16H90.1471C90.4638 16 90.7388 15.925 90.9721 15.775C91.2054 15.625 91.3971 15.45 91.5471 15.25C91.7138 15.0333 91.8304 14.8083 91.8971 14.575C91.9804 14.325 92.0221 14.1167 92.0221 13.95H92.2721V16.875H82.0221V16.625ZM112.1 16.625H112.225C112.358 16.625 112.475 16.5833 112.575 16.5C112.675 16.4 112.758 16.2833 112.825 16.15C112.908 16 112.967 15.85 113 15.7C113.033 15.5333 113.05 15.3833 113.05 15.25V3.8L104.75 15.025V15.25C104.75 15.3833 104.767 15.5333 104.8 15.7C104.85 15.85 104.908 15.9917 104.975 16.125C105.042 16.2583 105.125 16.375 105.225 16.475C105.325 16.575 105.442 16.625 105.575 16.625H105.7V16.875H102.15V16.625H102.275C102.408 16.625 102.525 16.5833 102.625 16.5C102.725 16.4 102.808 16.2833 102.875 16.15C102.958 16 103.017 15.85 103.05 15.7C103.083 15.5333 103.1 15.3833 103.1 15.25V1.925C103.1 1.80833 103.083 1.675 103.05 1.525C103.017 1.375 102.958 1.23333 102.875 1.1C102.808 0.966665 102.725 0.858331 102.625 0.774998C102.525 0.674998 102.408 0.624999 102.275 0.624999H102.15V0.374999H105.7V0.624999H105.5C105.383 0.641665 105.275 0.699999 105.175 0.799999C105.092 0.899999 105.017 1.01667 104.95 1.15C104.883 1.26667 104.833 1.4 104.8 1.55C104.767 1.68333 104.75 1.80833 104.75 1.925V13.475L113.05 2.25V1.925C113.05 1.80833 113.033 1.675 113 1.525C112.967 1.375 112.908 1.23333 112.825 1.1C112.758 0.966665 112.675 0.858331 112.575 0.774998C112.475 0.674998 112.358 0.624999 112.225 0.624999H112.1V0.374999H115.65V0.624999H115.525C115.392 0.624999 115.275 0.674998 115.175 0.774998C115.075 0.858331 114.992 0.966665 114.925 1.1C114.858 1.23333 114.8 1.375 114.75 1.525C114.717 1.675 114.7 1.80833 114.7 1.925V15.25C114.7 15.3833 114.717 15.525 114.75 15.675C114.8 15.825 114.858 15.975 114.925 16.125C114.992 16.2583 115.075 16.375 115.175 16.475C115.275 16.575 115.392 16.625 115.525 16.625H115.65V16.875H112.1V16.625ZM128.138 15.125C127.988 15.5583 127.755 15.9583 127.438 16.325C127.122 16.6917 126.655 16.875 126.038 16.875H125.263V16.625C125.363 16.625 125.497 16.6 125.663 16.55C125.83 16.4833 126.005 16.3833 126.188 16.25C126.372 16.1167 126.555 15.95 126.738 15.75C126.922 15.5333 127.08 15.2667 127.213 14.95L131.938 2C132.022 1.75 132.063 1.55833 132.063 1.425C132.063 1.175 131.988 0.983332 131.838 0.849999C131.705 0.699999 131.563 0.624999 131.413 0.624999V0.374999H133.463L139.063 15.675C139.147 15.9083 139.305 16.125 139.538 16.325C139.772 16.5083 140.03 16.6083 140.313 16.625V16.875H136.738V16.625C136.872 16.625 137.005 16.575 137.138 16.475C137.288 16.3583 137.363 16.2083 137.363 16.025C137.363 15.975 137.347 15.9 137.313 15.8L132.613 2.85L128.138 15.125ZM142.975 16.625H143.1C143.217 16.625 143.317 16.575 143.4 16.475C143.5 16.375 143.584 16.2583 143.65 16.125C143.717 15.9917 143.767 15.85 143.8 15.7C143.834 15.5333 143.85 15.3833 143.85 15.25V1.925C143.85 1.80833 143.825 1.675 143.775 1.525C143.742 1.375 143.692 1.23333 143.625 1.1C143.559 0.966665 143.475 0.858331 143.375 0.774998C143.292 0.674998 143.192 0.624999 143.075 0.624999H142.95V0.374999H146.475V0.624999H146.275C146.159 0.641665 146.05 0.699999 145.95 0.799999C145.867 0.899999 145.792 1.01667 145.725 1.15C145.659 1.28333 145.609 1.425 145.575 1.575C145.542 1.70833 145.525 1.825 145.525 1.925V7.575H147.175C147.325 6.625 147.617 5.70833 148.05 4.825C148.5 3.925 149.075 3.125 149.775 2.425C150.475 1.725 151.3 1.16667 152.25 0.749999C153.2 0.333332 154.275 0.124999 155.475 0.124999C156.775 0.124999 157.925 0.358332 158.925 0.824999C159.942 1.275 160.8 1.89167 161.5 2.675C162.2 3.44167 162.725 4.34167 163.075 5.375C163.442 6.39167 163.625 7.45833 163.625 8.575C163.625 9.825 163.409 10.975 162.975 12.025C162.542 13.075 161.942 13.975 161.175 14.725C160.409 15.475 159.509 16.0667 158.475 16.5C157.442 16.9167 156.325 17.125 155.125 17.125C153.842 17.125 152.7 16.8917 151.7 16.425C150.717 15.9583 149.884 15.3417 149.2 14.575C148.517 13.8083 147.992 12.925 147.625 11.925C147.275 10.925 147.1 9.88333 147.1 8.8V8.425H145.525V15.25C145.525 15.3833 145.542 15.525 145.575 15.675C145.625 15.825 145.684 15.975 145.75 16.125C145.817 16.2583 145.9 16.375 146 16.475C146.1 16.575 146.209 16.625 146.325 16.625H146.5V16.875H142.975V16.625ZM155.45 16.25C156.567 16.2 157.534 15.95 158.35 15.5C159.184 15.0333 159.867 14.45 160.4 13.75C160.934 13.0333 161.325 12.25 161.575 11.4C161.842 10.55 161.975 9.70833 161.975 8.875C161.975 7.95833 161.817 7.03333 161.5 6.1C161.184 5.16667 160.734 4.325 160.15 3.575C159.567 2.80833 158.85 2.19167 158 1.725C157.167 1.24167 156.217 0.999998 155.15 0.999998C154.117 0.999998 153.2 1.23333 152.4 1.7C151.617 2.15 150.95 2.73333 150.4 3.45C149.867 4.16667 149.459 4.96667 149.175 5.85C148.892 6.73333 148.75 7.6 148.75 8.45C148.75 9.36667 148.909 10.2917 149.225 11.225C149.559 12.1417 150.017 12.975 150.6 13.725C151.2 14.475 151.909 15.0833 152.725 15.55C153.542 16.0167 154.45 16.25 155.45 16.25ZM166.625 16.625H166.75C166.883 16.625 167 16.5833 167.1 16.5C167.2 16.4 167.283 16.2833 167.35 16.15C167.433 16.0167 167.491 15.875 167.525 15.725C167.575 15.575 167.6 15.4333 167.6 15.3V1.925C167.6 1.80833 167.575 1.675 167.525 1.525C167.491 1.375 167.433 1.23333 167.35 1.1C167.283 0.966665 167.2 0.858331 167.1 0.774998C167 0.674998 166.883 0.624999 166.75 0.624999H166.625V0.374999H175.775V2.75H175.525C175.525 2.36667 175.391 2.03333 175.125 1.75C174.858 1.45 174.45 1.3 173.9 1.3H169.275V7.375H170.425C171.191 7.375 171.95 7.45 172.7 7.6C173.466 7.75 174.15 8.00833 174.75 8.375C175.366 8.725 175.858 9.20833 176.225 9.825C176.608 10.4417 176.8 11.2167 176.8 12.15C176.8 12.8833 176.658 13.5417 176.375 14.125C176.108 14.7083 175.725 15.2083 175.225 15.625C174.725 16.025 174.125 16.3333 173.425 16.55C172.741 16.7667 171.991 16.875 171.175 16.875H166.625V16.625ZM170.25 16C171.083 16 171.8 15.9083 172.4 15.725C173.016 15.5417 173.525 15.2917 173.925 14.975C174.325 14.6417 174.616 14.2583 174.8 13.825C175 13.375 175.1 12.8917 175.1 12.375C175.1 11.1583 174.666 10.1667 173.8 9.4C172.933 8.61667 171.7 8.225 170.1 8.225H169.275V16H170.25ZM189.8 16.625H189.925C190.059 16.625 190.175 16.5833 190.275 16.5C190.375 16.4 190.459 16.2833 190.525 16.15C190.609 16 190.667 15.85 190.7 15.7C190.734 15.5333 190.75 15.3833 190.75 15.25V3.8L182.45 15.025V15.25C182.45 15.3833 182.467 15.5333 182.5 15.7C182.55 15.85 182.609 15.9917 182.675 16.125C182.742 16.2583 182.825 16.375 182.925 16.475C183.025 16.575 183.142 16.625 183.275 16.625H183.4V16.875H179.85V16.625H179.975C180.109 16.625 180.225 16.5833 180.325 16.5C180.425 16.4 180.509 16.2833 180.575 16.15C180.659 16 180.717 15.85 180.75 15.7C180.784 15.5333 180.8 15.3833 180.8 15.25V1.925C180.8 1.80833 180.784 1.675 180.75 1.525C180.717 1.375 180.659 1.23333 180.575 1.1C180.509 0.966665 180.425 0.858331 180.325 0.774998C180.225 0.674998 180.109 0.624999 179.975 0.624999H179.85V0.374999H183.4V0.624999H183.2C183.084 0.641665 182.975 0.699999 182.875 0.799999C182.792 0.899999 182.717 1.01667 182.65 1.15C182.584 1.26667 182.534 1.4 182.5 1.55C182.467 1.68333 182.45 1.80833 182.45 1.925V13.475L190.75 2.25V1.925C190.75 1.80833 190.734 1.675 190.7 1.525C190.667 1.375 190.609 1.23333 190.525 1.1C190.459 0.966665 190.375 0.858331 190.275 0.774998C190.175 0.674998 190.059 0.624999 189.925 0.624999H189.8V0.374999H193.35V0.624999H193.225C193.092 0.624999 192.975 0.674998 192.875 0.774998C192.775 0.858331 192.692 0.966665 192.625 1.1C192.559 1.23333 192.5 1.375 192.45 1.525C192.417 1.675 192.4 1.80833 192.4 1.925V15.25C192.4 15.3833 192.417 15.525 192.45 15.675C192.5 15.825 192.559 15.975 192.625 16.125C192.692 16.2583 192.775 16.375 192.875 16.475C192.975 16.575 193.092 16.625 193.225 16.625H193.35V16.875H189.8V16.625ZM209.919 16.625H210.044C210.161 16.625 210.269 16.575 210.369 16.475C210.469 16.375 210.553 16.2583 210.619 16.125C210.703 15.9917 210.761 15.85 210.794 15.7C210.828 15.5333 210.844 15.3833 210.844 15.25V2.1L204.394 17.15L198.269 2.875V15.25C198.269 15.3833 198.286 15.5333 198.319 15.7C198.353 15.85 198.403 15.9917 198.469 16.125C198.553 16.2583 198.644 16.375 198.744 16.475C198.844 16.575 198.961 16.625 199.094 16.625H199.219V16.875H196.494V16.625H196.619C196.736 16.625 196.844 16.575 196.944 16.475C197.044 16.375 197.128 16.2583 197.194 16.125C197.261 15.9917 197.311 15.85 197.344 15.7C197.378 15.5333 197.394 15.3833 197.394 15.25V1.925C197.394 1.80833 197.378 1.675 197.344 1.525C197.311 1.375 197.261 1.23333 197.194 1.1C197.128 0.966665 197.044 0.858331 196.944 0.774998C196.844 0.674998 196.736 0.624999 196.619 0.624999H196.494V0.374999H199.044L204.844 14.05L210.644 0.374999H213.469V0.624999H213.344C213.211 0.624999 213.094 0.674998 212.994 0.774998C212.894 0.858331 212.803 0.966665 212.719 1.1C212.653 1.23333 212.603 1.375 212.569 1.525C212.536 1.675 212.519 1.80833 212.519 1.925V15.25C212.519 15.3833 212.536 15.5333 212.569 15.7C212.603 15.85 212.653 15.9917 212.719 16.125C212.803 16.2583 212.894 16.375 212.994 16.475C213.094 16.575 213.211 16.625 213.344 16.625H213.469V16.875H209.919V16.625ZM216.703 16.625H216.828C216.945 16.625 217.053 16.5833 217.153 16.5C217.253 16.4 217.336 16.2833 217.403 16.15C217.47 16.0167 217.52 15.875 217.553 15.725C217.603 15.575 217.628 15.4417 217.628 15.325V2C217.628 1.88333 217.611 1.74166 217.578 1.575C217.545 1.40833 217.486 1.25833 217.403 1.125C217.336 0.991666 217.253 0.874999 217.153 0.774998C217.053 0.674998 216.945 0.624999 216.828 0.624999H216.703V0.374999H220.228V0.624999H220.053C219.82 0.658333 219.636 0.841666 219.503 1.175C219.37 1.49167 219.303 1.76667 219.303 2V7.375H220.703C221.47 7.375 222.22 7.45833 222.953 7.625C223.703 7.775 224.361 8.04167 224.928 8.425C225.511 8.79167 225.978 9.28333 226.328 9.9C226.678 10.5 226.853 11.25 226.853 12.15C226.853 12.8833 226.703 13.5417 226.403 14.125C226.103 14.7083 225.695 15.2083 225.178 15.625C224.661 16.025 224.045 16.3333 223.328 16.55C222.628 16.7667 221.87 16.875 221.053 16.875H216.703V16.625ZM219.678 16C221.611 16 222.995 15.6667 223.828 15C224.678 14.3333 225.103 13.4167 225.103 12.25C225.103 11.0667 224.678 10.1 223.828 9.35C222.995 8.6 221.761 8.225 220.128 8.225H219.303V16H219.678ZM228.528 0.374999H232.053V0.624999H231.853C231.736 0.641665 231.628 0.699999 231.528 0.799999C231.445 0.899999 231.37 1.01667 231.303 1.15C231.253 1.26667 231.211 1.4 231.178 1.55C231.145 1.68333 231.128 1.80833 231.128 1.925V15.25C231.128 15.3833 231.145 15.525 231.178 15.675C231.211 15.825 231.261 15.975 231.328 16.125C231.395 16.2583 231.47 16.375 231.553 16.475C231.653 16.5583 231.761 16.6083 231.878 16.625H232.053V16.875H228.528V16.625H228.653C228.786 16.625 228.903 16.5833 229.003 16.5C229.103 16.4 229.186 16.2833 229.253 16.15C229.32 16 229.37 15.85 229.403 15.7C229.436 15.5333 229.453 15.3833 229.453 15.25V1.925C229.453 1.80833 229.436 1.675 229.403 1.525C229.37 1.375 229.32 1.23333 229.253 1.1C229.186 0.966665 229.103 0.858331 229.003 0.774998C228.903 0.674998 228.786 0.624999 228.653 0.624999H228.528V0.374999ZM235.201 16.625H235.326C235.459 16.625 235.576 16.5833 235.676 16.5C235.776 16.4 235.859 16.2833 235.926 16.15C236.009 16.0167 236.067 15.875 236.101 15.725C236.151 15.575 236.176 15.4333 236.176 15.3V1.925C236.176 1.80833 236.151 1.675 236.101 1.525C236.067 1.375 236.009 1.23333 235.926 1.1C235.859 0.966665 235.776 0.858331 235.676 0.774998C235.576 0.674998 235.459 0.624999 235.326 0.624999H235.201V0.374999H244.826V2.7H244.576C244.542 2.31667 244.392 1.98333 244.126 1.7C243.859 1.4 243.442 1.25 242.876 1.25H237.851V7.575H242.001C242.384 7.575 242.701 7.45833 242.951 7.225C243.217 6.99167 243.351 6.71667 243.351 6.4H243.601V9.525H243.351C243.351 9.225 243.226 8.96667 242.976 8.75C242.726 8.53333 242.401 8.425 242.001 8.425H237.851V16H243.326C243.642 16 243.917 15.925 244.151 15.775C244.384 15.625 244.576 15.45 244.726 15.25C244.892 15.0333 245.009 14.8083 245.076 14.575C245.159 14.325 245.201 14.1167 245.201 13.95H245.451V16.875H235.201V16.625ZM248.41 0.399999H251.635V0.649998C251.418 0.649998 251.251 0.808332 251.135 1.125C251.018 1.425 250.951 1.7 250.935 1.95L250.285 14.025H249.985L249.235 1.95C249.235 1.83333 249.21 1.7 249.16 1.55C249.126 1.4 249.076 1.25833 249.01 1.125C248.943 0.991666 248.86 0.883333 248.76 0.799999C248.66 0.699999 248.543 0.649998 248.41 0.649998V0.399999ZM248.96 15.925C248.96 15.5917 249.068 15.3083 249.285 15.075C249.518 14.8417 249.801 14.725 250.135 14.725C250.468 14.725 250.743 14.8417 250.96 15.075C251.193 15.3083 251.31 15.5917 251.31 15.925C251.31 16.2583 251.193 16.5417 250.96 16.775C250.743 16.9917 250.468 17.1 250.135 17.1C249.801 17.1 249.518 16.9917 249.285 16.775C249.068 16.5417 248.96 16.2583 248.96 15.925Z" fill="#281814"></path></svg> 