<?xml version="1.0" encoding="UTF-8"?> <svg xmlns="http://www.w3.org/2000/svg" width="77" height="14" viewBox="0 0 77 14" fill="none"><path d="M6.35087e-05 11.97H0.0900635C0.186064 11.97 0.270064 11.94 0.342064 11.88C0.414063 11.808 0.474063 11.724 0.522063 11.628C0.570064 11.52 0.606064 11.412 0.630064 11.304C0.654064 11.184 0.666064 11.076 0.666064 10.98V1.38602C0.666064 1.30202 0.648064 1.20602 0.612064 1.09802C0.588064 0.990024 0.552064 0.888024 0.504064 0.792024C0.456064 0.696023 0.396064 0.618023 0.324063 0.558023C0.252064 0.486024 0.174064 0.450024 0.0900635 0.450024H6.35087e-05V0.270024H9.21606V0.450024H9.07206C8.98806 0.450024 8.91606 0.486024 8.85606 0.558023C8.79606 0.618023 8.74206 0.702023 8.69406 0.810023C8.65806 0.906024 8.62806 1.00802 8.60406 1.11602C8.58006 1.22402 8.56806 1.31402 8.56806 1.38602V10.98C8.56806 11.076 8.57406 11.178 8.58606 11.286C8.61006 11.394 8.64006 11.502 8.67606 11.61C8.72406 11.706 8.77806 11.79 8.83806 11.862C8.91006 11.934 8.98806 11.97 9.07206 11.97H9.21606V12.15H6.69606V11.97H6.85806C6.94206 11.97 7.01406 11.934 7.07406 11.862C7.14606 11.79 7.20006 11.706 7.23606 11.61C7.28406 11.514 7.31406 11.412 7.32606 11.304C7.35006 11.184 7.36206 11.076 7.36206 10.98V0.900024H1.87206V10.98C1.87206 11.076 1.88406 11.184 1.90806 11.304C1.93206 11.412 1.96206 11.514 1.99806 11.61C2.04606 11.706 2.10606 11.79 2.17806 11.862C2.25006 11.934 2.33406 11.97 2.43006 11.97H2.52006V12.15H6.35087e-05V11.97ZM17.5397 0.0900241C18.4757 0.0900241 19.3157 0.258024 20.0597 0.594024C20.8037 0.918024 21.4337 1.36202 21.9497 1.92602C22.4777 2.47802 22.8797 3.12602 23.1557 3.87002C23.4437 4.60202 23.5877 5.37002 23.5877 6.17402C23.5877 7.07402 23.4197 7.90202 23.0837 8.65802C22.7597 9.41402 22.3097 10.062 21.7337 10.602C21.1577 11.142 20.4857 11.568 19.7177 11.88C18.9617 12.18 18.1517 12.33 17.2877 12.33C16.3637 12.33 15.5297 12.162 14.7857 11.826C14.0537 11.49 13.4297 11.046 12.9137 10.494C12.4097 9.94202 12.0197 9.30602 11.7437 8.58602C11.4677 7.86602 11.3297 7.11602 11.3297 6.33602C11.3297 5.56802 11.4677 4.81202 11.7437 4.06802C12.0197 3.31202 12.4217 2.64002 12.9497 2.05202C13.4897 1.46402 14.1437 0.990024 14.9117 0.630024C15.6797 0.270024 16.5557 0.0900241 17.5397 0.0900241ZM17.5217 11.7C18.3257 11.664 19.0277 11.484 19.6277 11.16C20.2397 10.824 20.7497 10.404 21.1577 9.90002C21.5657 9.38402 21.8657 8.82002 22.0577 8.20802C22.2617 7.59602 22.3637 6.99002 22.3637 6.39002C22.3637 5.73002 22.2437 5.06402 22.0037 4.39202C21.7637 3.72002 21.4217 3.11402 20.9777 2.57402C20.5337 2.02202 19.9997 1.57802 19.3757 1.24202C18.7637 0.894024 18.0737 0.720024 17.3057 0.720024C16.5617 0.720024 15.8957 0.888023 15.3077 1.22402C14.7197 1.54802 14.2157 1.96802 13.7957 2.48402C13.3877 3.00002 13.0757 3.57602 12.8597 4.21202C12.6437 4.84802 12.5357 5.47202 12.5357 6.08402C12.5357 6.74402 12.6617 7.41002 12.9137 8.08202C13.1657 8.74202 13.5137 9.34202 13.9577 9.88202C14.4017 10.422 14.9237 10.86 15.5237 11.196C16.1357 11.532 16.8017 11.7 17.5217 11.7ZM34.738 11.52V13.77H34.558C34.546 13.614 34.504 13.44 34.432 13.248C34.36 13.056 34.258 12.876 34.126 12.708C34.006 12.552 33.862 12.42 33.694 12.312C33.526 12.204 33.34 12.15 33.136 12.15H24.838C24.634 12.15 24.448 12.204 24.28 12.312C24.112 12.432 23.962 12.57 23.83 12.726C23.71 12.894 23.608 13.074 23.524 13.266C23.452 13.458 23.41 13.626 23.398 13.77H23.218V11.52H24.01C24.394 11.52 24.664 11.298 24.82 10.854L28.96 2.41995e-05L33.136 10.8C33.22 10.98 33.334 11.148 33.478 11.304C33.622 11.448 33.79 11.52 33.982 11.52H34.738ZM25.216 11.52H32.146L28.672 2.57402L25.216 11.52ZM43.6172 11.97H43.7072C43.9952 11.97 44.1392 11.838 44.1392 11.574C44.1392 11.478 44.1212 11.376 44.0852 11.268L42.4652 6.89402H39.3152L37.7492 11.196C37.7132 11.292 37.6952 11.382 37.6952 11.466C37.6952 11.622 37.7372 11.748 37.8212 11.844C37.9052 11.928 37.9952 11.97 38.0912 11.97H38.1812V12.15H36.1832V11.97H36.2732C36.4292 11.97 36.5792 11.88 36.7232 11.7C36.8792 11.508 37.0052 11.286 37.1012 11.034L41.2232 0.0540235L45.2552 10.926C45.3392 11.166 45.4532 11.4 45.5972 11.628C45.7532 11.856 45.9512 11.97 46.1912 11.97H46.2812V12.15H43.6172V11.97ZM39.4952 6.28202H42.2672L40.8812 2.52002L39.4952 6.28202ZM47.8803 0.270024H50.4363C51.7683 0.270024 52.7763 0.528024 53.4603 1.04402C54.1563 1.54802 54.5043 2.26802 54.5043 3.20402C54.5043 3.70802 54.3843 4.15802 54.1443 4.55402C53.9043 4.95002 53.5863 5.28602 53.1903 5.56202C52.8063 5.82602 52.3683 6.03002 51.8763 6.17402C51.3963 6.31802 50.9163 6.39002 50.4363 6.39002H49.7523V10.98C49.7523 11.076 49.7643 11.184 49.7883 11.304C49.8123 11.412 49.8483 11.514 49.8963 11.61C49.9563 11.706 50.0163 11.79 50.0763 11.862C50.1483 11.934 50.2323 11.97 50.3283 11.97H50.4183V12.15H47.8803V11.97H47.9703C48.0543 11.97 48.1323 11.934 48.2043 11.862C48.2763 11.79 48.3363 11.706 48.3843 11.61C48.4323 11.514 48.4683 11.412 48.4923 11.304C48.5163 11.184 48.5283 11.076 48.5283 10.98V1.38602C48.5283 1.21802 48.4803 1.02602 48.3843 0.810023C48.2883 0.594024 48.1503 0.474024 47.9703 0.450024H47.8803V0.270024ZM49.7523 0.900024V5.76002H50.2923C50.7723 5.76002 51.1983 5.69402 51.5703 5.56202C51.9543 5.43002 52.2723 5.25602 52.5243 5.04002C52.7763 4.82402 52.9683 4.57802 53.1003 4.30202C53.2323 4.02602 53.2983 3.74402 53.2983 3.45602C53.2983 3.10802 53.2383 2.78402 53.1183 2.48402C53.0103 2.17202 52.8243 1.90202 52.5603 1.67402C52.3083 1.43402 51.9723 1.24802 51.5523 1.11602C51.1323 0.972024 50.6163 0.900024 50.0043 0.900024H49.7523ZM56.577 11.97H56.667C56.763 11.97 56.847 11.934 56.919 11.862C56.991 11.79 57.051 11.706 57.099 11.61C57.159 11.514 57.201 11.412 57.225 11.304C57.249 11.184 57.261 11.076 57.261 10.98V1.38602C57.261 1.30202 57.249 1.20602 57.225 1.09802C57.201 0.990024 57.159 0.888024 57.099 0.792024C57.051 0.696023 56.991 0.618023 56.919 0.558023C56.847 0.486024 56.769 0.450024 56.685 0.450024H56.595V0.270024H59.151V0.450024H59.061C58.965 0.450024 58.881 0.486024 58.809 0.558023C58.737 0.618023 58.671 0.696023 58.611 0.792024C58.563 0.888024 58.521 0.990024 58.485 1.09802C58.461 1.20602 58.449 1.30202 58.449 1.38602V5.11202L62.625 0.954024C62.721 0.858024 62.769 0.744024 62.769 0.612024C62.769 0.504024 62.721 0.450024 62.625 0.450024V0.270024H64.569V0.450024C64.329 0.462024 64.113 0.534024 63.921 0.666024C63.741 0.798024 63.543 0.972024 63.327 1.18802L59.061 5.45402C59.841 5.47802 60.471 5.64602 60.951 5.95802C61.431 6.27002 61.809 6.70202 62.085 7.25402L63.507 10.134C63.591 10.314 63.699 10.512 63.831 10.728C63.975 10.932 64.131 11.13 64.299 11.322C64.479 11.502 64.677 11.658 64.893 11.79C65.109 11.91 65.337 11.97 65.577 11.97V12.15H64.677C64.329 12.15 64.029 12.102 63.777 12.006C63.525 11.898 63.303 11.76 63.111 11.592C62.931 11.412 62.769 11.214 62.625 10.998C62.493 10.782 62.373 10.566 62.265 10.35L60.807 7.45202C60.579 7.00802 60.261 6.67202 59.853 6.44402C59.457 6.20402 58.989 6.07202 58.449 6.04802V10.98C58.449 11.076 58.461 11.178 58.485 11.286C58.509 11.394 58.545 11.502 58.593 11.61C58.641 11.706 58.701 11.79 58.773 11.862C58.845 11.922 58.923 11.958 59.007 11.97H59.133V12.15H56.577V11.97ZM74.3533 11.97H74.4433C74.5393 11.97 74.6233 11.94 74.6953 11.88C74.7673 11.808 74.8273 11.724 74.8753 11.628C74.9353 11.52 74.9773 11.412 75.0013 11.304C75.0253 11.184 75.0373 11.076 75.0373 10.98V2.73602L69.0613 10.818V10.98C69.0613 11.076 69.0733 11.184 69.0973 11.304C69.1333 11.412 69.1753 11.514 69.2233 11.61C69.2713 11.706 69.3313 11.79 69.4033 11.862C69.4753 11.934 69.5593 11.97 69.6553 11.97H69.7453V12.15H67.1893V11.97H67.2793C67.3753 11.97 67.4593 11.94 67.5313 11.88C67.6033 11.808 67.6633 11.724 67.7113 11.628C67.7713 11.52 67.8133 11.412 67.8373 11.304C67.8613 11.184 67.8733 11.076 67.8733 10.98V1.38602C67.8733 1.30202 67.8613 1.20602 67.8373 1.09802C67.8133 0.990024 67.7713 0.888024 67.7113 0.792024C67.6633 0.696023 67.6033 0.618023 67.5313 0.558023C67.4593 0.486024 67.3753 0.450024 67.2793 0.450024H67.1893V0.270024H69.7453V0.450024H69.6013C69.5173 0.462024 69.4393 0.504024 69.3673 0.576024C69.3073 0.648024 69.2533 0.732024 69.2053 0.828024C69.1573 0.912024 69.1213 1.00802 69.0973 1.11602C69.0733 1.21202 69.0613 1.30202 69.0613 1.38602V9.70202L75.0373 1.62002V1.38602C75.0373 1.30202 75.0253 1.20602 75.0013 1.09802C74.9773 0.990024 74.9353 0.888024 74.8753 0.792024C74.8273 0.696023 74.7673 0.618023 74.6953 0.558023C74.6233 0.486024 74.5393 0.450024 74.4433 0.450024H74.3533V0.270024H76.9093V0.450024H76.8193C76.7233 0.450024 76.6393 0.486024 76.5673 0.558023C76.4953 0.618023 76.4353 0.696023 76.3873 0.792024C76.3393 0.888024 76.2973 0.990024 76.2613 1.09802C76.2373 1.20602 76.2253 1.30202 76.2253 1.38602V10.98C76.2253 11.076 76.2373 11.178 76.2613 11.286C76.2973 11.394 76.3393 11.502 76.3873 11.61C76.4353 11.706 76.4953 11.79 76.5673 11.862C76.6393 11.934 76.7233 11.97 76.8193 11.97H76.9093V12.15H74.3533V11.97Z" fill="#281814"></path></svg> 