<?xml version="1.0" encoding="UTF-8"?> <svg xmlns="http://www.w3.org/2000/svg" width="185" height="39" viewBox="0 0 185 39" fill="none"><path d="M7.80821e-05 24.0479C7.80821e-05 23.0879 0.180078 22.1399 0.540078 21.2039C0.876078 20.2679 1.34408 19.4159 1.94408 18.6479C2.56808 17.8799 3.25208 17.2679 3.99608 16.8119C4.74008 16.3559 5.50808 16.1279 6.30008 16.1279C6.51608 16.1279 6.62408 16.1879 6.62408 16.3079C6.62408 16.4519 6.51608 16.5719 6.30008 16.6679C5.12408 17.0519 4.20008 17.6999 3.52808 18.6119C2.85608 19.5239 2.37608 20.5079 2.08808 21.5639C1.82408 22.6199 1.69208 23.5919 1.69208 24.4799C1.69208 26.1599 2.11208 27.5399 2.95208 28.6199C3.81608 29.7239 5.00408 30.5399 6.51608 31.0679C8.02808 31.5959 9.74408 31.8599 11.6641 31.8599C14.0161 31.8599 16.2601 31.4399 18.3961 30.5999C20.5321 29.7599 22.5001 28.5959 24.3001 27.1079C26.1241 25.6199 27.7201 23.9159 29.0881 21.9959C30.4561 20.0519 31.5361 17.9879 32.3281 15.8039C32.4001 15.6119 32.4721 15.4199 32.5441 15.2279C32.6161 15.0119 32.6761 14.8079 32.7241 14.6159C31.2841 14.9999 29.7481 15.3359 28.1161 15.6239C26.5081 15.8879 25.0081 16.0199 23.6161 16.0199C22.2961 16.0199 21.0961 15.8639 20.0161 15.5519C18.9361 15.2159 18.0721 14.6639 17.4241 13.8959C16.8001 13.1279 16.4881 12.0959 16.4881 10.7999C16.4881 9.28791 16.8601 7.89591 17.6041 6.6239C18.3481 5.32791 19.3201 4.19991 20.5201 3.23991C21.7441 2.2799 23.0641 1.5359 24.4801 1.0079C25.9201 0.455904 27.3361 0.179904 28.7281 0.179904C30.0481 0.179904 31.2601 0.455904 32.3641 1.0079C33.4681 1.5359 34.3561 2.3999 35.0281 3.59991C35.7001 4.77591 36.0361 6.32391 36.0361 8.24391C36.0361 8.91591 35.9881 9.63591 35.8921 10.4039C35.7961 11.1479 35.6521 11.9399 35.4601 12.7799C36.3481 12.4439 37.2001 12.1079 38.0161 11.7719C38.8321 11.4119 39.5881 11.0639 40.2841 10.7279C40.8121 10.4639 41.3281 10.1759 41.8321 9.86391C42.3601 9.55191 42.8881 9.39591 43.4161 9.39591C42.9121 10.1399 42.3721 11.0519 41.7961 12.1319C41.2201 13.1879 40.6201 14.4119 39.9961 15.8039C39.9001 16.0439 39.6961 16.5359 39.3841 17.2799C39.0961 17.9999 38.7841 18.8279 38.4481 19.7639C38.1121 20.6999 37.8241 21.6119 37.5841 22.4999C37.3441 23.3879 37.2241 24.1079 37.2241 24.6599C37.2241 26.0759 37.6201 26.7839 38.4121 26.7839C38.9641 26.7839 39.5041 26.5439 40.0321 26.0639C40.5601 25.5599 41.0521 24.9599 41.5081 24.2639C41.9881 23.5439 42.4081 22.8479 42.7681 22.1759C43.1281 21.4799 43.3921 20.9399 43.5601 20.5559C43.8481 20.5559 43.9921 20.6639 43.9921 20.8799C43.7521 21.4079 43.4401 22.0559 43.0561 22.8239C42.6961 23.5679 42.2761 24.3119 41.7961 25.0559C41.3161 25.7759 40.7641 26.3879 40.1401 26.8919C39.5161 27.3719 38.8081 27.6119 38.0161 27.6119C37.0081 27.6119 36.2881 27.3359 35.8561 26.7839C35.4241 26.2079 35.2081 25.4759 35.2081 24.5879C35.2081 23.9399 35.3281 23.1359 35.5681 22.1759C35.8321 21.1919 36.1321 20.2079 36.4681 19.2239C36.8281 18.2399 37.1521 17.3639 37.4401 16.5959C37.7521 15.8279 37.9681 15.3119 38.0881 15.0479C38.4241 14.3039 38.6761 13.7039 38.8441 13.2479C39.0361 12.7679 39.2281 12.3359 39.4201 11.9519C38.9641 12.1919 38.4361 12.4679 37.8361 12.7799C37.2601 13.0679 36.6361 13.3199 35.9641 13.5359C35.8441 13.5599 35.7121 13.5959 35.5681 13.6439C35.4481 13.6919 35.3161 13.7399 35.1721 13.7879C34.6921 15.5639 34.0201 17.3279 33.1561 19.0799C32.2921 20.8319 31.2841 22.4519 30.1321 23.9399C27.9241 26.8199 25.2241 29.0759 22.0321 30.7079C18.8641 32.3639 15.4081 33.1919 11.6641 33.1919C10.1521 33.1919 8.68808 33.0119 7.27208 32.6519C5.88008 32.3159 4.63208 31.7759 3.52808 31.0319C2.44808 30.3119 1.59608 29.3639 0.972078 28.1879C0.324078 27.0359 7.80821e-05 25.6559 7.80821e-05 24.0479ZM18.4321 9.79191C18.4321 11.0399 18.7201 12.0359 19.2961 12.7799C19.8961 13.5239 20.7001 14.0639 21.7081 14.3999C22.7161 14.7119 23.8561 14.8679 25.1281 14.8679C26.3041 14.8679 27.5881 14.7599 28.9801 14.5439C30.3721 14.3039 31.7161 13.9919 33.0121 13.6079C33.2761 12.6239 33.4681 11.7119 33.5881 10.8719C33.7081 10.0079 33.7681 9.20391 33.7681 8.4599C33.7681 6.73191 33.4561 5.33991 32.8321 4.2839C32.2081 3.2039 31.4041 2.4119 30.4201 1.90791C29.4361 1.4039 28.3921 1.1519 27.2881 1.1519C26.2561 1.1519 25.2121 1.3559 24.1561 1.76391C23.1241 2.17191 22.1761 2.75991 21.3121 3.52791C20.4481 4.29591 19.7521 5.20791 19.2241 6.26391C18.6961 7.31991 18.4321 8.49591 18.4321 9.79191ZM49.4278 26.9639C49.4038 27.2039 49.2598 27.3719 48.9958 27.4679C48.7558 27.5399 48.5158 27.5759 48.2758 27.5759C47.8918 27.5759 47.6038 27.6359 47.4118 27.7559C47.4118 27.2759 47.5438 26.6039 47.8078 25.7399C48.0718 24.8519 48.3838 23.9039 48.7438 22.8959C49.1278 21.8639 49.5118 20.9039 49.8958 20.0159C50.3038 19.1039 50.6398 18.3959 50.9038 17.8919C51.4798 16.8359 51.9598 16.1639 52.3438 15.8759C52.7518 15.5879 53.2198 15.4439 53.7478 15.4439C54.2278 15.4439 54.5638 15.4679 54.7558 15.5159C54.9718 15.5399 55.1278 15.5519 55.2238 15.5519C54.6958 15.8399 54.0718 16.5119 53.3518 17.5679C52.6558 18.6239 51.9958 19.7999 51.3718 21.0959C51.5638 20.9039 51.7798 20.7479 52.0198 20.6279C52.2838 20.5079 52.5838 20.4479 52.9198 20.4479C53.3758 20.4479 53.7718 20.5319 54.1078 20.6999C54.4438 20.8439 54.9118 20.9159 55.5118 20.9159C55.9678 20.9159 56.2678 20.7719 56.4118 20.4839C56.7958 19.6199 57.1918 18.7799 57.5998 17.9639C58.0078 17.1239 58.3438 16.4279 58.6078 15.8759C58.7518 15.5639 58.9438 15.3599 59.1838 15.2639C59.4478 15.1679 59.7358 15.1199 60.0478 15.1199H61.9918C61.5838 15.4559 61.2358 15.7679 60.9478 16.0559C60.6838 16.3199 60.4198 16.6439 60.1558 17.0279C59.9158 17.4119 59.6038 17.9639 59.2198 18.6839C58.9078 19.2839 58.5358 20.0639 58.1038 21.0239C57.6718 21.9839 57.3478 22.8359 57.1318 23.5799C57.0358 23.8439 56.9518 24.1559 56.8798 24.5159C56.8318 24.8759 56.8078 25.2119 56.8078 25.5239C56.8078 25.9079 56.8678 26.2319 56.9878 26.4959C57.1078 26.7599 57.3118 26.8919 57.5998 26.8919C58.0558 26.8919 58.5238 26.6999 59.0038 26.3159C59.4838 25.9079 59.9518 25.3919 60.4078 24.7679C60.8638 24.1199 61.2838 23.4239 61.6678 22.6799C62.0758 21.9359 62.4238 21.2279 62.7118 20.5559C62.9038 20.5559 63.0238 20.5799 63.0718 20.6279C63.1198 20.6759 63.1438 20.7599 63.1438 20.8799C62.8558 21.5999 62.4958 22.3679 62.0638 23.1839C61.6558 23.9759 61.1758 24.7199 60.6238 25.4159C60.0958 26.1119 59.5078 26.6879 58.8598 27.1439C58.2358 27.5759 57.5638 27.7919 56.8438 27.7919C56.1238 27.7919 55.6078 27.5759 55.2958 27.1439C55.0078 26.7119 54.8638 26.1719 54.8638 25.5239C54.8638 25.1879 54.8998 24.8279 54.9718 24.4439C55.0678 24.0599 55.1758 23.6759 55.2958 23.2919C55.3918 23.0039 55.4998 22.7039 55.6198 22.3919C55.7398 22.0559 55.8718 21.7319 56.0158 21.4199C55.8718 21.6119 55.6918 21.7679 55.4758 21.8879C55.2598 21.9839 54.9838 22.0319 54.6478 22.0319C54.3118 22.0319 54.0358 21.9839 53.8198 21.8879C53.6038 21.7919 53.3758 21.6959 53.1358 21.5999C52.8958 21.5039 52.5838 21.4559 52.1998 21.4559C51.9598 21.4559 51.7078 21.5039 51.4438 21.5999C51.2038 21.6959 51.0118 21.9119 50.8678 22.2479C50.5078 23.0879 50.1958 23.9159 49.9318 24.7319C49.6918 25.5479 49.5238 26.2919 49.4278 26.9639ZM70.5356 27.6119C69.9836 27.6119 69.4916 27.4559 69.0596 27.1439C68.6516 26.8319 68.4476 26.1959 68.4476 25.2359C68.4476 24.8279 68.4716 24.4439 68.5196 24.0839C68.5916 23.7239 68.6756 23.3399 68.7716 22.9319C68.5556 23.2919 68.2556 23.7359 67.8716 24.2639C67.4876 24.7919 67.0556 25.3079 66.5756 25.8119C66.1196 26.3159 65.6396 26.7359 65.1356 27.0719C64.6556 27.4079 64.1996 27.5759 63.7676 27.5759C63.1436 27.5759 62.6396 27.2999 62.2556 26.7479C61.8716 26.1719 61.6796 25.4279 61.6796 24.5159C61.6796 23.5319 61.9076 22.4759 62.3636 21.3479C62.8196 20.2199 63.4436 19.1399 64.2356 18.1079C65.0276 17.0759 65.9396 16.2359 66.9716 15.5879C68.0036 14.9399 69.0836 14.6159 70.2116 14.6159C70.7636 14.6159 71.2916 14.7119 71.7956 14.9039C72.2996 15.0719 72.7436 15.3599 73.1276 15.7679C73.2956 15.9359 73.3796 16.1279 73.3796 16.3439C73.3796 16.4879 73.3196 16.6079 73.1996 16.7039C73.0796 16.7999 72.9236 16.8239 72.7316 16.7759C72.4676 15.9359 71.9036 15.5159 71.0396 15.5159C70.6316 15.5159 70.1636 15.6479 69.6356 15.9119C68.9876 16.2479 68.2916 16.7879 67.5476 17.5319C66.8276 18.2519 66.1436 19.0799 65.4956 20.0159C64.8716 20.9279 64.3556 21.8519 63.9476 22.7879C63.5396 23.7239 63.3356 24.5759 63.3356 25.3439C63.3356 26.1359 63.6356 26.5319 64.2356 26.5319C64.7636 26.5319 65.3036 26.2799 65.8556 25.7759C66.4316 25.2719 66.9716 24.6479 67.4756 23.9039C68.0036 23.1359 68.4836 22.3799 68.9156 21.6359C69.3476 20.8919 69.6836 20.2919 69.9236 19.8359C70.2836 19.1879 70.6196 18.6479 70.9316 18.2159C71.2436 17.7839 71.6876 17.5679 72.2636 17.5679C72.5276 17.5679 72.7916 17.6039 73.0556 17.6759C73.3196 17.7479 73.5956 17.7599 73.8836 17.7119C73.1636 18.4319 72.5276 19.2839 71.9756 20.2679C71.4476 21.2519 71.0396 22.2239 70.7516 23.1839C70.4636 24.1199 70.3196 24.9119 70.3196 25.5599C70.3196 26.2799 70.5596 26.6399 71.0396 26.6399C71.4236 26.6399 71.8316 26.4239 72.2636 25.9919C72.7196 25.5599 73.1516 25.0199 73.5596 24.3719C73.9916 23.6999 74.3876 23.0279 74.7476 22.3559C75.1076 21.6599 75.3956 21.0599 75.6116 20.5559C75.7316 20.5559 75.8276 20.5679 75.8996 20.5919C75.9956 20.6159 76.0436 20.7119 76.0436 20.8799C76.0196 20.9759 75.9716 21.0839 75.8996 21.2039C75.8516 21.2999 75.7676 21.4799 75.6476 21.7439C75.4556 22.1279 75.1916 22.6439 74.8556 23.2919C74.5196 23.9399 74.1236 24.5999 73.6676 25.2719C73.2116 25.9199 72.7196 26.4719 72.1916 26.9279C71.6636 27.3839 71.1116 27.6119 70.5356 27.6119ZM72.17 27.7919C73.034 26.0399 73.862 24.3119 74.654 22.6079C75.446 20.8799 76.262 19.2359 77.102 17.6759C77.582 16.8119 77.99 16.2119 78.326 15.8759C78.662 15.5159 79.106 15.3359 79.658 15.3359C79.85 15.3359 80.054 15.3719 80.27 15.4439C80.486 15.4919 80.702 15.5159 80.918 15.5159C81.062 15.5159 81.17 15.5039 81.242 15.4799C80.906 15.6719 80.462 16.1519 79.91 16.9199C79.382 17.6639 78.842 18.5279 78.29 19.5119C77.738 20.4959 77.246 21.4199 76.814 22.2839C77.27 21.7319 77.75 21.1799 78.254 20.6279C78.758 20.0759 79.31 19.5479 79.91 19.0439C80.486 18.5399 81.17 18.0239 81.962 17.4959C82.778 16.9439 83.57 16.4879 84.338 16.1279C85.106 15.7679 85.718 15.5879 86.174 15.5879C86.342 15.5879 86.462 15.5999 86.534 15.6239C86.534 15.6239 86.402 15.8639 86.138 16.3439C85.874 16.7999 85.538 17.4119 85.13 18.1799C84.746 18.9239 84.35 19.7279 83.942 20.5919C83.534 21.4319 83.162 22.2479 82.826 23.0399C82.514 23.8079 82.31 24.4559 82.214 24.9839C82.142 25.2959 82.106 25.5839 82.106 25.8479C82.106 26.2319 82.178 26.4839 82.322 26.6039C82.466 26.7239 82.622 26.7839 82.79 26.7839C83.246 26.7839 83.714 26.5799 84.194 26.1719C84.674 25.7639 85.13 25.2479 85.562 24.6239C86.018 23.9759 86.438 23.2919 86.822 22.5719C87.206 21.8519 87.53 21.1799 87.794 20.5559C88.082 20.5559 88.226 20.6639 88.226 20.8799C87.962 21.5279 87.626 22.2479 87.218 23.0399C86.834 23.8079 86.39 24.5399 85.886 25.2359C85.406 25.9319 84.866 26.5079 84.266 26.9639C83.666 27.4199 83.018 27.6479 82.322 27.6479C81.842 27.6479 81.338 27.4799 80.81 27.1439C80.306 26.8079 80.054 26.1839 80.054 25.2719C80.054 25.0079 80.078 24.7319 80.126 24.4439C80.174 24.1319 80.258 23.7959 80.378 23.4359C80.57 22.9559 80.798 22.4399 81.062 21.8879C81.326 21.3359 81.758 20.5799 82.358 19.6199C82.526 19.3559 82.622 19.1519 82.646 19.0079C82.694 18.8639 82.718 18.7439 82.718 18.6479C82.718 18.3599 82.586 18.2159 82.322 18.2159C82.106 18.2159 81.782 18.3359 81.35 18.5759C80.942 18.8159 80.426 19.2359 79.802 19.8359C79.202 20.4119 78.482 21.2279 77.642 22.2839C76.826 23.3399 75.878 24.8999 74.798 26.9639C74.63 27.2759 74.438 27.4439 74.222 27.4679C74.03 27.4919 73.754 27.5159 73.394 27.5399C73.154 27.5639 72.926 27.5759 72.71 27.5759C72.494 27.5999 72.314 27.6719 72.17 27.7919ZM93.73 22.8599C93.322 23.5799 92.854 24.2999 92.326 25.0199C91.798 25.7399 91.234 26.3399 90.634 26.8199C90.034 27.2759 89.434 27.5039 88.834 27.5039C88.57 27.5039 88.246 27.4439 87.862 27.3239C87.502 27.2039 87.178 26.9879 86.89 26.6759C86.626 26.3399 86.494 25.8479 86.494 25.1999C86.494 24.5759 86.698 23.8559 87.106 23.0399C87.514 22.2239 87.874 21.5039 88.186 20.8799C87.922 20.8799 87.79 20.7719 87.79 20.5559C87.814 20.4839 87.922 20.2559 88.114 19.8719C88.306 19.4879 88.534 19.0319 88.798 18.5039C89.062 17.9759 89.314 17.4719 89.554 16.9919C89.818 16.4879 90.022 16.1039 90.166 15.8399C90.454 15.3119 90.91 15.0479 91.534 15.0479H93.766C93.358 15.3599 92.986 15.7079 92.65 16.0919C92.338 16.4519 91.942 17.1239 91.462 18.1079C91.462 18.1079 91.378 18.2759 91.21 18.6119C91.042 18.9479 90.826 19.3799 90.562 19.9079C90.322 20.4119 90.07 20.9279 89.806 21.4559C89.566 21.9839 89.362 22.4279 89.194 22.7879C88.882 23.4599 88.678 23.9999 88.582 24.4079C88.486 24.7919 88.438 25.1519 88.438 25.4879C88.438 26.2799 88.702 26.6759 89.23 26.6759C89.806 26.6759 90.502 26.2079 91.318 25.2719C91.99 24.4799 92.65 23.5319 93.298 22.4279C93.946 21.3239 94.558 20.1839 95.134 19.0079C95.734 17.8319 96.262 16.7759 96.718 15.8399C96.982 15.3119 97.45 15.0479 98.122 15.0479H100.102C99.742 15.3359 99.442 15.6119 99.202 15.8759C98.986 16.1399 98.758 16.4759 98.518 16.8839C98.278 17.2919 97.954 17.8799 97.546 18.6479C96.586 20.3999 95.89 21.8879 95.458 23.1119C95.362 23.4239 95.266 23.7839 95.17 24.1919C95.098 24.5999 95.062 24.9959 95.062 25.3799C95.062 25.8359 95.158 26.2679 95.35 26.6759C95.566 27.0599 95.89 27.3119 96.322 27.4319C96.706 27.5279 96.898 27.5879 96.898 27.6119C96.898 27.6839 96.814 27.7319 96.646 27.7559C96.502 27.7799 96.346 27.7919 96.178 27.7919C95.53 27.7919 94.906 27.5639 94.306 27.1079C93.73 26.6279 93.442 25.8719 93.442 24.8399C93.442 24.5039 93.466 24.1679 93.514 23.8319C93.586 23.4719 93.658 23.1479 93.73 22.8599ZM101.535 26.6759C102.111 26.6759 102.807 26.2079 103.623 25.2719C104.295 24.4799 104.955 23.5319 105.603 22.4279C106.251 21.3239 106.863 20.1839 107.439 19.0079C108.039 17.8319 108.567 16.7759 109.023 15.8399C109.287 15.3119 109.755 15.0479 110.427 15.0479H112.407C112.047 15.3359 111.747 15.6119 111.507 15.8759C111.267 16.1399 111.027 16.4759 110.787 16.8839C110.571 17.2919 110.271 17.8799 109.887 18.6479C109.263 19.9199 108.735 21.0359 108.303 21.9959C107.871 22.9559 107.595 23.7479 107.475 24.3719C107.451 24.6119 107.427 24.7919 107.403 24.9119C107.379 25.0079 107.367 25.1399 107.367 25.3079C107.367 26.1959 107.619 26.6399 108.123 26.6399C108.387 26.6399 108.699 26.5319 109.059 26.3159C109.419 26.0759 109.803 25.7279 110.211 25.2719C110.883 24.4799 111.543 23.5319 112.191 22.4279C112.839 21.3239 113.451 20.1839 114.027 19.0079C114.627 17.8319 115.155 16.7759 115.611 15.8399C115.875 15.3119 116.343 15.0479 117.015 15.0479H118.995C118.635 15.3359 118.335 15.6119 118.095 15.8759C117.855 16.1399 117.615 16.4759 117.375 16.8839C117.159 17.2919 116.859 17.8799 116.475 18.6479C116.019 19.5359 115.611 20.3519 115.251 21.0959C114.915 21.8399 114.639 22.5119 114.423 23.1119C114.327 23.4239 114.219 23.7839 114.099 24.1919C114.003 24.5999 113.955 24.9959 113.955 25.3799C113.955 25.8359 114.051 26.2679 114.243 26.6759C114.459 27.0599 114.783 27.3119 115.215 27.4319C115.599 27.5279 115.791 27.5879 115.791 27.6119C115.791 27.6839 115.707 27.7319 115.539 27.7559C115.395 27.7799 115.239 27.7919 115.071 27.7919C114.423 27.7919 113.799 27.5639 113.199 27.1079C112.623 26.6279 112.335 25.8719 112.335 24.8399C112.335 24.5039 112.359 24.1679 112.407 23.8319C112.479 23.4719 112.551 23.1479 112.623 22.8599C112.215 23.5799 111.747 24.2999 111.219 25.0199C110.691 25.7399 110.127 26.3399 109.527 26.8199C108.927 27.2759 108.327 27.5039 107.727 27.5039C107.127 27.5039 106.635 27.2879 106.251 26.8559C105.867 26.3999 105.675 25.7639 105.675 24.9479C105.675 24.2999 105.795 23.6039 106.035 22.8599C105.603 23.6279 105.123 24.3719 104.595 25.0919C104.067 25.7879 103.503 26.3639 102.903 26.8199C102.303 27.2759 101.691 27.5039 101.067 27.5039C100.827 27.5039 100.527 27.4439 100.167 27.3239C99.8067 27.2039 99.4827 26.9879 99.1947 26.6759C98.9307 26.3399 98.7987 25.8479 98.7987 25.1999C98.7987 24.5759 98.9307 23.8439 99.1947 23.0039C99.4587 22.1639 99.7827 21.2879 100.167 20.3759C100.575 19.4639 100.983 18.6119 101.391 17.8199C101.823 17.0039 102.183 16.3439 102.471 15.8399C102.759 15.3119 103.215 15.0479 103.839 15.0479H106.071C105.807 15.2639 105.543 15.4919 105.279 15.7319C105.015 15.9719 104.715 16.3319 104.379 16.8119C104.067 17.2919 103.659 17.9999 103.155 18.9359C102.939 19.3199 102.699 19.8239 102.435 20.4479C102.171 21.0479 101.907 21.6719 101.643 22.3199C101.379 22.9679 101.163 23.5799 100.995 24.1559C100.827 24.7079 100.743 25.1519 100.743 25.4879C100.743 26.2799 101.007 26.6759 101.535 26.6759ZM102.399 29.9879C103.239 29.9879 104.199 30.0719 105.279 30.2399C106.383 30.4319 107.595 30.5279 108.915 30.5279C109.827 30.5279 110.715 30.4199 111.579 30.2039C112.467 30.0119 113.115 29.6399 113.523 29.0879C113.763 29.0879 113.883 29.1719 113.883 29.3399C113.499 29.8919 113.091 30.3719 112.659 30.7799C112.227 31.2119 111.699 31.5359 111.075 31.7519C110.451 31.9919 109.647 32.1119 108.663 32.1119C108.015 32.1119 107.283 32.0159 106.467 31.8239C105.651 31.6319 104.823 31.4399 103.983 31.2479C103.167 31.0799 102.399 30.9959 101.679 30.9959C101.103 30.9959 100.587 31.0799 100.131 31.2479C99.6747 31.4399 99.3147 31.7639 99.0507 32.2199L98.9427 32.3999C98.8707 32.4959 98.8107 32.5439 98.7627 32.5439C98.7147 32.5439 98.6667 32.5079 98.6187 32.4359C98.5707 32.3639 98.5587 32.2799 98.5827 32.1839C98.8467 31.5119 99.3267 30.9719 100.023 30.5639C100.719 30.1799 101.511 29.9879 102.399 29.9879ZM115.949 38.9879C114.893 38.9879 114.173 38.7359 113.789 38.2319C113.405 37.7279 113.213 37.1519 113.213 36.5039C113.213 35.5919 113.513 34.7519 114.113 33.9839C114.689 33.2159 115.469 32.5199 116.453 31.8959C117.437 31.2719 118.529 30.7079 119.729 30.2039C120.929 29.7239 122.141 29.3039 123.365 28.9439C123.821 28.1519 124.241 27.2519 124.625 26.2439C125.009 25.2119 125.357 24.2159 125.669 23.2559C125.981 22.2719 126.233 21.4679 126.425 20.8439C126.137 21.3719 125.765 22.0199 125.309 22.7879C124.877 23.5319 124.385 24.2639 123.833 24.9839C123.281 25.7039 122.681 26.3039 122.033 26.7839C121.409 27.2639 120.749 27.5039 120.053 27.5039C119.789 27.5039 119.465 27.4439 119.081 27.3239C118.721 27.2039 118.397 26.9879 118.109 26.6759C117.845 26.3399 117.713 25.8479 117.713 25.1999C117.713 24.4319 117.845 23.6519 118.109 22.8599C118.373 22.0439 118.673 21.2759 119.009 20.5559C119.081 20.4119 119.225 20.0999 119.441 19.6199C119.657 19.1399 119.897 18.6119 120.161 18.0359C120.449 17.4599 120.701 16.9559 120.917 16.5239C121.181 15.9719 121.469 15.5879 121.781 15.3719C122.117 15.1559 122.441 15.0479 122.753 15.0479H124.985C124.817 15.1919 124.601 15.3599 124.337 15.5519C124.097 15.7199 123.869 15.9839 123.653 16.3439C123.005 17.4479 122.453 18.4199 121.997 19.2599C121.565 20.0999 121.181 20.8679 120.845 21.5639C120.365 22.5719 120.041 23.3999 119.873 24.0479C119.729 24.6719 119.657 25.1519 119.657 25.4879C119.657 26.2799 119.921 26.6759 120.449 26.6759C121.025 26.6759 121.721 26.2079 122.537 25.2719C123.209 24.4799 123.881 23.5439 124.553 22.4639C125.249 21.3599 125.909 20.2319 126.533 19.0799C127.181 17.9039 127.745 16.8239 128.225 15.8399C128.489 15.3119 128.957 15.0479 129.629 15.0479H131.609C130.913 15.5279 130.373 16.1519 129.989 16.9199C129.629 17.6879 129.221 18.6719 128.765 19.8719C128.261 21.1919 127.781 22.5599 127.325 23.9759C126.869 25.3679 126.329 26.8079 125.705 28.2959C127.193 27.8399 128.429 27.2159 129.413 26.4239C130.421 25.6319 131.237 24.7319 131.861 23.7239C132.509 22.7159 133.037 21.6599 133.445 20.5559C133.733 20.5559 133.877 20.6639 133.877 20.8799C133.325 22.1519 132.797 23.2199 132.293 24.0839C131.813 24.9479 131.273 25.6799 130.673 26.2799C130.097 26.8799 129.377 27.4079 128.513 27.8639C127.673 28.3199 126.605 28.7639 125.309 29.1959C124.733 30.2519 124.121 31.3439 123.473 32.4719C122.849 33.6239 122.165 34.6919 121.421 35.6759C120.701 36.6599 119.885 37.4519 118.973 38.0519C118.085 38.6759 117.077 38.9879 115.949 38.9879ZM115.553 38.2319C116.633 38.2319 117.761 37.4879 118.937 35.9999C120.113 34.5359 121.361 32.5679 122.681 30.0959C121.745 30.3359 120.773 30.6839 119.765 31.1399C118.757 31.5959 117.809 32.1119 116.921 32.6879C116.057 33.2879 115.349 33.9359 114.797 34.6319C114.245 35.3279 113.969 36.0479 113.969 36.7919C113.969 37.1759 114.101 37.5119 114.365 37.7999C114.605 38.0879 115.001 38.2319 115.553 38.2319ZM149.366 18.6119C149.366 19.3319 149.174 20.1959 148.79 21.2039C148.406 22.2119 147.866 23.1959 147.17 24.1559C146.474 25.1159 145.646 25.9199 144.686 26.5679C143.75 27.1919 142.73 27.5039 141.626 27.5039C140.666 27.5039 139.958 27.2159 139.502 26.6399C139.046 26.0639 138.818 25.3319 138.818 24.4439C138.818 23.7479 138.95 22.9559 139.214 22.0679C139.502 21.1799 139.874 20.1479 140.33 18.9719C140.45 18.6839 140.69 18.1679 141.05 17.4239C141.434 16.6559 141.902 15.7679 142.454 14.7599C143.006 13.7279 143.594 12.6599 144.218 11.5559C144.866 10.4519 145.514 9.40791 146.162 8.42391C146.834 7.41591 147.47 6.57591 148.07 5.90391C149.63 4.0559 151.154 2.6159 152.642 1.58391C154.13 0.527905 155.558 -9.58443e-05 156.926 -9.58443e-05C157.742 -9.58443e-05 158.366 0.203904 158.798 0.611905C159.254 0.995906 159.482 1.51191 159.482 2.1599C159.482 3.0479 159.074 4.1279 158.258 5.39991C157.442 6.64791 156.218 7.9439 154.586 9.2879C153.53 10.2239 152.246 11.1119 150.734 11.9519C149.222 12.7919 147.242 13.5839 144.794 14.3279C143.978 15.8159 143.258 17.2559 142.634 18.6479C142.01 20.0159 141.518 21.2639 141.158 22.3919C140.798 23.4959 140.618 24.3839 140.618 25.0559C140.618 25.4159 140.654 25.7399 140.726 26.0279C140.774 26.2199 140.882 26.3999 141.05 26.5679C141.242 26.7119 141.47 26.7839 141.734 26.7839C142.07 26.7839 142.454 26.6519 142.886 26.3879C143.342 26.1239 143.846 25.6559 144.398 24.9839C144.734 24.5759 145.082 24.0839 145.442 23.5079C145.802 22.9319 146.138 22.3439 146.45 21.7439C146.762 21.1199 147.014 20.5679 147.206 20.0879C147.614 19.1279 147.818 18.2519 147.818 17.4599C147.818 16.6919 147.638 16.1879 147.278 15.9479C146.942 15.7079 146.426 15.5879 145.73 15.5879C145.298 15.5879 145.082 15.4679 145.082 15.2279C145.082 15.1319 145.142 15.0359 145.262 14.9399C145.406 14.8439 145.598 14.7959 145.838 14.7959C146.75 14.7959 147.566 15.1319 148.286 15.8039C149.006 16.4759 149.366 17.4119 149.366 18.6119ZM156.926 1.18791C156.11 1.18791 155.21 1.53591 154.226 2.23191C153.242 2.90391 152.234 3.82791 151.202 5.00391C150.17 6.17991 149.15 7.4999 148.142 8.9639C147.134 10.4039 146.186 11.8919 145.298 13.4279C147.338 12.7559 149.054 12.0119 150.446 11.1959C151.862 10.3799 153.074 9.52791 154.082 8.6399C155.498 7.46391 156.554 6.33591 157.25 5.25591C157.946 4.15191 158.294 3.25191 158.294 2.55591C158.294 2.14791 158.174 1.8239 157.934 1.58391C157.718 1.31991 157.382 1.18791 156.926 1.18791ZM158.707 27.6119C158.155 27.6119 157.663 27.4559 157.231 27.1439C156.823 26.8319 156.619 26.1959 156.619 25.2359C156.619 24.8279 156.643 24.4439 156.691 24.0839C156.763 23.7239 156.847 23.3399 156.943 22.9319C156.727 23.2919 156.427 23.7359 156.043 24.2639C155.659 24.7919 155.227 25.3079 154.747 25.8119C154.291 26.3159 153.811 26.7359 153.307 27.0719C152.827 27.4079 152.371 27.5759 151.939 27.5759C151.315 27.5759 150.811 27.2999 150.427 26.7479C150.043 26.1719 149.851 25.4279 149.851 24.5159C149.851 23.5319 150.079 22.4759 150.535 21.3479C150.991 20.2199 151.615 19.1399 152.407 18.1079C153.199 17.0759 154.111 16.2359 155.143 15.5879C156.175 14.9399 157.255 14.6159 158.383 14.6159C158.935 14.6159 159.463 14.7119 159.967 14.9039C160.471 15.0719 160.915 15.3599 161.299 15.7679C161.467 15.9359 161.551 16.1279 161.551 16.3439C161.551 16.4879 161.491 16.6079 161.371 16.7039C161.251 16.7999 161.095 16.8239 160.903 16.7759C160.639 15.9359 160.075 15.5159 159.211 15.5159C158.803 15.5159 158.335 15.6479 157.807 15.9119C157.159 16.2479 156.463 16.7879 155.719 17.5319C154.999 18.2519 154.315 19.0799 153.667 20.0159C153.043 20.9279 152.527 21.8519 152.119 22.7879C151.711 23.7239 151.507 24.5759 151.507 25.3439C151.507 26.1359 151.807 26.5319 152.407 26.5319C152.935 26.5319 153.475 26.2799 154.027 25.7759C154.603 25.2719 155.143 24.6479 155.647 23.9039C156.175 23.1359 156.655 22.3799 157.087 21.6359C157.519 20.8919 157.855 20.2919 158.095 19.8359C158.455 19.1879 158.791 18.6479 159.103 18.2159C159.415 17.7839 159.859 17.5679 160.435 17.5679C160.699 17.5679 160.963 17.6039 161.227 17.6759C161.491 17.7479 161.767 17.7599 162.055 17.7119C161.335 18.4319 160.699 19.2839 160.147 20.2679C159.619 21.2519 159.211 22.2239 158.923 23.1839C158.635 24.1199 158.491 24.9119 158.491 25.5599C158.491 26.2799 158.731 26.6399 159.211 26.6399C159.691 26.6399 160.207 26.3159 160.759 25.6679C161.311 24.9959 161.827 24.2519 162.307 23.4359C162.427 23.4359 162.511 23.4839 162.559 23.5799C162.631 23.6759 162.667 23.7719 162.667 23.8679C162.331 24.4679 161.947 25.0559 161.515 25.6319C161.107 26.2079 160.663 26.6879 160.183 27.0719C159.727 27.4319 159.235 27.6119 158.707 27.6119ZM163.186 25.8479C163.186 26.0879 163.234 26.3159 163.33 26.5319C163.45 26.7239 163.642 26.8199 163.906 26.8199C164.386 26.8199 164.878 26.5679 165.382 26.0639C165.886 25.5359 166.402 24.8639 166.93 24.0479C167.482 23.2079 168.022 22.3439 168.55 21.4559C169.39 20.0399 170.122 18.8639 170.746 17.9279C171.394 16.9919 171.994 16.2959 172.546 15.8399C172.906 15.5279 173.218 15.3359 173.482 15.2639C173.746 15.1679 174.01 15.1199 174.274 15.1199H174.526C175.51 15.1199 175.786 15.5759 175.354 16.4879L174.058 19.1879C173.842 19.6199 173.578 20.1599 173.266 20.8079C172.978 21.4319 172.69 22.0799 172.402 22.7519C172.114 23.3999 171.886 24.0239 171.718 24.6239C171.55 25.1999 171.49 25.6679 171.538 26.0279C171.586 26.3879 171.802 26.5679 172.186 26.5679C172.498 26.5679 172.87 26.3039 173.302 25.7759C173.758 25.2239 174.238 24.5279 174.742 23.6879C175.27 22.8479 175.798 21.9599 176.326 21.0239C176.878 20.0879 177.418 19.1999 177.946 18.3599C178.498 17.5199 179.014 16.8479 179.494 16.3439C179.614 16.2239 179.878 15.9959 180.286 15.6599C180.694 15.2999 181.09 15.1199 181.474 15.1199H181.726C182.158 15.1199 182.458 15.2279 182.626 15.4439C182.794 15.6359 182.758 15.9839 182.518 16.4879L181.258 19.1879C181.042 19.6199 180.778 20.1599 180.466 20.8079C180.178 21.4319 179.89 22.0799 179.602 22.7519C179.338 23.3999 179.122 24.0239 178.954 24.6239C178.81 25.1999 178.762 25.6679 178.81 26.0279C178.882 26.3879 179.122 26.5679 179.53 26.5679C180.13 26.5679 180.718 26.2559 181.294 25.6319C181.894 25.0079 182.458 24.2399 182.986 23.3279C183.514 22.3919 183.982 21.4679 184.39 20.5559C184.486 20.5559 184.582 20.5919 184.678 20.6639C184.774 20.7119 184.822 20.7839 184.822 20.8799C184.39 21.9599 183.886 23.0039 183.31 24.0119C182.758 25.0199 182.122 25.8479 181.402 26.4959C180.682 27.1439 179.854 27.4679 178.918 27.4679C178.126 27.4679 177.586 27.2279 177.298 26.7479C177.01 26.2679 176.914 25.6319 177.01 24.8399C177.13 24.0239 177.37 23.1239 177.73 22.1399C178.114 21.1319 178.57 20.1119 179.098 19.0799C179.626 18.0479 180.166 17.0759 180.718 16.1639C180.814 15.9959 180.814 15.9119 180.718 15.9119C180.646 15.9119 180.49 16.0439 180.25 16.3079C180.01 16.5719 179.866 16.7279 179.818 16.7759C179.194 17.4719 178.606 18.2879 178.054 19.2239C177.526 20.1359 176.998 21.0719 176.47 22.0319C175.966 22.9919 175.45 23.8919 174.922 24.7319C174.394 25.5479 173.842 26.2079 173.266 26.7119C172.69 27.2159 172.054 27.4679 171.358 27.4679C170.59 27.4679 170.098 27.1559 169.882 26.5319C169.69 25.8839 169.714 25.0199 169.954 23.9399C170.218 22.8599 170.662 21.6479 171.286 20.3039C171.91 18.9599 172.654 17.5799 173.518 16.1639C173.614 15.9959 173.602 15.9119 173.482 15.9119C173.362 15.9119 173.11 16.1039 172.726 16.4879C172.462 16.7519 172.198 17.0519 171.934 17.3879C171.694 17.7239 171.37 18.2279 170.962 18.8999C170.554 19.5479 169.978 20.5199 169.234 21.8159C168.682 22.7759 168.106 23.6999 167.506 24.5879C166.93 25.4759 166.318 26.2079 165.67 26.7839C165.022 27.3359 164.314 27.6119 163.546 27.6119C162.97 27.6119 162.454 27.4439 161.998 27.1079C161.542 26.7479 161.314 26.2319 161.314 25.5599C161.314 25.1519 161.41 24.7079 161.602 24.2279C161.77 23.7479 162.022 23.3399 162.358 23.0039C162.718 22.6679 163.15 22.5239 163.654 22.5719C163.99 22.5959 164.29 22.7279 164.554 22.9679C164.122 23.3759 163.786 23.8559 163.546 24.4079C163.306 24.9599 163.186 25.4399 163.186 25.8479Z" fill="#31010F"></path></svg> 