<?xml version="1.0" encoding="UTF-8"?> <svg xmlns="http://www.w3.org/2000/svg" width="252" height="45" viewBox="0 0 252 45" fill="none"><path d="M58.0251 0.550002C57.9701 0.825002 57.3651 0.715 56.2101 0.99C54.3951 1.43 51.8651 3.08 50.5451 4.235C54.1201 7.37 55.6051 11.99 55.6051 15.785C55.6051 19.36 54.6151 22.605 52.6901 25.465C50.7651 28.27 48.7301 30.525 46.4751 32.23C42.2951 35.365 35.6401 37.675 26.8401 37.62C23.2101 37.565 19.6901 37.29 16.3351 36.74C12.9801 36.19 10.1751 35.805 7.81005 35.53C9.84505 40.755 14.1901 43.945 21.4501 43.945C24.8051 43.945 27.4451 42.955 28.6001 42.13C29.0951 41.855 29.4251 41.58 29.6451 41.635C29.9201 41.91 29.4251 42.295 29.1501 42.515C27.8851 43.45 24.9701 44.605 21.2301 44.605C13.7501 44.605 9.18505 41.25 6.82005 35.695C6.16005 35.75 4.12505 36.85 1.87005 36.85C0.825054 36.85 5.36814e-05 36.575 5.36814e-05 35.915C5.36814e-05 35.2 0.495054 34.76 1.43005 34.54C2.36505 34.265 3.24505 34.155 4.12505 34.155C5.00505 34.155 5.94005 34.32 6.43505 34.375C5.99505 32.78 5.66505 30.855 5.66505 28.49C5.66505 20.185 9.40505 12.87 15.9501 7.59C21.2851 3.19 28.6001 -4.17233e-07 36.7951 -4.17233e-07C43.3951 -4.17233e-07 47.0251 1.595 49.6651 3.52C50.3251 3.025 51.2601 2.42 52.4701 1.76C53.6801 1.1 54.7801 0.660001 55.8251 0.44C56.7601 0.22 58.0801 0.165001 58.0251 0.550002ZM49.0051 4.015C46.8601 2.42 43.3951 0.935001 37.8951 0.935001C33.7151 0.935001 29.8101 1.76 26.1801 3.465C22.6051 5.17 19.6351 6.985 17.2701 8.91C11.1101 13.97 6.71005 20.845 6.71005 28.49C6.71005 30.745 6.82005 32.725 7.42505 34.485C11.6601 34.65 15.6751 33.55 19.4701 31.185C23.2651 28.82 27.6101 25.025 32.3951 19.8C35.1451 16.885 37.9501 13.97 40.7551 11.11C43.6151 8.25 46.3651 5.885 49.0051 4.015ZM45.2101 29.92C47.2451 28.05 49.1151 25.74 50.8201 22.935C52.5251 20.13 53.4051 16.995 53.4051 13.64C53.4051 9.68 51.9201 6.545 49.8851 4.73C47.2451 7.15 44.7151 9.845 42.3501 12.815C39.9851 15.785 37.8951 18.26 36.1351 20.24C30.8001 26.235 26.0151 30.14 21.8351 31.955C17.7101 33.77 13.9701 34.76 10.6701 34.98C12.6501 35.365 15.1801 35.75 18.3151 36.135C21.4501 36.52 24.3101 36.685 26.8951 36.685C31.7901 36.685 35.7501 35.915 38.6651 34.32C41.5801 32.725 43.7801 31.24 45.2101 29.92ZM69.9094 20.295C68.1494 21.67 65.5094 24.255 62.4844 27.115C59.4044 29.92 56.2694 33.275 54.2894 36.08C54.2344 36.245 53.9594 36.63 53.7394 36.575C53.2444 36.41 53.5744 35.695 53.7394 35.475C55.4444 33 58.6894 29.7 61.9894 26.565C65.2344 23.43 67.8194 21.12 69.6344 19.525C69.6344 18.81 70.5144 17.49 71.7794 16.555C72.7144 15.84 73.8144 15.4 74.3094 15.345C74.6944 15.29 76.1794 15.125 76.4544 15.345C76.6744 15.51 76.2344 15.895 75.1894 16.5L73.0994 17.71C71.9444 18.425 70.6794 19.305 70.6794 19.8C70.6794 20.075 71.3944 20.35 72.0544 20.625C72.9894 20.9 73.5944 21.45 73.5944 22.165C73.5944 23.21 72.9894 24.365 71.8344 25.74C70.6794 27.115 69.6344 28.16 68.6994 28.985C66.6644 30.8 65.0144 32.395 64.0794 33.55C63.4744 34.21 63.1994 34.815 63.1994 35.2C63.1994 35.475 63.4194 35.75 63.8044 35.75C64.4094 35.695 65.1794 35.42 66.1694 34.815C67.1594 34.21 67.9294 33.66 68.5344 33.275C69.3044 32.725 70.2944 31.955 71.4494 30.91C72.6594 29.865 73.6494 29.04 74.4194 28.435C74.6394 28.27 74.8044 28.105 75.0244 28.325C75.2444 28.49 75.1344 28.765 74.9694 28.93C72.9344 30.69 70.4594 32.78 68.8644 33.935C67.0494 35.255 64.7394 36.575 63.5844 36.575C62.3194 36.575 61.7694 35.75 61.7694 34.595C61.7694 33.715 62.0994 32.725 62.7044 31.68C63.6394 30.195 65.2344 28.49 67.2694 26.675C68.3144 25.74 69.3594 24.805 70.4594 23.76C71.5594 22.715 72.1094 22.11 72.1094 21.835C72.1094 21.45 71.6144 21.395 70.8994 21.01C70.4044 20.79 70.0744 20.515 69.9094 20.295ZM84.0942 26.895C82.7192 28.16 81.4542 29.535 80.1892 31.13C78.9242 32.67 78.3192 33.88 78.3192 34.76C78.3192 35.475 78.7042 35.86 79.5842 35.86C80.6842 35.86 82.4992 35.145 84.3142 33.99C86.9542 32.395 89.7592 29.92 91.1342 28.655C91.5192 28.38 91.9042 27.995 92.1242 28.215C92.3442 28.435 92.0692 28.765 91.8492 28.985C90.0342 30.69 87.8892 32.505 85.4692 34.1C83.6542 35.365 81.2342 36.685 79.0892 36.685C77.7692 36.685 76.2842 36.245 76.2842 34.1C76.2842 32.725 77.0542 29.865 80.5742 26.51C82.3892 24.805 84.4792 23.265 86.7892 21.945C89.1542 20.57 90.9692 19.91 92.2892 19.91C93.3892 19.91 93.9392 20.57 93.9392 21.285C93.9392 22.44 92.5642 23.925 91.0242 24.97C89.2642 26.125 86.7342 27.115 85.1392 27.115C84.6992 27.115 84.3142 26.95 84.0942 26.895ZM84.4792 26.51C84.5342 26.565 84.7542 26.62 84.9192 26.62C86.0192 26.62 88.3842 25.74 90.4192 24.035C91.9592 22.88 93.0042 21.56 93.0042 20.9C93.0042 20.68 92.8942 20.57 92.6192 20.57C92.0142 20.57 90.8592 21.23 89.0442 22.605C87.2292 23.98 85.7442 25.245 84.4792 26.51ZM111.595 15.675C111.98 15.675 112.255 15.84 112.255 16.225C112.255 16.72 111.43 17.93 109.45 19.305C108.13 20.24 106.425 21.175 105.71 22C105.105 22.715 104.83 23.925 104.665 24.805C104.39 26.07 104.005 27.665 103.51 29.59C103.015 31.515 101.585 33.33 99.1646 34.925C101.145 33.99 103.125 32.725 104.885 31.46C106.26 30.525 107.36 29.59 108.68 28.435C108.955 28.16 109.175 28.105 109.34 28.325C109.56 28.545 109.395 28.765 109.23 28.93C107.965 30.085 106.48 31.24 105.16 32.175C103.125 33.66 100.925 34.815 99.5496 35.42C97.5146 36.3 95.5346 36.63 93.9946 36.63C92.2896 36.63 91.1896 36.08 91.1896 34.595C91.1896 33.715 91.8496 32.615 93.0046 31.295C93.6646 30.58 94.6546 29.81 95.3696 29.205C96.4696 28.325 97.4596 27.775 98.1746 27.775C100.375 25.96 103.345 23.32 104.72 21.725C106.04 20.13 107.195 18.865 108.35 17.82C109.725 16.5 110.88 15.675 111.595 15.675ZM104.39 22.935C102.905 24.53 100.705 26.51 98.5046 28.325C98.3396 28.82 97.6246 29.645 96.2496 30.525L93.4446 32.34C92.5646 33 91.8496 33.77 91.8496 34.595C91.8496 35.53 92.6746 35.695 93.3346 35.695C94.9296 35.695 97.3496 34.32 99.4946 31.9C100.43 30.855 101.42 29.425 102.41 27.61C103.4 25.74 104.06 24.2 104.39 22.935ZM128.857 15.675C129.242 15.675 129.517 15.84 129.517 16.225C129.517 16.72 128.692 17.93 126.712 19.305C125.392 20.24 123.687 21.175 122.972 22C122.367 22.715 122.092 23.925 121.927 24.805C121.652 26.07 121.267 27.665 120.772 29.59C120.277 31.515 118.847 33.33 116.427 34.925C118.407 33.99 120.387 32.725 122.147 31.46C123.522 30.525 124.622 29.59 125.942 28.435C126.217 28.16 126.437 28.105 126.602 28.325C126.822 28.545 126.657 28.765 126.492 28.93C125.227 30.085 123.742 31.24 122.422 32.175C120.387 33.66 118.187 34.815 116.812 35.42C114.777 36.3 112.797 36.63 111.257 36.63C109.552 36.63 108.452 36.08 108.452 34.595C108.452 33.715 109.112 32.615 110.267 31.295C110.927 30.58 111.917 29.81 112.632 29.205C113.732 28.325 114.722 27.775 115.437 27.775C117.637 25.96 120.607 23.32 121.982 21.725C123.302 20.13 124.457 18.865 125.612 17.82C126.987 16.5 128.142 15.675 128.857 15.675ZM121.652 22.935C120.167 24.53 117.967 26.51 115.767 28.325C115.602 28.82 114.887 29.645 113.512 30.525L110.707 32.34C109.827 33 109.112 33.77 109.112 34.595C109.112 35.53 109.937 35.695 110.597 35.695C112.192 35.695 114.612 34.32 116.757 31.9C117.692 30.855 118.682 29.425 119.672 27.61C120.662 25.74 121.322 24.2 121.652 22.935ZM142.676 24.475C142.676 24.86 142.401 25.08 141.961 25.135C140.806 25.3 139.541 25.63 138.386 25.905C137.011 26.4 135.801 27.005 134.976 27.5C134.921 27.555 134.646 27.775 134.426 27.61C134.371 27.555 134.426 27.28 134.646 27.06C135.251 26.4 136.736 25.3 138.276 24.585C139.321 24.2 140.641 23.815 141.686 23.815C142.126 23.815 142.676 23.87 142.676 24.475ZM141.796 27.005C141.796 27.17 141.686 27.335 141.466 27.39C140.311 27.665 138.386 28.325 137.011 28.985C135.746 29.59 134.866 30.195 134.151 30.8C133.766 31.075 133.326 31.075 133.106 30.635C132.941 30.36 133.326 29.865 133.601 29.59C134.096 28.985 135.416 28.27 136.956 27.665C138.496 27.17 140.256 26.73 141.521 26.785C141.686 26.785 141.796 26.95 141.796 27.005ZM211.017 5.665C211.017 6.6 210.137 7.315 209.037 7.315C206.782 7.315 203.482 6.435 201.117 5.94C199.137 5.5 196.937 4.84 194.352 4.455C189.072 6.49 183.242 10.01 177.962 14.575C174.222 17.82 170.977 21.34 168.282 25.135C165.587 28.93 164.212 32.01 164.212 34.43C164.212 37.015 165.862 38.72 169.547 38.665C173.232 38.61 177.577 36.85 180.932 34.65C183.517 33.055 185.772 31.24 187.917 29.425C188.192 29.205 188.742 28.71 188.962 28.93C189.237 29.205 188.852 29.59 188.577 29.865C186.432 31.625 183.737 33.825 181.262 35.365C177.687 37.62 173.617 39.38 169.437 39.545C165.862 39.6 162.727 38.115 162.012 34.98C161.517 35.2 160.857 35.255 160.252 35.255C154.587 35.255 151.287 31.625 151.287 25.245C151.287 21.78 152.332 18.48 154.367 15.235C156.402 11.99 158.932 9.405 161.847 7.425C167.787 3.465 174.497 1.705 182.362 1.705C186.322 1.705 190.117 2.255 193.692 3.135C197.047 2.09 200.677 1.65 203.812 1.705C207.937 1.87 211.017 3.3 211.017 5.665ZM210.412 5.665C210.412 3.63 207.387 2.42 203.812 2.42C201.557 2.42 198.642 2.75 195.947 3.685C197.762 4.125 199.797 4.73 201.337 5.17C203.592 5.775 206.727 6.71 208.927 6.71C209.862 6.71 210.412 6.325 210.412 5.665ZM191.492 4.07C188.797 3.795 185.717 3.575 182.362 3.575C175.102 3.575 168.942 4.84 162.837 8.635C159.702 10.615 157.117 13.09 155.137 16.06C153.212 19.03 152.222 22.055 152.222 25.135C152.222 31.46 155.412 34.54 160.307 34.54C160.802 34.54 161.462 34.485 161.957 34.32C161.737 31.02 162.837 27.555 165.312 23.87C167.787 20.185 170.537 17.05 173.507 14.575C178.842 9.955 185.387 6.325 191.492 4.07ZM207.237 19.91C208.557 19.91 209.327 20.35 209.327 21.505C209.327 23.1 207.677 26.07 204.322 29.425C199.922 33.825 195.742 36.685 193.542 36.685C192.057 36.685 191.177 35.695 191.177 34.1C191.177 32.12 192.772 29.095 195.467 26.29C197.337 24.365 199.372 22.825 201.627 21.67C203.882 20.515 205.752 19.91 207.237 19.91ZM208.447 21.285C208.447 20.9 208.227 20.68 207.787 20.68C206.082 20.68 201.957 23.76 197.502 28.38C195.027 31.075 192.717 33.715 192.717 35.09C192.717 35.805 193.102 36.025 193.597 36.025C195.192 36.025 199.262 32.67 203.717 28.05C204.652 27.115 205.642 25.905 206.742 24.475C207.897 23.045 208.447 22 208.447 21.285ZM227.027 33.275C226.202 33.935 225.212 34.65 224.002 35.42C222.847 36.19 221.857 36.575 221.032 36.575C219.877 36.575 219.162 36.025 219.162 34.76C219.162 34.045 219.602 32.67 220.757 31.295C217.457 34.21 214.102 36.575 212.342 36.575C211.022 36.575 210.472 35.86 210.472 34.76C210.417 32.78 212.287 29.535 214.762 27.06C216.632 25.135 218.832 23.485 221.362 22.11C223.947 20.68 225.982 19.965 227.467 19.965C228.347 19.965 229.117 20.295 229.117 21.12C229.117 21.505 228.897 22.11 228.512 22.605C228.457 22.77 228.512 22.825 228.567 22.66L231.427 19.745C232.692 18.48 233.847 17.38 235.002 16.335C238.687 12.98 241.877 10.34 243.912 9.075C244.792 8.58 245.892 7.865 246.992 7.59C248.037 7.315 249.137 7.15 250.512 7.15C250.567 7.15 250.567 7.205 250.512 7.26C249.137 7.535 247.047 8.965 246.167 9.625C242.427 12.54 237.862 16.5 234.067 20.24C231.922 22.33 229.832 24.475 227.742 26.675C225.652 28.875 224.112 30.525 223.177 31.68C221.912 33.275 220.922 34.54 220.922 35.2C220.922 35.475 221.032 35.695 221.417 35.695C221.967 35.695 222.792 35.31 223.947 34.54C225.102 33.77 225.927 33.165 226.532 32.725C228.292 31.35 230.327 29.48 231.647 28.325C231.867 28.27 232.197 27.94 232.417 28.215C232.637 28.435 232.417 28.655 232.142 28.875C230.547 30.415 228.402 32.175 227.027 33.275ZM228.347 21.285C228.347 20.9 228.072 20.68 227.632 20.68C226.092 20.68 222.407 23.54 217.292 28.38C214.597 31.075 212.232 33.88 212.232 35.2C212.232 35.585 212.397 35.75 212.782 35.75C213.497 35.75 214.817 35.035 216.797 33.55C218.832 32.065 220.922 30.25 223.067 28.05C224.002 27.06 225.157 25.85 226.422 24.42C227.687 22.99 228.347 21.945 228.347 21.285ZM241.242 26.895C239.867 28.16 238.602 29.535 237.337 31.13C236.072 32.67 235.467 33.88 235.467 34.76C235.467 35.475 235.852 35.86 236.732 35.86C237.832 35.86 239.647 35.145 241.462 33.99C244.102 32.395 246.907 29.92 248.282 28.655C248.667 28.38 249.052 27.995 249.272 28.215C249.492 28.435 249.217 28.765 248.997 28.985C247.182 30.69 245.037 32.505 242.617 34.1C240.802 35.365 238.382 36.685 236.237 36.685C234.917 36.685 233.432 36.245 233.432 34.1C233.432 32.725 234.202 29.865 237.722 26.51C239.537 24.805 241.627 23.265 243.937 21.945C246.302 20.57 248.117 19.91 249.437 19.91C250.537 19.91 251.087 20.57 251.087 21.285C251.087 22.44 249.712 23.925 248.172 24.97C246.412 26.125 243.882 27.115 242.287 27.115C241.847 27.115 241.462 26.95 241.242 26.895ZM241.627 26.51C241.682 26.565 241.902 26.62 242.067 26.62C243.167 26.62 245.532 25.74 247.567 24.035C249.107 22.88 250.152 21.56 250.152 20.9C250.152 20.68 250.042 20.57 249.767 20.57C249.162 20.57 248.007 21.23 246.192 22.605C244.377 23.98 242.892 25.245 241.627 26.51Z" fill="#426E8F" fill-opacity="0.2"></path></svg> 