<?xml version="1.0" encoding="UTF-8"?> <svg xmlns="http://www.w3.org/2000/svg" width="296" height="73" viewBox="0 0 296 73" fill="none"><path d="M13.725 72.225C10.675 72.225 8.125 71.575 6.075 70.275C4.075 69.025 2.55 67.375 1.5 65.325C0.5 63.275 0 61.125 0 58.875C0 56.475 0.5 54.15 1.5 51.9C2.5 49.65 3.85 47.6 5.55 45.75C7.25 43.9 9.15 42.325 11.25 41.025C13.35 39.725 15.525 38.825 17.775 38.325C17.975 38.275 18.125 38.25 18.225 38.25C18.625 38.25 18.825 38.4 18.825 38.7C18.825 38.85 18.55 39.075 18 39.375C14.05 41.575 10.95 44.375 8.7 47.775C6.45 51.175 5.325 54.575 5.325 57.975C5.325 61.075 6.225 63.65 8.025 65.7C9.825 67.8 12.4 68.85 15.75 68.85C18.25 68.85 20.55 68.275 22.65 67.125C24.8 65.975 26.8 64.425 28.65 62.475C30.5 60.575 32.25 58.5 33.9 56.25C35.6 53.95 37.225 51.675 38.775 49.425C40.075 47.525 41.625 45.15 43.425 42.3C45.275 39.45 47.275 36.4 49.425 33.15C51.625 29.85 53.925 26.6 56.325 23.4C58.775 20.15 61.275 17.175 63.825 14.475C66.425 11.775 69 9.575 71.55 7.875C72.5 6.425 73.4 5.25 74.25 4.35C75.2 3.35 76.275 2.375 77.475 1.425C78.725 0.474998 79.825 -1.60933e-06 80.775 -1.60933e-06C81.575 -1.60933e-06 82.15 0.199997 82.5 0.599995C82.85 0.949997 83.025 1.4 83.025 1.95C83.025 2.8 82.625 3.5 81.825 4.05C81.075 4.6 80.1 5.15 78.9 5.7C77.75 6.25 76.575 6.975 75.375 7.875C73.675 10.975 72.125 13.95 70.725 16.8C69.375 19.65 68.1 22.525 66.9 25.425C65.7 28.325 64.5 31.45 63.3 34.8C62.7 36.55 62.025 38.6 61.275 40.95C60.525 43.3 59.875 45.675 59.325 48.075C58.775 50.475 58.5 52.625 58.5 54.525C58.5 55.875 58.7 57.05 59.1 58.05C59.5 59.05 60.25 59.55 61.35 59.55C62.65 59.55 64.075 58.85 65.625 57.45C67.175 56 68.7 54.15 70.2 51.9C71.7 49.65 72.95 47.275 73.95 44.775C74.55 44.775 74.85 45 74.85 45.45C73.65 48.2 72.225 50.875 70.575 53.475C68.975 56.075 67.2 58.2 65.25 59.85C63.35 61.55 61.35 62.4 59.25 62.4C57.6 62.4 56.25 61.8 55.2 60.6C54.2 59.4 53.7 57.625 53.7 55.275C53.7 53.275 54.025 50.825 54.675 47.925C55.375 44.975 56.3 41.8 57.45 38.4C58.65 34.95 59.95 31.475 61.35 27.975C62.65 24.775 63.975 21.775 65.325 18.975C66.675 16.175 68 13.7 69.3 11.55C66.6 13.8 63.95 16.525 61.35 19.725C58.8 22.875 56.325 26.25 53.925 29.85C51.525 33.45 49.225 37.05 47.025 40.65C44.875 44.2 42.825 47.475 40.875 50.475C39.525 52.575 37.975 54.875 36.225 57.375C34.525 59.825 32.55 62.175 30.3 64.425C28.1 66.725 25.625 68.6 22.875 70.05C20.125 71.5 17.075 72.225 13.725 72.225ZM76.5551 48.45C76.3551 48.9 76.0301 49.6 75.5801 50.55C75.1801 51.45 74.7301 52.45 74.2301 53.55C73.7801 54.6 73.3551 55.55 72.9551 56.4C72.6051 57.25 72.3551 57.825 72.2051 58.125C71.9051 58.725 71.5801 59.1 71.2301 59.25C70.9301 59.35 70.3051 59.4 69.3551 59.4H67.9301C67.5801 59.4 67.2051 59.525 66.8051 59.775C67.6051 58.175 68.4801 56.425 69.4301 54.525C70.3301 52.625 71.1801 50.825 71.9801 49.125C72.7801 47.425 73.4301 46.025 73.9301 44.925C74.4801 43.825 74.9801 42.825 75.4301 41.925C75.9301 40.975 76.4801 39.95 77.0801 38.85C78.1301 36.9 78.9801 35.625 79.6301 35.025C80.3301 34.375 81.1551 34.05 82.1051 34.05C82.5051 34.05 82.8801 34.075 83.2301 34.125C83.5801 34.175 83.8551 34.225 84.0551 34.275C84.1551 34.275 84.3051 34.3 84.5051 34.35C84.7551 34.4 85.1301 34.4 85.6301 34.35C84.9801 34.7 84.1801 35.525 83.2301 36.825C82.2801 38.125 81.3051 39.625 80.3051 41.325C79.3551 42.975 78.4801 44.575 77.6801 46.125C78.6301 45.175 79.6301 44.7 80.6801 44.7C81.4801 44.7 82.1301 44.85 82.6301 45.15C83.1301 45.4 83.5801 45.525 83.9801 45.525H84.0551C84.8551 43.275 85.9551 41.2 87.3551 39.3C88.8051 37.35 90.3801 35.8 92.0801 34.65C93.8301 33.5 95.5551 32.925 97.2551 32.925C99.3051 32.925 100.805 33.625 101.755 35.025C102.755 36.425 103.255 38.2 103.255 40.35C103.255 41.85 103.005 43.425 102.505 45.075C102.005 46.725 101.33 48.35 100.48 49.95C101.13 50.6 102.055 50.925 103.255 50.925C103.705 50.925 104.155 50.875 104.605 50.775C105.055 50.675 105.58 50.45 106.18 50.1C106.48 50.1 106.705 50.2 106.855 50.4C107.005 50.6 107.08 50.775 107.08 50.925C106.28 51.425 105.53 51.75 104.83 51.9C104.13 52 103.43 52.05 102.73 52.05C101.58 52.05 100.63 51.725 99.8801 51.075C98.4801 53.375 96.8051 55.325 94.8551 56.925C92.9551 58.475 90.9801 59.25 88.9301 59.25C86.8801 59.25 85.3551 58.525 84.3551 57.075C83.4051 55.575 82.9301 53.775 82.9301 51.675C82.9301 50.325 83.1051 48.925 83.4551 47.475C83.0551 47.725 82.6301 47.85 82.1801 47.85C81.3801 47.85 80.7551 47.675 80.3051 47.325C79.8551 46.975 79.3301 46.8 78.7301 46.8C78.4301 46.8 78.0801 46.9 77.6801 47.1C77.3301 47.3 76.9551 47.75 76.5551 48.45ZM89.9801 57.6C91.1301 57.6 92.2801 57.125 93.4301 56.175C94.5801 55.175 95.6301 54.05 96.5801 52.8C97.5301 51.55 98.2051 50.475 98.6051 49.575C97.8051 48.125 97.3301 47.05 97.1801 46.35C97.0801 45.6 97.0301 45.05 97.0301 44.7C97.0301 43.75 97.2801 43.025 97.7801 42.525C98.2801 42.025 98.7801 41.775 99.2801 41.775C99.9801 41.775 100.58 42.075 101.08 42.675C101.18 42.125 101.255 41.625 101.305 41.175C101.355 40.675 101.38 40.2 101.38 39.75C101.38 38.45 101.13 37.4 100.63 36.6C100.18 35.75 99.4551 35.325 98.4551 35.325C97.4051 35.325 96.3051 35.775 95.1551 36.675C94.0051 37.575 92.9051 38.775 91.8551 40.275C90.8551 41.775 89.9801 43.45 89.2301 45.3C88.5801 46.85 88.0801 48.325 87.7301 49.725C87.3801 51.075 87.2051 52.325 87.2051 53.475C87.2051 54.725 87.4301 55.725 87.8801 56.475C88.3301 57.225 89.0301 57.6 89.9801 57.6ZM110.646 57.6C111.696 57.6 112.971 56.575 114.471 54.525C116.021 52.475 117.746 49.85 119.646 46.65C121.396 43.7 122.921 41.25 124.221 39.3C125.571 37.35 126.821 35.9 127.971 34.95C128.721 34.3 129.371 33.9 129.921 33.75C130.471 33.55 131.021 33.45 131.571 33.45H132.096C134.146 33.45 134.721 34.4 133.821 36.3L131.121 41.925C130.671 42.825 130.121 43.95 129.471 45.3C128.871 46.6 128.271 47.95 127.671 49.35C127.071 50.7 126.596 52 126.246 53.25C125.896 54.45 125.771 55.425 125.871 56.175C125.971 56.925 126.421 57.3 127.221 57.3C127.871 57.3 128.646 56.75 129.546 55.65C130.496 54.5 131.496 53.05 132.546 51.3C133.646 49.55 134.746 47.7 135.846 45.75C136.996 43.8 138.121 41.95 139.221 40.2C140.371 38.45 141.446 37.05 142.446 36C142.696 35.75 143.246 35.275 144.096 34.575C144.946 33.825 145.771 33.45 146.571 33.45H147.096C147.996 33.45 148.621 33.675 148.971 34.125C149.321 34.525 149.246 35.25 148.746 36.3L146.121 41.925C145.671 42.825 145.121 43.95 144.471 45.3C143.871 46.6 143.271 47.95 142.671 49.35C142.121 50.7 141.671 52 141.321 53.25C141.021 54.45 140.921 55.425 141.021 56.175C141.171 56.925 141.671 57.3 142.521 57.3C143.771 57.3 144.996 56.65 146.196 55.35C147.446 54.05 148.621 52.45 149.721 50.55C150.821 48.6 151.796 46.675 152.646 44.775C152.846 44.775 153.046 44.85 153.246 45C153.446 45.1 153.546 45.25 153.546 45.45C152.646 47.7 151.596 49.875 150.396 51.975C149.246 54.075 147.921 55.8 146.421 57.15C144.921 58.5 143.196 59.175 141.246 59.175C139.596 59.175 138.471 58.675 137.871 57.675C137.271 56.675 137.071 55.35 137.271 53.7C137.521 52 138.021 50.125 138.771 48.075C139.571 45.975 140.521 43.85 141.621 41.7C142.721 39.55 143.846 37.525 144.996 35.625C145.196 35.275 145.196 35.1 144.996 35.1C144.846 35.1 144.521 35.375 144.021 35.925C143.521 36.475 143.221 36.8 143.121 36.9C141.821 38.35 140.596 40.05 139.446 42C138.346 43.9 137.246 45.85 136.146 47.85C135.096 49.85 134.021 51.725 132.921 53.475C131.821 55.175 130.671 56.55 129.471 57.6C128.271 58.65 126.946 59.175 125.496 59.175C123.896 59.175 122.871 58.525 122.421 57.225C122.021 55.875 122.071 54.075 122.571 51.825C123.121 49.575 124.046 47.05 125.346 44.25C126.646 41.45 128.196 38.575 129.996 35.625C130.196 35.275 130.171 35.1 129.921 35.1C129.671 35.1 129.146 35.5 128.346 36.3C127.796 36.85 127.246 37.475 126.696 38.175C126.196 38.875 125.521 39.925 124.671 41.325C123.821 42.675 122.621 44.7 121.071 47.4C119.321 50.4 117.821 52.775 116.571 54.525C115.321 56.275 114.146 57.55 113.046 58.35C111.996 59.1 110.871 59.475 109.671 59.475C109.021 59.475 108.321 59.325 107.571 59.025C106.821 58.725 106.171 58.2 105.621 57.45C105.121 56.7 104.871 55.625 104.871 54.225C104.871 52.875 105.146 51.575 105.696 50.325C106.296 49.025 107.071 47.95 108.021 47.1C108.971 46.25 109.946 45.825 110.946 45.825C111.946 45.825 112.771 46.225 113.421 47.025C112.671 47.425 111.946 48.1 111.246 49.05C110.546 49.95 109.971 50.95 109.521 52.05C109.121 53.1 108.921 54.125 108.921 55.125C108.921 56.075 109.071 56.725 109.371 57.075C109.671 57.425 110.096 57.6 110.646 57.6ZM154.842 59.25C154.292 59.25 153.617 59.125 152.817 58.875C152.067 58.625 151.392 58.175 150.792 57.525C150.242 56.825 149.967 55.8 149.967 54.45C149.967 53.15 150.392 51.65 151.242 49.95C152.092 48.25 152.842 46.75 153.492 45.45C152.942 45.45 152.667 45.225 152.667 44.775C152.717 44.625 152.942 44.15 153.342 43.35C153.742 42.55 154.217 41.6 154.767 40.5C155.317 39.4 155.842 38.35 156.342 37.35C156.892 36.3 157.317 35.5 157.617 34.95C158.217 33.85 159.167 33.3 160.467 33.3H165.117C164.267 33.95 163.492 34.675 162.792 35.475C162.142 36.225 161.317 37.625 160.317 39.675C160.317 39.675 160.142 40.025 159.792 40.725C159.442 41.425 158.992 42.325 158.442 43.425C157.942 44.475 157.417 45.55 156.867 46.65C156.367 47.75 155.942 48.675 155.592 49.425C154.942 50.825 154.517 51.95 154.317 52.8C154.117 53.6 154.017 54.35 154.017 55.05C154.017 56.7 154.567 57.525 155.667 57.525C156.867 57.525 158.317 56.55 160.017 54.6C161.417 52.95 162.792 50.975 164.142 48.675C165.492 46.375 166.767 44 167.967 41.55C169.217 39.1 170.317 36.9 171.267 34.95C171.817 33.85 172.792 33.3 174.192 33.3H178.317C177.217 34.2 176.092 35.55 174.942 37.35C173.842 39.15 172.617 41.45 171.267 44.25C170.917 45 170.467 45.95 169.917 47.1C169.367 48.25 168.867 49.475 168.417 50.775C168.017 52.075 167.817 53.375 167.817 54.675C167.817 56.425 168.442 57.3 169.692 57.3C171.392 57.3 173.042 56.125 174.642 53.775C176.242 51.425 177.817 48.425 179.367 44.775C179.767 44.775 179.992 44.8 180.042 44.85C180.142 44.9 180.217 45.1 180.267 45.45C179.717 46.8 179.042 48.275 178.242 49.875C177.492 51.425 176.617 52.925 175.617 54.375C174.667 55.825 173.592 57 172.392 57.9C171.242 58.8 169.967 59.25 168.567 59.25C167.317 59.25 166.292 58.8 165.492 57.9C164.692 56.95 164.292 55.625 164.292 53.925C164.292 52.575 164.542 51.125 165.042 49.575C164.192 51.075 163.217 52.575 162.117 54.075C161.017 55.575 159.842 56.825 158.592 57.825C157.342 58.775 156.092 59.25 154.842 59.25ZM199.726 40.725C199.726 42.225 199.326 44.025 198.526 46.125C197.726 48.225 196.601 50.275 195.151 52.275C193.701 54.275 191.976 55.95 189.976 57.3C188.026 58.6 185.901 59.25 183.601 59.25C181.601 59.25 180.201 58.65 179.401 57.45C178.601 56.25 178.201 54.75 178.201 52.95C178.201 51.95 178.326 50.925 178.576 49.875C178.826 48.825 179.351 47.45 180.151 45.75C179.701 45.75 179.451 45.65 179.401 45.45C179.401 45.2 179.401 44.975 179.401 44.775C179.901 43.575 180.626 42 181.576 40.05C182.526 38.05 183.626 35.875 184.876 33.525C186.126 31.125 187.451 28.725 188.851 26.325C190.251 23.925 191.651 21.675 193.051 19.575C194.451 17.425 195.776 15.65 197.026 14.25C200.276 10.4 203.451 7.4 206.551 5.25C209.651 3.05 212.626 1.95 215.476 1.95C217.176 1.95 218.476 2.375 219.376 3.225C220.326 4.025 220.801 5.1 220.801 6.45C220.801 8.3 219.951 10.55 218.251 13.2C216.551 15.8 214.001 18.5 210.601 21.3C208.551 23 205.826 24.85 202.426 26.85C199.026 28.8 195.026 30.425 190.426 31.725H190.276C188.576 34.825 187.051 37.825 185.701 40.725C184.401 43.625 183.376 46.25 182.626 48.6C181.876 50.9 181.501 52.75 181.501 54.15C181.501 54.9 181.576 55.575 181.726 56.175C181.826 56.575 182.051 56.95 182.401 57.3C182.801 57.6 183.276 57.75 183.826 57.75C184.526 57.75 185.326 57.475 186.226 56.925C187.176 56.375 188.226 55.4 189.376 54C190.076 53.15 190.801 52.125 191.551 50.925C192.301 49.725 193.001 48.5 193.651 47.25C194.301 45.95 194.826 44.8 195.226 43.8C196.076 41.8 196.501 39.975 196.501 38.325C196.501 36.725 196.126 35.675 195.376 35.175C194.676 34.675 193.601 34.425 192.151 34.425C191.251 34.425 190.801 34.175 190.801 33.675C190.801 33.475 190.926 33.275 191.176 33.075C191.476 32.875 191.876 32.775 192.376 32.775C194.276 32.775 195.976 33.475 197.476 34.875C198.976 36.275 199.726 38.225 199.726 40.725ZM215.476 4.425C213.776 4.425 211.901 5.15 209.851 6.6C207.851 8 205.776 9.9 203.626 12.3C201.476 14.7 199.351 17.425 197.251 20.475C195.201 23.475 193.251 26.575 191.401 29.775C195.251 28.575 198.751 27.05 201.901 25.2C205.051 23.3 207.601 21.55 209.551 19.95C212.501 17.5 214.701 15.15 216.151 12.9C217.601 10.6 218.326 8.725 218.326 7.275C218.326 6.425 218.076 5.75 217.576 5.25C217.126 4.7 216.426 4.425 215.476 4.425ZM219.186 59.475C218.036 59.475 217.011 59.15 216.111 58.5C215.261 57.85 214.836 56.525 214.836 54.525C214.836 53.675 214.886 52.875 214.986 52.125C215.136 51.375 215.311 50.575 215.511 49.725C215.061 50.475 214.436 51.4 213.636 52.5C212.836 53.6 211.936 54.675 210.936 55.725C209.986 56.775 208.986 57.65 207.936 58.35C206.936 59.05 205.986 59.4 205.086 59.4C203.786 59.4 202.736 58.825 201.936 57.675C201.136 56.475 200.736 54.925 200.736 53.025C200.736 50.975 201.211 48.775 202.161 46.425C203.111 44.075 204.411 41.825 206.061 39.675C207.711 37.525 209.611 35.775 211.761 34.425C213.911 33.075 216.161 32.4 218.511 32.4C219.661 32.4 220.761 32.6 221.811 33C222.861 33.35 223.786 33.95 224.586 34.8C224.936 35.15 225.111 35.55 225.111 36C225.111 36.3 224.986 36.55 224.736 36.75C224.486 36.95 224.161 37 223.761 36.9C223.211 35.15 222.036 34.275 220.236 34.275C219.386 34.275 218.411 34.55 217.311 35.1C215.961 35.8 214.511 36.925 212.961 38.475C211.461 39.975 210.036 41.7 208.686 43.65C207.386 45.55 206.311 47.475 205.461 49.425C204.611 51.375 204.186 53.15 204.186 54.75C204.186 56.4 204.811 57.225 206.061 57.225C207.161 57.225 208.286 56.7 209.436 55.65C210.636 54.6 211.761 53.3 212.811 51.75C213.911 50.15 214.911 48.575 215.811 47.025C216.711 45.475 217.411 44.225 217.911 43.275C218.661 41.925 219.361 40.8 220.011 39.9C220.661 39 221.586 38.55 222.786 38.55C223.336 38.55 223.886 38.625 224.436 38.775C224.986 38.925 225.561 38.95 226.161 38.85C224.661 40.35 223.336 42.125 222.186 44.175C221.086 46.225 220.236 48.25 219.636 50.25C219.036 52.2 218.736 53.85 218.736 55.2C218.736 56.7 219.236 57.45 220.236 57.45C221.036 57.45 221.886 57 222.786 56.1C223.736 55.2 224.636 54.075 225.486 52.725C226.386 51.325 227.211 49.925 227.961 48.525C228.711 47.075 229.311 45.825 229.761 44.775C230.011 44.775 230.211 44.8 230.361 44.85C230.561 44.9 230.661 45.1 230.661 45.45C230.611 45.65 230.511 45.875 230.361 46.125C230.261 46.325 230.086 46.7 229.836 47.25C229.436 48.05 228.886 49.125 228.186 50.475C227.486 51.825 226.661 53.2 225.711 54.6C224.761 55.95 223.736 57.1 222.636 58.05C221.536 59 220.386 59.475 219.186 59.475ZM231.966 59.25C231.416 59.25 230.741 59.125 229.941 58.875C229.191 58.625 228.516 58.175 227.916 57.525C227.366 56.825 227.091 55.8 227.091 54.45C227.091 53.15 227.516 51.65 228.366 49.95C229.216 48.25 229.966 46.75 230.616 45.45C230.066 45.45 229.791 45.225 229.791 44.775C229.841 44.625 230.066 44.15 230.466 43.35C230.866 42.55 231.341 41.6 231.891 40.5C232.441 39.4 232.966 38.35 233.466 37.35C234.016 36.3 234.441 35.5 234.741 34.95C235.341 33.85 236.291 33.3 237.591 33.3H242.241C241.391 33.95 240.616 34.675 239.916 35.475C239.266 36.225 238.441 37.625 237.441 39.675C237.441 39.675 237.266 40.025 236.916 40.725C236.566 41.425 236.116 42.325 235.566 43.425C235.066 44.475 234.541 45.55 233.991 46.65C233.491 47.75 233.066 48.675 232.716 49.425C232.066 50.825 231.641 51.95 231.441 52.8C231.241 53.6 231.141 54.35 231.141 55.05C231.141 56.7 231.691 57.525 232.791 57.525C233.991 57.525 235.441 56.55 237.141 54.6C238.541 52.95 239.916 50.975 241.266 48.675C242.616 46.375 243.891 44 245.091 41.55C246.341 39.1 247.441 36.9 248.391 34.95C248.941 33.85 249.916 33.3 251.316 33.3H255.441C254.341 34.2 253.216 35.55 252.066 37.35C250.966 39.15 249.741 41.45 248.391 44.25C248.041 45 247.591 45.95 247.041 47.1C246.491 48.25 245.991 49.475 245.541 50.775C245.141 52.075 244.941 53.375 244.941 54.675C244.941 56.425 245.566 57.3 246.816 57.3C248.516 57.3 250.166 56.125 251.766 53.775C253.366 51.425 254.941 48.425 256.491 44.775C256.891 44.775 257.116 44.8 257.166 44.85C257.266 44.9 257.341 45.1 257.391 45.45C256.841 46.8 256.166 48.275 255.366 49.875C254.616 51.425 253.741 52.925 252.741 54.375C251.791 55.825 250.716 57 249.516 57.9C248.366 58.8 247.091 59.25 245.691 59.25C244.441 59.25 243.416 58.8 242.616 57.9C241.816 56.95 241.416 55.625 241.416 53.925C241.416 52.575 241.666 51.125 242.166 49.575C241.316 51.075 240.341 52.575 239.241 54.075C238.141 55.575 236.966 56.825 235.716 57.825C234.466 58.775 233.216 59.25 231.966 59.25ZM255.366 21.675C255.866 21.625 256.166 21.75 256.266 22.05C256.366 22.35 256.416 22.6 256.416 22.8C255.616 24.2 254.416 25.5 252.816 26.7C251.266 27.85 249.441 28.425 247.341 28.425C245.391 28.425 243.791 27.875 242.541 26.775C241.291 25.625 240.666 24.275 240.666 22.725C240.666 21.575 240.966 20.6 241.566 19.8C242.216 19 243.041 18.6 244.041 18.6C244.841 18.6 245.391 18.825 245.691 19.275C246.041 19.725 246.216 20.15 246.216 20.55C246.216 21.1 245.991 21.55 245.541 21.9C244.641 22.4 244.191 23.1 244.191 24C244.191 24.8 244.441 25.475 244.941 26.025C245.491 26.575 246.391 26.85 247.641 26.85C249.241 26.85 250.741 26.375 252.141 25.425C253.541 24.475 254.616 23.225 255.366 21.675ZM281.65 29.775C280.4 29.775 279.075 29.6 277.675 29.25C276.325 28.9 274.95 28.55 273.55 28.2C272.2 27.85 270.925 27.675 269.725 27.675C268.725 27.675 267.8 27.85 266.95 28.2C266.1 28.5 265.4 29.125 264.85 30.075L264.625 30.45C264.475 30.65 264.35 30.75 264.25 30.75C264.15 30.75 264.05 30.675 263.95 30.525C263.85 30.375 263.825 30.2 263.875 30C264.425 28.6 265.425 27.5 266.875 26.7C268.325 25.85 269.975 25.425 271.825 25.425C273.125 25.425 274.775 25.6 276.775 25.95C278.825 26.3 280.675 26.475 282.325 26.475C283.375 26.475 284.55 26.425 285.85 26.325C287.2 26.175 288.475 25.85 289.675 25.35C290.925 24.8 291.875 23.925 292.525 22.725C293.025 22.725 293.275 22.9 293.275 23.25C292.325 25.5 291.025 27.15 289.375 28.2C287.725 29.25 285.15 29.775 281.65 29.775ZM251.8 59.25C251.25 59.25 250.8 59.25 250.45 59.25C250.05 59.3 249.65 59.425 249.25 59.625C251.1 56.075 252.85 52.525 254.5 48.975C256.15 45.375 257.825 41.975 259.525 38.775C260.525 36.975 261.35 35.725 262 35.025C262.7 34.275 263.625 33.9 264.775 33.9C265.175 33.9 265.6 33.975 266.05 34.125C266.5 34.225 266.95 34.275 267.4 34.275C267.7 34.275 267.925 34.25 268.075 34.2C267.375 34.6 266.475 35.6 265.375 37.2C264.275 38.75 263.15 40.55 262 42.6C260.85 44.65 259.825 46.575 258.925 48.375C259.875 47.225 260.85 46.075 261.85 44.925C262.9 43.775 264.05 42.675 265.3 41.625C266.4 40.675 267.55 39.65 268.75 38.55C270 37.4 271.225 36.425 272.425 35.625C273.625 34.825 274.675 34.425 275.575 34.425C275.925 34.425 276.15 34.45 276.25 34.5C277.2 34.9 277.675 35.55 277.675 36.45C277.675 36.75 277.55 37.2 277.3 37.8C276.65 39.5 275.8 41.25 274.75 43.05C273.75 44.8 272.8 46.575 271.9 48.375C272.65 47.475 273.575 46.375 274.675 45.075C275.825 43.775 276.975 42.625 278.125 41.625C279.225 40.625 280.625 39.575 282.325 38.475C284.025 37.375 285.7 36.425 287.35 35.625C289 34.825 290.325 34.425 291.325 34.425C291.675 34.425 291.925 34.45 292.075 34.5C292.075 34.5 291.8 35 291.25 36C290.7 36.95 290 38.225 289.15 39.825C288.35 41.375 287.525 43.05 286.675 44.85C285.825 46.6 285.05 48.3 284.35 49.95C283.7 51.55 283.275 52.9 283.075 54C282.925 54.65 282.85 55.25 282.85 55.8C282.85 56.6 283 57.125 283.3 57.375C283.6 57.625 283.925 57.75 284.275 57.75C285.275 57.75 286.25 57.325 287.2 56.475C288.2 55.625 289.175 54.55 290.125 53.25C291.075 51.9 291.925 50.475 292.675 48.975C293.475 47.475 294.15 46.075 294.7 44.775C295.3 44.775 295.6 45 295.6 45.45C295.05 46.8 294.35 48.3 293.5 49.95C292.7 51.55 291.775 53.075 290.725 54.525C289.675 55.975 288.525 57.175 287.275 58.125C286.025 59.075 284.675 59.55 283.225 59.55C282.175 59.55 281.175 59.2 280.225 58.5C279.325 57.8 278.875 56.5 278.875 54.6C278.875 52.55 279.35 50.5 280.3 48.45C281.3 46.4 282.325 44.525 283.375 42.825C283.875 41.975 284.125 41.3 284.125 40.8C284.125 40.2 283.825 39.9 283.225 39.9C282.725 39.9 282.025 40.15 281.125 40.65C280.275 41.15 279.2 42.025 277.9 43.275C277.1 44.025 276.15 45.075 275.05 46.425C274 47.725 272.925 49.15 271.825 50.7C270.725 52.25 269.775 53.775 268.975 55.275C268.175 56.775 267.65 58.1 267.4 59.25C266.65 59.25 266.05 58.95 265.6 58.35C265.15 57.7 264.925 56.95 264.925 56.1C264.925 55.95 264.925 55.8 264.925 55.65C264.925 55.5 264.95 55.325 265 55.125C265.25 53.575 265.65 52.275 266.2 51.225C266.75 50.125 267.375 48.85 268.075 47.4C268.425 46.75 268.825 46 269.275 45.15C269.725 44.25 270.125 43.4 270.475 42.6C270.825 41.75 271 41.05 271 40.5C271 40 270.8 39.75 270.4 39.75C269.95 39.75 269.35 39.975 268.6 40.425C267.9 40.875 267.225 41.4 266.575 42C265.925 42.55 265.425 42.975 265.075 43.275C263.825 44.475 262.3 46.2 260.5 48.45C258.75 50.7 256.825 53.9 254.725 58.05C254.425 58.6 254.075 58.95 253.675 59.1C253.275 59.2 252.65 59.25 251.8 59.25Z" fill="#E7E0CB"></path></svg> 