<?xml version="1.0" encoding="UTF-8"?> <svg xmlns="http://www.w3.org/2000/svg" width="202" height="53" viewBox="0 0 202 53" fill="none"><path d="M70.525 2.86698e-05C72.605 2.86698e-05 74.425 0.390031 76.05 1.23503C77.675 2.08003 78.52 3.12003 78.52 4.48503C78.52 5.00503 78.26 5.52503 77.935 5.52503C77.61 5.52503 77.545 5.20003 77.22 4.48503C75.595 1.43003 72.67 0.78003 70.135 0.78003C65.975 0.78003 61.815 2.79503 57.72 6.89003C53.625 10.985 48.425 16.51 42.12 23.53C32.565 34.125 23.66 41.21 16.185 43.81C19.89 45.045 24.44 46.28 29.77 47.58C35.165 48.88 39.585 49.53 43.03 49.53C46.995 49.53 49.92 48.815 51.935 46.215C52 46.15 52.26 45.955 52.455 46.02C52.65 46.085 52.52 46.41 52.455 46.67C51.74 47.905 50.57 49.14 49.075 50.31C47.58 51.48 45.305 52.065 42.38 52.065C37.44 52.065 32.045 50.96 26.26 48.685C20.475 46.475 16.64 44.98 14.625 44.265C12.545 44.85 9.09999 45.24 7.21499 45.24C5.91499 45.24 4.41999 45.11 2.66499 44.915C0.90999 44.72 -1.00136e-05 44.2 -1.00136e-05 43.225C-1.00136e-05 42.12 2.53499 41.6 4.67999 41.6C8.12499 41.6 12.09 42.575 14.885 43.42C22.62 40.625 29.9 32.825 39 22.165C45.76 14.3 51.61 8.64503 56.485 5.20003C61.36 1.75503 66.04 2.86698e-05 70.525 2.86698e-05ZM64.3307 23.855C65.8907 23.855 66.8007 24.375 66.8007 25.74C66.8007 27.625 64.8507 31.135 60.8857 35.1C55.6857 40.3 50.7457 43.68 48.1457 43.68C46.3907 43.68 45.3507 42.51 45.3507 40.625C45.3507 38.285 47.2357 34.71 50.4207 31.395C52.6307 29.12 55.0357 27.3 57.7007 25.935C60.3657 24.57 62.5757 23.855 64.3307 23.855ZM65.7607 25.48C65.7607 25.025 65.5007 24.765 64.9807 24.765C62.9657 24.765 58.0907 28.405 52.8257 33.865C49.9007 37.05 47.1707 40.17 47.1707 41.795C47.1707 42.64 47.6257 42.9 48.2107 42.9C50.0957 42.9 54.9057 38.935 60.1707 33.475C61.2757 32.37 62.4457 30.94 63.7457 29.25C65.1107 27.56 65.7607 26.325 65.7607 25.48ZM89.0805 25.545C89.0805 27.56 87.3905 29.835 85.8955 31.07C85.4405 31.395 84.6605 31.98 84.0755 31.98C83.5555 31.98 83.1655 31.72 83.1655 31.2C83.1655 30.355 84.5305 29.445 85.3755 28.925C87.2605 27.625 88.3005 26.39 88.3005 25.545C88.3005 25.09 88.0405 24.7 87.5205 24.7C86.6755 24.7 85.1155 25.675 82.8405 27.56C80.5655 29.445 78.6805 31.2 77.0555 32.695C72.7005 36.855 70.8155 39.975 70.8805 41.535C70.8805 42.315 71.4655 42.705 72.3105 42.705C73.3505 42.705 74.5205 42.38 75.7555 41.73C76.9905 41.015 77.9655 40.495 78.6155 40.04C81.2155 38.415 84.4655 35.555 86.2855 33.93C86.6105 33.67 86.9355 33.475 87.1955 33.67C87.3905 33.865 87.3255 34.125 87.0655 34.385C85.2455 36.01 82.5805 38.35 80.2405 39.975C77.6405 41.86 74.4555 43.68 71.7905 43.68C69.6455 43.68 68.4755 42.705 68.4755 40.69C68.4755 37.765 70.8805 34.125 74.0655 31.2C76.2105 29.185 78.5505 27.495 81.0855 26.065C83.6205 24.57 85.6355 23.855 87.1305 23.855C88.4955 23.855 89.0805 24.7 89.0805 25.545ZM117.072 24.505H117.592C114.797 26.975 112.197 29.445 109.727 31.98C107.322 34.45 105.502 36.335 104.397 37.7C102.772 39.585 101.667 41.08 101.667 41.925C101.667 42.25 101.862 42.51 102.317 42.51C102.902 42.51 103.877 42.12 105.112 41.275C106.347 40.43 107.452 39.65 108.297 39C110.377 37.375 112.782 35.165 114.342 33.8C114.602 33.735 114.992 33.345 115.252 33.67C115.512 33.93 115.252 34.19 114.927 34.45C113.042 36.27 110.507 38.35 108.882 39.65C107.907 40.43 106.737 41.275 105.372 42.185C104.007 43.095 102.837 43.55 101.862 43.55C100.302 43.55 99.5866 42.835 99.5866 41.34C99.5866 40.495 100.107 38.935 101.472 37.31C97.7666 40.69 93.6066 43.55 91.5266 43.55C89.9666 43.55 89.3166 42.705 89.3166 41.405C89.2516 39.065 91.4616 35.23 94.3866 32.305C96.5966 30.095 99.1966 28.145 102.187 26.455C105.242 24.7 107.647 23.855 109.532 23.855C110.637 23.855 111.612 24.18 111.612 25.285C111.612 26 111.092 27.17 109.727 28.535C109.662 28.6 109.727 28.665 109.792 28.6C111.807 26.715 114.017 25.09 115.057 24.765C115.772 24.505 116.357 24.505 117.072 24.505ZM110.702 25.545C110.702 25.09 110.442 24.83 109.922 24.83C108.102 24.83 103.422 28.08 97.3766 33.865C94.1916 37.05 91.3966 40.56 91.3966 41.925C91.3966 42.25 91.4616 42.575 92.0466 42.575C92.8916 42.575 94.4516 41.73 96.7916 39.975C99.1966 38.22 101.667 36.075 104.202 33.475L108.297 29.315C109.922 27.625 110.702 26.39 110.702 25.545ZM132.062 25.74C132.907 25.74 135.832 25.805 137.197 25.87C137.262 25.87 137.587 26 137.522 26.325C137.457 26.585 137.067 26.585 136.807 26.585C135.702 26.585 132.972 26.52 131.477 26.585C127.252 30.81 123.222 34.97 121.077 37.635C119.712 39.455 118.802 40.82 118.802 41.6C118.802 42.185 119.127 42.575 119.842 42.575C121.207 42.575 123.547 41.21 125.367 39.845C127.382 38.285 130.437 35.685 132.322 34.06C132.582 33.8 132.972 33.475 133.232 33.735C133.557 34.06 133.102 34.45 132.777 34.775C131.152 36.27 127.967 39 125.562 40.82C123.222 42.575 121.077 43.68 119.322 43.68C117.697 43.68 116.657 42.64 116.657 41.015C116.657 40.04 117.047 38.805 117.762 37.7C119.127 35.425 122.507 31.72 127.642 26.52C126.537 26.52 124.522 26.455 123.677 26.52C123.482 26.52 122.962 26.52 123.027 26.195C123.092 25.935 123.417 25.805 123.742 25.805C124.522 25.74 126.667 25.74 128.292 25.74C133.687 20.475 137.197 17.68 139.862 16.12C140.837 15.535 142.397 14.755 143.502 14.43C144.347 14.17 145.387 13.975 146.492 13.975C146.752 13.975 147.077 13.975 147.402 14.04C147.662 14.105 147.662 14.17 147.402 14.235C145.517 14.56 143.307 16.055 142.202 16.9C140.057 18.525 135.767 22.035 132.062 25.74ZM157.187 18.85C157.187 19.825 156.342 20.67 155.367 20.67C154.392 20.67 153.482 19.825 153.482 18.85C153.482 17.875 154.392 17.03 155.367 17.03C156.342 17.03 157.187 17.875 157.187 18.85ZM152.702 24.245C149.907 26.715 147.242 29.25 144.707 31.85C142.172 34.385 140.287 36.335 139.182 37.7C137.622 39.585 136.582 41.015 136.582 41.99C136.582 42.315 136.842 42.64 137.297 42.64C138.012 42.64 138.922 42.25 140.092 41.535C141.327 40.82 142.302 40.17 143.147 39.585C144.252 38.74 145.422 37.765 146.787 36.66L149.842 34.06C150.167 33.735 150.557 33.475 150.817 33.8C151.012 33.995 150.882 34.255 150.557 34.515C149.712 35.23 148.607 36.27 147.112 37.505C145.617 38.74 144.512 39.65 143.732 40.235C141.652 41.795 138.727 43.68 136.582 43.68C135.022 43.68 134.307 42.965 134.307 41.6C134.307 39.715 136.192 36.595 139.117 33.475C140.352 32.175 142.042 30.615 144.057 28.73C146.137 26.845 147.827 25.61 149.127 24.895C150.102 24.375 151.857 24.18 152.702 24.245ZM171.352 23.855C172.912 23.855 173.822 24.375 173.822 25.74C173.822 27.625 171.872 31.135 167.907 35.1C162.707 40.3 157.767 43.68 155.167 43.68C153.412 43.68 152.372 42.51 152.372 40.625C152.372 38.285 154.257 34.71 157.442 31.395C159.652 29.12 162.057 27.3 164.722 25.935C167.387 24.57 169.597 23.855 171.352 23.855ZM172.782 25.48C172.782 25.025 172.522 24.765 172.002 24.765C169.987 24.765 165.112 28.405 159.847 33.865C156.922 37.05 154.192 40.17 154.192 41.795C154.192 42.64 154.647 42.9 155.232 42.9C157.117 42.9 161.927 38.935 167.192 33.475C168.297 32.37 169.467 30.94 170.767 29.25C172.132 27.56 172.782 26.325 172.782 25.48ZM201.317 34.125C201.642 34.45 201.122 34.905 200.797 35.165C198.782 36.92 196.052 39.325 193.647 40.95C191.242 42.575 188.967 43.68 187.407 43.68C185.912 43.68 185.067 42.9 185.067 41.34C185.067 40.365 185.652 39.065 186.497 37.765C188.122 35.49 189.422 34.255 192.087 31.85C193.062 30.94 194.427 29.77 196.117 28.34C197.807 26.91 198.652 25.935 198.717 25.35C198.717 25.09 198.587 24.96 198.262 24.96C197.157 24.96 194.817 26.065 191.242 28.34C187.667 30.615 184.872 32.695 182.727 34.71C181.102 36.205 179.802 37.635 178.697 38.87C177.592 40.105 176.227 41.795 174.472 43.94C173.952 43.94 173.627 43.225 173.627 42.445C173.627 41.73 174.472 40.235 176.097 37.96C177.722 35.62 179.737 33.15 182.272 30.55C184.352 28.405 186.692 26.325 188.252 25.285C189.357 24.57 191.177 24.245 192.802 24.245C190.527 25.805 186.887 29.12 184.027 32.305C183.832 32.5 183.962 32.565 184.027 32.5C185.652 31.135 188.057 29.38 191.307 27.235C194.622 25.09 197.092 23.985 198.847 23.985C200.212 23.985 200.927 24.83 200.927 25.805C200.927 26.91 200.212 28.21 198.782 29.77C197.352 31.265 196.052 32.565 194.882 33.605C192.802 35.49 191.047 37.31 189.682 38.675C188.057 40.43 187.342 41.275 187.342 41.99C187.342 42.445 187.602 42.64 188.057 42.64C189.097 42.64 191.372 41.47 193.517 39.975C195.792 38.35 198.652 35.75 200.407 34.385C200.667 34.125 201.057 33.865 201.317 34.125Z" fill="white" fill-opacity="0.2"></path></svg> 