<?xml version="1.0" encoding="UTF-8"?> <svg xmlns="http://www.w3.org/2000/svg" width="44" height="13" viewBox="0 0 44 13" fill="none"><path d="M-6.67572e-06 1.32H0.179993C0.24666 1.32 0.32666 1.28667 0.419993 1.22C0.52666 1.15333 0.639993 1.08 0.759993 0.999999C0.893327 0.906666 1.04666 0.8 1.21999 0.68C1.40666 0.56 1.61333 0.453333 1.83999 0.359999C2.07999 0.253333 2.34666 0.166667 2.63999 0.0999999C2.93333 0.0333333 3.25999 0 3.61999 0C4.07333 0 4.51333 0.0666666 4.93999 0.2C5.36666 0.32 5.74666 0.513333 6.07999 0.779999C6.41333 1.03333 6.67999 1.36 6.87999 1.76C7.07999 2.16 7.17999 2.64 7.17999 3.2C7.17999 3.66667 7.09999 4.09333 6.93999 4.48C6.77999 4.86667 6.55999 5.22667 6.27999 5.56C6.01333 5.89333 5.70666 6.21333 5.35999 6.52C5.02666 6.81333 4.67999 7.10667 4.31999 7.4C3.97333 7.68 3.63333 7.96667 3.29999 8.26C2.97999 8.55333 2.68666 8.86 2.41999 9.18C2.16666 9.5 1.95333 9.84667 1.77999 10.22C1.60666 10.58 1.50666 10.9667 1.47999 11.38H5.63999C6.14666 11.38 6.54666 11.2933 6.83999 11.12C7.13333 10.9333 7.28666 10.6333 7.29999 10.22H7.47999V12.5H0.0799933C0.0799933 11.9 0.179993 11.3467 0.379993 10.84C0.579993 10.32 0.839993 9.84667 1.15999 9.42C1.47999 8.98 1.83333 8.57333 2.21999 8.2C2.61999 7.82667 3.01333 7.46667 3.39999 7.12C3.71999 6.84 4.02666 6.56 4.31999 6.28C4.62666 6 4.89333 5.72 5.11999 5.44C5.35999 5.14667 5.54666 4.84667 5.67999 4.54C5.82666 4.22 5.89999 3.88667 5.89999 3.54C5.89999 3.1 5.81999 2.70667 5.65999 2.36C5.51333 2.01333 5.31333 1.72 5.05999 1.48C4.81999 1.24 4.53999 1.06 4.21999 0.94C3.89999 0.806667 3.57999 0.74 3.25999 0.74C2.57999 0.74 1.97999 0.946666 1.45999 1.36C0.939993 1.76 0.519993 2.28 0.199993 2.92H-6.67572e-06V1.32ZM9.17421 1.32H9.35421C9.42088 1.32 9.50088 1.28667 9.59421 1.22C9.70088 1.15333 9.81421 1.08 9.93421 0.999999C10.0675 0.906666 10.2209 0.8 10.3942 0.68C10.5809 0.56 10.7875 0.453333 11.0142 0.359999C11.2542 0.253333 11.5209 0.166667 11.8142 0.0999999C12.1075 0.0333333 12.4342 0 12.7942 0C13.2475 0 13.6875 0.0666666 14.1142 0.2C14.5409 0.32 14.9209 0.513333 15.2542 0.779999C15.5875 1.03333 15.8542 1.36 16.0542 1.76C16.2542 2.16 16.3542 2.64 16.3542 3.2C16.3542 3.66667 16.2742 4.09333 16.1142 4.48C15.9542 4.86667 15.7342 5.22667 15.4542 5.56C15.1875 5.89333 14.8809 6.21333 14.5342 6.52C14.2009 6.81333 13.8542 7.10667 13.4942 7.4C13.1475 7.68 12.8075 7.96667 12.4742 8.26C12.1542 8.55333 11.8609 8.86 11.5942 9.18C11.3409 9.5 11.1275 9.84667 10.9542 10.22C10.7809 10.58 10.6809 10.9667 10.6542 11.38H14.8142C15.3209 11.38 15.7209 11.2933 16.0142 11.12C16.3075 10.9333 16.4609 10.6333 16.4742 10.22H16.6542V12.5H9.25421C9.25421 11.9 9.35421 11.3467 9.55421 10.84C9.75421 10.32 10.0142 9.84667 10.3342 9.42C10.6542 8.98 11.0075 8.57333 11.3942 8.2C11.7942 7.82667 12.1875 7.46667 12.5742 7.12C12.8942 6.84 13.2009 6.56 13.4942 6.28C13.8009 6 14.0675 5.72 14.2942 5.44C14.5342 5.14667 14.7209 4.84667 14.8542 4.54C15.0009 4.22 15.0742 3.88667 15.0742 3.54C15.0742 3.1 14.9942 2.70667 14.8342 2.36C14.6875 2.01333 14.4875 1.72 14.2342 1.48C13.9942 1.24 13.7142 1.06 13.3942 0.94C13.0742 0.806667 12.7542 0.74 12.4342 0.74C11.7542 0.74 11.1542 0.946666 10.6342 1.36C10.1142 1.76 9.69421 2.28 9.37421 2.92H9.17421V1.32ZM18.9284 5.72C18.9284 5.45333 19.0151 5.22667 19.1884 5.04C19.3751 4.85333 19.6018 4.76 19.8684 4.76C20.1351 4.76 20.3618 4.85333 20.5484 5.04C20.7351 5.22667 20.8284 5.45333 20.8284 5.72C20.8284 5.98667 20.7351 6.21333 20.5484 6.4C20.3618 6.57333 20.1351 6.66 19.8684 6.66C19.6018 6.66 19.3751 6.57333 19.1884 6.4C19.0151 6.21333 18.9284 5.98667 18.9284 5.72ZM18.9284 11.64C18.9284 11.3733 19.0151 11.1467 19.1884 10.96C19.3751 10.7733 19.6018 10.68 19.8684 10.68C20.1351 10.68 20.3618 10.7733 20.5484 10.96C20.7351 11.1467 20.8284 11.3733 20.8284 11.64C20.8284 11.9067 20.7351 12.1333 20.5484 12.32C20.3618 12.4933 20.1351 12.58 19.8684 12.58C19.6018 12.58 19.3751 12.4933 19.1884 12.32C19.0151 12.1333 18.9284 11.9067 18.9284 11.64ZM23.2519 6.3C23.2519 5.27333 23.3785 4.36667 23.6319 3.58C23.8985 2.79333 24.2452 2.14 24.6719 1.62C25.0985 1.08667 25.5785 0.686666 26.1119 0.419999C26.6585 0.14 27.2119 0 27.7719 0C28.3319 0 28.8852 0.14 29.4319 0.419999C29.9785 0.686666 30.4585 1.08667 30.8719 1.62C31.2985 2.14 31.6385 2.79333 31.8919 3.58C32.1585 4.36667 32.2919 5.27333 32.2919 6.3C32.2919 7.34 32.1585 8.26 31.8919 9.06C31.6385 9.84667 31.2985 10.5133 30.8719 11.06C30.4585 11.5933 29.9785 12 29.4319 12.28C28.8852 12.56 28.3319 12.7 27.7719 12.7C27.2119 12.7 26.6585 12.56 26.1119 12.28C25.5785 12 25.0985 11.5933 24.6719 11.06C24.2452 10.5133 23.8985 9.84667 23.6319 9.06C23.3785 8.26 23.2519 7.34 23.2519 6.3ZM31.0319 6.82C31.0319 5.86 30.9252 5.01333 30.7119 4.28C30.4985 3.53333 30.2185 2.91333 29.8719 2.42C29.5385 1.91333 29.1519 1.53333 28.7119 1.28C28.2852 1.01333 27.8452 0.879999 27.3919 0.879999C26.9385 0.879999 26.5252 1.01333 26.1519 1.28C25.7919 1.53333 25.4852 1.87333 25.2319 2.3C24.9785 2.72667 24.7785 3.22 24.6319 3.78C24.4985 4.34 24.4319 4.92667 24.4319 5.54C24.4319 6.27333 24.5185 7.02 24.6919 7.78C24.8652 8.52667 25.1119 9.20667 25.4319 9.82C25.7519 10.42 26.1319 10.9133 26.5719 11.3C27.0252 11.6867 27.5185 11.88 28.0519 11.88C28.4385 11.88 28.8119 11.7733 29.1719 11.56C29.5319 11.3333 29.8452 11.0067 30.1119 10.58C30.3919 10.1533 30.6119 9.62667 30.7719 9C30.9452 8.37333 31.0319 7.64667 31.0319 6.82ZM34.5159 6.3C34.5159 5.27333 34.6426 4.36667 34.8959 3.58C35.1626 2.79333 35.5093 2.14 35.9359 1.62C36.3626 1.08667 36.8426 0.686666 37.3759 0.419999C37.9226 0.14 38.4759 0 39.0359 0C39.5959 0 40.1493 0.14 40.6959 0.419999C41.2426 0.686666 41.7226 1.08667 42.1359 1.62C42.5626 2.14 42.9026 2.79333 43.1559 3.58C43.4226 4.36667 43.5559 5.27333 43.5559 6.3C43.5559 7.34 43.4226 8.26 43.1559 9.06C42.9026 9.84667 42.5626 10.5133 42.1359 11.06C41.7226 11.5933 41.2426 12 40.6959 12.28C40.1493 12.56 39.5959 12.7 39.0359 12.7C38.4759 12.7 37.9226 12.56 37.3759 12.28C36.8426 12 36.3626 11.5933 35.9359 11.06C35.5093 10.5133 35.1626 9.84667 34.8959 9.06C34.6426 8.26 34.5159 7.34 34.5159 6.3ZM42.2959 6.82C42.2959 5.86 42.1893 5.01333 41.9759 4.28C41.7626 3.53333 41.4826 2.91333 41.1359 2.42C40.8026 1.91333 40.4159 1.53333 39.9759 1.28C39.5493 1.01333 39.1093 0.879999 38.6559 0.879999C38.2026 0.879999 37.7893 1.01333 37.4159 1.28C37.0559 1.53333 36.7493 1.87333 36.4959 2.3C36.2426 2.72667 36.0426 3.22 35.8959 3.78C35.7626 4.34 35.6959 4.92667 35.6959 5.54C35.6959 6.27333 35.7826 7.02 35.9559 7.78C36.1293 8.52667 36.3759 9.20667 36.6959 9.82C37.0159 10.42 37.3959 10.9133 37.8359 11.3C38.2893 11.6867 38.7826 11.88 39.3159 11.88C39.7026 11.88 40.0759 11.7733 40.4359 11.56C40.7959 11.3333 41.1093 11.0067 41.3759 10.58C41.6559 10.1533 41.8759 9.62667 42.0359 9C42.2093 8.37333 42.2959 7.64667 42.2959 6.82Z" fill="white"></path></svg> 