<?xml version="1.0" encoding="UTF-8"?> <svg xmlns="http://www.w3.org/2000/svg" width="243" height="27" viewBox="0 0 243 27" fill="none"><path d="M5.36999 0.540049C4.62999 0.540049 3.98499 0.675049 3.43499 0.945048C2.89499 1.20505 2.44499 1.55005 2.08499 1.98005C1.72499 2.40005 1.45499 2.87505 1.27499 3.40505C1.10499 3.93505 1.01999 4.46005 1.01999 4.98005C1.01999 5.57005 1.13499 6.15005 1.36499 6.72005C1.59499 7.28005 1.90999 7.78005 2.30999 8.22005C2.71999 8.65005 3.19499 9.00005 3.73499 9.27005C4.27499 9.53005 4.85999 9.66005 5.48999 9.66005C5.66999 9.66005 5.87999 9.64005 6.11999 9.60005C6.36999 9.56005 6.61499 9.48505 6.85499 9.37505C7.09499 9.25505 7.31499 9.09005 7.51499 8.88005C7.72499 8.67005 7.88499 8.39505 7.99499 8.05505H8.14499V9.72005C7.99499 9.72005 7.83499 9.74005 7.66499 9.78005C7.50499 9.82005 7.32499 9.86505 7.12499 9.91505C6.86499 9.98505 6.57499 10.05 6.25499 10.11C5.94499 10.17 5.61499 10.2 5.26499 10.2C4.39499 10.2 3.62999 10.05 2.96999 9.75005C2.30999 9.45005 1.75999 9.06005 1.31999 8.58005C0.879993 8.10005 0.549993 7.56005 0.329993 6.96005C0.109993 6.35005 -6.7018e-06 5.73505 -6.7018e-06 5.11505C-6.7018e-06 4.49505 0.109993 3.88005 0.329993 3.27005C0.549993 2.66005 0.884993 2.11505 1.33499 1.63505C1.78499 1.14505 2.34999 0.750048 3.02999 0.450048C3.70999 0.150048 4.50999 4.85778e-05 5.42999 4.85778e-05C5.75999 4.85778e-05 6.05499 0.0300485 6.31499 0.0900483C6.58499 0.150048 6.82499 0.210048 7.03499 0.270049C7.18499 0.320049 7.31999 0.360048 7.43999 0.390048C7.56999 0.410048 7.69499 0.420049 7.81499 0.420049V2.08505H7.66499C7.60499 1.77505 7.49499 1.52005 7.33499 1.32005C7.17499 1.11005 6.98499 0.950048 6.76499 0.840048C6.55499 0.730049 6.32499 0.655049 6.07499 0.615049C5.83499 0.565049 5.59999 0.540049 5.36999 0.540049ZM15.7022 9.07505C15.7022 9.15505 15.7122 9.24505 15.7322 9.34505C15.7522 9.43505 15.7822 9.52005 15.8222 9.60005C15.8622 9.68005 15.9072 9.75005 15.9572 9.81005C16.0172 9.87005 16.0822 9.90005 16.1522 9.90005V10.05H14.2622V9.90005C14.3322 9.90005 14.3922 9.87505 14.4422 9.82505C14.5022 9.76505 14.5522 9.69505 14.5922 9.61505C14.6322 9.52505 14.6622 9.43505 14.6822 9.34505C14.7022 9.24505 14.7122 9.15505 14.7122 9.07505V4.68005C14.7122 4.61005 14.7022 4.53005 14.6822 4.44005C14.6622 4.35005 14.6322 4.26505 14.5922 4.18505C14.5522 4.10505 14.5022 4.04005 14.4422 3.99005C14.3922 3.93005 14.3322 3.90005 14.2622 3.90005V3.75005H16.1522V3.90005C16.0722 3.90005 16.0022 3.93005 15.9422 3.99005C15.8922 4.04005 15.8472 4.10505 15.8072 4.18505C15.7772 4.26505 15.7522 4.35005 15.7322 4.44005C15.7122 4.53005 15.7022 4.61005 15.7022 4.68005V6.49505H19.1222V4.68005C19.1222 4.61005 19.1122 4.53005 19.0922 4.44005C19.0722 4.35005 19.0422 4.26505 19.0022 4.18505C18.9722 4.10505 18.9272 4.04005 18.8672 3.99005C18.8172 3.93005 18.7522 3.90005 18.6722 3.90005V3.75005H20.5622V3.90005C20.4822 3.90005 20.4122 3.93005 20.3522 3.99005C20.3022 4.04005 20.2572 4.10505 20.2172 4.18505C20.1772 4.26505 20.1472 4.35005 20.1272 4.44005C20.1172 4.53005 20.1122 4.61005 20.1122 4.68005V9.07505C20.1122 9.15505 20.1222 9.24505 20.1422 9.34505C20.1622 9.43505 20.1922 9.52005 20.2322 9.60005C20.2722 9.68005 20.3172 9.75005 20.3672 9.81005C20.4272 9.87005 20.4922 9.90005 20.5622 9.90005V10.05H18.6722V9.90005C18.7422 9.90005 18.8022 9.87505 18.8522 9.82505C18.9122 9.76505 18.9622 9.69505 19.0022 9.61505C19.0422 9.52505 19.0722 9.43505 19.0922 9.34505C19.1122 9.24505 19.1222 9.15505 19.1222 9.07505V6.99005H15.7022V9.07505ZM23.2855 7.02005C23.3255 7.37005 23.4105 7.70505 23.5405 8.02505C23.6705 8.33505 23.8405 8.61005 24.0505 8.85005C24.2705 9.09005 24.5355 9.28505 24.8455 9.43505C25.1555 9.57505 25.5155 9.64505 25.9255 9.64505C26.1455 9.64505 26.3755 9.61505 26.6155 9.55505C26.8655 9.48505 27.0955 9.39005 27.3055 9.27005C27.5155 9.15005 27.7005 9.00505 27.8605 8.83505C28.0305 8.65505 28.1455 8.45505 28.2055 8.23505H28.3405V9.36005C28.2805 9.36005 28.2105 9.38005 28.1305 9.42005C28.0605 9.46005 27.9755 9.51005 27.8755 9.57005C27.6755 9.69005 27.4055 9.82005 27.0655 9.96005C26.7255 10.09 26.2755 10.155 25.7155 10.155C25.2655 10.155 24.8355 10.09 24.4255 9.96005C24.0255 9.83005 23.6705 9.63005 23.3605 9.36005C23.0505 9.09005 22.8005 8.74505 22.6105 8.32505C22.4305 7.90505 22.3405 7.40505 22.3405 6.82505C22.3405 6.45505 22.4005 6.08005 22.5205 5.70005C22.6505 5.32005 22.8405 4.98005 23.0905 4.68005C23.3505 4.37005 23.6805 4.12005 24.0805 3.93005C24.4805 3.74005 24.9605 3.64505 25.5205 3.64505C26.0205 3.64505 26.4555 3.73005 26.8255 3.90005C27.2055 4.07005 27.5155 4.30505 27.7555 4.60505C28.0055 4.90505 28.1905 5.26005 28.3105 5.67005C28.4305 6.08005 28.4905 6.53005 28.4905 7.02005H23.2855ZM25.4605 4.14005C25.1105 4.14005 24.8055 4.21005 24.5455 4.35005C24.2955 4.49005 24.0805 4.67005 23.9005 4.89005C23.7205 5.11005 23.5805 5.36005 23.4805 5.64005C23.3805 5.92005 23.3155 6.20005 23.2855 6.48005H27.5605C27.5505 6.19005 27.4955 5.90505 27.3955 5.62505C27.3055 5.34505 27.1755 5.09505 27.0055 4.87505C26.8355 4.65505 26.6205 4.48005 26.3605 4.35005C26.1005 4.21005 25.8005 4.14005 25.4605 4.14005ZM35.2608 5.32505C35.2608 5.21505 35.2408 5.09505 35.2008 4.96505C35.1608 4.83505 35.1008 4.72005 35.0208 4.62005C34.9408 4.51005 34.8408 4.42005 34.7208 4.35005C34.6008 4.28005 34.4608 4.24505 34.3008 4.24505H32.9808V9.07505C32.9808 9.15505 32.9908 9.24005 33.0108 9.33005C33.0308 9.42005 33.0608 9.51005 33.1008 9.60005C33.1508 9.68005 33.2008 9.75005 33.2508 9.81005C33.3108 9.87005 33.3808 9.90005 33.4608 9.90005V10.05H31.5108V9.90005C31.5908 9.90005 31.6608 9.87005 31.7208 9.81005C31.7808 9.75005 31.8308 9.68005 31.8708 9.60005C31.9208 9.52005 31.9558 9.43505 31.9758 9.34505C31.9958 9.24505 32.0058 9.15505 32.0058 9.07505V4.24505H30.7158C30.5558 4.24505 30.4158 4.28005 30.2958 4.35005C30.1758 4.42005 30.0758 4.51005 29.9958 4.62005C29.9258 4.72005 29.8708 4.83505 29.8308 4.96505C29.7908 5.09505 29.7708 5.21505 29.7708 5.32505H29.6208V3.75005H35.3958V5.32505H35.2608ZM37.3398 7.02005C37.3798 7.37005 37.4648 7.70505 37.5948 8.02505C37.7248 8.33505 37.8948 8.61005 38.1048 8.85005C38.3248 9.09005 38.5898 9.28505 38.8998 9.43505C39.2098 9.57505 39.5698 9.64505 39.9798 9.64505C40.1998 9.64505 40.4298 9.61505 40.6698 9.55505C40.9198 9.48505 41.1498 9.39005 41.3598 9.27005C41.5698 9.15005 41.7548 9.00505 41.9148 8.83505C42.0848 8.65505 42.1998 8.45505 42.2598 8.23505H42.3948V9.36005C42.3348 9.36005 42.2648 9.38005 42.1848 9.42005C42.1148 9.46005 42.0298 9.51005 41.9298 9.57005C41.7298 9.69005 41.4598 9.82005 41.1198 9.96005C40.7798 10.09 40.3298 10.155 39.7698 10.155C39.3198 10.155 38.8898 10.09 38.4798 9.96005C38.0798 9.83005 37.7248 9.63005 37.4148 9.36005C37.1048 9.09005 36.8548 8.74505 36.6648 8.32505C36.4848 7.90505 36.3948 7.40505 36.3948 6.82505C36.3948 6.45505 36.4548 6.08005 36.5748 5.70005C36.7048 5.32005 36.8948 4.98005 37.1448 4.68005C37.4048 4.37005 37.7348 4.12005 38.1348 3.93005C38.5348 3.74005 39.0148 3.64505 39.5748 3.64505C40.0748 3.64505 40.5098 3.73005 40.8798 3.90005C41.2598 4.07005 41.5698 4.30505 41.8098 4.60505C42.0598 4.90505 42.2448 5.26005 42.3648 5.67005C42.4848 6.08005 42.5448 6.53005 42.5448 7.02005H37.3398ZM39.5148 4.14005C39.1648 4.14005 38.8598 4.21005 38.5998 4.35005C38.3498 4.49005 38.1348 4.67005 37.9548 4.89005C37.7748 5.11005 37.6348 5.36005 37.5348 5.64005C37.4348 5.92005 37.3698 6.20005 37.3398 6.48005H41.6148C41.6048 6.19005 41.5498 5.90505 41.4498 5.62505C41.3598 5.34505 41.2298 5.09505 41.0598 4.87505C40.8898 4.65505 40.6748 4.48005 40.4148 4.35005C40.1548 4.21005 39.8548 4.14005 39.5148 4.14005ZM46.6491 3.64505C47.1891 3.64505 47.6541 3.74005 48.0441 3.93005C48.4441 4.11005 48.7741 4.35005 49.0341 4.65005C49.3041 4.95005 49.5041 5.29505 49.6341 5.68505C49.7641 6.07505 49.8291 6.47505 49.8291 6.88505C49.8291 7.28505 49.7641 7.68005 49.6341 8.07005C49.5141 8.46005 49.3241 8.81005 49.0641 9.12005C48.8141 9.43005 48.4991 9.68005 48.1191 9.87005C47.7391 10.06 47.2891 10.155 46.7691 10.155C46.4591 10.155 46.1391 10.075 45.8091 9.91505C45.4891 9.74505 45.1991 9.53505 44.9391 9.28505V12.375C44.9391 12.455 44.9491 12.54 44.9691 12.63C44.9891 12.73 45.0191 12.82 45.0591 12.9C45.1091 12.98 45.1591 13.05 45.2091 13.11C45.2691 13.17 45.3391 13.2 45.4191 13.2V13.35H43.4691V13.2C43.5391 13.2 43.6041 13.17 43.6641 13.11C43.7241 13.05 43.7741 12.98 43.8141 12.9C43.8641 12.82 43.8991 12.73 43.9191 12.63C43.9391 12.54 43.9491 12.455 43.9491 12.375V4.63505C43.9491 4.54505 43.9441 4.46005 43.9341 4.38005C43.9341 4.29005 43.9191 4.21505 43.8891 4.15505C43.8591 4.08505 43.8091 4.03005 43.7391 3.99005C43.6791 3.94005 43.5891 3.91005 43.4691 3.90005V3.75005H44.9391V4.41005C45.1391 4.17005 45.3791 3.98505 45.6591 3.85505C45.9491 3.71505 46.2791 3.64505 46.6491 3.64505ZM46.7841 9.64505C47.1341 9.63505 47.4391 9.55505 47.6991 9.40505C47.9591 9.25505 48.1741 9.06005 48.3441 8.82005C48.5141 8.58005 48.6391 8.31505 48.7191 8.02505C48.7991 7.72505 48.8391 7.41505 48.8391 7.09505C48.8391 6.73505 48.7891 6.38005 48.6891 6.03005C48.5891 5.68005 48.4441 5.37005 48.2541 5.10005C48.0641 4.82005 47.8291 4.59505 47.5491 4.42505C47.2791 4.24505 46.9691 4.15505 46.6191 4.15505C46.4091 4.15505 46.1991 4.19505 45.9891 4.27505C45.7891 4.35505 45.6091 4.47005 45.4491 4.62005C45.2991 4.77005 45.1741 4.95005 45.0741 5.16005C44.9841 5.36005 44.9391 5.58505 44.9391 5.83505V7.80005C44.9391 8.07005 44.9941 8.32005 45.1041 8.55005C45.2141 8.77005 45.3541 8.96505 45.5241 9.13505C45.7041 9.29505 45.9041 9.42005 46.1241 9.51005C46.3441 9.60005 46.5641 9.64505 46.7841 9.64505ZM53.0938 9.07505C53.0938 9.15505 53.1038 9.24505 53.1238 9.34505C53.1438 9.43505 53.1688 9.52005 53.1988 9.60005C53.2388 9.68005 53.2838 9.75005 53.3338 9.81005C53.3938 9.87005 53.4638 9.90005 53.5438 9.90005V10.05H51.6388V9.90005C51.7188 9.90005 51.7888 9.87505 51.8488 9.82505C51.9088 9.76505 51.9538 9.69505 51.9838 9.61505C52.0238 9.52505 52.0538 9.43505 52.0738 9.34505C52.0938 9.24505 52.1038 9.15505 52.1038 9.07505V4.68005C52.1038 4.61005 52.0938 4.53005 52.0738 4.44005C52.0538 4.34005 52.0238 4.25505 51.9838 4.18505C51.9438 4.10505 51.8938 4.04005 51.8338 3.99005C51.7738 3.93005 51.7088 3.90005 51.6388 3.90005V3.75005H57.8638V3.90005C57.7038 3.90005 57.5838 3.99505 57.5038 4.18505C57.4238 4.36505 57.3838 4.53005 57.3838 4.68005V9.07505C57.3838 9.15505 57.3938 9.24505 57.4138 9.34505C57.4338 9.43505 57.4638 9.52005 57.5038 9.60005C57.5438 9.68005 57.5938 9.75005 57.6538 9.81005C57.7238 9.87005 57.7938 9.90005 57.8638 9.90005V10.05H55.9288V9.90005C56.0188 9.90005 56.0888 9.87505 56.1388 9.82505C56.1988 9.76505 56.2488 9.69505 56.2888 9.61505C56.3288 9.52505 56.3538 9.43505 56.3638 9.34505C56.3838 9.24505 56.3938 9.15505 56.3938 9.07505V4.27505H53.0938V9.07505ZM60.5599 7.02005C60.5999 7.37005 60.6849 7.70505 60.8149 8.02505C60.9449 8.33505 61.1149 8.61005 61.3249 8.85005C61.5449 9.09005 61.8099 9.28505 62.1199 9.43505C62.4299 9.57505 62.7899 9.64505 63.1999 9.64505C63.4199 9.64505 63.6499 9.61505 63.8899 9.55505C64.1399 9.48505 64.3699 9.39005 64.5799 9.27005C64.7899 9.15005 64.9749 9.00505 65.1349 8.83505C65.3049 8.65505 65.4199 8.45505 65.4799 8.23505H65.6149V9.36005C65.5549 9.36005 65.4849 9.38005 65.4049 9.42005C65.3349 9.46005 65.2499 9.51005 65.1499 9.57005C64.9499 9.69005 64.6799 9.82005 64.3399 9.96005C63.9999 10.09 63.5499 10.155 62.9899 10.155C62.5399 10.155 62.1099 10.09 61.6999 9.96005C61.2999 9.83005 60.9449 9.63005 60.6349 9.36005C60.3249 9.09005 60.0749 8.74505 59.8849 8.32505C59.7049 7.90505 59.6149 7.40505 59.6149 6.82505C59.6149 6.45505 59.6749 6.08005 59.7949 5.70005C59.9249 5.32005 60.1149 4.98005 60.3649 4.68005C60.6249 4.37005 60.9549 4.12005 61.3549 3.93005C61.7549 3.74005 62.2349 3.64505 62.7949 3.64505C63.2949 3.64505 63.7299 3.73005 64.0999 3.90005C64.4799 4.07005 64.7899 4.30505 65.0299 4.60505C65.2799 4.90505 65.4649 5.26005 65.5849 5.67005C65.7049 6.08005 65.7649 6.53005 65.7649 7.02005H60.5599ZM62.7349 4.14005C62.3849 4.14005 62.0799 4.21005 61.8199 4.35005C61.5699 4.49005 61.3549 4.67005 61.1749 4.89005C60.9949 5.11005 60.8549 5.36005 60.7549 5.64005C60.6549 5.92005 60.5899 6.20005 60.5599 6.48005H64.8349C64.8249 6.19005 64.7699 5.90505 64.6699 5.62505C64.5799 5.34505 64.4499 5.09505 64.2799 4.87505C64.1099 4.65505 63.8949 4.48005 63.6349 4.35005C63.3749 4.21005 63.0749 4.14005 62.7349 4.14005ZM68.9352 9.07505C68.9352 9.15505 68.9452 9.24505 68.9652 9.34505C68.9852 9.43505 69.0152 9.52005 69.0552 9.60005C69.0952 9.68005 69.1402 9.75005 69.1902 9.81005C69.2502 9.87005 69.3152 9.90005 69.3852 9.90005V10.05H67.4952V9.90005C67.5652 9.90005 67.6252 9.87505 67.6752 9.82505C67.7352 9.76505 67.7852 9.69505 67.8252 9.61505C67.8652 9.52505 67.8952 9.43505 67.9152 9.34505C67.9352 9.24505 67.9452 9.15505 67.9452 9.07505V4.68005C67.9452 4.61005 67.9352 4.53005 67.9152 4.44005C67.8952 4.35005 67.8652 4.26505 67.8252 4.18505C67.7852 4.10505 67.7352 4.04005 67.6752 3.99005C67.6252 3.93005 67.5652 3.90005 67.4952 3.90005V3.75005H69.3852V3.90005C69.3052 3.90005 69.2352 3.93005 69.1752 3.99005C69.1252 4.04005 69.0802 4.10505 69.0402 4.18505C69.0102 4.26505 68.9852 4.35005 68.9652 4.44005C68.9452 4.53005 68.9352 4.61005 68.9352 4.68005V6.49505H72.3552V4.68005C72.3552 4.61005 72.3452 4.53005 72.3252 4.44005C72.3052 4.35005 72.2752 4.26505 72.2352 4.18505C72.2052 4.10505 72.1602 4.04005 72.1002 3.99005C72.0502 3.93005 71.9852 3.90005 71.9052 3.90005V3.75005H73.7952V3.90005C73.7152 3.90005 73.6452 3.93005 73.5852 3.99005C73.5352 4.04005 73.4902 4.10505 73.4502 4.18505C73.4102 4.26505 73.3802 4.35005 73.3602 4.44005C73.3502 4.53005 73.3452 4.61005 73.3452 4.68005V9.07505C73.3452 9.15505 73.3552 9.24505 73.3752 9.34505C73.3952 9.43505 73.4252 9.52005 73.4652 9.60005C73.5052 9.68005 73.5502 9.75005 73.6002 9.81005C73.6602 9.87005 73.7252 9.90005 73.7952 9.90005V10.05H71.9052V9.90005C71.9752 9.90005 72.0352 9.87505 72.0852 9.82505C72.1452 9.76505 72.1952 9.69505 72.2352 9.61505C72.2752 9.52505 72.3052 9.43505 72.3252 9.34505C72.3452 9.24505 72.3552 9.15505 72.3552 9.07505V6.99005H68.9352V9.07505ZM81.7085 9.07505C81.7085 9.15505 81.7185 9.24505 81.7385 9.34505C81.7685 9.43505 81.8035 9.52005 81.8435 9.60005C81.8835 9.68005 81.9335 9.75005 81.9935 9.81005C82.0635 9.87005 82.1285 9.90005 82.1885 9.90005V10.05H80.2685V9.90005C80.3385 9.90005 80.4035 9.87505 80.4635 9.82505C80.5235 9.76505 80.5735 9.69505 80.6135 9.61505C80.6535 9.52505 80.6835 9.43505 80.7035 9.34505C80.7235 9.24505 80.7335 9.15505 80.7335 9.07505V5.47505L77.1635 8.97005V9.07505C77.1635 9.15505 77.1735 9.24505 77.1935 9.34505C77.2135 9.43505 77.2435 9.52005 77.2835 9.60005C77.3235 9.68005 77.3685 9.75005 77.4185 9.81005C77.4785 9.87005 77.5435 9.90005 77.6135 9.90005V10.05H75.7085V9.90005C75.7785 9.90005 75.8435 9.87505 75.9035 9.82505C75.9635 9.76505 76.0135 9.69505 76.0535 9.61505C76.0935 9.52505 76.1235 9.43505 76.1435 9.34505C76.1635 9.24505 76.1735 9.15505 76.1735 9.07505V4.68005C76.1735 4.61005 76.1635 4.53005 76.1435 4.44005C76.1235 4.35005 76.0935 4.26505 76.0535 4.18505C76.0135 4.10505 75.9635 4.04005 75.9035 3.99005C75.8435 3.93005 75.7785 3.90005 75.7085 3.90005V3.75005H77.6135V3.90005C77.5335 3.90005 77.4635 3.93005 77.4035 3.99005C77.3535 4.04005 77.3085 4.10505 77.2685 4.18505C77.2385 4.26505 77.2135 4.35005 77.1935 4.44005C77.1735 4.53005 77.1635 4.61005 77.1635 4.68005V8.26505L80.7335 4.77005V4.68005C80.7335 4.61005 80.7235 4.53005 80.7035 4.44005C80.6835 4.35005 80.6535 4.26505 80.6135 4.18505C80.5735 4.10505 80.5235 4.04005 80.4635 3.99005C80.4035 3.93005 80.3385 3.90005 80.2685 3.90005V3.75005H82.1885V3.90005C82.1085 3.90005 82.0335 3.93005 81.9635 3.99005C81.9035 4.04005 81.8535 4.10505 81.8135 4.18505C81.7835 4.26505 81.7585 4.35005 81.7385 4.44005C81.7185 4.53005 81.7085 4.61005 81.7085 4.68005V9.07505ZM84.908 7.02005C84.948 7.37005 85.033 7.70505 85.163 8.02505C85.293 8.33505 85.463 8.61005 85.673 8.85005C85.893 9.09005 86.158 9.28505 86.468 9.43505C86.778 9.57505 87.138 9.64505 87.548 9.64505C87.768 9.64505 87.998 9.61505 88.238 9.55505C88.488 9.48505 88.718 9.39005 88.928 9.27005C89.138 9.15005 89.323 9.00505 89.483 8.83505C89.653 8.65505 89.768 8.45505 89.828 8.23505H89.963V9.36005C89.903 9.36005 89.833 9.38005 89.753 9.42005C89.683 9.46005 89.598 9.51005 89.498 9.57005C89.298 9.69005 89.028 9.82005 88.688 9.96005C88.348 10.09 87.898 10.155 87.338 10.155C86.888 10.155 86.458 10.09 86.048 9.96005C85.648 9.83005 85.293 9.63005 84.983 9.36005C84.673 9.09005 84.423 8.74505 84.233 8.32505C84.053 7.90505 83.963 7.40505 83.963 6.82505C83.963 6.45505 84.023 6.08005 84.143 5.70005C84.273 5.32005 84.463 4.98005 84.713 4.68005C84.973 4.37005 85.303 4.12005 85.703 3.93005C86.103 3.74005 86.583 3.64505 87.143 3.64505C87.643 3.64505 88.078 3.73005 88.448 3.90005C88.828 4.07005 89.138 4.30505 89.378 4.60505C89.628 4.90505 89.813 5.26005 89.933 5.67005C90.053 6.08005 90.113 6.53005 90.113 7.02005H84.908ZM87.083 4.14005C86.733 4.14005 86.428 4.21005 86.168 4.35005C85.918 4.49005 85.703 4.67005 85.523 4.89005C85.343 5.11005 85.203 5.36005 85.103 5.64005C85.003 5.92005 84.938 6.20005 84.908 6.48005H89.183C89.173 6.19005 89.118 5.90505 89.018 5.62505C88.928 5.34505 88.798 5.09505 88.628 4.87505C88.458 4.65505 88.243 4.48005 87.983 4.35005C87.723 4.21005 87.423 4.14005 87.083 4.14005ZM98.6832 9.07505C98.6832 9.15505 98.6932 9.24505 98.7132 9.34505C98.7332 9.43505 98.7632 9.52005 98.8032 9.60005C98.8532 9.68005 98.9082 9.75005 98.9682 9.81005C99.0282 9.87005 99.0982 9.90005 99.1782 9.90005V10.05H97.2282V9.90005C97.3082 9.90005 97.3782 9.87505 97.4382 9.82505C97.4982 9.76505 97.5482 9.69505 97.5882 9.61505C97.6282 9.52505 97.6582 9.43505 97.6782 9.34505C97.6982 9.24505 97.7082 9.15505 97.7082 9.07505V5.02505L95.2032 10.185L92.8032 5.32505V9.07505C92.8032 9.15505 92.8132 9.24505 92.8332 9.34505C92.8532 9.43505 92.8832 9.52005 92.9232 9.60005C92.9632 9.68005 93.0132 9.75005 93.0732 9.81005C93.1332 9.87005 93.2032 9.90005 93.2832 9.90005V10.05H91.8282V9.90005C91.9082 9.90005 91.9782 9.87005 92.0382 9.81005C92.0982 9.75005 92.1432 9.68005 92.1732 9.60005C92.2132 9.52005 92.2432 9.43505 92.2632 9.34505C92.2832 9.24505 92.2932 9.15505 92.2932 9.07505V4.68005C92.2932 4.50005 92.2682 4.32505 92.2182 4.15505C92.1782 3.98505 92.0482 3.90005 91.8282 3.90005V3.75005H93.1632L95.4582 8.44505L97.7532 3.75005H99.1782V3.90005C99.0282 3.90005 98.9082 3.99505 98.8182 4.18505C98.7282 4.36505 98.6832 4.53005 98.6832 4.68005V9.07505ZM112.643 8.86505C112.703 8.98505 112.778 9.10505 112.868 9.22505C112.968 9.34505 113.073 9.45505 113.183 9.55505C113.293 9.64505 113.408 9.72505 113.528 9.79505C113.658 9.85505 113.778 9.89005 113.888 9.90005V10.05H113.363C112.943 10.05 112.613 9.96505 112.373 9.79505C112.143 9.61505 111.958 9.39005 111.818 9.12005L111.098 7.71005C111.008 7.48005 110.848 7.28005 110.618 7.11005C110.388 6.94005 110.148 6.84505 109.898 6.82505V9.06005C109.898 9.13005 109.908 9.21505 109.928 9.31505C109.948 9.40505 109.978 9.49505 110.018 9.58505C110.068 9.66505 110.123 9.73505 110.183 9.79505C110.243 9.85505 110.313 9.89005 110.393 9.90005V10.05H108.473V9.90005C108.553 9.89005 108.623 9.85505 108.683 9.79505C108.743 9.73505 108.793 9.66505 108.833 9.58505C108.883 9.49505 108.918 9.40505 108.938 9.31505C108.958 9.22505 108.968 9.14005 108.968 9.06005V6.82505C108.708 6.84505 108.468 6.94005 108.248 7.11005C108.038 7.28005 107.878 7.48005 107.768 7.71005L107.063 9.12005C106.933 9.38005 106.743 9.60005 106.493 9.78005C106.253 9.96005 105.923 10.05 105.503 10.05H104.978V9.90005C105.088 9.89005 105.203 9.85505 105.323 9.79505C105.443 9.72505 105.558 9.64505 105.668 9.55505C105.788 9.45505 105.893 9.34505 105.983 9.22505C106.083 9.10505 106.163 8.98505 106.223 8.86505L106.928 7.41005C107.048 7.18005 107.248 6.98005 107.528 6.81005C107.818 6.63005 108.148 6.53005 108.518 6.51005C108.138 6.15005 107.733 5.76505 107.303 5.35505C106.873 4.94505 106.463 4.56005 106.073 4.20005C106.043 4.18005 105.963 4.13005 105.833 4.05005C105.713 3.96005 105.603 3.91005 105.503 3.90005V3.75005H106.658V3.91505C106.628 3.93505 106.613 3.95005 106.613 3.96005C106.613 4.01005 106.628 4.05505 106.658 4.09505L108.968 6.24005V4.69505C108.968 4.55505 108.923 4.39505 108.833 4.21505C108.753 4.02505 108.633 3.92005 108.473 3.90005V3.75005H110.393V3.90005C110.313 3.91005 110.243 3.94505 110.183 4.00505C110.123 4.05505 110.073 4.12005 110.033 4.20005C109.993 4.28005 109.958 4.36505 109.928 4.45505C109.908 4.54505 109.898 4.62505 109.898 4.69505V6.24005L112.223 4.06505C112.243 4.04505 112.253 4.01005 112.253 3.96005C112.253 3.95005 112.238 3.93505 112.208 3.91505V3.75005H113.363V3.90005C113.313 3.90005 113.253 3.91505 113.183 3.94505C113.123 3.97505 113.063 4.01005 113.003 4.05005C112.933 4.09005 112.863 4.14005 112.793 4.20005L110.348 6.51005C110.748 6.52005 111.083 6.61005 111.353 6.78005C111.623 6.94005 111.818 7.15005 111.938 7.41005L112.643 8.86505ZM121.972 9.55505V11.4H121.822C121.802 11.28 121.767 11.14 121.717 10.98C121.667 10.83 121.597 10.685 121.507 10.545C121.417 10.405 121.307 10.285 121.177 10.185C121.057 10.095 120.917 10.05 120.757 10.05H115.987C115.827 10.05 115.682 10.095 115.552 10.185C115.422 10.285 115.307 10.405 115.207 10.545C115.117 10.685 115.042 10.83 114.982 10.98C114.932 11.14 114.902 11.28 114.892 11.4H114.742V9.55505H115.312C115.372 9.55505 115.427 9.53005 115.477 9.48005C115.537 9.43005 115.592 9.37005 115.642 9.30005C115.702 9.23005 115.757 9.15505 115.807 9.07505C115.857 8.98505 115.902 8.90505 115.942 8.83505C116.092 8.49505 116.272 8.09005 116.482 7.62005C116.702 7.15005 116.922 6.66505 117.142 6.16505C117.372 5.66505 117.592 5.18005 117.802 4.71005C118.012 4.23005 118.192 3.82005 118.342 3.48005L120.877 9.01505C120.957 9.18505 121.032 9.32005 121.102 9.42005C121.172 9.51005 121.267 9.55505 121.387 9.55505H121.972ZM116.137 9.55505H120.037L118.087 5.28005L116.137 9.55505ZM124.131 7.02005C124.171 7.37005 124.256 7.70505 124.386 8.02505C124.516 8.33505 124.686 8.61005 124.896 8.85005C125.116 9.09005 125.381 9.28505 125.691 9.43505C126.001 9.57505 126.361 9.64505 126.771 9.64505C126.991 9.64505 127.221 9.61505 127.461 9.55505C127.711 9.48505 127.941 9.39005 128.151 9.27005C128.361 9.15005 128.546 9.00505 128.706 8.83505C128.876 8.65505 128.991 8.45505 129.051 8.23505H129.186V9.36005C129.126 9.36005 129.056 9.38005 128.976 9.42005C128.906 9.46005 128.821 9.51005 128.721 9.57005C128.521 9.69005 128.251 9.82005 127.911 9.96005C127.571 10.09 127.121 10.155 126.561 10.155C126.111 10.155 125.681 10.09 125.271 9.96005C124.871 9.83005 124.516 9.63005 124.206 9.36005C123.896 9.09005 123.646 8.74505 123.456 8.32505C123.276 7.90505 123.186 7.40505 123.186 6.82505C123.186 6.45505 123.246 6.08005 123.366 5.70005C123.496 5.32005 123.686 4.98005 123.936 4.68005C124.196 4.37005 124.526 4.12005 124.926 3.93005C125.326 3.74005 125.806 3.64505 126.366 3.64505C126.866 3.64505 127.301 3.73005 127.671 3.90005C128.051 4.07005 128.361 4.30505 128.601 4.60505C128.851 4.90505 129.036 5.26005 129.156 5.67005C129.276 6.08005 129.336 6.53005 129.336 7.02005H124.131ZM126.306 4.14005C125.956 4.14005 125.651 4.21005 125.391 4.35005C125.141 4.49005 124.926 4.67005 124.746 4.89005C124.566 5.11005 124.426 5.36005 124.326 5.64005C124.226 5.92005 124.161 6.20005 124.131 6.48005H128.406C128.396 6.19005 128.341 5.90505 128.241 5.62505C128.151 5.34505 128.021 5.09505 127.851 4.87505C127.681 4.65505 127.466 4.48005 127.206 4.35005C126.946 4.21005 126.646 4.14005 126.306 4.14005ZM137.906 9.07505C137.906 9.15505 137.916 9.24505 137.936 9.34505C137.956 9.43505 137.986 9.52005 138.026 9.60005C138.076 9.68005 138.131 9.75005 138.191 9.81005C138.251 9.87005 138.321 9.90005 138.401 9.90005V10.05H136.451V9.90005C136.531 9.90005 136.601 9.87505 136.661 9.82505C136.721 9.76505 136.771 9.69505 136.811 9.61505C136.851 9.52505 136.881 9.43505 136.901 9.34505C136.921 9.24505 136.931 9.15505 136.931 9.07505V5.02505L134.426 10.185L132.026 5.32505V9.07505C132.026 9.15505 132.036 9.24505 132.056 9.34505C132.076 9.43505 132.106 9.52005 132.146 9.60005C132.186 9.68005 132.236 9.75005 132.296 9.81005C132.356 9.87005 132.426 9.90005 132.506 9.90005V10.05H131.051V9.90005C131.131 9.90005 131.201 9.87005 131.261 9.81005C131.321 9.75005 131.366 9.68005 131.396 9.60005C131.436 9.52005 131.466 9.43505 131.486 9.34505C131.506 9.24505 131.516 9.15505 131.516 9.07505V4.68005C131.516 4.50005 131.491 4.32505 131.441 4.15505C131.401 3.98505 131.271 3.90005 131.051 3.90005V3.75005H132.386L134.681 8.44505L136.976 3.75005H138.401V3.90005C138.251 3.90005 138.131 3.99505 138.041 4.18505C137.951 4.36505 137.906 4.53005 137.906 4.68005V9.07505ZM149.75 5.25005C149.75 5.42005 149.715 5.58005 149.645 5.73005C149.575 5.88005 149.485 6.02005 149.375 6.15005C149.275 6.27005 149.155 6.38005 149.015 6.48005C148.875 6.57005 148.74 6.64005 148.61 6.69005C148.78 6.72005 148.955 6.77505 149.135 6.85505C149.325 6.93505 149.495 7.04005 149.645 7.17005C149.805 7.30005 149.935 7.46505 150.035 7.66505C150.135 7.85505 150.185 8.08505 150.185 8.35505C150.185 8.49505 150.15 8.66505 150.08 8.86505C150.02 9.05505 149.905 9.24005 149.735 9.42005C149.575 9.59005 149.35 9.74005 149.06 9.87005C148.78 9.99005 148.415 10.05 147.965 10.05H144.665V9.90005C144.745 9.90005 144.815 9.87005 144.875 9.81005C144.935 9.75005 144.985 9.68005 145.025 9.60005C145.075 9.52005 145.11 9.43505 145.13 9.34505C145.15 9.24505 145.16 9.15505 145.16 9.07505V4.69505C145.16 4.53505 145.115 4.36505 145.025 4.18505C144.945 3.99505 144.825 3.90005 144.665 3.90005V3.75005H147.725C148.085 3.75005 148.39 3.80005 148.64 3.90005C148.9 3.99005 149.11 4.11005 149.27 4.26005C149.44 4.40005 149.56 4.56005 149.63 4.74005C149.71 4.91005 149.75 5.08005 149.75 5.25005ZM146.135 6.49505H147.29C147.58 6.49505 147.82 6.46505 148.01 6.40505C148.21 6.33505 148.37 6.24505 148.49 6.13505C148.61 6.02505 148.695 5.90005 148.745 5.76005C148.805 5.62005 148.835 5.47505 148.835 5.32505C148.835 5.20505 148.8 5.08005 148.73 4.95005C148.66 4.82005 148.555 4.70505 148.415 4.60505C148.285 4.49505 148.125 4.40505 147.935 4.33505C147.745 4.26505 147.53 4.23005 147.29 4.23005H146.135V6.49505ZM147.605 9.57005C147.725 9.57005 147.875 9.56005 148.055 9.54005C148.245 9.51005 148.425 9.45505 148.595 9.37505C148.775 9.28505 148.925 9.16005 149.045 9.00005C149.175 8.83005 149.24 8.61005 149.24 8.34005C149.24 8.05005 149.155 7.81505 148.985 7.63505C148.815 7.45505 148.615 7.32005 148.385 7.23005C148.165 7.13005 147.935 7.06505 147.695 7.03505C147.455 7.00505 147.27 6.99005 147.14 6.99005H146.135V9.57005H147.605ZM157.477 9.51005C157.397 9.51005 157.322 9.53005 157.252 9.57005C157.182 9.60005 157.102 9.64005 157.012 9.69005C156.842 9.79005 156.617 9.89505 156.337 10.005C156.057 10.105 155.707 10.155 155.287 10.155C154.777 10.155 154.307 10.075 153.877 9.91505C153.457 9.74505 153.092 9.51505 152.782 9.22505C152.472 8.92505 152.232 8.58005 152.062 8.19005C151.892 7.79005 151.807 7.36005 151.807 6.90005C151.807 6.47005 151.882 6.06005 152.032 5.67005C152.192 5.28005 152.417 4.93505 152.707 4.63505C152.997 4.33505 153.352 4.09505 153.772 3.91505C154.202 3.73505 154.687 3.64505 155.227 3.64505C155.597 3.64505 155.897 3.69005 156.127 3.78005C156.357 3.86005 156.552 3.94005 156.712 4.02005C156.802 4.07005 156.887 4.11005 156.967 4.14005C157.057 4.17005 157.147 4.18505 157.237 4.18505V5.32505H157.087C157.037 5.13505 156.947 4.97005 156.817 4.83005C156.687 4.68005 156.537 4.55505 156.367 4.45505C156.197 4.35505 156.012 4.28005 155.812 4.23005C155.612 4.18005 155.417 4.15505 155.227 4.15505C154.817 4.15505 154.457 4.23005 154.147 4.38005C153.837 4.52005 153.582 4.71005 153.382 4.95005C153.182 5.18005 153.032 5.44505 152.932 5.74505C152.832 6.04505 152.782 6.35505 152.782 6.67505C152.782 7.04505 152.837 7.41005 152.947 7.77005C153.067 8.12005 153.232 8.43505 153.442 8.71505C153.662 8.99505 153.927 9.22005 154.237 9.39005C154.557 9.56005 154.917 9.64505 155.317 9.64505C155.597 9.64505 155.857 9.60505 156.097 9.52505C156.337 9.44505 156.542 9.34005 156.712 9.21005C156.892 9.08005 157.032 8.94005 157.132 8.79005C157.242 8.63005 157.307 8.48005 157.327 8.34005H157.477V9.51005ZM163.995 5.32505C163.995 5.21505 163.975 5.09505 163.935 4.96505C163.895 4.83505 163.835 4.72005 163.755 4.62005C163.675 4.51005 163.575 4.42005 163.455 4.35005C163.335 4.28005 163.195 4.24505 163.035 4.24505H161.715V9.07505C161.715 9.15505 161.725 9.24005 161.745 9.33005C161.765 9.42005 161.795 9.51005 161.835 9.60005C161.885 9.68005 161.935 9.75005 161.985 9.81005C162.045 9.87005 162.115 9.90005 162.195 9.90005V10.05H160.245V9.90005C160.325 9.90005 160.395 9.87005 160.455 9.81005C160.515 9.75005 160.565 9.68005 160.605 9.60005C160.655 9.52005 160.69 9.43505 160.71 9.34505C160.73 9.24505 160.74 9.15505 160.74 9.07505V4.24505H159.45C159.29 4.24505 159.15 4.28005 159.03 4.35005C158.91 4.42005 158.81 4.51005 158.73 4.62005C158.66 4.72005 158.605 4.83505 158.565 4.96505C158.525 5.09505 158.505 5.21505 158.505 5.32505H158.355V3.75005H164.13V5.32505H163.995ZM168.634 3.64505C169.174 3.64505 169.639 3.74005 170.029 3.93005C170.429 4.11005 170.759 4.35005 171.019 4.65005C171.289 4.95005 171.489 5.29505 171.619 5.68505C171.749 6.07505 171.814 6.47505 171.814 6.88505C171.814 7.28505 171.749 7.68005 171.619 8.07005C171.499 8.46005 171.309 8.81005 171.049 9.12005C170.799 9.43005 170.484 9.68005 170.104 9.87005C169.724 10.06 169.274 10.155 168.754 10.155C168.444 10.155 168.124 10.075 167.794 9.91505C167.474 9.74505 167.184 9.53505 166.924 9.28505V12.375C166.924 12.455 166.934 12.54 166.954 12.63C166.974 12.73 167.004 12.82 167.044 12.9C167.094 12.98 167.144 13.05 167.194 13.11C167.254 13.17 167.324 13.2 167.404 13.2V13.35H165.454V13.2C165.524 13.2 165.589 13.17 165.649 13.11C165.709 13.05 165.759 12.98 165.799 12.9C165.849 12.82 165.884 12.73 165.904 12.63C165.924 12.54 165.934 12.455 165.934 12.375V4.63505C165.934 4.54505 165.929 4.46005 165.919 4.38005C165.919 4.29005 165.904 4.21505 165.874 4.15505C165.844 4.08505 165.794 4.03005 165.724 3.99005C165.664 3.94005 165.574 3.91005 165.454 3.90005V3.75005H166.924V4.41005C167.124 4.17005 167.364 3.98505 167.644 3.85505C167.934 3.71505 168.264 3.64505 168.634 3.64505ZM168.769 9.64505C169.119 9.63505 169.424 9.55505 169.684 9.40505C169.944 9.25505 170.159 9.06005 170.329 8.82005C170.499 8.58005 170.624 8.31505 170.704 8.02505C170.784 7.72505 170.824 7.41505 170.824 7.09505C170.824 6.73505 170.774 6.38005 170.674 6.03005C170.574 5.68005 170.429 5.37005 170.239 5.10005C170.049 4.82005 169.814 4.59505 169.534 4.42505C169.264 4.24505 168.954 4.15505 168.604 4.15505C168.394 4.15505 168.184 4.19505 167.974 4.27505C167.774 4.35505 167.594 4.47005 167.434 4.62005C167.284 4.77005 167.159 4.95005 167.059 5.16005C166.969 5.36005 166.924 5.58505 166.924 5.83505V7.80005C166.924 8.07005 166.979 8.32005 167.089 8.55005C167.199 8.77005 167.339 8.96505 167.509 9.13505C167.689 9.29505 167.889 9.42005 168.109 9.51005C168.329 9.60005 168.549 9.64505 168.769 9.64505ZM174.434 7.02005C174.474 7.37005 174.559 7.70505 174.689 8.02505C174.819 8.33505 174.989 8.61005 175.199 8.85005C175.419 9.09005 175.684 9.28505 175.994 9.43505C176.304 9.57505 176.664 9.64505 177.074 9.64505C177.294 9.64505 177.524 9.61505 177.764 9.55505C178.014 9.48505 178.244 9.39005 178.454 9.27005C178.664 9.15005 178.849 9.00505 179.009 8.83505C179.179 8.65505 179.294 8.45505 179.354 8.23505H179.489V9.36005C179.429 9.36005 179.359 9.38005 179.279 9.42005C179.209 9.46005 179.124 9.51005 179.024 9.57005C178.824 9.69005 178.554 9.82005 178.214 9.96005C177.874 10.09 177.424 10.155 176.864 10.155C176.414 10.155 175.984 10.09 175.574 9.96005C175.174 9.83005 174.819 9.63005 174.509 9.36005C174.199 9.09005 173.949 8.74505 173.759 8.32505C173.579 7.90505 173.489 7.40505 173.489 6.82505C173.489 6.45505 173.549 6.08005 173.669 5.70005C173.799 5.32005 173.989 4.98005 174.239 4.68005C174.499 4.37005 174.829 4.12005 175.229 3.93005C175.629 3.74005 176.109 3.64505 176.669 3.64505C177.169 3.64505 177.604 3.73005 177.974 3.90005C178.354 4.07005 178.664 4.30505 178.904 4.60505C179.154 4.90505 179.339 5.26005 179.459 5.67005C179.579 6.08005 179.639 6.53005 179.639 7.02005H174.434ZM176.609 4.14005C176.259 4.14005 175.954 4.21005 175.694 4.35005C175.444 4.49005 175.229 4.67005 175.049 4.89005C174.869 5.11005 174.729 5.36005 174.629 5.64005C174.529 5.92005 174.464 6.20005 174.434 6.48005H178.709C178.699 6.19005 178.644 5.90505 178.544 5.62505C178.454 5.34505 178.324 5.09505 178.154 4.87505C177.984 4.65505 177.769 4.48005 177.509 4.35005C177.249 4.21005 176.949 4.14005 176.609 4.14005ZM185.749 9.10505C185.749 9.18505 185.759 9.27005 185.779 9.36005C185.809 9.45005 185.844 9.53505 185.884 9.61505C185.924 9.69505 185.969 9.76505 186.019 9.82505C186.069 9.87505 186.134 9.90005 186.214 9.90005V10.05H184.309V9.90005C184.379 9.90005 184.439 9.87505 184.489 9.82505C184.549 9.76505 184.599 9.69505 184.639 9.61505C184.679 9.53505 184.709 9.45005 184.729 9.36005C184.749 9.27005 184.759 9.18505 184.759 9.10505V7.03505C184.529 7.27505 184.284 7.46005 184.024 7.59005C183.774 7.71005 183.459 7.77005 183.079 7.77005C182.719 7.77005 182.399 7.70005 182.119 7.56005C181.839 7.42005 181.604 7.23505 181.414 7.00505C181.234 6.76505 181.094 6.50005 180.994 6.21005C180.904 5.91005 180.859 5.60005 180.859 5.28005V4.68005C180.859 4.61005 180.849 4.53005 180.829 4.44005C180.819 4.35005 180.799 4.26505 180.769 4.18505C180.739 4.10505 180.699 4.04005 180.649 3.99005C180.609 3.93005 180.564 3.90005 180.514 3.90005V3.75005H182.269V3.90005C182.209 3.90005 182.149 3.93005 182.089 3.99005C182.039 4.04005 181.994 4.10505 181.954 4.18505C181.924 4.26505 181.899 4.35005 181.879 4.44005C181.859 4.53005 181.849 4.61005 181.849 4.68005V5.28005C181.849 5.62005 181.899 5.91005 181.999 6.15005C182.099 6.38005 182.224 6.57005 182.374 6.72005C182.524 6.86005 182.689 6.96505 182.869 7.03505C183.049 7.09505 183.224 7.12505 183.394 7.12505C183.654 7.12505 183.889 7.06505 184.099 6.94505C184.319 6.81505 184.539 6.62005 184.759 6.36005V4.68005C184.759 4.61005 184.749 4.53005 184.729 4.44005C184.709 4.35005 184.679 4.26505 184.639 4.18505C184.599 4.10505 184.549 4.04005 184.489 3.99005C184.439 3.93005 184.379 3.90005 184.309 3.90005V3.75005H186.214V3.90005C186.134 3.90005 186.069 3.93005 186.019 3.99005C185.969 4.04005 185.924 4.10505 185.884 4.18505C185.844 4.26505 185.809 4.35005 185.779 4.44005C185.759 4.53005 185.749 4.61005 185.749 4.68005V9.10505ZM194.147 9.07505C194.147 9.15505 194.157 9.24505 194.177 9.34505C194.207 9.43505 194.242 9.52005 194.282 9.60005C194.322 9.68005 194.372 9.75005 194.432 9.81005C194.502 9.87005 194.567 9.90005 194.627 9.90005V10.05H192.707V9.90005C192.777 9.90005 192.842 9.87505 192.902 9.82505C192.962 9.76505 193.012 9.69505 193.052 9.61505C193.092 9.52505 193.122 9.43505 193.142 9.34505C193.162 9.24505 193.172 9.15505 193.172 9.07505V5.47505L189.602 8.97005V9.07505C189.602 9.15505 189.612 9.24505 189.632 9.34505C189.652 9.43505 189.682 9.52005 189.722 9.60005C189.762 9.68005 189.807 9.75005 189.857 9.81005C189.917 9.87005 189.982 9.90005 190.052 9.90005V10.05H188.147V9.90005C188.217 9.90005 188.282 9.87505 188.342 9.82505C188.402 9.76505 188.452 9.69505 188.492 9.61505C188.532 9.52505 188.562 9.43505 188.582 9.34505C188.602 9.24505 188.612 9.15505 188.612 9.07505V4.68005C188.612 4.61005 188.602 4.53005 188.582 4.44005C188.562 4.35005 188.532 4.26505 188.492 4.18505C188.452 4.10505 188.402 4.04005 188.342 3.99005C188.282 3.93005 188.217 3.90005 188.147 3.90005V3.75005H190.052V3.90005C189.972 3.90005 189.902 3.93005 189.842 3.99005C189.792 4.04005 189.747 4.10505 189.707 4.18505C189.677 4.26505 189.652 4.35005 189.632 4.44005C189.612 4.53005 189.602 4.61005 189.602 4.68005V8.26505L193.172 4.77005V4.68005C193.172 4.61005 193.162 4.53005 193.142 4.44005C193.122 4.35005 193.092 4.26505 193.052 4.18505C193.012 4.10505 192.962 4.04005 192.902 3.99005C192.842 3.93005 192.777 3.90005 192.707 3.90005V3.75005H194.627V3.90005C194.547 3.90005 194.472 3.93005 194.402 3.99005C194.342 4.04005 194.292 4.10505 194.252 4.18505C194.222 4.26505 194.197 4.35005 194.177 4.44005C194.157 4.53005 194.147 4.61005 194.147 4.68005V9.07505ZM206.403 9.51005C206.323 9.51005 206.248 9.53005 206.178 9.57005C206.108 9.60005 206.028 9.64005 205.938 9.69005C205.768 9.79005 205.543 9.89505 205.263 10.005C204.983 10.105 204.633 10.155 204.213 10.155C203.703 10.155 203.233 10.075 202.803 9.91505C202.383 9.74505 202.018 9.51505 201.708 9.22505C201.398 8.92505 201.158 8.58005 200.988 8.19005C200.818 7.79005 200.733 7.36005 200.733 6.90005C200.733 6.47005 200.808 6.06005 200.958 5.67005C201.118 5.28005 201.343 4.93505 201.633 4.63505C201.923 4.33505 202.278 4.09505 202.698 3.91505C203.128 3.73505 203.613 3.64505 204.153 3.64505C204.523 3.64505 204.823 3.69005 205.053 3.78005C205.283 3.86005 205.478 3.94005 205.638 4.02005C205.728 4.07005 205.813 4.11005 205.893 4.14005C205.983 4.17005 206.073 4.18505 206.163 4.18505V5.32505H206.013C205.963 5.13505 205.873 4.97005 205.743 4.83005C205.613 4.68005 205.463 4.55505 205.293 4.45505C205.123 4.35505 204.938 4.28005 204.738 4.23005C204.538 4.18005 204.343 4.15505 204.153 4.15505C203.743 4.15505 203.383 4.23005 203.073 4.38005C202.763 4.52005 202.508 4.71005 202.308 4.95005C202.108 5.18005 201.958 5.44505 201.858 5.74505C201.758 6.04505 201.708 6.35505 201.708 6.67505C201.708 7.04505 201.763 7.41005 201.873 7.77005C201.993 8.12005 202.158 8.43505 202.368 8.71505C202.588 8.99505 202.853 9.22005 203.163 9.39005C203.483 9.56005 203.843 9.64505 204.243 9.64505C204.523 9.64505 204.783 9.60505 205.023 9.52505C205.263 9.44505 205.468 9.34005 205.638 9.21005C205.818 9.08005 205.958 8.94005 206.058 8.79005C206.168 8.63005 206.233 8.48005 206.253 8.34005H206.403V9.51005ZM217.283 5.25005C217.283 5.42005 217.248 5.58005 217.178 5.73005C217.108 5.88005 217.018 6.02005 216.908 6.15005C216.808 6.27005 216.688 6.38005 216.548 6.48005C216.408 6.57005 216.273 6.64005 216.143 6.69005C216.313 6.72005 216.488 6.77505 216.668 6.85505C216.858 6.93505 217.028 7.04005 217.178 7.17005C217.338 7.30005 217.468 7.46505 217.568 7.66505C217.668 7.85505 217.718 8.08505 217.718 8.35505C217.718 8.49505 217.683 8.66505 217.613 8.86505C217.553 9.05505 217.438 9.24005 217.268 9.42005C217.108 9.59005 216.883 9.74005 216.593 9.87005C216.313 9.99005 215.948 10.05 215.498 10.05H212.198V9.90005C212.278 9.90005 212.348 9.87005 212.408 9.81005C212.468 9.75005 212.518 9.68005 212.558 9.60005C212.608 9.52005 212.643 9.43505 212.663 9.34505C212.683 9.24505 212.693 9.15505 212.693 9.07505V4.69505C212.693 4.53505 212.648 4.36505 212.558 4.18505C212.478 3.99505 212.358 3.90005 212.198 3.90005V3.75005H215.258C215.618 3.75005 215.923 3.80005 216.173 3.90005C216.433 3.99005 216.643 4.11005 216.803 4.26005C216.973 4.40005 217.093 4.56005 217.163 4.74005C217.243 4.91005 217.283 5.08005 217.283 5.25005ZM213.668 6.49505H214.823C215.113 6.49505 215.353 6.46505 215.543 6.40505C215.743 6.33505 215.903 6.24505 216.023 6.13505C216.143 6.02505 216.228 5.90005 216.278 5.76005C216.338 5.62005 216.368 5.47505 216.368 5.32505C216.368 5.20505 216.333 5.08005 216.263 4.95005C216.193 4.82005 216.088 4.70505 215.948 4.60505C215.818 4.49505 215.658 4.40505 215.468 4.33505C215.278 4.26505 215.063 4.23005 214.823 4.23005H213.668V6.49505ZM215.138 9.57005C215.258 9.57005 215.408 9.56005 215.588 9.54005C215.778 9.51005 215.958 9.45505 216.128 9.37505C216.308 9.28505 216.458 9.16005 216.578 9.00005C216.708 8.83005 216.773 8.61005 216.773 8.34005C216.773 8.05005 216.688 7.81505 216.518 7.63505C216.348 7.45505 216.148 7.32005 215.918 7.23005C215.698 7.13005 215.468 7.06505 215.228 7.03505C214.988 7.00505 214.803 6.99005 214.673 6.99005H213.668V9.57005H215.138ZM223.434 10.05V9.28505L223.359 9.36005C223.109 9.61005 222.819 9.80505 222.489 9.94505C222.169 10.085 221.779 10.155 221.319 10.155C220.969 10.155 220.669 10.115 220.419 10.035C220.169 9.95505 219.964 9.84505 219.804 9.70505C219.644 9.55505 219.524 9.38505 219.444 9.19505C219.374 9.00505 219.339 8.80505 219.339 8.59505C219.339 8.25505 219.429 7.95505 219.609 7.69505C219.799 7.43505 220.069 7.20505 220.419 7.00505C220.769 6.80505 221.194 6.62505 221.694 6.46505C222.204 6.29505 222.784 6.13005 223.434 5.97005C223.414 5.58005 223.334 5.26505 223.194 5.02505C223.054 4.78505 222.889 4.60005 222.699 4.47005C222.509 4.33005 222.309 4.24005 222.099 4.20005C221.889 4.15005 221.709 4.12505 221.559 4.12505C221.299 4.12505 221.069 4.16505 220.869 4.24505C220.669 4.31505 220.494 4.41505 220.344 4.54505C220.194 4.66505 220.069 4.80505 219.969 4.96505C219.879 5.12505 219.809 5.28505 219.759 5.44505H219.624V4.27505C219.714 4.27505 219.819 4.24505 219.939 4.18505C220.059 4.11505 220.199 4.04005 220.359 3.96005C220.529 3.88005 220.729 3.81005 220.959 3.75005C221.199 3.68005 221.484 3.64505 221.814 3.64505C222.364 3.64505 222.809 3.71505 223.149 3.85505C223.489 3.99505 223.749 4.18005 223.929 4.41005C224.119 4.64005 224.244 4.90505 224.304 5.20505C224.364 5.49505 224.394 5.79505 224.394 6.10505V9.07505C224.394 9.27505 224.444 9.46505 224.544 9.64505C224.644 9.81505 224.779 9.90005 224.949 9.90005V10.05H223.434ZM223.434 8.62505V6.48005L223.284 6.51005C223.044 6.57005 222.749 6.65005 222.399 6.75005C222.059 6.85005 221.734 6.98005 221.424 7.14005C221.114 7.30005 220.849 7.49005 220.629 7.71005C220.409 7.93005 220.299 8.18505 220.299 8.47505C220.299 8.79505 220.429 9.06005 220.689 9.27005C220.949 9.48005 221.289 9.58505 221.709 9.58505C222.039 9.58505 222.329 9.51505 222.579 9.37505C222.829 9.22505 223.059 9.03505 223.269 8.80505L223.434 8.62505ZM233.649 9.07505C233.649 9.15505 233.659 9.24505 233.679 9.34505C233.699 9.43505 233.729 9.52005 233.769 9.60005C233.819 9.68005 233.874 9.75005 233.934 9.81005C233.994 9.87005 234.064 9.90005 234.144 9.90005V10.05H232.194V9.90005C232.274 9.90005 232.344 9.87505 232.404 9.82505C232.464 9.76505 232.514 9.69505 232.554 9.61505C232.594 9.52505 232.624 9.43505 232.644 9.34505C232.664 9.24505 232.674 9.15505 232.674 9.07505V5.02505L230.169 10.185L227.769 5.32505V9.07505C227.769 9.15505 227.779 9.24505 227.799 9.34505C227.819 9.43505 227.849 9.52005 227.889 9.60005C227.929 9.68005 227.979 9.75005 228.039 9.81005C228.099 9.87005 228.169 9.90005 228.249 9.90005V10.05H226.794V9.90005C226.874 9.90005 226.944 9.87005 227.004 9.81005C227.064 9.75005 227.109 9.68005 227.139 9.60005C227.179 9.52005 227.209 9.43505 227.229 9.34505C227.249 9.24505 227.259 9.15505 227.259 9.07505V4.68005C227.259 4.50005 227.234 4.32505 227.184 4.15505C227.144 3.98505 227.014 3.90005 226.794 3.90005V3.75005H228.129L230.424 8.44505L232.719 3.75005H234.144V3.90005C233.994 3.90005 233.874 3.99505 233.784 4.18505C233.694 4.36505 233.649 4.53005 233.649 4.68005V9.07505ZM242.077 9.07505C242.077 9.15505 242.087 9.24505 242.107 9.34505C242.137 9.43505 242.172 9.52005 242.212 9.60005C242.252 9.68005 242.302 9.75005 242.362 9.81005C242.432 9.87005 242.497 9.90005 242.557 9.90005V10.05H240.637V9.90005C240.707 9.90005 240.772 9.87505 240.832 9.82505C240.892 9.76505 240.942 9.69505 240.982 9.61505C241.022 9.52505 241.052 9.43505 241.072 9.34505C241.092 9.24505 241.102 9.15505 241.102 9.07505V5.47505L237.532 8.97005V9.07505C237.532 9.15505 237.542 9.24505 237.562 9.34505C237.582 9.43505 237.612 9.52005 237.652 9.60005C237.692 9.68005 237.737 9.75005 237.787 9.81005C237.847 9.87005 237.912 9.90005 237.982 9.90005V10.05H236.077V9.90005C236.147 9.90005 236.212 9.87505 236.272 9.82505C236.332 9.76505 236.382 9.69505 236.422 9.61505C236.462 9.52505 236.492 9.43505 236.512 9.34505C236.532 9.24505 236.542 9.15505 236.542 9.07505V4.68005C236.542 4.61005 236.532 4.53005 236.512 4.44005C236.492 4.35005 236.462 4.26505 236.422 4.18505C236.382 4.10505 236.332 4.04005 236.272 3.99005C236.212 3.93005 236.147 3.90005 236.077 3.90005V3.75005H237.982V3.90005C237.902 3.90005 237.832 3.93005 237.772 3.99005C237.722 4.04005 237.677 4.10505 237.637 4.18505C237.607 4.26505 237.582 4.35005 237.562 4.44005C237.542 4.53005 237.532 4.61005 237.532 4.68005V8.26505L241.102 4.77005V4.68005C241.102 4.61005 241.092 4.53005 241.072 4.44005C241.052 4.35005 241.022 4.26505 240.982 4.18505C240.942 4.10505 240.892 4.04005 240.832 3.99005C240.772 3.93005 240.707 3.90005 240.637 3.90005V3.75005H242.557V3.90005C242.477 3.90005 242.402 3.93005 242.332 3.99005C242.272 4.04005 242.222 4.10505 242.182 4.18505C242.152 4.26505 242.127 4.35005 242.107 4.44005C242.087 4.53005 242.077 4.61005 242.077 4.68005V9.07505ZM61.7982 24.075C61.7982 24.155 61.8082 24.245 61.8282 24.345C61.8482 24.435 61.8782 24.52 61.9182 24.6C61.9582 24.68 62.0032 24.75 62.0532 24.81C62.1132 24.87 62.1782 24.9 62.2482 24.9V25.05H60.3582V24.9C60.4282 24.9 60.4882 24.875 60.5382 24.825C60.5982 24.765 60.6482 24.695 60.6882 24.615C60.7282 24.525 60.7582 24.435 60.7782 24.345C60.7982 24.245 60.8082 24.155 60.8082 24.075V19.68C60.8082 19.61 60.7982 19.53 60.7782 19.44C60.7582 19.35 60.7282 19.265 60.6882 19.185C60.6482 19.105 60.5982 19.04 60.5382 18.99C60.4882 18.93 60.4282 18.9 60.3582 18.9V18.75H62.2482V18.9C62.1682 18.9 62.0982 18.93 62.0382 18.99C61.9882 19.04 61.9432 19.105 61.9032 19.185C61.8732 19.265 61.8482 19.35 61.8282 19.44C61.8082 19.53 61.7982 19.61 61.7982 19.68V21.495H65.2182V19.68C65.2182 19.61 65.2082 19.53 65.1882 19.44C65.1682 19.35 65.1382 19.265 65.0982 19.185C65.0682 19.105 65.0232 19.04 64.9632 18.99C64.9132 18.93 64.8482 18.9 64.7682 18.9V18.75H66.6582V18.9C66.5782 18.9 66.5082 18.93 66.4482 18.99C66.3982 19.04 66.3532 19.105 66.3132 19.185C66.2732 19.265 66.2432 19.35 66.2232 19.44C66.2132 19.53 66.2082 19.61 66.2082 19.68V24.075C66.2082 24.155 66.2182 24.245 66.2382 24.345C66.2582 24.435 66.2882 24.52 66.3282 24.6C66.3682 24.68 66.4132 24.75 66.4632 24.81C66.5232 24.87 66.5882 24.9 66.6582 24.9V25.05H64.7682V24.9C64.8382 24.9 64.8982 24.875 64.9482 24.825C65.0082 24.765 65.0582 24.695 65.0982 24.615C65.1382 24.525 65.1682 24.435 65.1882 24.345C65.2082 24.245 65.2182 24.155 65.2182 24.075V21.99H61.7982V24.075ZM72.5165 25.05V24.285L72.4415 24.36C72.1915 24.61 71.9015 24.805 71.5715 24.945C71.2515 25.085 70.8615 25.155 70.4015 25.155C70.0515 25.155 69.7515 25.115 69.5015 25.035C69.2515 24.955 69.0465 24.845 68.8865 24.705C68.7265 24.555 68.6065 24.385 68.5265 24.195C68.4565 24.005 68.4215 23.805 68.4215 23.595C68.4215 23.255 68.5115 22.955 68.6915 22.695C68.8815 22.435 69.1515 22.205 69.5015 22.005C69.8515 21.805 70.2765 21.625 70.7765 21.465C71.2865 21.295 71.8665 21.13 72.5165 20.97C72.4965 20.58 72.4165 20.265 72.2765 20.025C72.1365 19.785 71.9715 19.6 71.7815 19.47C71.5915 19.33 71.3915 19.24 71.1815 19.2C70.9715 19.15 70.7915 19.125 70.6415 19.125C70.3815 19.125 70.1515 19.165 69.9515 19.245C69.7515 19.315 69.5765 19.415 69.4265 19.545C69.2765 19.665 69.1515 19.805 69.0515 19.965C68.9615 20.125 68.8915 20.285 68.8415 20.445H68.7065V19.275C68.7965 19.275 68.9015 19.245 69.0215 19.185C69.1415 19.115 69.2815 19.04 69.4415 18.96C69.6115 18.88 69.8115 18.81 70.0415 18.75C70.2815 18.68 70.5665 18.645 70.8965 18.645C71.4465 18.645 71.8915 18.715 72.2315 18.855C72.5715 18.995 72.8315 19.18 73.0115 19.41C73.2015 19.64 73.3265 19.905 73.3865 20.205C73.4465 20.495 73.4765 20.795 73.4765 21.105V24.075C73.4765 24.275 73.5265 24.465 73.6265 24.645C73.7265 24.815 73.8615 24.9 74.0315 24.9V25.05H72.5165ZM72.5165 23.625V21.48L72.3665 21.51C72.1265 21.57 71.8315 21.65 71.4815 21.75C71.1415 21.85 70.8165 21.98 70.5065 22.14C70.1965 22.3 69.9315 22.49 69.7115 22.71C69.4915 22.93 69.3815 23.185 69.3815 23.475C69.3815 23.795 69.5115 24.06 69.7715 24.27C70.0315 24.48 70.3715 24.585 70.7915 24.585C71.1215 24.585 71.4115 24.515 71.6615 24.375C71.9115 24.225 72.1415 24.035 72.3515 23.805L72.5165 23.625ZM81.6784 24.075C81.6784 24.155 81.6884 24.245 81.7084 24.345C81.7284 24.435 81.7584 24.52 81.7984 24.6C81.8384 24.68 81.8834 24.75 81.9334 24.81C81.9934 24.87 82.0584 24.9 82.1284 24.9V25.05H80.2384V24.9C80.3084 24.9 80.3684 24.875 80.4184 24.825C80.4784 24.765 80.5284 24.695 80.5684 24.615C80.6084 24.525 80.6384 24.435 80.6584 24.345C80.6784 24.245 80.6884 24.155 80.6884 24.075V19.68C80.6884 19.61 80.6784 19.53 80.6584 19.44C80.6384 19.35 80.6084 19.265 80.5684 19.185C80.5284 19.105 80.4784 19.04 80.4184 18.99C80.3684 18.93 80.3084 18.9 80.2384 18.9V18.75H82.1284V18.9C82.0484 18.9 81.9784 18.93 81.9184 18.99C81.8684 19.04 81.8234 19.105 81.7834 19.185C81.7534 19.265 81.7284 19.35 81.7084 19.44C81.6884 19.53 81.6784 19.61 81.6784 19.68V21.495H85.0984V19.68C85.0984 19.61 85.0884 19.53 85.0684 19.44C85.0484 19.35 85.0184 19.265 84.9784 19.185C84.9484 19.105 84.9034 19.04 84.8434 18.99C84.7934 18.93 84.7284 18.9 84.6484 18.9V18.75H86.5384V18.9C86.4584 18.9 86.3884 18.93 86.3284 18.99C86.2784 19.04 86.2334 19.105 86.1934 19.185C86.1534 19.265 86.1234 19.35 86.1034 19.44C86.0934 19.53 86.0884 19.61 86.0884 19.68V24.075C86.0884 24.155 86.0984 24.245 86.1184 24.345C86.1384 24.435 86.1684 24.52 86.2084 24.6C86.2484 24.68 86.2934 24.75 86.3434 24.81C86.4034 24.87 86.4684 24.9 86.5384 24.9V25.05H84.6484V24.9C84.7184 24.9 84.7784 24.875 84.8284 24.825C84.8884 24.765 84.9384 24.695 84.9784 24.615C85.0184 24.525 85.0484 24.435 85.0684 24.345C85.0884 24.245 85.0984 24.155 85.0984 24.075V21.99H81.6784V24.075ZM92.3968 25.05V24.285L92.3218 24.36C92.0718 24.61 91.7818 24.805 91.4518 24.945C91.1318 25.085 90.7418 25.155 90.2818 25.155C89.9318 25.155 89.6318 25.115 89.3818 25.035C89.1318 24.955 88.9268 24.845 88.7668 24.705C88.6068 24.555 88.4868 24.385 88.4068 24.195C88.3368 24.005 88.3018 23.805 88.3018 23.595C88.3018 23.255 88.3918 22.955 88.5718 22.695C88.7618 22.435 89.0318 22.205 89.3818 22.005C89.7318 21.805 90.1568 21.625 90.6568 21.465C91.1668 21.295 91.7468 21.13 92.3968 20.97C92.3768 20.58 92.2968 20.265 92.1568 20.025C92.0168 19.785 91.8518 19.6 91.6618 19.47C91.4718 19.33 91.2718 19.24 91.0618 19.2C90.8518 19.15 90.6718 19.125 90.5218 19.125C90.2618 19.125 90.0318 19.165 89.8318 19.245C89.6318 19.315 89.4568 19.415 89.3068 19.545C89.1568 19.665 89.0318 19.805 88.9318 19.965C88.8418 20.125 88.7718 20.285 88.7218 20.445H88.5868V19.275C88.6768 19.275 88.7818 19.245 88.9018 19.185C89.0218 19.115 89.1618 19.04 89.3218 18.96C89.4918 18.88 89.6918 18.81 89.9218 18.75C90.1618 18.68 90.4468 18.645 90.7768 18.645C91.3268 18.645 91.7718 18.715 92.1118 18.855C92.4518 18.995 92.7118 19.18 92.8918 19.41C93.0818 19.64 93.2068 19.905 93.2668 20.205C93.3268 20.495 93.3568 20.795 93.3568 21.105V24.075C93.3568 24.275 93.4068 24.465 93.5068 24.645C93.6068 24.815 93.7418 24.9 93.9118 24.9V25.05H92.3968ZM92.3968 23.625V21.48L92.2468 21.51C92.0068 21.57 91.7118 21.65 91.3618 21.75C91.0218 21.85 90.6968 21.98 90.3868 22.14C90.0768 22.3 89.8118 22.49 89.5918 22.71C89.3718 22.93 89.2618 23.185 89.2618 23.475C89.2618 23.795 89.3918 24.06 89.6518 24.27C89.9118 24.48 90.2518 24.585 90.6718 24.585C91.0018 24.585 91.2918 24.515 91.5418 24.375C91.7918 24.225 92.0218 24.035 92.2318 23.805L92.3968 23.625ZM97.1522 24.555H99.8672V19.725C99.8672 19.655 99.8572 19.57 99.8372 19.47C99.8172 19.37 99.7872 19.28 99.7472 19.2C99.7172 19.12 99.6722 19.05 99.6122 18.99C99.5522 18.93 99.4872 18.9 99.4172 18.9V18.75H101.277V18.9C101.197 18.9 101.127 18.93 101.067 18.99C101.017 19.04 100.972 19.105 100.932 19.185C100.902 19.265 100.877 19.35 100.857 19.44C100.837 19.52 100.827 19.59 100.827 19.65V24.555H103.557V19.725C103.557 19.655 103.547 19.57 103.527 19.47C103.517 19.37 103.492 19.28 103.452 19.2C103.422 19.12 103.377 19.05 103.317 18.99C103.257 18.93 103.182 18.9 103.092 18.9V18.75H104.982V18.9C104.902 18.9 104.832 18.93 104.772 18.99C104.722 19.05 104.677 19.12 104.637 19.2C104.597 19.28 104.567 19.37 104.547 19.47C104.537 19.57 104.532 19.655 104.532 19.725V24.12C104.532 24.19 104.542 24.27 104.562 24.36C104.582 24.45 104.607 24.535 104.637 24.615C104.677 24.695 104.722 24.765 104.772 24.825C104.832 24.875 104.897 24.9 104.967 24.9V25.05H95.7422V24.9C95.8122 24.9 95.8722 24.875 95.9222 24.825C95.9722 24.765 96.0172 24.695 96.0572 24.615C96.0972 24.535 96.1272 24.45 96.1472 24.36C96.1672 24.27 96.1772 24.19 96.1772 24.12V19.725C96.1772 19.655 96.1672 19.57 96.1472 19.47C96.1372 19.37 96.1122 19.28 96.0722 19.2C96.0422 19.12 95.9972 19.05 95.9372 18.99C95.8872 18.93 95.8222 18.9 95.7422 18.9V18.75H97.6022V18.9C97.5222 18.9 97.4522 18.93 97.3922 18.99C97.3322 19.05 97.2822 19.12 97.2422 19.2C97.2122 19.28 97.1872 19.37 97.1672 19.47C97.1572 19.57 97.1522 19.655 97.1522 19.725V24.555ZM107.623 22.02C107.663 22.37 107.748 22.705 107.878 23.025C108.008 23.335 108.178 23.61 108.388 23.85C108.608 24.09 108.873 24.285 109.183 24.435C109.493 24.575 109.853 24.645 110.263 24.645C110.483 24.645 110.713 24.615 110.953 24.555C111.203 24.485 111.433 24.39 111.643 24.27C111.853 24.15 112.038 24.005 112.198 23.835C112.368 23.655 112.483 23.455 112.543 23.235H112.678V24.36C112.618 24.36 112.548 24.38 112.468 24.42C112.398 24.46 112.313 24.51 112.213 24.57C112.013 24.69 111.743 24.82 111.403 24.96C111.063 25.09 110.613 25.155 110.053 25.155C109.603 25.155 109.173 25.09 108.763 24.96C108.363 24.83 108.008 24.63 107.698 24.36C107.388 24.09 107.138 23.745 106.948 23.325C106.768 22.905 106.678 22.405 106.678 21.825C106.678 21.455 106.738 21.08 106.858 20.7C106.988 20.32 107.178 19.98 107.428 19.68C107.688 19.37 108.018 19.12 108.418 18.93C108.818 18.74 109.298 18.645 109.858 18.645C110.358 18.645 110.793 18.73 111.163 18.9C111.543 19.07 111.853 19.305 112.093 19.605C112.343 19.905 112.528 20.26 112.648 20.67C112.768 21.08 112.828 21.53 112.828 22.02H107.623ZM109.798 19.14C109.448 19.14 109.143 19.21 108.883 19.35C108.633 19.49 108.418 19.67 108.238 19.89C108.058 20.11 107.918 20.36 107.818 20.64C107.718 20.92 107.653 21.2 107.623 21.48H111.898C111.888 21.19 111.833 20.905 111.733 20.625C111.643 20.345 111.513 20.095 111.343 19.875C111.173 19.655 110.958 19.48 110.698 19.35C110.438 19.21 110.138 19.14 109.798 19.14ZM120.543 24.075C120.543 24.155 120.553 24.245 120.573 24.345C120.603 24.435 120.638 24.52 120.678 24.6C120.718 24.68 120.768 24.75 120.828 24.81C120.898 24.87 120.963 24.9 121.023 24.9V25.05H119.103V24.9C119.173 24.9 119.238 24.875 119.298 24.825C119.358 24.765 119.408 24.695 119.448 24.615C119.488 24.525 119.518 24.435 119.538 24.345C119.558 24.245 119.568 24.155 119.568 24.075V20.475L115.998 23.97V24.075C115.998 24.155 116.008 24.245 116.028 24.345C116.048 24.435 116.078 24.52 116.118 24.6C116.158 24.68 116.203 24.75 116.253 24.81C116.313 24.87 116.378 24.9 116.448 24.9V25.05H114.543V24.9C114.613 24.9 114.678 24.875 114.738 24.825C114.798 24.765 114.848 24.695 114.888 24.615C114.928 24.525 114.958 24.435 114.978 24.345C114.998 24.245 115.008 24.155 115.008 24.075V19.68C115.008 19.61 114.998 19.53 114.978 19.44C114.958 19.35 114.928 19.265 114.888 19.185C114.848 19.105 114.798 19.04 114.738 18.99C114.678 18.93 114.613 18.9 114.543 18.9V18.75H116.448V18.9C116.368 18.9 116.298 18.93 116.238 18.99C116.188 19.04 116.143 19.105 116.103 19.185C116.073 19.265 116.048 19.35 116.028 19.44C116.008 19.53 115.998 19.61 115.998 19.68V23.265L119.568 19.77V19.68C119.568 19.61 119.558 19.53 119.538 19.44C119.518 19.35 119.488 19.265 119.448 19.185C119.408 19.105 119.358 19.04 119.298 18.99C119.238 18.93 119.173 18.9 119.103 18.9V18.75H121.023V18.9C120.943 18.9 120.868 18.93 120.798 18.99C120.738 19.04 120.688 19.105 120.648 19.185C120.618 19.265 120.593 19.35 120.573 19.44C120.553 19.53 120.543 19.61 120.543 19.68V24.075ZM119.388 16.725C119.388 16.885 119.348 17.06 119.268 17.25C119.188 17.43 119.073 17.6 118.923 17.76C118.773 17.91 118.593 18.035 118.383 18.135C118.183 18.235 117.958 18.285 117.708 18.285C117.478 18.285 117.258 18.24 117.048 18.15C116.848 18.05 116.673 17.925 116.523 17.775C116.373 17.625 116.253 17.46 116.163 17.28C116.073 17.09 116.028 16.905 116.028 16.725H116.118C116.128 16.785 116.158 16.87 116.208 16.98C116.268 17.08 116.358 17.185 116.478 17.295C116.598 17.405 116.753 17.5 116.943 17.58C117.143 17.66 117.393 17.7 117.693 17.7C118.003 17.7 118.258 17.66 118.458 17.58C118.658 17.5 118.818 17.405 118.938 17.295C119.058 17.185 119.143 17.08 119.193 16.98C119.243 16.87 119.278 16.785 119.298 16.725H119.388ZM132.799 24.51C132.719 24.51 132.644 24.53 132.574 24.57C132.504 24.6 132.424 24.64 132.334 24.69C132.164 24.79 131.939 24.895 131.659 25.005C131.379 25.105 131.029 25.155 130.609 25.155C130.099 25.155 129.629 25.075 129.199 24.915C128.779 24.745 128.414 24.515 128.104 24.225C127.794 23.925 127.554 23.58 127.384 23.19C127.214 22.79 127.129 22.36 127.129 21.9C127.129 21.47 127.204 21.06 127.354 20.67C127.514 20.28 127.739 19.935 128.029 19.635C128.319 19.335 128.674 19.095 129.094 18.915C129.524 18.735 130.009 18.645 130.549 18.645C130.919 18.645 131.219 18.69 131.449 18.78C131.679 18.86 131.874 18.94 132.034 19.02C132.124 19.07 132.209 19.11 132.289 19.14C132.379 19.17 132.469 19.185 132.559 19.185V20.325H132.409C132.359 20.135 132.269 19.97 132.139 19.83C132.009 19.68 131.859 19.555 131.689 19.455C131.519 19.355 131.334 19.28 131.134 19.23C130.934 19.18 130.739 19.155 130.549 19.155C130.139 19.155 129.779 19.23 129.469 19.38C129.159 19.52 128.904 19.71 128.704 19.95C128.504 20.18 128.354 20.445 128.254 20.745C128.154 21.045 128.104 21.355 128.104 21.675C128.104 22.045 128.159 22.41 128.269 22.77C128.389 23.12 128.554 23.435 128.764 23.715C128.984 23.995 129.249 24.22 129.559 24.39C129.879 24.56 130.239 24.645 130.639 24.645C130.919 24.645 131.179 24.605 131.419 24.525C131.659 24.445 131.864 24.34 132.034 24.21C132.214 24.08 132.354 23.94 132.454 23.79C132.564 23.63 132.629 23.48 132.649 23.34H132.799V24.51ZM139.332 20.25C139.332 20.42 139.297 20.58 139.227 20.73C139.157 20.88 139.067 21.02 138.957 21.15C138.857 21.27 138.737 21.38 138.597 21.48C138.457 21.57 138.322 21.64 138.192 21.69C138.362 21.72 138.537 21.775 138.717 21.855C138.907 21.935 139.077 22.04 139.227 22.17C139.387 22.3 139.517 22.465 139.617 22.665C139.717 22.855 139.767 23.085 139.767 23.355C139.767 23.495 139.732 23.665 139.662 23.865C139.602 24.055 139.487 24.24 139.317 24.42C139.157 24.59 138.932 24.74 138.642 24.87C138.362 24.99 137.997 25.05 137.547 25.05H134.247V24.9C134.327 24.9 134.397 24.87 134.457 24.81C134.517 24.75 134.567 24.68 134.607 24.6C134.657 24.52 134.692 24.435 134.712 24.345C134.732 24.245 134.742 24.155 134.742 24.075V19.695C134.742 19.535 134.697 19.365 134.607 19.185C134.527 18.995 134.407 18.9 134.247 18.9V18.75H137.307C137.667 18.75 137.972 18.8 138.222 18.9C138.482 18.99 138.692 19.11 138.852 19.26C139.022 19.4 139.142 19.56 139.212 19.74C139.292 19.91 139.332 20.08 139.332 20.25ZM135.717 21.495H136.872C137.162 21.495 137.402 21.465 137.592 21.405C137.792 21.335 137.952 21.245 138.072 21.135C138.192 21.025 138.277 20.9 138.327 20.76C138.387 20.62 138.417 20.475 138.417 20.325C138.417 20.205 138.382 20.08 138.312 19.95C138.242 19.82 138.137 19.705 137.997 19.605C137.867 19.495 137.707 19.405 137.517 19.335C137.327 19.265 137.112 19.23 136.872 19.23H135.717V21.495ZM137.187 24.57C137.307 24.57 137.457 24.56 137.637 24.54C137.827 24.51 138.007 24.455 138.177 24.375C138.357 24.285 138.507 24.16 138.627 24C138.757 23.83 138.822 23.61 138.822 23.34C138.822 23.05 138.737 22.815 138.567 22.635C138.397 22.455 138.197 22.32 137.967 22.23C137.747 22.13 137.517 22.065 137.277 22.035C137.037 22.005 136.852 21.99 136.722 21.99H135.717V24.57H137.187ZM145.483 25.05V24.285L145.408 24.36C145.158 24.61 144.868 24.805 144.538 24.945C144.218 25.085 143.828 25.155 143.368 25.155C143.018 25.155 142.718 25.115 142.468 25.035C142.218 24.955 142.013 24.845 141.853 24.705C141.693 24.555 141.573 24.385 141.493 24.195C141.423 24.005 141.388 23.805 141.388 23.595C141.388 23.255 141.478 22.955 141.658 22.695C141.848 22.435 142.118 22.205 142.468 22.005C142.818 21.805 143.243 21.625 143.743 21.465C144.253 21.295 144.833 21.13 145.483 20.97C145.463 20.58 145.383 20.265 145.243 20.025C145.103 19.785 144.938 19.6 144.748 19.47C144.558 19.33 144.358 19.24 144.148 19.2C143.938 19.15 143.758 19.125 143.608 19.125C143.348 19.125 143.118 19.165 142.918 19.245C142.718 19.315 142.543 19.415 142.393 19.545C142.243 19.665 142.118 19.805 142.018 19.965C141.928 20.125 141.858 20.285 141.808 20.445H141.673V19.275C141.763 19.275 141.868 19.245 141.988 19.185C142.108 19.115 142.248 19.04 142.408 18.96C142.578 18.88 142.778 18.81 143.008 18.75C143.248 18.68 143.533 18.645 143.863 18.645C144.413 18.645 144.858 18.715 145.198 18.855C145.538 18.995 145.798 19.18 145.978 19.41C146.168 19.64 146.293 19.905 146.353 20.205C146.413 20.495 146.443 20.795 146.443 21.105V24.075C146.443 24.275 146.493 24.465 146.593 24.645C146.693 24.815 146.828 24.9 146.998 24.9V25.05H145.483ZM145.483 23.625V21.48L145.333 21.51C145.093 21.57 144.798 21.65 144.448 21.75C144.108 21.85 143.783 21.98 143.473 22.14C143.163 22.3 142.898 22.49 142.678 22.71C142.458 22.93 142.348 23.185 142.348 23.475C142.348 23.795 142.478 24.06 142.738 24.27C142.998 24.48 143.338 24.585 143.758 24.585C144.088 24.585 144.378 24.515 144.628 24.375C144.878 24.225 145.108 24.035 145.318 23.805L145.483 23.625ZM155.504 24.555V26.4H155.354C155.334 26.28 155.299 26.14 155.249 25.98C155.199 25.83 155.129 25.685 155.039 25.545C154.949 25.405 154.839 25.285 154.709 25.185C154.589 25.095 154.449 25.05 154.289 25.05H149.519C149.359 25.05 149.214 25.095 149.084 25.185C148.954 25.285 148.839 25.405 148.739 25.545C148.649 25.685 148.574 25.83 148.514 25.98C148.464 26.14 148.434 26.28 148.424 26.4H148.274V24.555H148.844C148.904 24.555 148.959 24.53 149.009 24.48C149.069 24.43 149.124 24.37 149.174 24.3C149.234 24.23 149.289 24.155 149.339 24.075C149.389 23.985 149.434 23.905 149.474 23.835C149.624 23.495 149.804 23.09 150.014 22.62C150.234 22.15 150.454 21.665 150.674 21.165C150.904 20.665 151.124 20.18 151.334 19.71C151.544 19.23 151.724 18.82 151.874 18.48L154.409 24.015C154.489 24.185 154.564 24.32 154.634 24.42C154.704 24.51 154.799 24.555 154.919 24.555H155.504ZM149.669 24.555H153.569L151.619 20.28L149.669 24.555ZM159.477 21.48C159.937 21.48 160.337 21.525 160.677 21.615C161.027 21.705 161.312 21.83 161.532 21.99C161.762 22.15 161.932 22.34 162.042 22.56C162.152 22.77 162.207 23 162.207 23.25C162.207 23.5 162.152 23.735 162.042 23.955C161.932 24.175 161.757 24.365 161.517 24.525C161.287 24.685 160.997 24.815 160.647 24.915C160.297 25.005 159.882 25.05 159.402 25.05H156.837V24.9C156.917 24.9 156.987 24.875 157.047 24.825C157.107 24.765 157.157 24.695 157.197 24.615C157.247 24.525 157.282 24.435 157.302 24.345C157.322 24.245 157.332 24.155 157.332 24.075V19.68C157.332 19.61 157.322 19.53 157.302 19.44C157.282 19.35 157.247 19.265 157.197 19.185C157.157 19.105 157.107 19.04 157.047 18.99C156.987 18.93 156.917 18.9 156.837 18.9V18.75H158.802V18.9C158.652 18.9 158.532 18.995 158.442 19.185C158.352 19.365 158.307 19.53 158.307 19.68V21.48H159.477ZM159.372 24.555C160.032 24.555 160.507 24.45 160.797 24.24C161.097 24.02 161.247 23.75 161.247 23.43C161.247 23.25 161.207 23.075 161.127 22.905C161.047 22.725 160.922 22.57 160.752 22.44C160.592 22.3 160.392 22.19 160.152 22.11C159.912 22.02 159.637 21.975 159.327 21.975H158.307V24.555H159.372ZM167.207 18.645C167.707 18.645 168.157 18.73 168.557 18.9C168.967 19.06 169.312 19.285 169.592 19.575C169.882 19.855 170.102 20.19 170.252 20.58C170.402 20.97 170.477 21.395 170.477 21.855C170.477 22.345 170.392 22.795 170.222 23.205C170.052 23.605 169.817 23.95 169.517 24.24C169.217 24.53 168.862 24.755 168.452 24.915C168.042 25.075 167.597 25.155 167.117 25.155C166.607 25.155 166.152 25.06 165.752 24.87C165.352 24.67 165.012 24.4 164.732 24.06C164.452 23.72 164.237 23.32 164.087 22.86C163.937 22.39 163.862 21.885 163.862 21.345C163.862 21.035 163.877 20.75 163.907 20.49C163.947 20.23 164.002 19.98 164.072 19.74C164.152 19.49 164.247 19.25 164.357 19.02C164.467 18.79 164.597 18.55 164.747 18.3C165.167 17.64 165.692 17.12 166.322 16.74C166.962 16.36 167.612 16.17 168.272 16.17H170.177L169.592 17.13H168.032C167.712 17.13 167.392 17.19 167.072 17.31C166.752 17.42 166.447 17.59 166.157 17.82C165.877 18.04 165.627 18.31 165.407 18.63C165.187 18.95 165.012 19.315 164.882 19.725C165.152 19.395 165.462 19.135 165.812 18.945C166.172 18.745 166.637 18.645 167.207 18.645ZM167.297 24.645C167.667 24.625 167.992 24.54 168.272 24.39C168.552 24.23 168.787 24.03 168.977 23.79C169.167 23.54 169.307 23.265 169.397 22.965C169.497 22.655 169.547 22.34 169.547 22.02C169.547 21.65 169.487 21.295 169.367 20.955C169.247 20.605 169.077 20.3 168.857 20.04C168.637 19.78 168.372 19.57 168.062 19.41C167.762 19.25 167.427 19.17 167.057 19.17C166.697 19.17 166.377 19.25 166.097 19.41C165.817 19.56 165.582 19.76 165.392 20.01C165.202 20.26 165.057 20.545 164.957 20.865C164.867 21.185 164.822 21.505 164.822 21.825C164.822 22.145 164.877 22.475 164.987 22.815C165.107 23.145 165.272 23.445 165.482 23.715C165.702 23.985 165.962 24.21 166.262 24.39C166.572 24.56 166.917 24.645 167.297 24.645ZM173.094 22.02C173.134 22.37 173.219 22.705 173.349 23.025C173.479 23.335 173.649 23.61 173.859 23.85C174.079 24.09 174.344 24.285 174.654 24.435C174.964 24.575 175.324 24.645 175.734 24.645C175.954 24.645 176.184 24.615 176.424 24.555C176.674 24.485 176.904 24.39 177.114 24.27C177.324 24.15 177.509 24.005 177.669 23.835C177.839 23.655 177.954 23.455 178.014 23.235H178.149V24.36C178.089 24.36 178.019 24.38 177.939 24.42C177.869 24.46 177.784 24.51 177.684 24.57C177.484 24.69 177.214 24.82 176.874 24.96C176.534 25.09 176.084 25.155 175.524 25.155C175.074 25.155 174.644 25.09 174.234 24.96C173.834 24.83 173.479 24.63 173.169 24.36C172.859 24.09 172.609 23.745 172.419 23.325C172.239 22.905 172.149 22.405 172.149 21.825C172.149 21.455 172.209 21.08 172.329 20.7C172.459 20.32 172.649 19.98 172.899 19.68C173.159 19.37 173.489 19.12 173.889 18.93C174.289 18.74 174.769 18.645 175.329 18.645C175.829 18.645 176.264 18.73 176.634 18.9C177.014 19.07 177.324 19.305 177.564 19.605C177.814 19.905 177.999 20.26 178.119 20.67C178.239 21.08 178.299 21.53 178.299 22.02H173.094ZM175.269 19.14C174.919 19.14 174.614 19.21 174.354 19.35C174.104 19.49 173.889 19.67 173.709 19.89C173.529 20.11 173.389 20.36 173.289 20.64C173.189 20.92 173.124 21.2 173.094 21.48H177.369C177.359 21.19 177.304 20.905 177.204 20.625C177.114 20.345 176.984 20.095 176.814 19.875C176.644 19.655 176.429 19.48 176.169 19.35C175.909 19.21 175.609 19.14 175.269 19.14ZM180.194 15.165H182.129V15.315C181.999 15.315 181.899 15.41 181.829 15.6C181.759 15.78 181.719 15.945 181.709 16.095L181.319 23.34H181.139L180.689 16.095C180.689 16.025 180.674 15.945 180.644 15.855C180.624 15.765 180.594 15.68 180.554 15.6C180.514 15.52 180.464 15.455 180.404 15.405C180.344 15.345 180.274 15.315 180.194 15.315V15.165ZM180.524 24.48C180.524 24.28 180.589 24.11 180.719 23.97C180.859 23.83 181.029 23.76 181.229 23.76C181.429 23.76 181.594 23.83 181.724 23.97C181.864 24.11 181.934 24.28 181.934 24.48C181.934 24.68 181.864 24.85 181.724 24.99C181.594 25.12 181.429 25.185 181.229 25.185C181.029 25.185 180.859 25.12 180.719 24.99C180.589 24.85 180.524 24.68 180.524 24.48Z" fill="#281814"></path></svg> 