<?xml version="1.0" encoding="UTF-8"?> <svg xmlns="http://www.w3.org/2000/svg" width="51" height="14" viewBox="0 0 51 14" fill="none"><path d="M8.41692e-05 11.7H0.0900842C0.198084 11.7 0.288084 11.664 0.360084 11.592C0.432084 11.52 0.486084 11.436 0.522084 11.34C0.570084 11.244 0.600084 11.142 0.612084 11.034C0.636084 10.914 0.648084 10.806 0.648084 10.71V1.17C0.648084 1.086 0.636084 0.984004 0.612084 0.864004C0.600084 0.744004 0.570084 0.636004 0.522084 0.540004C0.486084 0.444004 0.432084 0.360004 0.360084 0.288004C0.288084 0.216004 0.198084 0.180004 0.0900842 0.180004H8.41692e-05V4.41074e-06H2.53808V0.180004H2.35808C2.26208 0.192004 2.17808 0.234004 2.10608 0.306005C2.04608 0.378005 1.99808 0.462005 1.96208 0.558005C1.92608 0.654004 1.89608 0.762004 1.87208 0.882005C1.86008 0.990004 1.85408 1.086 1.85408 1.17V11.25H7.27208V1.17C7.27208 1.086 7.26008 0.990004 7.23608 0.882005C7.22408 0.762004 7.19408 0.654004 7.14608 0.558005C7.11008 0.462005 7.05608 0.378005 6.98408 0.306005C6.91208 0.234004 6.82808 0.192004 6.73208 0.180004H6.62408V4.41074e-06H9.12608V0.180004H8.96409C8.86808 0.192004 8.79008 0.234004 8.73008 0.306005C8.67008 0.378005 8.62208 0.462005 8.58608 0.558005C8.55008 0.654004 8.52008 0.762004 8.49608 0.882005C8.48408 0.990004 8.47808 1.086 8.47808 1.17V10.278C8.47808 10.518 8.53808 10.74 8.65808 10.944C8.79008 11.148 9.00008 11.25 9.28808 11.25H10.1881V13.5H10.0081C9.99608 13.344 9.95408 13.17 9.88209 12.978C9.82208 12.798 9.72608 12.624 9.59408 12.456C9.47408 12.3 9.31808 12.162 9.12608 12.042C8.94608 11.934 8.73008 11.88 8.47808 11.88H8.41692e-05V11.7ZM11.8081 11.7H11.8981C11.9821 11.7 12.0601 11.664 12.1321 11.592C12.2041 11.52 12.2641 11.436 12.3121 11.34C12.3721 11.244 12.4141 11.142 12.4381 11.034C12.4621 10.914 12.4741 10.806 12.4741 10.71V1.134C12.4741 1.05 12.4621 0.954004 12.4381 0.846004C12.4141 0.738004 12.3721 0.636004 12.3121 0.540004C12.2641 0.432004 12.1981 0.348004 12.1141 0.288004C12.0421 0.216004 11.9581 0.180004 11.8621 0.180004H11.7721V4.41074e-06H14.7241C15.8401 4.41074e-06 16.7101 0.246004 17.3341 0.738005C17.9701 1.23 18.2881 1.884 18.2881 2.7C18.2881 3.048 18.2281 3.36 18.1081 3.636C17.9881 3.912 17.8321 4.158 17.6401 4.374C17.4601 4.59 17.2621 4.776 17.0461 4.932C16.8301 5.076 16.6261 5.196 16.4341 5.292C16.9381 5.388 17.3581 5.55 17.6941 5.778C18.0301 6.006 18.3001 6.27 18.5041 6.57C18.7201 6.858 18.8701 7.17 18.9541 7.506C19.0381 7.842 19.0801 8.172 19.0801 8.496C19.0801 9.12 18.9661 9.648 18.7381 10.08C18.5101 10.5 18.2041 10.848 17.8201 11.124C17.4481 11.388 17.0161 11.58 16.5241 11.7C16.0441 11.82 15.5461 11.88 15.0301 11.88H11.8081V11.7ZM17.8561 8.604C17.7601 7.68 17.4481 6.966 16.9201 6.462C16.3921 5.958 15.6481 5.706 14.6881 5.706H13.6801V11.286H14.7241C15.6961 11.286 16.4581 11.07 17.0101 10.638C17.5741 10.194 17.8561 9.582 17.8561 8.802V8.604ZM17.1181 2.862C17.0821 2.166 16.8361 1.614 16.3801 1.206C15.9361 0.798004 15.3361 0.594004 14.5801 0.594004H13.6801V5.13H14.6161C15.1201 5.13 15.5281 5.064 15.8401 4.932C16.1641 4.8 16.4221 4.632 16.6141 4.428C16.8061 4.212 16.9381 3.978 17.0101 3.726C17.0821 3.474 17.1181 3.228 17.1181 2.988V2.862ZM21.1547 11.7H21.2447C21.3407 11.7 21.4247 11.67 21.4967 11.61C21.5687 11.538 21.6287 11.454 21.6767 11.358C21.7367 11.262 21.7787 11.16 21.8027 11.052C21.8387 10.944 21.8567 10.842 21.8567 10.746V1.116C21.8567 1.032 21.8387 0.936005 21.8027 0.828004C21.7787 0.720004 21.7367 0.618004 21.6767 0.522004C21.6287 0.426004 21.5687 0.348004 21.4967 0.288004C21.4247 0.216004 21.3407 0.180004 21.2447 0.180004H21.1547V4.41074e-06H28.0847V1.674H27.9047C27.8807 1.398 27.7727 1.158 27.5807 0.954004C27.3887 0.738005 27.0887 0.630005 26.6807 0.630005H23.0627V5.184H26.0507C26.3267 5.184 26.5547 5.1 26.7347 4.932C26.9267 4.764 27.0227 4.566 27.0227 4.338H27.2027V6.588H27.0227C27.0227 6.372 26.9327 6.186 26.7527 6.03C26.5727 5.874 26.3387 5.796 26.0507 5.796H23.0627V11.25H27.0047C27.2327 11.25 27.4307 11.196 27.5987 11.088C27.7667 10.98 27.9047 10.854 28.0127 10.71C28.1327 10.554 28.2167 10.392 28.2647 10.224C28.3247 10.044 28.3547 9.894 28.3547 9.774H28.5347V11.88H21.1547V11.7ZM34.985 11.7H35.075V11.88H32.519V11.7H32.609C32.705 11.7 32.789 11.664 32.861 11.592C32.933 11.52 32.993 11.436 33.041 11.34C33.101 11.244 33.143 11.142 33.167 11.034C33.191 10.914 33.203 10.806 33.203 10.71V0.666004H31.115C30.923 0.666004 30.755 0.708004 30.611 0.792004C30.467 0.876004 30.347 0.984004 30.251 1.116C30.155 1.236 30.083 1.374 30.035 1.53C29.987 1.674 29.963 1.818 29.963 1.962H29.783V4.41074e-06H37.865V1.962H37.685C37.685 1.818 37.661 1.674 37.613 1.53C37.565 1.374 37.493 1.236 37.397 1.116C37.301 0.984004 37.181 0.876004 37.037 0.792004C36.893 0.708004 36.725 0.666004 36.533 0.666004H34.409V10.71C34.409 10.806 34.421 10.914 34.445 11.034C34.469 11.142 34.505 11.244 34.553 11.34C34.613 11.436 34.673 11.52 34.733 11.592C34.805 11.664 34.889 11.7 34.985 11.7ZM39.427 11.7H39.517C39.601 11.7 39.679 11.67 39.751 11.61C39.823 11.538 39.883 11.454 39.931 11.358C39.979 11.262 40.015 11.16 40.039 11.052C40.075 10.944 40.093 10.848 40.093 10.764V1.17C40.093 1.086 40.081 0.984004 40.057 0.864004C40.033 0.744004 39.991 0.636004 39.931 0.540004C39.883 0.444004 39.823 0.360004 39.751 0.288004C39.679 0.216004 39.601 0.180004 39.517 0.180004H39.427V4.41074e-06H41.965V0.180004H41.839C41.671 0.204005 41.539 0.336005 41.443 0.576005C41.347 0.804004 41.299 1.002 41.299 1.17V5.04H42.307C42.859 5.04 43.399 5.1 43.927 5.22C44.467 5.328 44.941 5.52 45.349 5.796C45.769 6.06 46.105 6.414 46.357 6.858C46.609 7.29 46.735 7.83 46.735 8.478C46.735 9.006 46.627 9.48 46.411 9.9C46.195 10.32 45.901 10.68 45.529 10.98C45.157 11.268 44.713 11.49 44.197 11.646C43.693 11.802 43.147 11.88 42.559 11.88H39.427V11.7ZM41.569 11.25C42.961 11.25 43.957 11.01 44.557 10.53C45.169 10.05 45.475 9.39 45.475 8.55C45.475 7.698 45.169 7.002 44.557 6.462C43.957 5.922 43.069 5.652 41.893 5.652H41.299V11.25H41.569ZM47.941 4.41074e-06H50.479V0.180004H50.335C50.251 0.192004 50.173 0.234004 50.101 0.306005C50.041 0.378005 49.987 0.462005 49.939 0.558005C49.903 0.642004 49.873 0.738004 49.849 0.846004C49.825 0.942004 49.813 1.032 49.813 1.116V10.71C49.813 10.806 49.825 10.908 49.849 11.016C49.873 11.124 49.909 11.232 49.957 11.34C50.005 11.436 50.059 11.52 50.119 11.592C50.191 11.652 50.269 11.688 50.353 11.7H50.479V11.88H47.941V11.7H48.031C48.127 11.7 48.211 11.67 48.283 11.61C48.355 11.538 48.415 11.454 48.463 11.358C48.511 11.25 48.547 11.142 48.571 11.034C48.595 10.914 48.607 10.806 48.607 10.71V1.116C48.607 1.032 48.595 0.936005 48.571 0.828004C48.547 0.720004 48.511 0.618004 48.463 0.522004C48.415 0.426004 48.355 0.348004 48.283 0.288004C48.211 0.216004 48.127 0.180004 48.031 0.180004H47.941V4.41074e-06Z" fill="#281814"></path></svg> 