<?xml version="1.0" encoding="UTF-8"?> <svg xmlns="http://www.w3.org/2000/svg" width="41" height="13" viewBox="0 0 41 13" fill="none"><path d="M1.96008 12.52V12.32C2.28008 12.32 2.48008 12.2267 2.56008 12.04C2.65341 11.84 2.70008 11.6067 2.70008 11.34V1.76002C2.70008 1.62669 2.63341 1.56002 2.50008 1.56002C2.44675 1.56002 2.37341 1.58002 2.28008 1.62002L8.11778e-05 2.34002V1.62002L4.66008 1.85966e-05V0.540019C4.44675 0.633353 4.27341 0.780019 4.14008 0.980019C4.02008 1.18002 3.97341 1.41335 4.00008 1.68002V11.26C4.00008 11.54 4.04675 11.7867 4.14008 12C4.23341 12.2134 4.44675 12.32 4.78008 12.32V12.52H1.96008ZM11.724 5.12002C11.244 5.12002 10.824 5.20669 10.464 5.38002C10.1173 5.54002 9.82399 5.76002 9.58399 6.04002C9.35732 6.32002 9.18399 6.64002 9.06399 7.00002C8.95732 7.36002 8.90399 7.73335 8.90399 8.12002C8.90399 8.58669 8.97065 9.05335 9.10399 9.52002C9.25065 9.98669 9.45732 10.4067 9.72399 10.78C10.004 11.14 10.3373 11.44 10.724 11.68C11.1107 11.9067 11.5573 12.02 12.064 12.02C12.5173 12.02 12.9173 11.9334 13.264 11.76C13.6107 11.5734 13.8973 11.3334 14.124 11.04C14.364 10.7334 14.5373 10.3867 14.644 10C14.764 9.61335 14.824 9.22002 14.824 8.82002C14.824 8.36669 14.7507 7.92002 14.604 7.48002C14.4707 7.04002 14.2707 6.64669 14.004 6.30002C13.7507 5.94002 13.4307 5.65335 13.044 5.44002C12.6573 5.22669 12.2173 5.12002 11.724 5.12002ZM14.564 1.82002C14.3507 1.55335 14.0907 1.34002 13.784 1.18002C13.4907 1.02002 13.2107 0.940018 12.944 0.940018C12.3307 0.940018 11.7973 1.09335 11.344 1.40002C10.8907 1.69335 10.5107 2.06002 10.204 2.50002C9.91065 2.94002 9.67732 3.42002 9.50399 3.94002C9.33065 4.44669 9.21732 4.92002 9.16399 5.36002C9.55065 5.01335 9.98399 4.77335 10.464 4.64002C10.944 4.49335 11.444 4.42002 11.964 4.42002C12.644 4.42002 13.2373 4.54002 13.744 4.78002C14.264 5.00669 14.6907 5.31335 15.024 5.70002C15.3707 6.07335 15.624 6.50669 15.784 7.00002C15.9573 7.49335 16.044 8.00002 16.044 8.52002C16.044 9.04002 15.9573 9.55335 15.784 10.06C15.6107 10.5667 15.3507 11.02 15.004 11.42C14.6573 11.8067 14.224 12.12 13.704 12.36C13.1973 12.6 12.604 12.72 11.924 12.72C11.1773 12.72 10.5307 12.58 9.98399 12.3C9.43732 12.02 8.99065 11.6467 8.64399 11.18C8.29732 10.7 8.03732 10.1467 7.86399 9.52002C7.70399 8.89335 7.62399 8.24002 7.62399 7.56002C7.62399 6.68002 7.74399 5.80669 7.98399 4.94002C8.23732 4.06002 8.60399 3.27335 9.08399 2.58002C9.56399 1.87335 10.1507 1.30002 10.844 0.860019C11.5373 0.420019 12.3307 0.200018 13.224 0.200018C13.4107 0.200018 13.604 0.213352 13.804 0.240019C14.0173 0.266685 14.204 0.293352 14.364 0.320019C14.444 0.333352 14.524 0.346686 14.604 0.360019C14.6973 0.373352 14.7507 0.380018 14.764 0.380018V1.82002H14.564ZM18.4482 5.74002C18.4482 5.47335 18.5349 5.24669 18.7082 5.06002C18.8949 4.87335 19.1215 4.78002 19.3882 4.78002C19.6549 4.78002 19.8815 4.87335 20.0682 5.06002C20.2549 5.24669 20.3482 5.47335 20.3482 5.74002C20.3482 6.00669 20.2549 6.23335 20.0682 6.42002C19.8815 6.59335 19.6549 6.68002 19.3882 6.68002C19.1215 6.68002 18.8949 6.59335 18.7082 6.42002C18.5349 6.23335 18.4482 6.00669 18.4482 5.74002ZM18.4482 11.66C18.4482 11.3934 18.5349 11.1667 18.7082 10.98C18.8949 10.7934 19.1215 10.7 19.3882 10.7C19.6549 10.7 19.8815 10.7934 20.0682 10.98C20.2549 11.1667 20.3482 11.3934 20.3482 11.66C20.3482 11.9267 20.2549 12.1534 20.0682 12.34C19.8815 12.5134 19.6549 12.6 19.3882 12.6C19.1215 12.6 18.8949 12.5134 18.7082 12.34C18.5349 12.1534 18.4482 11.9267 18.4482 11.66ZM22.5916 0.600019H22.7716C22.8783 0.600019 22.9916 0.580019 23.1116 0.540019C23.2316 0.500019 23.365 0.453352 23.5116 0.400019C23.7383 0.320019 24.0116 0.240019 24.3316 0.160019C24.6516 0.066686 25.045 0.0200195 25.5116 0.0200195C26.045 0.0200195 26.5183 0.100019 26.9316 0.260019C27.3583 0.406685 27.7116 0.613352 27.9916 0.880019C28.285 1.13335 28.505 1.43335 28.6516 1.78002C28.8116 2.12669 28.8916 2.48669 28.8916 2.86002C28.8916 3.38002 28.7316 3.88002 28.4116 4.36002C28.105 4.84002 27.625 5.22669 26.9716 5.52002C27.8916 5.78669 28.5783 6.21335 29.0316 6.80002C29.485 7.38669 29.7116 8.05335 29.7116 8.80002C29.7116 9.36002 29.605 9.88002 29.3916 10.36C29.1916 10.8267 28.8916 11.24 28.4916 11.6C28.105 11.9467 27.6383 12.22 27.0916 12.42C26.545 12.62 25.9316 12.72 25.2516 12.72C24.745 12.72 24.325 12.6734 23.9916 12.58C23.6583 12.4867 23.3783 12.4 23.1516 12.32C23.005 12.2667 22.8716 12.2267 22.7516 12.2C22.6316 12.16 22.5116 12.14 22.3916 12.14H22.2116V10.6H22.4116C22.7583 11.08 23.185 11.4467 23.6916 11.7C24.2116 11.94 24.745 12.06 25.2916 12.06C25.7716 12.06 26.205 11.98 26.5916 11.82C26.9783 11.6467 27.305 11.42 27.5716 11.14C27.8516 10.86 28.0583 10.54 28.1916 10.18C28.3383 9.82002 28.4116 9.44669 28.4116 9.06002C28.4116 8.66002 28.3316 8.27335 28.1716 7.90002C28.0116 7.51335 27.785 7.17335 27.4916 6.88002C27.1983 6.58669 26.8383 6.35335 26.4116 6.18002C25.9983 6.00669 25.525 5.92002 24.9916 5.92002H24.0716V5.26002H25.0916C25.505 5.26002 25.865 5.19335 26.1716 5.06002C26.4916 4.92669 26.7583 4.74669 26.9716 4.52002C27.185 4.29335 27.345 4.04002 27.4516 3.76002C27.5583 3.48002 27.6116 3.18669 27.6116 2.88002C27.6116 2.60002 27.5583 2.32669 27.4516 2.06002C27.3583 1.79335 27.2116 1.56002 27.0116 1.36002C26.8116 1.14669 26.565 0.973353 26.2716 0.840019C25.9916 0.706685 25.665 0.640019 25.2916 0.640019C24.8383 0.640019 24.385 0.766685 23.9316 1.02002C23.4783 1.27335 23.0983 1.65335 22.7916 2.16002H22.5916V0.600019ZM31.8677 6.32002C31.8677 5.29335 31.9944 4.38669 32.2477 3.60002C32.5144 2.81335 32.8611 2.16002 33.2877 1.64002C33.7144 1.10669 34.1944 0.706685 34.7277 0.440019C35.2744 0.160019 35.8277 0.0200195 36.3877 0.0200195C36.9477 0.0200195 37.5011 0.160019 38.0477 0.440019C38.5944 0.706685 39.0744 1.10669 39.4877 1.64002C39.9144 2.16002 40.2544 2.81335 40.5077 3.60002C40.7744 4.38669 40.9077 5.29335 40.9077 6.32002C40.9077 7.36002 40.7744 8.28002 40.5077 9.08002C40.2544 9.86669 39.9144 10.5334 39.4877 11.08C39.0744 11.6134 38.5944 12.02 38.0477 12.3C37.5011 12.58 36.9477 12.72 36.3877 12.72C35.8277 12.72 35.2744 12.58 34.7277 12.3C34.1944 12.02 33.7144 11.6134 33.2877 11.08C32.8611 10.5334 32.5144 9.86669 32.2477 9.08002C31.9944 8.28002 31.8677 7.36002 31.8677 6.32002ZM39.6477 6.84002C39.6477 5.88002 39.5411 5.03335 39.3277 4.30002C39.1144 3.55335 38.8344 2.93335 38.4877 2.44002C38.1544 1.93335 37.7677 1.55335 37.3277 1.30002C36.9011 1.03335 36.4611 0.900019 36.0077 0.900019C35.5544 0.900019 35.1411 1.03335 34.7677 1.30002C34.4077 1.55335 34.1011 1.89335 33.8477 2.32002C33.5944 2.74669 33.3944 3.24002 33.2477 3.80002C33.1144 4.36002 33.0477 4.94669 33.0477 5.56002C33.0477 6.29335 33.1344 7.04002 33.3077 7.80002C33.4811 8.54669 33.7277 9.22669 34.0477 9.84002C34.3677 10.44 34.7477 10.9334 35.1877 11.32C35.6411 11.7067 36.1344 11.9 36.6677 11.9C37.0544 11.9 37.4277 11.7934 37.7877 11.58C38.1477 11.3534 38.4611 11.0267 38.7277 10.6C39.0077 10.1734 39.2277 9.64669 39.3877 9.02002C39.5611 8.39335 39.6477 7.66669 39.6477 6.84002Z" fill="white"></path></svg> 