<?xml version="1.0" encoding="UTF-8"?> <svg xmlns="http://www.w3.org/2000/svg" width="40" height="13" viewBox="0 0 40 13" fill="none"><path d="M1.96008 12.52V12.32C2.28008 12.32 2.48008 12.2267 2.56008 12.04C2.65341 11.84 2.70008 11.6067 2.70008 11.34V1.76002C2.70008 1.62669 2.63341 1.56002 2.50008 1.56002C2.44675 1.56002 2.37341 1.58002 2.28008 1.62002L8.11778e-05 2.34002V1.62002L4.66008 1.85966e-05V0.540019C4.44675 0.633353 4.27341 0.780019 4.14008 0.980019C4.02008 1.18002 3.97341 1.41335 4.00008 1.68002V11.26C4.00008 11.54 4.04675 11.7867 4.14008 12C4.23341 12.2134 4.44675 12.32 4.78008 12.32V12.52H1.96008ZM14.864 8.78002C14.864 9.24669 14.7707 9.72002 14.584 10.2C14.4107 10.6667 14.144 11.0867 13.784 11.46C13.424 11.8334 12.964 12.14 12.404 12.38C11.8573 12.6067 11.2173 12.72 10.484 12.72C10.124 12.72 9.77065 12.68 9.42399 12.6C9.07732 12.52 8.75065 12.44 8.44399 12.36C8.21732 12.2934 8.01065 12.24 7.82399 12.2C7.63732 12.1467 7.47065 12.12 7.32399 12.12V10.54C7.67065 11.0067 8.12399 11.3734 8.68399 11.64C9.25732 11.9067 9.83065 12.04 10.404 12.04C10.924 12.04 11.3773 11.96 11.764 11.8C12.1507 11.64 12.4707 11.4267 12.724 11.16C12.9907 10.88 13.184 10.5534 13.304 10.18C13.4373 9.79335 13.504 9.38002 13.504 8.94002C13.504 8.40669 13.4107 7.94002 13.224 7.54002C13.0507 7.14002 12.8173 6.80669 12.524 6.54002C12.2307 6.26002 11.8907 6.05335 11.504 5.92002C11.1307 5.78669 10.7507 5.72002 10.364 5.72002C9.93732 5.72002 9.47065 5.82002 8.96399 6.02002C8.45732 6.20669 7.93732 6.50669 7.40399 6.92002L9.96399 0.220019H14.964L14.564 1.34002H10.384C10.1573 1.94002 9.91065 2.56002 9.64399 3.20002C9.39065 3.84002 9.15065 4.46669 8.92399 5.08002C9.24399 4.93335 9.54399 4.83335 9.82399 4.78002C10.104 4.72669 10.404 4.70002 10.724 4.70002C11.2573 4.70002 11.7707 4.79335 12.264 4.98002C12.7573 5.16669 13.1973 5.43335 13.584 5.78002C13.9707 6.12669 14.2773 6.55335 14.504 7.06002C14.744 7.56669 14.864 8.14002 14.864 8.78002ZM17.413 5.74002C17.413 5.47335 17.4997 5.24669 17.673 5.06002C17.8597 4.87335 18.0864 4.78002 18.353 4.78002C18.6197 4.78002 18.8464 4.87335 19.033 5.06002C19.2197 5.24669 19.313 5.47335 19.313 5.74002C19.313 6.00669 19.2197 6.23335 19.033 6.42002C18.8464 6.59335 18.6197 6.68002 18.353 6.68002C18.0864 6.68002 17.8597 6.59335 17.673 6.42002C17.4997 6.23335 17.413 6.00669 17.413 5.74002ZM17.413 11.66C17.413 11.3934 17.4997 11.1667 17.673 10.98C17.8597 10.7934 18.0864 10.7 18.353 10.7C18.6197 10.7 18.8464 10.7934 19.033 10.98C19.2197 11.1667 19.313 11.3934 19.313 11.66C19.313 11.9267 19.2197 12.1534 19.033 12.34C18.8464 12.5134 18.6197 12.6 18.353 12.6C18.0864 12.6 17.8597 12.5134 17.673 12.34C17.4997 12.1534 17.413 11.9267 17.413 11.66ZM21.5565 0.600019H21.7365C21.8432 0.600019 21.9565 0.580019 22.0765 0.540019C22.1965 0.500019 22.3298 0.453352 22.4765 0.400019C22.7032 0.320019 22.9765 0.240019 23.2965 0.160019C23.6165 0.066686 24.0098 0.0200195 24.4765 0.0200195C25.0098 0.0200195 25.4832 0.100019 25.8965 0.260019C26.3232 0.406685 26.6765 0.613352 26.9565 0.880019C27.2498 1.13335 27.4698 1.43335 27.6165 1.78002C27.7765 2.12669 27.8565 2.48669 27.8565 2.86002C27.8565 3.38002 27.6965 3.88002 27.3765 4.36002C27.0698 4.84002 26.5898 5.22669 25.9365 5.52002C26.8565 5.78669 27.5432 6.21335 27.9965 6.80002C28.4498 7.38669 28.6765 8.05335 28.6765 8.80002C28.6765 9.36002 28.5698 9.88002 28.3565 10.36C28.1565 10.8267 27.8565 11.24 27.4565 11.6C27.0698 11.9467 26.6032 12.22 26.0565 12.42C25.5098 12.62 24.8965 12.72 24.2165 12.72C23.7098 12.72 23.2898 12.6734 22.9565 12.58C22.6232 12.4867 22.3432 12.4 22.1165 12.32C21.9698 12.2667 21.8365 12.2267 21.7165 12.2C21.5965 12.16 21.4765 12.14 21.3565 12.14H21.1765V10.6H21.3765C21.7232 11.08 22.1498 11.4467 22.6565 11.7C23.1765 11.94 23.7098 12.06 24.2565 12.06C24.7365 12.06 25.1698 11.98 25.5565 11.82C25.9432 11.6467 26.2698 11.42 26.5365 11.14C26.8165 10.86 27.0232 10.54 27.1565 10.18C27.3032 9.82002 27.3765 9.44669 27.3765 9.06002C27.3765 8.66002 27.2965 8.27335 27.1365 7.90002C26.9765 7.51335 26.7498 7.17335 26.4565 6.88002C26.1632 6.58669 25.8032 6.35335 25.3765 6.18002C24.9632 6.00669 24.4898 5.92002 23.9565 5.92002H23.0365V5.26002H24.0565C24.4698 5.26002 24.8298 5.19335 25.1365 5.06002C25.4565 4.92669 25.7232 4.74669 25.9365 4.52002C26.1498 4.29335 26.3098 4.04002 26.4165 3.76002C26.5232 3.48002 26.5765 3.18669 26.5765 2.88002C26.5765 2.60002 26.5232 2.32669 26.4165 2.06002C26.3232 1.79335 26.1765 1.56002 25.9765 1.36002C25.7765 1.14669 25.5298 0.973353 25.2365 0.840019C24.9565 0.706685 24.6298 0.640019 24.2565 0.640019C23.8032 0.640019 23.3498 0.766685 22.8965 1.02002C22.4432 1.27335 22.0632 1.65335 21.7565 2.16002H21.5565V0.600019ZM30.8326 6.32002C30.8326 5.29335 30.9592 4.38669 31.2126 3.60002C31.4792 2.81335 31.8259 2.16002 32.2526 1.64002C32.6792 1.10669 33.1592 0.706685 33.6926 0.440019C34.2392 0.160019 34.7926 0.0200195 35.3526 0.0200195C35.9126 0.0200195 36.4659 0.160019 37.0126 0.440019C37.5592 0.706685 38.0392 1.10669 38.4526 1.64002C38.8792 2.16002 39.2192 2.81335 39.4726 3.60002C39.7392 4.38669 39.8726 5.29335 39.8726 6.32002C39.8726 7.36002 39.7392 8.28002 39.4726 9.08002C39.2192 9.86669 38.8792 10.5334 38.4526 11.08C38.0392 11.6134 37.5592 12.02 37.0126 12.3C36.4659 12.58 35.9126 12.72 35.3526 12.72C34.7926 12.72 34.2392 12.58 33.6926 12.3C33.1592 12.02 32.6792 11.6134 32.2526 11.08C31.8259 10.5334 31.4792 9.86669 31.2126 9.08002C30.9592 8.28002 30.8326 7.36002 30.8326 6.32002ZM38.6126 6.84002C38.6126 5.88002 38.5059 5.03335 38.2926 4.30002C38.0792 3.55335 37.7992 2.93335 37.4526 2.44002C37.1192 1.93335 36.7326 1.55335 36.2926 1.30002C35.8659 1.03335 35.4259 0.900019 34.9726 0.900019C34.5192 0.900019 34.1059 1.03335 33.7326 1.30002C33.3726 1.55335 33.0659 1.89335 32.8126 2.32002C32.5592 2.74669 32.3592 3.24002 32.2126 3.80002C32.0792 4.36002 32.0126 4.94669 32.0126 5.56002C32.0126 6.29335 32.0992 7.04002 32.2726 7.80002C32.4459 8.54669 32.6926 9.22669 33.0126 9.84002C33.3326 10.44 33.7126 10.9334 34.1526 11.32C34.6059 11.7067 35.0992 11.9 35.6326 11.9C36.0192 11.9 36.3926 11.7934 36.7526 11.58C37.1126 11.3534 37.4259 11.0267 37.6926 10.6C37.9726 10.1734 38.1926 9.64669 38.3526 9.02002C38.5259 8.39335 38.6126 7.66669 38.6126 6.84002Z" fill="white"></path></svg> 