<?xml version="1.0" encoding="UTF-8"?> <svg xmlns="http://www.w3.org/2000/svg" width="128" height="20" viewBox="0 0 128 20" fill="none"><path d="M16 16V19.125H15.75C15.7333 18.9083 15.675 18.6667 15.575 18.4C15.475 18.1333 15.3333 17.8833 15.15 17.65C14.9833 17.4333 14.7833 17.25 14.55 17.1C14.3167 16.95 14.0583 16.875 13.775 16.875H2.25C1.96667 16.875 1.70833 16.95 1.475 17.1C1.24167 17.2667 1.03333 17.4583 0.85 17.675C0.683333 17.9083 0.541667 18.1583 0.425 18.425C0.325 18.6917 0.266667 18.925 0.25 19.125H3.53903e-08V16H1.1C1.63333 16 2.00833 15.6917 2.225 15.075L7.975 -2.98023e-07L13.775 15C13.8917 15.25 14.05 15.4833 14.25 15.7C14.45 15.9 14.6833 16 14.95 16H16ZM2.775 16H12.4L7.575 3.575L2.775 16ZM18.7572 0.374999H22.3072C24.1572 0.374999 25.5572 0.733333 26.5072 1.45C27.4739 2.15 27.9572 3.15 27.9572 4.45C27.9572 5.15 27.7906 5.775 27.4572 6.325C27.1239 6.875 26.6822 7.34167 26.1322 7.725C25.5989 8.09167 24.9906 8.375 24.3072 8.575C23.6406 8.775 22.9739 8.875 22.3072 8.875H21.3572V15.25C21.3572 15.3833 21.3739 15.5333 21.4072 15.7C21.4406 15.85 21.4906 15.9917 21.5572 16.125C21.6406 16.2583 21.7239 16.375 21.8072 16.475C21.9072 16.575 22.0239 16.625 22.1572 16.625H22.2822V16.875H18.7572V16.625H18.8822C18.9989 16.625 19.1072 16.575 19.2072 16.475C19.3072 16.375 19.3906 16.2583 19.4572 16.125C19.5239 15.9917 19.5739 15.85 19.6072 15.7C19.6406 15.5333 19.6572 15.3833 19.6572 15.25V1.925C19.6572 1.69167 19.5906 1.425 19.4572 1.125C19.3239 0.825 19.1322 0.658333 18.8822 0.624999H18.7572V0.374999ZM21.3572 1.25V8H22.1072C22.7739 8 23.3656 7.90833 23.8822 7.725C24.4156 7.54167 24.8572 7.3 25.2072 7C25.5572 6.7 25.8239 6.35833 26.0072 5.975C26.1906 5.59167 26.2822 5.2 26.2822 4.8C26.2822 4.31667 26.1989 3.86667 26.0322 3.45C25.8822 3.01667 25.6239 2.64167 25.2572 2.325C24.9072 1.99167 24.4406 1.73333 23.8572 1.55C23.2739 1.35 22.5572 1.25 21.7072 1.25H21.3572ZM30.8359 16.625H30.9609C31.0943 16.625 31.2109 16.5833 31.3109 16.5C31.4109 16.4 31.4943 16.2833 31.5609 16.15C31.6443 16.0167 31.7026 15.875 31.7359 15.725C31.7859 15.575 31.8109 15.4333 31.8109 15.3V1.925C31.8109 1.80833 31.7859 1.675 31.7359 1.525C31.7026 1.375 31.6443 1.23333 31.5609 1.1C31.4943 0.966665 31.4109 0.858332 31.3109 0.774999C31.2109 0.674999 31.0943 0.624999 30.9609 0.624999H30.8359V0.374999H40.4609V2.7H40.2109C40.1776 2.31667 40.0276 1.98333 39.7609 1.7C39.4943 1.4 39.0776 1.25 38.5109 1.25H33.4859V7.575H37.6359C38.0193 7.575 38.3359 7.45833 38.5859 7.225C38.8526 6.99167 38.9859 6.71667 38.9859 6.4H39.2359V9.525H38.9859C38.9859 9.225 38.8609 8.96667 38.6109 8.75C38.3609 8.53333 38.0359 8.425 37.6359 8.425H33.4859V16H38.9609C39.2776 16 39.5526 15.925 39.7859 15.775C40.0193 15.625 40.2109 15.45 40.3609 15.25C40.5276 15.0333 40.6443 14.8083 40.7109 14.575C40.7943 14.325 40.8359 14.1167 40.8359 13.95H41.0859V16.875H30.8359V16.625ZM51.6896 1.025C50.4563 1.025 49.3813 1.25 48.4646 1.7C47.5646 2.13333 46.8146 2.70833 46.2146 3.425C45.6146 4.125 45.1646 4.91667 44.8646 5.8C44.5813 6.68333 44.4396 7.55833 44.4396 8.425C44.4396 9.40833 44.6313 10.375 45.0146 11.325C45.398 12.2583 45.923 13.0917 46.5896 13.825C47.273 14.5417 48.0646 15.125 48.9646 15.575C49.8646 16.0083 50.8396 16.225 51.8896 16.225C52.1896 16.225 52.5396 16.1917 52.9396 16.125C53.3563 16.0583 53.7646 15.9333 54.1646 15.75C54.5646 15.55 54.9313 15.275 55.2646 14.925C55.6146 14.575 55.8813 14.1167 56.0646 13.55H56.3146V16.325C56.0646 16.325 55.798 16.3583 55.5146 16.425C55.248 16.4917 54.948 16.5667 54.6146 16.65C54.1813 16.7667 53.698 16.875 53.1646 16.975C52.648 17.075 52.098 17.125 51.5146 17.125C50.0646 17.125 48.7896 16.875 47.6896 16.375C46.5896 15.875 45.673 15.225 44.9396 14.425C44.2063 13.625 43.6563 12.725 43.2896 11.725C42.923 10.7083 42.7396 9.68333 42.7396 8.65C42.7396 7.61667 42.923 6.59167 43.2896 5.575C43.6563 4.55833 44.2146 3.65 44.9646 2.85C45.7146 2.03333 46.6563 1.375 47.7896 0.874999C48.923 0.374999 50.2563 0.125 51.7896 0.125C52.3396 0.125 52.8313 0.174999 53.2646 0.274999C53.7146 0.374999 54.1146 0.474999 54.4646 0.575C54.7146 0.658333 54.9396 0.724999 55.1396 0.774999C55.3563 0.808333 55.5646 0.825 55.7646 0.825V3.6H55.5146C55.4146 3.08333 55.2313 2.65833 54.9646 2.325C54.698 1.975 54.3813 1.70833 54.0146 1.525C53.6646 1.34167 53.2813 1.21667 52.8646 1.15C52.4646 1.06667 52.073 1.025 51.6896 1.025ZM66.8439 1.025C65.6106 1.025 64.5356 1.25 63.6189 1.7C62.7189 2.13333 61.9689 2.70833 61.3689 3.425C60.7689 4.125 60.3189 4.91667 60.0189 5.8C59.7356 6.68333 59.5939 7.55833 59.5939 8.425C59.5939 9.40833 59.7856 10.375 60.1689 11.325C60.5523 12.2583 61.0773 13.0917 61.7439 13.825C62.4273 14.5417 63.2189 15.125 64.1189 15.575C65.0189 16.0083 65.9939 16.225 67.0439 16.225C67.3439 16.225 67.6939 16.1917 68.0939 16.125C68.5106 16.0583 68.9189 15.9333 69.3189 15.75C69.7189 15.55 70.0856 15.275 70.4189 14.925C70.7689 14.575 71.0356 14.1167 71.2189 13.55H71.4689V16.325C71.2189 16.325 70.9523 16.3583 70.6689 16.425C70.4023 16.4917 70.1023 16.5667 69.7689 16.65C69.3356 16.7667 68.8523 16.875 68.3189 16.975C67.8023 17.075 67.2523 17.125 66.6689 17.125C65.2189 17.125 63.9439 16.875 62.8439 16.375C61.7439 15.875 60.8273 15.225 60.0939 14.425C59.3606 13.625 58.8106 12.725 58.4439 11.725C58.0773 10.7083 57.8939 9.68333 57.8939 8.65C57.8939 7.61667 58.0773 6.59167 58.4439 5.575C58.8106 4.55833 59.3689 3.65 60.1189 2.85C60.8689 2.03333 61.8106 1.375 62.9439 0.874999C64.0773 0.374999 65.4106 0.125 66.9439 0.125C67.4939 0.125 67.9856 0.174999 68.4189 0.274999C68.8689 0.374999 69.2689 0.474999 69.6189 0.575C69.8689 0.658333 70.0939 0.724999 70.2939 0.774999C70.5106 0.808333 70.7189 0.825 70.9189 0.825V3.6H70.6689C70.5689 3.08333 70.3856 2.65833 70.1189 2.325C69.8523 1.975 69.5356 1.70833 69.1689 1.525C68.8189 1.34167 68.4356 1.21667 68.0189 1.15C67.6189 1.06667 67.2273 1.025 66.8439 1.025ZM73.9701 11.725V10.475H79.6451V11.725H73.9701ZM82.5664 16.625H82.6914C82.8247 16.625 82.9414 16.575 83.0414 16.475C83.1414 16.375 83.2247 16.2583 83.2914 16.125C83.3747 15.9917 83.4331 15.85 83.4664 15.7C83.4997 15.5333 83.5164 15.3833 83.5164 15.25V1.925C83.5164 1.80833 83.4997 1.675 83.4664 1.525C83.4331 1.375 83.3747 1.23333 83.2914 1.1C83.2247 0.966665 83.1414 0.858332 83.0414 0.774999C82.9414 0.674999 82.8331 0.624999 82.7164 0.624999H82.5914V0.374999H86.1414V0.624999H86.0164C85.8831 0.624999 85.7664 0.674999 85.6664 0.774999C85.5664 0.858332 85.4747 0.966665 85.3914 1.1C85.3247 1.23333 85.2664 1.375 85.2164 1.525C85.1831 1.675 85.1664 1.80833 85.1664 1.925V7.1L90.9664 1.325C91.0997 1.19167 91.1664 1.03333 91.1664 0.849999C91.1664 0.699999 91.0997 0.624999 90.9664 0.624999V0.374999H93.6664V0.624999C93.3331 0.641666 93.0331 0.741666 92.7664 0.925C92.5164 1.10833 92.2414 1.35 91.9414 1.65L86.0164 7.575C87.0997 7.60833 87.9747 7.84167 88.6414 8.275C89.3081 8.70833 89.8331 9.30833 90.2164 10.075L92.1914 14.075C92.3081 14.325 92.4581 14.6 92.6414 14.9C92.8414 15.1833 93.0581 15.4583 93.2914 15.725C93.5414 15.975 93.8164 16.1917 94.1164 16.375C94.4164 16.5417 94.7331 16.625 95.0664 16.625V16.875H93.8164C93.3331 16.875 92.9164 16.8083 92.5664 16.675C92.2164 16.525 91.9081 16.3333 91.6414 16.1C91.3914 15.85 91.1664 15.575 90.9664 15.275C90.7831 14.975 90.6164 14.675 90.4664 14.375L88.4414 10.35C88.1247 9.73333 87.6831 9.26667 87.1164 8.95C86.5664 8.61667 85.9164 8.43333 85.1664 8.4V15.25C85.1664 15.3833 85.1831 15.525 85.2164 15.675C85.2497 15.825 85.2997 15.975 85.3664 16.125C85.4331 16.2583 85.5164 16.375 85.6164 16.475C85.7164 16.5583 85.8247 16.6083 85.9414 16.625H86.1164V16.875H82.5664V16.625ZM103.948 0.125C105.248 0.125 106.415 0.358333 107.448 0.825C108.482 1.275 109.357 1.89167 110.073 2.675C110.807 3.44167 111.365 4.34167 111.748 5.375C112.148 6.39167 112.348 7.45833 112.348 8.575C112.348 9.825 112.115 10.975 111.648 12.025C111.198 13.075 110.573 13.975 109.773 14.725C108.973 15.475 108.04 16.0667 106.973 16.5C105.923 16.9167 104.798 17.125 103.598 17.125C102.315 17.125 101.157 16.8917 100.123 16.425C99.1068 15.9583 98.2401 15.3417 97.5234 14.575C96.8234 13.8083 96.2818 12.925 95.8984 11.925C95.5151 10.925 95.3234 9.88333 95.3234 8.8C95.3234 7.73333 95.5151 6.68333 95.8984 5.65C96.2818 4.6 96.8401 3.66667 97.5734 2.85C98.3234 2.03333 99.2318 1.375 100.298 0.874999C101.365 0.374999 102.582 0.125 103.948 0.125ZM103.923 16.25C105.04 16.2 106.015 15.95 106.848 15.5C107.698 15.0333 108.407 14.45 108.973 13.75C109.54 13.0333 109.957 12.25 110.223 11.4C110.507 10.55 110.648 9.70833 110.648 8.875C110.648 7.95833 110.482 7.03333 110.148 6.1C109.815 5.16667 109.34 4.325 108.723 3.575C108.107 2.80833 107.365 2.19167 106.498 1.725C105.648 1.24167 104.69 0.999999 103.623 0.999999C102.59 0.999999 101.665 1.23333 100.848 1.7C100.032 2.15 99.3318 2.73333 98.7484 3.45C98.1818 4.16667 97.7484 4.96667 97.4484 5.85C97.1484 6.73333 96.9984 7.6 96.9984 8.45C96.9984 9.36667 97.1734 10.2917 97.5234 11.225C97.8734 12.1417 98.3568 12.975 98.9734 13.725C99.5901 14.475 100.315 15.0833 101.148 15.55C101.998 16.0167 102.923 16.25 103.923 16.25ZM127.835 16V19.125H127.585C127.568 18.9083 127.51 18.6667 127.41 18.4C127.31 18.1333 127.168 17.8833 126.985 17.65C126.818 17.4333 126.618 17.25 126.385 17.1C126.152 16.95 125.893 16.875 125.61 16.875H114.085C113.802 16.875 113.543 16.95 113.31 17.1C113.077 17.2667 112.868 17.4583 112.685 17.675C112.518 17.9083 112.377 18.1583 112.26 18.425C112.16 18.6917 112.102 18.925 112.085 19.125H111.835V16H112.935C113.468 16 113.843 15.6917 114.06 15.075L119.81 -2.98023e-07L125.61 15C125.727 15.25 125.885 15.4833 126.085 15.7C126.285 15.9 126.518 16 126.785 16H127.835ZM114.61 16H124.235L119.41 3.575L114.61 16Z" fill="#281814"></path></svg> 