<?xml version="1.0" encoding="UTF-8"?> <svg xmlns="http://www.w3.org/2000/svg" width="312" height="46" viewBox="0 0 312 46" fill="none"><path d="M15.55 45.6498C12.5167 45.6498 9.81667 45.0331 7.45 43.7998C5.11667 42.5998 3.28333 40.8165 1.95 38.4498C0.65 36.0498 1.19209e-07 33.1165 1.19209e-07 29.6498C1.19209e-07 27.5831 0.266667 25.5165 0.8 23.4498C1.33333 21.3831 2.05 19.3998 2.95 17.4998C3.88333 15.5998 4.91667 13.8498 6.05 12.2498C5.55 10.2498 5.3 8.08314 5.3 5.7498C5.3 3.98314 5.5 2.2998 5.9 0.699802C6.03333 0.233135 6.26667 -0.000198007 6.6 -0.000198007C6.86667 -0.000198007 6.98333 0.166469 6.95 0.499802C6.85 1.16647 6.76667 1.88314 6.7 2.6498C6.63333 3.38314 6.6 4.26647 6.6 5.2998C6.6 7.23314 6.78333 9.06647 7.15 10.7998C7.48333 10.3665 7.81667 9.96647 8.15 9.5998C9.51667 8.0998 11.1333 6.6998 13 5.3998C14.8667 4.06647 16.9333 2.9998 19.2 2.1998C21.5 1.3998 23.9333 0.999804 26.5 0.999804C28.9 0.999804 31.1 1.4498 33.1 2.3498C35.1 3.21647 36.7 4.48314 37.9 6.1498C39.1333 7.78314 39.75 9.76647 39.75 12.0998C39.75 13.5665 39.35 15.0665 38.55 16.5998C37.7833 18.1331 36.6667 19.5498 35.2 20.8498C33.7667 22.1165 32.0167 23.1498 29.95 23.9498C27.9167 24.7498 25.6333 25.1498 23.1 25.1498C19.7667 25.1498 16.7167 24.4165 13.95 22.9498C11.1833 21.4831 9.03333 19.2498 7.5 16.2498C6.16667 18.6165 5.18333 21.0165 4.55 23.4498C3.91667 25.8831 3.6 28.1998 3.6 30.3998C3.6 33.5998 4.13333 36.1998 5.2 38.1998C6.26667 40.1998 7.73333 41.6665 9.6 42.5998C11.5 43.5665 13.6667 44.0498 16.1 44.0498C20.4333 44.0498 24.2333 42.9498 27.5 40.7498C30.8 38.5831 33.5167 35.2165 35.65 30.6498C36.05 30.6498 36.25 30.7998 36.25 31.0998C34.1833 36.0331 31.35 39.6831 27.75 42.0498C24.1833 44.4498 20.1167 45.6498 15.55 45.6498ZM9.65 12.8998C9.21667 13.4998 8.8 14.1165 8.4 14.7498C9.56667 17.4831 11.35 19.6831 13.75 21.3498C16.15 23.0165 19.1667 23.8498 22.8 23.8498C25.1 23.8498 27.15 23.4998 28.95 22.7998C30.7833 22.0998 32.3167 21.1665 33.55 19.9998C34.8167 18.8331 35.7833 17.5498 36.45 16.1498C37.1167 14.7165 37.45 13.2831 37.45 11.8498C37.45 10.0831 36.9667 8.53314 36 7.1998C35.0667 5.86647 33.7833 4.83314 32.15 4.0998C30.5167 3.33314 28.6667 2.9498 26.6 2.9498C24.5333 2.9498 22.45 3.38314 20.35 4.2498C18.2833 5.11647 16.3167 6.2998 14.45 7.7998C12.6167 9.2998 11.0167 10.9998 9.65 12.8998ZM49.1934 27.9498C49.1934 28.9498 48.9267 30.1498 48.3934 31.5498C47.86 32.9498 47.11 34.3165 46.1434 35.6498C45.1767 36.9831 44.0267 38.0998 42.6934 38.9998C41.3934 39.8665 39.9767 40.2998 38.4434 40.2998C37.11 40.2998 36.1767 39.8998 35.6434 39.0998C35.11 38.2998 34.8434 37.2998 34.8434 36.0998C34.8434 35.4331 34.9267 34.7498 35.0934 34.0498C35.26 33.3498 35.61 32.4331 36.1434 31.2998C35.8434 31.2998 35.6767 31.2331 35.6434 31.0998C35.6434 30.9331 35.6434 30.7831 35.6434 30.6498C35.9767 29.8498 36.46 28.7998 37.0934 27.4998C37.7267 26.1665 38.46 24.7165 39.2934 23.1498C40.1267 21.5498 41.01 19.9498 41.9434 18.3498C42.8767 16.7498 43.81 15.2498 44.7434 13.8498C45.6767 12.4165 46.56 11.2331 47.3934 10.2998C49.56 7.73314 51.6767 5.73314 53.7434 4.2998C55.81 2.83314 57.7934 2.0998 59.6934 2.0998C60.8267 2.0998 61.6934 2.38314 62.2934 2.9498C62.9267 3.48314 63.2434 4.1998 63.2434 5.0998C63.2434 6.33314 62.6767 7.83314 61.5434 9.5998C60.41 11.3331 58.71 13.1331 56.4434 14.9998C55.0767 16.1331 53.26 17.3665 50.9934 18.6998C48.7267 19.9998 46.06 21.0831 42.9934 21.9498H42.8934C41.76 24.0165 40.7434 26.0165 39.8434 27.9498C38.9767 29.8831 38.2934 31.6331 37.7934 33.1998C37.2934 34.7331 37.0434 35.9665 37.0434 36.8998C37.0434 37.3998 37.0934 37.8498 37.1934 38.2498C37.26 38.5165 37.41 38.7665 37.6434 38.9998C37.91 39.1998 38.2267 39.2998 38.5934 39.2998C39.06 39.2998 39.5934 39.1165 40.1934 38.7498C40.8267 38.3831 41.5267 37.7331 42.2934 36.7998C42.76 36.2331 43.2434 35.5498 43.7434 34.7498C44.2434 33.9498 44.71 33.1331 45.1434 32.2998C45.5767 31.4331 45.9267 30.6665 46.1934 29.9998C46.76 28.6665 47.0434 27.4498 47.0434 26.3498C47.0434 25.2831 46.7934 24.5831 46.2934 24.2498C45.8267 23.9165 45.11 23.7498 44.1434 23.7498C43.5434 23.7498 43.2434 23.5831 43.2434 23.2498C43.2434 23.1165 43.3267 22.9831 43.4934 22.8498C43.6934 22.7165 43.96 22.6498 44.2934 22.6498C45.56 22.6498 46.6934 23.1165 47.6934 24.0498C48.6934 24.9831 49.1934 26.2831 49.1934 27.9498ZM59.6934 3.7498C58.56 3.7498 57.31 4.23314 55.9434 5.1998C54.61 6.13314 53.2267 7.3998 51.7934 8.9998C50.36 10.5998 48.9434 12.4165 47.5434 14.4498C46.1767 16.4498 44.8767 18.5165 43.6434 20.6498C46.21 19.8498 48.5434 18.8331 50.6434 17.5998C52.7434 16.3331 54.4434 15.1665 55.7434 14.0998C57.71 12.4665 59.1767 10.8998 60.1434 9.3998C61.11 7.86647 61.5934 6.61647 61.5934 5.6498C61.5934 5.08314 61.4267 4.63314 61.0934 4.2998C60.7934 3.93314 60.3267 3.7498 59.6934 3.7498ZM51.5172 39.5498C52.0839 39.5498 52.7839 39.2331 53.6172 38.5998C54.4839 37.9331 55.3839 37.0998 56.3172 36.0998C57.2505 35.0665 58.1172 33.9831 58.9172 32.8498C58.5172 32.9498 58.1005 32.9998 57.6672 32.9998C56.4672 32.9998 55.5839 32.6831 55.0172 32.0498C54.4839 31.4165 54.2172 30.6331 54.2172 29.6998C54.2172 28.6998 54.5005 27.6665 55.0672 26.5998C55.6339 25.4998 56.4172 24.5831 57.4172 23.8498C58.4505 23.1165 59.6005 22.7498 60.8672 22.7498C62.5339 22.7498 63.5339 23.4665 63.8672 24.8998C63.9672 24.6331 64.0839 24.3831 64.2172 24.1498C64.4172 23.7498 64.6839 23.4831 65.0172 23.3498C65.3505 23.1831 65.7505 23.0998 66.2172 23.0998H68.9172C68.6172 23.3331 68.0505 23.8831 67.2172 24.7498C66.4172 25.5831 65.4839 27.0831 64.4172 29.2498C64.0505 29.9831 63.6505 30.8498 63.2172 31.8498C62.7839 32.8498 62.4172 33.8665 62.1172 34.8998C61.8172 35.9331 61.6672 36.8498 61.6672 37.6498C61.6672 38.7498 62.0505 39.2998 62.8172 39.2998C63.5839 39.2998 64.3505 38.8831 65.1172 38.0498C65.9172 37.1831 66.6839 36.1665 67.4172 34.9998C67.5839 34.9998 67.7172 35.0831 67.8172 35.2498C67.9172 35.3831 67.9672 35.5165 67.9672 35.6498C67.1339 36.9831 66.2005 38.1665 65.1672 39.1998C64.1339 40.1998 62.9505 40.6998 61.6172 40.6998C60.6839 40.6998 60.0172 40.4331 59.6172 39.8998C59.2505 39.3665 59.0672 38.6665 59.0672 37.7998C59.0672 36.9665 59.2005 36.0665 59.4672 35.0998C59.7339 34.1331 60.0505 33.1831 60.4172 32.2498V32.2998C59.4172 33.6665 58.3839 34.9831 57.3172 36.2498C56.2505 37.5165 55.1672 38.5665 54.0672 39.3998C52.9672 40.2331 51.9172 40.6498 50.9172 40.6498C49.9505 40.6498 49.2005 40.3665 48.6672 39.7998C48.1339 39.2331 47.8672 38.5165 47.8672 37.6498C47.8672 36.9831 48.0339 36.3498 48.3672 35.7498C48.7005 35.1498 49.1172 34.6498 49.6172 34.2498C50.1172 33.8498 50.6339 33.6498 51.1672 33.6498C51.4005 33.6498 51.6172 33.6831 51.8172 33.7498C52.0505 33.8165 52.2672 33.9331 52.4672 34.0998C51.8339 34.6331 51.3505 35.2831 51.0172 36.0498C50.6839 36.8165 50.5172 37.4831 50.5172 38.0498C50.5172 38.4498 50.5839 38.7998 50.7172 39.0998C50.8839 39.3998 51.1505 39.5498 51.5172 39.5498ZM58.1672 32.2498C59.0005 32.2498 59.7339 31.9165 60.3672 31.2498C61.0005 30.5498 61.5005 29.6998 61.8672 28.6998C62.2672 27.6665 62.4672 26.6831 62.4672 25.7498C62.4672 24.3165 62.0339 23.5998 61.1672 23.5998C60.6339 23.5998 60.1005 23.8331 59.5672 24.2998C59.0339 24.7331 58.5339 25.3165 58.0672 26.0498C57.6005 26.7498 57.2172 27.4831 56.9172 28.2498C56.6505 29.0165 56.5172 29.7165 56.5172 30.3498C56.5172 30.8831 56.6339 31.3331 56.8672 31.6998C57.1339 32.0665 57.5672 32.2498 58.1672 32.2498ZM75.9582 34.4998V34.4498C74.8582 36.1165 73.5749 37.5498 72.1082 38.7498C70.6749 39.9165 69.2915 40.4998 67.9582 40.4998C66.9249 40.4998 66.1249 40.2331 65.5582 39.6998C64.9915 39.1665 64.7082 38.5165 64.7082 37.7498C64.7082 36.8498 65.0249 36.0165 65.6582 35.2498C66.2915 34.4831 66.9749 34.0998 67.7082 34.0998C67.9749 34.0998 68.2082 34.1998 68.4082 34.3998C67.9415 34.9331 67.5415 35.5665 67.2082 36.2998C66.8749 36.9998 66.7082 37.6331 66.7082 38.1998V38.3498C66.7082 39.0498 67.0082 39.3998 67.6082 39.3998C68.1082 39.3998 68.6915 39.1665 69.3582 38.6998C70.0249 38.1998 70.6749 37.6165 71.3082 36.9498C71.9749 36.2498 72.4915 35.6331 72.8582 35.0998C73.1915 34.6331 73.6082 33.9331 74.1082 32.9998C74.6082 32.0665 75.0582 31.0165 75.4582 29.8498C75.8582 28.6831 76.0582 27.5498 76.0582 26.4498C76.0915 25.5831 75.9582 24.9165 75.6582 24.4498C75.3915 23.9831 75.0249 23.7498 74.5582 23.7498C73.8915 23.7498 73.2915 23.9998 72.7582 24.4998C72.2249 24.9998 71.6582 25.9331 71.0582 27.2998C70.6249 27.3331 70.3415 27.2665 70.2082 27.0998C70.0749 26.9331 70.0082 26.7498 70.0082 26.5498C70.0082 26.1498 70.2915 25.6498 70.8582 25.0498C71.4249 24.4498 72.1249 23.9165 72.9582 23.4498C73.7915 22.9498 74.5915 22.6998 75.3582 22.6998C76.4249 22.6998 77.2582 23.0498 77.8582 23.7498C78.4915 24.4498 78.8082 25.4165 78.8082 26.6498C78.8082 27.3165 78.7082 28.0331 78.5082 28.7998C78.3415 29.5331 78.0915 30.2831 77.7582 31.0498C78.4249 30.2498 79.1582 29.4165 79.9582 28.5498C80.7582 27.6498 81.5249 26.8165 82.2582 26.0498C83.0249 25.2498 83.6915 24.5998 84.2582 24.0998C84.8249 23.5665 85.2082 23.2831 85.4082 23.2498C85.8415 23.3831 86.0915 23.5998 86.1582 23.8998C86.2582 24.1998 86.2915 24.4831 86.2582 24.7498C86.2249 24.9831 86.1415 25.2831 86.0082 25.6498C85.9082 25.9831 85.6749 26.4498 85.3082 27.0498C84.6749 28.1165 84.0582 29.2665 83.4582 30.4998C82.8582 31.6998 82.1749 33.2331 81.4082 35.0998C82.9415 32.8998 84.5415 30.8998 86.2082 29.0998C87.9082 27.2998 89.5582 25.8165 91.1582 24.6498C91.9249 24.0165 92.6915 23.5165 93.4582 23.1498C94.2582 22.7831 94.9749 22.5998 95.6082 22.5998C96.4082 22.5998 97.0582 22.8665 97.5582 23.3998C98.0582 23.9331 98.3082 24.5831 98.3082 25.3498C98.3082 25.9831 98.1415 26.5831 97.8082 27.1498C97.4749 27.7165 97.0915 28.1831 96.6582 28.5498C96.2249 28.8831 95.8582 29.0498 95.5582 29.0498C95.3582 29.0498 95.1582 28.9498 94.9582 28.7498C95.2249 28.3831 95.5082 27.9665 95.8082 27.4998C96.1415 27.0331 96.3749 26.5831 96.5082 26.1498C96.6082 25.7498 96.6582 25.3498 96.6582 24.9498C96.6582 24.4831 96.5582 24.1665 96.3582 23.9998C96.1582 23.7998 95.8749 23.6998 95.5082 23.6998C94.7749 23.6998 94.0082 24.0998 93.2082 24.8998C92.4082 25.6998 91.6749 26.7331 91.0082 27.9998C90.3415 29.2331 89.7915 30.5498 89.3582 31.9498C88.9249 33.3498 88.6915 34.6331 88.6582 35.7998C88.6249 36.6665 88.7582 37.4998 89.0582 38.2998C89.3582 39.0665 89.9582 39.4498 90.8582 39.4498C91.8915 39.4498 92.9082 39.0331 93.9082 38.1998C94.9415 37.3665 95.9249 36.2831 96.8582 34.9498C97.7915 33.5831 98.6082 32.1498 99.3082 30.6498C99.4415 30.6498 99.5749 30.6831 99.7082 30.7498C99.8415 30.7831 99.9082 30.8998 99.9082 31.0998C99.1749 32.7665 98.2915 34.3165 97.2582 35.7498C96.2582 37.1831 95.1415 38.3331 93.9082 39.1998C92.7082 40.0665 91.4415 40.4998 90.1082 40.4998C88.7082 40.4998 87.6415 40.0331 86.9082 39.0998C86.2082 38.1665 85.8582 37.0331 85.8582 35.6998C85.8582 34.5331 86.0915 33.2331 86.5582 31.7998C87.0582 30.3665 87.6582 29.0665 88.3582 27.8998C87.1582 28.9998 85.9749 30.2498 84.8082 31.6498C83.6749 33.0498 82.6749 34.4831 81.8082 35.9498C80.9415 37.4165 80.3415 38.7665 80.0082 39.9998C79.5415 39.9998 79.2249 39.7998 79.0582 39.3998C78.8915 38.9665 78.8082 38.5165 78.8082 38.0498C78.8082 37.0831 79.0249 35.9665 79.4582 34.6998C79.8915 33.4331 80.3082 32.3665 80.7082 31.4998C81.2749 30.3331 81.7915 29.3165 82.2582 28.4498C82.7249 27.5498 83.1249 26.7998 83.4582 26.1998C83.3249 26.1998 83.0415 26.4165 82.6082 26.8498C82.2082 27.2498 81.7415 27.7498 81.2082 28.3498C80.7082 28.9498 80.2415 29.4998 79.8082 29.9998C78.8082 31.1331 77.9915 32.0498 77.3582 32.7498C76.7249 33.4498 76.2582 34.0331 75.9582 34.4998ZM100.765 40.2998C100.399 40.2998 99.9486 40.2165 99.4152 40.0498C98.9152 39.8831 98.4652 39.5831 98.0652 39.1498C97.6986 38.6831 97.5152 37.9998 97.5152 37.0998C97.5152 36.2331 97.7986 35.2331 98.3652 34.0998C98.9319 32.9665 99.4319 31.9665 99.8652 31.0998C99.4986 31.0998 99.3152 30.9498 99.3152 30.6498C99.3486 30.5498 99.4986 30.2331 99.7652 29.6998C100.032 29.1665 100.349 28.5331 100.715 27.7998C101.082 27.0665 101.432 26.3665 101.765 25.6998C102.132 24.9998 102.415 24.4665 102.615 24.0998C103.015 23.3665 103.649 22.9998 104.515 22.9998H107.615C107.049 23.4331 106.532 23.9165 106.065 24.4498C105.632 24.9498 105.082 25.8831 104.415 27.2498C104.415 27.2498 104.299 27.4831 104.065 27.9498C103.832 28.4165 103.532 29.0165 103.165 29.7498C102.832 30.4498 102.482 31.1665 102.115 31.8998C101.782 32.6331 101.499 33.2498 101.265 33.7498C100.832 34.6831 100.549 35.4331 100.415 35.9998C100.282 36.5331 100.215 37.0331 100.215 37.4998C100.215 38.5998 100.582 39.1498 101.315 39.1498C102.115 39.1498 103.082 38.4998 104.215 37.1998C105.149 36.0998 106.065 34.7831 106.965 33.2498C107.865 31.7165 108.715 30.1331 109.515 28.4998C110.349 26.8665 111.082 25.3998 111.715 24.0998C112.082 23.3665 112.732 22.9998 113.665 22.9998H116.415C115.682 23.5998 114.932 24.4998 114.165 25.6998C113.432 26.8998 112.615 28.4331 111.715 30.2998C111.482 30.7998 111.182 31.4331 110.815 32.1998C110.449 32.9665 110.115 33.7831 109.815 34.6498C109.549 35.5165 109.415 36.3831 109.415 37.2498C109.415 38.4165 109.832 38.9998 110.665 38.9998C111.799 38.9998 112.899 38.2165 113.965 36.6498C115.032 35.0831 116.082 33.0831 117.115 30.6498C117.382 30.6498 117.532 30.6665 117.565 30.6998C117.632 30.7331 117.682 30.8665 117.715 31.0998C117.349 31.9998 116.899 32.9831 116.365 34.0498C115.865 35.0831 115.282 36.0831 114.615 37.0498C113.982 38.0165 113.265 38.7998 112.465 39.3998C111.699 39.9998 110.849 40.2998 109.915 40.2998C109.082 40.2998 108.399 39.9998 107.865 39.3998C107.332 38.7665 107.065 37.8831 107.065 36.7498C107.065 35.8498 107.232 34.8831 107.565 33.8498C106.999 34.8498 106.349 35.8498 105.615 36.8498C104.882 37.8498 104.099 38.6831 103.265 39.3498C102.432 39.9831 101.599 40.2998 100.765 40.2998ZM133.888 20.6498C133.054 20.6498 132.171 20.5331 131.238 20.2998C130.338 20.0665 129.421 19.8331 128.488 19.5998C127.588 19.3665 126.738 19.2498 125.938 19.2498C125.271 19.2498 124.654 19.3665 124.088 19.5998C123.521 19.7998 123.054 20.2165 122.688 20.8498L122.538 21.0998C122.438 21.2331 122.354 21.2998 122.288 21.2998C122.221 21.2998 122.154 21.2498 122.088 21.1498C122.021 21.0498 122.004 20.9331 122.038 20.7998C122.404 19.8665 123.071 19.1331 124.038 18.5998C125.004 18.0331 126.104 17.7498 127.338 17.7498C128.204 17.7498 129.304 17.8665 130.638 18.0998C132.004 18.3331 133.238 18.4498 134.338 18.4498C135.038 18.4498 135.821 18.4165 136.688 18.3498C137.588 18.2498 138.438 18.0331 139.238 17.6998C140.071 17.3331 140.704 16.7498 141.138 15.9498C141.471 15.9498 141.638 16.0665 141.638 16.2998C141.004 17.7998 140.138 18.8998 139.038 19.5998C137.938 20.2998 136.221 20.6498 133.888 20.6498ZM113.987 40.2998C113.621 40.2998 113.321 40.2998 113.087 40.2998C112.821 40.3331 112.554 40.4165 112.287 40.5498C113.521 38.1831 114.688 35.8165 115.788 33.4498C116.888 31.0498 118.004 28.7831 119.138 26.6498C119.804 25.4498 120.354 24.6165 120.787 24.1498C121.254 23.6498 121.871 23.3998 122.638 23.3998C122.904 23.3998 123.188 23.4498 123.488 23.5498C123.788 23.6165 124.088 23.6498 124.388 23.6498C124.588 23.6498 124.738 23.6331 124.838 23.5998C124.371 23.8665 123.771 24.5331 123.038 25.5998C122.304 26.6331 121.554 27.8331 120.787 29.1998C120.021 30.5665 119.338 31.8498 118.738 33.0498C119.371 32.2831 120.021 31.5165 120.688 30.7498C121.388 29.9831 122.154 29.2498 122.988 28.5498C123.721 27.9165 124.488 27.2331 125.288 26.4998C126.121 25.7331 126.938 25.0831 127.738 24.5498C128.538 24.0165 129.238 23.7498 129.838 23.7498C130.071 23.7498 130.221 23.7665 130.288 23.7998C130.921 24.0665 131.238 24.4998 131.238 25.0998C131.238 25.2998 131.154 25.5998 130.988 25.9998C130.554 27.1331 129.988 28.2998 129.288 29.4998C128.621 30.6665 127.988 31.8498 127.387 33.0498C127.888 32.4498 128.504 31.7165 129.238 30.8498C130.004 29.9831 130.771 29.2165 131.538 28.5498C132.271 27.8831 133.204 27.1831 134.338 26.4498C135.471 25.7165 136.588 25.0831 137.688 24.5498C138.788 24.0165 139.671 23.7498 140.338 23.7498C140.571 23.7498 140.738 23.7665 140.838 23.7998C140.838 23.7998 140.654 24.1331 140.288 24.7998C139.921 25.4331 139.454 26.2831 138.888 27.3498C138.354 28.3831 137.804 29.4998 137.238 30.6998C136.671 31.8665 136.154 32.9998 135.688 34.0998C135.254 35.1665 134.971 36.0665 134.838 36.7998C134.738 37.2331 134.688 37.6331 134.688 37.9998C134.688 38.5331 134.788 38.8831 134.988 39.0498C135.188 39.2165 135.404 39.2998 135.638 39.2998C136.304 39.2998 136.954 39.0165 137.588 38.4498C138.254 37.8831 138.904 37.1665 139.538 36.2998C140.171 35.3998 140.738 34.4498 141.238 33.4498C141.771 32.4498 142.221 31.5165 142.588 30.6498C142.988 30.6498 143.188 30.7998 143.188 31.0998C142.821 31.9998 142.354 32.9998 141.788 34.0998C141.254 35.1665 140.638 36.1831 139.938 37.1498C139.238 38.1165 138.471 38.9165 137.638 39.5498C136.804 40.1831 135.904 40.4998 134.938 40.4998C134.238 40.4998 133.571 40.2665 132.938 39.7998C132.338 39.3331 132.038 38.4665 132.038 37.1998C132.038 35.8331 132.354 34.4665 132.988 33.0998C133.654 31.7331 134.338 30.4831 135.038 29.3498C135.371 28.7831 135.538 28.3331 135.538 27.9998C135.538 27.5998 135.338 27.3998 134.938 27.3998C134.604 27.3998 134.138 27.5665 133.538 27.8998C132.971 28.2331 132.254 28.8165 131.388 29.6498C130.854 30.1498 130.221 30.8498 129.488 31.7498C128.788 32.6165 128.071 33.5665 127.338 34.5998C126.604 35.6331 125.971 36.6498 125.438 37.6498C124.904 38.6498 124.554 39.5331 124.388 40.2998C123.888 40.2998 123.488 40.0998 123.188 39.6998C122.888 39.2665 122.738 38.7665 122.738 38.1998C122.738 38.0998 122.738 37.9998 122.738 37.8998C122.738 37.7998 122.754 37.6831 122.788 37.5498C122.954 36.5165 123.221 35.6498 123.588 34.9498C123.954 34.2165 124.371 33.3665 124.838 32.3998C125.071 31.9665 125.338 31.4665 125.638 30.8998C125.938 30.2998 126.204 29.7331 126.438 29.1998C126.671 28.6331 126.788 28.1665 126.788 27.7998C126.788 27.4665 126.654 27.2998 126.388 27.2998C126.088 27.2998 125.688 27.4498 125.188 27.7498C124.721 28.0498 124.271 28.3998 123.838 28.7998C123.404 29.1665 123.071 29.4498 122.838 29.6498C122.004 30.4498 120.988 31.5998 119.788 33.0998C118.621 34.5998 117.338 36.7331 115.938 39.4998C115.738 39.8665 115.504 40.0998 115.238 40.1998C114.971 40.2665 114.554 40.2998 113.987 40.2998ZM146.177 40.4998C144.944 40.4998 143.827 40.0998 142.827 39.2998C141.86 38.4998 141.377 37.2831 141.377 35.6498C141.377 34.2831 141.677 32.8331 142.277 31.2998C142.91 29.7665 143.727 28.3331 144.727 26.9998C145.76 25.6331 146.894 24.5331 148.127 23.6998C149.394 22.8331 150.66 22.3998 151.927 22.3998C152.56 22.3998 153.177 22.5831 153.777 22.9498C154.377 23.3165 154.677 23.9498 154.677 24.8498C154.677 25.6831 154.36 26.5998 153.727 27.5998C153.094 28.5998 152.194 29.5331 151.027 30.3998C150.527 30.7665 149.894 31.1165 149.127 31.4498C148.36 31.7831 147.594 32.0665 146.827 32.2998C146.06 32.4998 145.427 32.5998 144.927 32.5998C144.76 32.9998 144.594 33.5331 144.427 34.1998C144.294 34.8665 144.227 35.5498 144.227 36.2498C144.227 37.0831 144.394 37.8331 144.727 38.4998C145.06 39.1665 145.677 39.4998 146.577 39.4998C147.677 39.4998 148.694 39.1831 149.627 38.5498C150.594 37.9165 151.444 37.1165 152.177 36.1498C152.944 35.1831 153.594 34.1998 154.127 33.1998C154.66 32.1998 155.077 31.3498 155.377 30.6498C155.777 30.6498 155.977 30.7998 155.977 31.0998C155.544 32.0331 155.044 33.0498 154.477 34.1498C153.944 35.2498 153.294 36.2831 152.527 37.2498C151.794 38.1831 150.894 38.9665 149.827 39.5998C148.794 40.1998 147.577 40.4998 146.177 40.4998ZM145.277 31.6998C145.744 31.6998 146.527 31.5331 147.627 31.1998C148.727 30.8331 149.727 30.2665 150.627 29.4998C151.494 28.7331 152.16 27.8998 152.627 26.9998C153.094 26.0665 153.327 25.2831 153.327 24.6498C153.327 23.9165 153.06 23.5498 152.527 23.5498C152.127 23.5498 151.577 23.8165 150.877 24.3498C150.177 24.8831 149.31 25.7831 148.277 27.0498C147.644 27.8498 147.044 28.7165 146.477 29.6498C145.91 30.5831 145.51 31.2665 145.277 31.6998ZM159.67 40.4998C157.837 40.4998 156.47 40.0165 155.57 39.0498C154.703 38.0831 154.27 36.7831 154.27 35.1498C154.27 34.3831 154.42 33.4998 154.72 32.4998C155.02 31.4998 155.42 30.4831 155.92 29.4498C156.42 28.4165 156.97 27.4998 157.57 26.6998C158.537 25.3998 159.603 24.3998 160.77 23.6998C161.937 22.9665 163.12 22.5998 164.32 22.5998C165.587 22.5998 166.487 22.8831 167.02 23.4498C167.587 23.9831 167.87 24.6165 167.87 25.3498C167.87 26.0498 167.703 26.6831 167.37 27.2498C167.037 27.7831 166.653 28.2165 166.22 28.5498C165.82 28.8831 165.47 29.0498 165.17 29.0498C164.903 29.0498 164.67 28.9498 164.47 28.7498C164.737 28.4165 165.02 28.0165 165.32 27.5498C165.62 27.0831 165.837 26.6331 165.97 26.1998C166.103 25.7998 166.17 25.3998 166.17 24.9998C166.17 24.1331 165.77 23.6998 164.97 23.6998C164.003 23.6998 163.053 24.0998 162.12 24.8998C161.22 25.6998 160.387 26.7331 159.62 27.9998C158.887 29.2331 158.287 30.5498 157.82 31.9498C157.387 33.3165 157.17 34.5831 157.17 35.7498C157.17 36.8165 157.387 37.6998 157.82 38.3998C158.287 39.0998 159.037 39.4498 160.07 39.4498C161.437 39.4498 162.637 39.0165 163.67 38.1498C164.703 37.2498 165.62 36.1331 166.42 34.7998C167.22 33.4331 167.92 32.0498 168.52 30.6498C168.653 30.6498 168.787 30.6831 168.92 30.7498C169.053 30.7831 169.12 30.8998 169.12 31.0998C168.453 32.7665 167.67 34.3165 166.77 35.7498C165.87 37.1831 164.837 38.3331 163.67 39.1998C162.537 40.0665 161.203 40.4998 159.67 40.4998ZM179.055 34.0498C178.488 35.2165 177.771 36.2998 176.905 37.2998C176.038 38.2998 175.055 39.1165 173.955 39.7498C172.855 40.3498 171.655 40.6498 170.355 40.6498C168.988 40.6498 168.005 40.2665 167.405 39.4998C166.838 38.7331 166.555 37.7831 166.555 36.6498C166.555 35.9831 166.638 35.3331 166.805 34.6998C166.971 34.0665 167.171 33.4331 167.405 32.7998C167.738 31.9998 168.205 31.0331 168.805 29.8998C169.405 28.7665 170.071 27.6498 170.805 26.5498C171.538 25.4498 172.271 24.5331 173.005 23.7998C173.738 23.0665 174.388 22.6998 174.955 22.6998C175.221 22.6998 175.505 22.7498 175.805 22.8498C176.105 22.9165 176.421 22.9498 176.755 22.9498C176.888 22.9498 177.005 22.9331 177.105 22.8998C176.905 22.9998 176.588 23.3165 176.155 23.8498C175.721 24.3498 175.221 24.9665 174.655 25.6998C174.121 26.4331 173.571 27.1831 173.005 27.9498C172.438 28.7165 171.938 29.3998 171.505 29.9998C172.071 29.3998 172.821 28.7998 173.755 28.1998C174.688 27.5665 175.671 27.2498 176.705 27.2498C177.838 27.2498 178.671 27.5665 179.205 28.1998C179.738 28.8331 180.005 29.5831 180.005 30.4498C180.005 31.0498 179.905 31.6831 179.705 32.3498C179.538 32.9831 179.321 33.5498 179.055 34.0498ZM176.255 34.8498C176.655 34.0831 176.938 33.3665 177.105 32.6998C177.271 31.9998 177.355 31.4331 177.355 30.9998C177.355 30.3331 177.221 29.7831 176.955 29.3498C176.688 28.8831 176.221 28.6498 175.555 28.6498C174.721 28.6498 173.805 29.1165 172.805 30.0498C171.805 30.9831 170.905 32.1831 170.105 33.6498C169.605 34.5831 169.238 35.3998 169.005 36.0998C168.805 36.7998 168.705 37.4665 168.705 38.0998C168.705 38.6331 168.838 39.0665 169.105 39.3998C169.371 39.7331 169.855 39.8998 170.555 39.8998C171.288 39.8998 172.221 39.4498 173.355 38.5498C174.521 37.6165 175.488 36.3831 176.255 34.8498ZM196.486 40.4998C194.653 40.4998 193.286 40.0165 192.386 39.0498C191.52 38.0831 191.086 36.7831 191.086 35.1498C191.086 34.3831 191.236 33.4998 191.536 32.4998C191.836 31.4998 192.236 30.4831 192.736 29.4498C193.236 28.4165 193.786 27.4998 194.386 26.6998C195.353 25.3998 196.42 24.3998 197.586 23.6998C198.753 22.9665 199.936 22.5998 201.136 22.5998C202.403 22.5998 203.303 22.8831 203.836 23.4498C204.403 23.9831 204.686 24.6165 204.686 25.3498C204.686 26.0498 204.52 26.6831 204.186 27.2498C203.853 27.7831 203.47 28.2165 203.036 28.5498C202.636 28.8831 202.286 29.0498 201.986 29.0498C201.72 29.0498 201.486 28.9498 201.286 28.7498C201.553 28.4165 201.836 28.0165 202.136 27.5498C202.436 27.0831 202.653 26.6331 202.786 26.1998C202.92 25.7998 202.986 25.3998 202.986 24.9998C202.986 24.1331 202.586 23.6998 201.786 23.6998C200.82 23.6998 199.87 24.0998 198.936 24.8998C198.036 25.6998 197.203 26.7331 196.436 27.9998C195.703 29.2331 195.103 30.5498 194.636 31.9498C194.203 33.3165 193.986 34.5831 193.986 35.7498C193.986 36.8165 194.203 37.6998 194.636 38.3998C195.103 39.0998 195.853 39.4498 196.886 39.4498C198.253 39.4498 199.453 39.0165 200.486 38.1498C201.52 37.2498 202.436 36.1331 203.236 34.7998C204.036 33.4331 204.736 32.0498 205.336 30.6498C205.47 30.6498 205.603 30.6831 205.736 30.7498C205.87 30.7831 205.936 30.8998 205.936 31.0998C205.27 32.7665 204.486 34.3165 203.586 35.7498C202.686 37.1831 201.653 38.3331 200.486 39.1998C199.353 40.0665 198.02 40.4998 196.486 40.4998ZM213.871 22.7498C215.238 22.7498 216.238 23.2165 216.871 24.1498C217.538 25.0831 217.871 26.2665 217.871 27.6998C217.871 28.9998 217.604 30.3831 217.071 31.8498C216.538 33.2831 215.804 34.6498 214.871 35.9498C213.971 37.2165 212.954 38.2665 211.821 39.0998C210.688 39.8998 209.521 40.2998 208.321 40.2998C206.954 40.2998 205.938 39.8165 205.271 38.8498C204.638 37.8498 204.321 36.6498 204.321 35.2498C204.321 33.9498 204.571 32.5998 205.071 31.1998C205.604 29.6665 206.338 28.2665 207.271 26.9998C208.238 25.7331 209.288 24.7165 210.421 23.9498C211.588 23.1498 212.738 22.7498 213.871 22.7498ZM209.021 39.1998C209.821 39.1998 210.654 38.8498 211.521 38.1498C212.421 37.4165 213.254 36.4665 214.021 35.2998C214.788 34.1331 215.404 32.8498 215.871 31.4498C216.371 30.0498 216.621 28.6665 216.621 27.2998C216.621 26.4331 216.454 25.7331 216.121 25.1998C215.821 24.6331 215.338 24.3498 214.671 24.3498C213.971 24.3498 213.238 24.6498 212.471 25.2498C211.704 25.8498 210.971 26.6498 210.271 27.6498C209.604 28.6498 209.021 29.7665 208.521 30.9998C208.088 32.0331 207.754 33.0165 207.521 33.9498C207.288 34.8498 207.171 35.6831 207.171 36.4498C207.171 37.2831 207.321 37.9498 207.621 38.4498C207.921 38.9498 208.388 39.1998 209.021 39.1998ZM228.495 37.9998C228.495 38.3331 228.561 38.6498 228.695 38.9498C228.861 39.2165 229.128 39.3498 229.495 39.3498C230.161 39.3498 230.845 38.9998 231.545 38.2998C232.245 37.5665 232.961 36.6331 233.695 35.4998C234.461 34.3331 235.211 33.1331 235.945 31.8998C237.111 29.9331 238.128 28.2998 238.995 26.9998C239.895 25.6998 240.728 24.7331 241.495 24.0998C241.995 23.6665 242.428 23.3998 242.795 23.2998C243.161 23.1665 243.528 23.0998 243.895 23.0998H244.245C245.611 23.0998 245.995 23.7331 245.395 24.9998L243.595 28.7498C243.295 29.3498 242.928 30.0998 242.495 30.9998C242.095 31.8665 241.695 32.7665 241.295 33.6998C240.895 34.5998 240.578 35.4665 240.345 36.2998C240.111 37.0998 240.028 37.7498 240.095 38.2498C240.161 38.7498 240.461 38.9998 240.995 38.9998C241.428 38.9998 241.945 38.6331 242.545 37.8998C243.178 37.1331 243.845 36.1665 244.545 34.9998C245.278 33.8331 246.011 32.5998 246.745 31.2998C247.511 29.9998 248.261 28.7665 248.995 27.5998C249.761 26.4331 250.478 25.4998 251.145 24.7998C251.311 24.6331 251.678 24.3165 252.245 23.8498C252.811 23.3498 253.361 23.0998 253.895 23.0998H254.245C254.845 23.0998 255.261 23.2498 255.495 23.5498C255.728 23.8165 255.678 24.2998 255.345 24.9998L253.595 28.7498C253.295 29.3498 252.928 30.0998 252.495 30.9998C252.095 31.8665 251.695 32.7665 251.295 33.6998C250.928 34.5998 250.628 35.4665 250.395 36.2998C250.195 37.0998 250.128 37.7498 250.195 38.2498C250.295 38.7498 250.628 38.9998 251.195 38.9998C252.028 38.9998 252.845 38.5665 253.645 37.6998C254.478 36.8331 255.261 35.7665 255.995 34.4998C256.728 33.1998 257.378 31.9165 257.945 30.6498C258.078 30.6498 258.211 30.6998 258.345 30.7998C258.478 30.8665 258.545 30.9665 258.545 31.0998C257.945 32.5998 257.245 34.0498 256.445 35.4498C255.678 36.8498 254.795 37.9998 253.795 38.8998C252.795 39.7998 251.645 40.2498 250.345 40.2498C249.245 40.2498 248.495 39.9165 248.095 39.2498C247.695 38.5831 247.561 37.6998 247.695 36.5998C247.861 35.4665 248.195 34.2165 248.695 32.8498C249.228 31.4498 249.861 30.0331 250.595 28.5998C251.328 27.1665 252.078 25.8165 252.845 24.5498C252.978 24.3165 252.978 24.1998 252.845 24.1998C252.745 24.1998 252.528 24.3831 252.195 24.7498C251.861 25.1165 251.661 25.3331 251.595 25.3998C250.728 26.3665 249.911 27.4998 249.145 28.7998C248.411 30.0665 247.678 31.3665 246.945 32.6998C246.245 34.0331 245.528 35.2831 244.795 36.4498C244.061 37.5831 243.295 38.4998 242.495 39.1998C241.695 39.8998 240.811 40.2498 239.845 40.2498C238.778 40.2498 238.095 39.8165 237.795 38.9498C237.528 38.0498 237.561 36.8498 237.895 35.3498C238.261 33.8498 238.878 32.1665 239.745 30.2998C240.611 28.4331 241.645 26.5165 242.845 24.5498C242.978 24.3165 242.961 24.1998 242.795 24.1998C242.628 24.1998 242.278 24.4665 241.745 24.9998C241.378 25.3665 241.011 25.7831 240.645 26.2498C240.311 26.7165 239.861 27.4165 239.295 28.3498C238.728 29.2498 237.928 30.5998 236.895 32.3998C236.128 33.7331 235.328 35.0165 234.495 36.2498C233.695 37.4831 232.845 38.4998 231.945 39.2998C231.045 40.0665 230.061 40.4498 228.995 40.4498C228.195 40.4498 227.478 40.2165 226.845 39.7498C226.211 39.2498 225.895 38.5331 225.895 37.5998C225.895 37.0331 226.028 36.4165 226.295 35.7498C226.528 35.0831 226.878 34.5165 227.345 34.0498C227.845 33.5831 228.445 33.3831 229.145 33.4498C229.611 33.4831 230.028 33.6665 230.395 33.9998C229.795 34.5665 229.328 35.2331 228.995 35.9998C228.661 36.7665 228.495 37.4331 228.495 37.9998ZM257.558 39.5498C257.524 39.8831 257.324 40.1165 256.958 40.2498C256.624 40.3498 256.291 40.3998 255.958 40.3998C255.424 40.3998 255.024 40.4831 254.758 40.6498C254.758 39.9831 254.941 39.0498 255.308 37.8498C255.674 36.6165 256.108 35.2998 256.608 33.8998C257.141 32.4665 257.674 31.1331 258.208 29.8998C258.774 28.6331 259.241 27.6498 259.608 26.9498C260.408 25.4831 261.074 24.5498 261.608 24.1498C262.174 23.7498 262.824 23.5498 263.558 23.5498C264.224 23.5498 264.691 23.5831 264.958 23.6498C265.258 23.6831 265.474 23.6998 265.608 23.6998C264.874 24.0998 264.008 25.0331 263.008 26.4998C262.041 27.9665 261.124 29.5998 260.258 31.3998C260.524 31.1331 260.824 30.9165 261.158 30.7498C261.524 30.5831 261.941 30.4998 262.408 30.4998C263.041 30.4998 263.591 30.6165 264.058 30.8498C264.524 31.0498 265.174 31.1498 266.008 31.1498C266.641 31.1498 267.058 30.9498 267.258 30.5498C267.791 29.3498 268.341 28.1831 268.908 27.0498C269.474 25.8831 269.941 24.9165 270.308 24.1498C270.508 23.7165 270.774 23.4331 271.108 23.2998C271.474 23.1665 271.874 23.0998 272.308 23.0998H275.008C274.441 23.5665 273.958 23.9998 273.558 24.3998C273.191 24.7665 272.824 25.2165 272.458 25.7498C272.124 26.2831 271.691 27.0498 271.158 28.0498C270.724 28.8831 270.208 29.9665 269.608 31.2998C269.008 32.6331 268.558 33.8165 268.258 34.8498C268.124 35.2165 268.008 35.6498 267.908 36.1498C267.841 36.6498 267.808 37.1165 267.808 37.5498C267.808 38.0831 267.891 38.5331 268.058 38.8998C268.224 39.2665 268.508 39.4498 268.908 39.4498C269.541 39.4498 270.191 39.1831 270.858 38.6498C271.524 38.0831 272.174 37.3665 272.808 36.4998C273.441 35.5998 274.024 34.6331 274.558 33.5998C275.124 32.5665 275.608 31.5831 276.008 30.6498C276.274 30.6498 276.441 30.6831 276.508 30.7498C276.574 30.8165 276.608 30.9331 276.608 31.0998C276.208 32.0998 275.708 33.1665 275.108 34.2998C274.541 35.3998 273.874 36.4331 273.108 37.3998C272.374 38.3665 271.558 39.1665 270.658 39.7998C269.791 40.3998 268.858 40.6998 267.858 40.6998C266.858 40.6998 266.141 40.3998 265.708 39.7998C265.308 39.1998 265.108 38.4498 265.108 37.5498C265.108 37.0831 265.158 36.5831 265.258 36.0498C265.391 35.5165 265.541 34.9831 265.708 34.4498C265.841 34.0498 265.991 33.6331 266.158 33.1998C266.324 32.7331 266.508 32.2831 266.708 31.8498C266.508 32.1165 266.258 32.3331 265.958 32.4998C265.658 32.6331 265.274 32.6998 264.808 32.6998C264.341 32.6998 263.958 32.6331 263.658 32.4998C263.358 32.3665 263.041 32.2331 262.708 32.0998C262.374 31.9665 261.941 31.8998 261.408 31.8998C261.074 31.8998 260.724 31.9665 260.358 32.0998C260.024 32.2331 259.758 32.5331 259.558 32.9998C259.058 34.1665 258.624 35.3165 258.258 36.4498C257.924 37.5831 257.691 38.6165 257.558 39.5498ZM279.024 40.2998C277.658 40.2998 276.641 39.8165 275.974 38.8498C275.341 37.8498 275.024 36.6498 275.024 35.2498C275.024 33.9498 275.274 32.5998 275.774 31.1998C276.308 29.6665 277.041 28.2665 277.974 26.9998C278.941 25.7331 279.991 24.7165 281.124 23.9498C282.291 23.1498 283.441 22.7498 284.574 22.7498C285.941 22.7498 286.941 23.2165 287.574 24.1498C288.241 25.0831 288.574 26.2665 288.574 27.6998C288.574 28.6998 288.408 29.7498 288.074 30.8498C287.741 31.9498 287.291 33.0331 286.724 34.0998C287.158 34.5331 287.774 34.7498 288.574 34.7498C289.508 34.7498 290.308 34.4498 290.974 33.8498C291.641 33.2498 292.291 32.1831 292.924 30.6498C293.324 30.6498 293.524 30.7998 293.524 31.0998C292.891 32.6331 292.158 33.7665 291.324 34.4998C290.524 35.1998 289.491 35.5331 288.224 35.4998C287.458 35.4998 286.824 35.2831 286.324 34.8498C285.391 36.3831 284.274 37.6831 282.974 38.7498C281.708 39.7831 280.391 40.2998 279.024 40.2998ZM279.724 39.1998C280.491 39.1998 281.258 38.8831 282.024 38.2498C282.791 37.5831 283.491 36.8331 284.124 35.9998C284.758 35.1665 285.208 34.4498 285.474 33.8498C284.941 32.8831 284.624 32.1665 284.524 31.6998C284.458 31.1998 284.424 30.8331 284.424 30.5998C284.424 29.9665 284.591 29.4831 284.924 29.1498C285.258 28.8165 285.591 28.6498 285.924 28.6498C286.391 28.6498 286.791 28.8498 287.124 29.2498C287.191 28.8831 287.241 28.5498 287.274 28.2498C287.308 27.9165 287.324 27.5998 287.324 27.2998C287.324 26.4331 287.158 25.7331 286.824 25.1998C286.524 24.6331 286.041 24.3498 285.374 24.3498C284.674 24.3498 283.941 24.6498 283.174 25.2498C282.408 25.8498 281.674 26.6498 280.974 27.6498C280.308 28.6498 279.724 29.7665 279.224 30.9998C278.791 32.0331 278.458 33.0165 278.224 33.9498C277.991 34.8498 277.874 35.6831 277.874 36.4498C277.874 37.2831 278.024 37.9498 278.324 38.4498C278.624 38.9498 279.091 39.1998 279.724 39.1998ZM294.369 40.2998C294.002 40.2998 293.552 40.2165 293.019 40.0498C292.519 39.8831 292.069 39.5831 291.669 39.1498C291.302 38.6831 291.119 37.9998 291.119 37.0998C291.119 36.2331 291.402 35.2331 291.969 34.0998C292.535 32.9665 293.035 31.9665 293.469 31.0998C293.102 31.0998 292.919 30.9498 292.919 30.6498C292.952 30.5498 293.102 30.2331 293.369 29.6998C293.635 29.1665 293.952 28.5331 294.319 27.7998C294.685 27.0665 295.035 26.3665 295.369 25.6998C295.735 24.9998 296.019 24.4665 296.219 24.0998C296.619 23.3665 297.252 22.9998 298.119 22.9998H301.219C300.652 23.4331 300.135 23.9165 299.669 24.4498C299.235 24.9498 298.685 25.8831 298.019 27.2498C298.019 27.2498 297.902 27.4831 297.669 27.9498C297.435 28.4165 297.135 29.0165 296.769 29.7498C296.435 30.4498 296.085 31.1665 295.719 31.8998C295.385 32.6331 295.102 33.2498 294.869 33.7498C294.435 34.6831 294.152 35.4331 294.019 35.9998C293.885 36.5331 293.819 37.0331 293.819 37.4998C293.819 38.5998 294.185 39.1498 294.919 39.1498C295.719 39.1498 296.685 38.4998 297.819 37.1998C298.752 36.0998 299.669 34.7831 300.569 33.2498C301.469 31.7165 302.319 30.1331 303.119 28.4998C303.952 26.8665 304.685 25.3998 305.319 24.0998C305.685 23.3665 306.335 22.9998 307.269 22.9998H310.019C309.285 23.5998 308.535 24.4998 307.769 25.6998C307.035 26.8998 306.219 28.4331 305.319 30.2998C305.085 30.7998 304.785 31.4331 304.419 32.1998C304.052 32.9665 303.719 33.7831 303.419 34.6498C303.152 35.5165 303.019 36.3831 303.019 37.2498C303.019 38.4165 303.435 38.9998 304.269 38.9998C305.402 38.9998 306.502 38.2165 307.569 36.6498C308.635 35.0831 309.685 33.0831 310.719 30.6498C310.985 30.6498 311.135 30.6665 311.169 30.6998C311.235 30.7331 311.285 30.8665 311.319 31.0998C310.952 31.9998 310.502 32.9831 309.969 34.0498C309.469 35.0831 308.885 36.0831 308.219 37.0498C307.585 38.0165 306.869 38.7998 306.069 39.3998C305.302 39.9998 304.452 40.2998 303.519 40.2998C302.685 40.2998 302.002 39.9998 301.469 39.3998C300.935 38.7665 300.669 37.8831 300.669 36.7498C300.669 35.8498 300.835 34.8831 301.169 33.8498C300.602 34.8498 299.952 35.8498 299.219 36.8498C298.485 37.8498 297.702 38.6831 296.869 39.3498C296.035 39.9831 295.202 40.2998 294.369 40.2998ZM309.969 15.2498C310.302 15.2165 310.502 15.2998 310.569 15.4998C310.635 15.6998 310.669 15.8665 310.669 15.9998C310.135 16.9331 309.335 17.7998 308.269 18.5998C307.235 19.3665 306.019 19.7498 304.619 19.7498C303.319 19.7498 302.252 19.3831 301.419 18.6498C300.585 17.8831 300.169 16.9831 300.169 15.9498C300.169 15.1831 300.369 14.5331 300.769 13.9998C301.202 13.4665 301.752 13.1998 302.419 13.1998C302.952 13.1998 303.319 13.3498 303.519 13.6498C303.752 13.9498 303.869 14.2331 303.869 14.4998C303.869 14.8665 303.719 15.1665 303.419 15.3998C302.819 15.7331 302.519 16.1998 302.519 16.7998C302.519 17.3331 302.685 17.7831 303.019 18.1498C303.385 18.5165 303.985 18.6998 304.819 18.6998C305.885 18.6998 306.885 18.3831 307.819 17.7498C308.752 17.1165 309.469 16.2831 309.969 15.2498Z" fill="#E7E0CB"></path></svg> 