<?xml version="1.0" encoding="UTF-8"?> <svg xmlns="http://www.w3.org/2000/svg" width="227" height="27" viewBox="0 0 227 27" fill="none"><path d="M0.39006 0.420049H0.52506C0.60506 0.420049 0.69506 0.410048 0.79506 0.390048C0.89506 0.360048 1.00006 0.325049 1.11006 0.285048C1.30006 0.225049 1.52506 0.165049 1.78506 0.105048C2.04506 0.0350484 2.36006 4.85778e-05 2.73006 4.85778e-05C3.20006 4.85778e-05 3.61506 0.0650486 3.97506 0.195049C4.34506 0.325048 4.65506 0.500048 4.90506 0.720048C5.16506 0.940048 5.36006 1.19505 5.49006 1.48505C5.62006 1.77505 5.68506 2.08505 5.68506 2.41505C5.68506 2.88505 5.55006 3.30505 5.28006 3.67505C5.02006 4.03505 4.65006 4.34005 4.17006 4.59005C4.85006 4.89005 5.34506 5.27505 5.65506 5.74505C5.97506 6.20505 6.13506 6.70505 6.13506 7.24505C6.13506 7.63505 6.05006 8.01005 5.88006 8.37005C5.72006 8.73005 5.48506 9.04505 5.17506 9.31505C4.86506 9.58505 4.48506 9.80005 4.03506 9.96005C3.58506 10.12 3.07006 10.2 2.49006 10.2C2.07006 10.2 1.73006 10.165 1.47006 10.095C1.21006 10.025 0.98506 9.95005 0.79506 9.87005C0.67506 9.82005 0.56006 9.78005 0.45006 9.75005C0.35006 9.72005 0.24506 9.70505 0.13506 9.70505H6.01327e-05V8.04005H0.15006C0.24006 8.32005 0.36006 8.56505 0.51006 8.77505C0.67006 8.97505 0.85006 9.14005 1.05006 9.27005C1.25006 9.40005 1.46506 9.50005 1.69506 9.57005C1.92506 9.63005 2.16006 9.66005 2.40006 9.66005C2.71006 9.66005 3.01506 9.61005 3.31506 9.51005C3.62506 9.40005 3.89506 9.25005 4.12506 9.06005C4.36506 8.87005 4.55506 8.64005 4.69506 8.37005C4.84506 8.09005 4.92006 7.78005 4.92006 7.44005C4.92006 7.10005 4.85506 6.77505 4.72506 6.46505C4.59506 6.14505 4.41006 5.87005 4.17006 5.64005C3.94006 5.41005 3.66506 5.22505 3.34506 5.08505C3.02506 4.94505 2.67506 4.87505 2.29506 4.87505H1.75506V4.36505H2.37006C2.67006 4.36505 2.95506 4.32505 3.22506 4.24505C3.49506 4.15505 3.73006 4.03005 3.93006 3.87005C4.14006 3.70005 4.30506 3.50005 4.42506 3.27005C4.54506 3.04005 4.60506 2.77505 4.60506 2.47505C4.60506 2.17505 4.54506 1.90505 4.42506 1.66505C4.30506 1.42505 4.14506 1.22505 3.94506 1.06505C3.75506 0.895048 3.53506 0.765048 3.28506 0.675049C3.04506 0.585049 2.79506 0.540049 2.53506 0.540049C2.32506 0.540049 2.12006 0.570049 1.92006 0.630049C1.72006 0.690048 1.53006 0.785048 1.35006 0.915048C1.17006 1.04505 1.01006 1.20505 0.87006 1.39505C0.73006 1.58505 0.62006 1.81505 0.54006 2.08505H0.39006V0.420049ZM11.8634 10.05V9.28505L11.7884 9.36005C11.5384 9.61005 11.2484 9.80505 10.9184 9.94505C10.5984 10.085 10.2084 10.155 9.74842 10.155C9.39842 10.155 9.09842 10.115 8.84842 10.035C8.59842 9.95505 8.39342 9.84505 8.23342 9.70505C8.07342 9.55505 7.95342 9.38505 7.87342 9.19505C7.80342 9.00505 7.76842 8.80505 7.76842 8.59505C7.76842 8.25505 7.85842 7.95505 8.03842 7.69505C8.22842 7.43505 8.49842 7.20505 8.84842 7.00505C9.19842 6.80505 9.62342 6.62505 10.1234 6.46505C10.6334 6.29505 11.2134 6.13005 11.8634 5.97005C11.8434 5.58005 11.7634 5.26505 11.6234 5.02505C11.4834 4.78505 11.3184 4.60005 11.1284 4.47005C10.9384 4.33005 10.7384 4.24005 10.5284 4.20005C10.3184 4.15005 10.1384 4.12505 9.98842 4.12505C9.72842 4.12505 9.49842 4.16505 9.29842 4.24505C9.09842 4.31505 8.92342 4.41505 8.77342 4.54505C8.62342 4.66505 8.49842 4.80505 8.39842 4.96505C8.30842 5.12505 8.23842 5.28505 8.18842 5.44505H8.05342V4.27505C8.14342 4.27505 8.24842 4.24505 8.36842 4.18505C8.48842 4.11505 8.62842 4.04005 8.78842 3.96005C8.95842 3.88005 9.15842 3.81005 9.38842 3.75005C9.62842 3.68005 9.91342 3.64505 10.2434 3.64505C10.7934 3.64505 11.2384 3.71505 11.5784 3.85505C11.9184 3.99505 12.1784 4.18005 12.3584 4.41005C12.5484 4.64005 12.6734 4.90505 12.7334 5.20505C12.7934 5.49505 12.8234 5.79505 12.8234 6.10505V9.07505C12.8234 9.27505 12.8734 9.46505 12.9734 9.64505C13.0734 9.81505 13.2084 9.90005 13.3784 9.90005V10.05H11.8634ZM11.8634 8.62505V6.48005L11.7134 6.51005C11.4734 6.57005 11.1784 6.65005 10.8284 6.75005C10.4884 6.85005 10.1634 6.98005 9.85342 7.14005C9.54342 7.30005 9.27842 7.49005 9.05842 7.71005C8.83842 7.93005 8.72842 8.18505 8.72842 8.47505C8.72842 8.79505 8.85842 9.06005 9.11842 9.27005C9.37842 9.48005 9.71842 9.58505 10.1384 9.58505C10.4684 9.58505 10.7584 9.51505 11.0084 9.37505C11.2584 9.22505 11.4884 9.03505 11.6984 8.80505L11.8634 8.62505ZM19.0639 9.90005C19.1439 9.90005 19.2089 9.88005 19.2589 9.84005C19.3189 9.80005 19.3489 9.75005 19.3489 9.69005C19.3489 9.62005 19.2889 9.51005 19.1689 9.36005C18.9089 9.02005 18.6539 8.67505 18.4039 8.32505C18.1639 7.97505 17.9189 7.63005 17.6689 7.29005L16.1089 9.40505C16.0789 9.44505 16.0439 9.50005 16.0039 9.57005C15.9639 9.64005 15.9439 9.70005 15.9439 9.75005C15.9439 9.85005 15.9989 9.90005 16.1089 9.90005V10.05H14.6989V9.90005C14.8389 9.90005 14.9889 9.84505 15.1489 9.73505C15.3089 9.61505 15.4439 9.47505 15.5539 9.31505L17.3689 6.85505L15.6889 4.57505C15.6389 4.51505 15.5789 4.44505 15.5089 4.36505C15.4489 4.28505 15.3789 4.21505 15.2989 4.15505C15.2189 4.08505 15.1389 4.02505 15.0589 3.97505C14.9789 3.92505 14.9039 3.90005 14.8339 3.90005V3.75005H16.9939V3.90005C16.9339 3.90005 16.8689 3.92005 16.7989 3.96005C16.7389 4.00005 16.7089 4.07505 16.7089 4.18505C16.7089 4.24505 16.7389 4.31505 16.7989 4.39505L18.0139 6.07505L19.1689 4.54505C19.2489 4.44505 19.2989 4.36505 19.3189 4.30505C19.3389 4.24505 19.3489 4.19005 19.3489 4.14005C19.3489 4.08005 19.3289 4.02505 19.2889 3.97505C19.2589 3.92505 19.2089 3.90005 19.1389 3.90005V3.75005H20.5789V3.90005C20.4189 3.90005 20.2639 3.98005 20.1139 4.14005C19.9739 4.30005 19.8539 4.45005 19.7539 4.59005L18.2989 6.51005L20.3089 9.22505C20.4389 9.40505 20.5839 9.56505 20.7439 9.70505C20.9039 9.83505 21.0589 9.90005 21.2089 9.90005V10.05H19.0639V9.90005ZM27.7312 5.25005C27.7312 5.42005 27.6962 5.58005 27.6262 5.73005C27.5562 5.88005 27.4662 6.02005 27.3562 6.15005C27.2562 6.27005 27.1362 6.38005 26.9962 6.48005C26.8562 6.57005 26.7212 6.64005 26.5912 6.69005C26.7612 6.72005 26.9362 6.77505 27.1162 6.85505C27.3062 6.93505 27.4762 7.04005 27.6262 7.17005C27.7862 7.30005 27.9162 7.46505 28.0162 7.66505C28.1162 7.85505 28.1662 8.08505 28.1662 8.35505C28.1662 8.49505 28.1312 8.66505 28.0612 8.86505C28.0012 9.05505 27.8862 9.24005 27.7162 9.42005C27.5562 9.59005 27.3312 9.74005 27.0412 9.87005C26.7612 9.99005 26.3962 10.05 25.9462 10.05H22.6462V9.90005C22.7262 9.90005 22.7962 9.87005 22.8562 9.81005C22.9162 9.75005 22.9662 9.68005 23.0062 9.60005C23.0562 9.52005 23.0912 9.43505 23.1112 9.34505C23.1312 9.24505 23.1412 9.15505 23.1412 9.07505V4.69505C23.1412 4.53505 23.0962 4.36505 23.0062 4.18505C22.9262 3.99505 22.8062 3.90005 22.6462 3.90005V3.75005H25.7062C26.0662 3.75005 26.3712 3.80005 26.6212 3.90005C26.8812 3.99005 27.0912 4.11005 27.2512 4.26005C27.4212 4.40005 27.5412 4.56005 27.6112 4.74005C27.6912 4.91005 27.7312 5.08005 27.7312 5.25005ZM24.1162 6.49505H25.2712C25.5612 6.49505 25.8012 6.46505 25.9912 6.40505C26.1912 6.33505 26.3512 6.24505 26.4712 6.13505C26.5912 6.02505 26.6762 5.90005 26.7262 5.76005C26.7862 5.62005 26.8162 5.47505 26.8162 5.32505C26.8162 5.20505 26.7812 5.08005 26.7112 4.95005C26.6412 4.82005 26.5362 4.70505 26.3962 4.60505C26.2662 4.49505 26.1062 4.40505 25.9162 4.33505C25.7262 4.26505 25.5112 4.23005 25.2712 4.23005H24.1162V6.49505ZM25.5862 9.57005C25.7062 9.57005 25.8562 9.56005 26.0362 9.54005C26.2262 9.51005 26.4062 9.45505 26.5762 9.37505C26.7562 9.28505 26.9062 9.16005 27.0262 9.00005C27.1562 8.83005 27.2212 8.61005 27.2212 8.34005C27.2212 8.05005 27.1362 7.81505 26.9662 7.63505C26.7962 7.45505 26.5962 7.32005 26.3662 7.23005C26.1462 7.13005 25.9162 7.06505 25.6762 7.03505C25.4362 7.00505 25.2512 6.99005 25.1212 6.99005H24.1162V9.57005H25.5862ZM33.8824 10.05V9.28505L33.8074 9.36005C33.5574 9.61005 33.2674 9.80505 32.9374 9.94505C32.6174 10.085 32.2274 10.155 31.7674 10.155C31.4174 10.155 31.1174 10.115 30.8674 10.035C30.6174 9.95505 30.4124 9.84505 30.2524 9.70505C30.0924 9.55505 29.9724 9.38505 29.8924 9.19505C29.8224 9.00505 29.7874 8.80505 29.7874 8.59505C29.7874 8.25505 29.8774 7.95505 30.0574 7.69505C30.2474 7.43505 30.5174 7.20505 30.8674 7.00505C31.2174 6.80505 31.6424 6.62505 32.1424 6.46505C32.6524 6.29505 33.2324 6.13005 33.8824 5.97005C33.8624 5.58005 33.7824 5.26505 33.6424 5.02505C33.5024 4.78505 33.3374 4.60005 33.1474 4.47005C32.9574 4.33005 32.7574 4.24005 32.5474 4.20005C32.3374 4.15005 32.1574 4.12505 32.0074 4.12505C31.7474 4.12505 31.5174 4.16505 31.3174 4.24505C31.1174 4.31505 30.9424 4.41505 30.7924 4.54505C30.6424 4.66505 30.5174 4.80505 30.4174 4.96505C30.3274 5.12505 30.2574 5.28505 30.2074 5.44505H30.0724V4.27505C30.1624 4.27505 30.2674 4.24505 30.3874 4.18505C30.5074 4.11505 30.6474 4.04005 30.8074 3.96005C30.9774 3.88005 31.1774 3.81005 31.4074 3.75005C31.6474 3.68005 31.9324 3.64505 32.2624 3.64505C32.8124 3.64505 33.2574 3.71505 33.5974 3.85505C33.9374 3.99505 34.1974 4.18005 34.3774 4.41005C34.5674 4.64005 34.6924 4.90505 34.7524 5.20505C34.8124 5.49505 34.8424 5.79505 34.8424 6.10505V9.07505C34.8424 9.27505 34.8924 9.46505 34.9924 9.64505C35.0924 9.81505 35.2274 9.90005 35.3974 9.90005V10.05H33.8824ZM33.8824 8.62505V6.48005L33.7324 6.51005C33.4924 6.57005 33.1974 6.65005 32.8474 6.75005C32.5074 6.85005 32.1824 6.98005 31.8724 7.14005C31.5624 7.30005 31.2974 7.49005 31.0774 7.71005C30.8574 7.93005 30.7474 8.18505 30.7474 8.47505C30.7474 8.79505 30.8774 9.06005 31.1374 9.27005C31.3974 9.48005 31.7374 9.58505 32.1574 9.58505C32.4874 9.58505 32.7774 9.51505 33.0274 9.37505C33.2774 9.22505 33.5074 9.03505 33.7174 8.80505L33.8824 8.62505ZM42.2978 5.32505C42.2978 5.21505 42.2778 5.09505 42.2378 4.96505C42.1978 4.83505 42.1378 4.72005 42.0578 4.62005C41.9778 4.51005 41.8778 4.42005 41.7578 4.35005C41.6378 4.28005 41.4978 4.24505 41.3378 4.24505H40.0178V9.07505C40.0178 9.15505 40.0278 9.24005 40.0478 9.33005C40.0678 9.42005 40.0978 9.51005 40.1378 9.60005C40.1878 9.68005 40.2378 9.75005 40.2878 9.81005C40.3478 9.87005 40.4178 9.90005 40.4978 9.90005V10.05H38.5478V9.90005C38.6278 9.90005 38.6978 9.87005 38.7578 9.81005C38.8178 9.75005 38.8678 9.68005 38.9078 9.60005C38.9578 9.52005 38.9928 9.43505 39.0128 9.34505C39.0328 9.24505 39.0428 9.15505 39.0428 9.07505V4.24505H37.7528C37.5928 4.24505 37.4528 4.28005 37.3328 4.35005C37.2128 4.42005 37.1128 4.51005 37.0328 4.62005C36.9628 4.72005 36.9078 4.83505 36.8678 4.96505C36.8278 5.09505 36.8078 5.21505 36.8078 5.32505H36.6578V3.75005H42.4328V5.32505H42.2978ZM49.7573 9.07505C49.7573 9.15505 49.7673 9.24505 49.7873 9.34505C49.8173 9.43505 49.8523 9.52005 49.8923 9.60005C49.9323 9.68005 49.9823 9.75005 50.0423 9.81005C50.1123 9.87005 50.1773 9.90005 50.2373 9.90005V10.05H48.3173V9.90005C48.3873 9.90005 48.4523 9.87505 48.5123 9.82505C48.5723 9.76505 48.6223 9.69505 48.6623 9.61505C48.7023 9.52505 48.7323 9.43505 48.7523 9.34505C48.7723 9.24505 48.7823 9.15505 48.7823 9.07505V5.47505L45.2123 8.97005V9.07505C45.2123 9.15505 45.2223 9.24505 45.2423 9.34505C45.2623 9.43505 45.2923 9.52005 45.3323 9.60005C45.3723 9.68005 45.4173 9.75005 45.4673 9.81005C45.5273 9.87005 45.5923 9.90005 45.6623 9.90005V10.05H43.7573V9.90005C43.8273 9.90005 43.8923 9.87505 43.9523 9.82505C44.0123 9.76505 44.0623 9.69505 44.1023 9.61505C44.1423 9.52505 44.1723 9.43505 44.1923 9.34505C44.2123 9.24505 44.2223 9.15505 44.2223 9.07505V4.68005C44.2223 4.61005 44.2123 4.53005 44.1923 4.44005C44.1723 4.35005 44.1423 4.26505 44.1023 4.18505C44.0623 4.10505 44.0123 4.04005 43.9523 3.99005C43.8923 3.93005 43.8273 3.90005 43.7573 3.90005V3.75005H45.6623V3.90005C45.5823 3.90005 45.5123 3.93005 45.4523 3.99005C45.4023 4.04005 45.3573 4.10505 45.3173 4.18505C45.2873 4.26505 45.2623 4.35005 45.2423 4.44005C45.2223 4.53005 45.2123 4.61005 45.2123 4.68005V8.26505L48.7823 4.77005V4.68005C48.7823 4.61005 48.7723 4.53005 48.7523 4.44005C48.7323 4.35005 48.7023 4.26505 48.6623 4.18505C48.6223 4.10505 48.5723 4.04005 48.5123 3.99005C48.4523 3.93005 48.3873 3.90005 48.3173 3.90005V3.75005H50.2373V3.90005C50.1573 3.90005 50.0823 3.93005 50.0123 3.99005C49.9523 4.04005 49.9023 4.10505 49.8623 4.18505C49.8323 4.26505 49.8073 4.35005 49.7873 4.44005C49.7673 4.53005 49.7573 4.61005 49.7573 4.68005V9.07505ZM57.2017 5.32505C57.2017 5.21505 57.1817 5.09505 57.1417 4.96505C57.1017 4.83505 57.0417 4.72005 56.9617 4.62005C56.8817 4.51005 56.7817 4.42005 56.6617 4.35005C56.5417 4.28005 56.4017 4.24505 56.2417 4.24505H54.9217V9.07505C54.9217 9.15505 54.9317 9.24005 54.9517 9.33005C54.9717 9.42005 55.0017 9.51005 55.0417 9.60005C55.0917 9.68005 55.1417 9.75005 55.1917 9.81005C55.2517 9.87005 55.3217 9.90005 55.4017 9.90005V10.05H53.4517V9.90005C53.5317 9.90005 53.6017 9.87005 53.6617 9.81005C53.7217 9.75005 53.7717 9.68005 53.8117 9.60005C53.8617 9.52005 53.8967 9.43505 53.9167 9.34505C53.9367 9.24505 53.9467 9.15505 53.9467 9.07505V4.24505H52.6567C52.4967 4.24505 52.3567 4.28005 52.2367 4.35005C52.1167 4.42005 52.0167 4.51005 51.9367 4.62005C51.8667 4.72005 51.8117 4.83505 51.7717 4.96505C51.7317 5.09505 51.7117 5.21505 51.7117 5.32505H51.5617V3.75005H57.3367V5.32505H57.2017ZM59.2808 7.02005C59.3208 7.37005 59.4058 7.70505 59.5358 8.02505C59.6658 8.33505 59.8358 8.61005 60.0458 8.85005C60.2658 9.09005 60.5308 9.28505 60.8408 9.43505C61.1508 9.57505 61.5108 9.64505 61.9208 9.64505C62.1408 9.64505 62.3708 9.61505 62.6108 9.55505C62.8608 9.48505 63.0908 9.39005 63.3008 9.27005C63.5108 9.15005 63.6958 9.00505 63.8558 8.83505C64.0258 8.65505 64.1408 8.45505 64.2008 8.23505H64.3358V9.36005C64.2758 9.36005 64.2058 9.38005 64.1258 9.42005C64.0558 9.46005 63.9708 9.51005 63.8708 9.57005C63.6708 9.69005 63.4008 9.82005 63.0608 9.96005C62.7208 10.09 62.2708 10.155 61.7108 10.155C61.2608 10.155 60.8308 10.09 60.4208 9.96005C60.0208 9.83005 59.6658 9.63005 59.3558 9.36005C59.0458 9.09005 58.7958 8.74505 58.6058 8.32505C58.4258 7.90505 58.3358 7.40505 58.3358 6.82505C58.3358 6.45505 58.3958 6.08005 58.5158 5.70005C58.6458 5.32005 58.8358 4.98005 59.0858 4.68005C59.3458 4.37005 59.6758 4.12005 60.0758 3.93005C60.4758 3.74005 60.9558 3.64505 61.5158 3.64505C62.0158 3.64505 62.4508 3.73005 62.8208 3.90005C63.2008 4.07005 63.5108 4.30505 63.7508 4.60505C64.0008 4.90505 64.1858 5.26005 64.3058 5.67005C64.4258 6.08005 64.4858 6.53005 64.4858 7.02005H59.2808ZM61.4558 4.14005C61.1058 4.14005 60.8008 4.21005 60.5408 4.35005C60.2908 4.49005 60.0758 4.67005 59.8958 4.89005C59.7158 5.11005 59.5758 5.36005 59.4758 5.64005C59.3758 5.92005 59.3108 6.20005 59.2808 6.48005H63.5558C63.5458 6.19005 63.4908 5.90505 63.3908 5.62505C63.3008 5.34505 63.1708 5.09505 63.0008 4.87505C62.8308 4.65505 62.6158 4.48005 62.3558 4.35005C62.0958 4.21005 61.7958 4.14005 61.4558 4.14005ZM76.0675 9.51005C75.9875 9.51005 75.9125 9.53005 75.8425 9.57005C75.7725 9.60005 75.6925 9.64005 75.6025 9.69005C75.4325 9.79005 75.2075 9.89505 74.9275 10.005C74.6475 10.105 74.2975 10.155 73.8775 10.155C73.3675 10.155 72.8975 10.075 72.4675 9.91505C72.0475 9.74505 71.6825 9.51505 71.3725 9.22505C71.0625 8.92505 70.8225 8.58005 70.6525 8.19005C70.4825 7.79005 70.3975 7.36005 70.3975 6.90005C70.3975 6.47005 70.4725 6.06005 70.6225 5.67005C70.7825 5.28005 71.0075 4.93505 71.2975 4.63505C71.5875 4.33505 71.9425 4.09505 72.3625 3.91505C72.7925 3.73505 73.2775 3.64505 73.8175 3.64505C74.1875 3.64505 74.4875 3.69005 74.7175 3.78005C74.9475 3.86005 75.1425 3.94005 75.3025 4.02005C75.3925 4.07005 75.4775 4.11005 75.5575 4.14005C75.6475 4.17005 75.7375 4.18505 75.8275 4.18505V5.32505H75.6775C75.6275 5.13505 75.5375 4.97005 75.4075 4.83005C75.2775 4.68005 75.1275 4.55505 74.9575 4.45505C74.7875 4.35505 74.6025 4.28005 74.4025 4.23005C74.2025 4.18005 74.0075 4.15505 73.8175 4.15505C73.4075 4.15505 73.0475 4.23005 72.7375 4.38005C72.4275 4.52005 72.1725 4.71005 71.9725 4.95005C71.7725 5.18005 71.6225 5.44505 71.5225 5.74505C71.4225 6.04505 71.3725 6.35505 71.3725 6.67505C71.3725 7.04505 71.4275 7.41005 71.5375 7.77005C71.6575 8.12005 71.8225 8.43505 72.0325 8.71505C72.2525 8.99505 72.5175 9.22005 72.8275 9.39005C73.1475 9.56005 73.5075 9.64505 73.9075 9.64505C74.1875 9.64505 74.4475 9.60505 74.6875 9.52505C74.9275 9.44505 75.1325 9.34005 75.3025 9.21005C75.4825 9.08005 75.6225 8.94005 75.7225 8.79005C75.8325 8.63005 75.8975 8.48005 75.9175 8.34005H76.0675V9.51005ZM87.3972 9.51005C87.3172 9.51005 87.2422 9.53005 87.1722 9.57005C87.1022 9.60005 87.0222 9.64005 86.9322 9.69005C86.7622 9.79005 86.5372 9.89505 86.2572 10.005C85.9772 10.105 85.6272 10.155 85.2072 10.155C84.6972 10.155 84.2272 10.075 83.7972 9.91505C83.3772 9.74505 83.0122 9.51505 82.7022 9.22505C82.3922 8.92505 82.1522 8.58005 81.9822 8.19005C81.8122 7.79005 81.7272 7.36005 81.7272 6.90005C81.7272 6.47005 81.8022 6.06005 81.9522 5.67005C82.1122 5.28005 82.3372 4.93505 82.6272 4.63505C82.9172 4.33505 83.2722 4.09505 83.6922 3.91505C84.1222 3.73505 84.6072 3.64505 85.1472 3.64505C85.5172 3.64505 85.8172 3.69005 86.0472 3.78005C86.2772 3.86005 86.4722 3.94005 86.6322 4.02005C86.7222 4.07005 86.8072 4.11005 86.8872 4.14005C86.9772 4.17005 87.0672 4.18505 87.1572 4.18505V5.32505H87.0072C86.9572 5.13505 86.8672 4.97005 86.7372 4.83005C86.6072 4.68005 86.4572 4.55505 86.2872 4.45505C86.1172 4.35505 85.9322 4.28005 85.7322 4.23005C85.5322 4.18005 85.3372 4.15505 85.1472 4.15505C84.7372 4.15505 84.3772 4.23005 84.0672 4.38005C83.7572 4.52005 83.5022 4.71005 83.3022 4.95005C83.1022 5.18005 82.9522 5.44505 82.8522 5.74505C82.7522 6.04505 82.7022 6.35505 82.7022 6.67505C82.7022 7.04505 82.7572 7.41005 82.8672 7.77005C82.9872 8.12005 83.1522 8.43505 83.3622 8.71505C83.5822 8.99505 83.8472 9.22005 84.1572 9.39005C84.4772 9.56005 84.8372 9.64505 85.2372 9.64505C85.5172 9.64505 85.7772 9.60505 86.0172 9.52505C86.2572 9.44505 86.4622 9.34005 86.6322 9.21005C86.8122 9.08005 86.9522 8.94005 87.0522 8.79005C87.1622 8.63005 87.2272 8.48005 87.2472 8.34005H87.3972V9.51005ZM91.7171 10.155C91.2171 10.155 90.7671 10.075 90.3671 9.91505C89.9671 9.74505 89.6221 9.52005 89.3321 9.24005C89.0521 8.95005 88.8321 8.61005 88.6721 8.22005C88.5221 7.83005 88.4471 7.40505 88.4471 6.94505C88.4471 6.45505 88.5321 6.01005 88.7021 5.61005C88.8721 5.20005 89.1071 4.85005 89.4071 4.56005C89.7071 4.27005 90.0621 4.04505 90.4721 3.88505C90.8821 3.72505 91.3271 3.64505 91.8071 3.64505C92.2871 3.64505 92.7271 3.72505 93.1271 3.88505C93.5271 4.03505 93.8721 4.25005 94.1621 4.53005C94.4521 4.81005 94.6771 5.14505 94.8371 5.53505C94.9971 5.91505 95.0771 6.33505 95.0771 6.79505C95.0771 7.22505 95.0021 7.64505 94.8521 8.05505C94.7121 8.45505 94.4971 8.81005 94.2071 9.12005C93.9271 9.43005 93.5771 9.68005 93.1571 9.87005C92.7471 10.06 92.2671 10.155 91.7171 10.155ZM91.6271 4.14005C91.2671 4.16005 90.9471 4.25005 90.6671 4.41005C90.3971 4.56005 90.1671 4.76005 89.9771 5.01005C89.7971 5.25005 89.6571 5.52505 89.5571 5.83505C89.4671 6.14505 89.4221 6.46005 89.4221 6.78005C89.4221 7.15005 89.4771 7.51005 89.5871 7.86005C89.7071 8.20005 89.8721 8.50505 90.0821 8.77505C90.3021 9.04505 90.5621 9.26005 90.8621 9.42005C91.1621 9.58005 91.4971 9.66005 91.8671 9.66005C92.2371 9.66005 92.5621 9.58005 92.8421 9.42005C93.1321 9.26005 93.3721 9.05505 93.5621 8.80505C93.7521 8.54505 93.8921 8.25505 93.9821 7.93505C94.0821 7.61505 94.1321 7.29505 94.1321 6.97505C94.1321 6.64505 94.0821 6.31505 93.9821 5.98505C93.8821 5.64505 93.7271 5.34005 93.5171 5.07005C93.3071 4.79005 93.0421 4.56505 92.7221 4.39505C92.4121 4.22505 92.0471 4.14005 91.6271 4.14005ZM100.109 3.64505C100.609 3.64505 101.059 3.73005 101.459 3.90005C101.869 4.06005 102.214 4.28505 102.494 4.57505C102.784 4.85505 103.004 5.19005 103.154 5.58005C103.304 5.97005 103.379 6.39505 103.379 6.85505C103.379 7.34505 103.294 7.79505 103.124 8.20505C102.954 8.60505 102.719 8.95005 102.419 9.24005C102.119 9.53005 101.764 9.75505 101.354 9.91505C100.944 10.075 100.499 10.155 100.019 10.155C99.5087 10.155 99.0537 10.06 98.6537 9.87005C98.2537 9.67005 97.9137 9.40005 97.6337 9.06005C97.3537 8.72005 97.1387 8.32005 96.9887 7.86005C96.8387 7.39005 96.7637 6.88505 96.7637 6.34505C96.7637 6.03505 96.7787 5.75005 96.8087 5.49005C96.8487 5.23005 96.9037 4.98005 96.9737 4.74005C97.0537 4.49005 97.1487 4.25005 97.2587 4.02005C97.3687 3.79005 97.4987 3.55005 97.6487 3.30005C98.0687 2.64005 98.5937 2.12005 99.2237 1.74005C99.8637 1.36005 100.514 1.17005 101.174 1.17005H103.079L102.494 2.13005H100.934C100.614 2.13005 100.294 2.19005 99.9737 2.31005C99.6537 2.42005 99.3487 2.59005 99.0587 2.82005C98.7787 3.04005 98.5287 3.31005 98.3087 3.63005C98.0887 3.95005 97.9137 4.31505 97.7837 4.72505C98.0537 4.39505 98.3637 4.13505 98.7137 3.94505C99.0737 3.74505 99.5387 3.64505 100.109 3.64505ZM100.199 9.64505C100.569 9.62505 100.894 9.54005 101.174 9.39005C101.454 9.23005 101.689 9.03005 101.879 8.79005C102.069 8.54005 102.209 8.26505 102.299 7.96505C102.399 7.65505 102.449 7.34005 102.449 7.02005C102.449 6.65005 102.389 6.29505 102.269 5.95505C102.149 5.60505 101.979 5.30005 101.759 5.04005C101.539 4.78005 101.274 4.57005 100.964 4.41005C100.664 4.25005 100.329 4.17005 99.9587 4.17005C99.5987 4.17005 99.2787 4.25005 98.9987 4.41005C98.7187 4.56005 98.4837 4.76005 98.2937 5.01005C98.1037 5.26005 97.9587 5.54505 97.8587 5.86505C97.7687 6.18505 97.7237 6.50505 97.7237 6.82505C97.7237 7.14505 97.7787 7.47505 97.8887 7.81505C98.0087 8.14505 98.1737 8.44505 98.3837 8.71505C98.6037 8.98505 98.8637 9.21005 99.1637 9.39005C99.4737 9.56005 99.8187 9.64505 100.199 9.64505ZM108.32 10.155C107.82 10.155 107.37 10.075 106.97 9.91505C106.57 9.74505 106.225 9.52005 105.935 9.24005C105.655 8.95005 105.435 8.61005 105.275 8.22005C105.125 7.83005 105.05 7.40505 105.05 6.94505C105.05 6.45505 105.135 6.01005 105.305 5.61005C105.475 5.20005 105.71 4.85005 106.01 4.56005C106.31 4.27005 106.665 4.04505 107.075 3.88505C107.485 3.72505 107.93 3.64505 108.41 3.64505C108.89 3.64505 109.33 3.72505 109.73 3.88505C110.13 4.03505 110.475 4.25005 110.765 4.53005C111.055 4.81005 111.28 5.14505 111.44 5.53505C111.6 5.91505 111.68 6.33505 111.68 6.79505C111.68 7.22505 111.605 7.64505 111.455 8.05505C111.315 8.45505 111.1 8.81005 110.81 9.12005C110.53 9.43005 110.18 9.68005 109.76 9.87005C109.35 10.06 108.87 10.155 108.32 10.155ZM108.23 4.14005C107.87 4.16005 107.55 4.25005 107.27 4.41005C107 4.56005 106.77 4.76005 106.58 5.01005C106.4 5.25005 106.26 5.52505 106.16 5.83505C106.07 6.14505 106.025 6.46005 106.025 6.78005C106.025 7.15005 106.08 7.51005 106.19 7.86005C106.31 8.20005 106.475 8.50505 106.685 8.77505C106.905 9.04505 107.165 9.26005 107.465 9.42005C107.765 9.58005 108.1 9.66005 108.47 9.66005C108.84 9.66005 109.165 9.58005 109.445 9.42005C109.735 9.26005 109.975 9.05505 110.165 8.80505C110.355 8.54505 110.495 8.25505 110.585 7.93505C110.685 7.61505 110.735 7.29505 110.735 6.97505C110.735 6.64505 110.685 6.31505 110.585 5.98505C110.485 5.64505 110.33 5.34005 110.12 5.07005C109.91 4.79005 109.645 4.56505 109.325 4.39505C109.015 4.22505 108.65 4.14005 108.23 4.14005ZM119.487 9.07505C119.487 9.15505 119.497 9.24505 119.517 9.34505C119.547 9.43505 119.582 9.52005 119.622 9.60005C119.662 9.68005 119.712 9.75005 119.772 9.81005C119.842 9.87005 119.907 9.90005 119.967 9.90005V10.05H118.047V9.90005C118.117 9.90005 118.182 9.87505 118.242 9.82505C118.302 9.76505 118.352 9.69505 118.392 9.61505C118.432 9.52505 118.462 9.43505 118.482 9.34505C118.502 9.24505 118.512 9.15505 118.512 9.07505V5.47505L114.942 8.97005V9.07505C114.942 9.15505 114.952 9.24505 114.972 9.34505C114.992 9.43505 115.022 9.52005 115.062 9.60005C115.102 9.68005 115.147 9.75005 115.197 9.81005C115.257 9.87005 115.322 9.90005 115.392 9.90005V10.05H113.487V9.90005C113.557 9.90005 113.622 9.87505 113.682 9.82505C113.742 9.76505 113.792 9.69505 113.832 9.61505C113.872 9.52505 113.902 9.43505 113.922 9.34505C113.942 9.24505 113.952 9.15505 113.952 9.07505V4.68005C113.952 4.61005 113.942 4.53005 113.922 4.44005C113.902 4.35005 113.872 4.26505 113.832 4.18505C113.792 4.10505 113.742 4.04005 113.682 3.99005C113.622 3.93005 113.557 3.90005 113.487 3.90005V3.75005H115.392V3.90005C115.312 3.90005 115.242 3.93005 115.182 3.99005C115.132 4.04005 115.087 4.10505 115.047 4.18505C115.017 4.26505 114.992 4.35005 114.972 4.44005C114.952 4.53005 114.942 4.61005 114.942 4.68005V8.26505L118.512 4.77005V4.68005C118.512 4.61005 118.502 4.53005 118.482 4.44005C118.462 4.35005 118.432 4.26505 118.392 4.18505C118.352 4.10505 118.302 4.04005 118.242 3.99005C118.182 3.93005 118.117 3.90005 118.047 3.90005V3.75005H119.967V3.90005C119.887 3.90005 119.812 3.93005 119.742 3.99005C119.682 4.04005 119.632 4.10505 119.592 4.18505C119.562 4.26505 119.537 4.35005 119.517 4.44005C119.497 4.53005 119.487 4.61005 119.487 4.68005V9.07505ZM118.332 1.72505C118.332 1.88505 118.292 2.06005 118.212 2.25005C118.132 2.43005 118.017 2.60005 117.867 2.76005C117.717 2.91005 117.537 3.03505 117.327 3.13505C117.127 3.23505 116.902 3.28505 116.652 3.28505C116.422 3.28505 116.202 3.24005 115.992 3.15005C115.792 3.05005 115.617 2.92505 115.467 2.77505C115.317 2.62505 115.197 2.46005 115.107 2.28005C115.017 2.09005 114.972 1.90505 114.972 1.72505H115.062C115.072 1.78505 115.102 1.87005 115.152 1.98005C115.212 2.08005 115.302 2.18505 115.422 2.29505C115.542 2.40505 115.697 2.50005 115.887 2.58005C116.087 2.66005 116.337 2.70005 116.637 2.70005C116.947 2.70005 117.202 2.66005 117.402 2.58005C117.602 2.50005 117.762 2.40505 117.882 2.29505C118.002 2.18505 118.087 2.08005 118.137 1.98005C118.187 1.87005 118.222 1.78505 118.242 1.72505H118.332ZM128.608 12.195C128.468 12.615 128.288 12.9 128.068 13.05C127.858 13.2 127.638 13.275 127.408 13.275C127.258 13.275 127.123 13.25 127.003 13.2C126.883 13.15 126.778 13.095 126.688 13.035C126.598 12.975 126.528 12.92 126.478 12.87C126.438 12.82 126.418 12.795 126.418 12.795L126.913 11.58C126.953 11.74 127.003 11.875 127.063 11.985C127.113 12.085 127.183 12.175 127.273 12.255C127.363 12.335 127.473 12.375 127.603 12.375C127.843 12.375 128.033 12.2 128.173 11.85L128.893 10.005L126.493 4.54505C126.413 4.37505 126.328 4.22505 126.238 4.09505C126.158 3.96505 126.018 3.90005 125.818 3.90005V3.75005H127.753V3.90005C127.713 3.90005 127.663 3.93505 127.603 4.00505C127.543 4.07505 127.513 4.16505 127.513 4.27505C127.513 4.35505 127.533 4.43505 127.573 4.51505L129.418 8.76005L131.188 4.42505C131.218 4.35505 131.233 4.29005 131.233 4.23005C131.233 4.13005 131.198 4.05005 131.128 3.99005C131.068 3.93005 131.003 3.90005 130.933 3.90005V3.75005H132.388V3.90005C132.228 3.90005 132.088 3.97005 131.968 4.11005C131.858 4.24005 131.768 4.39005 131.698 4.56005L128.608 12.195ZM140.437 9.55505V11.4H140.287C140.267 11.28 140.232 11.14 140.182 10.98C140.132 10.83 140.062 10.685 139.972 10.545C139.882 10.405 139.772 10.285 139.642 10.185C139.522 10.095 139.382 10.05 139.222 10.05H134.452C134.292 10.05 134.147 10.095 134.017 10.185C133.887 10.285 133.772 10.405 133.672 10.545C133.582 10.685 133.507 10.83 133.447 10.98C133.397 11.14 133.367 11.28 133.357 11.4H133.207V9.55505H133.777C133.837 9.55505 133.892 9.53005 133.942 9.48005C134.002 9.43005 134.057 9.37005 134.107 9.30005C134.167 9.23005 134.222 9.15505 134.272 9.07505C134.322 8.98505 134.367 8.90505 134.407 8.83505C134.557 8.49505 134.737 8.09005 134.947 7.62005C135.167 7.15005 135.387 6.66505 135.607 6.16505C135.837 5.66505 136.057 5.18005 136.267 4.71005C136.477 4.23005 136.657 3.82005 136.807 3.48005L139.342 9.01505C139.422 9.18505 139.497 9.32005 139.567 9.42005C139.637 9.51005 139.732 9.55505 139.852 9.55505H140.437ZM134.602 9.55505H138.502L136.552 5.28005L134.602 9.55505ZM144.921 10.155C144.421 10.155 143.971 10.075 143.571 9.91505C143.171 9.74505 142.826 9.52005 142.536 9.24005C142.256 8.95005 142.036 8.61005 141.876 8.22005C141.726 7.83005 141.651 7.40505 141.651 6.94505C141.651 6.45505 141.736 6.01005 141.906 5.61005C142.076 5.20005 142.311 4.85005 142.611 4.56005C142.911 4.27005 143.266 4.04505 143.676 3.88505C144.086 3.72505 144.531 3.64505 145.011 3.64505C145.491 3.64505 145.931 3.72505 146.331 3.88505C146.731 4.03505 147.076 4.25005 147.366 4.53005C147.656 4.81005 147.881 5.14505 148.041 5.53505C148.201 5.91505 148.281 6.33505 148.281 6.79505C148.281 7.22505 148.206 7.64505 148.056 8.05505C147.916 8.45505 147.701 8.81005 147.411 9.12005C147.131 9.43005 146.781 9.68005 146.361 9.87005C145.951 10.06 145.471 10.155 144.921 10.155ZM144.831 4.14005C144.471 4.16005 144.151 4.25005 143.871 4.41005C143.601 4.56005 143.371 4.76005 143.181 5.01005C143.001 5.25005 142.861 5.52505 142.761 5.83505C142.671 6.14505 142.626 6.46005 142.626 6.78005C142.626 7.15005 142.681 7.51005 142.791 7.86005C142.911 8.20005 143.076 8.50505 143.286 8.77505C143.506 9.04505 143.766 9.26005 144.066 9.42005C144.366 9.58005 144.701 9.66005 145.071 9.66005C145.441 9.66005 145.766 9.58005 146.046 9.42005C146.336 9.26005 146.576 9.05505 146.766 8.80505C146.956 8.54505 147.096 8.25505 147.186 7.93505C147.286 7.61505 147.336 7.29505 147.336 6.97505C147.336 6.64505 147.286 6.31505 147.186 5.98505C147.086 5.64505 146.931 5.34005 146.721 5.07005C146.511 4.79005 146.246 4.56505 145.926 4.39505C145.616 4.22505 145.251 4.14005 144.831 4.14005ZM153.312 3.64505C153.812 3.64505 154.262 3.73005 154.662 3.90005C155.072 4.06005 155.417 4.28505 155.697 4.57505C155.987 4.85505 156.207 5.19005 156.357 5.58005C156.507 5.97005 156.582 6.39505 156.582 6.85505C156.582 7.34505 156.497 7.79505 156.327 8.20505C156.157 8.60505 155.922 8.95005 155.622 9.24005C155.322 9.53005 154.967 9.75505 154.557 9.91505C154.147 10.075 153.702 10.155 153.222 10.155C152.712 10.155 152.257 10.06 151.857 9.87005C151.457 9.67005 151.117 9.40005 150.837 9.06005C150.557 8.72005 150.342 8.32005 150.192 7.86005C150.042 7.39005 149.967 6.88505 149.967 6.34505C149.967 6.03505 149.982 5.75005 150.012 5.49005C150.052 5.23005 150.107 4.98005 150.177 4.74005C150.257 4.49005 150.352 4.25005 150.462 4.02005C150.572 3.79005 150.702 3.55005 150.852 3.30005C151.272 2.64005 151.797 2.12005 152.427 1.74005C153.067 1.36005 153.717 1.17005 154.377 1.17005H156.282L155.697 2.13005H154.137C153.817 2.13005 153.497 2.19005 153.177 2.31005C152.857 2.42005 152.552 2.59005 152.262 2.82005C151.982 3.04005 151.732 3.31005 151.512 3.63005C151.292 3.95005 151.117 4.31505 150.987 4.72505C151.257 4.39505 151.567 4.13505 151.917 3.94505C152.277 3.74505 152.742 3.64505 153.312 3.64505ZM153.402 9.64505C153.772 9.62505 154.097 9.54005 154.377 9.39005C154.657 9.23005 154.892 9.03005 155.082 8.79005C155.272 8.54005 155.412 8.26505 155.502 7.96505C155.602 7.65505 155.652 7.34005 155.652 7.02005C155.652 6.65005 155.592 6.29505 155.472 5.95505C155.352 5.60505 155.182 5.30005 154.962 5.04005C154.742 4.78005 154.477 4.57005 154.167 4.41005C153.867 4.25005 153.532 4.17005 153.162 4.17005C152.802 4.17005 152.482 4.25005 152.202 4.41005C151.922 4.56005 151.687 4.76005 151.497 5.01005C151.307 5.26005 151.162 5.54505 151.062 5.86505C150.972 6.18505 150.927 6.50505 150.927 6.82505C150.927 7.14505 150.982 7.47505 151.092 7.81505C151.212 8.14505 151.377 8.44505 151.587 8.71505C151.807 8.98505 152.067 9.21005 152.367 9.39005C152.677 9.56005 153.022 9.64505 153.402 9.64505ZM159.844 9.07505C159.844 9.15505 159.854 9.24505 159.874 9.34505C159.894 9.43505 159.924 9.52005 159.964 9.60005C160.004 9.68005 160.049 9.75005 160.099 9.81005C160.159 9.87005 160.224 9.90005 160.294 9.90005V10.05H158.404V9.90005C158.474 9.90005 158.534 9.87505 158.584 9.82505C158.644 9.76505 158.694 9.69505 158.734 9.61505C158.774 9.52505 158.804 9.43505 158.824 9.34505C158.844 9.24505 158.854 9.15505 158.854 9.07505V4.68005C158.854 4.61005 158.844 4.53005 158.824 4.44005C158.804 4.35005 158.774 4.26505 158.734 4.18505C158.694 4.10505 158.644 4.04005 158.584 3.99005C158.534 3.93005 158.474 3.90005 158.404 3.90005V3.75005H160.294V3.90005C160.214 3.90005 160.144 3.93005 160.084 3.99005C160.034 4.04005 159.989 4.10505 159.949 4.18505C159.919 4.26505 159.894 4.35005 159.874 4.44005C159.854 4.53005 159.844 4.61005 159.844 4.68005V6.49505H163.264V4.68005C163.264 4.61005 163.254 4.53005 163.234 4.44005C163.214 4.35005 163.184 4.26505 163.144 4.18505C163.114 4.10505 163.069 4.04005 163.009 3.99005C162.959 3.93005 162.894 3.90005 162.814 3.90005V3.75005H164.704V3.90005C164.624 3.90005 164.554 3.93005 164.494 3.99005C164.444 4.04005 164.399 4.10505 164.359 4.18505C164.319 4.26505 164.289 4.35005 164.269 4.44005C164.259 4.53005 164.254 4.61005 164.254 4.68005V9.07505C164.254 9.15505 164.264 9.24505 164.284 9.34505C164.304 9.43505 164.334 9.52005 164.374 9.60005C164.414 9.68005 164.459 9.75005 164.509 9.81005C164.569 9.87005 164.634 9.90005 164.704 9.90005V10.05H162.814V9.90005C162.884 9.90005 162.944 9.87505 162.994 9.82505C163.054 9.76505 163.104 9.69505 163.144 9.61505C163.184 9.52505 163.214 9.43505 163.234 9.34505C163.254 9.24505 163.264 9.15505 163.264 9.07505V6.99005H159.844V9.07505ZM169.002 12.195C168.862 12.615 168.682 12.9 168.462 13.05C168.252 13.2 168.032 13.275 167.802 13.275C167.652 13.275 167.517 13.25 167.397 13.2C167.277 13.15 167.172 13.095 167.082 13.035C166.992 12.975 166.922 12.92 166.872 12.87C166.832 12.82 166.812 12.795 166.812 12.795L167.307 11.58C167.347 11.74 167.397 11.875 167.457 11.985C167.507 12.085 167.577 12.175 167.667 12.255C167.757 12.335 167.867 12.375 167.997 12.375C168.237 12.375 168.427 12.2 168.567 11.85L169.287 10.005L166.887 4.54505C166.807 4.37505 166.722 4.22505 166.632 4.09505C166.552 3.96505 166.412 3.90005 166.212 3.90005V3.75005H168.147V3.90005C168.107 3.90005 168.057 3.93505 167.997 4.00505C167.937 4.07505 167.907 4.16505 167.907 4.27505C167.907 4.35505 167.927 4.43505 167.967 4.51505L169.812 8.76005L171.582 4.42505C171.612 4.35505 171.627 4.29005 171.627 4.23005C171.627 4.13005 171.592 4.05005 171.522 3.99005C171.462 3.93005 171.397 3.90005 171.327 3.90005V3.75005H172.782V3.90005C172.622 3.90005 172.482 3.97005 172.362 4.11005C172.252 4.24005 172.162 4.39005 172.092 4.56005L169.002 12.195ZM179.932 3.64505C180.432 3.64505 180.877 3.73005 181.267 3.90005C181.667 4.06005 182.002 4.28505 182.272 4.57505C182.542 4.85505 182.747 5.19005 182.887 5.58005C183.037 5.97005 183.112 6.39505 183.112 6.85505C183.112 7.34505 183.032 7.79505 182.872 8.20505C182.712 8.60505 182.482 8.95005 182.182 9.24005C181.892 9.53005 181.547 9.75505 181.147 9.91505C180.747 10.075 180.307 10.155 179.827 10.155C179.357 10.155 178.927 10.07 178.537 9.90005C178.157 9.72005 177.827 9.48505 177.547 9.19505C177.267 8.90505 177.047 8.57005 176.887 8.19005C176.737 7.81005 176.657 7.41005 176.647 6.99005H175.627V9.07505C175.627 9.15505 175.637 9.24005 175.657 9.33005C175.677 9.42005 175.702 9.51005 175.732 9.60005C175.772 9.68005 175.817 9.75005 175.867 9.81005C175.917 9.86005 175.977 9.89005 176.047 9.90005V10.05H174.187V9.90005C174.257 9.89005 174.317 9.86005 174.367 9.81005C174.427 9.75005 174.477 9.68005 174.517 9.60005C174.557 9.51005 174.587 9.42005 174.607 9.33005C174.627 9.24005 174.637 9.15505 174.637 9.07505V4.68005C174.637 4.55005 174.597 4.39505 174.517 4.21505C174.447 4.02505 174.342 3.92005 174.202 3.90005V3.75005H176.047V3.90005C175.897 3.92005 175.787 4.02505 175.717 4.21505C175.657 4.39505 175.627 4.55005 175.627 4.68005V6.49505H176.677C176.737 6.12505 176.847 5.77005 177.007 5.43005C177.167 5.08005 177.382 4.77505 177.652 4.51505C177.922 4.24505 178.247 4.03505 178.627 3.88505C179.007 3.72505 179.442 3.64505 179.932 3.64505ZM180.052 9.63005C180.412 9.62005 180.722 9.54005 180.982 9.39005C181.252 9.23005 181.472 9.03005 181.642 8.79005C181.812 8.54005 181.937 8.26505 182.017 7.96505C182.097 7.65505 182.137 7.34005 182.137 7.02005C182.137 6.65005 182.082 6.29505 181.972 5.95505C181.862 5.60505 181.702 5.30005 181.492 5.04005C181.292 4.77005 181.047 4.55505 180.757 4.39505C180.467 4.23505 180.137 4.15505 179.767 4.15505C179.397 4.15505 179.077 4.23505 178.807 4.39505C178.547 4.54505 178.327 4.74505 178.147 4.99505C177.977 5.23505 177.847 5.51505 177.757 5.83505C177.677 6.14505 177.637 6.46005 177.637 6.78005C177.637 7.11005 177.682 7.44505 177.772 7.78505C177.872 8.12505 178.017 8.43005 178.207 8.70005C178.407 8.97005 178.657 9.19505 178.957 9.37505C179.267 9.54505 179.632 9.63005 180.052 9.63005ZM192.43 10.155C191.93 10.155 191.48 10.075 191.08 9.91505C190.68 9.74505 190.335 9.52005 190.045 9.24005C189.765 8.95005 189.545 8.61005 189.385 8.22005C189.235 7.83005 189.16 7.40505 189.16 6.94505C189.16 6.45505 189.245 6.01005 189.415 5.61005C189.585 5.20005 189.82 4.85005 190.12 4.56005C190.42 4.27005 190.775 4.04505 191.185 3.88505C191.595 3.72505 192.04 3.64505 192.52 3.64505C193 3.64505 193.44 3.72505 193.84 3.88505C194.24 4.03505 194.585 4.25005 194.875 4.53005C195.165 4.81005 195.39 5.14505 195.55 5.53505C195.71 5.91505 195.79 6.33505 195.79 6.79505C195.79 7.22505 195.715 7.64505 195.565 8.05505C195.425 8.45505 195.21 8.81005 194.92 9.12005C194.64 9.43005 194.29 9.68005 193.87 9.87005C193.46 10.06 192.98 10.155 192.43 10.155ZM192.34 4.14005C191.98 4.16005 191.66 4.25005 191.38 4.41005C191.11 4.56005 190.88 4.76005 190.69 5.01005C190.51 5.25005 190.37 5.52505 190.27 5.83505C190.18 6.14505 190.135 6.46005 190.135 6.78005C190.135 7.15005 190.19 7.51005 190.3 7.86005C190.42 8.20005 190.585 8.50505 190.795 8.77505C191.015 9.04505 191.275 9.26005 191.575 9.42005C191.875 9.58005 192.21 9.66005 192.58 9.66005C192.95 9.66005 193.275 9.58005 193.555 9.42005C193.845 9.26005 194.085 9.05505 194.275 8.80505C194.465 8.54505 194.605 8.25505 194.695 7.93505C194.795 7.61505 194.845 7.29505 194.845 6.97505C194.845 6.64505 194.795 6.31505 194.695 5.98505C194.595 5.64505 194.44 5.34005 194.23 5.07005C194.02 4.79005 193.755 4.56505 193.435 4.39505C193.125 4.22505 192.76 4.14005 192.34 4.14005ZM200.822 3.64505C201.322 3.64505 201.772 3.73005 202.172 3.90005C202.582 4.06005 202.927 4.28505 203.207 4.57505C203.497 4.85505 203.717 5.19005 203.867 5.58005C204.017 5.97005 204.092 6.39505 204.092 6.85505C204.092 7.34505 204.007 7.79505 203.837 8.20505C203.667 8.60505 203.432 8.95005 203.132 9.24005C202.832 9.53005 202.477 9.75505 202.067 9.91505C201.657 10.075 201.212 10.155 200.732 10.155C200.222 10.155 199.767 10.06 199.367 9.87005C198.967 9.67005 198.627 9.40005 198.347 9.06005C198.067 8.72005 197.852 8.32005 197.702 7.86005C197.552 7.39005 197.477 6.88505 197.477 6.34505C197.477 6.03505 197.492 5.75005 197.522 5.49005C197.562 5.23005 197.617 4.98005 197.687 4.74005C197.767 4.49005 197.862 4.25005 197.972 4.02005C198.082 3.79005 198.212 3.55005 198.362 3.30005C198.782 2.64005 199.307 2.12005 199.937 1.74005C200.577 1.36005 201.227 1.17005 201.887 1.17005H203.792L203.207 2.13005H201.647C201.327 2.13005 201.007 2.19005 200.687 2.31005C200.367 2.42005 200.062 2.59005 199.772 2.82005C199.492 3.04005 199.242 3.31005 199.022 3.63005C198.802 3.95005 198.627 4.31505 198.497 4.72505C198.767 4.39505 199.077 4.13505 199.427 3.94505C199.787 3.74505 200.252 3.64505 200.822 3.64505ZM200.912 9.64505C201.282 9.62505 201.607 9.54005 201.887 9.39005C202.167 9.23005 202.402 9.03005 202.592 8.79005C202.782 8.54005 202.922 8.26505 203.012 7.96505C203.112 7.65505 203.162 7.34005 203.162 7.02005C203.162 6.65005 203.102 6.29505 202.982 5.95505C202.862 5.60505 202.692 5.30005 202.472 5.04005C202.252 4.78005 201.987 4.57005 201.677 4.41005C201.377 4.25005 201.042 4.17005 200.672 4.17005C200.312 4.17005 199.992 4.25005 199.712 4.41005C199.432 4.56005 199.197 4.76005 199.007 5.01005C198.817 5.26005 198.672 5.54505 198.572 5.86505C198.482 6.18505 198.437 6.50505 198.437 6.82505C198.437 7.14505 198.492 7.47505 198.602 7.81505C198.722 8.14505 198.887 8.44505 199.097 8.71505C199.317 8.98505 199.577 9.21005 199.877 9.39005C200.187 9.56005 200.532 9.64505 200.912 9.64505ZM208.283 12.195C208.143 12.615 207.963 12.9 207.743 13.05C207.533 13.2 207.313 13.275 207.083 13.275C206.933 13.275 206.798 13.25 206.678 13.2C206.558 13.15 206.453 13.095 206.363 13.035C206.273 12.975 206.203 12.92 206.153 12.87C206.113 12.82 206.093 12.795 206.093 12.795L206.588 11.58C206.628 11.74 206.678 11.875 206.738 11.985C206.788 12.085 206.858 12.175 206.948 12.255C207.038 12.335 207.148 12.375 207.278 12.375C207.518 12.375 207.708 12.2 207.848 11.85L208.568 10.005L206.168 4.54505C206.088 4.37505 206.003 4.22505 205.913 4.09505C205.833 3.96505 205.693 3.90005 205.493 3.90005V3.75005H207.428V3.90005C207.388 3.90005 207.338 3.93505 207.278 4.00505C207.218 4.07505 207.188 4.16505 207.188 4.27505C207.188 4.35505 207.208 4.43505 207.248 4.51505L209.093 8.76005L210.863 4.42505C210.893 4.35505 210.908 4.29005 210.908 4.23005C210.908 4.13005 210.873 4.05005 210.803 3.99005C210.743 3.93005 210.678 3.90005 210.608 3.90005V3.75005H212.063V3.90005C211.903 3.90005 211.763 3.97005 211.643 4.11005C211.533 4.24005 211.443 4.39005 211.373 4.56005L208.283 12.195ZM218.523 5.25005C218.523 5.42005 218.488 5.58005 218.418 5.73005C218.348 5.88005 218.258 6.02005 218.148 6.15005C218.048 6.27005 217.928 6.38005 217.788 6.48005C217.648 6.57005 217.513 6.64005 217.383 6.69005C217.553 6.72005 217.728 6.77505 217.908 6.85505C218.098 6.93505 218.268 7.04005 218.418 7.17005C218.578 7.30005 218.708 7.46505 218.808 7.66505C218.908 7.85505 218.958 8.08505 218.958 8.35505C218.958 8.49505 218.923 8.66505 218.853 8.86505C218.793 9.05505 218.678 9.24005 218.508 9.42005C218.348 9.59005 218.123 9.74005 217.833 9.87005C217.553 9.99005 217.188 10.05 216.738 10.05H213.438V9.90005C213.518 9.90005 213.588 9.87005 213.648 9.81005C213.708 9.75005 213.758 9.68005 213.798 9.60005C213.848 9.52005 213.883 9.43505 213.903 9.34505C213.923 9.24505 213.933 9.15505 213.933 9.07505V4.69505C213.933 4.53505 213.888 4.36505 213.798 4.18505C213.718 3.99505 213.598 3.90005 213.438 3.90005V3.75005H216.498C216.858 3.75005 217.163 3.80005 217.413 3.90005C217.673 3.99005 217.883 4.11005 218.043 4.26005C218.213 4.40005 218.333 4.56005 218.403 4.74005C218.483 4.91005 218.523 5.08005 218.523 5.25005ZM214.908 6.49505H216.063C216.353 6.49505 216.593 6.46505 216.783 6.40505C216.983 6.33505 217.143 6.24505 217.263 6.13505C217.383 6.02505 217.468 5.90005 217.518 5.76005C217.578 5.62005 217.608 5.47505 217.608 5.32505C217.608 5.20505 217.573 5.08005 217.503 4.95005C217.433 4.82005 217.328 4.70505 217.188 4.60505C217.058 4.49505 216.898 4.40505 216.708 4.33505C216.518 4.26505 216.303 4.23005 216.063 4.23005H214.908V6.49505ZM216.378 9.57005C216.498 9.57005 216.648 9.56005 216.828 9.54005C217.018 9.51005 217.198 9.45505 217.368 9.37505C217.548 9.28505 217.698 9.16005 217.818 9.00005C217.948 8.83005 218.013 8.61005 218.013 8.34005C218.013 8.05005 217.928 7.81505 217.758 7.63505C217.588 7.45505 217.388 7.32005 217.158 7.23005C216.938 7.13005 216.708 7.06505 216.468 7.03505C216.228 7.00505 216.043 6.99005 215.913 6.99005H214.908V9.57005H216.378ZM223.354 6.48005C223.814 6.48005 224.214 6.52505 224.554 6.61505C224.904 6.70505 225.189 6.83005 225.409 6.99005C225.639 7.15005 225.809 7.34005 225.919 7.56005C226.029 7.77005 226.084 8.00005 226.084 8.25005C226.084 8.50005 226.029 8.73505 225.919 8.95505C225.809 9.17505 225.634 9.36505 225.394 9.52505C225.164 9.68505 224.874 9.81505 224.524 9.91505C224.174 10.005 223.759 10.05 223.279 10.05H220.714V9.90005C220.794 9.90005 220.864 9.87505 220.924 9.82505C220.984 9.76505 221.034 9.69505 221.074 9.61505C221.124 9.52505 221.159 9.43505 221.179 9.34505C221.199 9.24505 221.209 9.15505 221.209 9.07505V4.68005C221.209 4.61005 221.199 4.53005 221.179 4.44005C221.159 4.35005 221.124 4.26505 221.074 4.18505C221.034 4.10505 220.984 4.04005 220.924 3.99005C220.864 3.93005 220.794 3.90005 220.714 3.90005V3.75005H222.679V3.90005C222.529 3.90005 222.409 3.99505 222.319 4.18505C222.229 4.36505 222.184 4.53005 222.184 4.68005V6.48005H223.354ZM223.249 9.55505C223.909 9.55505 224.384 9.45005 224.674 9.24005C224.974 9.02005 225.124 8.75005 225.124 8.43005C225.124 8.25005 225.084 8.07505 225.004 7.90505C224.924 7.72505 224.799 7.57005 224.629 7.44005C224.469 7.30005 224.269 7.19005 224.029 7.11005C223.789 7.02005 223.514 6.97505 223.204 6.97505H222.184V9.55505H223.249ZM82.6913 24.555V26.4H82.5413C82.5213 26.28 82.4863 26.14 82.4363 25.98C82.3863 25.83 82.3163 25.685 82.2263 25.545C82.1363 25.405 82.0263 25.285 81.8963 25.185C81.7763 25.095 81.6363 25.05 81.4763 25.05H76.7063C76.5463 25.05 76.4013 25.095 76.2713 25.185C76.1413 25.285 76.0263 25.405 75.9263 25.545C75.8363 25.685 75.7613 25.83 75.7013 25.98C75.6513 26.14 75.6213 26.28 75.6113 26.4H75.4613V24.555H76.0313C76.0913 24.555 76.1463 24.53 76.1963 24.48C76.2563 24.43 76.3113 24.37 76.3613 24.3C76.4213 24.23 76.4763 24.155 76.5263 24.075C76.5763 23.985 76.6213 23.905 76.6613 23.835C76.8113 23.495 76.9913 23.09 77.2013 22.62C77.4213 22.15 77.6413 21.665 77.8613 21.165C78.0913 20.665 78.3113 20.18 78.5213 19.71C78.7313 19.23 78.9113 18.82 79.0613 18.48L81.5963 24.015C81.6763 24.185 81.7513 24.32 81.8213 24.42C81.8913 24.51 81.9863 24.555 82.1063 24.555H82.6913ZM76.8563 24.555H80.7563L78.8063 20.28L76.8563 24.555ZM88.5249 24.9C88.5949 24.9 88.6749 24.87 88.7649 24.81C88.8549 24.75 88.8999 24.665 88.8999 24.555C88.8999 24.535 88.8899 24.495 88.8699 24.435C88.8599 24.365 88.8349 24.29 88.7949 24.21L86.8899 19.71L84.9099 24.435C84.7399 24.845 84.4049 25.05 83.9049 25.05H83.5749V24.9C83.7149 24.9 83.8649 24.83 84.0249 24.69C84.1949 24.54 84.3299 24.365 84.4299 24.165L86.4699 19.395C86.5199 19.265 86.5449 19.16 86.5449 19.08C86.5449 18.96 86.4649 18.9 86.3049 18.9V18.75H87.5199L89.8299 24.15C89.8999 24.3 89.9999 24.465 90.1299 24.645C90.2699 24.815 90.3999 24.9 90.5199 24.9V25.05H88.5249V24.9ZM96.6574 24.075C96.6574 24.155 96.6674 24.245 96.6874 24.345C96.7074 24.435 96.7374 24.525 96.7774 24.615C96.8274 24.695 96.8774 24.765 96.9274 24.825C96.9874 24.875 97.0574 24.9 97.1374 24.9V25.05H95.1874V24.9C95.2574 24.9 95.3224 24.87 95.3824 24.81C95.4424 24.75 95.4924 24.68 95.5324 24.6C95.5824 24.52 95.6174 24.435 95.6374 24.345C95.6574 24.245 95.6674 24.155 95.6674 24.075V21.975C95.5574 21.995 95.4324 22.055 95.2924 22.155C95.1524 22.245 95.0074 22.365 94.8574 22.515C94.7074 22.655 94.5624 22.81 94.4224 22.98C94.2824 23.15 94.1524 23.32 94.0324 23.49C93.9324 23.63 93.8474 23.745 93.7774 23.835C93.7074 23.925 93.6474 24.01 93.5974 24.09C93.4974 24.22 93.3974 24.345 93.2974 24.465C93.1974 24.575 93.0824 24.675 92.9524 24.765C92.8324 24.855 92.6874 24.925 92.5174 24.975C92.3474 25.025 92.1474 25.05 91.9174 25.05H91.3624V24.9C91.4824 24.9 91.6024 24.865 91.7224 24.795C91.8524 24.725 91.9774 24.64 92.0974 24.54C92.2174 24.43 92.3274 24.315 92.4274 24.195C92.5374 24.065 92.6324 23.945 92.7124 23.835L93.1774 23.19C93.3474 22.96 93.5224 22.735 93.7024 22.515C93.8824 22.285 94.0874 22.105 94.3174 21.975C93.9574 21.965 93.6374 21.915 93.3574 21.825C93.0774 21.735 92.8424 21.615 92.6524 21.465C92.4624 21.315 92.3174 21.145 92.2174 20.955C92.1274 20.755 92.0824 20.545 92.0824 20.325C92.0824 20.115 92.1274 19.915 92.2174 19.725C92.3174 19.535 92.4724 19.37 92.6824 19.23C92.8924 19.08 93.1574 18.965 93.4774 18.885C93.8074 18.795 94.2024 18.75 94.6624 18.75H97.1374V18.9C97.0574 18.9 96.9874 18.93 96.9274 18.99C96.8774 19.04 96.8274 19.105 96.7774 19.185C96.7374 19.265 96.7074 19.35 96.6874 19.44C96.6674 19.53 96.6574 19.61 96.6574 19.68V24.075ZM93.0574 20.235C93.0574 20.385 93.1024 20.535 93.1924 20.685C93.2924 20.835 93.4224 20.97 93.5824 21.09C93.7524 21.21 93.9424 21.31 94.1524 21.39C94.3624 21.46 94.5874 21.495 94.8274 21.495H95.6674V19.23H94.6924C94.0924 19.23 93.6674 19.325 93.4174 19.515C93.1774 19.705 93.0574 19.945 93.0574 20.235ZM108.448 20.325C108.448 20.215 108.428 20.095 108.388 19.965C108.348 19.835 108.288 19.72 108.208 19.62C108.128 19.51 108.028 19.42 107.908 19.35C107.788 19.28 107.648 19.245 107.488 19.245H106.168V24.075C106.168 24.155 106.178 24.24 106.198 24.33C106.218 24.42 106.248 24.51 106.288 24.6C106.338 24.68 106.388 24.75 106.438 24.81C106.498 24.87 106.568 24.9 106.648 24.9V25.05H104.698V24.9C104.778 24.9 104.848 24.87 104.908 24.81C104.968 24.75 105.018 24.68 105.058 24.6C105.108 24.52 105.143 24.435 105.163 24.345C105.183 24.245 105.193 24.155 105.193 24.075V19.245H103.903C103.743 19.245 103.603 19.28 103.483 19.35C103.363 19.42 103.263 19.51 103.183 19.62C103.113 19.72 103.058 19.835 103.018 19.965C102.978 20.095 102.958 20.215 102.958 20.325H102.808V18.75H108.583V20.325H108.448ZM113.852 25.05V24.285L113.777 24.36C113.527 24.61 113.237 24.805 112.907 24.945C112.587 25.085 112.197 25.155 111.737 25.155C111.387 25.155 111.087 25.115 110.837 25.035C110.587 24.955 110.382 24.845 110.222 24.705C110.062 24.555 109.942 24.385 109.862 24.195C109.792 24.005 109.757 23.805 109.757 23.595C109.757 23.255 109.847 22.955 110.027 22.695C110.217 22.435 110.487 22.205 110.837 22.005C111.187 21.805 111.612 21.625 112.112 21.465C112.622 21.295 113.202 21.13 113.852 20.97C113.832 20.58 113.752 20.265 113.612 20.025C113.472 19.785 113.307 19.6 113.117 19.47C112.927 19.33 112.727 19.24 112.517 19.2C112.307 19.15 112.127 19.125 111.977 19.125C111.717 19.125 111.487 19.165 111.287 19.245C111.087 19.315 110.912 19.415 110.762 19.545C110.612 19.665 110.487 19.805 110.387 19.965C110.297 20.125 110.227 20.285 110.177 20.445H110.042V19.275C110.132 19.275 110.237 19.245 110.357 19.185C110.477 19.115 110.617 19.04 110.777 18.96C110.947 18.88 111.147 18.81 111.377 18.75C111.617 18.68 111.902 18.645 112.232 18.645C112.782 18.645 113.227 18.715 113.567 18.855C113.907 18.995 114.167 19.18 114.347 19.41C114.537 19.64 114.662 19.905 114.722 20.205C114.782 20.495 114.812 20.795 114.812 21.105V24.075C114.812 24.275 114.862 24.465 114.962 24.645C115.062 24.815 115.197 24.9 115.367 24.9V25.05H113.852ZM113.852 23.625V21.48L113.702 21.51C113.462 21.57 113.167 21.65 112.817 21.75C112.477 21.85 112.152 21.98 111.842 22.14C111.532 22.3 111.267 22.49 111.047 22.71C110.827 22.93 110.717 23.185 110.717 23.475C110.717 23.795 110.847 24.06 111.107 24.27C111.367 24.48 111.707 24.585 112.127 24.585C112.457 24.585 112.747 24.515 112.997 24.375C113.247 24.225 113.477 24.035 113.687 23.805L113.852 23.625ZM118.668 24.075C118.668 24.155 118.678 24.245 118.698 24.345C118.718 24.435 118.748 24.52 118.788 24.6C118.828 24.68 118.873 24.75 118.923 24.81C118.983 24.87 119.048 24.9 119.118 24.9V25.05H117.228V24.9C117.298 24.9 117.358 24.875 117.408 24.825C117.468 24.765 117.518 24.695 117.558 24.615C117.598 24.525 117.628 24.435 117.648 24.345C117.668 24.245 117.678 24.155 117.678 24.075V19.68C117.678 19.61 117.668 19.53 117.648 19.44C117.628 19.35 117.598 19.265 117.558 19.185C117.518 19.105 117.468 19.04 117.408 18.99C117.358 18.93 117.298 18.9 117.228 18.9V18.75H119.118V18.9C119.038 18.9 118.968 18.93 118.908 18.99C118.858 19.04 118.813 19.105 118.773 19.185C118.743 19.265 118.718 19.35 118.698 19.44C118.678 19.53 118.668 19.61 118.668 19.68V21.495H122.088V19.68C122.088 19.61 122.078 19.53 122.058 19.44C122.038 19.35 122.008 19.265 121.968 19.185C121.938 19.105 121.893 19.04 121.833 18.99C121.783 18.93 121.718 18.9 121.638 18.9V18.75H123.528V18.9C123.448 18.9 123.378 18.93 123.318 18.99C123.268 19.04 123.223 19.105 123.183 19.185C123.143 19.265 123.113 19.35 123.093 19.44C123.083 19.53 123.078 19.61 123.078 19.68V24.075C123.078 24.155 123.088 24.245 123.108 24.345C123.128 24.435 123.158 24.52 123.198 24.6C123.238 24.68 123.283 24.75 123.333 24.81C123.393 24.87 123.458 24.9 123.528 24.9V25.05H121.638V24.9C121.708 24.9 121.768 24.875 121.818 24.825C121.878 24.765 121.928 24.695 121.968 24.615C122.008 24.525 122.038 24.435 122.058 24.345C122.078 24.245 122.088 24.155 122.088 24.075V21.99H118.668V24.075ZM132.236 24.555V26.37H132.086C132.086 26.24 132.051 26.1 131.981 25.95C131.921 25.8 131.836 25.655 131.726 25.515C131.616 25.385 131.486 25.275 131.336 25.185C131.196 25.095 131.046 25.05 130.886 25.05H125.441V24.9C125.511 24.9 125.571 24.875 125.621 24.825C125.681 24.765 125.731 24.695 125.771 24.615C125.811 24.525 125.841 24.435 125.861 24.345C125.881 24.255 125.891 24.18 125.891 24.12V19.725C125.891 19.655 125.881 19.57 125.861 19.47C125.851 19.37 125.831 19.28 125.801 19.2C125.771 19.12 125.726 19.05 125.666 18.99C125.606 18.93 125.531 18.9 125.441 18.9V18.75H127.346V18.9C127.256 18.9 127.181 18.93 127.121 18.99C127.071 19.04 127.026 19.11 126.986 19.2C126.946 19.28 126.916 19.37 126.896 19.47C126.886 19.56 126.881 19.645 126.881 19.725V24.555H130.151V19.725C130.151 19.655 130.141 19.57 130.121 19.47C130.111 19.37 130.086 19.28 130.046 19.2C130.006 19.12 129.956 19.05 129.896 18.99C129.846 18.93 129.776 18.9 129.686 18.9V18.75H131.591V18.9C131.501 18.9 131.426 18.93 131.366 18.99C131.316 19.04 131.271 19.11 131.231 19.2C131.201 19.28 131.176 19.37 131.156 19.47C131.146 19.56 131.141 19.645 131.141 19.725V23.73C131.141 23.93 131.181 24.12 131.261 24.3C131.351 24.47 131.516 24.555 131.756 24.555H132.236ZM134.392 22.02C134.432 22.37 134.517 22.705 134.647 23.025C134.777 23.335 134.947 23.61 135.157 23.85C135.377 24.09 135.642 24.285 135.952 24.435C136.262 24.575 136.622 24.645 137.032 24.645C137.252 24.645 137.482 24.615 137.722 24.555C137.972 24.485 138.202 24.39 138.412 24.27C138.622 24.15 138.807 24.005 138.967 23.835C139.137 23.655 139.252 23.455 139.312 23.235H139.447V24.36C139.387 24.36 139.317 24.38 139.237 24.42C139.167 24.46 139.082 24.51 138.982 24.57C138.782 24.69 138.512 24.82 138.172 24.96C137.832 25.09 137.382 25.155 136.822 25.155C136.372 25.155 135.942 25.09 135.532 24.96C135.132 24.83 134.777 24.63 134.467 24.36C134.157 24.09 133.907 23.745 133.717 23.325C133.537 22.905 133.447 22.405 133.447 21.825C133.447 21.455 133.507 21.08 133.627 20.7C133.757 20.32 133.947 19.98 134.197 19.68C134.457 19.37 134.787 19.12 135.187 18.93C135.587 18.74 136.067 18.645 136.627 18.645C137.127 18.645 137.562 18.73 137.932 18.9C138.312 19.07 138.622 19.305 138.862 19.605C139.112 19.905 139.297 20.26 139.417 20.67C139.537 21.08 139.597 21.53 139.597 22.02H134.392ZM136.567 19.14C136.217 19.14 135.912 19.21 135.652 19.35C135.402 19.49 135.187 19.67 135.007 19.89C134.827 20.11 134.687 20.36 134.587 20.64C134.487 20.92 134.422 21.2 134.392 21.48H138.667C138.657 21.19 138.602 20.905 138.502 20.625C138.412 20.345 138.282 20.095 138.112 19.875C137.942 19.655 137.727 19.48 137.467 19.35C137.207 19.21 136.907 19.14 136.567 19.14ZM146.382 20.25C146.382 20.42 146.347 20.58 146.277 20.73C146.207 20.88 146.117 21.02 146.007 21.15C145.907 21.27 145.787 21.38 145.647 21.48C145.507 21.57 145.372 21.64 145.242 21.69C145.412 21.72 145.587 21.775 145.767 21.855C145.957 21.935 146.127 22.04 146.277 22.17C146.437 22.3 146.567 22.465 146.667 22.665C146.767 22.855 146.817 23.085 146.817 23.355C146.817 23.495 146.782 23.665 146.712 23.865C146.652 24.055 146.537 24.24 146.367 24.42C146.207 24.59 145.982 24.74 145.692 24.87C145.412 24.99 145.047 25.05 144.597 25.05H141.297V24.9C141.377 24.9 141.447 24.87 141.507 24.81C141.567 24.75 141.617 24.68 141.657 24.6C141.707 24.52 141.742 24.435 141.762 24.345C141.782 24.245 141.792 24.155 141.792 24.075V19.695C141.792 19.535 141.747 19.365 141.657 19.185C141.577 18.995 141.457 18.9 141.297 18.9V18.75H144.357C144.717 18.75 145.022 18.8 145.272 18.9C145.532 18.99 145.742 19.11 145.902 19.26C146.072 19.4 146.192 19.56 146.262 19.74C146.342 19.91 146.382 20.08 146.382 20.25ZM142.767 21.495H143.922C144.212 21.495 144.452 21.465 144.642 21.405C144.842 21.335 145.002 21.245 145.122 21.135C145.242 21.025 145.327 20.9 145.377 20.76C145.437 20.62 145.467 20.475 145.467 20.325C145.467 20.205 145.432 20.08 145.362 19.95C145.292 19.82 145.187 19.705 145.047 19.605C144.917 19.495 144.757 19.405 144.567 19.335C144.377 19.265 144.162 19.23 143.922 19.23H142.767V21.495ZM144.237 24.57C144.357 24.57 144.507 24.56 144.687 24.54C144.877 24.51 145.057 24.455 145.227 24.375C145.407 24.285 145.557 24.16 145.677 24C145.807 23.83 145.872 23.61 145.872 23.34C145.872 23.05 145.787 22.815 145.617 22.635C145.447 22.455 145.247 22.32 145.017 22.23C144.797 22.13 144.567 22.065 144.327 22.035C144.087 22.005 143.902 21.99 143.772 21.99H142.767V24.57H144.237ZM148.768 15.165H150.703V15.315C150.573 15.315 150.473 15.41 150.403 15.6C150.333 15.78 150.293 15.945 150.283 16.095L149.893 23.34H149.713L149.263 16.095C149.263 16.025 149.248 15.945 149.218 15.855C149.198 15.765 149.168 15.68 149.128 15.6C149.088 15.52 149.038 15.455 148.978 15.405C148.918 15.345 148.848 15.315 148.768 15.315V15.165ZM149.098 24.48C149.098 24.28 149.163 24.11 149.293 23.97C149.433 23.83 149.603 23.76 149.803 23.76C150.003 23.76 150.168 23.83 150.298 23.97C150.438 24.11 150.508 24.28 150.508 24.48C150.508 24.68 150.438 24.85 150.298 24.99C150.168 25.12 150.003 25.185 149.803 25.185C149.603 25.185 149.433 25.12 149.293 24.99C149.163 24.85 149.098 24.68 149.098 24.48Z" fill="#281814"></path></svg> 