<?xml version="1.0" encoding="UTF-8"?> <svg xmlns="http://www.w3.org/2000/svg" width="43" height="13" viewBox="0 0 43 13" fill="none"><path d="M1.96008 12.52V12.32C2.28008 12.32 2.48008 12.2267 2.56008 12.04C2.65341 11.84 2.70008 11.6067 2.70008 11.34V1.76002C2.70008 1.62669 2.63341 1.56002 2.50008 1.56002C2.44675 1.56002 2.37341 1.58002 2.28008 1.62002L8.11778e-05 2.34002V1.62002L4.66008 1.85966e-05V0.540019C4.44675 0.633353 4.27341 0.780019 4.14008 0.980019C4.02008 1.18002 3.97341 1.41335 4.00008 1.68002V11.26C4.00008 11.54 4.04675 11.7867 4.14008 12C4.23341 12.2134 4.44675 12.32 4.78008 12.32V12.52H1.96008ZM14.864 8.78002C14.864 9.24669 14.7707 9.72002 14.584 10.2C14.4107 10.6667 14.144 11.0867 13.784 11.46C13.424 11.8334 12.964 12.14 12.404 12.38C11.8573 12.6067 11.2173 12.72 10.484 12.72C10.124 12.72 9.77065 12.68 9.42399 12.6C9.07732 12.52 8.75065 12.44 8.44399 12.36C8.21732 12.2934 8.01065 12.24 7.82399 12.2C7.63732 12.1467 7.47065 12.12 7.32399 12.12V10.54C7.67065 11.0067 8.12399 11.3734 8.68399 11.64C9.25732 11.9067 9.83065 12.04 10.404 12.04C10.924 12.04 11.3773 11.96 11.764 11.8C12.1507 11.64 12.4707 11.4267 12.724 11.16C12.9907 10.88 13.184 10.5534 13.304 10.18C13.4373 9.79335 13.504 9.38002 13.504 8.94002C13.504 8.40669 13.4107 7.94002 13.224 7.54002C13.0507 7.14002 12.8173 6.80669 12.524 6.54002C12.2307 6.26002 11.8907 6.05335 11.504 5.92002C11.1307 5.78669 10.7507 5.72002 10.364 5.72002C9.93732 5.72002 9.47065 5.82002 8.96399 6.02002C8.45732 6.20669 7.93732 6.50669 7.40399 6.92002L9.96399 0.220019H14.964L14.564 1.34002H10.384C10.1573 1.94002 9.91065 2.56002 9.64399 3.20002C9.39065 3.84002 9.15065 4.46669 8.92399 5.08002C9.24399 4.93335 9.54399 4.83335 9.82399 4.78002C10.104 4.72669 10.404 4.70002 10.724 4.70002C11.2573 4.70002 11.7707 4.79335 12.264 4.98002C12.7573 5.16669 13.1973 5.43335 13.584 5.78002C13.9707 6.12669 14.2773 6.55335 14.504 7.06002C14.744 7.56669 14.864 8.14002 14.864 8.78002ZM17.413 5.74002C17.413 5.47335 17.4997 5.24669 17.673 5.06002C17.8597 4.87335 18.0864 4.78002 18.353 4.78002C18.6197 4.78002 18.8464 4.87335 19.033 5.06002C19.2197 5.24669 19.313 5.47335 19.313 5.74002C19.313 6.00669 19.2197 6.23335 19.033 6.42002C18.8464 6.59335 18.6197 6.68002 18.353 6.68002C18.0864 6.68002 17.8597 6.59335 17.673 6.42002C17.4997 6.23335 17.413 6.00669 17.413 5.74002ZM17.413 11.66C17.413 11.3934 17.4997 11.1667 17.673 10.98C17.8597 10.7934 18.0864 10.7 18.353 10.7C18.6197 10.7 18.8464 10.7934 19.033 10.98C19.2197 11.1667 19.313 11.3934 19.313 11.66C19.313 11.9267 19.2197 12.1534 19.033 12.34C18.8464 12.5134 18.6197 12.6 18.353 12.6C18.0864 12.6 17.8597 12.5134 17.673 12.34C17.4997 12.1534 17.413 11.9267 17.413 11.66ZM21.7365 6.32002C21.7365 5.29335 21.8632 4.38669 22.1165 3.60002C22.3832 2.81335 22.7298 2.16002 23.1565 1.64002C23.5832 1.10669 24.0632 0.706685 24.5965 0.440019C25.1432 0.160019 25.6965 0.0200195 26.2565 0.0200195C26.8165 0.0200195 27.3698 0.160019 27.9165 0.440019C28.4632 0.706685 28.9432 1.10669 29.3565 1.64002C29.7832 2.16002 30.1232 2.81335 30.3765 3.60002C30.6432 4.38669 30.7765 5.29335 30.7765 6.32002C30.7765 7.36002 30.6432 8.28002 30.3765 9.08002C30.1232 9.86669 29.7832 10.5334 29.3565 11.08C28.9432 11.6134 28.4632 12.02 27.9165 12.3C27.3698 12.58 26.8165 12.72 26.2565 12.72C25.6965 12.72 25.1432 12.58 24.5965 12.3C24.0632 12.02 23.5832 11.6134 23.1565 11.08C22.7298 10.5334 22.3832 9.86669 22.1165 9.08002C21.8632 8.28002 21.7365 7.36002 21.7365 6.32002ZM29.5165 6.84002C29.5165 5.88002 29.4098 5.03335 29.1965 4.30002C28.9832 3.55335 28.7032 2.93335 28.3565 2.44002C28.0232 1.93335 27.6365 1.55335 27.1965 1.30002C26.7698 1.03335 26.3298 0.900019 25.8765 0.900019C25.4232 0.900019 25.0098 1.03335 24.6365 1.30002C24.2765 1.55335 23.9698 1.89335 23.7165 2.32002C23.4632 2.74669 23.2632 3.24002 23.1165 3.80002C22.9832 4.36002 22.9165 4.94669 22.9165 5.56002C22.9165 6.29335 23.0032 7.04002 23.1765 7.80002C23.3498 8.54669 23.5965 9.22669 23.9165 9.84002C24.2365 10.44 24.6165 10.9334 25.0565 11.32C25.5098 11.7067 26.0032 11.9 26.5365 11.9C26.9232 11.9 27.2965 11.7934 27.6565 11.58C28.0165 11.3534 28.3298 11.0267 28.5965 10.6C28.8765 10.1734 29.0965 9.64669 29.2565 9.02002C29.4298 8.39335 29.5165 7.66669 29.5165 6.84002ZM33.0006 6.32002C33.0006 5.29335 33.1272 4.38669 33.3806 3.60002C33.6472 2.81335 33.9939 2.16002 34.4206 1.64002C34.8472 1.10669 35.3272 0.706685 35.8606 0.440019C36.4072 0.160019 36.9606 0.0200195 37.5206 0.0200195C38.0806 0.0200195 38.6339 0.160019 39.1806 0.440019C39.7272 0.706685 40.2072 1.10669 40.6206 1.64002C41.0472 2.16002 41.3872 2.81335 41.6406 3.60002C41.9072 4.38669 42.0406 5.29335 42.0406 6.32002C42.0406 7.36002 41.9072 8.28002 41.6406 9.08002C41.3872 9.86669 41.0472 10.5334 40.6206 11.08C40.2072 11.6134 39.7272 12.02 39.1806 12.3C38.6339 12.58 38.0806 12.72 37.5206 12.72C36.9606 12.72 36.4072 12.58 35.8606 12.3C35.3272 12.02 34.8472 11.6134 34.4206 11.08C33.9939 10.5334 33.6472 9.86669 33.3806 9.08002C33.1272 8.28002 33.0006 7.36002 33.0006 6.32002ZM40.7806 6.84002C40.7806 5.88002 40.6739 5.03335 40.4606 4.30002C40.2472 3.55335 39.9672 2.93335 39.6206 2.44002C39.2872 1.93335 38.9006 1.55335 38.4606 1.30002C38.0339 1.03335 37.5939 0.900019 37.1406 0.900019C36.6872 0.900019 36.2739 1.03335 35.9006 1.30002C35.5406 1.55335 35.2339 1.89335 34.9806 2.32002C34.7272 2.74669 34.5272 3.24002 34.3806 3.80002C34.2472 4.36002 34.1806 4.94669 34.1806 5.56002C34.1806 6.29335 34.2672 7.04002 34.4406 7.80002C34.6139 8.54669 34.8606 9.22669 35.1806 9.84002C35.5006 10.44 35.8806 10.9334 36.3206 11.32C36.7739 11.7067 37.2672 11.9 37.8006 11.9C38.1872 11.9 38.5606 11.7934 38.9206 11.58C39.2806 11.3534 39.5939 11.0267 39.8606 10.6C40.1406 10.1734 40.3606 9.64669 40.5206 9.02002C40.6939 8.39335 40.7806 7.66669 40.7806 6.84002Z" fill="white"></path></svg> 