<?xml version="1.0" encoding="UTF-8"?> <svg xmlns="http://www.w3.org/2000/svg" width="118" height="18" viewBox="0 0 118 18" fill="none"><path d="M4.47035e-08 16.55H0.125C0.258333 16.55 0.375 16.5 0.475 16.4C0.575 16.3 0.658333 16.1834 0.725 16.05C0.808333 15.9167 0.866667 15.775 0.9 15.625C0.933333 15.4584 0.95 15.3084 0.95 15.175V1.85005C0.95 1.73338 0.933333 1.60005 0.9 1.45005C0.866667 1.30005 0.808333 1.15838 0.725 1.02505C0.658333 0.891714 0.575 0.783381 0.475 0.700047C0.375 0.600048 0.266667 0.550048 0.15 0.550048H0.0250001V0.300048H3.575V0.550048H3.45C3.31667 0.550048 3.2 0.600048 3.1 0.700047C3 0.783381 2.90833 0.891714 2.825 1.02505C2.75833 1.15838 2.7 1.30005 2.65 1.45005C2.61667 1.60005 2.6 1.73338 2.6 1.85005V7.02505L8.4 1.25005C8.53333 1.11671 8.6 0.958381 8.6 0.775048C8.6 0.625048 8.53333 0.550048 8.4 0.550048V0.300048H11.1V0.550048C10.7667 0.566714 10.4667 0.666715 10.2 0.850049C9.95 1.03338 9.675 1.27505 9.375 1.57505L3.45 7.50005C4.53333 7.53338 5.40833 7.76672 6.075 8.20005C6.74167 8.63338 7.26667 9.23338 7.65 10L9.625 14C9.74167 14.25 9.89167 14.525 10.075 14.825C10.275 15.1084 10.4917 15.3834 10.725 15.65C10.975 15.9 11.25 16.1167 11.55 16.3C11.85 16.4667 12.1667 16.55 12.5 16.55V16.8H11.25C10.7667 16.8 10.35 16.7334 10 16.6C9.65 16.45 9.34167 16.2584 9.075 16.025C8.825 15.775 8.6 15.5 8.4 15.2C8.21667 14.9 8.05 14.6 7.9 14.3L5.875 10.275C5.55833 9.65838 5.11667 9.19172 4.55 8.87505C4 8.54172 3.35 8.35838 2.6 8.32505V15.175C2.6 15.3084 2.61667 15.45 2.65 15.6C2.68333 15.75 2.73333 15.9 2.8 16.05C2.86667 16.1834 2.95 16.3 3.05 16.4C3.15 16.4834 3.25833 16.5334 3.375 16.55H3.55V16.8H4.47035e-08V16.55ZM21.382 0.0500484C22.682 0.0500484 23.8487 0.283382 24.882 0.750048C25.9154 1.20005 26.7904 1.81672 27.507 2.60005C28.2404 3.36672 28.7987 4.26672 29.182 5.30005C29.582 6.31672 29.782 7.38338 29.782 8.50005C29.782 9.75005 29.5487 10.9 29.082 11.95C28.632 13 28.007 13.9 27.207 14.65C26.407 15.4 25.4737 15.9917 24.407 16.425C23.357 16.8417 22.232 17.05 21.032 17.05C19.7487 17.05 18.5904 16.8167 17.557 16.35C16.5404 15.8834 15.6737 15.2667 14.957 14.5C14.257 13.7334 13.7154 12.85 13.332 11.85C12.9487 10.85 12.757 9.80838 12.757 8.72505C12.757 7.65838 12.9487 6.60838 13.332 5.57505C13.7154 4.52505 14.2737 3.59171 15.007 2.77505C15.757 1.95838 16.6654 1.30005 17.732 0.800048C18.7987 0.300048 20.0154 0.0500484 21.382 0.0500484ZM21.357 16.175C22.4737 16.125 23.4487 15.875 24.282 15.425C25.132 14.9584 25.8404 14.375 26.407 13.675C26.9737 12.9584 27.3904 12.175 27.657 11.325C27.9404 10.475 28.082 9.63338 28.082 8.80005C28.082 7.88338 27.9154 6.95838 27.582 6.02505C27.2487 5.09171 26.7737 4.25005 26.157 3.50005C25.5404 2.73338 24.7987 2.11672 23.932 1.65005C23.082 1.16671 22.1237 0.925048 21.057 0.925048C20.0237 0.925048 19.0987 1.15838 18.282 1.62505C17.4654 2.07505 16.7654 2.65838 16.182 3.37505C15.6154 4.09172 15.182 4.89172 14.882 5.77505C14.582 6.65838 14.432 7.52505 14.432 8.37505C14.432 9.29172 14.607 10.2167 14.957 11.15C15.307 12.0667 15.7904 12.9 16.407 13.65C17.0237 14.4 17.7487 15.0084 18.582 15.475C19.432 15.9417 20.357 16.175 21.357 16.175ZM42.7006 16.55H42.8256C42.9423 16.55 43.0506 16.5084 43.1506 16.425C43.2506 16.325 43.3339 16.2084 43.4006 16.075C43.4839 15.925 43.5423 15.775 43.5756 15.625C43.6089 15.4584 43.6256 15.3084 43.6256 15.175V8.37505H35.6256V15.175C35.6256 15.3084 35.6423 15.4584 35.6756 15.625C35.7089 15.775 35.7589 15.9167 35.8256 16.05C35.8923 16.1834 35.9673 16.3 36.0506 16.4C36.1506 16.5 36.2673 16.55 36.4006 16.55H36.5256V16.8H33.0256V16.55H33.1506C33.2673 16.55 33.3756 16.5084 33.4756 16.425C33.5756 16.325 33.6589 16.2084 33.7256 16.075C33.8089 15.925 33.8673 15.775 33.9006 15.625C33.9339 15.4584 33.9506 15.3084 33.9506 15.175V1.85005C33.9506 1.73338 33.9339 1.60005 33.9006 1.45005C33.8673 1.30005 33.8173 1.15838 33.7506 1.02505C33.6839 0.891714 33.6006 0.783381 33.5006 0.700047C33.4006 0.600048 33.2839 0.550048 33.1506 0.550048H33.0256V0.300048H36.5256V0.550048H36.4006C36.2673 0.550048 36.1506 0.600048 36.0506 0.700047C35.9506 0.783381 35.8673 0.891714 35.8006 1.02505C35.7506 1.15838 35.7089 1.30005 35.6756 1.45005C35.6423 1.60005 35.6256 1.73338 35.6256 1.85005V7.50005H43.6256V1.85005C43.6256 1.73338 43.6089 1.60005 43.5756 1.45005C43.5423 1.30005 43.4923 1.15838 43.4256 1.02505C43.3589 0.891714 43.2756 0.783381 43.1756 0.700047C43.0756 0.600048 42.9589 0.550048 42.8256 0.550048H42.7006V0.300048H46.2006V0.550048H46.0756C45.9423 0.550048 45.8256 0.600048 45.7256 0.700047C45.6256 0.783381 45.5423 0.891714 45.4756 1.02505C45.4256 1.15838 45.3839 1.30005 45.3506 1.45005C45.3173 1.60005 45.3006 1.73338 45.3006 1.85005V15.175C45.3006 15.3084 45.3173 15.4584 45.3506 15.625C45.4006 15.775 45.4589 15.9167 45.5256 16.05C45.5923 16.1834 45.6673 16.3 45.7506 16.4C45.8506 16.5 45.9589 16.55 46.0756 16.55H46.2006V16.8H42.7006V16.55ZM55.3523 16.55H55.4773V16.8H51.9273V16.55H52.0523C52.1857 16.55 52.3023 16.5 52.4023 16.4C52.5023 16.3 52.5857 16.1834 52.6523 16.05C52.7357 15.9167 52.794 15.775 52.8273 15.625C52.8607 15.4584 52.8773 15.3084 52.8773 15.175V1.22505H49.9773C49.7107 1.22505 49.4773 1.28338 49.2773 1.40005C49.0773 1.51671 48.9107 1.66671 48.7773 1.85005C48.644 2.01672 48.544 2.20838 48.4773 2.42505C48.4107 2.62505 48.3773 2.82505 48.3773 3.02505H48.1273V0.300048H59.3523V3.02505H59.1023C59.1023 2.82505 59.069 2.62505 59.0023 2.42505C58.9357 2.20838 58.8357 2.01672 58.7023 1.85005C58.569 1.66671 58.4023 1.51671 58.2023 1.40005C58.0023 1.28338 57.769 1.22505 57.5023 1.22505H54.5523V15.175C54.5523 15.3084 54.569 15.4584 54.6023 15.625C54.6357 15.775 54.6857 15.9167 54.7523 16.05C54.8357 16.1834 54.919 16.3 55.0023 16.4C55.1023 16.5 55.219 16.55 55.3523 16.55ZM68.7023 16.55H68.8273C69.2273 16.55 69.4273 16.3667 69.4273 16C69.4273 15.8667 69.4023 15.725 69.3523 15.575L67.1023 9.50005H62.7273L60.5523 15.475C60.5023 15.6084 60.4773 15.7334 60.4773 15.85C60.4773 16.0667 60.5357 16.2417 60.6523 16.375C60.769 16.4917 60.894 16.55 61.0273 16.55H61.1523V16.8H58.3773V16.55H58.5023C58.719 16.55 58.9273 16.425 59.1273 16.175C59.344 15.9084 59.519 15.6 59.6523 15.25L65.3773 4.75645e-05L70.9773 15.1C71.094 15.4334 71.2523 15.7584 71.4523 16.075C71.669 16.3917 71.944 16.55 72.2773 16.55H72.4023V16.8H68.7023V16.55ZM62.9773 8.65005H66.8273L64.9023 3.42505L62.9773 8.65005ZM74.6484 16.55H74.7734C74.9068 16.55 75.0234 16.5 75.1234 16.4C75.2234 16.3 75.3068 16.1834 75.3734 16.05C75.4568 15.9167 75.5151 15.775 75.5484 15.625C75.5818 15.4584 75.5984 15.3084 75.5984 15.175V1.85005C75.5984 1.73338 75.5818 1.60005 75.5484 1.45005C75.5151 1.30005 75.4568 1.15838 75.3734 1.02505C75.3068 0.891714 75.2234 0.783381 75.1234 0.700047C75.0234 0.600048 74.9151 0.550048 74.7984 0.550048H74.6734V0.300048H78.2234V0.550048H78.0984C77.9651 0.550048 77.8484 0.600048 77.7484 0.700047C77.6484 0.783381 77.5568 0.891714 77.4734 1.02505C77.4068 1.15838 77.3484 1.30005 77.2984 1.45005C77.2651 1.60005 77.2484 1.73338 77.2484 1.85005V7.02505L83.0484 1.25005C83.1818 1.11671 83.2484 0.958381 83.2484 0.775048C83.2484 0.625048 83.1818 0.550048 83.0484 0.550048V0.300048H85.7484V0.550048C85.4151 0.566714 85.1151 0.666715 84.8484 0.850049C84.5984 1.03338 84.3234 1.27505 84.0234 1.57505L78.0984 7.50005C79.1818 7.53338 80.0568 7.76672 80.7234 8.20005C81.3901 8.63338 81.9151 9.23338 82.2984 10L84.2734 14C84.3901 14.25 84.5401 14.525 84.7234 14.825C84.9234 15.1084 85.1401 15.3834 85.3734 15.65C85.6234 15.9 85.8984 16.1167 86.1984 16.3C86.4984 16.4667 86.8151 16.55 87.1484 16.55V16.8H85.8984C85.4151 16.8 84.9984 16.7334 84.6484 16.6C84.2984 16.45 83.9901 16.2584 83.7234 16.025C83.4734 15.775 83.2484 15.5 83.0484 15.2C82.8651 14.9 82.6984 14.6 82.5484 14.3L80.5234 10.275C80.2068 9.65838 79.7651 9.19172 79.1984 8.87505C78.6484 8.54172 77.9984 8.35838 77.2484 8.32505V15.175C77.2484 15.3084 77.2651 15.45 77.2984 15.6C77.3318 15.75 77.3818 15.9 77.4484 16.05C77.5151 16.1834 77.5984 16.3 77.6984 16.4C77.7984 16.4834 77.9068 16.5334 78.0234 16.55H78.1984V16.8H74.6484V16.55ZM95.7127 16.55H95.8377V16.8H92.2877V16.55H92.4127C92.546 16.55 92.6627 16.5 92.7627 16.4C92.8627 16.3 92.946 16.1834 93.0127 16.05C93.096 15.9167 93.1544 15.775 93.1877 15.625C93.221 15.4584 93.2377 15.3084 93.2377 15.175V1.22505H90.3377C90.071 1.22505 89.8377 1.28338 89.6377 1.40005C89.4377 1.51671 89.271 1.66671 89.1377 1.85005C89.0044 2.01672 88.9044 2.20838 88.8377 2.42505C88.771 2.62505 88.7377 2.82505 88.7377 3.02505H88.4877V0.300048H99.7127V3.02505H99.4627C99.4627 2.82505 99.4294 2.62505 99.3627 2.42505C99.296 2.20838 99.196 2.01672 99.0627 1.85005C98.9294 1.66671 98.7627 1.51671 98.5627 1.40005C98.3627 1.28338 98.1294 1.22505 97.8627 1.22505H94.9127V15.175C94.9127 15.3084 94.9294 15.4584 94.9627 15.625C94.996 15.775 95.046 15.9167 95.1127 16.05C95.196 16.1834 95.2794 16.3 95.3627 16.4C95.4627 16.5 95.5794 16.55 95.7127 16.55ZM101.882 16.55H102.007C102.124 16.55 102.232 16.5084 102.332 16.425C102.432 16.325 102.515 16.2084 102.582 16.075C102.649 15.9417 102.699 15.8 102.732 15.65C102.782 15.5 102.807 15.3667 102.807 15.25V1.92505C102.807 1.80838 102.79 1.66671 102.757 1.50005C102.724 1.33338 102.665 1.18338 102.582 1.05005C102.515 0.916715 102.432 0.800048 102.332 0.700047C102.232 0.600048 102.124 0.550048 102.007 0.550048H101.882V0.300048H105.407V0.550048H105.232C104.999 0.583382 104.815 0.766715 104.682 1.10005C104.549 1.41671 104.482 1.69171 104.482 1.92505V7.30005H105.882C106.649 7.30005 107.399 7.38338 108.132 7.55005C108.882 7.70005 109.54 7.96671 110.107 8.35005C110.69 8.71672 111.157 9.20838 111.507 9.82505C111.857 10.425 112.032 11.175 112.032 12.075C112.032 12.8084 111.882 13.4667 111.582 14.05C111.282 14.6334 110.874 15.1334 110.357 15.55C109.84 15.95 109.224 16.2584 108.507 16.475C107.807 16.6917 107.049 16.8 106.232 16.8H101.882V16.55ZM104.857 15.925C106.79 15.925 108.174 15.5917 109.007 14.925C109.857 14.2584 110.282 13.3417 110.282 12.175C110.282 10.9917 109.857 10.025 109.007 9.27505C108.174 8.52505 106.94 8.15005 105.307 8.15005H104.482V15.925H104.857ZM113.707 0.300048H117.232V0.550048H117.032C116.915 0.566714 116.807 0.625048 116.707 0.725049C116.624 0.825048 116.549 0.941715 116.482 1.07505C116.432 1.19171 116.39 1.32505 116.357 1.47505C116.324 1.60838 116.307 1.73338 116.307 1.85005V15.175C116.307 15.3084 116.324 15.45 116.357 15.6C116.39 15.75 116.44 15.9 116.507 16.05C116.574 16.1834 116.649 16.3 116.732 16.4C116.832 16.4834 116.94 16.5334 117.057 16.55H117.232V16.8H113.707V16.55H113.832C113.965 16.55 114.082 16.5084 114.182 16.425C114.282 16.325 114.365 16.2084 114.432 16.075C114.499 15.925 114.549 15.775 114.582 15.625C114.615 15.4584 114.632 15.3084 114.632 15.175V1.85005C114.632 1.73338 114.615 1.60005 114.582 1.45005C114.549 1.30005 114.499 1.15838 114.432 1.02505C114.365 0.891714 114.282 0.783381 114.182 0.700047C114.082 0.600048 113.965 0.550048 113.832 0.550048H113.707V0.300048Z" fill="#281814"></path></svg> 