<?xml version="1.0" encoding="UTF-8"?> <svg xmlns="http://www.w3.org/2000/svg" width="52" height="12" viewBox="0 0 52 12" fill="none"><path d="M4.06206e-05 11.7H0.0900406C0.186041 11.7 0.270041 11.67 0.342041 11.61C0.414041 11.538 0.474041 11.454 0.522041 11.358C0.582041 11.262 0.624041 11.16 0.648041 11.052C0.684041 10.944 0.702041 10.842 0.702041 10.746V1.116C0.702041 1.032 0.684041 0.936005 0.648041 0.828004C0.624041 0.720004 0.582041 0.618004 0.522041 0.522004C0.474041 0.426004 0.414041 0.348004 0.342041 0.288004C0.270041 0.216004 0.186041 0.180004 0.0900406 0.180004H4.06206e-05V4.41074e-06H6.58804V1.71H6.40804C6.40804 1.434 6.31204 1.194 6.12004 0.990005C5.92804 0.774004 5.63404 0.666004 5.23804 0.666004H1.90804V5.04H2.73604C3.28804 5.04 3.83404 5.094 4.37404 5.202C4.92604 5.31 5.41804 5.496 5.85004 5.76C6.29404 6.012 6.64804 6.36 6.91204 6.804C7.18804 7.248 7.32604 7.806 7.32604 8.478C7.32604 9.006 7.22404 9.48 7.02004 9.9C6.82804 10.32 6.55204 10.68 6.19204 10.98C5.83204 11.268 5.40004 11.49 4.89604 11.646C4.40404 11.802 3.86404 11.88 3.27604 11.88H4.06206e-05V11.7ZM2.61004 11.25C3.21004 11.25 3.72604 11.184 4.15804 11.052C4.60204 10.92 4.96804 10.74 5.25604 10.512C5.54404 10.272 5.75404 9.996 5.88604 9.684C6.03004 9.36 6.10204 9.012 6.10204 8.64C6.10204 7.764 5.79004 7.05 5.16604 6.498C4.54204 5.934 3.65404 5.652 2.50204 5.652H1.90804V11.25H2.61004ZM14.2745 11.88V10.962L14.1845 11.052C13.8845 11.352 13.5365 11.586 13.1405 11.754C12.7565 11.922 12.2885 12.006 11.7365 12.006C11.3165 12.006 10.9565 11.958 10.6565 11.862C10.3565 11.766 10.1105 11.634 9.91846 11.466C9.72646 11.286 9.58246 11.082 9.48646 10.854C9.40246 10.626 9.36046 10.386 9.36046 10.134C9.36046 9.726 9.46846 9.366 9.68446 9.054C9.91246 8.742 10.2365 8.466 10.6565 8.226C11.0765 7.986 11.5865 7.77 12.1865 7.578C12.7985 7.374 13.4945 7.176 14.2745 6.984C14.2505 6.516 14.1545 6.138 13.9865 5.85C13.8185 5.562 13.6205 5.34 13.3925 5.184C13.1645 5.016 12.9245 4.908 12.6725 4.86C12.4205 4.8 12.2045 4.77 12.0245 4.77C11.7125 4.77 11.4365 4.818 11.1965 4.914C10.9565 4.998 10.7465 5.118 10.5665 5.274C10.3865 5.418 10.2365 5.586 10.1165 5.778C10.0085 5.97 9.92446 6.162 9.86446 6.354H9.70246V4.95C9.81046 4.95 9.93646 4.914 10.0805 4.842C10.2245 4.758 10.3925 4.668 10.5845 4.572C10.7885 4.476 11.0285 4.392 11.3045 4.32C11.5925 4.236 11.9345 4.194 12.3305 4.194C12.9905 4.194 13.5245 4.278 13.9325 4.446C14.3405 4.614 14.6525 4.836 14.8685 5.112C15.0965 5.388 15.2465 5.706 15.3185 6.066C15.3905 6.414 15.4265 6.774 15.4265 7.146V10.71C15.4265 10.95 15.4865 11.178 15.6065 11.394C15.7265 11.598 15.8885 11.7 16.0925 11.7V11.88H14.2745ZM14.2745 10.17V7.596L14.0945 7.632C13.8065 7.704 13.4525 7.8 13.0325 7.92C12.6245 8.04 12.2345 8.196 11.8625 8.388C11.4905 8.58 11.1725 8.808 10.9085 9.072C10.6445 9.336 10.5125 9.642 10.5125 9.99C10.5125 10.374 10.6685 10.692 10.9805 10.944C11.2925 11.196 11.7005 11.322 12.2045 11.322C12.6005 11.322 12.9485 11.238 13.2485 11.07C13.5485 10.89 13.8245 10.662 14.0765 10.386L14.2745 10.17ZM20.053 10.71C20.053 10.806 20.065 10.914 20.089 11.034C20.113 11.142 20.149 11.244 20.197 11.34C20.245 11.436 20.299 11.52 20.359 11.592C20.431 11.664 20.509 11.7 20.593 11.7V11.88H18.325V11.7C18.409 11.7 18.481 11.67 18.541 11.61C18.613 11.538 18.673 11.454 18.721 11.358C18.769 11.25 18.805 11.142 18.829 11.034C18.853 10.914 18.865 10.806 18.865 10.71V5.436C18.865 5.352 18.853 5.256 18.829 5.148C18.805 5.04 18.769 4.938 18.721 4.842C18.673 4.746 18.613 4.668 18.541 4.608C18.481 4.536 18.409 4.5 18.325 4.5V4.32H20.593V4.5C20.497 4.5 20.413 4.536 20.341 4.608C20.281 4.668 20.227 4.746 20.179 4.842C20.143 4.938 20.113 5.04 20.089 5.148C20.065 5.256 20.053 5.352 20.053 5.436V7.614H24.157V5.436C24.157 5.352 24.145 5.256 24.121 5.148C24.097 5.04 24.061 4.938 24.013 4.842C23.977 4.746 23.923 4.668 23.851 4.608C23.791 4.536 23.713 4.5 23.617 4.5V4.32H25.885V4.5C25.789 4.5 25.705 4.536 25.633 4.608C25.573 4.668 25.519 4.746 25.471 4.842C25.423 4.938 25.387 5.04 25.363 5.148C25.351 5.256 25.345 5.352 25.345 5.436V10.71C25.345 10.806 25.357 10.914 25.381 11.034C25.405 11.142 25.441 11.244 25.489 11.34C25.537 11.436 25.591 11.52 25.651 11.592C25.723 11.664 25.801 11.7 25.885 11.7V11.88H23.617V11.7C23.701 11.7 23.773 11.67 23.833 11.61C23.905 11.538 23.965 11.454 24.013 11.358C24.061 11.25 24.097 11.142 24.121 11.034C24.145 10.914 24.157 10.806 24.157 10.71V8.208H20.053V10.71ZM33.617 10.476C33.689 10.608 33.785 10.746 33.905 10.89C34.025 11.034 34.157 11.166 34.301 11.286C34.457 11.406 34.613 11.508 34.769 11.592C34.925 11.664 35.075 11.7 35.219 11.7V11.88H34.535C33.983 11.88 33.557 11.766 33.257 11.538C32.957 11.31 32.723 11.04 32.555 10.728L31.709 9.126C31.577 8.874 31.355 8.658 31.043 8.478C30.731 8.286 30.401 8.19 30.053 8.19V10.746C30.053 10.842 30.059 10.944 30.071 11.052C30.095 11.16 30.131 11.262 30.179 11.358C30.227 11.454 30.287 11.538 30.359 11.61C30.431 11.67 30.515 11.7 30.611 11.7V11.88H28.289V11.7C28.373 11.7 28.451 11.67 28.523 11.61C28.607 11.538 28.673 11.454 28.721 11.358C28.769 11.262 28.805 11.16 28.829 11.052C28.853 10.944 28.865 10.842 28.865 10.746V5.454C28.865 5.37 28.853 5.274 28.829 5.166C28.805 5.046 28.769 4.938 28.721 4.842C28.685 4.746 28.631 4.668 28.559 4.608C28.487 4.536 28.397 4.5 28.289 4.5V4.32H30.593V4.5C30.509 4.5 30.431 4.536 30.359 4.608C30.299 4.668 30.245 4.746 30.197 4.842C30.149 4.938 30.113 5.046 30.089 5.166C30.065 5.274 30.053 5.37 30.053 5.454V7.308C30.569 6.852 31.079 6.414 31.583 5.994C32.087 5.562 32.597 5.118 33.113 4.662C33.113 4.65 33.119 4.638 33.131 4.626C33.143 4.614 33.149 4.602 33.149 4.59C33.149 4.53 33.119 4.5 33.059 4.5V4.32H34.625V4.5C34.565 4.5 34.493 4.518 34.409 4.554C34.325 4.59 34.241 4.632 34.157 4.68C34.061 4.728 33.965 4.788 33.869 4.86C33.329 5.316 32.789 5.784 32.249 6.264C31.709 6.732 31.169 7.194 30.629 7.65C31.145 7.65 31.565 7.746 31.889 7.938C32.225 8.13 32.507 8.436 32.735 8.856L33.617 10.476ZM37.0758 8.244C37.1238 8.664 37.2258 9.066 37.3818 9.45C37.5378 9.822 37.7418 10.152 37.9938 10.44C38.2578 10.728 38.5758 10.962 38.9478 11.142C39.3198 11.31 39.7518 11.394 40.2438 11.394C40.5078 11.394 40.7838 11.358 41.0718 11.286C41.3718 11.202 41.6478 11.088 41.8998 10.944C42.1518 10.8 42.3738 10.626 42.5658 10.422C42.7698 10.206 42.9078 9.966 42.9798 9.702H43.1418V11.052C43.0698 11.052 42.9858 11.076 42.8898 11.124C42.8058 11.172 42.7038 11.232 42.5838 11.304C42.3438 11.448 42.0198 11.604 41.6118 11.772C41.2038 11.928 40.6638 12.006 39.9918 12.006C39.4518 12.006 38.9358 11.928 38.4438 11.772C37.9638 11.616 37.5378 11.376 37.1658 11.052C36.7938 10.728 36.4938 10.314 36.2658 9.81C36.0498 9.306 35.9418 8.706 35.9418 8.01C35.9418 7.566 36.0138 7.116 36.1578 6.66C36.3138 6.204 36.5418 5.796 36.8418 5.436C37.1538 5.064 37.5498 4.764 38.0298 4.536C38.5098 4.308 39.0858 4.194 39.7578 4.194C40.3578 4.194 40.8798 4.296 41.3238 4.5C41.7798 4.704 42.1518 4.986 42.4398 5.346C42.7398 5.706 42.9618 6.132 43.1058 6.624C43.2498 7.116 43.3218 7.656 43.3218 8.244H37.0758ZM39.6858 4.788C39.2658 4.788 38.8998 4.872 38.5878 5.04C38.2878 5.208 38.0298 5.424 37.8138 5.688C37.5978 5.952 37.4298 6.252 37.3098 6.588C37.1898 6.924 37.1118 7.26 37.0758 7.596H42.2058C42.1938 7.248 42.1278 6.906 42.0078 6.57C41.8998 6.234 41.7438 5.934 41.5398 5.67C41.3358 5.406 41.0778 5.196 40.7658 5.04C40.4538 4.872 40.0938 4.788 39.6858 4.788ZM51.4462 6.21C51.4462 6.078 51.4222 5.934 51.3742 5.778C51.3262 5.622 51.2542 5.484 51.1582 5.364C51.0622 5.232 50.9422 5.124 50.7982 5.04C50.6542 4.956 50.4862 4.914 50.2942 4.914H48.7102V10.71C48.7102 10.806 48.7222 10.908 48.7462 11.016C48.7702 11.124 48.8062 11.232 48.8542 11.34C48.9142 11.436 48.9742 11.52 49.0342 11.592C49.1062 11.664 49.1902 11.7 49.2862 11.7V11.88H46.9462V11.7C47.0422 11.7 47.1262 11.664 47.1982 11.592C47.2702 11.52 47.3302 11.436 47.3782 11.34C47.4382 11.244 47.4802 11.142 47.5042 11.034C47.5282 10.914 47.5402 10.806 47.5402 10.71V4.914H45.9922C45.8002 4.914 45.6322 4.956 45.4882 5.04C45.3442 5.124 45.2242 5.232 45.1282 5.364C45.0442 5.484 44.9782 5.622 44.9302 5.778C44.8822 5.934 44.8582 6.078 44.8582 6.21H44.6782V4.32H51.6082V6.21H51.4462Z" fill="white"></path></svg> 