<?xml version="1.0" encoding="UTF-8"?> <svg xmlns="http://www.w3.org/2000/svg" width="32" height="32" viewBox="0 0 32 32" fill="none"><rect width="32" height="32" fill="#E7E0CB"></rect><path fill-rule="evenodd" clip-rule="evenodd" d="M7.70164 4.05873C7.3604 4.13684 6.63595 4.56543 6.22133 4.93448C5.7508 5.35326 5.42627 5.79625 5.19638 6.33351C4.69917 7.49541 5.13977 8.48078 6.59055 9.45151C8.08025 10.4483 9.24206 10.6251 11.3508 10.1761C11.8561 10.0685 12.2559 9.95457 12.9823 9.71122C13.185 9.6433 13.3905 9.58777 13.439 9.58777C13.4875 9.58777 13.5549 9.56988 13.5888 9.54798C13.6777 9.49049 14.346 9.2963 14.3767 9.31902C14.4078 9.34198 14.0321 9.8107 13.8738 9.94648C13.8125 9.9991 13.6654 10.182 13.5469 10.353C13.4284 10.524 13.2964 10.6906 13.2534 10.7231C13.2105 10.7556 13.0092 11.0354 12.8061 11.3449C12.603 11.6543 12.267 12.1657 12.0595 12.4814C11.7306 12.9818 11.3172 13.7932 10.9874 14.5859C10.7647 15.1212 10.6533 15.5342 10.536 16.2599C10.4037 17.0781 10.4053 18.4465 10.5398 19.4866C10.5992 19.9461 10.6607 20.3374 10.6766 20.3563C10.6924 20.3752 10.7465 20.6127 10.7967 20.8841C10.847 21.1555 10.9474 21.6143 11.0198 21.9036C11.3385 23.1772 11.4828 24.3515 11.443 25.349C11.4169 26.0041 11.3221 26.4114 11.0678 26.9608C10.9393 27.2384 10.4011 27.999 10.038 28.4159C9.87395 28.6043 9.7306 28.7951 9.71939 28.8401C9.69206 28.9495 9.86877 29.0271 10.0633 28.9911C10.3175 28.944 11.388 28.1433 12.056 27.5006C12.248 27.3159 12.4586 27.1268 12.5241 27.0803C12.7193 26.9418 13.2035 26.3689 13.4464 25.9891C13.8209 25.4037 13.9204 25.1774 14.0072 24.7139C14.1351 24.0306 14.0004 22.7336 13.7078 21.8319C13.5051 21.2074 13.3778 20.7371 13.2614 20.1818C13.2117 19.9451 13.1101 19.5254 13.0356 19.2492C12.9611 18.9729 12.8725 18.6071 12.8387 18.4361C12.8048 18.2651 12.7309 17.8992 12.6746 17.623C12.6182 17.3468 12.5463 16.9916 12.5148 16.8338C12.2824 15.671 12.415 14.6341 12.9704 13.2706C13.0508 13.0733 13.1419 12.8914 13.1729 12.8664C13.2039 12.8415 13.2293 12.7816 13.2293 12.7335C13.2293 12.5568 13.6228 11.9637 14.2375 11.2139C14.2914 11.1482 14.4076 10.9868 14.4957 10.8552C14.5837 10.7237 14.7793 10.493 14.9303 10.3426C15.0813 10.1922 15.3058 9.94959 15.429 9.80348C15.6033 9.59686 15.7057 9.52612 15.8898 9.48542L16.1266 9.43305L16.6798 9.85714C16.9842 10.0904 17.3059 10.3459 17.3948 10.4248C17.4838 10.5037 17.7666 10.7505 18.0233 10.9732C18.7201 11.5778 19.4555 12.4428 19.8544 13.1271C20.2649 13.8312 20.6413 14.7822 20.8198 15.5663C20.989 16.3095 20.9112 18.0708 20.6782 18.7709C20.6476 18.8629 20.5611 19.132 20.486 19.3687C20.4108 19.6055 20.3067 19.9283 20.2545 20.0862C20.0228 20.7868 19.9621 21.7735 20.1206 22.2624C20.2714 22.7272 20.6302 23.2186 21.1594 23.6853C21.4353 23.9286 21.6805 24.1282 21.7042 24.129C21.7279 24.1296 21.8775 24.2183 22.0366 24.326C22.5594 24.6796 22.7836 24.7261 22.8434 24.4931C22.9312 24.1506 22.9918 23.442 22.9461 23.2923C22.8771 23.0665 22.6302 22.8055 22.273 22.5806C21.9977 22.4073 21.4609 21.876 21.2344 21.5526C21.0401 21.2753 20.8079 20.6886 20.8095 20.4793C20.8104 20.3683 20.837 20.2021 20.8687 20.1101C21.0379 19.6182 21.1404 19.3794 21.223 19.2838C21.2735 19.2253 21.4118 18.9945 21.5304 18.7709C21.649 18.5473 21.8566 18.2137 21.9919 18.0295C22.7202 17.0384 22.9857 16.5043 23.0909 15.8179C23.238 14.8584 22.9202 13.6945 22.3015 12.9268C21.384 11.7883 20.7599 11.1786 19.8282 10.5108C19.2185 10.0738 18.3999 9.58414 17.7472 9.26603C17.2938 9.04506 17.2226 8.93711 17.5862 9.022C17.7016 9.04888 17.9417 9.09877 18.1198 9.13278C18.2979 9.16678 18.6477 9.24747 18.8971 9.31204C19.6 9.49403 20.2467 9.63703 20.3634 9.63627C20.4216 9.63593 20.5528 9.66774 20.6548 9.70705C20.7569 9.74632 20.9007 9.77861 20.9746 9.7788C21.0484 9.77894 21.2378 9.81056 21.3956 9.84901C21.5534 9.88751 22.0031 9.9484 22.395 9.98432C23.6737 10.1016 24.882 9.9417 25.711 9.54539C26.1861 9.3183 26.4625 9.08552 26.7019 8.71117C27.0986 8.09064 27.0994 7.39043 26.7041 6.81935C26.4691 6.47982 26.2329 6.29228 25.7541 6.06519C25.3855 5.89033 25.3579 5.88526 24.7917 5.8878C24.3409 5.88985 24.1279 5.91491 23.8524 5.99838C23.6565 6.05773 23.3796 6.13693 23.2371 6.17434C23.0946 6.21174 22.9197 6.26119 22.8484 6.2842C22.7772 6.30725 22.5294 6.37493 22.2978 6.43467C21.9429 6.52621 21.5357 6.65348 20.7756 6.91051C20.7043 6.93462 20.2525 7.07175 19.7716 7.21528C19.2906 7.35881 18.7659 7.53162 18.6056 7.59929C18.4453 7.66697 18.2413 7.74953 18.1522 7.78272C17.8885 7.8811 17.4183 8.10948 17.2598 8.21624C17.1223 8.30879 17.0915 8.31118 16.8063 8.25149C16.1381 8.11159 15.8834 8.10767 15.3817 8.22968C15.1226 8.29267 14.8887 8.34423 14.8617 8.34423C14.8348 8.34423 14.7234 8.28501 14.6143 8.2127C13.1014 7.21007 12.7786 6.97241 11.3184 5.78563C9.338 4.1762 8.6414 3.84355 7.70164 4.05873ZM6.65454 5.75679C6.34187 5.86398 6.17747 5.97623 5.90555 6.26808C5.74153 6.44409 5.68777 6.5639 5.64249 6.85475C5.575 7.28807 5.60861 7.44581 5.8203 7.68768C6.44739 8.40425 7.18311 8.81429 8.15086 8.98656C8.9292 9.12512 11.2751 9.03286 12.3224 8.82246C12.4471 8.7974 12.6928 8.76454 12.8685 8.74938C13.0441 8.73422 13.2132 8.71026 13.2441 8.69615C13.3078 8.66707 13.1804 8.53554 13.0885 8.53554C12.9236 8.53554 11.7629 8.1279 11.3879 7.93835C11.153 7.81959 10.945 7.72245 10.9256 7.72245C10.8944 7.72245 10.4652 7.47021 9.74207 7.02693C9.61148 6.94687 9.27147 6.71274 8.98646 6.5066C8.42544 6.10087 7.98801 5.87306 7.52688 5.74646C7.15383 5.64401 6.97719 5.64612 6.65454 5.75679ZM24.6945 7.03439C24.2039 7.11312 24.2608 7.09485 22.3302 7.793C20.459 8.46968 20.1991 8.54434 19.2457 8.67946C19.0455 8.70782 18.8277 8.76024 18.7615 8.79597C18.6513 8.85547 18.6654 8.86537 18.9311 8.91506C19.0905 8.94486 19.288 8.99006 19.3698 9.01545C19.4516 9.04085 19.6702 9.06209 19.8556 9.06266C20.041 9.06319 20.3821 9.09585 20.6137 9.13517C21.1574 9.22752 22.702 9.27751 23.0427 9.21375C24.0533 9.02464 25.0214 8.76875 25.2011 8.64315C25.2482 8.6103 25.316 8.58337 25.3518 8.58337C25.3875 8.58337 25.577 8.49187 25.7728 8.3801C26.3349 8.05922 26.5182 7.65478 26.2734 7.27569C26.0755 6.9692 25.5762 6.89287 24.6945 7.03439Z" fill="#31010F"></path></svg> 