<?xml version="1.0" encoding="UTF-8"?> <svg xmlns="http://www.w3.org/2000/svg" viewBox="0 0 50 54" fill="none"><path fill-rule="evenodd" clip-rule="evenodd" d="M28.89375 1.1450025C28.48975 1.798745 27.98725 2.611525 27.77725 2.951125C27.25625 3.7941 26.93525 4.069775 25.69525 4.73855C24.883425 5.1765 24.598325 5.40665 24.50095 5.702375C24.3421 6.185425 24.59845 7.1426 24.886675 7.1426C25.123 7.1426 25.131 7.0448 24.939175 6.4951C24.72705 5.88755 24.947175 5.5902 26.0055 5.05405C27.16525 4.4664 27.769 3.8361 28.7615 2.1765475C29.19975 1.443425 29.558 0.904555 29.5575 0.97906C29.556 1.258655 28.2095 3.898275 27.52525 4.963825C27.09275 5.6372 26.81775 6.214675 26.8235 6.437525C26.82875 6.6391 26.765 6.941025 26.682 7.108475C26.499 7.477725 26.6405 7.66035 26.95625 7.4627C27.10125 7.3718 27.203 7.1017 27.22975 6.735C27.2605 6.3156 27.45775 5.863025 27.932 5.12325C28.97825 3.4912 30.011 1.2605525 30.02425 0.6047775C30.043 -0.3429175 29.71725 -0.187135 28.89375 1.1450025ZM25.4035 7.549C25.34675 7.83305 25.24275 7.955375 25.05875 7.955375C24.588975 7.955375 24.299125 8.211125 24.05985 8.836975C23.83645 9.421075 23.836725 9.476475 24.0669 9.9861C24.2595 10.4128 24.2903 10.707975 24.218 11.43975C24.168225 11.94475 24.090225 12.937 24.0448 13.6448C23.9995 14.3526 23.89805 14.972875 23.81965 15.023275C23.74125 15.07365 23.27655 15.0841 22.7872 15.046575C22.205575 15.002 21.676075 15.04725 21.25885 15.17715C20.628425 15.3733 20.617425 15.3714 20.396625 15.03505C20.192625 14.7239 20.11355 14.701275 19.492075 14.7747C19.117575 14.819 18.651 14.961625 18.4554 15.09155C18.2544 15.224975 17.804075 15.33795 17.420775 15.351075C17.047525 15.363825 16.503625 15.473825 16.212275 15.59545C15.700525 15.80895 15.672975 15.8065 15.4119 15.52665C14.975675 15.059175 13.9336 15.241225 12.2497 16.0792C11.4908 16.456725 10.835275 16.85595 10.792975 16.9662C10.750525 17.0766 10.576625 17.167375 10.4064 17.168175C9.83755 17.170625 8.747325 17.797125 8.0964 18.4957C7.56025 19.07115 7.452675 19.2734 7.455125 19.700925C7.46205 20.897325 8.5908 22.328075 9.895325 22.7942L10.639575 23.060125L10.87585 23.940225C11.074 24.67835 11.101 25.214 11.043075 27.25875C11.0051 28.59975 10.905275 30.15575 10.821325 30.71625C10.6892 31.59675 10.698825 31.79375 10.89145 32.16575C11.0222 32.41825 11.114825 32.9205 11.115775 33.38175C11.1166 33.81375 11.20815 34.4665 11.319225 34.83225C11.4485 35.258 11.520925 36.0625 11.520375 37.0675L11.519425 38.63775L11.113475 38.86825C10.890075 38.99525 10.707375 39.1935 10.707375 39.3085C10.707375 39.4575 10.5708 39.51825 10.2351 39.51825C9.8811 39.51825 9.643325 39.634 9.28565 39.981C8.729675 40.52025 8.655225 41.112 9.065525 41.7335L9.32065 42.12L8.8272 42.5525C8.42965 42.901 8.096675 43.032 7.11305 43.2265C5.75725 43.4945 3.89185 44.0925 2.60955 44.67025C0.563225 45.59225 -0.53298 47.529 0.258045 48.8245C0.5639025 49.32575 0.9889825 49.56875 2.0084175 49.825C2.612275 49.97675 2.846375 50.1315 3.385125 50.73525C4.578175 52.072 6.26195 52.4675 14.505175 53.34575C16.68225 53.578 22.13505 53.8855 25.5605 53.96925C28.164 54.033 29.17 54.00375 30.579 53.82375C32.90475 53.5265 33.03425 53.5135 36.81725 53.193C40.064 52.91775 41.71275 52.632 44.2665 51.902C45.838 51.45275 46.43825 51.138 46.637 50.6595C46.7495 50.38775 47.0485 50.1475 47.63975 49.8535C48.7965 49.278 49.566 48.58 49.84375 47.8535C50.15225 47.0465 50.039 46.70075 49.18775 45.8515C48.16475 44.831 47.1405 44.34225 44.7325 43.725C43.58675 43.4315 42.14675 43.03875 41.53225 42.8525C40.91775 42.66625 39.93075 42.443 39.339 42.3565L38.263 42.19925L38.087 41.60375C37.99025 41.27625 37.85775 41.00825 37.79275 41.00825C37.66825 41.00825 37.748 38.77725 37.933 37.099C38.0045 36.44975 37.99325 36.02475 37.901 35.87975C37.82125 35.75525 37.739 34.63875 37.71375 33.34025C37.671 31.136 37.68175 31.02 37.93375 30.95425C38.15225 30.89725 38.214 30.722 38.287 29.9525C38.449 28.2355 38.4075 27.78975 38.04375 27.35825C37.80325 27.07275 37.75175 26.9215 37.85825 26.815C37.9395 26.73375 37.971 26.576 37.928 26.46425C37.81975 26.182 36.40225 25.287 35.6595 25.032C35.321 24.91555 34.6385 24.518775 34.14275 24.15005C33.3825 23.5845 33.2185 23.389025 33.0955 22.901225C32.93225 22.252775 32.2025 21.637075 31.5975 21.637075C31.215 21.637075 30.10325 20.707 30.10325 20.3869C30.10325 20.059075 29.6645 19.77975 29.01825 19.696175C27.581 19.510325 26.39575 19.333825 26.368 19.3013C26.35175 19.2822 26.3025 18.260675 26.25825 17.031375C26.21425 15.80205 26.137 14.06135 26.08675 13.163225C25.97125 11.100675 26.07125 10.4193 26.5835 9.7756C27.1455 9.069275 27.10625 8.723175 26.4075 8.217625C25.96025 7.894025 25.84125 7.7274 25.87475 7.471775C25.9405 6.97015 25.505 7.04155 25.4035 7.549ZM24.702225 8.53555C24.341025 8.97025 24.257875 9.4731 24.489 9.825575C24.7676 10.2501 24.777625 10.809425 24.5457 12.9675C24.3733 14.57 24.379275 14.738525 24.656925 16.112925C24.91205 17.37585 24.940525 17.852675 24.8753 19.7704C24.83405 20.98335 24.777375 22.128275 24.7493 22.314525C24.700325 22.6383 24.72475 22.6513 25.29825 22.605775L25.8985 22.5581L25.8995 21.792725C25.9 21.37185 25.8325 18.77205 25.7495 16.01525C25.5865 10.603525 25.61625 10.207575 26.242 9.464975C26.427 9.2454 26.54425 8.9765 26.50225 8.867575C26.33 8.4192 25.0025 8.174425 24.702225 8.53555ZM27.90675 14.78255C27.17225 14.98005 26.90675 15.17025 26.636 15.693C26.35975 16.22685 26.66775 16.377075 27.02775 15.88385C27.33175 15.466775 28.00675 15.1349 28.5505 15.1349H28.90525L28.48425 15.6659C27.882 16.4253 27.50275 17.354575 27.552 17.9494C27.60925 18.637275 27.845 18.534725 27.957 17.77315C28.12125 16.657075 28.68 16.1598 29.673 16.245825L30.14 16.286325L29.55625 17.022275C29.00725 17.714625 28.97125 17.81285 28.94925 18.6817C28.92375 19.690625 29.1265 19.918475 29.42 19.2111C29.542 18.917 29.54475 18.7451 29.43175 18.533775C29.2545 18.203125 29.38475 17.888975 29.9855 17.19825C30.45825 16.65465 30.622 16.1014 30.359 15.9352C30.2555 15.869775 29.90825 15.81545 29.58675 15.814225L29.00275 15.8122L29.23775 15.41475C29.433 15.08505 29.443 14.981 29.29675 14.805175C29.089 14.554975 28.772 14.549825 27.90675 14.78255ZM19.063875 15.314775C18.598225 15.455125 18.516175 15.54535 18.36495 16.08325C18.270525 16.4184 18.03495 17.10695 17.84125 17.613175C17.4452 18.648525 17.3866 19.487025 17.6926 19.7406C17.96835 19.969125 17.960075 20.335975 17.681475 20.229225C17.563475 20.183975 17.443025 20.147 17.413725 20.147C17.384425 20.147 17.26805 19.9686 17.1552 19.7505C16.90075 19.25905 17.04005 18.349 17.576625 16.996825C17.776425 16.49345 17.905125 16.04695 17.862675 16.0047C17.74685 15.889 17.0855 16.2698 16.44625 16.820175C15.632425 17.5208 15.151325 18.572925 15.141025 19.675175C15.1364 20.15825 15.08 20.553375 15.015425 20.553375C14.83015 20.553375 14.505175 19.659875 14.505175 19.150275C14.505175 18.8952 14.6568 18.103425 14.842225 17.39075C15.253875 15.8084 15.20925 15.6178 14.450775 15.721575C14.144925 15.763425 13.668425 15.892125 13.391725 16.007675L12.8888 16.2175L13.222325 16.5506C13.4856 16.81355 13.555725 17.022975 13.555725 17.5468C13.555725 17.9116 13.488725 18.4021 13.4068 18.63685C13.280925 18.997325 13.30195 19.13835 13.542425 19.545275C13.874725 20.108 13.9035 20.5328 13.633975 20.900025C13.5206 21.05445 13.471625 21.316575 13.5153 21.5355C13.5937 21.92805 13.448575 22.017725 13.17595 21.74545C12.9478 21.5176 12.9733 21.1367 13.247825 20.6726C13.4384 20.350325 13.451 20.232075 13.31525 20.04215C12.91985 19.488925 12.84595 19.141325 12.998675 18.553425C13.306025 17.37055 13.1 16.624975 12.465625 16.624975C12.069575 16.624975 11.243825 17.429625 10.958975 18.093125C10.712525 18.66735 10.686225 18.6859 10.26425 18.58445C9.254725 18.34195 8.377175 18.59095 8.056125 19.2111C7.79095 19.723125 7.807375 19.9854 8.14415 20.62315C8.586175 21.459775 9.07365 21.91085 9.99205 22.332675C10.95125 22.7732 11.1615 23.03465 11.372125 24.048175C11.592275 25.108 11.55945 29.10375 11.319375 30.47875C11.12635 31.584 11.129625 31.6615 11.393425 32.257C11.59105 32.7035 11.643675 33.01625 11.578825 33.36125C11.5231 33.6575 11.5688 34.113 11.69765 34.54675C11.99075 35.53325 12.129375 40.72075 11.8653 40.82175C11.76575 40.86 11.374975 40.73475 10.996825 40.54325C10.184775 40.13225 9.747075 40.10425 9.439875 40.44325C9.10485 40.813 9.166425 41.1465 9.691475 41.80625C9.95175 42.13325 10.16485 42.486 10.16485 42.59C10.16485 42.69375 9.893975 42.89475 9.5629 43.0365C8.7773 43.37275 8.401575 43.76175 8.401575 44.23825C8.401575 44.6635 8.681275 44.979 9.249575 45.19475C9.5203 45.29775 9.6223 45.43 9.6223 45.67825C9.6223 45.94975 9.689975 46.02025 9.950275 46.02025C10.4555 46.02025 10.707375 46.16 10.707375 46.44025C10.707375 46.667 10.8102 46.6935 11.622925 46.678C12.867225 46.65425 16.8377 46.943 17.594675 47.1125C17.932125 47.188 18.386775 47.4 18.60515 47.58325C19.06455 47.96925 19.021 47.96375 19.957825 47.76225C20.499425 47.64625 21.428675 47.6485 23.72835 47.77175C28.21225 48.01225 29.107 48.12075 31.79875 48.749C34.132 49.29375 34.34 49.3195 36.5005 49.329C37.74375 49.3345 38.80475 49.2955 38.85825 49.24225C38.91175 49.18875 38.7595 48.92225 38.52025 48.64975C38.28075 48.37725 38.0185 48.0095 37.93775 47.8325C37.857 47.65525 37.755 47.51025 37.71075 47.50975C37.667 47.5095 36.685 47.42125 35.5285 47.31375C33.285 47.105 29.78475 46.5845 25.4915 45.82075C24.036925 45.562 21.12525 45.135 19.0214 44.8715C14.344175 44.28625 13.98895 44.1835 13.6413 43.31575C13.5313 43.0415 13.40475 42.151 13.36 41.33675C13.3151 40.52275 13.2447 39.3235 13.203475 38.6715C13.12955 37.5045 13.133225 37.48625 13.439075 37.48625C13.609975 37.48625 14.3622 37.69475 15.110775 37.94975C17.33275 38.7065 18.92905 39.091 25.60575 40.4765C26.30075 40.62075 26.746 40.906 26.874 41.2895C26.922 41.43325 27.0295 41.42375 27.41525 41.241C27.87325 41.02375 27.9995 41.0285 30.051 41.33675C31.236 41.51475 33.0295 41.8135 34.03675 42.00025C36.114 42.38575 37.74 42.6215 37.82225 42.549C37.945 42.441 37.54675 41.43725 37.3515 41.3625C37.23625 41.31825 36.20675 41.1595 35.0635 41.0095C32.922 40.7285 30.4185 40.28425 28.25925 39.80225C26.6125 39.43475 25.156 39.184 21.829475 38.69575C18.44075 38.1985 16.93535 37.85575 16.167925 37.4065C15.846875 37.2185 15.073075 36.56525 14.448325 35.95475C13.429575 34.95925 13.28445 34.75325 13.040025 33.95725C12.787625 33.1355 12.5915 30.95375 12.755325 30.79C12.8865 30.659 14.55915 31.146 15.581575 31.61275C16.136175 31.86625 16.95745 32.16825 17.40655 32.2845C18.702 32.61975 18.923625 32.78025 19.1093 33.5165C19.276 34.17775 19.464 34.506 19.67585 34.506C19.741375 34.506 19.79495 34.363 19.79495 34.18825C19.79495 34.0135 19.9166 33.76075 20.065275 33.62625C20.296125 33.41775 20.48925 33.39425 21.3877 33.465C22.71285 33.57 26.6525 34.528 27.7295 35.00775C28.422 35.316 28.70675 35.36575 29.639 35.34175C30.90725 35.309 33.823 35.80475 35.5295 36.34325C36.59775 36.68025 36.647 36.714 36.90075 37.287C37.0455 37.614 37.22025 37.916 37.289 37.9585C37.45575 38.0615 37.59225 37.28625 37.5385 36.53925C37.50375 36.0545 37.42925 35.90425 37.15625 35.7695C36.682 35.5355 32.056 34.45425 29.69625 34.02575C28.6145 33.8295 26.753 33.4355 25.5595 33.15025C24.36585 32.865 22.407825 32.4435 21.20825 32.21375C18.86285 31.76475 15.09545 30.6115 13.759175 29.934C12.3072 29.1975 12.301375 29.1845 12.147975 26.37825C12.023725 24.104 12.031175 23.929375 12.263925 23.67255C12.814075 23.0654 14.1597 23.423975 15.758175 24.6033L16.734325 25.32375L17.4334 25.15625C18.02625 25.01425 18.294825 25.024 19.201125 25.22025C21.0139 25.61325 22.831675 26.12275 23.15625 26.329C23.326475 26.43725 23.6151 26.86275 23.7974 27.27475C24.11805 27.99875 24.40655 28.14475 24.40655 27.583C24.40655 27.42575 24.575275 27.218 24.812625 27.083C25.18875 26.86925 25.21875 26.79575 25.2195 26.0815C25.22025 25.31375 25.08975 25.05625 24.79295 25.2395C24.684725 25.30625 24.71375 25.39225 24.887375 25.519C25.059 25.6445 25.094 25.74575 24.998325 25.8415C24.622475 26.21675 24.060525 25.37225 24.408025 24.95415C24.600775 24.7221 25.297 24.683225 25.42925 24.897C25.48925 24.993975 25.592 24.977325 25.7425 24.8462C25.8655 24.7389 26.1495 24.55455 26.37325 24.436425C26.73 24.248125 26.74375 24.221025 26.4845 24.2163C25.90875 24.205725 25.46425 23.3981 26.03425 23.3981C26.18475 23.3981 26.3055 23.48845 26.3055 23.6013C26.3055 23.71305 26.39325 23.804475 26.501 23.804475C26.83225 23.804475 26.87125 23.556725 26.58475 23.270625C26.3315 23.01785 26.19875 23.004175 24.78265 23.08505C23.94185 23.133125 23.330825 23.198025 23.42495 23.2293C23.719125 23.32725 23.88815 23.7774 23.736775 24.059825C23.410575 24.668475 22.2814 24.469475 22.14305 23.778875C22.10115 23.56945 22.0412 23.3981 22.01 23.3981C21.978675 23.3981 21.561325 23.49645 21.0824 23.616475C20.220025 23.832925 20.2108 23.84025 20.101475 24.395375C20.01005 24.860675 19.9322 24.962825 19.644125 24.9967C19.136975 25.05625 18.970675 24.7553 18.88495 23.62365L18.808475 22.613775L19.395775 22.18895C19.718725 21.9553 20.002475 21.637075 20.026075 21.481975C20.064175 21.232875 20.01765 21.2089 19.626875 21.276225C19.38355 21.3182 18.898925 21.3923 18.54995 21.440925C18.103575 21.50325 17.93565 21.5825 17.98395 21.7082C18.02165 21.806425 17.98475 22.013525 17.90175 22.168375C17.68865 22.565825 17.030825 22.544675 16.717775 22.130175C16.485975 21.823225 16.45425 21.818075 15.914825 22.001625C15.605975 22.106725 15.2129 22.342025 15.0412 22.5245C14.40725 23.198425 13.620825 22.732175 13.970225 21.8896C14.183575 21.37525 14.571075 21.21865 17.2739 20.5542C19.944275 19.89775 22.745275 19.4338 23.67885 19.493125L24.375475 19.537425L24.463775 18.72465C24.551525 17.917025 24.183425 15.4058 23.97725 15.4058C23.721975 15.4058 23.036225 16.307725 22.788275 16.96985C22.468575 17.823 22.440375 18.2256 22.66525 18.718825C22.880225 19.1901 22.679625 19.339925 22.36035 18.946675C22.20815 18.759325 22.10075 18.41755 22.10075 18.1213C22.10075 17.59555 22.55105 16.12105 22.782025 15.89035C23.00625 15.66645 22.9296 15.46475 22.609375 15.436425C22.07565 15.389025 20.959225 15.679725 20.6299 15.952C20.293125 16.2305 19.930575 17.222775 19.930575 17.866225C19.930575 18.21015 19.998125 18.269625 20.559525 18.419575C21.21815 18.59555 21.64825 19.039875 21.5095 19.400875C21.39965 19.686825 21.238925 19.655275 21.0817 19.31675C21.00495 19.151225 20.66315 18.922 20.280375 18.7791C19.913225 18.64215 19.560975 18.451825 19.4975 18.35645C19.35765 18.145825 19.45435 17.520375 19.80375 16.3737C20.212425 15.0333 20.175 14.979775 19.063875 15.314775ZM16.25295 16.0376C15.72275 16.2144 15.60435 16.3206 15.477525 16.733475C15.3952 17.00155 15.3411 17.233325 15.357225 17.248775C15.3735 17.2641 15.740525 16.94725 16.173075 16.5445C16.605475 16.141775 16.941175 15.816 16.919075 15.8206C16.896825 15.8252 16.5972 15.922875 16.25295 16.0376ZM9.838775 17.753375L9.44475 17.92135L9.927875 18.0694C10.38145 18.2084 10.41455 18.197825 10.47245 17.89535C10.541625 17.53365 10.41875 17.50615 9.838775 17.753375ZM23.796175 19.843425C21.836375 19.9705 16.160725 21.139125 14.878175 21.67975C14.5255 21.8285 14.369525 21.9794 14.369525 22.172025C14.369525 22.5394 14.45295 22.523675 14.98655 22.0558C15.5478 21.563675 16.3821 21.319425 18.70985 20.965875C20.608875 20.6776 24.296275 19.999875 24.395275 19.92105C24.50705 19.831925 24.32935 19.808875 23.796175 19.843425ZM26.3055 19.962625C26.3055 20.16705 26.383 20.177075 26.77625 20.0236C27.0165 19.92985 27.006 19.911975 26.67475 19.8487C26.419 19.7998 26.3055 19.8349 26.3055 19.962625ZM28.1365 20.2822C26.8735 20.3907 26.3055 20.526975 26.3055 20.72135C26.3055 20.808325 26.5205 20.82635 26.882 20.77C27.19875 20.7204 27.96175 20.6428 28.57725 20.59755C29.65425 20.5183 29.93625 20.403425 29.48175 20.229225C29.36375 20.183975 29.257 20.156475 29.24425 20.168C29.232 20.1795 28.73325 20.23085 28.1365 20.2822ZM24.1099 20.51045C24.2077 20.5496 24.32475 20.544725 24.369775 20.49975C24.4148 20.454775 24.334775 20.4228 24.191825 20.428625C24.0338 20.435125 24.001675 20.467225 24.1099 20.51045ZM23.2961 20.6459C23.393875 20.68505 23.51095 20.680175 23.555975 20.6352C23.601 20.590225 23.520975 20.558275 23.378025 20.5641C23.22 20.5706 23.18785 20.6027 23.2961 20.6459ZM21.9651 20.853975C21.704 20.93145 21.56145 21.020725 21.6484 21.052425C21.73535 21.084125 22.10155 21.01965 22.4622 20.908975C22.876975 20.78165 22.99335 20.70875 22.778925 20.710525C22.592425 20.712025 22.2262 20.776625 21.9651 20.853975ZM22.91455 21.248575C21.74375 21.5619 20.360125 22.094825 19.68685 22.491575C19.240725 22.754375 19.225125 22.79055 19.3049 23.371675C19.3506 23.70505 19.388025 24.1216 19.388025 24.297575C19.388025 24.4734 19.449075 24.61725 19.523675 24.61725C19.598275 24.61725 19.6593 24.438725 19.6593 24.2205C19.6593 23.5131 20.07855 23.300425 22.236375 22.912875C22.795875 22.8125 23.4826 22.7281 23.762275 22.725525C24.042075 22.72295 24.2709 22.67405 24.2709 22.616875C24.2709 22.4802 22.1299 22.64045 21.0417 22.85855C20.444775 22.978175 20.142975 22.9871 20.043825 22.888075C19.821925 22.666475 20.34305 22.399075 22.372 21.693175C23.3791 21.34285 24.228575 21.0344 24.25965 21.008C24.386325 20.8999 23.8754 20.991325 22.91455 21.248575ZM27.28875 21.1402C26.3225 21.27445 26.3055 21.283675 26.3055 21.6746C26.3055 21.9817 26.3545 22.053775 26.52 21.990225C26.638 21.945 26.92875 21.908 27.166 21.908C27.48325 21.908 27.633 21.8274 27.73125 21.603225C27.921 21.1711 28.603 21.102425 28.70825 21.50475C28.77225 21.74925 28.85325 21.78515 29.19 21.71795C29.4125 21.6734 29.81575 21.636825 30.08625 21.6364L30.578 21.635725L30.171 21.302625C29.714 20.928475 29.0735 20.892325 27.28875 21.1402ZM20.563575 21.1856C20.5138 21.235175 20.473125 21.3518 20.473125 21.444725C20.473125 21.575325 20.56345 21.579525 20.8716 21.4633C21.0908 21.38065 21.239725 21.264025 21.2027 21.20415C21.121175 21.072475 20.68945 21.059875 20.563575 21.1856ZM23.253625 21.8377L22.439825 22.159825L22.999325 22.16945C23.930325 22.1853 24.39 22.047 24.36815 21.757525C24.343875 21.4358 24.2526 21.4423 23.253625 21.8377ZM17.082225 21.840275C17.17515 21.952025 17.304675 22.043475 17.37005 22.043475C17.435575 22.043475 17.48915 21.952025 17.48915 21.840275C17.48915 21.7235 17.3668 21.637075 17.201325 21.637075C16.9607 21.637075 16.941175 21.67055 17.082225 21.840275ZM28.95025 22.170675C28.5925 22.237175 28.962 22.26725 30.0355 22.259125C31.7085 22.24625 32.2735 22.382 32.2735 22.79665C32.2735 23.0467 32.05225 23.130975 29.5845 23.821275C26.234 24.758675 25.62675 25.125 25.628 26.209C25.629 26.9 25.8505 27.87025 26.0065 27.8655C26.059 27.86375 26.1935 27.66875 26.3055 27.432C26.4735 27.07625 26.65 26.9595 27.32275 26.75975C28.079 26.53525 28.09325 26.52375 27.52625 26.59925C27.1905 26.644 26.80775 26.7375 26.6755 26.8065C26.31025 26.9985 26.16975 26.82675 26.16975 26.188C26.16975 25.79475 26.251 25.53425 26.42125 25.38025C26.5595 25.25525 27.51275 24.8493 28.53975 24.478275C30.19625 23.879675 30.9905 23.640025 32.30725 23.341875C32.7845 23.233925 32.79375 22.874525 32.3305 22.439575C32.01725 22.14535 31.8515 22.109025 30.73675 22.0906C30.05275 22.079225 29.24875 22.115275 28.95025 22.170675ZM27.08525 22.410025C27.25325 22.442275 27.52775 22.442275 27.69575 22.410025C27.8635 22.37765 27.72625 22.35125 27.3905 22.35125C27.05475 22.35125 26.9175 22.37765 27.08525 22.410025ZM30.58925 22.8079C30.46775 23.123925 30.5415 23.1494 31.05775 22.969625C31.45575 22.83105 31.48 22.797875 31.24925 22.70765C30.8335 22.545225 30.68125 22.5684 30.58925 22.8079ZM17.109375 22.88335C16.8773 23.115125 16.907275 23.320625 17.2134 23.597225C17.54285 23.8951 18.12065 23.9092 18.403875 23.62635C18.596475 23.434 18.5947 23.38185 18.3857 23.063225C18.1315 22.675825 17.837325 22.728775 17.967525 23.13855C18.0306 23.33715 17.984075 23.3981 17.7695 23.3981C17.5609 23.3981 17.48915 23.3114 17.48915 23.05945C17.48915 22.689625 17.3622 22.63085 17.109375 22.88335ZM27.7975 22.846775C27.1885 22.89295 26.87525 22.963 27.0175 23.021375C27.32375 23.146825 27.325 23.715075 27.02 24.019725C26.8485 24.1911 26.83925 24.2324 26.986 24.173075C27.0965 24.12825 27.68275 23.930875 28.28825 23.73445C29.3645 23.385375 29.386 23.369775 29.23775 23.0501C29.15425 22.870075 29.025 22.733375 28.95025 22.74625C28.87575 22.759125 28.357 22.804375 27.7975 22.846775ZM29.69625 22.85625C29.69625 22.93075 29.78425 22.9917 29.89175 22.9917C29.99925 22.9917 30.125 22.93075 30.171 22.85625C30.21725 22.78175 30.129 22.720775 29.9755 22.720775C29.822 22.720775 29.69625 22.78175 29.69625 22.85625ZM22.53205 23.567425C22.5638 23.78985 22.68125 23.884275 22.967175 23.916925C23.285525 23.953225 23.342625 23.91935 23.27235 23.736475C23.22475 23.612675 23.185825 23.4554 23.185825 23.387C23.185825 23.318575 23.029025 23.262625 22.837225 23.262625C22.5535 23.262625 22.4968 23.31925 22.53205 23.567425ZM12.555675 23.912175C12.4008 24.162525 12.7053 28.677 12.8922 28.902C13.466075 29.5925 17.69205 31.04925 21.083475 31.7255C22.351675 31.9785 24.2743 32.3975 25.356 32.6565C26.43775 32.91575 28.48225 33.35125 29.89975 33.624C31.31725 33.89675 33.449 34.35925 34.637 34.65175C37.21925 35.28725 37.292 35.2925 37.292 34.84475C37.292 34.60375 37.2185 34.506 37.03725 34.506C36.61025 34.506 36.464 34.17275 36.19775 32.591C36.05725 31.7555 35.891 31.02075 35.8285 30.9585C35.766 30.896 35.57075 30.998 35.3945 31.1855C35.02725 31.576 34.69125 31.6185 34.38525 31.313C34.19175 31.1195 34.17225 31.12525 34.17225 31.376C34.17225 31.691 33.76375 31.96325 33.51825 31.81175C33.2955 31.67425 33.08725 30.906 33.08725 30.2225C33.08725 29.9145 33.009 29.59775 32.91325 29.5185C32.81775 29.43925 32.23325 29.161 31.6145 28.9005C30.99575 28.63975 30.2845 28.2705 30.03425 28.08C29.24175 27.47625 28.9165 27.414 28.18825 27.72675C27.83375 27.87925 27.33825 28.00375 27.08725 28.00375C26.83625 28.00375 26.56475 28.07 26.48375 28.15075C26.1345 28.49975 25.578 28.13475 25.27375 27.35725C25.214 27.205 24.81345 27.54475 24.81345 27.7475C24.81345 27.8885 24.690025 28.127 24.53905 28.27775C24.149775 28.66675 23.863725 28.4645 23.408 27.4785C23.20005 27.029 22.92785 26.63025 22.802775 26.5925C22.677725 26.555 21.7382 26.30575 20.714825 26.03875C18.84455 25.551 18.209225 25.48 17.082225 25.633C16.51025 25.7105 16.42075 25.6765 15.658075 25.0925C15.210475 24.749475 14.615575 24.348775 14.336025 24.201925C13.729475 23.8832 12.679375 23.712225 12.555675 23.912175ZM31.6995 23.9012C31.34325 23.95525 31.33725 23.9696 31.5395 24.278325C31.6995 24.522025 31.71525 24.664125 31.605 24.8699C31.30925 25.422 30.6225 25.3555 30.1855 24.732275L29.98275 24.44305L28.352 25.0195C27.156 25.442 26.6985 25.66675 26.6365 25.86175C26.59 26.008 26.587 26.16275 26.62975 26.2055C26.7075 26.28325 28.664 25.9455 31.29 25.401C32.58325 25.13275 32.68025 25.09025 32.68025 24.79025C32.68025 24.5506 32.7895 24.42965 33.105 24.319775L33.53 24.17185L33.20675 23.9929C32.88975 23.81735 32.435 23.789725 31.6995 23.9012ZM30.54075 24.370575C30.60975 24.577425 31.01675 24.833725 31.11725 24.733475C31.15975 24.690825 31.15625 24.5559 31.10925 24.433425C31.013 24.1831 30.45775 24.1216 30.54075 24.370575ZM33.25675 24.706925C33.0275 24.799325 33.04125 25.02375 33.27625 25.02375C33.38 25.02375 33.50025 24.9322 33.54325 24.82045C33.623 24.6128 33.55625 24.586225 33.25675 24.706925ZM33.22275 25.507C31.1045 25.8555 28.1315 26.4875 28.54975 26.50075C28.777 26.508 29.5095 26.3965 30.1775 26.25325C32.10275 25.84025 34.55125 25.5295 35.356 25.59625C35.7625 25.63 36.01375 25.61325 35.91375 25.55875C35.527 25.349 34.32575 25.32575 33.22275 25.507ZM36.37975 26.00325C36.50125 26.34175 36.191 26.64325 35.51475 26.844C34.67725 27.09225 33.94825 27.52725 33.7505 27.89625C33.5745 28.2245 33.49275 30.42975 33.63425 31.03225C33.7055 31.336 33.7365 31.14775 33.742 30.3745C33.74675 29.72625 33.8505 28.96475 34 28.48C34.31125 27.4705 34.7285 27.15925 36.21975 26.8245C36.8095 26.69225 37.292 26.54375 37.292 26.4945C37.292 26.44525 37.07275 26.27575 36.805 26.11825C36.51575 25.94775 36.343 25.901 36.37975 26.00325ZM33.47 26.15725L32.56425 26.3105L32.819 26.622C32.959 26.79325 33.03775 27.0265 32.994 27.14025C32.877 27.445 32.30775 27.62525 31.99325 27.45725C31.67575 27.2875 31.662 27.0785 31.942 26.6795C32.20125 26.30975 32.1645 26.30725 30.7135 26.5895C30.11675 26.70575 29.14025 26.88275 28.5435 26.983C27.9465 27.08325 27.27525 27.244 27.0515 27.33975L26.6445 27.51425L27.0075 27.56375C27.20725 27.59125 27.68325 27.47925 28.06525 27.315C28.6725 27.05425 28.82675 27.0365 29.28975 27.17525C29.58125 27.2625 30.00375 27.4885 30.22875 27.6775C30.45375 27.8665 31.182 28.2535 31.847 28.53725L33.056 29.0535L33.1295 28.5065C33.254 27.57975 34.047 26.80225 35.176 26.49975C35.89675 26.30675 36.0045 26.23425 35.7805 26.0925C35.5395 25.94 34.59825 25.96625 33.47 26.15725ZM32.34125 26.92C32.295 26.99475 32.322 27.0555 32.401 27.0555C32.48 27.0555 32.54475 26.99475 32.54475 26.92C32.54475 26.8455 32.51775 26.78475 32.48475 26.78475C32.452 26.78475 32.38725 26.8455 32.34125 26.92ZM36.238 27.2655C35.1725 27.55225 34.71475 27.83525 34.5045 28.33825C34.2285 28.99775 34.1155 29.84925 34.2895 29.95675C34.37025 30.0065 34.50125 30.2885 34.58075 30.58325C34.7485 31.2055 34.89325 31.2515 35.202 30.78075C35.444 30.412 35.945 30.33025 36.186 30.62025C36.26725 30.718 36.429 31.38925 36.5455 32.11175C36.79425 33.6555 36.9585 34.154 37.17475 34.0205C37.284 33.95325 37.30275 33.5175 37.23975 32.5395C37.147 31.1095 37.26425 30.44225 37.60825 30.44225C37.738 30.44225 37.8225 30.18575 37.883 29.6095C38.02475 28.2535 37.9925 28.0175 37.597 27.5225C37.1775 26.997 37.212 27.00375 36.238 27.2655ZM13.19005 32.297C13.3345 34.14475 13.712375 34.837 15.3141 36.18675C16.734875 37.38425 17.452125 37.624 21.2191 38.15975C24.2793 38.59525 26.31075 38.94325 28.34 39.37975C30.64225 39.87525 33.7355 40.41575 35.32525 40.60025C35.9965 40.67825 36.71375 40.7765 36.919 40.81825L37.292 40.89425V39.753C37.292 38.79125 37.25 38.574 37.02575 38.37125C36.87925 38.239 36.69125 37.92375 36.6075 37.67075C36.41775 37.09675 36.0755 36.9165 34.364 36.48925C32.393 35.997 30.58775 35.7355 29.35725 35.76375C28.4525 35.7845 28.1735 35.73625 27.67725 35.47375C26.937 35.08225 22.7716 34.01875 21.485225 33.89275C20.444625 33.791 20.26845 33.87375 20.18095 34.506C20.075175 35.26925 18.957925 34.86925 18.7717 34.0015C18.593075 33.16875 18.4782 33.04625 17.6671 32.82375C17.233475 32.70475 16.5736 32.47875 16.2006 32.3215C15.19515 31.8975 13.94785 31.441 13.50105 31.334L13.10745 31.23925L13.19005 32.297ZM13.654875 39.0725C13.75645 41.44 13.941475 43.05525 14.146825 43.3685C14.431525 43.8025 15.0077 43.92275 19.717625 44.53275C21.96075 44.82325 25.017 45.278 26.509 45.54325C30.13375 46.18775 34.233 46.78925 35.732 46.8965C36.4035 46.9445 37.1605 47.0195 37.41475 47.063L37.8765 47.142L37.76425 46.4795C37.7025 46.11525 37.64275 45.21775 37.631 44.485C37.6165 43.55975 37.55625 43.11975 37.43425 43.04425C37.33775 42.98475 36.88475 42.8955 36.4275 42.8465C35.9705 42.79725 34.803 42.604 33.83325 42.4175C31.5325 41.9745 28.712 41.55 28.069 41.55C27.7815 41.55 27.48575 41.63875 27.3905 41.75325C27.13125 42.06525 26.9095 41.9995 26.48825 41.48475C26.10325 41.0145 26.09025 41.0105 22.778925 40.3305C18.635925 39.47975 15.5889 38.67625 13.8171 37.96725C13.6306 37.89275 13.61025 38.03175 13.654875 39.0725ZM11.283825 39.2015C11.0477 39.29675 11.071425 39.51825 11.31775 39.51825C11.42965 39.51825 11.5212 39.42675 11.5212 39.315C11.5212 39.20325 11.505875 39.1165 11.487275 39.1225C11.4687 39.12825 11.37715 39.164 11.283825 39.2015ZM11.1722 40.1305C11.450925 40.34125 11.60665 40.30775 11.458925 40.069C11.409825 39.9895 11.266325 39.9265 11.1402 39.92875C10.938775 39.93275 10.9427 39.95725 11.1722 40.1305ZM38.30375 42.77775C38.2545 42.8575 38.2355 42.94075 38.26175 42.96275C38.28775 42.98475 39.37725 43.228 40.68275 43.50325C44.20475 44.24575 46.2415 44.87625 47.6695 45.66575C48.6225 46.193 48.9775 46.62725 48.99625 47.28875C49.05825 49.47375 42.08575 51.435 32.2735 51.9925C28.11025 52.229 20.644025 52.19875 17.89605 51.934C12.981575 51.46025 11.1585 51.176 6.77395 50.199C1.7840775 49.087 0.6422975 48.4035 1.2220025 46.87575C1.427355 46.3345 1.8384675 45.92325 2.772725 45.325C3.663575 44.7545 3.68935 44.68775 2.891 45.01925C1.189455 45.7255 0.075479 47.35125 0.5344675 48.458C0.721645 48.90925 1.16314 49.1415 2.569275 49.528C3.128775 49.68175 4.2274 49.98475 5.0107 50.201C6.9054 50.724 7.59035 50.85375 9.757925 51.09975C10.765025 51.214 12.50455 51.48675 13.62355 51.7055C14.742525 51.9245 16.512575 52.16925 17.55695 52.24975C18.60135 52.33 20.096725 52.455 20.880025 52.52725C22.70445 52.69575 24.42675 52.69025 25.96625 52.51125C26.63775 52.433 29.29275 52.31775 31.8665 52.25475C36.9 52.1315 37.85425 52.0225 42.4025 51.05025C46.5075 50.17275 48.8855 49.03575 49.4545 47.678C49.694 47.1065 49.48825 46.67875 48.5975 45.8955C47.71325 45.11825 46.60275 44.63 44.61625 44.145C43.68375 43.9175 42.33475 43.5505 41.61825 43.32925C40.902 43.10825 40.017 42.8885 39.65175 42.841C39.28625 42.79325 38.85375 42.727 38.6905 42.69375C38.527 42.66025 38.35325 42.698 38.30375 42.77775ZM7.51995 43.5715L7.11305 43.66475L7.5487 43.7345C7.837875 43.781 8.007425 43.74425 8.053 43.6255C8.12705 43.43275 8.127325 43.43275 7.51995 43.5715ZM38.10575 44.088C38.10575 44.69 38.138 44.754 38.51225 44.895C38.73575 44.97925 38.958 45.14975 39.0055 45.274C39.11025 45.546 38.797 45.8905 38.419 45.919C38.1785 45.937 38.152 46.01425 38.20125 46.55575C38.2945 47.58075 38.3645 47.76675 38.8655 48.3205C39.421 48.93475 39.43925 49.377 38.9195 49.6385C38.5005 49.8495 35.437 49.8715 34.17225 49.6725C33.68725 49.59625 32.36725 49.3215 31.2385 49.062C29.05925 48.561 27.23275 48.3325 25.364 48.32675C24.367875 48.3235 24.251775 48.347 24.470425 48.50675C24.791075 48.74075 24.66465 49.09625 24.1978 49.2735C23.708825 49.45925 23.510675 49.44125 23.2573 49.188C23.06565 48.9965 23.06225 48.9325 23.2299 48.68C23.3353 48.521 23.597475 48.35675 23.812325 48.31475C24.0273 48.27275 23.440125 48.192 22.50765 48.13525C21.42825 48.0695 20.59045 48.08375 20.20185 48.1745C19.2638 48.393 18.90165 48.353 18.4603 47.982C17.866875 47.48325 16.759825 47.32275 12.7655 47.15575C10.6382 47.06675 10.543 47.0505 10.34185 46.744C10.197525 46.524 10.02025 46.43325 9.771775 46.45225C9.266125 46.49075 9.0434 46.31575 9.115975 45.93675C9.150025 45.75925 9.127375 45.614 9.06565 45.614C8.827625 45.614 8.01895 44.781 7.935825 44.45C7.8543 44.1255 7.809525 44.10775 7.2773 44.19075C4.565 44.61325 1.9404675 45.93925 1.63583 47.04125C1.450145 47.71275 1.582795 48.02025 2.2132275 48.37975C3.0155 48.83725 4.199325 49.1895 6.977425 49.7975C13.63845 51.2555 17.954375 51.7125 24.989775 51.70525C30.258 51.69975 33.56125 51.54925 36.81725 51.16625C42.6455 50.4805 46.36025 49.4905 48.01475 48.1815C48.947 47.44425 48.6715 46.6195 47.25625 45.91175C45.8555 45.21125 41.5815 44.029 38.61425 43.52125L38.10575 43.43425V44.088ZM6.604425 43.80725C6.697725 43.84475 6.850325 43.84475 6.9435 43.80725C7.036825 43.7695 6.96045 43.73875 6.77395 43.73875C6.58745 43.73875 6.511225 43.7695 6.604425 43.80725ZM38.10575 45.47425C38.10575 45.54625 38.19725 45.57025 38.30925 45.5275C38.421 45.4845 38.5125 45.4255 38.5125 45.39625C38.5125 45.367 38.421 45.343 38.30925 45.343C38.19725 45.343 38.10575 45.402 38.10575 45.47425ZM5.917975 46.644C5.64805 46.79025 5.54905 46.93675 5.578875 47.1465C5.613475 47.3895 5.723875 47.45025 6.19235 47.48425C6.8746 47.5335 7.3165 47.329 7.3165 46.96375C7.3165 46.652 6.9743 46.60475 6.8605 46.90075C6.816275 47.01625 6.619475 47.10175 6.405175 47.0985L6.027975 47.09325L6.405025 46.889C6.612275 46.7765 6.746025 46.62675 6.7022 46.55575C6.5914 46.37675 6.36435 46.40225 5.917975 46.644ZM38.82775 46.78275C38.60075 47.12875 38.6035 47.1465 38.92125 47.40375C39.153 47.591 39.365 47.645 39.6475 47.5885C40.47575 47.423 40.6505 46.9635 40.01125 46.6335C39.4335 46.33475 39.0935 46.37775 38.82775 46.78275ZM39.19075 46.9605C39.19075 47.14925 39.44 47.269 39.61225 47.16275C39.71675 47.09825 39.7065 47.035 39.57825 46.95375C39.33625 46.8005 39.19075 46.803 39.19075 46.9605ZM12.53845 48.05225C12.61535 48.40225 12.58865 48.45875 12.345725 48.45875C12.05085 48.45875 11.966475 48.26375 12.199375 48.12C12.4214 47.983 12.353575 47.78125 12.085575 47.78125C11.76465 47.78125 11.5045 48.32725 11.677975 48.63675C11.85865 48.959 12.636375 48.935 12.94225 48.59775C13.16915 48.34725 13.17025 48.3085 12.96015 47.988C12.6494 47.5145 12.42765 47.54825 12.53845 48.05225ZM14.055125 48.1045C13.851825 48.634 14.999025 49.24275 15.4157 48.8265C15.673675 48.569 15.534225 48.09575 15.166125 47.979C14.810075 47.86625 14.692475 47.99125 14.90935 48.25225C15.0511 48.42275 15.0427 48.45875 14.8608 48.45875C14.731275 48.45875 14.6408 48.34725 14.6408 48.18775C14.6408 47.8735 14.1696 47.8065 14.055125 48.1045ZM23.72835 48.86075C23.72835 48.933 23.819925 48.957 23.931825 48.914C24.043725 48.87125 24.135275 48.812 24.135275 48.78275C24.135275 48.7535 24.043725 48.7295 23.931825 48.7295C23.819925 48.7295 23.72835 48.78875 23.72835 48.86075ZM20.02105 49.09075C19.83415 49.2775 19.937625 50.0485 20.17865 50.2665C20.3151 50.38975 20.463225 50.4905 20.507975 50.4905C20.6889 50.4905 21.01565 50.04825 21.01565 49.80375C21.01565 49.32825 20.29815 48.814 20.02105 49.09075ZM27.2565 49.26825C27.1425 49.481 27.1695 49.5925 27.3875 49.81025C27.53825 49.961 27.74825 50.08425 27.854 50.08425C28.6035 50.08425 28.705 49.48875 28.00525 49.19675C27.41325 48.94975 27.428 48.94825 27.2565 49.26825ZM20.337475 49.7455C20.337475 49.85725 20.396625 49.94875 20.4689 49.94875C20.541075 49.94875 20.565075 49.85725 20.522225 49.7455C20.479225 49.63375 20.420075 49.54225 20.390775 49.54225C20.3615 49.54225 20.337475 49.63375 20.337475 49.7455ZM3.996275 50.7645C4.6548 51.451 7.470725 52.165 10.910825 52.51775C17.448325 53.188 20.981625 53.436 25.91025 53.5695C27.7675 53.62 28.89275 53.5805 30.18275 53.41975C32.018 53.1915 34.88075 52.91025 37.97 52.65475C40.65725 52.43275 44.99225 51.43875 45.919 50.83225C46.44525 50.488 46.24075 50.4595 45.37525 50.757C44.9475 50.904 43.5795 51.238 42.335 51.49925C37.51225 52.512 34.73875 52.83525 32.03325 52.7005C31.15825 52.657 29.40475 52.699 28.1365 52.7935C23.8564 53.11325 23.1233 53.1325 21.1513 52.9765C20.0696 52.891 18.330075 52.75375 17.2857 52.6715C16.2413 52.589 14.654375 52.3685 13.759175 52.18125C12.863975 51.994 11.12445 51.71875 9.893575 51.56925C7.5247 51.2815 6.299925 51.04875 4.894725 50.619C3.671575 50.2445 3.521025 50.269 3.996275 50.7645Z" fill="white"></path></svg> 