<?xml version="1.0" encoding="UTF-8"?> <svg xmlns="http://www.w3.org/2000/svg" viewBox="0 0 85 73" fill="none"><path fill-rule="evenodd" clip-rule="evenodd" d="M27.894 0.16496025C27.52075 0.36024 24.471025 3.1967 23.447925 4.300425C23.0426 4.737625 22.5037 5.270475 22.250475 5.484425C21.99725 5.6984 21.79 5.951825 21.79 6.047475C21.79 6.143125 21.71365 6.221425 21.6205 6.221425C21.5272 6.221425 21.100775 6.3808 20.672875 6.575575C19.968325 6.896175 19.865875 7.000975 19.589075 7.683C19.25345 8.510475 18.5536 9.28935 15.0031 12.78705C13.824075 13.94865 12.7124 15.07185 12.532725 15.283025C12.3532 15.494075 11.71925 16.149875 11.12405 16.74035C9.882975 17.971375 8.126 19.750775 5.281525 22.65745C4.1871 23.77575 2.68735 25.2655 1.9487375 25.968C0.7977125 27.0625 0.5624675 27.36525 0.3029 28.08575L0 28.9265L0.4124175 29.37625C0.8646325 29.86925 2.247365 30.91525 4.37225 32.37175C6.59425 33.8945 7.468025 34.5015 7.556325 34.5835C7.602 34.626 7.470225 35.103 7.263725 35.6435C6.672375 37.1915 6.018525 39.3525 6.018525 39.75925C6.018525 40.225 6.304025 40.348 10.081675 41.50975C11.61665 41.98175 13.635275 42.6165 14.56755 42.92C15.49985 43.22375 16.760075 43.62325 17.3681 43.808C19.345425 44.40825 22.12695 45.3965 24.59055 46.374C25.833 46.86675 28.8405 47.90975 29.35175 48.02525C29.72075 48.1085 29.7495 48.165 29.7495 48.813C29.7495 49.568 29.877 49.73375 30.5405 49.8415C30.83675 49.88975 31.0485 49.83325 31.24975 49.6525C31.63275 49.308 32.16675 49.3835 32.231 49.791C32.258 49.9635 32.10025 50.75775 31.88 51.5555C31.582 52.635 31.52225 53.0445 31.64625 53.15625C31.90275 53.3865 31.84425 53.54475 31.5355 53.45675C31.307 53.3915 31.2395 53.466 31.154 53.87825C31.09675 54.15375 30.86075 54.78 30.629 55.27C29.19625 58.30175 29.8055 60.404 32.886 63.05675C34.79775 64.70325 35.11975 65.19025 35.01725 66.27775C34.96675 66.81275 34.808 67.30625 34.56075 67.69825C34.19725 68.2745 32.67325 69.674 32.11925 69.94025C31.9005 70.04575 31.84025 70.29625 31.776 71.365C31.729 72.15075 31.757 72.72725 31.84725 72.8275C32.241 73.2645 33.57775 72.83825 34.682 71.92325C35.9425 70.879 36.50075 68.8795 36.115 66.7905C36.025 66.3035 35.88375 65.51775 35.80075 65.044C35.419 62.865 35.00375 61.89775 33.8585 60.518C32.94625 59.419 32.54125 58.54975 32.3125 57.19975C32.08825 55.877 32.15575 54.8245 32.51425 54.052C32.952 53.1095 34.605 50.99575 34.899 51.00275C34.94475 51.004 35.0755 51.058 35.1895 51.123C35.35575 51.2175 35.291 51.3525 34.864 51.80075C34.27275 52.4215 34.0695 53.15725 34.23375 54.081C34.3525 54.74775 34.668 55.22275 35.8045 56.44525C36.705 57.414 37.342 58.47175 37.88625 59.90225C38.285 60.9505 38.3085 62.88875 37.943 64.59925L37.6925 65.77275L38.17975 66.95075C38.44775 67.59875 38.7825 68.19425 38.9235 68.27425C39.37875 68.532 39.99275 67.79925 40.57625 66.3025C40.999 65.21775 41.093 64.786 41.09475 63.918C41.09875 61.89275 40.4935 59.7705 39.5455 58.487C39.265 58.10725 38.5765 57.47475 38.015 57.0815C36.7045 56.16325 36.38175 55.664 36.3845 54.55975C36.38675 53.563 36.49725 53.1205 36.7435 53.1205C36.84225 53.1205 37.448 53.5545 38.08975 54.0845C39.078 54.90125 40.096 55.7095 42.27825 57.4095C42.481 57.56725 43.111 58.053 43.6785 58.48875C44.246 58.9245 45.042 59.55775 45.44725 59.89575C45.8525 60.23375 46.4165 60.67775 46.7 60.88225C46.98375 61.087 47.61425 61.591 48.101 62.00275C48.58775 62.4145 49.218 62.85825 49.50125 62.98875C49.78475 63.11925 50.39875 63.486 50.86575 63.80375C51.33275 64.1215 51.8635 64.3815 52.045 64.38125C52.237 64.381 52.821 64.035 53.44275 63.55325C56.08575 61.505 58.54525 59.52125 60.0395 58.2325C60.93125 57.4635 61.74825 56.83325 61.855 56.83225C61.9615 56.831 62.18175 56.894 62.3445 56.97225C62.8395 57.2105 64.21775 57.4925 64.88625 57.4925C65.928 57.4925 66.43725 56.9675 67.45725 54.84275C67.92925 53.859 68.4725 52.66675 68.66425 52.19325C69.05375 51.23175 69.71475 50.519 71.09425 49.57325C71.58075 49.23975 72.3485 48.6645 72.8005 48.29475C73.526 47.70125 74.53075 46.94125 77.3165 44.87925C77.73925 44.56625 78.56825 43.93125 79.159 43.468C79.74975 43.00475 80.99575 42.03575 81.928 41.3145C83.7915 39.873 85.0705 38.64375 84.997 38.36475C84.971 38.2655 84.541 37.8935 84.04125 37.538C82.8035 36.65675 80.96425 35.2765 80.20875 34.66175L79.58525 34.1545L80.1525 33.13825C80.92125 31.76075 81.191 31.15225 81.191 30.79575C81.191 30.42275 79.90025 29.23025 78.89425 28.674C78.038 28.2005 78.03775 28.282 78.9095 26.29275C80.2 23.34835 80.52975 22.336175 80.37425 21.798025C80.23775 21.3252 80.18925 21.29605 78.9065 20.910125C78.17675 20.6906 77.1775 20.4271 76.686 20.324425C76.1945 20.221875 75.50675 20.04725 75.15775 19.93665C74.56375 19.74825 72.8225 19.383775 70.0625 18.870025C69.414 18.749325 68.4855 18.5408 67.999 18.4066C66.13925 17.89375 64.23225 17.47285 62.0295 17.08905C56.69875 16.160325 56.8655 16.20815 55.62525 15.2527C54.79475 14.612675 53.65525 13.9692 53.53825 14.07425C53.4965 14.111875 53.914 14.417775 54.46625 14.754025C55.826 15.581775 56.217 15.861975 56.12625 15.943325C56.00425 16.053025 52.851 15.11835 52.486 14.86425C52.16075 14.637825 52.1595 14.625775 52.413 14.1703C52.593 13.846775 52.75975 13.715625 52.965 13.736025C53.127 13.75205 53.1765 13.732175 53.075 13.6919C52.97375 13.6515 52.89075 13.5312 52.89075 13.424675C52.89075 13.093475 52.197 12.580625 51.749 12.580625C51.44525 12.580625 51.151 12.413575 50.67375 11.969875C50.05175 11.39185 48.20125 9.92685 45.61325 7.9632C44.975 7.478825 44.0465 6.761825 43.54975 6.36995C43.053 5.977925 42.16675 5.33725 41.58025 4.94615C40.552 4.26055 39.6825 3.593225 38.03975 2.2281225C37.61375 1.8741275 37.197 1.5845175 37.11375 1.5845175C36.66125 1.5845175 35.84575 2.063445 34.85 2.91345C33.83125 3.78335 33.70475 3.853175 33.45025 3.68755C33.29625 3.5874 32.3285 2.849725 31.3 2.04821C29.6525 0.7644475 28.50525 -0.012435275 28.2755 0.0001506295C28.235 0.0022703625 28.06325 0.0764615 27.894 0.16496025ZM26.421 2.0819925C25.4415 3.0107 24.3195 4.1282 23.9277 4.5654C23.535775 5.0026 22.98805 5.562075 22.7105 5.80875C22.10765 6.344375 22.196825 6.430625 23.4755 6.548525C23.9672 6.593975 25.03275 6.8045 25.8435 7.0166C26.654 7.228575 27.771 7.518575 28.32575 7.661125L29.334 7.920125L30.0945 7.227775C30.51275 6.847025 31.396 6.025225 32.057 5.401625L33.2595 4.267575L32.4255 3.5474C30.54875 1.92606 28.593 0.3921675 28.4035 0.39283C28.2925 0.3932275 27.4005 1.153285 26.421 2.0819925ZM36.227 2.2147425C35.75125 2.506725 31.3165 6.5227 30.4905 7.40955L29.87125 8.074075L30.26225 8.207625C30.47725 8.281025 30.71 8.341175 30.7795 8.341175C30.9515 8.341175 35.525 9.704425 37.3095 10.2876C38.10325 10.547025 38.7875 10.727975 38.83 10.689825C38.96675 10.566875 36.66825 9.043325 36.11075 8.8874C35.81425 8.80445 35.3395 8.553275 35.05575 8.328975C34.49175 7.88345 34.7135 7.94265 35.438 8.431125C35.689 8.6003 36.0205 8.73955 36.175 8.7406C36.45675 8.742725 37.08725 9.106925 38.64925 10.170225C39.11025 10.48395 39.755 10.8255 40.08175 10.929225C40.4085 11.032825 40.841 11.234325 41.04275 11.377025C41.24475 11.5197 41.85375 11.766 42.39675 11.924175C42.9395 12.0825 43.98075 12.40655 44.71025 12.6441C45.43975 12.881775 46.91625 13.2698 47.99125 13.50655L49.9455 13.936875L50.53075 13.35805L51.11625 12.77935L50.34525 12.12755C49.92125 11.7689 49.24275 11.240175 48.8375 10.952275C48.432 10.664525 47.7435 10.153 47.3075 9.8157C44.54275 7.6769 42.04625 5.816175 41.3305 5.3603C40.566 4.87355 37.92775 2.858075 37.39175 2.351465C36.93725 1.9216875 36.742 1.89877 36.227 2.2147425ZM20.721375 7.032375C20.4938 7.110125 20.31605 7.2719 20.31605 7.4012C20.31605 7.65105 20.056175 8.41205 19.4747 9.864725C18.580575 12.09865 17.99335 13.318575 16.406775 16.2385C15.478025 17.947675 14.67575 19.497975 14.62385 19.6836C14.571975 19.8692 14.439025 20.0523 14.328325 20.090575C14.217625 20.12875 14.1659 20.21645 14.2135 20.2856C14.260975 20.35475 14.095725 20.8403 13.846325 21.364675C13.311725 22.488675 11.4722 26.9545 11.4722 27.12825C11.4722 27.29075 9.98055 30.9535 9.415 32.17975C8.569375 34.013 6.7555 39.0535 6.7555 39.5695C6.7555 39.77475 7.244725 39.962 10.14565 40.866C11.4022 41.2575 13.39205 41.88775 14.56755 42.26625C17.606 43.2445 19.88755 43.97225 20.31605 44.09925C20.98685 44.29825 23.31615 45.17575 24.73795 45.76475C29.3785 47.688 29.793 47.84 29.91675 47.66425C29.9845 47.5685 30.04075 47.367 30.042 47.21675C30.04575 46.77175 31.56625 42.9705 32.46475 41.16C32.904 40.27525 32.90525 40.26975 32.658 40.26975C32.55525 40.26975 32.24 40.1285 31.95775 39.956C31.67525 39.78375 30.6485 39.4205 29.6755 39.149C27.835 38.63525 26.212 37.9395 26.212 37.664C26.212 37.57 26.77825 37.7455 27.5925 38.092C28.35175 38.4155 29.06475 38.68075 29.177 38.6815C29.627 38.68525 31.263 39.22425 31.777 39.53825C32.08425 39.726 32.5335 39.87225 32.80325 39.87225C33.24225 39.87225 33.321 39.804 33.737 39.0635C34.198 38.24275 34.21825 37.885 33.80425 37.885C33.34975 37.885 31.71975 37.11975 30.817 36.4825C30.30975 36.1245 29.54775 35.62275 29.124 35.36775C27.9615 34.6685 26.9625 33.7045 26.539 32.87275C25.559 30.94875 26.19875 27.77125 27.7855 26.68025C28.31375 26.317 28.4325 26.293 29.67575 26.29675C30.89875 26.3005 31.07525 26.336 31.934 26.75075C32.4465 26.99825 33.12025 27.46075 33.43125 27.77825C33.9935 28.35225 34.761 29.829 34.761 30.3365C34.761 30.4825 34.8225 30.7055 34.8975 30.832C34.97275 30.9585 35.07025 31.1665 35.114 31.294C35.158 31.42175 35.445 31.623 35.75125 31.7415C36.058 31.86 36.48775 32.04025 36.7065 32.14225C37.149 32.3485 37.27 32.24575 37.47 31.493C37.52325 31.29275 37.8555 30.7265 38.20825 30.2345C38.56075 29.7425 39 29.0715 39.18425 28.7435C39.3685 28.41575 39.77575 27.807 40.08925 27.39125C40.40275 26.97525 40.72475 26.481 40.80425 26.29275C40.88375 26.1045 41.21575 25.5975 41.54175 25.166C41.8675 24.734525 42.57075 23.7087 43.104 22.886125C43.63725 22.06365 44.1925 21.27155 44.33775 21.1258C44.48275 20.980075 44.88075 20.4137 45.222 19.86735C45.56325 19.32085 46.1915 18.4862 46.61775 18.012575C47.50125 17.031275 49.3485 14.73335 49.45575 14.481775C49.49925 14.37975 49.36325 14.28185 49.10875 14.232175C48.87825 14.187125 48.2485 14.035575 47.709 13.8954C47.1695 13.755225 46.60575 13.638125 46.45625 13.635325C46.3065 13.632425 45.0235 13.272325 43.60475 12.835125C38.49425 11.26005 31.33625 9.136075 31.1385 9.136075C31.0275 9.136075 30.255 8.933375 29.42175 8.685625C28.58875 8.43775 27.708 8.198225 27.46475 8.15305C27.2215 8.108 26.3925 7.8996 25.62225 7.69015C24.365325 7.348325 22.802325 7.057925 21.568925 6.9371C21.3257 6.91325 20.94425 6.956175 20.721375 7.032375ZM17.20685 11.20055C16.525425 11.900475 15.51945 12.9296 14.971575 13.48735C14.4237 14.045225 13.600025 14.918975 13.141475 15.429025C12.682775 15.939075 11.90395 16.7463 11.4109 17.222725C10.9177 17.69925 9.718175 18.91785 8.745375 19.9308C7.77255 20.943775 6.445225 22.3126 5.79595 22.97275C5.146525 23.6328 4.3208 24.500825 3.961 24.901575C3.60105 25.30225 2.846675 26.0475 2.2845075 26.5575C1.7224825 27.06775 1.138495 27.73225 0.98697 28.03475C0.677585 28.65225 0.70102 29.49025 1.026325 29.44275C1.137315 29.4265 1.858235 29.8665 2.628375 30.42025C3.398525 30.97425 4.293975 31.57675 4.61825 31.75925C4.942525 31.942 5.638975 32.403 6.165925 32.78425C7.287175 33.59525 7.7749 33.8455 7.93335 33.691C8.064675 33.56275 9.0216 31.489 9.36385 30.59125L9.593925 29.98775L9.095875 29.52375C8.822 29.26875 8.416675 28.97925 8.195125 28.8805C7.97345 28.782 7.750275 28.5765 7.69915 28.42425C7.64785 28.272 7.464325 28.00525 7.2913 27.83125L6.9766 27.51525L7.306775 27.66975C7.488225 27.7545 7.73775 27.9995 7.860975 28.21375C7.9842 28.428 8.23375 28.67175 8.4152 28.7555C8.5968 28.8395 8.9585 29.089 9.2191 29.31075L9.692675 29.71375L9.84525 29.353C9.9291 29.15475 10.1253 28.71275 10.2811 28.37125C10.4369 28.0295 10.744375 27.225 10.964425 26.5835L11.364625 25.41725L10.898825 25.008C10.373225 24.546125 10.40195 24.301025 10.9295 24.74645C11.116825 24.904625 11.3164 25.034 11.373025 25.034C11.508175 25.034 12.0764 23.85005 12.422325 22.8481C12.573125 22.4109 12.88015 21.7253 13.10435 21.324525C13.328525 20.923775 13.67505 20.20835 13.87435 19.734725C14.073625 19.2611 14.965675 17.5322 15.856675 15.892725C17.318725 13.2029 18.69335 10.1505 18.51485 9.99005C18.476825 9.956 17.88825 10.500775 17.20685 11.20055ZM51.4395 13.22265C51.29 13.357125 50.946 13.7596 50.6755 14.1169C49.626 15.50255 47.649 17.973375 47.15 18.52265C46.862 18.839675 46.29475 19.599075 45.8895 20.210225C43.882 23.237075 43.19375 24.248825 42.56375 25.10025C42.18625 25.61025 41.5975 26.445 41.2555 26.955C40.9135 27.46525 40.30975 28.3565 39.9135 28.936C39.5175 29.5155 39.21925 30.01275 39.2505 30.04075C39.28175 30.069 39.56125 29.93625 39.8715 29.746C40.182 29.556 40.67025 29.36625 40.95675 29.3245C41.30925 29.27325 41.55375 29.135 41.7125 28.897C43.31625 26.49025 44.45625 24.87085 44.85375 24.434325C45.121 24.14085 45.64475 23.40465 46.018 22.798275C46.391 22.1919 46.921 21.4186 47.19575 21.079575C47.47025 20.740675 47.84425 20.195125 48.0265 19.867225C48.209 19.539325 48.80325 18.64505 49.34725 17.879975C50.76625 15.8841 52.30125 13.409325 52.30125 13.1172C52.30125 12.889575 51.73275 12.959125 51.4395 13.22265ZM22.170875 14.350475C22.222025 14.469975 22.367225 14.567875 22.493675 14.567875C22.62 14.567875 22.695925 14.55105 22.66215 14.5304C22.6284 14.509725 22.483075 14.41195 22.33935 14.312975C22.111925 14.15625 22.0901 14.16115 22.170875 14.350475ZM22.8218 14.609475C22.8218 14.6491 23.20325 14.74885 23.669325 14.831125C25.21025 15.103125 27.60075 15.776125 28.34925 16.14895C28.7545 16.35085 29.3515 16.5921 29.67575 16.684975C30 16.777825 30.63025 16.989425 31.076 17.155025C31.88025 17.453775 35.52475 18.05405 37.46825 18.207875C38.02525 18.251975 38.72475 18.399825 39.023 18.53655C39.32125 18.6734 39.82725 18.827625 40.148 18.8793C40.46825 18.9311 40.8345 19.054575 40.96125 19.1538C41.18175 19.32615 42.2855 19.589125 42.12925 19.43215C41.91225 19.21435 40.28225 18.542375 39.9705 18.542375C39.7715 18.542375 39.30925 18.4197 38.94325 18.269875C38.52025 18.0967 37.59575 17.92925 36.40875 17.8108C34.106 17.581075 32.0775 17.257025 31.297 16.99405C30.97275 16.88475 30.34275 16.6798 29.89675 16.5387C29.451 16.3976 28.707 16.10495 28.2435 15.8882C27.78 15.671475 27.0505 15.409425 26.62225 15.305825C26.19375 15.202225 25.5185 15.0268 25.12175 14.91605C24.332025 14.695725 22.8218 14.49435 22.8218 14.609475ZM51.31975 16.2026C51.02825 16.72445 50.4995 17.556175 50.14425 18.051C49.7895 18.545825 49.2925 19.32085 49.04025 19.773275C48.78775 20.225725 48.3005 20.953575 47.957 21.390775C47.6135 21.827975 47.05925 22.620225 46.72575 23.1512C46.392 23.6822 45.81675 24.46995 45.44725 24.901575C45.07775 25.33325 44.5035 26.121 44.1715 26.652C43.83925 27.183 43.28875 27.97525 42.94825 28.4125C42.60775 28.8495 42.2835 29.2775 42.22775 29.36325C42.1665 29.45775 42.39575 29.693 42.80875 29.9595C43.622 30.48425 44.67825 31.6345 44.57325 31.88075C44.52975 31.982 44.6005 32.05575 44.74075 32.05575C45.1415 32.05575 46.68975 33.6335 47.223 34.58525C47.65325 35.35325 47.692 35.4975 47.50575 35.6365C47.33575 35.76325 47.24225 35.76225 47.06775 35.632C46.88425 35.495 46.79625 35.52325 46.559 35.794C46.40125 35.97425 45.98725 36.2165 45.63875 36.33225C44.85125 36.594 41.676 37.0445 39.37075 37.22175C37.0865 37.3975 36.8245 37.4525 36.8245 37.755C36.8245 38.15575 37.09925 38.20975 39.00875 38.18275C41.4925 38.14775 43.5515 37.942 45.2785 37.55625C46.912 37.1915 47.094 37.0955 47.26275 36.5105C47.423 35.95425 47.87925 35.86725 47.87925 36.39325C47.87925 37.21025 46.5715 37.854 44.02025 38.29275C41.9755 38.6445 41.69475 38.6745 39.58825 38.768C38.3025 38.82525 37.85625 38.88975 37.85625 39.0185C37.85625 39.11375 37.99375 39.231 38.16175 39.279C38.988 39.51475 41.2915 41.5245 41.9145 42.55325C42.78525 43.991 43.47675 46.65575 43.2545 47.7165C43.129 48.31525 42.7225 48.59525 41.32025 49.0495C39.912 49.50575 39.47425 49.69625 39.5575 49.81725C39.6425 49.941 41.28025 50.38 42.49925 50.60575C43.581 50.806 45.8255 51.392 47.216 51.83725C47.7835 52.01875 48.64575 52.263 49.13225 52.38C52.009 53.07125 55.80725 54.148 57.018 54.61525C57.30175 54.725 57.92725 54.91675 58.40825 55.04175C58.88925 55.16675 59.685 55.43725 60.177 55.64275C62.85325 56.761 63.2735 56.89275 64.17325 56.8945C64.75675 56.89575 65.1925 56.82075 65.4365 56.677C65.943 56.3785 67.455 53.4135 68.804 50.0735C69.0245 49.527 69.4215 48.63275 69.68575 48.08625C70.36725 46.67725 72.0495 42.27775 73.15625 39.011C73.67475 37.48075 74.27575 35.8415 74.49225 35.36775C74.7085 34.89425 75.26975 33.55275 75.73925 32.387C76.20875 31.221 76.88975 29.61125 77.25275 28.80975C77.6155 28.00825 78.06125 26.93525 78.2435 26.42525C78.42575 25.915 78.86875 24.82395 79.22775 24.000575C79.7065 22.9028 79.86875 22.3575 79.83575 21.956875L79.79075 21.410525L78.68525 21.1005C78.07725 20.93 77.18175 20.704775 76.6955 20.599975C76.209 20.4952 75.04825 20.224 74.116 19.99745C73.18375 19.770775 71.73275 19.4707 70.89175 19.330525C70.0505 19.19035 69.122 19.012425 68.828 18.9352C68.53425 18.8581 67.133 18.53325 65.71425 18.2133C63.1605 17.637525 62.7265 17.554325 58.713 16.8719C56.25725 16.454175 54.296 16.018575 52.88275 15.576875L51.8495 15.253875L51.31975 16.2026ZM63.8075 19.5486C63.7955 19.9059 64.27225 20.2962 64.5875 20.187425C64.721 20.14145 64.83 20.05495 64.83 19.9952C64.83 19.935575 64.946 19.8594 65.088 19.826025C65.25175 19.7876 65.2025 19.7599 64.95275 19.7501C64.73675 19.741625 64.53375 19.80495 64.50175 19.890675C64.42375 20.10145 64.10325 19.908675 63.9445 19.555625C63.81725 19.2717 63.817 19.2717 63.8075 19.5486ZM62.82025 19.93465C62.87025 20.0519 62.78525 20.202 62.615 20.297775C62.24825 20.503525 62.242 20.662125 62.601 20.662125C63.0305 20.662125 63.26175 20.336725 63.06625 20.008175C62.8785 19.692725 62.69325 19.63735 62.82025 19.93465ZM65.64075 20.264675C65.81775 20.57255 65.96925 20.662125 66.31225 20.662125C66.57025 20.662125 66.79075 20.57905 66.84025 20.4634C66.97375 20.1506 67.28775 20.22955 67.6305 20.662125C67.94525 21.059425 68.546 21.2033 68.736 20.927075C68.895 20.6959 69.29625 20.78335 69.7095 21.13905C70.115 21.488275 70.43775 21.540225 71.24925 21.387075C71.63 21.31525 71.72425 21.35195 71.86325 21.6262C72.0695 22.0328 72.51 22.142875 73.00575 21.911825C73.479 21.690975 73.7685 21.78 73.88025 22.18065C73.9275 22.34955 74.07125 22.524025 74.20025 22.568425C74.48825 22.667775 75.59 22.520725 75.59 22.38295C75.59 22.216275 74.9695 22.124875 74.7045 22.252575C74.437 22.381075 74.116 22.1911 74.116 21.90455C74.116 21.66355 73.1 21.38985 72.89375 21.5752C72.63475 21.8081 72.17925 21.745825 72.09775 21.466425C72.0045 21.145675 71.03875 20.970675 70.58 21.19125C70.23575 21.357 69.8415 21.1796 69.8415 20.859125C69.8415 20.6225 68.79825 20.5311 68.461 20.7383C68.11525 20.950675 67.778 20.84255 67.778 20.5193C67.778 20.181475 66.9165 19.963125 66.587 20.2175C66.26325 20.4675 66.04625 20.441925 65.86175 20.132175C65.775 19.98645 65.63825 19.867225 65.558 19.867225C65.47775 19.867225 65.515 20.046075 65.64075 20.264675ZM19.65275 20.492C19.863975 20.68385 20.732725 20.927075 21.20675 20.927075C21.429175 20.927075 22.397575 21.107125 23.35875 21.32705C24.319925 21.5471 25.803 21.78875 26.654 21.864C28.2375 22.004175 28.50225 22.0871 30.339 23.017525C30.78775 23.245 31.66875 23.524675 32.3125 23.644175C32.95175 23.7629 33.781 23.967975 34.15475 24.10005C34.52875 24.232 35.5975 24.4465 36.52975 24.576725C37.56175 24.72075 38.5035 24.93735 38.93725 25.13025C39.329 25.3045 39.788 25.42875 39.95725 25.40625C40.30275 25.36025 40.41475 25.4225 38.8235 24.7781C38.42325 24.61595 37.34075 24.370975 36.4185 24.2336C35.496 24.096225 34.298 23.865025 33.75625 23.719975C33.21425 23.57475 32.34 23.35975 31.813 23.241975C31.286 23.12405 30.33725 22.76105 29.70425 22.435C28.739 21.9378 28.35925 21.821225 27.346 21.711375C25.89625 21.55425 24.2138 21.270075 23.142825 21.0014C22.71125 20.893175 21.82805 20.73935 21.180075 20.6596C20.531975 20.57985 19.89005 20.479425 19.753575 20.436375C19.587 20.3839 19.55385 20.402175 19.65275 20.492ZM63.50775 20.9602C63.43225 21.124225 63.17625 21.675625 62.9385 22.185675C62.7005 22.695725 62.293 23.649625 62.033 24.3054C61.424 25.8405 59.8525 29.50775 59.10225 31.14525C58.5735 32.29925 58.4275 32.77525 58.4755 33.1905C58.4845 33.268 58.74075 33.439 59.04475 33.57075C60.66 34.27 68.49425 36.514 68.869 36.38475C68.98025 36.34625 69.34175 35.588 69.67225 34.69975C70.2495 33.14875 70.26425 33.0685 70.0405 32.68C69.76075 32.1935 69.7635 32.19 69.0895 33.96C68.8155 34.6795 68.50775 35.297 68.4055 35.332C67.8255 35.53225 59.832 33.7105 59.3365 33.2655C59.1715 33.11675 59.545 31.70725 60.1155 30.325C60.79425 28.68125 63.00275 22.94375 63.223 22.251925C63.54825 21.2306 63.7365 21.059575 64.5335 21.059575C64.9195 21.059575 65.50875 21.14635 65.8435 21.25245C66.17825 21.358575 66.8665 21.512 67.37275 21.59335C67.87925 21.674825 68.8575 21.91065 69.54675 22.117575C70.23575 22.324375 71.1975 22.594525 71.684 22.7176C73.029 23.0582 73.379 23.19545 73.379 23.38265C73.379 23.477 72.62175 25.37075 71.696 27.5915C70.77025 29.81225 69.992 31.74 69.9665 31.8755C69.941 32.011 70.0265 32.25825 70.15625 32.42475L70.3925 32.7275L70.63275 32.27225C70.765 32.02175 70.87325 31.77075 70.87325 31.71425C70.87325 31.65775 71.2685 30.65325 71.7515 29.482C73.46325 25.33275 74.116 23.660075 74.116 23.42425C74.116 23.0949 73.66325 22.86995 72.19975 22.4721C71.51075 22.284775 70.28375 21.94945 69.473 21.727025C67.862 21.28505 64.70225 20.6649 64.053 20.663175C63.7675 20.662375 63.60325 20.75195 63.50775 20.9602ZM62.276 21.27035C62.332 21.40165 62.21925 21.6034 61.97675 21.805575C61.7625 21.984175 61.58725 22.19655 61.58725 22.27775C61.58725 22.3603 61.70625 22.328625 61.85675 22.2062C62.005 22.08565 62.1995 21.98695 62.289 21.98695C62.3785 21.98695 62.491 21.87605 62.53875 21.74065C62.63725 21.461525 62.50425 21.059575 62.313 21.059575C62.24325 21.059575 62.2265 21.154425 62.276 21.27035ZM61.5115 22.906525C61.61675 23.3363 61.38925 23.841725 61.091 23.841725C60.8005 23.841725 60.57175 24.64735 60.7565 25.01925C60.88875 25.28575 60.8475 25.3765 60.45675 25.678C59.9075 26.10225 59.76775 26.422 59.9915 26.744C60.21275 27.0625 60.05875 27.3935 59.61975 27.5435C59.223 27.67925 59.0005 28.23975 59.21 28.576C59.2905 28.70525 59.29375 28.92175 59.21775 29.101C59.05925 29.476 59.301 29.51525 59.5185 29.14975C59.6215 28.97675 59.62325 28.78025 59.52375 28.54475C59.3475 28.128 59.53175 27.74125 59.9655 27.6175C60.32475 27.515 60.50625 26.956 60.265 26.69475C60.0275 26.43775 60.18375 26.0545 60.591 25.894C60.87025 25.784 60.92575 25.65575 60.93525 25.10025C60.951 24.161 60.95775 24.1443 61.364 24.05275C61.7795 23.9591 61.97175 23.497525 61.7925 23.023225C61.7285 22.85405 61.68925 22.67095 61.7055 22.61625C61.7215 22.561525 61.663 22.516875 61.5755 22.516875C61.476 22.516875 61.45225 22.66315 61.5115 22.906525ZM74.816 23.322375C74.67425 23.3967 74.5625 23.588675 74.5675 23.748975L74.577 24.04045L74.71025 23.74235C74.7835 23.57835 74.941 23.444275 75.06075 23.444275C75.18 23.444275 75.31875 23.38465 75.36875 23.311775C75.486 23.141275 75.14975 23.147775 74.816 23.322375ZM74.44775 24.854425C73.93125 25.3255 73.8895 25.44825 74.1155 25.828C74.31575 26.16475 74.166 26.45125 73.739 26.54775C73.32425 26.64125 73.10875 27.1925 73.37475 27.48025C73.60725 27.73225 73.4425 28.16775 73.083 28.25225C72.6545 28.353 72.38825 28.95775 72.6235 29.29625C72.838 29.60475 72.8325 29.6125 72.176 29.92875C71.596 30.20775 71.48575 30.52 71.84175 30.87375C72.05325 31.08375 72.06925 31.1885 71.9315 31.46C71.8395 31.642 71.66525 31.79075 71.545 31.79075C71.1735 31.79075 70.97075 32.29 71.168 32.718C71.3755 33.1685 71.22225 33.4875 70.53175 34.04175C70.076 34.40775 70.071 34.42525 70.26925 34.9185C70.469 35.4145 70.465 35.4265 69.98875 35.784C69.555 36.1095 69.515 36.19725 69.5955 36.65125C69.72075 37.35975 69.57225 37.528 68.98425 37.3435C68.726 37.26275 68.515 37.12025 68.515 37.027C68.515 36.6855 68.08875 36.51125 67.58775 36.64825C67.008 36.807 66.1565 36.63225 66.1565 36.35475C66.1565 36.246 65.98375 36.08625 65.7725 35.99975C65.4625 35.87275 65.31375 35.881 64.99875 36.0425C64.481 36.30825 63.88675 36.1785 63.82375 35.78575C63.75025 35.327 63.13775 35.17475 62.5665 35.473C61.94225 35.79925 61.53125 35.7105 61.27925 35.19575C61.0425 34.71275 60.4345 34.55625 60.1195 34.89725C59.7645 35.28175 58.934 35.1095 58.934 34.6515C58.934 34.49175 58.8545 34.28925 58.75725 34.202C58.52375 33.99225 57.7475 34.006 57.4255 34.226C57.0335 34.4935 57.28175 34.5765 57.75075 34.3345C58.101 34.154 58.204 34.148 58.40475 34.298C58.536 34.39575 58.62575 34.57 58.60425 34.685C58.581 34.8115 58.77 34.98575 59.0815 35.12475C59.7615 35.42825 60.0695 35.42375 60.25775 35.10775C60.45825 34.771 60.79025 34.89 60.97425 35.36475C61.16475 35.8555 62.17675 36.05875 62.62275 35.696C62.96175 35.42 63.356 35.525 63.356 35.891C63.356 36.074 63.48325 36.183 63.76125 36.23875C63.98425 36.28325 64.27975 36.34725 64.41775 36.38075C64.556 36.41425 64.83325 36.345 65.03425 36.22675C65.38275 36.02125 65.40975 36.026 65.6325 36.33175C65.90925 36.71125 66.89175 37.008 67.484 36.89125C67.81425 36.826 67.9395 36.8665 68.066 37.07875C68.21925 37.33625 69.7695 37.86125 69.9355 37.712C70.01875 37.63725 70.0345 36.91375 69.9635 36.428C69.92825 36.18575 70.00575 36.06125 70.253 35.96425C70.67125 35.8 70.82275 35.31425 70.58225 34.9105C70.3605 34.538 70.59675 34.043 70.99625 34.043C71.3535 34.043 71.6175 33.315 71.51125 32.6235C71.433 32.114 71.4595 32.05125 71.81625 31.90525C72.2695 31.71975 72.4665 31.19775 72.218 30.84025C71.99725 30.5225 72.24275 30.0685 72.6355 30.0685C72.97375 30.0685 73.19775 29.3575 72.94575 29.08425C72.81825 28.9465 72.87825 28.8325 73.20975 28.58175C73.71575 28.199 73.893 27.78675 73.6945 27.4535C73.52675 27.172 73.73 26.75625 74.03525 26.75625C74.145 26.75625 74.3085 26.5655 74.399 26.3325C74.533 25.9865 74.52325 25.88825 74.34575 25.799C74.0665 25.65825 74.20225 25.31275 74.67575 24.95855C74.8775 24.80765 75.0165 24.62415 74.9845 24.550775C74.95275 24.477375 74.71125 24.613975 74.44775 24.854425ZM63.5095 25.57925C62.93025 26.1495 62.692 26.99975 62.69725 28.47875C62.70425 30.47025 63.4825 32.18825 64.3775 32.18825C64.759 32.18825 66.2255 31.58575 67.02525 31.10025C68.4995 30.2055 69.23125 29.5425 69.71075 28.66725C70.3445 27.50975 70.37275 26.727 69.79625 26.28125C69.569 26.10525 69.24175 25.9615 69.069 25.9615C68.5255 25.9615 67.4905 26.49925 66.58675 27.2515L65.71425 27.97725V27.30925C65.71425 26.4955 65.5235 26.01075 65.014 25.531C64.505 25.05125 64.0305 25.06675 63.5095 25.57925ZM44.98825 26.3345C45.03975 26.40925 45.553 26.56725 46.129 26.68475C46.70475 26.8025 47.4465 27.023 47.777 27.1745C48.27075 27.401 48.53775 27.4355 49.271 27.36875C50.3115 27.274 51.09475 27.43725 51.67025 27.869C52.27825 28.325 52.81775 28.54025 54.31875 28.92575C55.86525 29.32275 55.83875 29.319 55.83875 29.13775C55.83875 28.998 55.3445 28.79175 54.76625 28.68975C53.9245 28.5415 52.45175 28.05525 52.1075 27.81175C51.26375 27.2155 50.50075 27.0235 49.1025 27.0565C48.176 27.07825 47.7075 27.03475 47.54225 26.912C47.41275 26.81525 46.888 26.64975 46.377 26.54375C45.8655 26.43775 45.32275 26.31675 45.171 26.2745C45.00175 26.22775 44.93075 26.251 44.98825 26.3345ZM17.5155 26.67575C17.5155 26.805 19.354125 27.2575 20.5299 27.41775C21.17095 27.50525 22.0319 27.71325 22.442825 27.88025C22.853925 28.0475 23.422425 28.2275 23.706175 28.2805C23.9899 28.3335 24.2884 28.419 24.36945 28.47075C24.79205 28.74025 26.211 28.94575 25.905 28.693C25.692 28.51725 20.869375 27.1535 20.455325 27.15175C20.013 27.15 18.5452 26.8905 17.77345 26.67725C17.6315 26.638 17.5155 26.6375 17.5155 26.67575ZM28.04 26.95575C27.2125 27.69975 26.82 29.3785 27.2675 30.261C27.488 30.69625 27.62775 30.688 27.7355 30.234C27.8915 29.576 28.39825 29.0255 29.376 28.4515C29.9335 28.1245 30.339 27.79225 30.339 27.66275C30.339 27.53975 30.16725 27.25575 29.9575 27.0315C29.452 26.49175 28.59425 26.45775 28.04 26.95575ZM31.2825 28.16125C32.36625 30.024 33.21925 31.88725 34.15 34.42425C34.561 35.545 34.9385 36.49875 34.98875 36.544C35.2005 36.73425 35.46475 36.1235 35.4 35.59275C35.091 33.05575 34.71125 31.17075 34.39375 30.59825C34.2925 30.41625 34.098 29.9585 33.96125 29.58125C33.8245 29.20375 33.5255 28.66325 33.29675 28.3795C32.84025 27.81275 31.51275 26.95925 30.859 26.8115L30.44275 26.71775L31.2825 28.16125ZM29.644 28.578C29.229 28.85125 28.787 29.22925 28.66175 29.418C28.318 29.936 28.21725 30.766 28.4275 31.3465C28.612 31.856 30.85275 34.27675 31.159 34.29725C31.24525 34.30325 31.5105 34.4925 31.7485 34.718C32.4575 35.38975 34.37675 36.73475 34.42825 36.596C34.4545 36.52525 34.2695 35.9965 34.01725 35.42075C33.76475 34.845 33.3715 33.89725 33.143 33.31425C32.396 31.409 32.30125 31.26075 31.8295 31.26075C31.39125 31.26075 30.47275 31.006 29.627 30.65C28.87175 30.332 29.1735 30.28975 30.0305 30.5935C30.91 30.905 31.9605 30.9565 31.9605 30.688C31.9605 30.42925 30.66425 28.08125 30.52125 28.08125C30.45375 28.08125 30.05925 28.30475 29.644 28.578ZM77.57675 29.50825C77.35675 29.9985 77.056 30.7105 76.90875 31.09025L76.64125 31.781L77.752 32.71325C78.36275 33.226 78.951 33.6455 79.05925 33.6455C79.2515 33.6455 80.89625 31.1035 80.89625 30.806C80.89625 30.55975 79.402 29.32225 78.66275 28.9565L77.977 28.617L77.57675 29.50825ZM58.55075 29.6065C58.34725 29.8855 58.32325 30.03925 58.4395 30.31625C58.6295 30.76825 58.543 30.99575 58.18125 30.99575C57.7925 30.99575 57.5315 31.609 57.722 32.075C57.88525 32.47475 57.787 32.67625 57.3215 32.8955C57.14225 32.98025 56.8715 33.30225 56.7195 33.6115C56.45125 34.158 56.45125 34.17725 56.71625 34.3045C56.939 34.41175 56.97675 34.3935 56.92175 34.205C56.81875 33.851 57.225 33.11325 57.62125 32.93475C57.92675 32.797 57.976 32.6805 57.976 32.09575C57.976 31.722 58.00925 31.39325 58.04975 31.36475C58.09025 31.33625 58.30575 31.2105 58.52875 31.085C58.95525 30.84525 59.0515 30.49175 58.76125 30.231C58.629 30.11225 58.63025 29.993 58.76675 29.72375C59.00975 29.2445 58.87 29.16875 58.55075 29.6065ZM39.60275 30.4295C39.11625 30.84675 38.60925 31.3535 38.4765 31.5555C38.3435 31.75775 38.14975 31.92325 38.0455 31.92325C37.9415 31.92325 37.8525 31.96775 37.84775 32.0225C37.78825 32.71925 37.6795 33.14725 37.4355 33.6455C37.09875 34.3335 36.76675 35.7425 36.855 36.11025C36.8975 36.289 37.0555 36.1135 37.40275 35.50025C37.671 35.0265 38.1255 34.341 38.413 33.97675C39.3295 32.81525 41.11725 31.00725 41.6325 30.721C41.9065 30.56875 42.13075 30.38875 42.13075 30.32075C42.13075 30.12975 41.21375 29.672 40.83025 29.6715C40.614 29.671 40.16075 29.951 39.60275 30.4295ZM41.881 30.92525C41.56975 31.1715 41.528 31.2535 41.71225 31.2565C42.15725 31.26425 44.27475 33.454 44.92725 34.58125C45.262 35.1595 45.56675 35.63275 45.60425 35.63275C45.76875 35.63275 46.257 34.74125 46.25725 34.44C46.25775 34.2185 45.92775 33.77275 45.263 33.09675C44.71575 32.5405 43.94425 31.75075 43.5485 31.34175C43.15275 30.933 42.7085 30.59825 42.56175 30.59825C42.41475 30.59825 42.1085 30.7455 41.881 30.92525ZM26.65725 31.36025C26.66625 32.37925 27.94775 33.9805 29.54625 34.97025C30.18475 35.36575 31.05825 35.94475 31.48675 36.257C32.3455 36.8825 33.286 37.355 33.6725 37.355C33.90525 37.355 33.9055 37.3385 33.67825 37.11275C33.54425 36.9795 33.4345 36.8005 33.4345 36.71525C33.4345 36.63 33.30975 36.56 33.1575 36.56C32.64 36.56 28.39275 32.97175 27.2345 31.556C26.98225 31.248 26.7485 30.99575 26.715 30.99575C26.6815 30.99575 26.6555 31.15975 26.65725 31.36025ZM41.31875 31.79275C41.26775 31.867 41.17025 31.8965 41.102 31.8585C40.7805 31.68 38.66225 34.3245 37.9865 35.748C37.32925 37.1325 37.4945 37.13825 38.3565 35.761C38.79125 35.06625 39.51075 34.018 39.95525 33.431C40.39975 32.84425 40.79675 32.27975 40.8375 32.17675C40.878 32.07375 40.966 32.0355 41.033 32.09175C41.1 32.148 40.9945 32.476 40.79875 32.8205C40.60275 33.16475 40.42025 33.488 40.39275 33.53825C40.31475 33.6825 41.15525 34.02675 41.8175 34.122C42.45975 34.21425 43.00675 34.49225 42.84 34.642C42.7005 34.76725 40.867 34.20425 40.65 33.96925C40.55275 33.864 40.39575 33.778 40.30075 33.778C40.0705 33.778 38.7905 35.763 38.52825 36.527C38.42975 36.8145 38.45925 36.825 39.3665 36.825C41.034 36.825 44.198 36.37325 44.74275 36.05725C44.94275 35.9415 44.834 34.97025 44.621 34.97025C44.55275 34.97025 44.38625 34.7765 44.2515 34.53975C43.873 33.8755 41.8445 31.65825 41.615 31.65825C41.503 31.65825 41.3695 31.71875 41.31875 31.79275ZM35.40425 32.42C35.455 32.69325 35.54 33.4085 35.59275 34.00975C35.64575 34.611 35.73525 35.10275 35.79225 35.10275C35.9345 35.10275 36.9715 32.86625 36.97175 32.55875C36.972 32.45725 35.701 31.92325 35.46 31.92325C35.37075 31.92325 35.34875 32.12075 35.40425 32.42ZM75.825 33.878C75.5085 34.661 75.0875 35.678 74.88975 36.13825C74.551 36.92625 74.5445 36.9895 74.77875 37.22225C75.014 37.45575 75.0115 37.46525 74.73225 37.39975C74.47225 37.3385 74.39075 37.47 74.048 38.502C73.83425 39.14625 73.596 39.84625 73.519 40.0575C73.442 40.26875 73.379 40.542 73.379 40.6645C73.379 40.952 74.576 41.72625 75.0245 41.729C75.3875 41.731 75.851 41.93425 75.733 42.0395C75.526 42.22425 74.35025 41.85425 73.9365 41.47375C73.6865 41.244 73.4175 41.075 73.339 41.0985C73.1665 41.15025 72.7435 42.12775 71.60575 45.10525C71.13225 46.344 70.51075 47.84925 70.2245 48.4505C69.93825 49.05175 69.76375 49.5435 69.83675 49.5435C69.9855 49.5435 71.36625 48.54175 73.67375 46.7595C74.525 46.102 75.51525 45.3715 75.87425 45.136C76.2335 44.9005 76.99625 44.34475 77.56925 43.90075C78.1425 43.457 79.207 42.665 79.9345 42.14075C81.88325 40.73725 84.58125 38.51725 84.58125 38.31725C84.58125 38.2215 84.43175 38.09025 84.2495 38.02525C84.06725 37.96025 83.70325 37.73825 83.4405 37.5315C83.178 37.32525 82.6805 36.96175 82.335 36.72375C81.98975 36.48575 81.34225 36.02525 80.89625 35.7C80.45025 35.37475 79.52475 34.705 78.83925 34.2115C78.15375 33.718 77.39525 33.1205 77.15375 32.88375C76.9125 32.64675 76.64425 32.4535 76.55775 32.45375C76.4715 32.454 76.14175 33.095 75.825 33.878ZM12.946175 33.702C12.946175 33.78825 14.435475 34.382 14.93605 34.49525C15.17925 34.55025 15.922875 34.675 16.588525 34.772C17.436625 34.89575 18.2087 35.127 19.16795 35.545C20.297625 36.037 20.817325 36.17775 22.13845 36.3485C23.01915 36.4625 23.9305 36.64125 24.16385 36.74575C24.414275 36.85825 24.623125 36.885 24.673825 36.81125C24.830375 36.5835 23.454275 36.1615 21.925475 35.96875C20.741125 35.8195 20.149325 35.66275 19.16605 35.23875C18.385875 34.90225 17.547775 34.65175 16.941075 34.57375C15.806575 34.428 13.81685 33.984 13.40105 33.784C13.0946 33.6365 12.946175 33.60975 12.946175 33.702ZM35.992 35.84275C35.7795 36.13425 35.7735 36.203 35.95175 36.3045C36.30575 36.50575 36.38225 36.44525 36.38225 35.964C36.38225 35.41 36.32125 35.391 35.992 35.84275ZM48.81375 36.18C48.96275 36.25775 49.5265 36.45725 50.0665 36.6235C52.16825 37.2695 53.01175 37.541 54.262 37.97375C55.231 38.30925 55.9535 38.4565 57.117 38.5555C57.974 38.6285 58.82825 38.761 59.0155 38.84975C59.20275 38.9385 59.7855 39.3845 60.311 39.841C61.59825 40.95925 62.36825 41.2495 64.97725 41.6C67.063 41.88 67.56475 41.99325 68.69925 42.44C69.48225 42.74875 69.3885 42.46625 68.5525 41.9985C68.052 41.7185 67.47525 41.55175 66.52575 41.41225C65.79575 41.305 64.536 41.1205 63.7265 41.0025C62.049 40.758 61.43875 40.4885 60.15475 39.42525C59.017 38.483 58.8485 38.41725 57.199 38.2655C56.41775 38.19375 55.41075 38.015 54.96125 37.86875C52.0205 36.911 48.978 36.02425 48.66725 36.03425C48.59875 36.0365 48.66475 36.102 48.81375 36.18ZM35.45275 36.78525C34.82525 36.9315 34.71025 38.249 35.28025 38.76125C35.895 39.31375 36.128 39.14775 36.32475 38.01625C36.476 37.1475 36.4685 37.00325 36.2645 36.85825C36.025 36.688 35.91325 36.67825 35.45275 36.78525ZM25.03275 37.07575C25.03275 37.141 25.13775 37.23025 25.266 37.2745C25.6265 37.399 25.674 37.372 25.475 37.15625C25.2715 36.936 25.03275 36.89275 25.03275 37.07575ZM75.59 37.8215C75.59 37.8645 75.905 38.025 76.29 38.178C76.675 38.331 77.2325 38.70025 77.52825 38.9985C77.82425 39.297 78.1045 39.50775 78.151 39.467C78.308 39.33 76.784 38.0175 76.468 38.0175C76.29875 38.0175 76.03175 37.95575 75.875 37.88025C75.71825 37.80475 75.59 37.7785 75.59 37.8215ZM36.74575 39.0915C36.67075 39.3045 36.7865 39.5015 37.23275 39.91975C38.579 41.18075 40.35475 43.9025 41.0895 45.831C41.2695 46.303 41.45425 47.09275 41.50025 47.58625C41.594 48.5905 41.757 48.69925 42.3585 48.15825C42.631 47.91375 42.72 47.6925 42.71925 47.264C42.71625 45.74475 41.939 43.28775 41.1245 42.22375C40.50375 41.41275 38.963 40.06175 38.05025 39.5275C37.63 39.2815 37.24475 39.02 37.194 38.9465C37.04475 38.72925 36.85175 38.792 36.74575 39.0915ZM33.6035 40.43525C32.8155 41.74825 31.413 44.74025 30.8245 46.364C30.62625 46.91025 30.4265 47.8195 30.3805 48.38425C30.3035 49.33 30.319 49.411 30.576 49.41025C30.8005 49.40975 30.947 49.145 31.32775 48.05225C32.279 45.31975 33.1695 43.22325 34.165 41.37075C35.11275 39.60725 35.1645 39.4655 34.90825 39.34225C34.75675 39.2695 34.56675 39.20975 34.486 39.20975C34.405 39.20975 34.008 39.76125 33.6035 40.43525ZM35.724 39.64025C35.69125 39.7315 35.5855 40.25025 35.489 40.79325C35.39275 41.33625 35.02 42.767 34.66075 43.97275C34.3015 45.17875 33.88325 46.70175 33.73125 47.3575C32.8455 51.178 32.68 51.95675 32.743 52.01325C32.85525 52.11425 34.5625 49.94675 35.05375 49.07975C35.601 48.11375 35.863 46.26025 36.02325 42.21525C36.09725 40.35025 36.173 39.631 36.285 39.73175C36.70975 40.1135 36.48575 47.5465 36.013 48.7505L35.811 49.26525L36.4975 49.61L37.184 49.95475L37.9355 49.613C38.349 49.425 39.11375 49.16375 39.63525 49.032C40.48975 48.8165 40.6005 48.7485 40.75875 48.34025C41.03475 47.629 40.7185 46.29025 39.82625 44.393C38.98025 42.59325 38.5675 42.077 37.82675 41.892C37.47825 41.8045 37.0955 41.6755 36.97625 41.60475C36.62175 41.39475 36.88175 41.322 37.3815 41.4915C37.6365 41.578 37.88675 41.6115 37.93725 41.56575C38.0595 41.456 37.392 40.447 36.83875 39.90525C36.39375 39.46975 35.833 39.3365 35.724 39.64025ZM34.15275 42.555C33.68325 43.39075 32.0555 47.46325 31.82225 48.38625C31.71325 48.8165 31.7385 48.912 32.0065 49.0805C32.17725 49.18825 32.36025 49.232 32.41325 49.178C32.4665 49.124 32.7185 48.24525 32.97325 47.225C33.22825 46.205 33.727 44.5505 34.08175 43.5485C34.4365 42.54675 34.70225 41.727 34.67225 41.727C34.64225 41.727 34.4085 42.09975 34.15275 42.555ZM43.026 43.495C43.23925 43.66 47.16775 45.083 47.85075 45.24275C48.30575 45.34925 49.24475 45.438 49.937 45.43975C51.62775 45.444 52.168 45.5775 52.9985 46.1965C54.24625 47.12625 54.567 47.241 57.976 47.97375C58.30025 48.04325 59.18575 48.39775 59.9435 48.761C60.97925 49.2575 61.56525 49.45 62.302 49.5365C62.84125 49.6 63.529 49.7465 63.83025 49.8625C64.498 50.1195 65.3235 50.146 65.2355 49.90775C65.20175 49.81675 65.014 49.7015 64.818 49.6515C64.62175 49.60175 64.10575 49.4675 63.67075 49.35325C63.23575 49.23925 62.6175 49.146 62.29675 49.146C61.8875 49.146 61.22125 48.92825 60.06575 48.41725C58.95875 47.92775 57.838 47.55625 56.6495 47.28525C54.717 46.84475 54.14275 46.619 52.991 45.8465C52.571 45.56475 52.092 45.29775 51.9265 45.25275C51.761 45.20775 50.733 45.1155 49.64175 45.0475C47.6375 44.92225 46.84825 44.73725 44.6365 43.8735C44.0535 43.64575 42.857 43.36475 43.026 43.495ZM35.278 50.20375C35.144 50.437 35.0555 50.63925 35.08175 50.65325C35.108 50.667 35.243 50.75625 35.382 50.85175C35.59775 51 35.72 50.9705 36.22475 50.64875C36.90625 50.21425 37.08625 49.941 36.691 49.941C36.5415 49.941 36.2175 49.90475 35.97075 49.86025C35.57525 49.78925 35.493 49.83 35.278 50.20375ZM37.6085 50.24375C36.9175 50.5895 35.37575 52.0545 35.2005 52.53175C34.9885 53.10875 35.0765 54.21475 35.35875 54.52025C35.53275 54.70875 35.5925 54.5945 35.82375 53.6305C35.96975 53.022 36.05675 52.4475 36.01725 52.35375C35.9775 52.26 36.04575 52.14825 36.169 52.106C36.29175 52.0635 36.60225 51.75275 36.8585 51.4155C37.115 51.078 37.5175 50.638 37.7535 50.43775C38.20525 50.05375 38.14625 49.9745 37.6085 50.24375ZM38.041 50.52525C37.73675 50.774 37.322 51.25525 37.11925 51.595L36.75075 52.213L37.3405 52.6325C37.66475 52.86325 38.4325 53.47 39.0465 53.9805C40.78025 55.42225 42.70775 56.9695 43.6725 57.694C44.15575 58.05675 44.95175 58.6895 45.44125 59.1C45.931 59.51025 46.586 60.047 46.8965 60.29225C47.2075 60.5375 47.89425 61.096 48.42275 61.53325C48.95125 61.9705 49.54275 62.4045 49.737 62.498C49.93125 62.59125 50.09025 62.7535 50.09025 62.85825C50.09025 62.96775 50.17875 63.018 50.29875 62.9765C50.41475 62.9365 50.76525 63.11425 51.08775 63.376L51.66825 63.84725L52.3165 63.45975C53.23125 62.91275 60.99775 56.745 60.99775 56.56575C60.99775 56.394 60.1695 56.069 58.04975 55.409C55.391 54.581 54.21625 54.26975 54.10975 54.3655C54.06775 54.40325 54.2905 54.5395 54.6045 54.66825C55.25825 54.9365 56.37975 55.77025 56.08675 55.77025C55.9795 55.77025 55.67 55.59225 55.39925 55.37475C55.12825 55.1575 54.768 54.94225 54.59875 54.89675C54.4295 54.85125 54.05725 54.61275 53.7715 54.367C53.346 54.001 52.95825 53.8505 51.63425 53.538C49.66925 53.07425 47.51425 52.48675 45.75775 51.93575C45.0365 51.70975 44.41925 51.5495 44.3855 51.57975C44.26325 51.6895 46.75325 53.5525 47.34525 53.794C47.6795 53.9305 47.8535 54.04075 47.732 54.039C47.192 54.0315 46.26975 53.44675 44.664 52.09375C44.383 51.857 44.08375 51.66325 43.99925 51.66325C43.9145 51.66325 43.5755 51.5515 43.246 51.41525C42.9165 51.27875 42.116 51.06875 41.4675 50.94875C40.819 50.8285 39.96725 50.5825 39.57475 50.40175C39.182 50.22125 38.80075 50.0735 38.7275 50.0735C38.65425 50.0735 38.34525 50.27675 38.041 50.52525ZM32.10775 53.6505C32.10775 53.72325 32.17425 53.783 32.25525 53.783C32.33625 53.783 32.4025 53.72325 32.4025 53.6505C32.4025 53.5775 32.33625 53.518 32.25525 53.518C32.17425 53.518 32.10775 53.5775 32.10775 53.6505ZM48.41325 54.301C48.666 54.43975 49.065 54.80975 49.29925 55.1235C49.631 55.56725 50.0015 55.82 50.97075 56.263C51.65575 56.57575 52.4675 56.98125 52.7745 57.164C53.08175 57.34675 53.333 57.437 53.333 57.3645C53.333 57.2165 52.2445 56.626 50.867 56.02625C50.2 55.736 49.826 55.4665 49.501 55.042C49.01675 54.4095 48.535 54.04775 48.178 54.0485C48.05425 54.04875 48.16 54.1625 48.41325 54.301ZM30.93875 56.4545C30.3945 58.087 30.6035 59.53575 31.6045 61.07075C32.069 61.78325 32.377 62.08125 34.14475 63.52825C34.913 64.15725 34.92675 64.16225 34.82425 63.779C34.5685 62.82375 34.0805 61.8955 33.3405 60.95625C32.009 59.2665 31.37625 57.844 31.3725 56.532C31.3705 55.7555 31.183 55.722 30.93875 56.4545ZM38.00375 57.794C38.00375 57.84275 38.16275 58.20575 38.35725 58.60075C38.98925 59.8855 39.22775 60.81875 39.242 62.06325C39.25725 63.41125 39.0835 64.5565 38.88075 64.44375C38.80275 64.4005 38.78275 64.53725 38.8335 64.766C38.88225 64.9845 38.84775 65.3545 38.75725 65.588C38.62575 65.92725 38.64275 66.15525 38.842 66.7235C38.979 67.11425 39.1615 67.413 39.2475 67.3875C39.48875 67.31575 40.18525 65.57475 40.355 64.619C40.606 63.20825 40.16825 60.745 39.411 59.3065C39.0985 58.7125 38.00375 57.536 38.00375 57.794ZM35.27075 68.10875C35.21575 68.264 34.53575 68.94825 33.7595 69.62925L32.34825 70.86725L32.284 71.66525C32.2455 72.1445 32.27825 72.463 32.36625 72.463C32.71425 72.463 33.91575 71.7355 34.39 71.2375C34.99775 70.59925 35.492 69.495 35.6055 68.52175C35.6885 67.81025 35.47075 67.54175 35.27075 68.10875Z" fill="#E7E0CB"></path></svg> 