<?xml version="1.0" encoding="UTF-8"?> <svg xmlns="http://www.w3.org/2000/svg" width="63" height="7" viewBox="0 0 63 7" fill="none"><path d="M3.95999 6.54003C4.01599 6.54003 4.07999 6.51603 4.15199 6.46803C4.22399 6.42003 4.25999 6.35203 4.25999 6.26403C4.25999 6.24803 4.25199 6.21603 4.23599 6.16803C4.22799 6.11203 4.20799 6.05203 4.17599 5.98803L2.65199 2.38803L1.06799 6.16803C0.931992 6.49603 0.663992 6.66003 0.263992 6.66003H-7.92742e-06V6.54003C0.111992 6.54003 0.231992 6.48403 0.359992 6.37203C0.495992 6.25203 0.603992 6.11203 0.683992 5.95203L2.31599 2.13603C2.35599 2.03203 2.37599 1.94803 2.37599 1.88403C2.37599 1.78803 2.31199 1.74003 2.18399 1.74003V1.62003H3.15599L5.00399 5.94003C5.05999 6.06003 5.13999 6.19203 5.24399 6.33603C5.35599 6.47203 5.45999 6.54003 5.55599 6.54003V6.66003H3.95999V6.54003ZM11.45 5.88003C11.45 5.94403 11.458 6.01603 11.474 6.09603C11.498 6.16803 11.526 6.23603 11.558 6.30003C11.59 6.36403 11.63 6.42003 11.678 6.46803C11.734 6.51603 11.786 6.54003 11.834 6.54003V6.66003H10.298V6.54003C10.354 6.54003 10.406 6.52003 10.454 6.48003C10.502 6.43203 10.542 6.37603 10.574 6.31203C10.606 6.24003 10.63 6.16803 10.646 6.09603C10.662 6.01603 10.67 5.94403 10.67 5.88003V3.00003L7.81396 5.79603V5.88003C7.81396 5.94403 7.82196 6.01603 7.83796 6.09603C7.85396 6.16803 7.87796 6.23603 7.90996 6.30003C7.94196 6.36403 7.97796 6.42003 8.01796 6.46803C8.06596 6.51603 8.11796 6.54003 8.17396 6.54003V6.66003H6.64996V6.54003C6.70596 6.54003 6.75796 6.52003 6.80596 6.48003C6.85396 6.43203 6.89396 6.37603 6.92596 6.31203C6.95796 6.24003 6.98196 6.16803 6.99796 6.09603C7.01396 6.01603 7.02196 5.94403 7.02196 5.88003V2.36403C7.02196 2.30803 7.01396 2.24403 6.99796 2.17203C6.98196 2.10003 6.95796 2.03203 6.92596 1.96803C6.89396 1.90403 6.85396 1.85203 6.80596 1.81203C6.75796 1.76403 6.70596 1.74003 6.64996 1.74003V1.62003H8.17396V1.74003C8.10996 1.74003 8.05396 1.76403 8.00596 1.81203C7.96596 1.85203 7.92996 1.90403 7.89796 1.96803C7.87396 2.03203 7.85396 2.10003 7.83796 2.17203C7.82196 2.24403 7.81396 2.30803 7.81396 2.36403V5.23203L10.67 2.43603V2.36403C10.67 2.30803 10.662 2.24403 10.646 2.17203C10.63 2.10003 10.606 2.03203 10.574 1.96803C10.542 1.90403 10.502 1.85203 10.454 1.81203C10.406 1.76403 10.354 1.74003 10.298 1.74003V1.62003H11.834V1.74003C11.77 1.74003 11.71 1.76403 11.654 1.81203C11.606 1.85203 11.566 1.90403 11.534 1.96803C11.51 2.03203 11.49 2.10003 11.474 2.17203C11.458 2.24403 11.45 2.30803 11.45 2.36403V5.88003ZM17.7775 6.22803C17.7135 6.22803 17.6535 6.24403 17.5975 6.27603C17.5415 6.30003 17.4775 6.33203 17.4055 6.37203C17.2695 6.45203 17.0895 6.53603 16.8655 6.62403C16.6415 6.70403 16.3615 6.74403 16.0255 6.74403C15.6175 6.74403 15.2415 6.68003 14.8975 6.55203C14.5615 6.41603 14.2695 6.23203 14.0215 6.00003C13.7735 5.76003 13.5815 5.48403 13.4455 5.17203C13.3095 4.85203 13.2415 4.50803 13.2415 4.14003C13.2415 3.79603 13.3015 3.46803 13.4215 3.15603C13.5495 2.84403 13.7295 2.56803 13.9615 2.32803C14.1935 2.08803 14.4775 1.89603 14.8135 1.75203C15.1575 1.60803 15.5455 1.53603 15.9775 1.53603C16.2735 1.53603 16.5135 1.57203 16.6975 1.64403C16.8815 1.70803 17.0375 1.77203 17.1655 1.83603C17.2375 1.87603 17.3055 1.90803 17.3695 1.93203C17.4415 1.95603 17.5135 1.96803 17.5855 1.96803V2.88003H17.4655C17.4255 2.72803 17.3535 2.59603 17.2495 2.48403C17.1455 2.36403 17.0255 2.26403 16.8895 2.18403C16.7535 2.10403 16.6055 2.04403 16.4455 2.00403C16.2855 1.96403 16.1295 1.94403 15.9775 1.94403C15.6495 1.94403 15.3615 2.00403 15.1135 2.12403C14.8655 2.23603 14.6615 2.38803 14.5015 2.58003C14.3415 2.76403 14.2215 2.97603 14.1415 3.21603C14.0615 3.45603 14.0215 3.70403 14.0215 3.96003C14.0215 4.25603 14.0655 4.54803 14.1535 4.83603C14.2495 5.11603 14.3815 5.36803 14.5495 5.59203C14.7255 5.81603 14.9375 5.99603 15.1855 6.13203C15.4415 6.26803 15.7295 6.33603 16.0495 6.33603C16.2735 6.33603 16.4815 6.30403 16.6735 6.24003C16.8655 6.17603 17.0295 6.09203 17.1655 5.98803C17.3095 5.88403 17.4215 5.77203 17.5015 5.65203C17.5895 5.52403 17.6415 5.40403 17.6575 5.29203H17.7775V6.22803ZM22.9921 2.88003C22.9921 2.79203 22.9761 2.69603 22.9441 2.59203C22.9121 2.48803 22.8641 2.39603 22.8001 2.31603C22.7361 2.22803 22.6561 2.15603 22.5601 2.10003C22.4641 2.04403 22.3521 2.01603 22.2241 2.01603H21.1681V5.88003C21.1681 5.94403 21.1761 6.01203 21.1921 6.08403C21.2081 6.15603 21.2321 6.22803 21.2641 6.30003C21.3041 6.36403 21.3441 6.42003 21.3841 6.46803C21.4321 6.51603 21.4881 6.54003 21.5521 6.54003V6.66003H19.9921V6.54003C20.0561 6.54003 20.1121 6.51603 20.1601 6.46803C20.2081 6.42003 20.2481 6.36403 20.2801 6.30003C20.3201 6.23603 20.3481 6.16803 20.3641 6.09603C20.3801 6.01603 20.3881 5.94403 20.3881 5.88003V2.01603H19.3561C19.2281 2.01603 19.1161 2.04403 19.0201 2.10003C18.9241 2.15603 18.8441 2.22803 18.7801 2.31603C18.7241 2.39603 18.6801 2.48803 18.6481 2.59203C18.6161 2.69603 18.6001 2.79203 18.6001 2.88003H18.4801V1.62003H23.1001V2.88003H22.9921ZM27.3157 6.66003V6.04803L27.2557 6.10803C27.0557 6.30803 26.8237 6.46403 26.5597 6.57603C26.3037 6.68803 25.9917 6.74403 25.6237 6.74403C25.3437 6.74403 25.1037 6.71203 24.9037 6.64803C24.7037 6.58403 24.5397 6.49603 24.4117 6.38403C24.2837 6.26403 24.1877 6.12803 24.1237 5.97603C24.0677 5.82403 24.0397 5.66403 24.0397 5.49603C24.0397 5.22403 24.1117 4.98403 24.2557 4.77603C24.4077 4.56803 24.6237 4.38403 24.9037 4.22403C25.1837 4.06403 25.5237 3.92003 25.9237 3.79203C26.3317 3.65603 26.7957 3.52403 27.3157 3.39603C27.2997 3.08403 27.2357 2.83203 27.1237 2.64003C27.0117 2.44803 26.8797 2.30003 26.7277 2.19603C26.5757 2.08403 26.4157 2.01203 26.2477 1.98003C26.0797 1.94003 25.9357 1.92003 25.8157 1.92003C25.6077 1.92003 25.4237 1.95203 25.2637 2.01603C25.1037 2.07203 24.9637 2.15203 24.8437 2.25603C24.7237 2.35203 24.6237 2.46403 24.5437 2.59203C24.4717 2.72003 24.4157 2.84803 24.3757 2.97603H24.2677V2.04003C24.3397 2.04003 24.4237 2.01603 24.5197 1.96803C24.6157 1.91203 24.7277 1.85203 24.8557 1.78803C24.9917 1.72403 25.1517 1.66803 25.3357 1.62003C25.5277 1.56403 25.7557 1.53603 26.0197 1.53603C26.4597 1.53603 26.8157 1.59203 27.0877 1.70403C27.3597 1.81603 27.5677 1.96403 27.7117 2.14803C27.8637 2.33203 27.9637 2.54403 28.0117 2.78403C28.0597 3.01603 28.0837 3.25603 28.0837 3.50403V5.88003C28.0837 6.04003 28.1237 6.19203 28.2037 6.33603C28.2837 6.47203 28.3917 6.54003 28.5277 6.54003V6.66003H27.3157ZM27.3157 5.52003V3.80403L27.1957 3.82803C27.0037 3.87603 26.7677 3.94003 26.4877 4.02003C26.2157 4.10003 25.9557 4.20403 25.7077 4.33203C25.4597 4.46003 25.2477 4.61203 25.0717 4.78803C24.8957 4.96403 24.8077 5.16803 24.8077 5.40003C24.8077 5.65603 24.9117 5.86803 25.1197 6.03603C25.3277 6.20403 25.5997 6.28803 25.9357 6.28803C26.1997 6.28803 26.4317 6.23203 26.6317 6.12003C26.8317 6.00003 27.0157 5.84803 27.1837 5.66403L27.3157 5.52003ZM34.804 5.88003C34.804 5.94403 34.812 6.01603 34.828 6.09603C34.852 6.16803 34.88 6.23603 34.912 6.30003C34.944 6.36403 34.984 6.42003 35.032 6.46803C35.088 6.51603 35.14 6.54003 35.188 6.54003V6.66003H33.652V6.54003C33.708 6.54003 33.76 6.52003 33.808 6.48003C33.856 6.43203 33.896 6.37603 33.928 6.31203C33.96 6.24003 33.984 6.16803 34 6.09603C34.016 6.01603 34.024 5.94403 34.024 5.88003V3.00003L31.168 5.79603V5.88003C31.168 5.94403 31.176 6.01603 31.192 6.09603C31.208 6.16803 31.232 6.23603 31.264 6.30003C31.296 6.36403 31.332 6.42003 31.372 6.46803C31.42 6.51603 31.472 6.54003 31.528 6.54003V6.66003H30.004V6.54003C30.06 6.54003 30.112 6.52003 30.16 6.48003C30.208 6.43203 30.248 6.37603 30.28 6.31203C30.312 6.24003 30.336 6.16803 30.352 6.09603C30.368 6.01603 30.376 5.94403 30.376 5.88003V2.36403C30.376 2.30803 30.368 2.24403 30.352 2.17203C30.336 2.10003 30.312 2.03203 30.28 1.96803C30.248 1.90403 30.208 1.85203 30.16 1.81203C30.112 1.76403 30.06 1.74003 30.004 1.74003V1.62003H31.528V1.74003C31.464 1.74003 31.408 1.76403 31.36 1.81203C31.32 1.85203 31.284 1.90403 31.252 1.96803C31.228 2.03203 31.208 2.10003 31.192 2.17203C31.176 2.24403 31.168 2.30803 31.168 2.36403V5.23203L34.024 2.43603V2.36403C34.024 2.30803 34.016 2.24403 34 2.17203C33.984 2.10003 33.96 2.03203 33.928 1.96803C33.896 1.90403 33.856 1.85203 33.808 1.81203C33.76 1.76403 33.708 1.74003 33.652 1.74003V1.62003H35.188V1.74003C35.124 1.74003 35.064 1.76403 35.008 1.81203C34.96 1.85203 34.92 1.90403 34.888 1.96803C34.864 2.03203 34.844 2.10003 34.828 2.17203C34.812 2.24403 34.804 2.30803 34.804 2.36403V5.88003ZM33.88 3.40939e-05C33.88 0.128034 33.848 0.268034 33.784 0.420034C33.72 0.564034 33.628 0.700034 33.508 0.828034C33.388 0.948034 33.244 1.04803 33.076 1.12803C32.916 1.20803 32.736 1.24803 32.536 1.24803C32.352 1.24803 32.176 1.21203 32.008 1.14003C31.848 1.06003 31.708 0.960034 31.588 0.840034C31.468 0.720034 31.372 0.588034 31.3 0.444034C31.228 0.292034 31.192 0.144034 31.192 3.40939e-05H31.264C31.272 0.048034 31.296 0.116034 31.336 0.204034C31.384 0.284034 31.456 0.368034 31.552 0.456034C31.648 0.544034 31.772 0.620034 31.924 0.684034C32.084 0.748034 32.284 0.780034 32.524 0.780034C32.772 0.780034 32.976 0.748034 33.136 0.684034C33.296 0.620034 33.424 0.544034 33.52 0.456034C33.616 0.368034 33.684 0.284034 33.724 0.204034C33.764 0.116034 33.792 0.048034 33.808 3.40939e-05H33.88ZM44.2488 2.82003C44.2488 2.95603 44.2208 3.08403 44.1648 3.20403C44.1088 3.32403 44.0368 3.43603 43.9488 3.54003C43.8688 3.63603 43.7728 3.72403 43.6608 3.80403C43.5488 3.87603 43.4408 3.93203 43.3368 3.97203C43.4728 3.99603 43.6128 4.04003 43.7568 4.10403C43.9088 4.16803 44.0448 4.25203 44.1648 4.35603C44.2928 4.46003 44.3968 4.59203 44.4768 4.75203C44.5568 4.90403 44.5968 5.08803 44.5968 5.30403C44.5968 5.41603 44.5688 5.55203 44.5128 5.71203C44.4648 5.86403 44.3728 6.01203 44.2368 6.15603C44.1088 6.29203 43.9288 6.41203 43.6968 6.51603C43.4728 6.61203 43.1808 6.66003 42.8208 6.66003H40.1808V6.54003C40.2448 6.54003 40.3008 6.51603 40.3488 6.46803C40.3968 6.42003 40.4368 6.36403 40.4688 6.30003C40.5088 6.23603 40.5368 6.16803 40.5528 6.09603C40.5688 6.01603 40.5768 5.94403 40.5768 5.88003V2.37603C40.5768 2.24803 40.5408 2.11203 40.4688 1.96803C40.4048 1.81603 40.3088 1.74003 40.1808 1.74003V1.62003H42.6288C42.9168 1.62003 43.1608 1.66003 43.3608 1.74003C43.5688 1.81203 43.7368 1.90803 43.8648 2.02803C44.0008 2.14003 44.0968 2.26803 44.1528 2.41203C44.2168 2.54803 44.2488 2.68403 44.2488 2.82003ZM41.3568 3.81603H42.2808C42.5128 3.81603 42.7048 3.79203 42.8568 3.74403C43.0168 3.68803 43.1448 3.61603 43.2408 3.52803C43.3368 3.44003 43.4048 3.34003 43.4448 3.22803C43.4928 3.11603 43.5168 3.00003 43.5168 2.88003C43.5168 2.78403 43.4888 2.68403 43.4328 2.58003C43.3768 2.47603 43.2928 2.38403 43.1808 2.30403C43.0768 2.21603 42.9488 2.14403 42.7968 2.08803C42.6448 2.03203 42.4728 2.00403 42.2808 2.00403H41.3568V3.81603ZM42.5328 6.27603C42.6288 6.27603 42.7488 6.26803 42.8928 6.25203C43.0448 6.22803 43.1888 6.18403 43.3248 6.12003C43.4688 6.04803 43.5888 5.94803 43.6848 5.82003C43.7888 5.68403 43.8408 5.50803 43.8408 5.29203C43.8408 5.06003 43.7728 4.87203 43.6368 4.72803C43.5008 4.58403 43.3408 4.47603 43.1568 4.40403C42.9808 4.32403 42.7968 4.27203 42.6048 4.24803C42.4128 4.22403 42.2648 4.21203 42.1608 4.21203H41.3568V6.27603H42.5328ZM47.1777 5.88003C47.1777 5.94403 47.1857 6.01603 47.2017 6.09603C47.2177 6.16803 47.2417 6.23603 47.2737 6.30003C47.3057 6.36403 47.3417 6.42003 47.3817 6.46803C47.4297 6.51603 47.4817 6.54003 47.5377 6.54003V6.66003H46.0257V6.54003C46.0817 6.54003 46.1297 6.52003 46.1697 6.48003C46.2177 6.43203 46.2577 6.37603 46.2897 6.31203C46.3217 6.24003 46.3457 6.16803 46.3617 6.09603C46.3777 6.01603 46.3857 5.94403 46.3857 5.88003V2.36403C46.3857 2.30803 46.3777 2.24403 46.3617 2.17203C46.3457 2.10003 46.3217 2.03203 46.2897 1.96803C46.2577 1.90403 46.2177 1.85203 46.1697 1.81203C46.1297 1.76403 46.0817 1.74003 46.0257 1.74003V1.62003H47.5377V1.74003C47.4737 1.74003 47.4177 1.76403 47.3697 1.81203C47.3297 1.85203 47.2937 1.90403 47.2617 1.96803C47.2377 2.03203 47.2177 2.10003 47.2017 2.17203C47.1857 2.24403 47.1777 2.30803 47.1777 2.36403V3.81603H49.9137V2.36403C49.9137 2.30803 49.9057 2.24403 49.8897 2.17203C49.8737 2.10003 49.8497 2.03203 49.8177 1.96803C49.7937 1.90403 49.7577 1.85203 49.7097 1.81203C49.6697 1.76403 49.6177 1.74003 49.5537 1.74003V1.62003H51.0657V1.74003C51.0017 1.74003 50.9457 1.76403 50.8977 1.81203C50.8577 1.85203 50.8217 1.90403 50.7897 1.96803C50.7577 2.03203 50.7337 2.10003 50.7177 2.17203C50.7097 2.24403 50.7057 2.30803 50.7057 2.36403V5.88003C50.7057 5.94403 50.7137 6.01603 50.7297 6.09603C50.7457 6.16803 50.7697 6.23603 50.8017 6.30003C50.8337 6.36403 50.8697 6.42003 50.9097 6.46803C50.9577 6.51603 51.0097 6.54003 51.0657 6.54003V6.66003H49.5537V6.54003C49.6097 6.54003 49.6577 6.52003 49.6977 6.48003C49.7457 6.43203 49.7857 6.37603 49.8177 6.31203C49.8497 6.24003 49.8737 6.16803 49.8897 6.09603C49.9057 6.01603 49.9137 5.94403 49.9137 5.88003V4.21203H47.1777V5.88003ZM57.3964 5.88003C57.3964 5.94403 57.4044 6.01603 57.4204 6.09603C57.4444 6.16803 57.4724 6.23603 57.5044 6.30003C57.5364 6.36403 57.5764 6.42003 57.6244 6.46803C57.6804 6.51603 57.7324 6.54003 57.7804 6.54003V6.66003H56.2444V6.54003C56.3004 6.54003 56.3524 6.52003 56.4004 6.48003C56.4484 6.43203 56.4884 6.37603 56.5204 6.31203C56.5524 6.24003 56.5764 6.16803 56.5924 6.09603C56.6084 6.01603 56.6164 5.94403 56.6164 5.88003V3.00003L53.7604 5.79603V5.88003C53.7604 5.94403 53.7684 6.01603 53.7844 6.09603C53.8004 6.16803 53.8244 6.23603 53.8564 6.30003C53.8884 6.36403 53.9244 6.42003 53.9644 6.46803C54.0124 6.51603 54.0644 6.54003 54.1204 6.54003V6.66003H52.5964V6.54003C52.6524 6.54003 52.7044 6.52003 52.7524 6.48003C52.8004 6.43203 52.8404 6.37603 52.8724 6.31203C52.9044 6.24003 52.9284 6.16803 52.9444 6.09603C52.9604 6.01603 52.9684 5.94403 52.9684 5.88003V2.36403C52.9684 2.30803 52.9604 2.24403 52.9444 2.17203C52.9284 2.10003 52.9044 2.03203 52.8724 1.96803C52.8404 1.90403 52.8004 1.85203 52.7524 1.81203C52.7044 1.76403 52.6524 1.74003 52.5964 1.74003V1.62003H54.1204V1.74003C54.0564 1.74003 54.0004 1.76403 53.9524 1.81203C53.9124 1.85203 53.8764 1.90403 53.8444 1.96803C53.8204 2.03203 53.8004 2.10003 53.7844 2.17203C53.7684 2.24403 53.7604 2.30803 53.7604 2.36403V5.23203L56.6164 2.43603V2.36403C56.6164 2.30803 56.6084 2.24403 56.5924 2.17203C56.5764 2.10003 56.5524 2.03203 56.5204 1.96803C56.4884 1.90403 56.4484 1.85203 56.4004 1.81203C56.3524 1.76403 56.3004 1.74003 56.2444 1.74003V1.62003H57.7804V1.74003C57.7164 1.74003 57.6564 1.76403 57.6004 1.81203C57.5524 1.85203 57.5124 1.90403 57.4804 1.96803C57.4564 2.03203 57.4364 2.10003 57.4204 2.17203C57.4044 2.24403 57.3964 2.30803 57.3964 2.36403V5.88003ZM62.5719 2.79603C62.5719 2.98803 62.4879 3.19603 62.3199 3.42003C62.1519 3.63603 61.9239 3.80803 61.6359 3.93603C62.0839 4.03203 62.4039 4.20003 62.5959 4.44003C62.7959 4.67203 62.8959 4.92003 62.8959 5.18403C62.8959 5.43203 62.8359 5.65203 62.7159 5.84403C62.5959 6.03603 62.4319 6.19603 62.2239 6.32403C62.0239 6.45203 61.7919 6.54803 61.5279 6.61203C61.2719 6.67603 61.0039 6.70803 60.7239 6.70803C60.4599 6.70803 60.2239 6.68403 60.0159 6.63603C59.8079 6.58003 59.6279 6.52403 59.4759 6.46803C59.3239 6.40403 59.1959 6.34803 59.0919 6.30003C58.9959 6.24403 58.9199 6.21603 58.8639 6.21603V5.24403H58.9719C58.9879 5.41203 59.0439 5.56403 59.1399 5.70003C59.2359 5.82803 59.3559 5.94003 59.4999 6.03603C59.6519 6.12403 59.8199 6.19203 60.0039 6.24003C60.1959 6.28803 60.3919 6.31203 60.5919 6.31203C60.7759 6.31203 60.9559 6.29203 61.1319 6.25203C61.3159 6.21203 61.4759 6.15203 61.6119 6.07203C61.7559 5.98403 61.8719 5.87603 61.9599 5.74803C62.0479 5.62003 62.0919 5.47203 62.0919 5.30403C62.0919 5.12803 62.0439 4.97203 61.9479 4.83603C61.8519 4.69203 61.7239 4.57203 61.5639 4.47603C61.4119 4.38003 61.2399 4.30803 61.0479 4.26003C60.8639 4.21203 60.6799 4.18803 60.4959 4.18803H60.1119V3.80403H60.5319C60.6999 3.80403 60.8599 3.77603 61.0119 3.72003C61.1719 3.66403 61.3079 3.59203 61.4199 3.50403C61.5319 3.41603 61.6199 3.31603 61.6839 3.20403C61.7559 3.08403 61.7919 2.96403 61.7919 2.84403C61.7919 2.70003 61.7519 2.57203 61.6719 2.46003C61.5999 2.34803 61.4999 2.25203 61.3719 2.17203C61.2439 2.09203 61.0999 2.03203 60.9399 1.99203C60.7879 1.94403 60.6279 1.92003 60.4599 1.92003C60.3079 1.92003 60.1599 1.94003 60.0159 1.98003C59.8719 2.01203 59.7399 2.06803 59.6199 2.14803C59.5079 2.22803 59.4119 2.32803 59.3319 2.44803C59.2599 2.56803 59.2119 2.71203 59.1879 2.88003H59.0799V1.94403C59.1439 1.94403 59.2039 1.93603 59.2599 1.92003C59.3159 1.89603 59.3799 1.86403 59.4519 1.82403C59.5799 1.76003 59.7359 1.70003 59.9199 1.64403C60.1039 1.58003 60.3359 1.54803 60.6159 1.54803C61.2399 1.54803 61.7199 1.66003 62.0559 1.88403C62.3999 2.10803 62.5719 2.41203 62.5719 2.79603Z" fill="white"></path></svg> 