<?xml version="1.0" encoding="UTF-8"?> <svg xmlns="http://www.w3.org/2000/svg" width="105" height="13" viewBox="0 0 105 13" fill="none"><path d="M9.40263e-05 11.9159H0.090094C0.186094 11.9159 0.270094 11.8859 0.342094 11.8259C0.414094 11.7539 0.474094 11.6699 0.522094 11.5739C0.570094 11.4659 0.606094 11.3579 0.630094 11.2499C0.654094 11.1299 0.666094 11.0219 0.666094 10.9259V1.33195C0.666094 1.24795 0.648094 1.15195 0.612094 1.04395C0.588094 0.935947 0.552094 0.833947 0.504094 0.737947C0.456094 0.641946 0.396094 0.563946 0.324094 0.503946C0.252094 0.431947 0.174094 0.395947 0.090094 0.395947H9.40263e-05V0.215947H9.21609V0.395947H9.07209C8.98809 0.395947 8.91609 0.431947 8.85609 0.503946C8.79609 0.563946 8.74209 0.647946 8.69409 0.755946C8.65809 0.851946 8.62809 0.953947 8.60409 1.06195C8.58009 1.16995 8.56809 1.25995 8.56809 1.33195V10.9259C8.56809 11.0219 8.57409 11.1239 8.58609 11.2319C8.61009 11.3399 8.64009 11.4479 8.67609 11.5559C8.72409 11.6519 8.77809 11.7359 8.83809 11.8079C8.91009 11.8799 8.98809 11.9159 9.07209 11.9159H9.21609V12.0959H6.69609V11.9159H6.85809C6.94209 11.9159 7.01409 11.8799 7.07409 11.8079C7.14609 11.7359 7.20009 11.6519 7.23609 11.5559C7.28409 11.4599 7.31409 11.3579 7.32609 11.2499C7.35009 11.1299 7.36209 11.0219 7.36209 10.9259V0.845947H1.87209V10.9259C1.87209 11.0219 1.88409 11.1299 1.90809 11.2499C1.93209 11.3579 1.96209 11.4599 1.99809 11.5559C2.04609 11.6519 2.10609 11.7359 2.17809 11.8079C2.25009 11.8799 2.33409 11.9159 2.43009 11.9159H2.52009V12.0959H9.40263e-05V11.9159ZM17.5397 0.035947C18.4757 0.035947 19.3157 0.203947 20.0597 0.539947C20.8037 0.863947 21.4337 1.30795 21.9497 1.87195C22.4777 2.42395 22.8797 3.07195 23.1557 3.81595C23.4437 4.54795 23.5877 5.31595 23.5877 6.11995C23.5877 7.01995 23.4197 7.84795 23.0837 8.60395C22.7597 9.35995 22.3097 10.0079 21.7337 10.5479C21.1577 11.0879 20.4857 11.5139 19.7177 11.8259C18.9617 12.1259 18.1517 12.2759 17.2877 12.2759C16.3637 12.2759 15.5297 12.1079 14.7857 11.7719C14.0537 11.4359 13.4297 10.9919 12.9137 10.4399C12.4097 9.88795 12.0197 9.25195 11.7437 8.53195C11.4677 7.81195 11.3297 7.06195 11.3297 6.28195C11.3297 5.51395 11.4677 4.75795 11.7437 4.01395C12.0197 3.25795 12.4217 2.58595 12.9497 1.99795C13.4897 1.40995 14.1437 0.935947 14.9117 0.575946C15.6797 0.215947 16.5557 0.035947 17.5397 0.035947ZM17.5217 11.6459C18.3257 11.6099 19.0277 11.4299 19.6277 11.1059C20.2397 10.7699 20.7497 10.3499 21.1577 9.84595C21.5657 9.32995 21.8657 8.76595 22.0577 8.15395C22.2617 7.54195 22.3637 6.93595 22.3637 6.33595C22.3637 5.67595 22.2437 5.00995 22.0037 4.33795C21.7637 3.66595 21.4217 3.05995 20.9777 2.51995C20.5337 1.96795 19.9997 1.52395 19.3757 1.18795C18.7637 0.839947 18.0737 0.665946 17.3057 0.665946C16.5617 0.665946 15.8957 0.833946 15.3077 1.16995C14.7197 1.49395 14.2157 1.91395 13.7957 2.42995C13.3877 2.94595 13.0757 3.52195 12.8597 4.15795C12.6437 4.79395 12.5357 5.41795 12.5357 6.02995C12.5357 6.68995 12.6617 7.35595 12.9137 8.02795C13.1657 8.68795 13.5137 9.28795 13.9577 9.82795C14.4017 10.3679 14.9237 10.8059 15.5237 11.1419C16.1357 11.4779 16.8017 11.6459 17.5217 11.6459ZM29.9105 11.9159H30.0005C30.0965 11.9159 30.1805 11.8859 30.2525 11.8259C30.3245 11.7539 30.3845 11.6699 30.4325 11.5739C30.4805 11.4659 30.5165 11.3579 30.5405 11.2499C30.5645 11.1299 30.5765 11.0219 30.5765 10.9259V5.86795C30.0605 5.86795 29.6345 6.01795 29.2985 6.31795C28.9625 6.60595 28.6865 6.96595 28.4705 7.39795L27.0305 10.2959C26.9225 10.5239 26.8025 10.7459 26.6705 10.9619C26.5505 11.1779 26.4065 11.3699 26.2385 11.5379C26.0705 11.7059 25.8725 11.8439 25.6445 11.9519C25.4165 12.0479 25.1345 12.0959 24.7985 12.0959H23.9705V11.9159C24.1985 11.9159 24.4085 11.8499 24.6005 11.7179C24.7925 11.5739 24.9605 11.4059 25.1045 11.2139C25.2605 11.0099 25.3925 10.8059 25.5005 10.6019C25.6205 10.3979 25.7165 10.2239 25.7885 10.0799L27.2105 7.19995C27.4865 6.62395 27.8405 6.17995 28.2725 5.86795C28.7165 5.55595 29.2985 5.39995 30.0185 5.39995L25.9685 1.13395C25.7645 0.917947 25.5605 0.743947 25.3565 0.611947C25.1645 0.479947 24.9605 0.407946 24.7445 0.395947V0.215947H26.7065V0.395947C26.5745 0.431947 26.5085 0.497947 26.5085 0.593946C26.5085 0.629946 26.5325 0.683946 26.5805 0.755946L30.5765 5.03995V1.33195C30.5765 1.24795 30.5645 1.15195 30.5405 1.04395C30.5165 0.935947 30.4805 0.833947 30.4325 0.737947C30.3845 0.641946 30.3245 0.563946 30.2525 0.503946C30.1805 0.431947 30.0965 0.395947 30.0005 0.395947H29.9105V0.215947H32.4485V0.395947H32.3045C32.1365 0.419947 32.0045 0.539947 31.9085 0.755946C31.8125 0.971946 31.7645 1.16395 31.7645 1.33195V5.03995L35.7785 0.755946C35.8265 0.707947 35.8505 0.653947 35.8505 0.593946C35.8505 0.461946 35.7785 0.395947 35.6345 0.395947V0.215947H37.5965V0.395947C37.3925 0.419947 37.1825 0.503947 36.9665 0.647947C36.7505 0.779947 36.5585 0.941947 36.3905 1.13395L32.3405 5.39995C33.0965 5.39995 33.6845 5.55595 34.1045 5.86795C34.5245 6.17995 34.8785 6.62395 35.1665 7.19995L36.5705 10.0799C36.6425 10.2239 36.7325 10.3979 36.8405 10.6019C36.9485 10.8059 37.0805 11.0099 37.2365 11.2139C37.3925 11.4059 37.5665 11.5739 37.7585 11.7179C37.9505 11.8499 38.1605 11.9159 38.3885 11.9159V12.0959H37.5425C37.2185 12.0959 36.9425 12.0479 36.7145 11.9519C36.4865 11.8439 36.2885 11.7119 36.1205 11.5559C35.9525 11.3879 35.8085 11.1959 35.6885 10.9799C35.5685 10.7639 35.4485 10.5359 35.3285 10.2959L33.8885 7.39795C33.6725 6.97795 33.3965 6.61795 33.0605 6.31795C32.7365 6.01795 32.3045 5.86795 31.7645 5.86795V10.9259C31.7645 11.0219 31.7765 11.1239 31.8005 11.2319C31.8245 11.3399 31.8605 11.4479 31.9085 11.5559C31.9565 11.6519 32.0105 11.7359 32.0705 11.8079C32.1425 11.8799 32.2265 11.9159 32.3225 11.9159H32.4485V12.0959H29.9105V11.9159ZM40.0634 11.9159H40.1534C40.2494 11.9159 40.3334 11.8859 40.4054 11.8259C40.4774 11.7539 40.5374 11.6699 40.5854 11.5739C40.6454 11.4779 40.6874 11.3759 40.7114 11.2679C40.7474 11.1599 40.7654 11.0579 40.7654 10.9619V1.33195C40.7654 1.24795 40.7474 1.15195 40.7114 1.04395C40.6874 0.935947 40.6454 0.833947 40.5854 0.737947C40.5374 0.641946 40.4774 0.563946 40.4054 0.503946C40.3334 0.431947 40.2494 0.395947 40.1534 0.395947H40.0634V0.215947H46.9934V1.88995H46.8134C46.7894 1.61395 46.6814 1.37395 46.4894 1.16995C46.2974 0.953947 45.9974 0.845947 45.5894 0.845947H41.9714V5.39995H44.9594C45.2354 5.39995 45.4634 5.31595 45.6434 5.14795C45.8354 4.97995 45.9314 4.78195 45.9314 4.55395H46.1114V6.80395H45.9314C45.9314 6.58795 45.8414 6.40195 45.6614 6.24595C45.4814 6.08995 45.2474 6.01195 44.9594 6.01195H41.9714V11.4659H45.9134C46.1414 11.4659 46.3394 11.4119 46.5074 11.3039C46.6754 11.1959 46.8134 11.0699 46.9214 10.9259C47.0414 10.7699 47.1254 10.6079 47.1734 10.4399C47.2334 10.2599 47.2634 10.1099 47.2634 9.98995H47.4434V12.0959H40.0634V11.9159ZM50.8698 10.8359C50.7618 11.1479 50.5938 11.4359 50.3658 11.6999C50.1378 11.9639 49.8018 12.0959 49.3578 12.0959H48.7998V11.9159C48.8718 11.9159 48.9678 11.8979 49.0878 11.8619C49.2078 11.8139 49.3338 11.7419 49.4658 11.6459C49.5978 11.5499 49.7298 11.4299 49.8618 11.2859C49.9938 11.1299 50.1078 10.9379 50.2038 10.7099L53.6058 1.38595C53.6658 1.20595 53.6958 1.06795 53.6958 0.971947C53.6958 0.791947 53.6418 0.653947 53.5338 0.557947C53.4378 0.449947 53.3358 0.395947 53.2278 0.395947V0.215947H54.7038L58.7358 11.2319C58.7958 11.3999 58.9098 11.5559 59.0778 11.6999C59.2458 11.8319 59.4318 11.9039 59.6358 11.9159V12.0959H57.0618V11.9159C57.1578 11.9159 57.2538 11.8799 57.3498 11.8079C57.4578 11.7239 57.5118 11.6159 57.5118 11.4839C57.5118 11.4479 57.4998 11.3939 57.4758 11.3219L54.0918 1.99795L50.8698 10.8359ZM68.3925 11.9159H68.4825C68.7705 11.9159 68.9145 11.7839 68.9145 11.5199C68.9145 11.4239 68.8965 11.3219 68.8605 11.2139L67.2405 6.83995H64.0905L62.5245 11.1419C62.4885 11.2379 62.4705 11.3279 62.4705 11.4119C62.4705 11.5679 62.5125 11.6939 62.5965 11.7899C62.6805 11.8739 62.7705 11.9159 62.8665 11.9159H62.9565V12.0959H60.9585V11.9159H61.0485C61.2045 11.9159 61.3545 11.8259 61.4985 11.6459C61.6545 11.4539 61.7805 11.2319 61.8765 10.9799L65.9985 -5.36442e-05L70.0305 10.8719C70.1145 11.1119 70.2285 11.3459 70.3725 11.5739C70.5285 11.8019 70.7265 11.9159 70.9665 11.9159H71.0565V12.0959H68.3925V11.9159ZM64.2705 6.22795H67.0425L65.6565 2.46595L64.2705 6.22795ZM79.8557 11.9159H79.9457C80.0297 11.9159 80.1077 11.8859 80.1797 11.8259C80.2517 11.7539 80.3117 11.6699 80.3597 11.5739C80.4197 11.4659 80.4617 11.3579 80.4857 11.2499C80.5097 11.1299 80.5217 11.0219 80.5217 10.9259V6.02995H74.7617V10.9259C74.7617 11.0219 74.7737 11.1299 74.7977 11.2499C74.8217 11.3579 74.8577 11.4599 74.9057 11.5559C74.9537 11.6519 75.0077 11.7359 75.0677 11.8079C75.1397 11.8799 75.2237 11.9159 75.3197 11.9159H75.4097V12.0959H72.8897V11.9159H72.9797C73.0637 11.9159 73.1417 11.8859 73.2137 11.8259C73.2857 11.7539 73.3457 11.6699 73.3937 11.5739C73.4537 11.4659 73.4957 11.3579 73.5197 11.2499C73.5437 11.1299 73.5557 11.0219 73.5557 10.9259V1.33195C73.5557 1.24795 73.5437 1.15195 73.5197 1.04395C73.4957 0.935947 73.4597 0.833947 73.4117 0.737947C73.3637 0.641946 73.3037 0.563946 73.2317 0.503946C73.1597 0.431947 73.0757 0.395947 72.9797 0.395947H72.8897V0.215947H75.4097V0.395947H75.3197C75.2237 0.395947 75.1397 0.431947 75.0677 0.503946C74.9957 0.563946 74.9357 0.641946 74.8877 0.737947C74.8517 0.833947 74.8217 0.935947 74.7977 1.04395C74.7737 1.15195 74.7617 1.24795 74.7617 1.33195V5.39995H80.5217V1.33195C80.5217 1.24795 80.5097 1.15195 80.4857 1.04395C80.4617 0.935947 80.4257 0.833947 80.3777 0.737947C80.3297 0.641946 80.2697 0.563946 80.1977 0.503946C80.1257 0.431947 80.0417 0.395947 79.9457 0.395947H79.8557V0.215947H82.3757V0.395947H82.2857C82.1897 0.395947 82.1057 0.431947 82.0337 0.503946C81.9617 0.563946 81.9017 0.641946 81.8537 0.737947C81.8177 0.833947 81.7877 0.935947 81.7637 1.04395C81.7397 1.15195 81.7277 1.24795 81.7277 1.33195V10.9259C81.7277 11.0219 81.7397 11.1299 81.7637 11.2499C81.7997 11.3579 81.8417 11.4599 81.8897 11.5559C81.9377 11.6519 81.9917 11.7359 82.0517 11.8079C82.1237 11.8799 82.2017 11.9159 82.2857 11.9159H82.3757V12.0959H79.8557V11.9159ZM91.575 11.9159H91.665C91.761 11.9159 91.845 11.8859 91.917 11.8259C91.989 11.7539 92.049 11.6699 92.097 11.5739C92.157 11.4659 92.199 11.3579 92.223 11.2499C92.247 11.1299 92.259 11.0219 92.259 10.9259V2.68195L86.283 10.7639V10.9259C86.283 11.0219 86.295 11.1299 86.319 11.2499C86.355 11.3579 86.397 11.4599 86.445 11.5559C86.493 11.6519 86.553 11.7359 86.625 11.8079C86.697 11.8799 86.781 11.9159 86.877 11.9159H86.967V12.0959H84.411V11.9159H84.501C84.597 11.9159 84.681 11.8859 84.753 11.8259C84.825 11.7539 84.885 11.6699 84.933 11.5739C84.993 11.4659 85.035 11.3579 85.059 11.2499C85.083 11.1299 85.095 11.0219 85.095 10.9259V1.33195C85.095 1.24795 85.083 1.15195 85.059 1.04395C85.035 0.935947 84.993 0.833947 84.933 0.737947C84.885 0.641946 84.825 0.563946 84.753 0.503946C84.681 0.431947 84.597 0.395947 84.501 0.395947H84.411V0.215947H86.967V0.395947H86.823C86.739 0.407946 86.661 0.449947 86.589 0.521947C86.529 0.593947 86.475 0.677947 86.427 0.773947C86.379 0.857947 86.343 0.953947 86.319 1.06195C86.295 1.15795 86.283 1.24795 86.283 1.33195V9.64795L92.259 1.56595V1.33195C92.259 1.24795 92.247 1.15195 92.223 1.04395C92.199 0.935947 92.157 0.833947 92.097 0.737947C92.049 0.641946 91.989 0.563946 91.917 0.503946C91.845 0.431947 91.761 0.395947 91.665 0.395947H91.575V0.215947H94.131V0.395947H94.041C93.945 0.395947 93.861 0.431947 93.789 0.503946C93.717 0.563946 93.657 0.641946 93.609 0.737947C93.561 0.833947 93.519 0.935947 93.483 1.04395C93.459 1.15195 93.447 1.24795 93.447 1.33195V10.9259C93.447 11.0219 93.459 11.1239 93.483 11.2319C93.519 11.3399 93.561 11.4479 93.609 11.5559C93.657 11.6519 93.717 11.7359 93.789 11.8079C93.861 11.8799 93.945 11.9159 94.041 11.9159H94.131V12.0959H91.575V11.9159ZM102.191 11.9159H102.281C102.365 11.9159 102.443 11.8799 102.515 11.8079C102.599 11.7359 102.665 11.6519 102.713 11.5559C102.761 11.4599 102.797 11.3579 102.821 11.2499C102.857 11.1299 102.875 11.0219 102.875 10.9259V6.04795C102.611 6.07195 102.359 6.15595 102.119 6.29995C101.891 6.44395 101.669 6.63595 101.453 6.87595C101.249 7.11595 101.051 7.38595 100.859 7.68595C100.679 7.98595 100.505 8.29795 100.337 8.62195C100.205 8.86195 100.061 9.11995 99.9047 9.39595C99.7487 9.65995 99.5927 9.92995 99.4367 10.2059C99.1487 10.7339 98.7707 11.1839 98.3027 11.5559C97.8347 11.9159 97.2947 12.0959 96.6827 12.0959H95.7287V11.9159C96.0047 11.9159 96.2627 11.8559 96.5027 11.7359C96.7547 11.6159 96.9827 11.4659 97.1867 11.2859C97.3907 11.1059 97.5707 10.9079 97.7267 10.6919C97.8947 10.4759 98.0327 10.2719 98.1407 10.0799L99.5627 7.52395C99.7307 7.23595 99.9107 6.95995 100.103 6.69595C100.307 6.41995 100.613 6.19795 101.021 6.02995C100.517 5.99395 100.067 5.89795 99.6707 5.74195C99.2747 5.58595 98.9387 5.38195 98.6627 5.12995C98.3867 4.87795 98.1767 4.59595 98.0327 4.28395C97.8887 3.95995 97.8167 3.62395 97.8167 3.27595C97.8167 2.83195 97.9187 2.42395 98.1227 2.05195C98.3267 1.66795 98.6147 1.34395 98.9867 1.07995C99.3587 0.803946 99.8087 0.593947 100.337 0.449947C100.877 0.293947 101.477 0.215947 102.137 0.215947H104.729V0.395947H104.639C104.555 0.395947 104.477 0.431947 104.405 0.503946C104.333 0.563946 104.273 0.641946 104.225 0.737947C104.177 0.833947 104.141 0.935947 104.117 1.04395C104.093 1.15195 104.081 1.24795 104.081 1.33195V10.9259C104.081 11.0219 104.093 11.1299 104.117 11.2499C104.141 11.3579 104.177 11.4599 104.225 11.5559C104.273 11.6519 104.333 11.7359 104.405 11.8079C104.477 11.8799 104.555 11.9159 104.639 11.9159H104.729V12.0959H102.191V11.9159ZM98.9507 3.00595C98.9507 3.35395 99.0227 3.67795 99.1667 3.97795C99.3107 4.26595 99.5087 4.51795 99.7607 4.73395C100.013 4.94995 100.307 5.11795 100.643 5.23795C100.979 5.35795 101.345 5.41795 101.741 5.41795H102.875V0.827946H102.605C101.441 0.827946 100.541 1.01995 99.9047 1.40395C99.2687 1.78795 98.9507 2.32195 98.9507 3.00595Z" fill="#281814"></path></svg> 