<?xml version="1.0" encoding="UTF-8"?> <svg xmlns="http://www.w3.org/2000/svg" viewBox="0 0 55 43.5250244140625" fill="none"><path fill-rule="evenodd" clip-rule="evenodd" d="M24.559825 0.0360395C20.5424 0.451035 15.6828 2.5528 11.7712 5.566925C10.537225 6.51785 9.551125 7.4058 7.907275 9.046425C5.554175 11.3948 4.11355 13.12005 2.902075 15.040525C2.722825 15.3247 2.549825 15.550125 2.517675 15.541425C2.4855325 15.532725 2.47355 15.5488 2.49112 15.5772C2.508625 15.6056 2.333625 16.001525 2.1021625 16.457125C1.41878 17.802225 1.0575875 18.89895 0.90931 20.07935C0.728195 21.521075 1.1181325 22.9947 1.986085 24.148425C2.705825 25.10525 3.5793 25.61375 5.002475 25.90425C5.732275 26.05325 7.383575 26.10875 8.343625 26.0165C11.085225 25.753 14.145575 24.84265 16.857625 23.484L17.663575 23.08025L17.7019 23.3356C17.897575 24.640575 18.644675 26.79225 19.498 28.50825C19.731475 28.978 19.9225 29.3725 19.9225 29.385C19.9225 29.42475 18.151575 29.973 17.067875 30.269C13.339025 31.28725 10.0637 31.5385 7.65235 30.99175C5.949625 30.6055 4.397725 29.87625 3.245475 28.92075C1.736305 27.66925 0.8181175 26.08275 0.4125125 24.025375C0.27034 23.304325 0.2694175 21.430225 0.4108425 20.655425C0.6810725 19.174875 1.2947525 17.563925 2.0730725 16.29215C2.2040675 16.078075 2.349295 15.838075 2.3957825 15.758875L2.48029 15.61485L2.3568975 15.753225C2.169045 15.9639 1.6363575 16.84505 1.2880125 17.52135C0.05379775 19.917475 -0.29789 22.401475 0.2522525 24.83625C0.7419625 27.00375 2.118465 28.87475 4.138375 30.1185C5.548125 30.9865 7.3642 31.57775 9.236525 31.77825C10.0871 31.86925 11.8787 31.81275 13.00975 31.659C15.06175 31.3805 17.1919 30.811 19.419425 29.94575C19.7922 29.80075 20.105125 29.69275 20.114675 29.70525C20.1243 29.718 20.334975 30.062 20.5829 30.4695C21.570225 32.0925 22.656375 33.47 24.0693 34.89075C25.8855 36.71675 27.34375 37.80925 29.98675 39.3235C33.0055 41.053 36.157 42.3325 39.069 43.011C40.76275 43.4055 41.7765 43.52525 43.4255 43.525C44.955 43.525 45.931 43.41775 47.08775 43.12275C49.03675 42.6255 50.22825 42.02375 51.5855 40.851C53.49875 39.1975 54.65175 37.006 54.95325 34.44975C55.05325 33.6025 54.9875 32.201 54.8075 31.3375C54.66475 30.65375 54.3245 29.579 54.161 29.29625C54.11525 29.21725 54.09 29.19125 54.10525 29.23875C54.1205 29.28625 54.22375 29.5985 54.33475 29.9325C54.729 31.1175 54.79825 31.58625 54.79825 33.0695C54.79825 34.548 54.72725 35.0345 54.34325 36.187C53.38125 39.0735 51.1615 41.324 48.30475 42.30925C46.08875 43.07325 43.366 43.2605 40.776 42.827C39.172 42.55825 37.00225 41.92725 35.15925 41.193C32.70225 40.21425 29.17625 38.30525 27.36025 36.9705C23.3139 33.99625 20.371025 29.99825 18.7777 25.31075C18.23055 23.701225 17.97755 22.207275 18.042875 20.97225C18.16395 18.6827 19.019825 16.548725 20.496375 14.854625C22.454075 12.608675 25.61975 11.32405 28.621 11.55765C28.95375 11.583575 29.264 11.606225 29.31025 11.608C29.38375 11.610825 29.3835 11.62245 29.3085 11.6973C29.2325 11.77345 29.1765 11.77355 28.821 11.698275C27.6255 11.445025 25.9825 11.703225 24.761425 12.3362C23.700725 12.88605 23.053575 13.5309 22.5694 14.52035C22.163725 15.3493 22.031425 15.9405 22.02795 16.9398C22.021675 18.72975 22.60655 20.24555 24.261875 22.72925C28.02 28.36825 33.535 32.8305 39.94075 35.4155C41.8015 36.16625 44.2595 36.8895 45.98925 37.19525C46.61475 37.30575 46.94725 37.32775 48.0055 37.33C49.3695 37.3325 49.763 37.28025 50.682 36.97325C52.39525 36.401 53.8195 35.0725 54.28025 33.61675C54.925 31.581 54.23625 29.2495 51.96575 25.7825C48.133 19.929875 42.3725 15.41185 36.05375 13.302325C35.5305 13.12765 35.09275 12.975225 35.08125 12.9636C35.06975 12.952 35.1395 12.63235 35.23675 12.25325C35.52425 11.129875 35.6095 10.35465 35.5725 9.19175C35.52225 7.609475 35.205 6.33425 34.52225 4.97175C33.596 3.1227 32.26825 1.767745 30.566 0.9341225C30.20925 0.7594025 29.8525 0.601215 29.77325 0.58261C29.694 0.5640025 29.84775 0.653465 30.11525 0.7814075C32.6845 2.0113025 34.519 4.555325 35.1125 7.711625C35.26575 8.526925 35.253 10.2793 35.08725 11.150375C34.4595 14.451675 32.1795 18.701825 29.2925 21.95155C28.4195 22.934425 26.53325 24.745475 26.3825 24.745475C26.3245 24.745475 25.7975 24.085175 25.80025 24.015825C25.80125 23.989425 26.00675 23.81765 26.257 23.634175C27.0995 23.016225 28.2565 21.924375 29.13925 20.91465C30.117 19.7961 31.136 18.242975 31.88 16.737725C32.1875 16.115625 32.113 16.187 31.72775 16.883525C30.3415 19.3905 28.198 21.774925 25.957 23.303225C25.6045 23.5435 25.49375 23.593625 25.4305 23.5412C25.3235 23.4525 24.35785 22.06365 24.3594 22.000875C24.3601 21.97375 24.4703 21.874075 24.604225 21.779375C25.12425 21.411775 26.26625 20.4231 27.03125 19.67825C29.6695 17.109275 31.6905 14.101825 33.014 10.775925C33.30775 10.037125 33.4965 9.4848 33.34825 9.796625C33.318 9.86 33.161 10.232825 32.999 10.625125C32.407 12.058025 31.7515 13.2772 30.78 14.750775C29.15225 17.2199 27.212 19.294225 24.91225 21.023625C24.504175 21.330575 24.14125 21.572 24.10575 21.560175C24.024175 21.533 23.37525 20.416975 23.39385 20.335875C23.401475 20.3027 23.7706 19.953775 24.214175 19.5605C26.11675 17.87355 28.32825 15.459675 29.53075 13.7577C31.77 10.5878 32.7095 6.776775 31.89975 4.147875C31.50425 2.864325 30.596 1.605235 29.5755 0.92623C28.6175 0.2888175 27.6705 0.0385165 26.0865 0.004240825C25.532 -0.0077413 24.844975 0.006545175 24.559825 0.0360395ZM24.59645 0.437555C21.364275 0.7502425 17.370025 2.27998 13.961 4.51085C12.070525 5.747875 10.548225 7.009225 8.381075 9.13415C7.502975 9.995125 7.15325 10.388 6.56055 11.179175C4.757875 13.5854 3.756225 15.340475 3.094725 17.251925C2.2145525 19.795475 2.1775125 22.253825 2.986825 24.416925L3.1104 24.74725L3.6388 24.999675C3.929375 25.1385 4.232975 25.26675 4.313325 25.28475L4.459425 25.3175L4.52905 24.6621C4.711675 22.94215 5.391475 21.21755 6.792 18.92105C9.0284 15.254075 12.159125 12.054275 15.890925 9.621325C18.6865 7.79885 21.761 6.3944 24.07015 5.8851C26.0695 5.444125 28.136 5.47495 29.80525 5.970525C30.3655 6.136825 30.32075 6.177975 29.744 6.026925C28.14075 5.606975 25.97925 5.651225 24.0516 6.14335C22.158725 6.626675 19.89375 7.654125 17.359025 9.179325C14.6173 10.82905 12.004925 13.01665 9.996825 15.344225C7.516 18.2197 5.554925 21.493875 4.978275 23.722825C4.80725 24.383925 4.679925 25.206 4.728775 25.3335C4.751025 25.3915 4.896825 25.44675 5.138425 25.48875C7.836525 25.9585 11.65975 25.30775 15.3041 23.758375C15.9646 23.47755 17.54095 22.69485 17.575975 22.6304C17.5894 22.60555 17.579025 22.33895 17.5528 22.037975C17.495675 21.381375 17.569525 20.337825 17.733175 19.4898C18.147525 17.342475 19.321025 15.2686 20.930025 13.83995C22.99425 12.0072 25.9455 11.0396 28.621 11.3184C28.9855 11.356375 29.33375 11.392425 29.39525 11.39855C29.52325 11.411225 29.84225 10.90375 30.275 9.99825C31.0125 8.455375 31.3375 7.1449 31.33225 5.735375C31.328 4.623575 31.01775 3.422075 30.52475 2.60875C29.8265 1.4564975 28.92925 0.8323325 27.55525 0.54309C26.94075 0.41365 25.40825 0.35898 24.59645 0.437555ZM15.515625 8.754475C15.45225 8.795825 15.1671 8.9668 14.88195 9.1345C10.78545 11.54365 7.622125 15.020025 5.289575 19.6761C4.80385 20.645725 4.2405 21.87125 4.267925 21.898725C4.277375 21.908125 4.42705 21.65265 4.60055 21.331025C5.101775 20.4019 6.314925 18.395575 6.943525 17.4562C8.219325 15.549425 9.303525 14.2174 10.789075 12.73145C12.188225 11.331825 13.305025 10.39245 14.9891 9.1985C15.39655 8.90965 15.707625 8.674675 15.680375 8.6763C15.653125 8.677975 15.578975 8.713175 15.515625 8.754475ZM44.77975 8.810925C44.22775 9.052075 43.58275 9.97925 43.306 10.929225C43.20875 11.2634 43.177 11.563175 43.15425 12.3601C43.12325 13.44685 43.1995 14.120275 43.42625 14.765975C43.4895 14.945525 43.541 15.112775 43.541 15.1376C43.541 15.202175 42.81075 15.190875 42.51075 15.12175C41.73375 14.9426 41.1755 14.448225 40.358 13.215325C39.78875 12.3571 39.49975 12.045 38.938 11.682125C38.32525 11.28645 37.52775 11.11885 36.9345 11.261275C36.66575 11.325675 36.278 11.56705 36.341 11.6307C36.357 11.64705 36.51275 11.61135 36.6865 11.5513C37.2935 11.3418 38.1775 11.451775 38.79475 11.813475C39.26125 12.086825 39.617 12.468475 40.11075 13.224825C41.13275 14.7901 41.97825 15.40165 43.18475 15.448025L43.72125 15.468725L43.944 15.800975C44.364 16.427675 44.8125 16.805875 45.3515 16.987975C45.77825 17.13205 47.11275 17.113025 47.11275 16.96285C47.11275 16.93595 47.0285 16.932675 46.9255 16.95565C46.53575 17.042625 45.6585 17.002725 45.327 16.88295C44.94325 16.74435 44.34325 16.175025 44.1 15.71845L43.94025 15.418825L44.187 15.35645C45.4705 15.0323 46.743 14.29885 47.598 13.390225C48.30675 12.6373 48.59975 11.830475 48.324 11.391275C48.1545 11.1211 47.7585 10.954275 47.4085 11.005675C47.062 11.05665 46.50475 11.323075 46.137 11.61375C45.97675 11.74055 45.84525 11.83 45.84525 11.81255C45.84525 11.79505 45.92025 11.632425 46.01175 11.451125C46.5045 10.474775 46.47675 9.659475 45.9325 9.115075C45.58025 8.76295 45.14975 8.649275 44.77975 8.810925ZM45.0065 9.100225C44.5725 9.28935 43.958 10.26905 43.71925 11.1528C43.41625 12.275025 43.41725 13.7592 43.72175 14.885175C43.78825 15.1316 43.79175 15.13425 43.99625 15.098375C45.57875 14.8207 47.70975 13.2454 48.114 12.054325C48.312 11.471475 48.22925 11.29335 47.76275 11.296975C47.27975 11.300775 46.785 11.58195 45.93875 12.333325C45.5625 12.6675 45.2275 12.9318 45.194 12.920725C45.02675 12.8649 45.0105 12.702225 45.148 12.459525C45.55375 11.742975 45.961 10.911875 46.04175 10.635825C46.353 9.5723 45.8015 8.754075 45.0065 9.100225ZM27.7705 12.30855C26.8295 12.41795 25.36175 12.816125 24.87665 13.093725C24.01815 13.584825 23.341375 14.33985 22.808575 15.401075C22.457225 16.100875 22.377175 16.47015 22.42065 17.18975C22.440475 17.5173 22.471125 17.808675 22.4888 17.83725C22.506425 17.865825 22.652175 17.822625 22.812725 17.741275C23.140625 17.57515 23.7422 17.43195 24.1189 17.43045C24.361525 17.429525 24.392225 17.406925 25.119 16.694975C25.924 15.906575 27.01025 14.725525 27.703 13.88575C28.18125 13.305825 28.909 12.337825 28.909 12.281475C28.909 12.233025 28.29375 12.24765 27.7705 12.30855ZM34.78175 13.70665C34.35525 14.907525 33.4595 16.772175 32.74975 17.93685C32.57025 18.23175 32.42325 18.490975 32.42325 18.512925C32.42325 18.534875 32.63725 18.62795 32.8985 18.719775C35.163 19.51585 37.73 20.864875 39.79675 22.345075C43.445 24.957925 46.695 28.729 48.49375 32.436C49.16775 33.82475 49.43075 34.81375 49.43975 35.99275C49.4435 36.47825 49.468 36.7845 49.50325 36.7845C49.535 36.7845 49.77175 36.73375 50.0295 36.672C51.2945 36.36875 52.74175 35.46475 52.95575 34.84425C53.213 34.09825 53.30025 32.37125 53.13 31.39225C52.92625 30.2195 52.311 28.77525 51.3045 27.10725C50.0195 24.978025 48.789 23.3727 47.17875 21.7243C46.778 21.3142 46.554 21.05965 46.68075 21.158725C46.9705 21.385225 48.46525 22.903725 48.96375 23.478125C50.47775 25.22225 52.15525 27.7335 52.84225 29.28425C53.182 30.0515 53.476 31.0315 53.566 31.69725C53.61 32.024 53.6275 32.59125 53.61125 33.183L53.585 34.14025L53.7195 33.8215C54.438 32.11725 54.05875 30.16225 52.47125 27.38825C49.17575 21.629375 43.997 16.943375 38.011 14.30385C37.22075 13.95545 35.952 13.474275 35.352 13.29535L34.96825 13.181L34.78175 13.70665ZM51.45425 13.545125C51.2175 13.796225 51.186 14.0687 51.39 14.10045C51.57325 14.128975 51.93375 14.0451 52.10225 13.9346C52.28125 13.817325 52.26875 13.606875 52.081 13.5802C52.00975 13.570075 51.9245 13.511775 51.892 13.4506C51.80375 13.286 51.67175 13.314525 51.45425 13.545125ZM22.73985 13.615625C22.154 14.29995 21.756575 15.02775 21.539675 15.8136C20.874225 18.224825 21.70105 20.810825 24.202125 24.1406C25.8515 26.33625 28.33175 28.8945 30.43575 30.5695C31.8345 31.683 34.27475 33.4555 35.47625 34.23025C39.12575 36.584 43.21625 38.07825 46.902 38.40425C47.9185 38.494 49.56825 38.43925 50.283 38.292C52.395 37.857 53.6035 36.95925 54.1075 35.452C54.245 35.04025 54.39375 34.254 54.3435 34.2035C54.331 34.19125 54.225 34.37175 54.10775 34.60475C53.6715 35.47175 53.27575 35.9655 52.63775 36.4395C51.47225 37.30475 50.06225 37.7085 48.203 37.70875C46.46075 37.70875 44.7565 37.36825 42.1585 36.5005C34.925 34.08425 28.64825 29.54625 24.11395 23.453925C22.463975 21.237075 21.723225 19.629725 21.531675 17.850725C21.3823 16.463525 21.792 14.87175 22.533225 13.9592C22.786625 13.64725 22.881675 13.512225 22.8478 13.512225C22.83715 13.512225 22.7886 13.558775 22.73985 13.615625ZM51.795 13.798525C51.63375 13.896875 51.60325 13.900325 51.561 13.824975C51.5195 13.750825 51.49725 13.755325 51.40625 13.855675C51.302 13.971 51.30275 13.973075 51.45375 13.973075C51.59225 13.973075 52.1245 13.76235 52.1245 13.707525C52.1245 13.651175 51.964 13.695525 51.795 13.798525ZM53.4745 14.523675C53.21375 14.652325 52.87325 14.94825 52.87325 15.046225C52.87325 15.093225 52.9905 15.183575 53.13375 15.246925C53.61375 15.4592 54.145 15.3013 53.892 15.021625C53.803 14.92325 53.80175 14.903425 53.88 14.838375C53.99625 14.74185 53.991 14.645475 53.8625 14.529275C53.73425 14.4133 53.69925 14.4128 53.4745 14.523675ZM53.318 14.8128C53.13675 14.926125 52.9885 15.04025 52.9885 15.0664C52.9885 15.2122 53.6775 15.2956 53.7875 15.163125C53.868 15.065925 53.81475 15.01 53.6415 15.01C53.46675 15.01 53.4705 14.93195 53.651 14.813675C53.8055 14.71235 53.8415 14.60675 53.72125 14.60675C53.6805 14.60675 53.49925 14.6995 53.318 14.8128ZM49.482 14.973125C49.3405 15.124 49.11425 15.667525 49.17025 15.723275C49.18975 15.742875 49.1755 15.758875 49.1385 15.758875C49.1015 15.758875 49.07125 15.7848 49.07125 15.816475C49.07125 16.021975 50.086 15.67005 50.221 15.417675C50.30175 15.267025 50.24 15.13155 50.0715 15.089275C49.995 15.070075 49.90625 15.0055 49.87425 14.945775C49.79525 14.798175 49.636 14.809225 49.482 14.973125ZM49.421 15.38605C49.315 15.561175 49.24375 15.720175 49.263 15.73935C49.31275 15.789125 49.89675 15.49365 50.022 15.355525C50.15975 15.20315 50.0965 15.1498 49.883 15.238225C49.69125 15.317675 49.57825 15.27965 49.62725 15.152175C49.693 14.980725 49.609 15.076125 49.421 15.38605ZM51.31625 15.1835C51.103 15.292775 50.877 15.50985 50.9255 15.558475C50.9415 15.574525 51.082 15.517325 51.23725 15.431325C51.4325 15.3232 51.49475 15.305625 51.43925 15.3743C51.34775 15.487675 51.346 15.485075 51.57725 15.56095C51.67225 15.5921 51.74375 15.642925 51.73625 15.67385C51.71675 15.7545 51.1705 15.7765 51.03175 15.7022C50.96725 15.6678 50.91475 15.6633 50.91475 15.692225C50.91475 15.827425 51.59275 15.9737 51.77275 15.877325C51.93875 15.78855 51.927 15.59855 51.7505 15.5182C51.647 15.47095 51.623 15.433225 51.665 15.3827C51.732 15.302 51.687 15.146525 51.58525 15.107525C51.54725 15.0929 51.426 15.1271 51.31625 15.1835ZM20.41215 15.603625C19.523125 16.8299 18.85995 18.38965 18.58835 19.893275C18.427675 20.7829 18.414025 22.421175 18.560225 23.2765C18.6618 23.8707 18.88375 24.76655 18.920325 24.7299C18.931725 24.71855 18.891475 24.451675 18.830875 24.13685C18.335975 21.56555 18.69855 19.032175 19.9016 16.65575C20.076875 16.30935 20.310375 15.885325 20.4204 15.7133C20.659975 15.338825 20.654725 15.26905 20.41215 15.603625ZM48.019 15.931525C47.8295 16.0805 47.516 16.554525 47.516 16.691875C47.516 16.924125 48.28525 17.005775 48.49525 16.7958C48.5585 16.732425 48.6105 16.6565 48.6105 16.62705C48.6105 16.55355 48.44325 16.39255 48.367 16.39255C48.33275 16.39255 48.3475 16.34515 48.4 16.2872C48.57075 16.098575 48.4875 15.816475 48.261 15.816475C48.20825 15.816475 48.09925 15.868275 48.019 15.931525ZM48.05425 16.234125C47.85825 16.443475 47.68875 16.683125 47.68875 16.751025C47.68875 16.81485 48.1715 16.8065 48.3475 16.739625C48.555 16.6607 48.54075 16.50775 48.32575 16.50775C48.09475 16.50775 48.055 16.4134 48.20225 16.21425C48.369 15.988625 48.27225 16.001625 48.05425 16.234125ZM52.571 16.374625C52.3395 16.435125 52.49275 16.50695 52.80125 16.482525C52.9835 16.468125 53.07425 16.469675 53.003 16.48605C52.82525 16.526825 52.8405 16.595375 53.04625 16.680575C53.2575 16.768075 53.27025 16.8534 53.07225 16.8534C52.99175 16.8534 52.85925 16.787025 52.77825 16.705875C52.697 16.62475 52.617 16.572175 52.6 16.588975C52.58325 16.6058 52.6535 16.6981 52.75625 16.794125C52.97925 17.00225 53.2765 17.038075 53.2765 16.8568C53.2765 16.795275 53.249 16.727925 53.21525 16.707075C53.1745 16.6819 53.18375 16.635925 53.24325 16.570375C53.31225 16.494225 53.317 16.455975 53.26425 16.40325C53.1985 16.337475 52.77925 16.3202 52.571 16.374625ZM49.87375 16.6216C49.7605 16.68145 49.63225 16.77345 49.5885 16.82615C49.51925 16.909625 49.527 16.935775 49.65025 17.0307C49.849 17.18395 50.25975 17.33475 50.3665 17.29375C50.50575 17.240275 50.53525 17.09045 50.4295 16.973575C50.3445 16.8795 50.3435 16.863825 50.4225 16.833525C50.4715 16.81475 50.5115 16.7338 50.5115 16.653575C50.5115 16.523025 50.48875 16.50805 50.2955 16.5103C50.17675 16.511725 49.98675 16.5618 49.87375 16.6216ZM49.997 16.71325C49.64175 16.8674 49.61475 16.919525 49.83025 17.03445C50.05475 17.1541 50.418 17.178175 50.38225 17.071025C50.3695 17.032275 50.298 16.986175 50.2235 16.9686C50.03175 16.9234 50.01475 16.806625 50.19 16.739975C50.27175 16.708875 50.33875 16.6698 50.33875 16.653225C50.33875 16.6005 50.20125 16.62465 49.997 16.71325ZM23.407675 17.748775C22.9696 17.8683 22.572225 18.070725 22.5735 18.1738C22.575225 18.313325 22.71975 18.840825 22.756275 18.840825C22.79275 18.840825 24.07015 17.712825 24.07015 17.680625C24.07015 17.63465 23.678275 17.674975 23.407675 17.748775ZM31.71375 19.542175C30.95775 20.633575 29.95725 21.846375 28.9955 22.83755C28.2655 23.589825 27.07925 24.68395 26.72525 24.93135C26.56425 25.04375 26.54025 24.99905 27.12075 25.66725C29.491 28.3955 32.4415 30.8535 35.5915 32.72325C39.653 35.13425 44.96375 36.9005 48.15275 36.9005C48.989 36.9005 48.97775 36.9115 48.97675 36.08675C48.97475 34.48425 48.339 32.781 46.85125 30.391C43.71875 25.35875 38.9585 21.362875 33.5175 19.1982C32.99475 18.99025 32.49925 18.803375 32.4165 18.782925C32.27575 18.74825 32.22925 18.798475 31.71375 19.542175ZM36.542 19.65865C36.5735 19.69085 37.13725 20.0698 37.79475 20.5008C42.557 23.623225 45.17975 26.087 47.56075 29.675C48.47925 31.059 49.16275 32.39225 49.565 33.58425C49.79575 34.268 49.82825 34.213 49.61225 33.5045C49.0575 31.6855 47.92975 29.6475 46.343 27.597C44.92225 25.761 43.4195 24.304025 41.2945 22.702C39.989 21.7178 38.72975 20.9022 36.686 19.717C36.575 19.652675 36.51025 19.6264 36.542 19.65865ZM0.42098 22.470025C0.4453475 23.119825 0.5784175 23.61885 0.89704 24.2558C2.008725 26.47825 4.677175 27.825 8.596825 28.14175C11.557825 28.381 14.625325 27.82525 17.22895 26.57725C17.569275 26.41425 17.83825 26.27125 17.826725 26.25975C17.81515 26.248 17.6015 26.321 17.35195 26.4215C16.2928 26.84825 14.559575 27.28825 13.010025 27.5235C12.2834 27.63375 11.934125 27.6505 10.33105 27.652C8.583325 27.6535 8.435275 27.64525 7.47955 27.49175C5.389225 27.156 4.10825 26.7185 2.89985 25.92775C2.3026325 25.53725 1.94818 25.218 1.53785 24.701625C0.9374775 23.946175 0.573235 23.1345 0.454565 22.287925C0.4005875 21.902775 0.3998375 21.9068 0.42098 22.470025ZM21.8462 27.6495C21.9146 27.8455 22.632875 29.01825 23.1371 29.75725C26.04625 34.02 29.807 37.1875 34.18575 39.0625C37.836 40.62525 42.04675 41.389 45.42425 41.10025C46.561 41.003 46.74975 40.93975 45.84525 40.95875C41.4155 41.05225 36.0695 39.637 32.01975 37.299C28.28775 35.14425 24.898075 31.95375 22.110325 27.9715C21.943975 27.73375 21.825125 27.589 21.8462 27.6495Z" fill="white"></path></svg> 