<?xml version="1.0" encoding="UTF-8"?> <svg xmlns="http://www.w3.org/2000/svg" width="109" height="18" viewBox="0 0 109 18" fill="none"><path d="M7.2249 16.55H7.3499V16.8H3.7999V16.55H3.9249C4.05824 16.55 4.1749 16.5 4.2749 16.4C4.3749 16.3 4.45824 16.1834 4.5249 16.05C4.60824 15.9167 4.66657 15.775 4.6999 15.625C4.73324 15.4584 4.7499 15.3084 4.7499 15.175V1.22505H1.8499C1.58324 1.22505 1.3499 1.28338 1.1499 1.40005C0.949902 1.51671 0.783236 1.66671 0.649902 1.85005C0.516569 2.01672 0.416569 2.20838 0.349902 2.42505C0.283236 2.62505 0.249902 2.82505 0.249902 3.02505H-9.76427e-05V0.300048H11.2249V3.02505H10.9749C10.9749 2.82505 10.9416 2.62505 10.8749 2.42505C10.8082 2.20838 10.7082 2.01672 10.5749 1.85005C10.4416 1.66671 10.2749 1.51671 10.0749 1.40005C9.8749 1.28338 9.64157 1.22505 9.3749 1.22505H6.4249V15.175C6.4249 15.3084 6.44157 15.4584 6.4749 15.625C6.50824 15.775 6.55824 15.9167 6.6249 16.05C6.70824 16.1834 6.79157 16.3 6.8749 16.4C6.9749 16.5 7.09157 16.55 7.2249 16.55ZM13.3442 16.55H13.4692C13.6026 16.55 13.7192 16.5084 13.8192 16.425C13.9192 16.325 14.0026 16.2084 14.0692 16.075C14.1526 15.9417 14.2109 15.8 14.2442 15.65C14.2942 15.5 14.3192 15.3584 14.3192 15.225V1.85005C14.3192 1.73338 14.2942 1.60005 14.2442 1.45005C14.2109 1.30005 14.1526 1.15838 14.0692 1.02505C14.0026 0.891714 13.9192 0.783381 13.8192 0.700047C13.7192 0.600048 13.6026 0.550048 13.4692 0.550048H13.3442V0.300048H22.9692V2.62505H22.7192C22.6859 2.24171 22.5359 1.90838 22.2692 1.62505C22.0026 1.32505 21.5859 1.17505 21.0192 1.17505H15.9942V7.50005H20.1442C20.5276 7.50005 20.8442 7.38338 21.0942 7.15005C21.3609 6.91672 21.4942 6.64172 21.4942 6.32505H21.7442V9.45005H21.4942C21.4942 9.15005 21.3692 8.89172 21.1192 8.67505C20.8692 8.45838 20.5442 8.35005 20.1442 8.35005H15.9942V15.925H21.4692C21.7859 15.925 22.0609 15.85 22.2942 15.7C22.5276 15.55 22.7192 15.375 22.8692 15.175C23.0359 14.9584 23.1526 14.7334 23.2192 14.5C23.3026 14.25 23.3442 14.0417 23.3442 13.875H23.5942V16.8H13.3442V16.55ZM28.353 15.05C28.203 15.4834 27.9697 15.8834 27.653 16.25C27.3364 16.6167 26.8697 16.8 26.253 16.8H25.478V16.55C25.578 16.55 25.7114 16.525 25.878 16.475C26.0447 16.4084 26.2197 16.3084 26.403 16.175C26.5864 16.0417 26.7697 15.875 26.953 15.675C27.1364 15.4584 27.2947 15.1917 27.428 14.875L32.153 1.92505C32.2364 1.67505 32.278 1.48338 32.278 1.35005C32.278 1.10005 32.203 0.908382 32.053 0.775048C31.9197 0.625048 31.778 0.550048 31.628 0.550048V0.300048H33.678L39.278 15.6C39.3614 15.8334 39.5197 16.05 39.753 16.25C39.9864 16.4334 40.2447 16.5334 40.528 16.55V16.8H36.953V16.55C37.0864 16.55 37.2197 16.5 37.353 16.4C37.503 16.2834 37.578 16.1334 37.578 15.95C37.578 15.9 37.5614 15.825 37.528 15.725L32.828 2.77505L28.353 15.05ZM43.1401 16.55H43.2651C43.3985 16.55 43.5151 16.5084 43.6151 16.425C43.7151 16.325 43.7985 16.2084 43.8651 16.075C43.9485 15.9417 44.0068 15.8 44.0401 15.65C44.0901 15.5 44.1151 15.3584 44.1151 15.225V1.85005C44.1151 1.73338 44.0901 1.60005 44.0401 1.45005C44.0068 1.30005 43.9485 1.15838 43.8651 1.02505C43.7985 0.891714 43.7151 0.783381 43.6151 0.700047C43.5151 0.600048 43.3985 0.550048 43.2651 0.550048H43.1401V0.300048H52.7651V2.62505H52.5151C52.4818 2.24171 52.3318 1.90838 52.0651 1.62505C51.7985 1.32505 51.3818 1.17505 50.8151 1.17505H45.7901V7.50005H49.9401C50.3235 7.50005 50.6401 7.38338 50.8901 7.15005C51.1568 6.91672 51.2901 6.64172 51.2901 6.32505H51.5401V9.45005H51.2901C51.2901 9.15005 51.1651 8.89172 50.9151 8.67505C50.6651 8.45838 50.3401 8.35005 49.9401 8.35005H45.7901V15.925H51.2651C51.5818 15.925 51.8568 15.85 52.0901 15.7C52.3235 15.55 52.5151 15.375 52.6651 15.175C52.8318 14.9584 52.9485 14.7334 53.0151 14.5C53.0985 14.25 53.1401 14.0417 53.1401 13.875H53.3901V16.8H43.1401V16.55ZM59.4989 16.55H59.6239V16.8H56.0239V16.55H56.1489C56.2823 16.55 56.3989 16.5084 56.4989 16.425C56.5989 16.325 56.6823 16.2084 56.7489 16.075C56.8323 15.9417 56.8906 15.8 56.9239 15.65C56.9573 15.5 56.9739 15.3584 56.9739 15.225V1.85005C56.9739 1.73338 56.9573 1.60005 56.9239 1.45005C56.8906 1.30005 56.8323 1.15838 56.7489 1.02505C56.6823 0.891714 56.5989 0.783381 56.4989 0.700047C56.3989 0.600048 56.2823 0.550048 56.1489 0.550048H56.0239V0.300048H65.6489V2.95005H65.3989C65.3989 2.35005 65.2656 1.90838 64.9989 1.62505C64.7489 1.32505 64.3489 1.17505 63.7989 1.17505H58.6739V15.225C58.6739 15.3584 58.6906 15.5 58.7239 15.65C58.7573 15.8 58.8073 15.9417 58.8739 16.075C58.9573 16.2084 59.0489 16.325 59.1489 16.425C59.2489 16.5084 59.3656 16.55 59.4989 16.55ZM67.8817 0.300048H71.4317C73.2817 0.300048 74.6817 0.658381 75.6317 1.37505C76.5984 2.07505 77.0817 3.07505 77.0817 4.37505C77.0817 5.07505 76.9151 5.70005 76.5817 6.25005C76.2484 6.80005 75.8067 7.26671 75.2567 7.65005C74.7234 8.01672 74.1151 8.30005 73.4317 8.50005C72.7651 8.70005 72.0984 8.80005 71.4317 8.80005H70.4817V15.175C70.4817 15.3084 70.4984 15.4584 70.5317 15.625C70.5651 15.775 70.6151 15.9167 70.6817 16.05C70.7651 16.1834 70.8484 16.3 70.9317 16.4C71.0317 16.5 71.1484 16.55 71.2817 16.55H71.4067V16.8H67.8817V16.55H68.0067C68.1234 16.55 68.2317 16.5 68.3317 16.4C68.4317 16.3 68.5151 16.1834 68.5817 16.05C68.6484 15.9167 68.6984 15.775 68.7317 15.625C68.7651 15.4584 68.7817 15.3084 68.7817 15.175V1.85005C68.7817 1.61671 68.7151 1.35005 68.5817 1.05005C68.4484 0.750048 68.2567 0.583382 68.0067 0.550048H67.8817V0.300048ZM70.4817 1.17505V7.92505H71.2317C71.8984 7.92505 72.4901 7.83338 73.0067 7.65005C73.5401 7.46672 73.9817 7.22505 74.3317 6.92505C74.6817 6.62505 74.9484 6.28338 75.1317 5.90005C75.3151 5.51671 75.4067 5.12505 75.4067 4.72505C75.4067 4.24172 75.3234 3.79172 75.1567 3.37505C75.0067 2.94172 74.7484 2.56671 74.3817 2.25005C74.0317 1.91671 73.5651 1.65838 72.9817 1.47505C72.3984 1.27505 71.6817 1.17505 70.8317 1.17505H70.4817ZM85.7263 16.55H85.8513C86.2513 16.55 86.4513 16.3667 86.4513 16C86.4513 15.8667 86.4263 15.725 86.3763 15.575L84.1263 9.50005H79.7513L77.5763 15.475C77.5263 15.6084 77.5013 15.7334 77.5013 15.85C77.5013 16.0667 77.5596 16.2417 77.6763 16.375C77.7929 16.4917 77.9179 16.55 78.0513 16.55H78.1763V16.8H75.4013V16.55H75.5263C75.7429 16.55 75.9513 16.425 76.1513 16.175C76.3679 15.9084 76.5429 15.6 76.6763 15.25L82.4013 4.75645e-05L88.0013 15.1C88.1179 15.4334 88.2763 15.7584 88.4763 16.075C88.6929 16.3917 88.9679 16.55 89.3013 16.55H89.4263V16.8H85.7263V16.55ZM80.0013 8.65005H83.8513L81.9263 3.42505L80.0013 8.65005ZM105.122 16.55H105.247C105.364 16.55 105.472 16.5 105.572 16.4C105.672 16.3 105.756 16.1834 105.822 16.05C105.906 15.9167 105.964 15.775 105.997 15.625C106.031 15.4584 106.047 15.3084 106.047 15.175V2.02505L99.5974 17.075L93.4724 2.80005V15.175C93.4724 15.3084 93.489 15.4584 93.5224 15.625C93.5557 15.775 93.6057 15.9167 93.6724 16.05C93.7557 16.1834 93.8474 16.3 93.9474 16.4C94.0474 16.5 94.164 16.55 94.2974 16.55H94.4224V16.8H91.6974V16.55H91.8224C91.939 16.55 92.0474 16.5 92.1474 16.4C92.2474 16.3 92.3307 16.1834 92.3974 16.05C92.464 15.9167 92.514 15.775 92.5474 15.625C92.5807 15.4584 92.5974 15.3084 92.5974 15.175V1.85005C92.5974 1.73338 92.5807 1.60005 92.5474 1.45005C92.514 1.30005 92.464 1.15838 92.3974 1.02505C92.3307 0.891714 92.2474 0.783381 92.1474 0.700047C92.0474 0.600048 91.939 0.550048 91.8224 0.550048H91.6974V0.300048H94.2474L100.047 13.975L105.847 0.300048H108.672V0.550048H108.547C108.414 0.550048 108.297 0.600048 108.197 0.700047C108.097 0.783381 108.006 0.891714 107.922 1.02505C107.856 1.15838 107.806 1.30005 107.772 1.45005C107.739 1.60005 107.722 1.73338 107.722 1.85005V15.175C107.722 15.3084 107.739 15.4584 107.772 15.625C107.806 15.775 107.856 15.9167 107.922 16.05C108.006 16.1834 108.097 16.3 108.197 16.4C108.297 16.5 108.414 16.55 108.547 16.55H108.672V16.8H105.122V16.55Z" fill="#281814"></path></svg> 