<?xml version="1.0" encoding="UTF-8"?> <svg xmlns="http://www.w3.org/2000/svg" width="120" height="27" viewBox="0 0 120 27" fill="none"><path d="M32.3313 9.93H32.4063C32.6463 9.93 32.7663 9.82 32.7663 9.6C32.7663 9.52 32.7513 9.435 32.7213 9.345L31.3713 5.7H28.7463L27.4413 9.285C27.4113 9.365 27.3963 9.44 27.3963 9.51C27.3963 9.64 27.4313 9.745 27.5013 9.825C27.5713 9.895 27.6463 9.93 27.7263 9.93H27.8013V10.08H26.1363V9.93H26.2113C26.3413 9.93 26.4663 9.855 26.5863 9.705C26.7163 9.545 26.8213 9.36 26.9013 9.15L30.3363 1.07288e-06L33.6963 9.06C33.7663 9.26 33.8613 9.455 33.9813 9.645C34.1113 9.835 34.2763 9.93 34.4763 9.93H34.5513V10.08H32.3313V9.93ZM28.8963 5.19H31.2063L30.0513 2.055L28.8963 5.19ZM37.369 9.105C37.369 9.185 37.379 9.275 37.399 9.375C37.419 9.465 37.449 9.55 37.489 9.63C37.529 9.71 37.574 9.78 37.624 9.84C37.684 9.9 37.749 9.93 37.819 9.93V10.08H35.929V9.93C35.999 9.93 36.059 9.905 36.109 9.855C36.169 9.795 36.219 9.725 36.259 9.645C36.299 9.555 36.329 9.465 36.349 9.375C36.369 9.275 36.379 9.185 36.379 9.105V4.71C36.379 4.64 36.369 4.56 36.349 4.47C36.329 4.38 36.299 4.295 36.259 4.215C36.219 4.135 36.169 4.07 36.109 4.02C36.059 3.96 35.999 3.93 35.929 3.93V3.78H37.819V3.93C37.739 3.93 37.669 3.96 37.609 4.02C37.559 4.07 37.514 4.135 37.474 4.215C37.444 4.295 37.419 4.38 37.399 4.47C37.379 4.56 37.369 4.64 37.369 4.71V6.525H40.789V4.71C40.789 4.64 40.779 4.56 40.759 4.47C40.739 4.38 40.709 4.295 40.669 4.215C40.639 4.135 40.594 4.07 40.534 4.02C40.484 3.96 40.419 3.93 40.339 3.93V3.78H42.229V3.93C42.149 3.93 42.079 3.96 42.019 4.02C41.969 4.07 41.924 4.135 41.884 4.215C41.844 4.295 41.814 4.38 41.794 4.47C41.784 4.56 41.779 4.64 41.779 4.71V9.105C41.779 9.185 41.789 9.275 41.809 9.375C41.829 9.465 41.859 9.55 41.899 9.63C41.939 9.71 41.984 9.78 42.034 9.84C42.094 9.9 42.159 9.93 42.229 9.93V10.08H40.339V9.93C40.409 9.93 40.469 9.905 40.519 9.855C40.579 9.795 40.629 9.725 40.669 9.645C40.709 9.555 40.739 9.465 40.759 9.375C40.779 9.275 40.789 9.185 40.789 9.105V7.02H37.369V9.105ZM48.0873 10.08V9.315L48.0123 9.39C47.7623 9.64 47.4723 9.835 47.1423 9.975C46.8223 10.115 46.4323 10.185 45.9723 10.185C45.6223 10.185 45.3223 10.145 45.0723 10.065C44.8223 9.985 44.6173 9.875 44.4573 9.735C44.2973 9.585 44.1773 9.415 44.0973 9.225C44.0273 9.035 43.9923 8.835 43.9923 8.625C43.9923 8.285 44.0823 7.985 44.2623 7.725C44.4523 7.465 44.7223 7.235 45.0723 7.035C45.4223 6.835 45.8473 6.655 46.3473 6.495C46.8573 6.325 47.4373 6.16 48.0873 6C48.0673 5.61 47.9873 5.295 47.8473 5.055C47.7073 4.815 47.5423 4.63 47.3523 4.5C47.1623 4.36 46.9623 4.27 46.7523 4.23C46.5423 4.18 46.3623 4.155 46.2123 4.155C45.9523 4.155 45.7223 4.195 45.5223 4.275C45.3223 4.345 45.1473 4.445 44.9973 4.575C44.8473 4.695 44.7223 4.835 44.6223 4.995C44.5323 5.155 44.4623 5.315 44.4123 5.475H44.2773V4.305C44.3673 4.305 44.4723 4.275 44.5923 4.215C44.7123 4.145 44.8523 4.07 45.0123 3.99C45.1823 3.91 45.3823 3.84 45.6123 3.78C45.8523 3.71 46.1373 3.675 46.4673 3.675C47.0173 3.675 47.4623 3.745 47.8023 3.885C48.1423 4.025 48.4023 4.21 48.5823 4.44C48.7723 4.67 48.8973 4.935 48.9573 5.235C49.0173 5.525 49.0473 5.825 49.0473 6.135V9.105C49.0473 9.305 49.0973 9.495 49.1973 9.675C49.2973 9.845 49.4323 9.93 49.6023 9.93V10.08H48.0873ZM48.0873 8.655V6.51L47.9373 6.54C47.6973 6.6 47.4023 6.68 47.0523 6.78C46.7123 6.88 46.3873 7.01 46.0773 7.17C45.7673 7.33 45.5023 7.52 45.2823 7.74C45.0623 7.96 44.9523 8.215 44.9523 8.505C44.9523 8.825 45.0823 9.09 45.3423 9.3C45.6023 9.51 45.9423 9.615 46.3623 9.615C46.6923 9.615 46.9823 9.545 47.2323 9.405C47.4823 9.255 47.7123 9.065 47.9223 8.835L48.0873 8.655ZM56.9678 9.54C56.8878 9.54 56.8128 9.56 56.7428 9.6C56.6728 9.63 56.5928 9.67 56.5028 9.72C56.3328 9.82 56.1078 9.925 55.8278 10.035C55.5478 10.135 55.1978 10.185 54.7778 10.185C54.2678 10.185 53.7978 10.105 53.3678 9.945C52.9478 9.775 52.5828 9.545 52.2728 9.255C51.9628 8.955 51.7228 8.61 51.5528 8.22C51.3828 7.82 51.2978 7.39 51.2978 6.93C51.2978 6.5 51.3728 6.09 51.5228 5.7C51.6828 5.31 51.9078 4.965 52.1978 4.665C52.4878 4.365 52.8428 4.125 53.2628 3.945C53.6928 3.765 54.1778 3.675 54.7178 3.675C55.0878 3.675 55.3878 3.72 55.6178 3.81C55.8478 3.89 56.0428 3.97 56.2028 4.05C56.2928 4.1 56.3778 4.14 56.4578 4.17C56.5478 4.2 56.6378 4.215 56.7278 4.215V5.355H56.5778C56.5278 5.165 56.4378 5 56.3078 4.86C56.1778 4.71 56.0278 4.585 55.8578 4.485C55.6878 4.385 55.5028 4.31 55.3028 4.26C55.1028 4.21 54.9078 4.185 54.7178 4.185C54.3078 4.185 53.9478 4.26 53.6378 4.41C53.3278 4.55 53.0728 4.74 52.8728 4.98C52.6728 5.21 52.5228 5.475 52.4228 5.775C52.3228 6.075 52.2728 6.385 52.2728 6.705C52.2728 7.075 52.3278 7.44 52.4378 7.8C52.5578 8.15 52.7228 8.465 52.9328 8.745C53.1528 9.025 53.4178 9.25 53.7278 9.42C54.0478 9.59 54.4078 9.675 54.8078 9.675C55.0878 9.675 55.3478 9.635 55.5878 9.555C55.8278 9.475 56.0328 9.37 56.2028 9.24C56.3828 9.11 56.5228 8.97 56.6228 8.82C56.7328 8.66 56.7978 8.51 56.8178 8.37H56.9678V9.54ZM63.486 5.355C63.486 5.245 63.466 5.125 63.426 4.995C63.386 4.865 63.326 4.75 63.246 4.65C63.166 4.54 63.066 4.45 62.946 4.38C62.826 4.31 62.686 4.275 62.526 4.275H61.206V9.105C61.206 9.185 61.216 9.27 61.236 9.36C61.256 9.45 61.286 9.54 61.326 9.63C61.376 9.71 61.426 9.78 61.476 9.84C61.536 9.9 61.606 9.93 61.686 9.93V10.08H59.736V9.93C59.816 9.93 59.886 9.9 59.946 9.84C60.006 9.78 60.056 9.71 60.096 9.63C60.146 9.55 60.181 9.465 60.201 9.375C60.221 9.275 60.231 9.185 60.231 9.105V4.275H58.941C58.781 4.275 58.641 4.31 58.521 4.38C58.401 4.45 58.301 4.54 58.221 4.65C58.151 4.75 58.096 4.865 58.056 4.995C58.016 5.125 57.996 5.245 57.996 5.355H57.846V3.78H63.621V5.355H63.486ZM68.8904 10.08V9.315L68.8154 9.39C68.5654 9.64 68.2754 9.835 67.9454 9.975C67.6254 10.115 67.2354 10.185 66.7754 10.185C66.4254 10.185 66.1254 10.145 65.8754 10.065C65.6254 9.985 65.4204 9.875 65.2604 9.735C65.1004 9.585 64.9804 9.415 64.9004 9.225C64.8304 9.035 64.7954 8.835 64.7954 8.625C64.7954 8.285 64.8854 7.985 65.0654 7.725C65.2554 7.465 65.5254 7.235 65.8754 7.035C66.2254 6.835 66.6504 6.655 67.1504 6.495C67.6604 6.325 68.2404 6.16 68.8904 6C68.8704 5.61 68.7904 5.295 68.6504 5.055C68.5104 4.815 68.3454 4.63 68.1554 4.5C67.9654 4.36 67.7654 4.27 67.5554 4.23C67.3454 4.18 67.1654 4.155 67.0154 4.155C66.7554 4.155 66.5254 4.195 66.3254 4.275C66.1254 4.345 65.9504 4.445 65.8004 4.575C65.6504 4.695 65.5254 4.835 65.4254 4.995C65.3354 5.155 65.2654 5.315 65.2154 5.475H65.0804V4.305C65.1704 4.305 65.2754 4.275 65.3954 4.215C65.5154 4.145 65.6554 4.07 65.8154 3.99C65.9854 3.91 66.1854 3.84 66.4154 3.78C66.6554 3.71 66.9404 3.675 67.2704 3.675C67.8204 3.675 68.2654 3.745 68.6054 3.885C68.9454 4.025 69.2054 4.21 69.3854 4.44C69.5754 4.67 69.7004 4.935 69.7604 5.235C69.8204 5.525 69.8504 5.825 69.8504 6.135V9.105C69.8504 9.305 69.9004 9.495 70.0004 9.675C70.1004 9.845 70.2354 9.93 70.4054 9.93V10.08H68.8904ZM68.8904 8.655V6.51L68.7404 6.54C68.5004 6.6 68.2054 6.68 67.8554 6.78C67.5154 6.88 67.1904 7.01 66.8804 7.17C66.5704 7.33 66.3054 7.52 66.0854 7.74C65.8654 7.96 65.7554 8.215 65.7554 8.505C65.7554 8.825 65.8854 9.09 66.1454 9.3C66.4054 9.51 66.7454 9.615 67.1654 9.615C67.4954 9.615 67.7854 9.545 68.0354 9.405C68.2854 9.255 68.5154 9.065 68.7254 8.835L68.8904 8.655ZM77.7709 9.54C77.6909 9.54 77.6159 9.56 77.5459 9.6C77.4759 9.63 77.3959 9.67 77.3059 9.72C77.1359 9.82 76.9109 9.925 76.6309 10.035C76.3509 10.135 76.0009 10.185 75.5809 10.185C75.0709 10.185 74.6009 10.105 74.1709 9.945C73.7509 9.775 73.3859 9.545 73.0759 9.255C72.7659 8.955 72.5259 8.61 72.3559 8.22C72.1859 7.82 72.1009 7.39 72.1009 6.93C72.1009 6.5 72.1759 6.09 72.3259 5.7C72.4859 5.31 72.7109 4.965 73.0009 4.665C73.2909 4.365 73.6459 4.125 74.0659 3.945C74.4959 3.765 74.9809 3.675 75.5209 3.675C75.8909 3.675 76.1909 3.72 76.4209 3.81C76.6509 3.89 76.8459 3.97 77.0059 4.05C77.0959 4.1 77.1809 4.14 77.2609 4.17C77.3509 4.2 77.4409 4.215 77.5309 4.215V5.355H77.3809C77.3309 5.165 77.2409 5 77.1109 4.86C76.9809 4.71 76.8309 4.585 76.6609 4.485C76.4909 4.385 76.3059 4.31 76.1059 4.26C75.9059 4.21 75.7109 4.185 75.5209 4.185C75.1109 4.185 74.7509 4.26 74.4409 4.41C74.1309 4.55 73.8759 4.74 73.6759 4.98C73.4759 5.21 73.3259 5.475 73.2259 5.775C73.1259 6.075 73.0759 6.385 73.0759 6.705C73.0759 7.075 73.1309 7.44 73.2409 7.8C73.3609 8.15 73.5259 8.465 73.7359 8.745C73.9559 9.025 74.2209 9.25 74.5309 9.42C74.8509 9.59 75.2109 9.675 75.6109 9.675C75.8909 9.675 76.1509 9.635 76.3909 9.555C76.6309 9.475 76.8359 9.37 77.0059 9.24C77.1859 9.11 77.3259 8.97 77.4259 8.82C77.5359 8.66 77.6009 8.51 77.6209 8.37H77.7709V9.54ZM85.2341 9.105C85.2341 9.185 85.2441 9.275 85.2641 9.375C85.2941 9.465 85.3291 9.55 85.3691 9.63C85.4091 9.71 85.4591 9.78 85.5191 9.84C85.5891 9.9 85.6541 9.93 85.7141 9.93V10.08H83.7941V9.93C83.8641 9.93 83.9291 9.905 83.9891 9.855C84.0491 9.795 84.0991 9.725 84.1391 9.645C84.1791 9.555 84.2091 9.465 84.2291 9.375C84.2491 9.275 84.2591 9.185 84.2591 9.105V5.505L80.6891 9V9.105C80.6891 9.185 80.6991 9.275 80.7191 9.375C80.7391 9.465 80.7691 9.55 80.8091 9.63C80.8491 9.71 80.8941 9.78 80.9441 9.84C81.0041 9.9 81.0691 9.93 81.1391 9.93V10.08H79.2341V9.93C79.3041 9.93 79.3691 9.905 79.4291 9.855C79.4891 9.795 79.5391 9.725 79.5791 9.645C79.6191 9.555 79.6491 9.465 79.6691 9.375C79.6891 9.275 79.6991 9.185 79.6991 9.105V4.71C79.6991 4.64 79.6891 4.56 79.6691 4.47C79.6491 4.38 79.6191 4.295 79.5791 4.215C79.5391 4.135 79.4891 4.07 79.4291 4.02C79.3691 3.96 79.3041 3.93 79.2341 3.93V3.78H81.1391V3.93C81.0591 3.93 80.9891 3.96 80.9291 4.02C80.8791 4.07 80.8341 4.135 80.7941 4.215C80.7641 4.295 80.7391 4.38 80.7191 4.47C80.6991 4.56 80.6891 4.64 80.6891 4.71V8.295L84.2591 4.8V4.71C84.2591 4.64 84.2491 4.56 84.2291 4.47C84.2091 4.38 84.1791 4.295 84.1391 4.215C84.0991 4.135 84.0491 4.07 83.9891 4.02C83.9291 3.96 83.8641 3.93 83.7941 3.93V3.78H85.7141V3.93C85.6341 3.93 85.5591 3.96 85.4891 4.02C85.4291 4.07 85.3791 4.135 85.3391 4.215C85.3091 4.295 85.2841 4.38 85.2641 4.47C85.2441 4.56 85.2341 4.64 85.2341 4.71V9.105ZM92.3935 9.105C92.3935 9.185 92.4035 9.275 92.4235 9.375C92.4435 9.465 92.4735 9.555 92.5135 9.645C92.5635 9.725 92.6135 9.795 92.6635 9.855C92.7235 9.905 92.7935 9.93 92.8735 9.93V10.08H90.9235V9.93C90.9935 9.93 91.0585 9.9 91.1185 9.84C91.1785 9.78 91.2285 9.71 91.2685 9.63C91.3185 9.55 91.3535 9.465 91.3735 9.375C91.3935 9.275 91.4035 9.185 91.4035 9.105V7.005C91.2935 7.025 91.1685 7.085 91.0285 7.185C90.8885 7.275 90.7435 7.395 90.5935 7.545C90.4435 7.685 90.2985 7.84 90.1585 8.01C90.0185 8.18 89.8885 8.35 89.7685 8.52C89.6685 8.66 89.5835 8.775 89.5135 8.865C89.4435 8.955 89.3835 9.04 89.3335 9.12C89.2335 9.25 89.1335 9.375 89.0335 9.495C88.9335 9.605 88.8185 9.705 88.6885 9.795C88.5685 9.885 88.4235 9.955 88.2535 10.005C88.0835 10.055 87.8835 10.08 87.6535 10.08H87.0985V9.93C87.2185 9.93 87.3385 9.895 87.4585 9.825C87.5885 9.755 87.7135 9.67 87.8335 9.57C87.9535 9.46 88.0635 9.345 88.1635 9.225C88.2735 9.095 88.3685 8.975 88.4485 8.865L88.9135 8.22C89.0835 7.99 89.2585 7.765 89.4385 7.545C89.6185 7.315 89.8235 7.135 90.0535 7.005C89.6935 6.995 89.3735 6.945 89.0935 6.855C88.8135 6.765 88.5785 6.645 88.3885 6.495C88.1985 6.345 88.0535 6.175 87.9535 5.985C87.8635 5.785 87.8185 5.575 87.8185 5.355C87.8185 5.145 87.8635 4.945 87.9535 4.755C88.0535 4.565 88.2085 4.4 88.4185 4.26C88.6285 4.11 88.8935 3.995 89.2135 3.915C89.5435 3.825 89.9385 3.78 90.3985 3.78H92.8735V3.93C92.7935 3.93 92.7235 3.96 92.6635 4.02C92.6135 4.07 92.5635 4.135 92.5135 4.215C92.4735 4.295 92.4435 4.38 92.4235 4.47C92.4035 4.56 92.3935 4.64 92.3935 4.71V9.105ZM88.7935 5.265C88.7935 5.415 88.8385 5.565 88.9285 5.715C89.0285 5.865 89.1585 6 89.3185 6.12C89.4885 6.24 89.6785 6.34 89.8885 6.42C90.0985 6.49 90.3235 6.525 90.5635 6.525H91.4035V4.26H90.4285C89.8285 4.26 89.4035 4.355 89.1535 4.545C88.9135 4.735 88.7935 4.975 88.7935 5.265ZM3.30005 19.8H5.85005V20.52H3.30005V23.07H2.56505V20.52H5.18821e-05V19.8H2.56505V17.235H3.30005V19.8ZM9.642 25.08H8.937L12.162 16.695H8.247C8.127 16.695 8.002 16.705 7.872 16.725C7.752 16.735 7.637 16.77 7.527 16.83C7.427 16.88 7.342 16.965 7.272 17.085C7.212 17.195 7.182 17.345 7.182 17.535H7.032V15.855H13.182L9.642 25.08ZM20.9246 26.445C20.1246 25.515 19.5146 24.545 19.0946 23.535C18.6846 22.525 18.4796 21.405 18.4796 20.175C18.4796 19.545 18.5296 18.95 18.6296 18.39C18.7396 17.83 18.8946 17.295 19.0946 16.785C19.2946 16.275 19.5446 15.785 19.8446 15.315C20.1546 14.845 20.5046 14.38 20.8946 13.92L21.0296 13.995C20.7096 14.445 20.4496 14.915 20.2496 15.405C20.0496 15.895 19.8896 16.4 19.7696 16.92C19.6596 17.44 19.5846 17.975 19.5446 18.525C19.5046 19.075 19.4846 19.63 19.4846 20.19C19.4846 20.73 19.5046 21.27 19.5446 21.81C19.5846 22.35 19.6596 22.885 19.7696 23.415C19.8896 23.935 20.0496 24.445 20.2496 24.945C20.4596 25.445 20.7296 25.92 21.0596 26.37L20.9246 26.445ZM22.6455 20.43C22.6455 19.66 22.7405 18.98 22.9305 18.39C23.1305 17.8 23.3905 17.31 23.7105 16.92C24.0305 16.52 24.3905 16.22 24.7905 16.02C25.2005 15.81 25.6155 15.705 26.0355 15.705C26.4555 15.705 26.8705 15.81 27.2805 16.02C27.6905 16.22 28.0505 16.52 28.3605 16.92C28.6805 17.31 28.9355 17.8 29.1255 18.39C29.3255 18.98 29.4255 19.66 29.4255 20.43C29.4255 21.21 29.3255 21.9 29.1255 22.5C28.9355 23.09 28.6805 23.59 28.3605 24C28.0505 24.4 27.6905 24.705 27.2805 24.915C26.8705 25.125 26.4555 25.23 26.0355 25.23C25.6155 25.23 25.2005 25.125 24.7905 24.915C24.3905 24.705 24.0305 24.4 23.7105 24C23.3905 23.59 23.1305 23.09 22.9305 22.5C22.7405 21.9 22.6455 21.21 22.6455 20.43ZM28.4805 20.82C28.4805 20.1 28.4005 19.465 28.2405 18.915C28.0805 18.355 27.8705 17.89 27.6105 17.52C27.3605 17.14 27.0705 16.855 26.7405 16.665C26.4205 16.465 26.0905 16.365 25.7505 16.365C25.4105 16.365 25.1005 16.465 24.8205 16.665C24.5505 16.855 24.3205 17.11 24.1305 17.43C23.9405 17.75 23.7905 18.12 23.6805 18.54C23.5805 18.96 23.5305 19.4 23.5305 19.86C23.5305 20.41 23.5955 20.97 23.7255 21.54C23.8555 22.1 24.0405 22.61 24.2805 23.07C24.5205 23.52 24.8055 23.89 25.1355 24.18C25.4755 24.47 25.8455 24.615 26.2455 24.615C26.5355 24.615 26.8155 24.535 27.0855 24.375C27.3555 24.205 27.5905 23.96 27.7905 23.64C28.0005 23.32 28.1655 22.925 28.2855 22.455C28.4155 21.985 28.4805 21.44 28.4805 20.82ZM31.0935 20.43C31.0935 19.66 31.1885 18.98 31.3785 18.39C31.5785 17.8 31.8385 17.31 32.1585 16.92C32.4785 16.52 32.8385 16.22 33.2385 16.02C33.6485 15.81 34.0635 15.705 34.4835 15.705C34.9035 15.705 35.3185 15.81 35.7285 16.02C36.1385 16.22 36.4985 16.52 36.8085 16.92C37.1285 17.31 37.3835 17.8 37.5735 18.39C37.7735 18.98 37.8735 19.66 37.8735 20.43C37.8735 21.21 37.7735 21.9 37.5735 22.5C37.3835 23.09 37.1285 23.59 36.8085 24C36.4985 24.4 36.1385 24.705 35.7285 24.915C35.3185 25.125 34.9035 25.23 34.4835 25.23C34.0635 25.23 33.6485 25.125 33.2385 24.915C32.8385 24.705 32.4785 24.4 32.1585 24C31.8385 23.59 31.5785 23.09 31.3785 22.5C31.1885 21.9 31.0935 21.21 31.0935 20.43ZM36.9285 20.82C36.9285 20.1 36.8485 19.465 36.6885 18.915C36.5285 18.355 36.3185 17.89 36.0585 17.52C35.8085 17.14 35.5185 16.855 35.1885 16.665C34.8685 16.465 34.5385 16.365 34.1985 16.365C33.8585 16.365 33.5485 16.465 33.2685 16.665C32.9985 16.855 32.7685 17.11 32.5785 17.43C32.3885 17.75 32.2385 18.12 32.1285 18.54C32.0285 18.96 31.9785 19.4 31.9785 19.86C31.9785 20.41 32.0435 20.97 32.1735 21.54C32.3035 22.1 32.4885 22.61 32.7285 23.07C32.9685 23.52 33.2535 23.89 33.5835 24.18C33.9235 24.47 34.2935 24.615 34.6935 24.615C34.9835 24.615 35.2635 24.535 35.5335 24.375C35.8035 24.205 36.0385 23.96 36.2385 23.64C36.4485 23.32 36.6135 22.925 36.7335 22.455C36.8635 21.985 36.9285 21.44 36.9285 20.82ZM39.5416 20.43C39.5416 19.66 39.6366 18.98 39.8266 18.39C40.0266 17.8 40.2866 17.31 40.6066 16.92C40.9266 16.52 41.2866 16.22 41.6866 16.02C42.0966 15.81 42.5116 15.705 42.9316 15.705C43.3516 15.705 43.7666 15.81 44.1766 16.02C44.5866 16.22 44.9466 16.52 45.2566 16.92C45.5766 17.31 45.8316 17.8 46.0216 18.39C46.2216 18.98 46.3216 19.66 46.3216 20.43C46.3216 21.21 46.2216 21.9 46.0216 22.5C45.8316 23.09 45.5766 23.59 45.2566 24C44.9466 24.4 44.5866 24.705 44.1766 24.915C43.7666 25.125 43.3516 25.23 42.9316 25.23C42.5116 25.23 42.0966 25.125 41.6866 24.915C41.2866 24.705 40.9266 24.4 40.6066 24C40.2866 23.59 40.0266 23.09 39.8266 22.5C39.6366 21.9 39.5416 21.21 39.5416 20.43ZM45.3766 20.82C45.3766 20.1 45.2966 19.465 45.1366 18.915C44.9766 18.355 44.7666 17.89 44.5066 17.52C44.2566 17.14 43.9666 16.855 43.6366 16.665C43.3166 16.465 42.9866 16.365 42.6466 16.365C42.3066 16.365 41.9966 16.465 41.7166 16.665C41.4466 16.855 41.2166 17.11 41.0266 17.43C40.8366 17.75 40.6866 18.12 40.5766 18.54C40.4766 18.96 40.4266 19.4 40.4266 19.86C40.4266 20.41 40.4916 20.97 40.6216 21.54C40.7516 22.1 40.9366 22.61 41.1766 23.07C41.4166 23.52 41.7016 23.89 42.0316 24.18C42.3716 24.47 42.7416 24.615 43.1416 24.615C43.4316 24.615 43.7116 24.535 43.9816 24.375C44.2516 24.205 44.4866 23.96 44.6866 23.64C44.8966 23.32 45.0616 22.925 45.1816 22.455C45.3116 21.985 45.3766 21.44 45.3766 20.82ZM47.6896 13.92C48.4996 14.84 49.1096 15.805 49.5196 16.815C49.9296 17.825 50.1346 18.95 50.1346 20.19C50.1346 21.45 49.9296 22.58 49.5196 23.58C49.1096 24.57 48.5096 25.525 47.7196 26.445L47.5846 26.37C47.9046 25.92 48.1646 25.45 48.3646 24.96C48.5746 24.46 48.7346 23.95 48.8446 23.43C48.9646 22.91 49.0446 22.38 49.0846 21.84C49.1246 21.29 49.1446 20.735 49.1446 20.175C49.1446 19.635 49.1246 19.095 49.0846 18.555C49.0446 18.005 48.9646 17.47 48.8446 16.95C48.7246 16.42 48.5596 15.91 48.3496 15.42C48.1496 14.92 47.8846 14.445 47.5546 13.995L47.6896 13.92ZM56.082 20.43C56.082 19.66 56.177 18.98 56.367 18.39C56.567 17.8 56.827 17.31 57.147 16.92C57.467 16.52 57.827 16.22 58.227 16.02C58.637 15.81 59.052 15.705 59.472 15.705C59.892 15.705 60.307 15.81 60.717 16.02C61.127 16.22 61.487 16.52 61.797 16.92C62.117 17.31 62.372 17.8 62.562 18.39C62.762 18.98 62.862 19.66 62.862 20.43C62.862 21.21 62.762 21.9 62.562 22.5C62.372 23.09 62.117 23.59 61.797 24C61.487 24.4 61.127 24.705 60.717 24.915C60.307 25.125 59.892 25.23 59.472 25.23C59.052 25.23 58.637 25.125 58.227 24.915C57.827 24.705 57.467 24.4 57.147 24C56.827 23.59 56.567 23.09 56.367 22.5C56.177 21.9 56.082 21.21 56.082 20.43ZM61.917 20.82C61.917 20.1 61.837 19.465 61.677 18.915C61.517 18.355 61.307 17.89 61.047 17.52C60.797 17.14 60.507 16.855 60.177 16.665C59.857 16.465 59.527 16.365 59.187 16.365C58.847 16.365 58.537 16.465 58.257 16.665C57.987 16.855 57.757 17.11 57.567 17.43C57.377 17.75 57.227 18.12 57.117 18.54C57.017 18.96 56.967 19.4 56.967 19.86C56.967 20.41 57.032 20.97 57.162 21.54C57.292 22.1 57.477 22.61 57.717 23.07C57.957 23.52 58.242 23.89 58.572 24.18C58.912 24.47 59.282 24.615 59.682 24.615C59.972 24.615 60.252 24.535 60.522 24.375C60.792 24.205 61.027 23.96 61.227 23.64C61.437 23.32 61.602 22.925 61.722 22.455C61.852 21.985 61.917 21.44 61.917 20.82ZM64.5301 20.43C64.5301 19.66 64.6251 18.98 64.8151 18.39C65.0151 17.8 65.2751 17.31 65.5951 16.92C65.9151 16.52 66.2751 16.22 66.6751 16.02C67.0851 15.81 67.5001 15.705 67.9201 15.705C68.3401 15.705 68.7551 15.81 69.1651 16.02C69.5751 16.22 69.9351 16.52 70.2451 16.92C70.5651 17.31 70.8201 17.8 71.0101 18.39C71.2101 18.98 71.3101 19.66 71.3101 20.43C71.3101 21.21 71.2101 21.9 71.0101 22.5C70.8201 23.09 70.5651 23.59 70.2451 24C69.9351 24.4 69.5751 24.705 69.1651 24.915C68.7551 25.125 68.3401 25.23 67.9201 25.23C67.5001 25.23 67.0851 25.125 66.6751 24.915C66.2751 24.705 65.9151 24.4 65.5951 24C65.2751 23.59 65.0151 23.09 64.8151 22.5C64.6251 21.9 64.5301 21.21 64.5301 20.43ZM70.3651 20.82C70.3651 20.1 70.2851 19.465 70.1251 18.915C69.9651 18.355 69.7551 17.89 69.4951 17.52C69.2451 17.14 68.9551 16.855 68.6251 16.665C68.3051 16.465 67.9751 16.365 67.6351 16.365C67.2951 16.365 66.9851 16.465 66.7051 16.665C66.4351 16.855 66.2051 17.11 66.0151 17.43C65.8251 17.75 65.6751 18.12 65.5651 18.54C65.4651 18.96 65.4151 19.4 65.4151 19.86C65.4151 20.41 65.4801 20.97 65.6101 21.54C65.7401 22.1 65.9251 22.61 66.1651 23.07C66.4051 23.52 66.6901 23.89 67.0201 24.18C67.3601 24.47 67.7301 24.615 68.1301 24.615C68.4201 24.615 68.7001 24.535 68.9701 24.375C69.2401 24.205 69.4751 23.96 69.6751 23.64C69.8851 23.32 70.0501 22.925 70.1701 22.455C70.3001 21.985 70.3651 21.44 70.3651 20.82ZM72.9781 20.43C72.9781 19.66 73.0731 18.98 73.2631 18.39C73.4631 17.8 73.7231 17.31 74.0431 16.92C74.3631 16.52 74.7231 16.22 75.1231 16.02C75.5331 15.81 75.9481 15.705 76.3681 15.705C76.7881 15.705 77.2031 15.81 77.6131 16.02C78.0231 16.22 78.3831 16.52 78.6931 16.92C79.0131 17.31 79.2681 17.8 79.4581 18.39C79.6581 18.98 79.7581 19.66 79.7581 20.43C79.7581 21.21 79.6581 21.9 79.4581 22.5C79.2681 23.09 79.0131 23.59 78.6931 24C78.3831 24.4 78.0231 24.705 77.6131 24.915C77.2031 25.125 76.7881 25.23 76.3681 25.23C75.9481 25.23 75.5331 25.125 75.1231 24.915C74.7231 24.705 74.3631 24.4 74.0431 24C73.7231 23.59 73.4631 23.09 73.2631 22.5C73.0731 21.9 72.9781 21.21 72.9781 20.43ZM78.8131 20.82C78.8131 20.1 78.7331 19.465 78.5731 18.915C78.4131 18.355 78.2031 17.89 77.9431 17.52C77.6931 17.14 77.4031 16.855 77.0731 16.665C76.7531 16.465 76.4231 16.365 76.0831 16.365C75.7431 16.365 75.4331 16.465 75.1531 16.665C74.8831 16.855 74.6531 17.11 74.4631 17.43C74.2731 17.75 74.1231 18.12 74.0131 18.54C73.9131 18.96 73.8631 19.4 73.8631 19.86C73.8631 20.41 73.9281 20.97 74.0581 21.54C74.1881 22.1 74.3731 22.61 74.6131 23.07C74.8531 23.52 75.1381 23.89 75.4681 24.18C75.8081 24.47 76.1781 24.615 76.5781 24.615C76.8681 24.615 77.1481 24.535 77.4181 24.375C77.6881 24.205 77.9231 23.96 78.1231 23.64C78.3331 23.32 78.4981 22.925 78.6181 22.455C78.7481 21.985 78.8131 21.44 78.8131 20.82ZM91.1276 22.275C91.1276 22.625 91.0576 22.98 90.9176 23.34C90.7876 23.69 90.5876 24.005 90.3176 24.285C90.0476 24.565 89.7026 24.795 89.2826 24.975C88.8726 25.145 88.3926 25.23 87.8426 25.23C87.5726 25.23 87.3076 25.2 87.0476 25.14C86.7876 25.08 86.5426 25.02 86.3126 24.96C86.1426 24.91 85.9876 24.87 85.8476 24.84C85.7076 24.8 85.5826 24.78 85.4726 24.78V23.595C85.7326 23.945 86.0726 24.22 86.4926 24.42C86.9226 24.62 87.3526 24.72 87.7826 24.72C88.1726 24.72 88.5126 24.66 88.8026 24.54C89.0926 24.42 89.3326 24.26 89.5226 24.06C89.7226 23.85 89.8676 23.605 89.9576 23.325C90.0576 23.035 90.1076 22.725 90.1076 22.395C90.1076 21.995 90.0376 21.645 89.8976 21.345C89.7676 21.045 89.5926 20.795 89.3726 20.595C89.1526 20.385 88.8976 20.23 88.6076 20.13C88.3276 20.03 88.0426 19.98 87.7526 19.98C87.4326 19.98 87.0826 20.055 86.7026 20.205C86.3226 20.345 85.9326 20.57 85.5326 20.88L87.4526 15.855H91.2026L90.9026 16.695H87.7676C87.5976 17.145 87.4126 17.61 87.2126 18.09C87.0226 18.57 86.8426 19.04 86.6726 19.5C86.9126 19.39 87.1376 19.315 87.3476 19.275C87.5576 19.235 87.7826 19.215 88.0226 19.215C88.4226 19.215 88.8076 19.285 89.1776 19.425C89.5476 19.565 89.8776 19.765 90.1676 20.025C90.4576 20.285 90.6876 20.605 90.8576 20.985C91.0376 21.365 91.1276 21.795 91.1276 22.275ZM92.8144 20.43C92.8144 19.66 92.9094 18.98 93.0994 18.39C93.2994 17.8 93.5594 17.31 93.8794 16.92C94.1994 16.52 94.5594 16.22 94.9594 16.02C95.3694 15.81 95.7844 15.705 96.2044 15.705C96.6244 15.705 97.0394 15.81 97.4494 16.02C97.8594 16.22 98.2194 16.52 98.5294 16.92C98.8494 17.31 99.1044 17.8 99.2944 18.39C99.4944 18.98 99.5944 19.66 99.5944 20.43C99.5944 21.21 99.4944 21.9 99.2944 22.5C99.1044 23.09 98.8494 23.59 98.5294 24C98.2194 24.4 97.8594 24.705 97.4494 24.915C97.0394 25.125 96.6244 25.23 96.2044 25.23C95.7844 25.23 95.3694 25.125 94.9594 24.915C94.5594 24.705 94.1994 24.4 93.8794 24C93.5594 23.59 93.2994 23.09 93.0994 22.5C92.9094 21.9 92.8144 21.21 92.8144 20.43ZM98.6494 20.82C98.6494 20.1 98.5694 19.465 98.4094 18.915C98.2494 18.355 98.0394 17.89 97.7794 17.52C97.5294 17.14 97.2394 16.855 96.9094 16.665C96.5894 16.465 96.2594 16.365 95.9194 16.365C95.5794 16.365 95.2694 16.465 94.9894 16.665C94.7194 16.855 94.4894 17.11 94.2994 17.43C94.1094 17.75 93.9594 18.12 93.8494 18.54C93.7494 18.96 93.6994 19.4 93.6994 19.86C93.6994 20.41 93.7644 20.97 93.8944 21.54C94.0244 22.1 94.2094 22.61 94.4494 23.07C94.6894 23.52 94.9744 23.89 95.3044 24.18C95.6444 24.47 96.0144 24.615 96.4144 24.615C96.7044 24.615 96.9844 24.535 97.2544 24.375C97.5244 24.205 97.7594 23.96 97.9594 23.64C98.1694 23.32 98.3344 22.925 98.4544 22.455C98.5844 21.985 98.6494 21.44 98.6494 20.82ZM110.964 22.275C110.964 22.625 110.894 22.98 110.754 23.34C110.624 23.69 110.424 24.005 110.154 24.285C109.884 24.565 109.539 24.795 109.119 24.975C108.709 25.145 108.229 25.23 107.679 25.23C107.409 25.23 107.144 25.2 106.884 25.14C106.624 25.08 106.379 25.02 106.149 24.96C105.979 24.91 105.824 24.87 105.684 24.84C105.544 24.8 105.419 24.78 105.309 24.78V23.595C105.569 23.945 105.909 24.22 106.329 24.42C106.759 24.62 107.189 24.72 107.619 24.72C108.009 24.72 108.349 24.66 108.639 24.54C108.929 24.42 109.169 24.26 109.359 24.06C109.559 23.85 109.704 23.605 109.794 23.325C109.894 23.035 109.944 22.725 109.944 22.395C109.944 21.995 109.874 21.645 109.734 21.345C109.604 21.045 109.429 20.795 109.209 20.595C108.989 20.385 108.734 20.23 108.444 20.13C108.164 20.03 107.879 19.98 107.589 19.98C107.269 19.98 106.919 20.055 106.539 20.205C106.159 20.345 105.769 20.57 105.369 20.88L107.289 15.855H111.039L110.739 16.695H107.604C107.434 17.145 107.249 17.61 107.049 18.09C106.859 18.57 106.679 19.04 106.509 19.5C106.749 19.39 106.974 19.315 107.184 19.275C107.394 19.235 107.619 19.215 107.859 19.215C108.259 19.215 108.644 19.285 109.014 19.425C109.384 19.565 109.714 19.765 110.004 20.025C110.294 20.285 110.524 20.605 110.694 20.985C110.874 21.365 110.964 21.795 110.964 22.275ZM112.651 20.43C112.651 19.66 112.746 18.98 112.936 18.39C113.136 17.8 113.396 17.31 113.716 16.92C114.036 16.52 114.396 16.22 114.796 16.02C115.206 15.81 115.621 15.705 116.041 15.705C116.461 15.705 116.876 15.81 117.286 16.02C117.696 16.22 118.056 16.52 118.366 16.92C118.686 17.31 118.941 17.8 119.131 18.39C119.331 18.98 119.431 19.66 119.431 20.43C119.431 21.21 119.331 21.9 119.131 22.5C118.941 23.09 118.686 23.59 118.366 24C118.056 24.4 117.696 24.705 117.286 24.915C116.876 25.125 116.461 25.23 116.041 25.23C115.621 25.23 115.206 25.125 114.796 24.915C114.396 24.705 114.036 24.4 113.716 24C113.396 23.59 113.136 23.09 112.936 22.5C112.746 21.9 112.651 21.21 112.651 20.43ZM118.486 20.82C118.486 20.1 118.406 19.465 118.246 18.915C118.086 18.355 117.876 17.89 117.616 17.52C117.366 17.14 117.076 16.855 116.746 16.665C116.426 16.465 116.096 16.365 115.756 16.365C115.416 16.365 115.106 16.465 114.826 16.665C114.556 16.855 114.326 17.11 114.136 17.43C113.946 17.75 113.796 18.12 113.686 18.54C113.586 18.96 113.536 19.4 113.536 19.86C113.536 20.41 113.601 20.97 113.731 21.54C113.861 22.1 114.046 22.61 114.286 23.07C114.526 23.52 114.811 23.89 115.141 24.18C115.481 24.47 115.851 24.615 116.251 24.615C116.541 24.615 116.821 24.535 117.091 24.375C117.361 24.205 117.596 23.96 117.796 23.64C118.006 23.32 118.171 22.925 118.291 22.455C118.421 21.985 118.486 21.44 118.486 20.82Z" fill="#281814"></path></svg> 