<?xml version="1.0" encoding="UTF-8"?> <svg xmlns="http://www.w3.org/2000/svg" width="133" height="63" viewBox="0 0 133 63" fill="none"><path d="M71.5649 1.105C71.4999 1.43 70.7199 1.17 69.4199 1.625C68.5749 1.885 67.5349 2.34 66.2999 3.055C65.0649 3.77 64.1549 4.355 63.5699 4.875C64.8049 6.24 65.7149 8.45 65.7149 10.985C65.7149 12.61 65.1299 14.755 64.0249 16.38C62.7899 18.135 60.9699 19.63 58.5649 20.8C56.2249 21.905 53.8199 22.49 51.3499 22.425C50.5049 25.09 49.6599 28.08 48.8149 32.175C48.2949 34.84 48.0349 37.05 48.0349 38.415C48.0349 41.275 49.1399 41.925 50.2449 41.925C51.0249 41.925 51.8049 41.665 52.8449 40.625C53.0399 40.43 53.1699 40.365 53.3649 40.43C53.4299 40.495 53.4299 40.82 53.2349 41.015C51.8699 42.9 49.6599 43.94 48.0349 43.875C45.6299 43.875 44.3949 42.445 44.3949 39.65C44.3949 36.985 45.0449 34.385 45.8249 31.85C46.4099 30.095 47.0599 28.34 47.9049 26.455L49.7249 22.36C49.2049 22.295 48.5549 21.84 48.5549 21.515C48.5549 21.19 48.8799 20.8 49.3349 20.8C49.9199 20.8 50.7649 21.19 51.2199 21.71C54.6649 21.97 58.7599 19.695 61.9449 15.015C63.5049 12.87 63.9599 10.725 63.9599 9.1C63.9599 7.475 63.4399 5.915 62.9199 5.33C59.5399 7.865 56.5499 10.79 53.9499 13.975C51.3499 17.16 49.1399 19.76 47.2549 21.905C40.5599 29.38 34.6449 34.515 29.5099 37.18C24.3749 39.845 19.6949 41.405 15.5349 41.86L20.8649 42.575C23.1399 42.835 24.9599 42.965 26.3249 42.965C29.9649 42.965 32.8899 41.86 34.2549 39.78C34.3199 39.585 34.4499 39.39 34.6449 39.455C34.8399 39.52 34.7099 40.3 34.6449 40.625C33.7999 45.825 29.1849 49.53 22.8799 49.53C17.9399 49.53 13.7149 47.255 11.8949 42.575C9.2949 42.9 5.6549 44.265 2.7949 44.265C1.1699 44.265 0.194902 44.005 0.129902 43.29C-9.78112e-05 42.445 0.649902 41.925 2.0149 41.665C3.3799 41.34 4.6149 41.21 5.7199 41.21C7.4749 41.21 9.6199 41.405 11.6349 41.47C11.1149 39.845 10.8549 37.7 10.8549 35.425C10.8549 31.2 11.8949 26.91 13.9099 22.49C15.9249 18.07 18.7849 14.17 22.4249 10.79C29.9649 3.965 39.5199 8.9407e-07 49.2049 8.9407e-07C56.0299 8.9407e-07 60.2549 1.885 62.6599 3.965C64.2199 2.925 66.8199 1.56 68.8349 0.975004C69.4199 0.910001 70.0699 0.715003 70.5899 0.715003C71.1749 0.715003 71.6299 0.845002 71.5649 1.105ZM62.0749 4.42C59.6699 2.275 54.7949 1.105 50.1149 1.105C45.4999 1.105 40.8849 2.145 36.3999 4.16C31.9149 6.175 28.0149 8.775 24.6999 11.83C20.9299 15.34 17.8099 19.435 15.4049 24.115C12.9999 28.73 11.8299 32.825 11.8949 36.4C11.8949 38.285 12.0899 39.91 12.5449 41.47C17.6799 41.47 22.7499 39.52 27.8849 35.555C33.0199 31.59 38.0899 26.78 43.1599 21.255C48.8799 15.015 55.5749 8.58 62.0749 4.42ZM33.9949 41.015C31.9799 43.16 30.2899 44.46 26.3249 44.46C22.1649 44.46 18.3299 43.095 14.4299 42.315C13.8449 42.25 13.3899 42.315 12.8699 42.38C14.4949 46.865 18.7199 48.75 22.9449 48.75C28.4049 48.75 32.6949 45.695 33.9949 41.015ZM83.4528 18.525C83.9078 18.525 84.2328 18.72 84.2328 19.175C84.2328 19.76 83.2578 21.19 80.9178 22.815C79.3578 23.92 77.3428 25.025 76.4978 26C75.7828 26.845 75.4578 28.275 75.2628 29.315C74.9378 30.81 74.4828 32.695 73.8978 34.97C73.3128 37.245 71.6228 39.39 68.7628 41.275C71.1028 40.17 73.4428 38.675 75.5228 37.18C77.1478 36.075 78.4478 34.97 80.0078 33.605C80.3328 33.28 80.5928 33.215 80.7878 33.475C81.0478 33.735 80.8528 33.995 80.6578 34.19C79.1628 35.555 77.4078 36.92 75.8478 38.025C73.4428 39.78 70.8428 41.145 69.2178 41.86C66.8128 42.9 64.4728 43.29 62.6528 43.29C60.6378 43.29 59.3378 42.64 59.3378 40.885C59.3378 39.845 60.1178 38.545 61.4828 36.985C62.2628 36.14 63.4328 35.23 64.2778 34.515C65.5778 33.475 66.7478 32.825 67.5928 32.825C70.1928 30.68 73.7028 27.56 75.3278 25.675C76.8878 23.79 78.2528 22.295 79.6178 21.06C81.2428 19.5 82.6078 18.525 83.4528 18.525ZM74.9378 27.105C73.1828 28.99 70.5828 31.33 67.9828 33.475C67.7878 34.06 66.9428 35.035 65.3178 36.075L62.0028 38.22C60.9628 39 60.1178 39.91 60.1178 40.885C60.1178 41.99 61.0928 42.185 61.8728 42.185C63.7578 42.185 66.6178 40.56 69.1528 37.7C70.2578 36.465 71.4278 34.775 72.5978 32.63C73.7678 30.42 74.5478 28.6 74.9378 27.105ZM108.658 24.18C108.658 24.895 107.748 26.13 107.163 26.91C105.928 28.275 104.238 30.03 102.613 31.525C99.7531 34.19 97.5431 36.075 95.9181 37.31C94.3581 38.545 93.0581 39.455 92.0831 40.17C89.9381 41.665 86.9481 43.355 85.0631 43.355C83.3081 43.355 82.4631 42.51 82.4631 41.21C82.3981 39.195 84.1531 36.01 87.0131 33.085C88.2481 31.85 89.9381 30.42 92.2131 28.795C94.4881 27.17 96.8281 25.935 99.2331 25.025C96.4381 25.025 93.9681 25.545 92.3431 26.13C90.7831 26.715 90.3281 27.625 90.0031 27.625C89.9381 27.625 89.8081 27.3 89.8081 26.975C89.8081 26.39 90.5231 25.415 91.8881 24.96C92.9281 24.635 95.3981 24.18 98.3231 24.18C99.2981 24.18 100.338 24.31 101.313 24.375C101.768 24.375 101.833 24.57 101.833 24.635C101.833 24.7 101.638 24.83 101.378 25.025C99.0381 26.52 96.3731 28.6 93.3831 31.33C90.4581 34.06 88.4431 36.075 87.3381 37.375C85.7781 39.26 84.6731 40.95 84.6731 41.795C84.6731 42.12 84.9981 42.445 85.4531 42.445C86.7531 42.445 89.4831 40.755 91.4981 39.39C96.1781 36.075 99.2331 32.955 102.808 28.795C104.108 27.3 104.368 26.39 104.368 25.87C104.368 25.35 104.173 25.025 104.173 24.83C104.173 24.375 106.188 23.53 107.553 23.53C108.268 23.53 108.658 23.66 108.658 24.18ZM116.53 31.785C116.465 31.85 116.595 31.98 116.66 31.915C118.025 30.68 120.17 29.055 123.095 26.91C126.02 24.765 128.23 23.66 129.725 23.66C131.025 23.66 131.61 24.31 131.61 25.35C131.61 28.015 129.4 31.85 126.605 34.645C120.885 40.365 115.75 43.225 111.785 43.225C109.9 43.225 109.315 42.25 109.315 41.47C109.315 41.145 109.38 40.95 109.575 40.95C109.9 40.885 109.9 41.21 110.095 41.47C110.29 41.795 110.615 42.25 111.46 42.25C112.695 42.25 114.06 41.665 115.62 40.495C117.245 39.26 119.91 36.725 123.68 32.89C124.915 31.655 126.215 30.29 127.71 28.665C129.205 27.04 129.985 25.87 129.985 25.155C129.985 24.83 129.66 24.7 129.335 24.7C127.97 24.7 125.435 26.13 121.73 28.99C118.025 31.785 114.905 34.45 112.435 36.92C106.455 42.965 99.6302 50.115 92.3502 60.19C91.5702 61.295 90.9202 62.335 90.5952 62.335C90.0752 62.335 90.2052 60.905 90.4652 60.06C91.0502 57.655 94.1052 53.3 97.8102 48.685C100.995 44.785 104.245 41.145 107.43 37.83C110.615 34.45 112.89 32.045 114.385 30.55C117.44 27.43 121.08 23.595 126.475 20.15C128.62 18.785 130.44 18.395 131.285 18.395C131.61 18.395 132.39 18.46 132.39 18.915C132.39 19.11 131.74 19.11 131.415 19.175C130.115 19.24 128.685 20.085 127.19 21.19C125.565 22.555 123.81 24.18 121.795 26.195C119.78 28.21 118.025 30.03 116.53 31.785Z" fill="white" fill-opacity="0.2"></path></svg> 