<?xml version="1.0" encoding="UTF-8"?> <svg xmlns="http://www.w3.org/2000/svg" width="162" height="23" viewBox="0 0 162 23" fill="none"><path d="M7.22502 19.525H7.35002V19.775H3.80002V19.525H3.92502C4.05836 19.525 4.17502 19.475 4.27502 19.375C4.37502 19.275 4.45836 19.1584 4.52502 19.025C4.60836 18.8917 4.66669 18.75 4.70002 18.6C4.73336 18.4334 4.75002 18.2834 4.75002 18.15V4.20002H1.85002C1.58336 4.20002 1.35002 4.25836 1.15002 4.37502C0.950024 4.49169 0.783358 4.64169 0.650024 4.82502C0.516691 4.99169 0.416691 5.18336 0.350024 5.40002C0.283358 5.60002 0.250024 5.80002 0.250024 6.00002H2.44277e-05V3.27502H11.225V6.00002H10.975C10.975 5.80002 10.9417 5.60002 10.875 5.40002C10.8084 5.18336 10.7084 4.99169 10.575 4.82502C10.4417 4.64169 10.275 4.49169 10.075 4.37502C9.87502 4.25836 9.64169 4.20002 9.37502 4.20002H6.42502V18.15C6.42502 18.2834 6.44169 18.4334 6.47502 18.6C6.50836 18.75 6.55836 18.8917 6.62502 19.025C6.70836 19.1584 6.79169 19.275 6.87502 19.375C6.97502 19.475 7.09169 19.525 7.22502 19.525ZM20.575 19.525H20.7C21.1 19.525 21.3 19.3417 21.3 18.975C21.3 18.8417 21.275 18.7 21.225 18.55L18.975 12.475H14.6L12.425 18.45C12.375 18.5834 12.35 18.7084 12.35 18.825C12.35 19.0417 12.4084 19.2167 12.525 19.35C12.6417 19.4667 12.7667 19.525 12.9 19.525H13.025V19.775H10.25V19.525H10.375C10.5917 19.525 10.8 19.4 11 19.15C11.2167 18.8834 11.3917 18.575 11.525 18.225L17.25 2.97502L22.85 18.075C22.9667 18.4084 23.125 18.7334 23.325 19.05C23.5417 19.3667 23.8167 19.525 24.15 19.525H24.275V19.775H20.575V19.525ZM14.85 11.625H18.7L16.775 6.40002L14.85 11.625ZM36.0461 2.41995e-05C36.0461 0.283357 35.9795 0.575023 35.8461 0.875023C35.7128 1.17502 35.5211 1.45836 35.2711 1.72502C35.0378 1.99169 34.7461 2.20836 34.3961 2.37502C34.0628 2.54169 33.6878 2.62502 33.2711 2.62502C32.8711 2.62502 32.4961 2.55002 32.1461 2.40002C31.8128 2.23336 31.5211 2.02502 31.2711 1.77502C31.0211 1.52502 30.8211 1.24169 30.6711 0.925024C30.5211 0.608357 30.4461 0.300023 30.4461 2.41995e-05H30.5961C30.6128 0.100024 30.6628 0.24169 30.7461 0.425023C30.8461 0.608357 30.9961 0.791691 31.1961 0.975024C31.3961 1.15836 31.6628 1.31669 31.9961 1.45002C32.3295 1.58336 32.7461 1.65002 33.2461 1.65002C33.7628 1.65002 34.1795 1.58336 34.4961 1.45002C34.8295 1.31669 35.0961 1.15836 35.2961 0.975024C35.4961 0.791691 35.6378 0.608357 35.7211 0.425023C35.8045 0.24169 35.8628 0.100024 35.8961 2.41995e-05H36.0461ZM36.4711 19.525H36.5961C36.7295 19.525 36.8461 19.4834 36.9461 19.4C37.0461 19.3 37.1295 19.1834 37.1961 19.05C37.2795 18.9 37.3378 18.75 37.3711 18.6C37.4045 18.4334 37.4211 18.2834 37.4211 18.15V6.70002L29.1211 17.925V18.15C29.1211 18.2834 29.1378 18.4334 29.1711 18.6C29.2211 18.75 29.2795 18.8917 29.3461 19.025C29.4128 19.1584 29.4961 19.275 29.5961 19.375C29.6961 19.475 29.8128 19.525 29.9461 19.525H30.0711V19.775H26.5211V19.525H26.6461C26.7795 19.525 26.8961 19.4834 26.9961 19.4C27.0961 19.3 27.1795 19.1834 27.2461 19.05C27.3295 18.9 27.3878 18.75 27.4211 18.6C27.4545 18.4334 27.4711 18.2834 27.4711 18.15V4.82502C27.4711 4.70836 27.4545 4.57502 27.4211 4.42502C27.3878 4.27502 27.3295 4.13336 27.2461 4.00002C27.1795 3.86669 27.0961 3.75836 26.9961 3.67502C26.8961 3.57502 26.7795 3.52502 26.6461 3.52502H26.5211V3.27502H30.0711V3.52502H29.8711C29.7545 3.54169 29.6461 3.60002 29.5461 3.70002C29.4628 3.80002 29.3878 3.91669 29.3211 4.05002C29.2545 4.16669 29.2045 4.30002 29.1711 4.45002C29.1378 4.58336 29.1211 4.70836 29.1211 4.82502V16.375L37.4211 5.15002V4.82502C37.4211 4.70836 37.4045 4.57502 37.3711 4.42502C37.3378 4.27502 37.2795 4.13336 37.1961 4.00002C37.1295 3.86669 37.0461 3.75836 36.9461 3.67502C36.8461 3.57502 36.7295 3.52502 36.5961 3.52502H36.4711V3.27502H40.0211V3.52502H39.8961C39.7628 3.52502 39.6461 3.57502 39.5461 3.67502C39.4461 3.75836 39.3628 3.86669 39.2961 4.00002C39.2295 4.13336 39.1711 4.27502 39.1211 4.42502C39.0878 4.57502 39.0711 4.70836 39.0711 4.82502V18.15C39.0711 18.2834 39.0878 18.425 39.1211 18.575C39.1711 18.725 39.2295 18.875 39.2961 19.025C39.3628 19.1584 39.4461 19.275 39.5461 19.375C39.6461 19.475 39.7628 19.525 39.8961 19.525H40.0211V19.775H36.4711V19.525ZM56.5903 19.525H56.7153C56.8319 19.525 56.9403 19.475 57.0403 19.375C57.1403 19.275 57.2236 19.1584 57.2903 19.025C57.3736 18.8917 57.4319 18.75 57.4653 18.6C57.4986 18.4334 57.5153 18.2834 57.5153 18.15V5.00002L51.0653 20.05L44.9403 5.77502V18.15C44.9403 18.2834 44.9569 18.4334 44.9903 18.6C45.0236 18.75 45.0736 18.8917 45.1403 19.025C45.2236 19.1584 45.3153 19.275 45.4153 19.375C45.5153 19.475 45.6319 19.525 45.7653 19.525H45.8903V19.775H43.1653V19.525H43.2903C43.4069 19.525 43.5153 19.475 43.6153 19.375C43.7153 19.275 43.7986 19.1584 43.8653 19.025C43.9319 18.8917 43.9819 18.75 44.0153 18.6C44.0486 18.4334 44.0653 18.2834 44.0653 18.15V4.82502C44.0653 4.70836 44.0486 4.57502 44.0153 4.42502C43.9819 4.27502 43.9319 4.13336 43.8653 4.00002C43.7986 3.86669 43.7153 3.75836 43.6153 3.67502C43.5153 3.57502 43.4069 3.52502 43.2903 3.52502H43.1653V3.27502H45.7153L51.5153 16.95L57.3153 3.27502H60.1403V3.52502H60.0153C59.8819 3.52502 59.7653 3.57502 59.6653 3.67502C59.5653 3.75836 59.4736 3.86669 59.3903 4.00002C59.3236 4.13336 59.2736 4.27502 59.2403 4.42502C59.2069 4.57502 59.1903 4.70836 59.1903 4.82502V18.15C59.1903 18.2834 59.2069 18.4334 59.2403 18.6C59.2736 18.75 59.3236 18.8917 59.3903 19.025C59.4736 19.1584 59.5653 19.275 59.6653 19.375C59.7653 19.475 59.8819 19.525 60.0153 19.525H60.1403V19.775H56.5903V19.525ZM73.2739 19.525H73.3989C73.5322 19.525 73.6489 19.4834 73.7489 19.4C73.8489 19.3 73.9322 19.1834 73.9989 19.05C74.0822 18.9 74.1405 18.75 74.1739 18.6C74.2072 18.4334 74.2239 18.2834 74.2239 18.15V6.70002L65.9239 17.925V18.15C65.9239 18.2834 65.9405 18.4334 65.9739 18.6C66.0239 18.75 66.0822 18.8917 66.1489 19.025C66.2155 19.1584 66.2989 19.275 66.3989 19.375C66.4989 19.475 66.6155 19.525 66.7489 19.525H66.8739V19.775H63.3239V19.525H63.4489C63.5822 19.525 63.6989 19.4834 63.7989 19.4C63.8989 19.3 63.9822 19.1834 64.0489 19.05C64.1322 18.9 64.1905 18.75 64.2239 18.6C64.2572 18.4334 64.2739 18.2834 64.2739 18.15V4.82502C64.2739 4.70836 64.2572 4.57502 64.2239 4.42502C64.1905 4.27502 64.1322 4.13336 64.0489 4.00002C63.9822 3.86669 63.8989 3.75836 63.7989 3.67502C63.6989 3.57502 63.5822 3.52502 63.4489 3.52502H63.3239V3.27502H66.8739V3.52502H66.6739C66.5572 3.54169 66.4489 3.60002 66.3489 3.70002C66.2655 3.80002 66.1905 3.91669 66.1239 4.05002C66.0572 4.16669 66.0072 4.30002 65.9739 4.45002C65.9405 4.58336 65.9239 4.70836 65.9239 4.82502V16.375L74.2239 5.15002V4.82502C74.2239 4.70836 74.2072 4.57502 74.1739 4.42502C74.1405 4.27502 74.0822 4.13336 73.9989 4.00002C73.9322 3.86669 73.8489 3.75836 73.7489 3.67502C73.6489 3.57502 73.5322 3.52502 73.3989 3.52502H73.2739V3.27502H76.8239V3.52502H76.6989C76.5655 3.52502 76.4489 3.57502 76.3489 3.67502C76.2489 3.75836 76.1655 3.86669 76.0989 4.00002C76.0322 4.13336 75.9739 4.27502 75.9239 4.42502C75.8905 4.57502 75.8739 4.70836 75.8739 4.82502V18.15C75.8739 18.2834 75.8905 18.425 75.9239 18.575C75.9739 18.725 76.0322 18.875 76.0989 19.025C76.1655 19.1584 76.2489 19.275 76.3489 19.375C76.4489 19.475 76.5655 19.525 76.6989 19.525H76.8239V19.775H73.2739V19.525ZM89.918 19.525H90.043C90.1597 19.525 90.268 19.4834 90.368 19.4C90.468 19.3 90.5513 19.1834 90.618 19.05C90.7013 18.9 90.7597 18.75 90.793 18.6C90.8263 18.4334 90.843 18.2834 90.843 18.15V11.35H82.843V18.15C82.843 18.2834 82.8597 18.4334 82.893 18.6C82.9263 18.75 82.9763 18.8917 83.043 19.025C83.1097 19.1584 83.1847 19.275 83.268 19.375C83.368 19.475 83.4847 19.525 83.618 19.525H83.743V19.775H80.243V19.525H80.368C80.4847 19.525 80.593 19.4834 80.693 19.4C80.793 19.3 80.8763 19.1834 80.943 19.05C81.0263 18.9 81.0847 18.75 81.118 18.6C81.1513 18.4334 81.168 18.2834 81.168 18.15V4.82502C81.168 4.70836 81.1513 4.57502 81.118 4.42502C81.0847 4.27502 81.0347 4.13336 80.968 4.00002C80.9013 3.86669 80.818 3.75836 80.718 3.67502C80.618 3.57502 80.5013 3.52502 80.368 3.52502H80.243V3.27502H83.743V3.52502H83.618C83.4847 3.52502 83.368 3.57502 83.268 3.67502C83.168 3.75836 83.0847 3.86669 83.018 4.00002C82.968 4.13336 82.9263 4.27502 82.893 4.42502C82.8597 4.57502 82.843 4.70836 82.843 4.82502V10.475H90.843V4.82502C90.843 4.70836 90.8263 4.57502 90.793 4.42502C90.7597 4.27502 90.7097 4.13336 90.643 4.00002C90.5763 3.86669 90.493 3.75836 90.393 3.67502C90.293 3.57502 90.1763 3.52502 90.043 3.52502H89.918V3.27502H93.418V3.52502H93.293C93.1597 3.52502 93.043 3.57502 92.943 3.67502C92.843 3.75836 92.7597 3.86669 92.693 4.00002C92.643 4.13336 92.6013 4.27502 92.568 4.42502C92.5347 4.57502 92.518 4.70836 92.518 4.82502V18.15C92.518 18.2834 92.5347 18.4334 92.568 18.6C92.618 18.75 92.6763 18.8917 92.743 19.025C92.8097 19.1584 92.8847 19.275 92.968 19.375C93.068 19.475 93.1763 19.525 93.293 19.525H93.418V19.775H89.918V19.525ZM99.7198 19.525H99.8448V19.775H96.2448V19.525H96.3698C96.5031 19.525 96.6198 19.4834 96.7198 19.4C96.8198 19.3 96.9031 19.1834 96.9698 19.05C97.0531 18.9167 97.1114 18.775 97.1448 18.625C97.1781 18.475 97.1948 18.3334 97.1948 18.2V4.82502C97.1948 4.70836 97.1781 4.57502 97.1448 4.42502C97.1114 4.27502 97.0531 4.13336 96.9698 4.00002C96.9031 3.86669 96.8198 3.75836 96.7198 3.67502C96.6198 3.57502 96.5031 3.52502 96.3698 3.52502H96.2448V3.27502H105.87V5.92502H105.62C105.62 5.32502 105.486 4.88336 105.22 4.60002C104.97 4.30002 104.57 4.15002 104.02 4.15002H98.8948V18.2C98.8948 18.3334 98.9114 18.475 98.9448 18.625C98.9781 18.775 99.0281 18.9167 99.0948 19.05C99.1781 19.1834 99.2698 19.3 99.3698 19.4C99.4698 19.4834 99.5864 19.525 99.7198 19.525ZM130.747 18.9V22.025H130.497C130.48 21.8084 130.422 21.5667 130.322 21.3C130.222 21.0334 130.08 20.7834 129.897 20.55C129.73 20.3334 129.53 20.15 129.297 20C129.063 19.85 128.805 19.775 128.522 19.775H116.997C116.713 19.775 116.455 19.85 116.222 20C115.988 20.1667 115.78 20.3584 115.597 20.575C115.43 20.8084 115.288 21.0584 115.172 21.325C115.072 21.5917 115.013 21.825 114.997 22.025H114.747V18.9H115.847C116.38 18.9 116.755 18.5917 116.972 17.975L122.722 2.90002L128.522 17.9C128.638 18.15 128.797 18.3834 128.997 18.6C129.197 18.8 129.43 18.9 129.697 18.9H130.747ZM117.522 18.9H127.147L122.322 6.47502L117.522 18.9ZM143.504 19.525H143.629C143.746 19.525 143.854 19.4834 143.954 19.4C144.054 19.3 144.137 19.1834 144.204 19.05C144.287 18.9 144.346 18.75 144.379 18.6C144.412 18.4334 144.429 18.2834 144.429 18.15V11.35H136.429V18.15C136.429 18.2834 136.446 18.4334 136.479 18.6C136.512 18.75 136.562 18.8917 136.629 19.025C136.696 19.1584 136.771 19.275 136.854 19.375C136.954 19.475 137.071 19.525 137.204 19.525H137.329V19.775H133.829V19.525H133.954C134.071 19.525 134.179 19.4834 134.279 19.4C134.379 19.3 134.462 19.1834 134.529 19.05C134.612 18.9 134.671 18.75 134.704 18.6C134.737 18.4334 134.754 18.2834 134.754 18.15V4.82502C134.754 4.70836 134.737 4.57502 134.704 4.42502C134.671 4.27502 134.621 4.13336 134.554 4.00002C134.487 3.86669 134.404 3.75836 134.304 3.67502C134.204 3.57502 134.087 3.52502 133.954 3.52502H133.829V3.27502H137.329V3.52502H137.204C137.071 3.52502 136.954 3.57502 136.854 3.67502C136.754 3.75836 136.671 3.86669 136.604 4.00002C136.554 4.13336 136.512 4.27502 136.479 4.42502C136.446 4.57502 136.429 4.70836 136.429 4.82502V10.475H144.429V4.82502C144.429 4.70836 144.412 4.57502 144.379 4.42502C144.346 4.27502 144.296 4.13336 144.229 4.00002C144.162 3.86669 144.079 3.75836 143.979 3.67502C143.879 3.57502 143.762 3.52502 143.629 3.52502H143.504V3.27502H147.004V3.52502H146.879C146.746 3.52502 146.629 3.57502 146.529 3.67502C146.429 3.75836 146.346 3.86669 146.279 4.00002C146.229 4.13336 146.187 4.27502 146.154 4.42502C146.121 4.57502 146.104 4.70836 146.104 4.82502V18.15C146.104 18.2834 146.121 18.4334 146.154 18.6C146.204 18.75 146.262 18.8917 146.329 19.025C146.396 19.1584 146.471 19.275 146.554 19.375C146.654 19.475 146.762 19.525 146.879 19.525H147.004V19.775H143.504V19.525ZM157.906 19.525H158.031C158.147 19.525 158.256 19.475 158.356 19.375C158.472 19.275 158.564 19.1584 158.631 19.025C158.697 18.8917 158.747 18.75 158.781 18.6C158.831 18.4334 158.856 18.2834 158.856 18.15V11.375C158.489 11.4084 158.139 11.525 157.806 11.725C157.489 11.925 157.181 12.1917 156.881 12.525C156.597 12.8584 156.322 13.2334 156.056 13.65C155.806 14.0667 155.564 14.5 155.331 14.95C155.147 15.2834 154.947 15.6417 154.731 16.025C154.514 16.3917 154.297 16.7667 154.081 17.15C153.681 17.8834 153.156 18.5084 152.506 19.025C151.856 19.525 151.106 19.775 150.256 19.775H148.931V19.525C149.314 19.525 149.672 19.4417 150.006 19.275C150.356 19.1084 150.672 18.9 150.956 18.65C151.239 18.4 151.489 18.125 151.706 17.825C151.939 17.525 152.131 17.2417 152.281 16.975L154.256 13.425C154.489 13.025 154.739 12.6417 155.006 12.275C155.289 11.8917 155.714 11.5834 156.281 11.35C155.581 11.3 154.956 11.1667 154.406 10.95C153.856 10.7334 153.389 10.45 153.006 10.1C152.622 9.75002 152.331 9.35836 152.131 8.92502C151.931 8.47502 151.831 8.00836 151.831 7.52502C151.831 6.90836 151.972 6.34169 152.256 5.82502C152.539 5.29169 152.939 4.84169 153.456 4.47502C153.972 4.09169 154.597 3.80002 155.331 3.60002C156.081 3.38336 156.914 3.27502 157.831 3.27502H161.431V3.52502H161.306C161.189 3.52502 161.081 3.57502 160.981 3.67502C160.881 3.75836 160.797 3.86669 160.731 4.00002C160.664 4.13336 160.614 4.27502 160.581 4.42502C160.547 4.57502 160.531 4.70836 160.531 4.82502V18.15C160.531 18.2834 160.547 18.4334 160.581 18.6C160.614 18.75 160.664 18.8917 160.731 19.025C160.797 19.1584 160.881 19.275 160.981 19.375C161.081 19.475 161.189 19.525 161.306 19.525H161.431V19.775H157.906V19.525ZM153.406 7.15002C153.406 7.63336 153.506 8.08336 153.706 8.50002C153.906 8.90002 154.181 9.25002 154.531 9.55002C154.881 9.85002 155.289 10.0834 155.756 10.25C156.222 10.4167 156.731 10.5 157.281 10.5H158.856V4.12502H158.481C156.864 4.12502 155.614 4.39169 154.731 4.92502C153.847 5.45836 153.406 6.20002 153.406 7.15002Z" fill="white"></path></svg> 