<?xml version="1.0" encoding="UTF-8"?> <svg xmlns="http://www.w3.org/2000/svg" width="144" height="14" viewBox="0 0 144 14" fill="none"><path d="M-1.12392e-05 0.225H2.12999C3.23999 0.225 4.07999 0.44 4.64999 0.869999C5.22999 1.29 5.51999 1.89 5.51999 2.67C5.51999 3.09 5.41999 3.465 5.21999 3.795C5.01999 4.125 4.75499 4.405 4.42499 4.635C4.10499 4.855 3.73999 5.025 3.32999 5.145C2.92999 5.265 2.52999 5.325 2.12999 5.325H1.55999V9.15C1.55999 9.23 1.56999 9.32 1.58999 9.42C1.60999 9.51 1.63999 9.595 1.67999 9.675C1.72999 9.755 1.77999 9.825 1.82999 9.885C1.88999 9.945 1.95999 9.975 2.03999 9.975H2.11499V10.125H-1.12392e-05V9.975H0.0749887C0.144989 9.975 0.209989 9.945 0.269989 9.885C0.329989 9.825 0.379989 9.755 0.419989 9.675C0.459989 9.595 0.489989 9.51 0.509989 9.42C0.529989 9.32 0.539989 9.23 0.539989 9.15V1.155C0.539989 1.015 0.499989 0.854999 0.419989 0.674999C0.339989 0.495 0.224989 0.395 0.0749887 0.374999H-1.12392e-05V0.225ZM1.55999 0.75V4.8H2.00999C2.40999 4.8 2.76499 4.745 3.07499 4.635C3.39499 4.525 3.65999 4.38 3.86999 4.2C4.07999 4.02 4.23999 3.815 4.34999 3.585C4.45999 3.355 4.51499 3.12 4.51499 2.88C4.51499 2.59 4.46499 2.32 4.36499 2.07C4.27499 1.81 4.11999 1.585 3.89999 1.395C3.68999 1.195 3.40999 1.04 3.05999 0.929999C2.70999 0.81 2.27999 0.75 1.76999 0.75H1.55999ZM6.49018 7.095C6.53018 7.445 6.61518 7.78 6.74518 8.1C6.87518 8.41 7.04518 8.685 7.25518 8.925C7.47518 9.165 7.74018 9.36 8.05018 9.51C8.36018 9.65 8.72019 9.72 9.13019 9.72C9.35018 9.72 9.58018 9.69 9.82019 9.63C10.0702 9.56 10.3002 9.465 10.5102 9.345C10.7202 9.225 10.9052 9.08 11.0652 8.91C11.2352 8.73 11.3502 8.53 11.4102 8.31H11.5452V9.435C11.4852 9.435 11.4152 9.455 11.3352 9.495C11.2652 9.535 11.1802 9.585 11.0802 9.645C10.8802 9.765 10.6102 9.895 10.2702 10.035C9.93019 10.165 9.48019 10.23 8.92019 10.23C8.47018 10.23 8.04018 10.165 7.63018 10.035C7.23018 9.905 6.87518 9.705 6.56518 9.435C6.25518 9.165 6.00518 8.82 5.81518 8.4C5.63518 7.98 5.54518 7.48 5.54518 6.9C5.54518 6.53 5.60518 6.155 5.72518 5.775C5.85518 5.395 6.04518 5.055 6.29518 4.755C6.55518 4.445 6.88518 4.195 7.28518 4.005C7.68518 3.815 8.16518 3.72 8.72518 3.72C9.22519 3.72 9.66019 3.805 10.0302 3.975C10.4102 4.145 10.7202 4.38 10.9602 4.68C11.2102 4.98 11.3952 5.335 11.5152 5.745C11.6352 6.155 11.6952 6.605 11.6952 7.095H6.49018ZM8.66518 4.215C8.31518 4.215 8.01018 4.285 7.75019 4.425C7.50018 4.565 7.28518 4.745 7.10518 4.965C6.92518 5.185 6.78518 5.435 6.68518 5.715C6.58518 5.995 6.52018 6.275 6.49018 6.555H10.7652C10.7552 6.265 10.7002 5.98 10.6002 5.7C10.5102 5.42 10.3802 5.17 10.2102 4.95C10.0402 4.73 9.82519 4.555 9.56518 4.425C9.30518 4.285 9.00518 4.215 8.66518 4.215ZM18.6082 9.585C18.5282 9.585 18.4532 9.605 18.3832 9.645C18.3132 9.675 18.2332 9.715 18.1432 9.765C17.9732 9.865 17.7482 9.97 17.4682 10.08C17.1882 10.18 16.8382 10.23 16.4182 10.23C15.9082 10.23 15.4382 10.15 15.0082 9.99C14.5882 9.82 14.2232 9.59 13.9132 9.3C13.6032 9 13.3632 8.655 13.1932 8.265C13.0232 7.865 12.9382 7.435 12.9382 6.975C12.9382 6.545 13.0132 6.135 13.1632 5.745C13.3232 5.355 13.5482 5.01 13.8382 4.71C14.1282 4.41 14.4832 4.17 14.9032 3.99C15.3332 3.81 15.8182 3.72 16.3582 3.72C16.7282 3.72 17.0282 3.765 17.2582 3.855C17.4882 3.935 17.6832 4.015 17.8432 4.095C17.9332 4.145 18.0182 4.185 18.0982 4.215C18.1882 4.245 18.2782 4.26 18.3682 4.26V5.4H18.2182C18.1682 5.21 18.0782 5.045 17.9482 4.905C17.8182 4.755 17.6682 4.63 17.4982 4.53C17.3282 4.43 17.1432 4.355 16.9432 4.305C16.7432 4.255 16.5482 4.23 16.3582 4.23C15.9482 4.23 15.5882 4.305 15.2782 4.455C14.9682 4.595 14.7132 4.785 14.5132 5.025C14.3132 5.255 14.1632 5.52 14.0632 5.82C13.9632 6.12 13.9132 6.43 13.9132 6.75C13.9132 7.12 13.9682 7.485 14.0782 7.845C14.1982 8.195 14.3632 8.51 14.5732 8.79C14.7932 9.07 15.0582 9.295 15.3682 9.465C15.6882 9.635 16.0482 9.72 16.4482 9.72C16.7282 9.72 16.9882 9.68 17.2282 9.6C17.4682 9.52 17.6732 9.415 17.8432 9.285C18.0232 9.155 18.1632 9.015 18.2632 8.865C18.3732 8.705 18.4382 8.555 18.4582 8.415H18.6082V9.585ZM25.1264 5.4C25.1264 5.29 25.1064 5.17 25.0664 5.04C25.0264 4.91 24.9664 4.795 24.8864 4.695C24.8064 4.585 24.7064 4.495 24.5864 4.425C24.4664 4.355 24.3264 4.32 24.1664 4.32H22.8464V9.15C22.8464 9.23 22.8564 9.315 22.8764 9.405C22.8964 9.495 22.9264 9.585 22.9664 9.675C23.0164 9.755 23.0664 9.825 23.1164 9.885C23.1764 9.945 23.2464 9.975 23.3264 9.975V10.125H21.3764V9.975C21.4564 9.975 21.5264 9.945 21.5864 9.885C21.6464 9.825 21.6964 9.755 21.7364 9.675C21.7864 9.595 21.8214 9.51 21.8414 9.42C21.8614 9.32 21.8714 9.23 21.8714 9.15V4.32H20.5814C20.4214 4.32 20.2814 4.355 20.1614 4.425C20.0414 4.495 19.9414 4.585 19.8614 4.695C19.7914 4.795 19.7364 4.91 19.6964 5.04C19.6564 5.17 19.6364 5.29 19.6364 5.4H19.4864V3.825H25.2614V5.4H25.1264ZM29.5011 10.23C29.0011 10.23 28.5511 10.15 28.1511 9.99C27.7511 9.82 27.4061 9.595 27.1161 9.315C26.8361 9.025 26.6161 8.685 26.4561 8.295C26.3061 7.905 26.2311 7.48 26.2311 7.02C26.2311 6.53 26.3161 6.085 26.4861 5.685C26.6561 5.275 26.8911 4.925 27.1911 4.635C27.4911 4.345 27.8461 4.12 28.2561 3.96C28.6661 3.8 29.1111 3.72 29.5911 3.72C30.0711 3.72 30.5111 3.8 30.9111 3.96C31.3111 4.11 31.6561 4.325 31.9461 4.605C32.2361 4.885 32.4611 5.22 32.6211 5.61C32.7811 5.99 32.8611 6.41 32.8611 6.87C32.8611 7.3 32.7861 7.72 32.6361 8.13C32.4961 8.53 32.2811 8.885 31.9911 9.195C31.7111 9.505 31.3611 9.755 30.9411 9.945C30.5311 10.135 30.0511 10.23 29.5011 10.23ZM29.4111 4.215C29.0511 4.235 28.7311 4.325 28.4511 4.485C28.1811 4.635 27.9511 4.835 27.7611 5.085C27.5811 5.325 27.4411 5.6 27.3411 5.91C27.2511 6.22 27.2061 6.535 27.2061 6.855C27.2061 7.225 27.2611 7.585 27.3711 7.935C27.4911 8.275 27.6561 8.58 27.8661 8.85C28.0861 9.12 28.3461 9.335 28.6461 9.495C28.9461 9.655 29.2811 9.735 29.6511 9.735C30.0211 9.735 30.3461 9.655 30.6261 9.495C30.9161 9.335 31.1561 9.13 31.3461 8.88C31.5361 8.62 31.6761 8.33 31.7661 8.01C31.8661 7.69 31.9161 7.37 31.9161 7.05C31.9161 6.72 31.8661 6.39 31.7661 6.06C31.6661 5.72 31.5111 5.415 31.3011 5.145C31.0911 4.865 30.8261 4.64 30.5061 4.47C30.1961 4.3 29.8311 4.215 29.4111 4.215ZM36.9688 3.72C37.5088 3.72 37.9738 3.815 38.3638 4.005C38.7638 4.185 39.0938 4.425 39.3538 4.725C39.6238 5.025 39.8238 5.37 39.9538 5.76C40.0838 6.15 40.1488 6.55 40.1488 6.96C40.1488 7.36 40.0838 7.755 39.9538 8.145C39.8338 8.535 39.6438 8.885 39.3838 9.195C39.1338 9.505 38.8188 9.755 38.4388 9.945C38.0588 10.135 37.6088 10.23 37.0888 10.23C36.7788 10.23 36.4588 10.15 36.1288 9.99C35.8088 9.82 35.5188 9.61 35.2588 9.36V12.45C35.2588 12.53 35.2688 12.615 35.2888 12.705C35.3088 12.805 35.3388 12.895 35.3788 12.975C35.4288 13.055 35.4788 13.125 35.5288 13.185C35.5888 13.245 35.6588 13.275 35.7388 13.275V13.425H33.7888V13.275C33.8588 13.275 33.9238 13.245 33.9838 13.185C34.0438 13.125 34.0938 13.055 34.1338 12.975C34.1838 12.895 34.2188 12.805 34.2388 12.705C34.2588 12.615 34.2688 12.53 34.2688 12.45V4.71C34.2688 4.62 34.2638 4.535 34.2538 4.455C34.2538 4.365 34.2388 4.29 34.2088 4.23C34.1788 4.16 34.1288 4.105 34.0588 4.065C33.9988 4.015 33.9088 3.985 33.7888 3.975V3.825H35.2588V4.485C35.4588 4.245 35.6988 4.06 35.9788 3.93C36.2688 3.79 36.5988 3.72 36.9688 3.72ZM37.1038 9.72C37.4538 9.71 37.7588 9.63 38.0188 9.48C38.2788 9.33 38.4938 9.135 38.6638 8.895C38.8338 8.655 38.9588 8.39 39.0388 8.1C39.1188 7.8 39.1588 7.49 39.1588 7.17C39.1588 6.81 39.1088 6.455 39.0088 6.105C38.9088 5.755 38.7638 5.445 38.5738 5.175C38.3838 4.895 38.1488 4.67 37.8688 4.5C37.5988 4.32 37.2888 4.23 36.9388 4.23C36.7288 4.23 36.5188 4.27 36.3088 4.35C36.1088 4.43 35.9288 4.545 35.7688 4.695C35.6188 4.845 35.4938 5.025 35.3938 5.235C35.3038 5.435 35.2588 5.66 35.2588 5.91V7.875C35.2588 8.145 35.3138 8.395 35.4238 8.625C35.5338 8.845 35.6738 9.04 35.8438 9.21C36.0238 9.37 36.2238 9.495 36.4438 9.585C36.6638 9.675 36.8838 9.72 37.1038 9.72ZM45.9035 10.125V9.36L45.8285 9.435C45.5785 9.685 45.2885 9.88 44.9585 10.02C44.6385 10.16 44.2485 10.23 43.7885 10.23C43.4385 10.23 43.1385 10.19 42.8885 10.11C42.6385 10.03 42.4335 9.92 42.2735 9.78C42.1135 9.63 41.9935 9.46 41.9135 9.27C41.8435 9.08 41.8085 8.88 41.8085 8.67C41.8085 8.33 41.8985 8.03 42.0785 7.77C42.2685 7.51 42.5385 7.28 42.8885 7.08C43.2385 6.88 43.6635 6.7 44.1635 6.54C44.6735 6.37 45.2535 6.205 45.9035 6.045C45.8835 5.655 45.8035 5.34 45.6635 5.1C45.5235 4.86 45.3585 4.675 45.1685 4.545C44.9785 4.405 44.7785 4.315 44.5685 4.275C44.3585 4.225 44.1785 4.2 44.0285 4.2C43.7685 4.2 43.5385 4.24 43.3385 4.32C43.1385 4.39 42.9635 4.49 42.8135 4.62C42.6635 4.74 42.5385 4.88 42.4385 5.04C42.3485 5.2 42.2785 5.36 42.2285 5.52H42.0935V4.35C42.1835 4.35 42.2885 4.32 42.4085 4.26C42.5285 4.19 42.6685 4.115 42.8285 4.035C42.9985 3.955 43.1985 3.885 43.4285 3.825C43.6685 3.755 43.9535 3.72 44.2835 3.72C44.8335 3.72 45.2785 3.79 45.6185 3.93C45.9585 4.07 46.2185 4.255 46.3985 4.485C46.5885 4.715 46.7135 4.98 46.7735 5.28C46.8335 5.57 46.8635 5.87 46.8635 6.18V9.15C46.8635 9.35 46.9135 9.54 47.0135 9.72C47.1135 9.89 47.2485 9.975 47.4185 9.975V10.125H45.9035ZM45.9035 8.7V6.555L45.7535 6.585C45.5135 6.645 45.2185 6.725 44.8685 6.825C44.5285 6.925 44.2035 7.055 43.8935 7.215C43.5835 7.375 43.3185 7.565 43.0985 7.785C42.8785 8.005 42.7685 8.26 42.7685 8.55C42.7685 8.87 42.8985 9.135 43.1585 9.345C43.4185 9.555 43.7585 9.66 44.1785 9.66C44.5085 9.66 44.7985 9.59 45.0485 9.45C45.2985 9.3 45.5285 9.11 45.7385 8.88L45.9035 8.7ZM50.719 9.15C50.719 9.23 50.729 9.32 50.749 9.42C50.769 9.51 50.799 9.595 50.839 9.675C50.879 9.755 50.924 9.825 50.974 9.885C51.034 9.945 51.099 9.975 51.169 9.975V10.125H49.279V9.975C49.349 9.975 49.409 9.95 49.459 9.9C49.519 9.84 49.569 9.77 49.609 9.69C49.649 9.6 49.679 9.51 49.699 9.42C49.719 9.32 49.729 9.23 49.729 9.15V4.755C49.729 4.685 49.719 4.605 49.699 4.515C49.679 4.425 49.649 4.34 49.609 4.26C49.569 4.18 49.519 4.115 49.459 4.065C49.409 4.005 49.349 3.975 49.279 3.975V3.825H51.169V3.975C51.089 3.975 51.019 4.005 50.959 4.065C50.909 4.115 50.864 4.18 50.824 4.26C50.794 4.34 50.769 4.425 50.749 4.515C50.729 4.605 50.719 4.685 50.719 4.755V6.57H54.139V4.755C54.139 4.685 54.129 4.605 54.109 4.515C54.089 4.425 54.059 4.34 54.019 4.26C53.989 4.18 53.944 4.115 53.884 4.065C53.834 4.005 53.769 3.975 53.689 3.975V3.825H55.579V3.975C55.499 3.975 55.429 4.005 55.369 4.065C55.319 4.115 55.274 4.18 55.234 4.26C55.194 4.34 55.164 4.425 55.144 4.515C55.134 4.605 55.129 4.685 55.129 4.755V9.15C55.129 9.23 55.139 9.32 55.159 9.42C55.179 9.51 55.209 9.595 55.249 9.675C55.289 9.755 55.334 9.825 55.384 9.885C55.444 9.945 55.509 9.975 55.579 9.975V10.125H53.689V9.975C53.759 9.975 53.819 9.95 53.869 9.9C53.929 9.84 53.979 9.77 54.019 9.69C54.059 9.6 54.089 9.51 54.109 9.42C54.129 9.32 54.139 9.23 54.139 9.15V7.065H50.719V9.15ZM66.1438 9.48L66.0238 9.555L63.9838 6.885L66.0688 4.2L66.1588 4.275L64.9888 6.87L66.1438 9.48ZM64.0738 9.48L63.9538 9.555L61.8838 6.885L63.9838 4.215L64.1038 4.29L62.9338 6.87L64.0738 9.48ZM77.3435 9.6V11.475H77.1935C77.1835 11.345 77.1485 11.2 77.0885 11.04C77.0285 10.88 76.9435 10.73 76.8335 10.59C76.7335 10.46 76.6135 10.35 76.4735 10.26C76.3335 10.17 76.1785 10.125 76.0085 10.125H69.0935C68.9235 10.125 68.7685 10.17 68.6285 10.26C68.4885 10.36 68.3635 10.475 68.2535 10.605C68.1535 10.745 68.0685 10.895 67.9985 11.055C67.9385 11.215 67.9035 11.355 67.8935 11.475H67.7435V9.6H68.4035C68.7235 9.6 68.9485 9.415 69.0785 9.045L72.5285 -1.78814e-07L76.0085 9C76.0785 9.15 76.1735 9.29 76.2935 9.42C76.4135 9.54 76.5535 9.6 76.7135 9.6H77.3435ZM69.4085 9.6H75.1835L72.2885 2.145L69.4085 9.6ZM84.0978 5.325C84.0978 5.495 84.0628 5.655 83.9928 5.805C83.9228 5.955 83.8328 6.095 83.7228 6.225C83.6228 6.345 83.5028 6.455 83.3628 6.555C83.2228 6.645 83.0878 6.715 82.9578 6.765C83.1278 6.795 83.3028 6.85 83.4828 6.93C83.6728 7.01 83.8428 7.115 83.9928 7.245C84.1528 7.375 84.2828 7.54 84.3828 7.74C84.4828 7.93 84.5328 8.16 84.5328 8.43C84.5328 8.57 84.4978 8.74 84.4278 8.94C84.3678 9.13 84.2528 9.315 84.0828 9.495C83.9228 9.665 83.6978 9.815 83.4078 9.945C83.1278 10.065 82.7628 10.125 82.3128 10.125H79.0128V9.975C79.0928 9.975 79.1628 9.945 79.2228 9.885C79.2828 9.825 79.3328 9.755 79.3728 9.675C79.4228 9.595 79.4578 9.51 79.4778 9.42C79.4978 9.32 79.5078 9.23 79.5078 9.15V4.77C79.5078 4.61 79.4628 4.44 79.3728 4.26C79.2928 4.07 79.1728 3.975 79.0128 3.975V3.825H82.0728C82.4328 3.825 82.7378 3.875 82.9878 3.975C83.2478 4.065 83.4578 4.185 83.6178 4.335C83.7878 4.475 83.9078 4.635 83.9778 4.815C84.0578 4.985 84.0978 5.155 84.0978 5.325ZM80.4828 6.57H81.6378C81.9278 6.57 82.1678 6.54 82.3578 6.48C82.5578 6.41 82.7178 6.32 82.8378 6.21C82.9578 6.1 83.0428 5.975 83.0928 5.835C83.1528 5.695 83.1828 5.55 83.1828 5.4C83.1828 5.28 83.1478 5.155 83.0778 5.025C83.0078 4.895 82.9028 4.78 82.7628 4.68C82.6328 4.57 82.4728 4.48 82.2828 4.41C82.0928 4.34 81.8778 4.305 81.6378 4.305H80.4828V6.57ZM81.9528 9.645C82.0728 9.645 82.2228 9.635 82.4028 9.615C82.5928 9.585 82.7728 9.53 82.9428 9.45C83.1228 9.36 83.2728 9.235 83.3928 9.075C83.5228 8.905 83.5878 8.685 83.5878 8.415C83.5878 8.125 83.5028 7.89 83.3328 7.71C83.1628 7.53 82.9628 7.395 82.7328 7.305C82.5128 7.205 82.2828 7.14 82.0428 7.11C81.8028 7.08 81.6178 7.065 81.4878 7.065H80.4828V9.645H81.9528ZM92.304 9.15C92.304 9.23 92.314 9.32 92.334 9.42C92.364 9.51 92.399 9.595 92.439 9.675C92.479 9.755 92.529 9.825 92.589 9.885C92.659 9.945 92.724 9.975 92.784 9.975V10.125H90.864V9.975C90.934 9.975 90.999 9.95 91.059 9.9C91.119 9.84 91.169 9.77 91.209 9.69C91.249 9.6 91.279 9.51 91.299 9.42C91.319 9.32 91.329 9.23 91.329 9.15V5.55L87.759 9.045V9.15C87.759 9.23 87.769 9.32 87.789 9.42C87.809 9.51 87.839 9.595 87.879 9.675C87.919 9.755 87.964 9.825 88.014 9.885C88.074 9.945 88.139 9.975 88.209 9.975V10.125H86.304V9.975C86.374 9.975 86.439 9.95 86.499 9.9C86.559 9.84 86.609 9.77 86.649 9.69C86.689 9.6 86.719 9.51 86.739 9.42C86.759 9.32 86.769 9.23 86.769 9.15V4.755C86.769 4.685 86.759 4.605 86.739 4.515C86.719 4.425 86.689 4.34 86.649 4.26C86.609 4.18 86.559 4.115 86.499 4.065C86.439 4.005 86.374 3.975 86.304 3.975V3.825H88.209V3.975C88.129 3.975 88.059 4.005 87.999 4.065C87.949 4.115 87.904 4.18 87.864 4.26C87.834 4.34 87.809 4.425 87.789 4.515C87.769 4.605 87.759 4.685 87.759 4.755V8.34L91.329 4.845V4.755C91.329 4.685 91.319 4.605 91.299 4.515C91.279 4.425 91.249 4.34 91.209 4.26C91.169 4.18 91.119 4.115 91.059 4.065C90.999 4.005 90.934 3.975 90.864 3.975V3.825H92.784V3.975C92.704 3.975 92.629 4.005 92.559 4.065C92.499 4.115 92.449 4.18 92.409 4.26C92.379 4.34 92.354 4.425 92.334 4.515C92.314 4.605 92.304 4.685 92.304 4.755V9.15ZM96.1485 9.15C96.1485 9.23 96.1585 9.32 96.1785 9.42C96.1985 9.51 96.2285 9.595 96.2685 9.675C96.3085 9.755 96.3535 9.825 96.4035 9.885C96.4635 9.945 96.5285 9.975 96.5985 9.975V10.125H94.7085V9.975C94.7785 9.975 94.8385 9.95 94.8885 9.9C94.9485 9.84 94.9985 9.77 95.0385 9.69C95.0785 9.6 95.1085 9.51 95.1285 9.42C95.1485 9.32 95.1585 9.23 95.1585 9.15V4.755C95.1585 4.685 95.1485 4.605 95.1285 4.515C95.1085 4.425 95.0785 4.34 95.0385 4.26C94.9985 4.18 94.9485 4.115 94.8885 4.065C94.8385 4.005 94.7785 3.975 94.7085 3.975V3.825H96.5985V3.975C96.5185 3.975 96.4485 4.005 96.3885 4.065C96.3385 4.115 96.2935 4.18 96.2535 4.26C96.2235 4.34 96.1985 4.425 96.1785 4.515C96.1585 4.605 96.1485 4.685 96.1485 4.755V6.57H99.5685V4.755C99.5685 4.685 99.5585 4.605 99.5385 4.515C99.5185 4.425 99.4885 4.34 99.4485 4.26C99.4185 4.18 99.3735 4.115 99.3135 4.065C99.2635 4.005 99.1985 3.975 99.1185 3.975V3.825H101.008V3.975C100.928 3.975 100.858 4.005 100.798 4.065C100.748 4.115 100.703 4.18 100.663 4.26C100.623 4.34 100.593 4.425 100.573 4.515C100.563 4.605 100.558 4.685 100.558 4.755V9.15C100.558 9.23 100.568 9.32 100.588 9.42C100.608 9.51 100.638 9.595 100.678 9.675C100.718 9.755 100.763 9.825 100.813 9.885C100.873 9.945 100.938 9.975 101.008 9.975V10.125H99.1185V9.975C99.1885 9.975 99.2485 9.95 99.2985 9.9C99.3585 9.84 99.4085 9.77 99.4485 9.69C99.4885 9.6 99.5185 9.51 99.5385 9.42C99.5585 9.32 99.5685 9.23 99.5685 9.15V7.065H96.1485V9.15ZM109.833 5.16L107.748 1.26C107.698 1.18 107.638 1.09 107.568 0.99C107.508 0.88 107.443 0.78 107.373 0.69C107.303 0.6 107.223 0.525 107.133 0.464999C107.053 0.404999 106.968 0.374999 106.878 0.374999V0.225H109.008V0.374999C108.948 0.374999 108.878 0.415 108.798 0.495C108.728 0.575 108.693 0.675 108.693 0.794999C108.693 0.865 108.713 0.935 108.753 1.005L110.448 4.155L111.993 1.155C111.993 1.125 112.008 1.095 112.038 1.065C112.058 1.015 112.078 0.965 112.098 0.915C112.128 0.855 112.143 0.8 112.143 0.75C112.143 0.59 112.088 0.489999 111.978 0.449999C111.868 0.399999 111.798 0.374999 111.768 0.374999V0.225H113.433V0.374999C113.263 0.374999 113.098 0.469999 112.938 0.659999C112.788 0.839999 112.668 1.02 112.578 1.2L110.748 4.695L113.088 9.105C113.138 9.195 113.198 9.29 113.268 9.39C113.338 9.49 113.413 9.585 113.493 9.675C113.573 9.765 113.653 9.84 113.733 9.9C113.823 9.95 113.913 9.975 114.003 9.975V10.125H111.873V9.975C111.933 9.975 111.993 9.935 112.053 9.855C112.113 9.775 112.143 9.68 112.143 9.57C112.143 9.5 112.113 9.41 112.053 9.3L110.148 5.73L108.273 9.3C108.243 9.36 108.213 9.43 108.183 9.51C108.163 9.59 108.153 9.665 108.153 9.735C108.153 9.895 108.228 9.975 108.378 9.975V10.125H106.743V9.975C106.813 9.975 106.893 9.955 106.983 9.915C107.073 9.865 107.163 9.805 107.253 9.735C107.343 9.665 107.428 9.585 107.508 9.495C107.588 9.405 107.653 9.32 107.703 9.24L109.833 5.16ZM117.855 10.23C117.355 10.23 116.905 10.15 116.505 9.99C116.105 9.82 115.76 9.595 115.47 9.315C115.19 9.025 114.97 8.685 114.81 8.295C114.66 7.905 114.585 7.48 114.585 7.02C114.585 6.53 114.67 6.085 114.84 5.685C115.01 5.275 115.245 4.925 115.545 4.635C115.845 4.345 116.2 4.12 116.61 3.96C117.02 3.8 117.465 3.72 117.945 3.72C118.425 3.72 118.865 3.8 119.265 3.96C119.665 4.11 120.01 4.325 120.3 4.605C120.59 4.885 120.815 5.22 120.975 5.61C121.135 5.99 121.215 6.41 121.215 6.87C121.215 7.3 121.14 7.72 120.99 8.13C120.85 8.53 120.635 8.885 120.345 9.195C120.065 9.505 119.715 9.755 119.295 9.945C118.885 10.135 118.405 10.23 117.855 10.23ZM117.765 4.215C117.405 4.235 117.085 4.325 116.805 4.485C116.535 4.635 116.305 4.835 116.115 5.085C115.935 5.325 115.795 5.6 115.695 5.91C115.605 6.22 115.56 6.535 115.56 6.855C115.56 7.225 115.615 7.585 115.725 7.935C115.845 8.275 116.01 8.58 116.22 8.85C116.44 9.12 116.7 9.335 117 9.495C117.3 9.655 117.635 9.735 118.005 9.735C118.375 9.735 118.7 9.655 118.98 9.495C119.27 9.335 119.51 9.13 119.7 8.88C119.89 8.62 120.03 8.33 120.12 8.01C120.22 7.69 120.27 7.37 120.27 7.05C120.27 6.72 120.22 6.39 120.12 6.06C120.02 5.72 119.865 5.415 119.655 5.145C119.445 4.865 119.18 4.64 118.86 4.47C118.55 4.3 118.185 4.215 117.765 4.215ZM127.507 9.975C127.577 9.975 127.657 9.945 127.747 9.885C127.837 9.825 127.882 9.74 127.882 9.63C127.882 9.61 127.872 9.57 127.852 9.51C127.842 9.44 127.817 9.365 127.777 9.285L125.872 4.785L123.892 9.51C123.722 9.92 123.387 10.125 122.887 10.125H122.557V9.975C122.697 9.975 122.847 9.905 123.007 9.765C123.177 9.615 123.312 9.44 123.412 9.24L125.452 4.47C125.502 4.34 125.527 4.235 125.527 4.155C125.527 4.035 125.447 3.975 125.287 3.975V3.825H126.502L128.812 9.225C128.882 9.375 128.982 9.54 129.112 9.72C129.252 9.89 129.382 9.975 129.502 9.975V10.125H127.507V9.975ZM135.354 9.975C135.424 9.975 135.504 9.945 135.594 9.885C135.684 9.825 135.729 9.74 135.729 9.63C135.729 9.61 135.719 9.57 135.699 9.51C135.689 9.44 135.664 9.365 135.624 9.285L133.719 4.785L131.739 9.51C131.569 9.92 131.234 10.125 130.734 10.125H130.404V9.975C130.544 9.975 130.694 9.905 130.854 9.765C131.024 9.615 131.159 9.44 131.259 9.24L133.299 4.47C133.349 4.34 133.374 4.235 133.374 4.155C133.374 4.035 133.294 3.975 133.134 3.975V3.825H134.349L136.659 9.225C136.729 9.375 136.829 9.54 136.959 9.72C137.099 9.89 137.229 9.975 137.349 9.975V10.125H135.354V9.975ZM139.962 6.84L138.792 4.26L138.912 4.2L141.012 6.855L138.942 9.525L138.822 9.45L139.962 6.84ZM142.032 6.84L140.892 4.26L141.012 4.2L143.067 6.855L141.027 9.525L140.907 9.45L142.032 6.84Z" fill="white"></path></svg> 