<?xml version="1.0" encoding="UTF-8"?> <svg xmlns="http://www.w3.org/2000/svg" width="68" height="13" viewBox="0 0 68 13" fill="none"><path d="M13.9681 0.288036C13.7281 0.288036 13.5241 0.390037 13.3561 0.594037C13.1881 0.798036 13.0741 1.02004 13.0141 1.26004L9.7381 12.06L6.9301 3.20404L4.1221 12.078L0.828103 1.27804C0.768103 1.05004 0.660103 0.828037 0.504103 0.612037C0.360103 0.396037 0.192103 0.288036 0.00010255 0.288036V0.108037H2.5561V0.288036C2.4001 0.288036 2.2681 0.354036 2.1601 0.486036C2.0641 0.606037 2.0161 0.762037 2.0161 0.954036C2.0161 1.01404 2.0281 1.09204 2.0521 1.18804L4.3921 8.82004L7.2541 3.69549e-05L10.0081 8.80204L12.3841 1.18804C12.3841 1.16404 12.3901 1.11604 12.4021 1.04404C12.4261 0.960037 12.4381 0.894037 12.4381 0.846037C12.4381 0.678037 12.3901 0.546037 12.2941 0.450037C12.1981 0.342036 12.1021 0.288036 12.0061 0.288036V0.108037H13.9681V0.288036ZM14.3924 8.35204C14.4404 8.77204 14.5424 9.17404 14.6984 9.55804C14.8544 9.93004 15.0584 10.26 15.3104 10.548C15.5744 10.836 15.8924 11.07 16.2644 11.25C16.6364 11.418 17.0684 11.502 17.5604 11.502C17.8244 11.502 18.1004 11.466 18.3884 11.394C18.6884 11.31 18.9644 11.196 19.2164 11.052C19.4684 10.908 19.6904 10.734 19.8824 10.53C20.0864 10.314 20.2244 10.074 20.2964 9.81004H20.4584V11.16C20.3864 11.16 20.3024 11.184 20.2064 11.232C20.1224 11.28 20.0204 11.34 19.9004 11.412C19.6604 11.556 19.3364 11.712 18.9284 11.88C18.5204 12.036 17.9804 12.114 17.3084 12.114C16.7684 12.114 16.2524 12.036 15.7604 11.88C15.2804 11.724 14.8544 11.484 14.4824 11.16C14.1104 10.836 13.8104 10.422 13.5824 9.91804C13.3664 9.41404 13.2584 8.81404 13.2584 8.11804C13.2584 7.67404 13.3304 7.22404 13.4744 6.76804C13.6304 6.31204 13.8584 5.90404 14.1584 5.54404C14.4704 5.17204 14.8664 4.87204 15.3464 4.64404C15.8264 4.41604 16.4024 4.30204 17.0744 4.30204C17.6744 4.30204 18.1964 4.40404 18.6404 4.60804C19.0964 4.81204 19.4684 5.09404 19.7564 5.45404C20.0564 5.81404 20.2784 6.24004 20.4224 6.73204C20.5664 7.22404 20.6384 7.76404 20.6384 8.35204H14.3924ZM17.0024 4.89604C16.5824 4.89604 16.2164 4.98004 15.9044 5.14804C15.6044 5.31604 15.3464 5.53204 15.1304 5.79604C14.9144 6.06004 14.7464 6.36004 14.6264 6.69604C14.5064 7.03204 14.4284 7.36804 14.3924 7.70404H19.5224C19.5104 7.35604 19.4444 7.01404 19.3244 6.67804C19.2164 6.34204 19.0604 6.04204 18.8564 5.77804C18.6524 5.51404 18.3944 5.30404 18.0824 5.14804C17.7704 4.98004 17.4104 4.89604 17.0024 4.89604ZM22.7507 11.988V11.808C22.8467 11.808 22.9307 11.772 23.0027 11.7C23.0747 11.628 23.1347 11.544 23.1827 11.448C23.2427 11.352 23.2847 11.25 23.3087 11.142C23.3327 11.022 23.3447 10.914 23.3447 10.818V1.60204C23.3447 1.39804 23.3147 1.20604 23.2547 1.02604C23.1947 0.846037 23.0147 0.750037 22.7147 0.738037V0.558036L24.5327 3.69549e-05V10.818C24.5327 10.914 24.5447 11.022 24.5687 11.142C24.5927 11.25 24.6287 11.352 24.6767 11.448C24.7367 11.544 24.7967 11.628 24.8567 11.7C24.9287 11.772 25.0127 11.808 25.1087 11.808V11.988H22.7507ZM34.0267 11.34C33.9307 11.34 33.8407 11.364 33.7567 11.412C33.6727 11.448 33.5767 11.496 33.4687 11.556C33.2647 11.676 33.0067 11.802 32.6947 11.934C32.3827 12.054 31.9747 12.114 31.4707 12.114C30.8587 12.114 30.2887 12.018 29.7607 11.826C29.2447 11.622 28.7947 11.346 28.4107 10.998C28.0387 10.638 27.7447 10.224 27.5287 9.75604C27.3247 9.27604 27.2227 8.76004 27.2227 8.20804C27.2227 7.69204 27.3127 7.20004 27.4927 6.73204C27.6847 6.26404 27.9547 5.85004 28.3027 5.49004C28.6507 5.13004 29.0767 4.84204 29.5807 4.62604C30.0967 4.41004 30.6787 4.30204 31.3267 4.30204C31.7707 4.30204 32.1307 4.35604 32.4067 4.46404C32.6827 4.56004 32.9167 4.65604 33.1087 4.75204C33.2167 4.81204 33.3187 4.86004 33.4147 4.89604C33.5227 4.93204 33.6307 4.95004 33.7387 4.95004V6.31804H33.5587C33.4987 6.09004 33.3907 5.89204 33.2347 5.72404C33.0787 5.54404 32.8987 5.39404 32.6947 5.27404C32.4907 5.15404 32.2687 5.06404 32.0287 5.00404C31.7887 4.94404 31.5547 4.91404 31.3267 4.91404C30.8347 4.91404 30.4027 5.00404 30.0307 5.18404C29.6587 5.35204 29.3527 5.58004 29.1127 5.86804C28.8727 6.14404 28.6927 6.46204 28.5727 6.82204C28.4527 7.18204 28.3927 7.55404 28.3927 7.93804C28.3927 8.38204 28.4647 8.82004 28.6087 9.25204C28.7527 9.67204 28.9567 10.05 29.2207 10.386C29.4967 10.722 29.8267 10.992 30.2107 11.196C30.5947 11.4 31.0267 11.502 31.5067 11.502C31.8427 11.502 32.1487 11.454 32.4247 11.358C32.7127 11.262 32.9527 11.136 33.1447 10.98C33.3487 10.824 33.5107 10.656 33.6307 10.476C33.7507 10.284 33.8227 10.104 33.8467 9.93604H34.0267V11.34ZM39.5446 12.114C38.9446 12.114 38.4046 12.018 37.9246 11.826C37.4446 11.622 37.0306 11.352 36.6826 11.016C36.3466 10.668 36.0826 10.26 35.8906 9.79204C35.7106 9.32404 35.6206 8.81404 35.6206 8.26204C35.6206 7.67404 35.7226 7.14004 35.9266 6.66004C36.1306 6.16804 36.4126 5.74804 36.7726 5.40004C37.1326 5.05204 37.5586 4.78204 38.0506 4.59004C38.5426 4.39804 39.0766 4.30204 39.6526 4.30204C40.2286 4.30204 40.7566 4.39804 41.2366 4.59004C41.7166 4.77004 42.1306 5.02804 42.4786 5.36404C42.8266 5.70004 43.0966 6.10204 43.2886 6.57004C43.4806 7.02604 43.5766 7.53004 43.5766 8.08204C43.5766 8.59804 43.4866 9.10204 43.3066 9.59404C43.1386 10.074 42.8806 10.5 42.5326 10.872C42.1966 11.244 41.7766 11.544 41.2726 11.772C40.7806 12 40.2046 12.114 39.5446 12.114ZM39.4366 4.89604C39.0046 4.92004 38.6206 5.02804 38.2846 5.22004C37.9606 5.40004 37.6846 5.64004 37.4566 5.94004C37.2406 6.22804 37.0726 6.55804 36.9526 6.93004C36.8446 7.30204 36.7906 7.68004 36.7906 8.06404C36.7906 8.50804 36.8566 8.94004 36.9886 9.36004C37.1326 9.76804 37.3306 10.134 37.5826 10.458C37.8466 10.782 38.1586 11.04 38.5186 11.232C38.8786 11.424 39.2806 11.52 39.7246 11.52C40.1686 11.52 40.5586 11.424 40.8946 11.232C41.2426 11.04 41.5306 10.794 41.7586 10.494C41.9866 10.182 42.1546 9.83404 42.2626 9.45004C42.3826 9.06604 42.4426 8.68204 42.4426 8.29804C42.4426 7.90204 42.3826 7.50604 42.2626 7.11004C42.1426 6.70204 41.9566 6.33604 41.7046 6.01204C41.4526 5.67604 41.1346 5.40604 40.7506 5.20204C40.3786 4.99804 39.9406 4.89604 39.4366 4.89604ZM57.2464 10.818C57.2464 10.914 57.2584 11.022 57.2824 11.142C57.3064 11.25 57.3424 11.352 57.3904 11.448C57.4384 11.544 57.4924 11.628 57.5524 11.7C57.6244 11.772 57.7084 11.808 57.8044 11.808V11.988H55.4644V11.808C55.5604 11.808 55.6444 11.772 55.7164 11.7C55.7884 11.628 55.8484 11.544 55.8964 11.448C55.9564 11.352 55.9984 11.25 56.0224 11.142C56.0464 11.022 56.0584 10.914 56.0584 10.818V6.93004C56.0584 6.65404 56.0164 6.39004 55.9324 6.13804C55.8604 5.88604 55.7464 5.67004 55.5904 5.49004C55.4344 5.29804 55.2424 5.14804 55.0144 5.04004C54.7864 4.92004 54.5284 4.86004 54.2404 4.86004C53.9164 4.86004 53.6344 4.93804 53.3944 5.09404C53.1664 5.23804 52.9744 5.41804 52.8184 5.63404C52.6744 5.85004 52.5664 6.07204 52.4944 6.30004C52.4224 6.51604 52.3864 6.69604 52.3864 6.84004V10.818C52.3864 10.914 52.3984 11.022 52.4224 11.142C52.4464 11.25 52.4824 11.352 52.5304 11.448C52.5904 11.544 52.6504 11.628 52.7104 11.7C52.7824 11.772 52.8664 11.808 52.9624 11.808V11.988H50.6404V11.808C50.7244 11.808 50.8024 11.772 50.8744 11.7C50.9464 11.628 51.0064 11.544 51.0544 11.448C51.1144 11.352 51.1564 11.25 51.1804 11.142C51.2044 11.022 51.2164 10.914 51.2164 10.818V6.82204C51.2164 6.53404 51.1624 6.27004 51.0544 6.03004C50.9584 5.77804 50.8204 5.56804 50.6404 5.40004C50.4724 5.23204 50.2744 5.10004 50.0464 5.00404C49.8304 4.90804 49.6084 4.86004 49.3804 4.86004C49.0684 4.86004 48.7924 4.92004 48.5524 5.04004C48.3244 5.16004 48.1324 5.31004 47.9764 5.49004C47.8324 5.67004 47.7184 5.86804 47.6344 6.08404C47.5624 6.28804 47.5264 6.48604 47.5264 6.67804V10.818C47.5264 10.914 47.5384 11.022 47.5624 11.142C47.5864 11.25 47.6224 11.352 47.6704 11.448C47.7304 11.544 47.7904 11.628 47.8504 11.7C47.9224 11.772 48.0064 11.808 48.1024 11.808V11.988H45.7804V11.808C45.8644 11.808 45.9424 11.772 46.0144 11.7C46.0864 11.628 46.1464 11.544 46.1944 11.448C46.2544 11.352 46.2964 11.25 46.3204 11.142C46.3444 11.022 46.3564 10.914 46.3564 10.818V6.01204C46.3564 5.91604 46.3504 5.80804 46.3384 5.68804C46.3264 5.56804 46.3024 5.45404 46.2664 5.34604C46.2304 5.23804 46.1704 5.14804 46.0864 5.07604C46.0024 5.00404 45.8884 4.96804 45.7444 4.96804V4.80604L47.5264 4.21204V5.13004C47.7064 4.92604 47.9524 4.72804 48.2644 4.53604C48.5884 4.34404 49.0084 4.24804 49.5244 4.24804C49.8604 4.24804 50.1604 4.29604 50.4244 4.39204C50.6884 4.48804 50.9164 4.61404 51.1084 4.77004C51.3124 4.91404 51.4864 5.08204 51.6304 5.27404C51.7744 5.46604 51.8944 5.65204 51.9904 5.83204C52.0864 5.65204 52.2004 5.47204 52.3324 5.29204C52.4644 5.10004 52.6204 4.92604 52.8004 4.77004C52.9924 4.61404 53.2144 4.48804 53.4664 4.39204C53.7304 4.29604 54.0364 4.24804 54.3844 4.24804C55.0564 4.24804 55.5844 4.36804 55.9684 4.60804C56.3524 4.84804 56.6344 5.13604 56.8144 5.47204C57.0064 5.80804 57.1264 6.16204 57.1744 6.53404C57.2224 6.89404 57.2464 7.20004 57.2464 7.45204V10.818ZM61.1783 8.35204C61.2263 8.77204 61.3283 9.17404 61.4843 9.55804C61.6403 9.93004 61.8443 10.26 62.0963 10.548C62.3603 10.836 62.6783 11.07 63.0503 11.25C63.4223 11.418 63.8543 11.502 64.3463 11.502C64.6103 11.502 64.8863 11.466 65.1743 11.394C65.4743 11.31 65.7503 11.196 66.0023 11.052C66.2543 10.908 66.4763 10.734 66.6683 10.53C66.8723 10.314 67.0103 10.074 67.0823 9.81004H67.2443V11.16C67.1723 11.16 67.0883 11.184 66.9923 11.232C66.9083 11.28 66.8063 11.34 66.6863 11.412C66.4463 11.556 66.1223 11.712 65.7143 11.88C65.3063 12.036 64.7663 12.114 64.0943 12.114C63.5543 12.114 63.0383 12.036 62.5463 11.88C62.0663 11.724 61.6403 11.484 61.2683 11.16C60.8963 10.836 60.5963 10.422 60.3683 9.91804C60.1523 9.41404 60.0443 8.81404 60.0443 8.11804C60.0443 7.67404 60.1163 7.22404 60.2603 6.76804C60.4163 6.31204 60.6443 5.90404 60.9443 5.54404C61.2563 5.17204 61.6523 4.87204 62.1323 4.64404C62.6123 4.41604 63.1883 4.30204 63.8603 4.30204C64.4603 4.30204 64.9823 4.40404 65.4263 4.60804C65.8823 4.81204 66.2543 5.09404 66.5423 5.45404C66.8423 5.81404 67.0643 6.24004 67.2083 6.73204C67.3523 7.22404 67.4243 7.76404 67.4243 8.35204H61.1783ZM63.7883 4.89604C63.3683 4.89604 63.0023 4.98004 62.6903 5.14804C62.3903 5.31604 62.1323 5.53204 61.9163 5.79604C61.7003 6.06004 61.5323 6.36004 61.4123 6.69604C61.2923 7.03204 61.2143 7.36804 61.1783 7.70404H66.3083C66.2963 7.35604 66.2303 7.01404 66.1103 6.67804C66.0023 6.34204 65.8463 6.04204 65.6423 5.77804C65.4383 5.51404 65.1803 5.30404 64.8683 5.14804C64.5563 4.98004 64.1963 4.89604 63.7883 4.89604Z" fill="white"></path></svg> 