<?xml version="1.0" encoding="UTF-8"?> <svg xmlns="http://www.w3.org/2000/svg" width="161" height="18" viewBox="0 0 161 18" fill="none"><path d="M10.3249 16.55H10.4499C10.8499 16.55 11.0499 16.3667 11.0499 16C11.0499 15.8667 11.0249 15.725 10.9749 15.575L8.7249 9.50005H4.3499L2.1749 15.475C2.1249 15.6084 2.0999 15.7334 2.0999 15.85C2.0999 16.0667 2.15824 16.2417 2.2749 16.375C2.39157 16.4917 2.51657 16.55 2.6499 16.55H2.7749V16.8H-9.76454e-05V16.55H0.124902C0.341569 16.55 0.549902 16.425 0.749902 16.175C0.966569 15.9084 1.14157 15.6 1.2749 15.25L6.9999 4.75645e-05L12.5999 15.1C12.7166 15.4334 12.8749 15.7584 13.0749 16.075C13.2916 16.3917 13.5666 16.55 13.8999 16.55H14.0249V16.8H10.3249V16.55ZM4.5999 8.65005H8.4499L6.5249 3.42505L4.5999 8.65005ZM26.246 16.55H26.371C26.4877 16.55 26.596 16.5084 26.696 16.425C26.796 16.325 26.8793 16.2084 26.946 16.075C27.0293 15.925 27.0877 15.775 27.121 15.625C27.1543 15.4584 27.171 15.3084 27.171 15.175V8.37505H19.171V15.175C19.171 15.3084 19.1877 15.4584 19.221 15.625C19.2543 15.775 19.3043 15.9167 19.371 16.05C19.4377 16.1834 19.5127 16.3 19.596 16.4C19.696 16.5 19.8127 16.55 19.946 16.55H20.071V16.8H16.571V16.55H16.696C16.8127 16.55 16.921 16.5084 17.021 16.425C17.121 16.325 17.2043 16.2084 17.271 16.075C17.3543 15.925 17.4127 15.775 17.446 15.625C17.4793 15.4584 17.496 15.3084 17.496 15.175V1.85005C17.496 1.73338 17.4793 1.60005 17.446 1.45005C17.4127 1.30005 17.3627 1.15838 17.296 1.02505C17.2293 0.891714 17.146 0.783381 17.046 0.700047C16.946 0.600048 16.8293 0.550048 16.696 0.550048H16.571V0.300048H20.071V0.550048H19.946C19.8127 0.550048 19.696 0.600048 19.596 0.700047C19.496 0.783381 19.4127 0.891714 19.346 1.02505C19.296 1.15838 19.2543 1.30005 19.221 1.45005C19.1877 1.60005 19.171 1.73338 19.171 1.85005V7.50005H27.171V1.85005C27.171 1.73338 27.1543 1.60005 27.121 1.45005C27.0877 1.30005 27.0377 1.15838 26.971 1.02505C26.9043 0.891714 26.821 0.783381 26.721 0.700047C26.621 0.600048 26.5043 0.550048 26.371 0.550048H26.246V0.300048H29.746V0.550048H29.621C29.4877 0.550048 29.371 0.600048 29.271 0.700047C29.171 0.783381 29.0877 0.891714 29.021 1.02505C28.971 1.15838 28.9293 1.30005 28.896 1.45005C28.8627 1.60005 28.846 1.73338 28.846 1.85005V15.175C28.846 15.3084 28.8627 15.4584 28.896 15.625C28.946 15.775 29.0043 15.9167 29.071 16.05C29.1377 16.1834 29.2127 16.3 29.296 16.4C29.396 16.5 29.5043 16.55 29.621 16.55H29.746V16.8H26.246V16.55ZM32.5728 16.55H32.6978C32.8311 16.55 32.9478 16.5 33.0478 16.4C33.1478 16.3 33.2311 16.1834 33.2978 16.05C33.3811 15.9167 33.4394 15.775 33.4728 15.625C33.5061 15.4584 33.5228 15.3084 33.5228 15.175V1.85005C33.5228 1.73338 33.5061 1.60005 33.4728 1.45005C33.4394 1.30005 33.3811 1.15838 33.2978 1.02505C33.2311 0.891714 33.1478 0.783381 33.0478 0.700047C32.9478 0.600048 32.8394 0.550048 32.7228 0.550048H32.5978V0.300048H36.1478V0.550048H36.0228C35.8894 0.550048 35.7728 0.600048 35.6728 0.700047C35.5728 0.783381 35.4811 0.891714 35.3978 1.02505C35.3311 1.15838 35.2728 1.30005 35.2228 1.45005C35.1894 1.60005 35.1728 1.73338 35.1728 1.85005V7.02505L40.9728 1.25005C41.1061 1.11671 41.1728 0.958381 41.1728 0.775048C41.1728 0.625048 41.1061 0.550048 40.9728 0.550048V0.300048H43.6728V0.550048C43.3394 0.566714 43.0394 0.666715 42.7728 0.850049C42.5228 1.03338 42.2478 1.27505 41.9478 1.57505L36.0228 7.50005C37.1061 7.53338 37.9811 7.76672 38.6478 8.20005C39.3144 8.63338 39.8394 9.23338 40.2228 10L42.1978 14C42.3144 14.25 42.4644 14.525 42.6478 14.825C42.8478 15.1084 43.0644 15.3834 43.2978 15.65C43.5478 15.9 43.8228 16.1167 44.1228 16.3C44.4228 16.4667 44.7394 16.55 45.0728 16.55V16.8H43.8228C43.3394 16.8 42.9228 16.7334 42.5728 16.6C42.2228 16.45 41.9144 16.2584 41.6478 16.025C41.3978 15.775 41.1728 15.5 40.9728 15.2C40.7894 14.9 40.6228 14.6 40.4728 14.3L38.4478 10.275C38.1311 9.65838 37.6894 9.19172 37.1228 8.87505C36.5728 8.54172 35.9228 8.35838 35.1728 8.32505V15.175C35.1728 15.3084 35.1894 15.45 35.2228 15.6C35.2561 15.75 35.3061 15.9 35.3728 16.05C35.4394 16.1834 35.5228 16.3 35.6228 16.4C35.7228 16.4834 35.8311 16.5334 35.9478 16.55H36.1228V16.8H32.5728V16.55ZM47.312 16.55H47.437C47.5703 16.55 47.687 16.5084 47.787 16.425C47.887 16.325 47.9703 16.2084 48.037 16.075C48.1203 15.9417 48.1787 15.8 48.212 15.65C48.262 15.5 48.287 15.3584 48.287 15.225V1.85005C48.287 1.73338 48.262 1.60005 48.212 1.45005C48.1787 1.30005 48.1203 1.15838 48.037 1.02505C47.9703 0.891714 47.887 0.783381 47.787 0.700047C47.687 0.600048 47.5703 0.550048 47.437 0.550048H47.312V0.300048H56.937V2.62505H56.687C56.6537 2.24171 56.5037 1.90838 56.237 1.62505C55.9703 1.32505 55.5537 1.17505 54.987 1.17505H49.962V7.50005H54.112C54.4953 7.50005 54.812 7.38338 55.062 7.15005C55.3287 6.91672 55.462 6.64172 55.462 6.32505H55.712V9.45005H55.462C55.462 9.15005 55.337 8.89172 55.087 8.67505C54.837 8.45838 54.512 8.35005 54.112 8.35005H49.962V15.925H55.437C55.7537 15.925 56.0287 15.85 56.262 15.7C56.4953 15.55 56.687 15.375 56.837 15.175C57.0037 14.9584 57.1203 14.7334 57.187 14.5C57.2703 14.25 57.312 14.0417 57.312 13.875H57.562V16.8H47.312V16.55ZM66.5208 16.55H66.6458V16.8H63.0958V16.55H63.2208C63.3541 16.55 63.4708 16.5 63.5708 16.4C63.6708 16.3 63.7541 16.1834 63.8208 16.05C63.9041 15.9167 63.9625 15.775 63.9958 15.625C64.0291 15.4584 64.0458 15.3084 64.0458 15.175V1.22505H61.1458C60.8791 1.22505 60.6458 1.28338 60.4458 1.40005C60.2458 1.51671 60.0791 1.66671 59.9458 1.85005C59.8125 2.01672 59.7125 2.20838 59.6458 2.42505C59.5791 2.62505 59.5458 2.82505 59.5458 3.02505H59.2958V0.300048H70.5208V3.02505H70.2708C70.2708 2.82505 70.2375 2.62505 70.1708 2.42505C70.1041 2.20838 70.0041 2.01672 69.8708 1.85005C69.7375 1.66671 69.5708 1.51671 69.3708 1.40005C69.1708 1.28338 68.9375 1.22505 68.6708 1.22505H65.7208V15.175C65.7208 15.3084 65.7375 15.4584 65.7708 15.625C65.8041 15.775 65.8541 15.9167 65.9208 16.05C66.0041 16.1834 66.0875 16.3 66.1708 16.4C66.2708 16.5 66.3875 16.55 66.5208 16.55ZM79.8708 16.55H79.9958C80.3958 16.55 80.5958 16.3667 80.5958 16C80.5958 15.8667 80.5708 15.725 80.5208 15.575L78.2708 9.50005H73.8958L71.7208 15.475C71.6708 15.6084 71.6458 15.7334 71.6458 15.85C71.6458 16.0667 71.7041 16.2417 71.8208 16.375C71.9375 16.4917 72.0625 16.55 72.1958 16.55H72.3208V16.8H69.5458V16.55H69.6708C69.8875 16.55 70.0958 16.425 70.2958 16.175C70.5125 15.9084 70.6875 15.6 70.8208 15.25L76.5458 4.75645e-05L82.1458 15.1C82.2625 15.4334 82.4208 15.7584 82.6208 16.075C82.8375 16.3917 83.1125 16.55 83.4458 16.55H83.5708V16.8H79.8708V16.55ZM74.1458 8.65005H77.9958L76.0708 3.42505L74.1458 8.65005ZM96.536 16.55H96.661V16.8H93.061V16.55H93.186C93.3194 16.55 93.436 16.5084 93.536 16.425C93.636 16.325 93.7194 16.2084 93.786 16.075C93.8694 15.9417 93.9277 15.8 93.961 15.65C93.9944 15.5 94.011 15.3584 94.011 15.225V1.85005C94.011 1.73338 93.9944 1.60005 93.961 1.45005C93.9277 1.30005 93.8694 1.15838 93.786 1.02505C93.7194 0.891714 93.636 0.783381 93.536 0.700047C93.436 0.600048 93.3194 0.550048 93.186 0.550048H93.061V0.300048H102.686V2.95005H102.436C102.436 2.35005 102.303 1.90838 102.036 1.62505C101.786 1.32505 101.386 1.17505 100.836 1.17505H95.711V15.225C95.711 15.3584 95.7277 15.5 95.761 15.65C95.7944 15.8 95.8444 15.9417 95.911 16.075C95.9944 16.2084 96.086 16.325 96.186 16.425C96.286 16.5084 96.4027 16.55 96.536 16.55ZM111.782 0.0500484C113.082 0.0500484 114.249 0.283382 115.282 0.750048C116.315 1.20005 117.19 1.81672 117.907 2.60005C118.64 3.36672 119.199 4.26672 119.582 5.30005C119.982 6.31672 120.182 7.38338 120.182 8.50005C120.182 9.75005 119.949 10.9 119.482 11.95C119.032 13 118.407 13.9 117.607 14.65C116.807 15.4 115.874 15.9917 114.807 16.425C113.757 16.8417 112.632 17.05 111.432 17.05C110.149 17.05 108.99 16.8167 107.957 16.35C106.94 15.8834 106.074 15.2667 105.357 14.5C104.657 13.7334 104.115 12.85 103.732 11.85C103.349 10.85 103.157 9.80838 103.157 8.72505C103.157 7.65838 103.349 6.60838 103.732 5.57505C104.115 4.52505 104.674 3.59171 105.407 2.77505C106.157 1.95838 107.065 1.30005 108.132 0.800048C109.199 0.300048 110.415 0.0500484 111.782 0.0500484ZM111.757 16.175C112.874 16.125 113.849 15.875 114.682 15.425C115.532 14.9584 116.24 14.375 116.807 13.675C117.374 12.9584 117.79 12.175 118.057 11.325C118.34 10.475 118.482 9.63338 118.482 8.80005C118.482 7.88338 118.315 6.95838 117.982 6.02505C117.649 5.09171 117.174 4.25005 116.557 3.50005C115.94 2.73338 115.199 2.11672 114.332 1.65005C113.482 1.16671 112.524 0.925048 111.457 0.925048C110.424 0.925048 109.499 1.15838 108.682 1.62505C107.865 2.07505 107.165 2.65838 106.582 3.37505C106.015 4.09172 105.582 4.89172 105.282 5.77505C104.982 6.65838 104.832 7.52505 104.832 8.37505C104.832 9.29172 105.007 10.2167 105.357 11.15C105.707 12.0667 106.19 12.9 106.807 13.65C107.424 14.4 108.149 15.0084 108.982 15.475C109.832 15.9417 110.757 16.175 111.757 16.175ZM131.242 0.950049C130.009 0.950049 128.934 1.17505 128.017 1.62505C127.117 2.05838 126.367 2.63338 125.767 3.35005C125.167 4.05005 124.717 4.84171 124.417 5.72505C124.134 6.60838 123.992 7.48338 123.992 8.35005C123.992 9.33338 124.184 10.3 124.567 11.25C124.95 12.1834 125.475 13.0167 126.142 13.75C126.825 14.4667 127.617 15.05 128.517 15.5C129.417 15.9334 130.392 16.15 131.442 16.15C131.742 16.15 132.092 16.1167 132.492 16.05C132.909 15.9834 133.317 15.8584 133.717 15.675C134.117 15.475 134.484 15.2 134.817 14.85C135.167 14.5 135.434 14.0417 135.617 13.475H135.867V16.25C135.617 16.25 135.35 16.2834 135.067 16.35C134.8 16.4167 134.5 16.4917 134.167 16.575C133.734 16.6917 133.25 16.8 132.717 16.9C132.2 17 131.65 17.05 131.067 17.05C129.617 17.05 128.342 16.8 127.242 16.3C126.142 15.8 125.225 15.15 124.492 14.35C123.759 13.55 123.209 12.65 122.842 11.65C122.475 10.6334 122.292 9.60838 122.292 8.57505C122.292 7.54171 122.475 6.51671 122.842 5.50005C123.209 4.48338 123.767 3.57505 124.517 2.77505C125.267 1.95838 126.209 1.30005 127.342 0.800048C128.475 0.300048 129.809 0.0500484 131.342 0.0500484C131.892 0.0500484 132.384 0.100048 132.817 0.200048C133.267 0.300048 133.667 0.400048 134.017 0.500049C134.267 0.583382 134.492 0.650048 134.692 0.700047C134.909 0.733381 135.117 0.750048 135.317 0.750048V3.52505H135.067C134.967 3.00838 134.784 2.58338 134.517 2.25005C134.25 1.90005 133.934 1.63338 133.567 1.45005C133.217 1.26672 132.834 1.14172 132.417 1.07505C132.017 0.991715 131.625 0.950049 131.242 0.950049ZM144.825 16.55H144.95V16.8H141.4V16.55H141.525C141.658 16.55 141.775 16.5 141.875 16.4C141.975 16.3 142.058 16.1834 142.125 16.05C142.208 15.9167 142.266 15.775 142.3 15.625C142.333 15.4584 142.35 15.3084 142.35 15.175V1.22505H139.45C139.183 1.22505 138.95 1.28338 138.75 1.40005C138.55 1.51671 138.383 1.66671 138.25 1.85005C138.116 2.01672 138.016 2.20838 137.95 2.42505C137.883 2.62505 137.85 2.82505 137.85 3.02505H137.6V0.300048H148.825V3.02505H148.575C148.575 2.82505 148.541 2.62505 148.475 2.42505C148.408 2.20838 148.308 2.01672 148.175 1.85005C148.041 1.66671 147.875 1.51671 147.675 1.40005C147.475 1.28338 147.241 1.22505 146.975 1.22505H144.025V15.175C144.025 15.3084 144.041 15.4584 144.075 15.625C144.108 15.775 144.158 15.9167 144.225 16.05C144.308 16.1834 144.391 16.3 144.475 16.4C144.575 16.5 144.691 16.55 144.825 16.55ZM157.334 16.55H157.459C157.576 16.55 157.684 16.5 157.784 16.4C157.901 16.3 157.993 16.1834 158.059 16.05C158.126 15.9167 158.176 15.775 158.209 15.625C158.259 15.4584 158.284 15.3084 158.284 15.175V8.40005C157.918 8.43338 157.568 8.55005 157.234 8.75005C156.918 8.95005 156.609 9.21672 156.309 9.55005C156.026 9.88338 155.751 10.2584 155.484 10.675C155.234 11.0917 154.993 11.525 154.759 11.975C154.576 12.3084 154.376 12.6667 154.159 13.05C153.943 13.4167 153.726 13.7917 153.509 14.175C153.109 14.9084 152.584 15.5334 151.934 16.05C151.284 16.55 150.534 16.8 149.684 16.8H148.359V16.55C148.743 16.55 149.101 16.4667 149.434 16.3C149.784 16.1334 150.101 15.925 150.384 15.675C150.668 15.425 150.918 15.15 151.134 14.85C151.368 14.55 151.559 14.2667 151.709 14L153.684 10.45C153.918 10.05 154.168 9.66671 154.434 9.30005C154.718 8.91672 155.143 8.60838 155.709 8.37505C155.009 8.32505 154.384 8.19172 153.834 7.97505C153.284 7.75838 152.818 7.47505 152.434 7.12505C152.051 6.77505 151.759 6.38338 151.559 5.95005C151.359 5.50005 151.259 5.03338 151.259 4.55005C151.259 3.93338 151.401 3.36672 151.684 2.85005C151.968 2.31671 152.368 1.86671 152.884 1.50005C153.401 1.11671 154.026 0.825048 154.759 0.625048C155.509 0.408382 156.343 0.300048 157.259 0.300048H160.859V0.550048H160.734C160.618 0.550048 160.509 0.600048 160.409 0.700047C160.309 0.783381 160.226 0.891714 160.159 1.02505C160.093 1.15838 160.043 1.30005 160.009 1.45005C159.976 1.60005 159.959 1.73338 159.959 1.85005V15.175C159.959 15.3084 159.976 15.4584 160.009 15.625C160.043 15.775 160.093 15.9167 160.159 16.05C160.226 16.1834 160.309 16.3 160.409 16.4C160.509 16.5 160.618 16.55 160.734 16.55H160.859V16.8H157.334V16.55ZM152.834 4.17505C152.834 4.65838 152.934 5.10838 153.134 5.52505C153.334 5.92505 153.609 6.27505 153.959 6.57505C154.309 6.87505 154.718 7.10838 155.184 7.27505C155.651 7.44172 156.159 7.52505 156.709 7.52505H158.284V1.15005H157.909C156.293 1.15005 155.043 1.41671 154.159 1.95005C153.276 2.48338 152.834 3.22505 152.834 4.17505Z" fill="white"></path></svg> 