<?xml version="1.0" encoding="UTF-8"?> <svg xmlns="http://www.w3.org/2000/svg" width="88" height="20" viewBox="0 0 88 20" fill="none"><path d="M16 16V19.125H15.75C15.7333 18.9083 15.675 18.6667 15.575 18.4C15.475 18.1333 15.3333 17.8833 15.15 17.65C14.9833 17.4333 14.7833 17.25 14.55 17.1C14.3167 16.95 14.0583 16.875 13.775 16.875H2.25C1.96667 16.875 1.70833 16.95 1.475 17.1C1.24167 17.2667 1.03333 17.4583 0.85 17.675C0.683333 17.9083 0.541667 18.1583 0.425 18.425C0.325 18.6917 0.266667 18.925 0.25 19.125H3.53903e-08V16H1.1C1.63333 16 2.00833 15.6917 2.225 15.075L7.975 -2.98023e-07L13.775 15C13.8917 15.25 14.05 15.4833 14.25 15.7C14.45 15.9 14.6833 16 14.95 16H16ZM2.775 16H12.4L7.575 3.575L2.775 16ZM18.7822 16.625H18.9072C19.0406 16.625 19.1572 16.5833 19.2572 16.5C19.3572 16.4 19.4406 16.2833 19.5072 16.15C19.5906 16.0167 19.6489 15.875 19.6822 15.725C19.7322 15.575 19.7572 15.4333 19.7572 15.3V1.925C19.7572 1.80833 19.7322 1.675 19.6822 1.525C19.6489 1.375 19.5906 1.23333 19.5072 1.1C19.4406 0.966665 19.3572 0.858332 19.2572 0.774999C19.1572 0.674999 19.0406 0.624999 18.9072 0.624999H18.7822V0.374999H28.4072V2.7H28.1572C28.1239 2.31667 27.9739 1.98333 27.7072 1.7C27.4406 1.4 27.0239 1.25 26.4572 1.25H21.4322V7.575H25.5822C25.9656 7.575 26.2822 7.45833 26.5322 7.225C26.7989 6.99167 26.9322 6.71667 26.9322 6.4H27.1822V9.525H26.9322C26.9322 9.225 26.8072 8.96667 26.5572 8.75C26.3072 8.53333 25.9822 8.425 25.5822 8.425H21.4322V16H26.9072C27.2239 16 27.4989 15.925 27.7322 15.775C27.9656 15.625 28.1572 15.45 28.3072 15.25C28.4739 15.0333 28.5906 14.8083 28.6572 14.575C28.7406 14.325 28.7822 14.1167 28.7822 13.95H29.0322V16.875H18.7822V16.625ZM37.991 16.625H38.116V16.875H34.566V16.625H34.691C34.8243 16.625 34.941 16.575 35.041 16.475C35.141 16.375 35.2243 16.2583 35.291 16.125C35.3743 15.9917 35.4327 15.85 35.466 15.7C35.4993 15.5333 35.516 15.3833 35.516 15.25V1.3H32.616C32.3493 1.3 32.116 1.35833 31.916 1.475C31.716 1.59167 31.5493 1.74167 31.416 1.925C31.2827 2.09167 31.1827 2.28333 31.116 2.5C31.0493 2.7 31.016 2.9 31.016 3.1H30.766V0.374999H41.991V3.1H41.741C41.741 2.9 41.7077 2.7 41.641 2.5C41.5743 2.28333 41.4743 2.09167 41.341 1.925C41.2077 1.74167 41.041 1.59167 40.841 1.475C40.641 1.35833 40.4077 1.3 40.141 1.3H37.191V15.25C37.191 15.3833 37.2077 15.5333 37.241 15.7C37.2743 15.85 37.3243 15.9917 37.391 16.125C37.4743 16.2583 37.5577 16.375 37.641 16.475C37.741 16.575 37.8577 16.625 37.991 16.625ZM51.341 16.625H51.466C51.866 16.625 52.066 16.4417 52.066 16.075C52.066 15.9417 52.041 15.8 51.991 15.65L49.741 9.575H45.366L43.191 15.55C43.141 15.6833 43.116 15.8083 43.116 15.925C43.116 16.1417 43.1743 16.3167 43.291 16.45C43.4077 16.5667 43.5327 16.625 43.666 16.625H43.791V16.875H41.016V16.625H41.141C41.3577 16.625 41.566 16.5 41.766 16.25C41.9827 15.9833 42.1577 15.675 42.291 15.325L48.016 0.0749987L53.616 15.175C53.7327 15.5083 53.891 15.8333 54.091 16.15C54.3077 16.4667 54.5827 16.625 54.916 16.625H55.041V16.875H51.341V16.625ZM45.616 8.725H49.466L47.541 3.5L45.616 8.725ZM59.4121 15.125C59.2621 15.5583 59.0288 15.9583 58.7121 16.325C58.3954 16.6917 57.9288 16.875 57.3121 16.875H56.5371V16.625C56.6371 16.625 56.7704 16.6 56.9371 16.55C57.1038 16.4833 57.2788 16.3833 57.4621 16.25C57.6454 16.1167 57.8288 15.95 58.0121 15.75C58.1954 15.5333 58.3538 15.2667 58.4871 14.95L63.2121 2C63.2954 1.75 63.3371 1.55833 63.3371 1.425C63.3371 1.175 63.2621 0.983333 63.1121 0.849999C62.9788 0.699999 62.8371 0.624999 62.6871 0.624999V0.374999H64.7371L70.3371 15.675C70.4204 15.9083 70.5788 16.125 70.8121 16.325C71.0454 16.5083 71.3038 16.6083 71.5871 16.625V16.875H68.0121V16.625C68.1454 16.625 68.2788 16.575 68.4121 16.475C68.5621 16.3583 68.6371 16.2083 68.6371 16.025C68.6371 15.975 68.6204 15.9 68.5871 15.8L63.8871 2.85L59.4121 15.125ZM84.1492 16.625H84.2742C84.4076 16.625 84.5242 16.5833 84.6242 16.5C84.7242 16.4 84.8076 16.2833 84.8742 16.15C84.9576 16 85.0159 15.85 85.0492 15.7C85.0826 15.5333 85.0992 15.3833 85.0992 15.25V3.8L76.7992 15.025V15.25C76.7992 15.3833 76.8159 15.5333 76.8492 15.7C76.8992 15.85 76.9576 15.9917 77.0242 16.125C77.0909 16.2583 77.1742 16.375 77.2742 16.475C77.3742 16.575 77.4909 16.625 77.6242 16.625H77.7492V16.875H74.1992V16.625H74.3242C74.4576 16.625 74.5742 16.5833 74.6742 16.5C74.7742 16.4 74.8576 16.2833 74.9242 16.15C75.0076 16 75.0659 15.85 75.0992 15.7C75.1326 15.5333 75.1492 15.3833 75.1492 15.25V1.925C75.1492 1.80833 75.1326 1.675 75.0992 1.525C75.0659 1.375 75.0076 1.23333 74.9242 1.1C74.8576 0.966665 74.7742 0.858332 74.6742 0.774999C74.5742 0.674999 74.4576 0.624999 74.3242 0.624999H74.1992V0.374999H77.7492V0.624999H77.5492C77.4326 0.641666 77.3242 0.699999 77.2242 0.8C77.1409 0.9 77.0659 1.01667 76.9992 1.15C76.9326 1.26667 76.8826 1.4 76.8492 1.55C76.8159 1.68333 76.7992 1.80833 76.7992 1.925V13.475L85.0992 2.25V1.925C85.0992 1.80833 85.0826 1.675 85.0492 1.525C85.0159 1.375 84.9576 1.23333 84.8742 1.1C84.8076 0.966665 84.7242 0.858332 84.6242 0.774999C84.5242 0.674999 84.4076 0.624999 84.2742 0.624999H84.1492V0.374999H87.6992V0.624999H87.5742C87.4409 0.624999 87.3242 0.674999 87.2242 0.774999C87.1242 0.858332 87.0409 0.966665 86.9742 1.1C86.9076 1.23333 86.8492 1.375 86.7992 1.525C86.7659 1.675 86.7492 1.80833 86.7492 1.925V15.25C86.7492 15.3833 86.7659 15.525 86.7992 15.675C86.8492 15.825 86.9076 15.975 86.9742 16.125C87.0409 16.2583 87.1242 16.375 87.2242 16.475C87.3242 16.575 87.4409 16.625 87.5742 16.625H87.6992V16.875H84.1492V16.625Z" fill="#281814"></path></svg> 