<?xml version="1.0" encoding="UTF-8"?> <svg xmlns="http://www.w3.org/2000/svg" width="234" height="29" viewBox="0 0 234 29" fill="none"><path d="M21.2656 2.40207e-05H23.3956C24.5056 2.40207e-05 25.3456 0.215024 25.9156 0.645024C26.4956 1.06502 26.7856 1.66502 26.7856 2.44502C26.7856 2.86502 26.6856 3.24002 26.4856 3.57002C26.2856 3.90002 26.0206 4.18002 25.6906 4.41002C25.3706 4.63002 25.0056 4.80002 24.5956 4.92002C24.1956 5.04002 23.7956 5.10002 23.3956 5.10002H22.8256V8.92502C22.8256 9.00502 22.8356 9.09502 22.8556 9.19502C22.8756 9.28502 22.9056 9.37002 22.9456 9.45002C22.9956 9.53002 23.0456 9.60002 23.0956 9.66002C23.1556 9.72002 23.2256 9.75002 23.3056 9.75002H23.3806V9.90002H21.2656V9.75002H21.3406C21.4106 9.75002 21.4756 9.72002 21.5356 9.66002C21.5956 9.60002 21.6456 9.53002 21.6856 9.45002C21.7256 9.37002 21.7556 9.28502 21.7756 9.19502C21.7956 9.09502 21.8056 9.00502 21.8056 8.92502V0.930024C21.8056 0.790024 21.7656 0.630024 21.6856 0.450024C21.6056 0.270024 21.4906 0.170024 21.3406 0.150024H21.2656V2.40207e-05ZM22.8256 0.525024V4.57502H23.2756C23.6756 4.57502 24.0306 4.52002 24.3406 4.41002C24.6606 4.30002 24.9256 4.15502 25.1356 3.97502C25.3456 3.79502 25.5056 3.59002 25.6156 3.36002C25.7256 3.13002 25.7806 2.89502 25.7806 2.65502C25.7806 2.36502 25.7306 2.09502 25.6306 1.84502C25.5406 1.58502 25.3856 1.36002 25.1656 1.17002C24.9556 0.970024 24.6756 0.815024 24.3256 0.705024C23.9756 0.585024 23.5456 0.525024 23.0356 0.525024H22.8256ZM31.4035 9.90002V9.13502L31.3285 9.21002C31.0785 9.46002 30.7885 9.65502 30.4585 9.79502C30.1385 9.93502 29.7485 10.005 29.2885 10.005C28.9385 10.005 28.6385 9.96502 28.3885 9.88502C28.1385 9.80502 27.9335 9.69502 27.7735 9.55502C27.6135 9.40502 27.4935 9.23502 27.4135 9.04502C27.3435 8.85502 27.3085 8.65502 27.3085 8.44502C27.3085 8.10502 27.3985 7.80502 27.5785 7.54502C27.7685 7.28502 28.0385 7.05502 28.3885 6.85502C28.7385 6.65502 29.1635 6.47502 29.6635 6.31502C30.1735 6.14502 30.7535 5.98002 31.4035 5.82002C31.3835 5.43002 31.3035 5.11502 31.1635 4.87502C31.0235 4.63502 30.8585 4.45002 30.6685 4.32002C30.4785 4.18002 30.2785 4.09002 30.0685 4.05002C29.8585 4.00002 29.6785 3.97502 29.5285 3.97502C29.2685 3.97502 29.0385 4.01502 28.8385 4.09502C28.6385 4.16502 28.4635 4.26502 28.3135 4.39502C28.1635 4.51502 28.0385 4.65502 27.9385 4.81502C27.8485 4.97502 27.7785 5.13502 27.7285 5.29502H27.5935V4.12502C27.6835 4.12502 27.7885 4.09502 27.9085 4.03502C28.0285 3.96502 28.1685 3.89002 28.3285 3.81002C28.4985 3.73002 28.6985 3.66002 28.9285 3.60002C29.1685 3.53002 29.4535 3.49502 29.7835 3.49502C30.3335 3.49502 30.7785 3.56502 31.1185 3.70502C31.4585 3.84502 31.7185 4.03002 31.8985 4.26002C32.0885 4.49002 32.2135 4.75502 32.2735 5.05502C32.3335 5.34502 32.3635 5.64502 32.3635 5.95502V8.92502C32.3635 9.12502 32.4135 9.31502 32.5135 9.49502C32.6135 9.66502 32.7485 9.75002 32.9185 9.75002V9.90002H31.4035ZM31.4035 8.47502V6.33002L31.2535 6.36002C31.0135 6.42002 30.7185 6.50002 30.3685 6.60002C30.0285 6.70002 29.7035 6.83002 29.3935 6.99002C29.0835 7.15002 28.8185 7.34002 28.5985 7.56002C28.3785 7.78002 28.2685 8.03502 28.2685 8.32502C28.2685 8.64502 28.3985 8.91002 28.6585 9.12002C28.9185 9.33002 29.2585 9.43502 29.6785 9.43502C30.0085 9.43502 30.2985 9.36502 30.5485 9.22502C30.7985 9.07502 31.0285 8.88502 31.2385 8.65502L31.4035 8.47502ZM40.2839 9.36002C40.2039 9.36002 40.1289 9.38002 40.0589 9.42002C39.9889 9.45002 39.9089 9.49002 39.8189 9.54002C39.6489 9.64002 39.4239 9.74502 39.1439 9.85502C38.8639 9.95502 38.5139 10.005 38.0939 10.005C37.5839 10.005 37.1139 9.92502 36.6839 9.76502C36.2639 9.59502 35.8989 9.36502 35.5889 9.07502C35.2789 8.77502 35.0389 8.43002 34.8689 8.04002C34.6989 7.64002 34.6139 7.21002 34.6139 6.75002C34.6139 6.32002 34.6889 5.91002 34.8389 5.52002C34.9989 5.13002 35.2239 4.78502 35.5139 4.48502C35.8039 4.18502 36.1589 3.94502 36.5789 3.76502C37.0089 3.58502 37.4939 3.49502 38.0339 3.49502C38.4039 3.49502 38.7039 3.54002 38.9339 3.63002C39.1639 3.71002 39.3589 3.79002 39.5189 3.87002C39.6089 3.92002 39.6939 3.96002 39.7739 3.99002C39.8639 4.02002 39.9539 4.03502 40.0439 4.03502V5.17502H39.8939C39.8439 4.98502 39.7539 4.82002 39.6239 4.68002C39.4939 4.53002 39.3439 4.40502 39.1739 4.30502C39.0039 4.20502 38.8189 4.13002 38.6189 4.08002C38.4189 4.03002 38.2239 4.00502 38.0339 4.00502C37.6239 4.00502 37.2639 4.08002 36.9539 4.23002C36.6439 4.37002 36.3889 4.56002 36.1889 4.80002C35.9889 5.03002 35.8389 5.29502 35.7389 5.59502C35.6389 5.89502 35.5889 6.20502 35.5889 6.52502C35.5889 6.89502 35.6439 7.26002 35.7539 7.62002C35.8739 7.97002 36.0389 8.28502 36.2489 8.56502C36.4689 8.84502 36.7339 9.07002 37.0439 9.24002C37.3639 9.41002 37.7239 9.49502 38.1239 9.49502C38.4039 9.49502 38.6639 9.45502 38.9039 9.37502C39.1439 9.29502 39.3489 9.19002 39.5189 9.06002C39.6989 8.93002 39.8389 8.79002 39.9389 8.64002C40.0489 8.48002 40.1139 8.33002 40.1339 8.19002H40.2839V9.36002ZM46.9449 9.36002C46.8649 9.36002 46.7899 9.38002 46.7199 9.42002C46.6499 9.45002 46.5699 9.49002 46.4799 9.54002C46.3099 9.64002 46.0849 9.74502 45.8049 9.85502C45.5249 9.95502 45.1749 10.005 44.7549 10.005C44.2449 10.005 43.7749 9.92502 43.3449 9.76502C42.9249 9.59502 42.5599 9.36502 42.2499 9.07502C41.9399 8.77502 41.6999 8.43002 41.5299 8.04002C41.3599 7.64002 41.2749 7.21002 41.2749 6.75002C41.2749 6.32002 41.3499 5.91002 41.4999 5.52002C41.6599 5.13002 41.8849 4.78502 42.1749 4.48502C42.4649 4.18502 42.8199 3.94502 43.2399 3.76502C43.6699 3.58502 44.1549 3.49502 44.6949 3.49502C45.0649 3.49502 45.3649 3.54002 45.5949 3.63002C45.8249 3.71002 46.0199 3.79002 46.1799 3.87002C46.2699 3.92002 46.3549 3.96002 46.4349 3.99002C46.5249 4.02002 46.6149 4.03502 46.7049 4.03502V5.17502H46.5549C46.5049 4.98502 46.4149 4.82002 46.2849 4.68002C46.1549 4.53002 46.0049 4.40502 45.8349 4.30502C45.6649 4.20502 45.4799 4.13002 45.2799 4.08002C45.0799 4.03002 44.8849 4.00502 44.6949 4.00502C44.2849 4.00502 43.9249 4.08002 43.6149 4.23002C43.3049 4.37002 43.0499 4.56002 42.8499 4.80002C42.6499 5.03002 42.4999 5.29502 42.3999 5.59502C42.2999 5.89502 42.2499 6.20502 42.2499 6.52502C42.2499 6.89502 42.3049 7.26002 42.4149 7.62002C42.5349 7.97002 42.6999 8.28502 42.9099 8.56502C43.1299 8.84502 43.3949 9.07002 43.7049 9.24002C44.0249 9.41002 44.3849 9.49502 44.7849 9.49502C45.0649 9.49502 45.3249 9.45502 45.5649 9.37502C45.8049 9.29502 46.0099 9.19002 46.1799 9.06002C46.3599 8.93002 46.4999 8.79002 46.5999 8.64002C46.7099 8.48002 46.7749 8.33002 46.7949 8.19002H46.9449V9.36002ZM52.8931 9.75002C52.9631 9.75002 53.0431 9.72002 53.1331 9.66002C53.2231 9.60002 53.2681 9.51502 53.2681 9.40502C53.2681 9.38502 53.2581 9.34502 53.2381 9.28502C53.2281 9.21502 53.2031 9.14002 53.1631 9.06002L51.2581 4.56002L49.2781 9.28502C49.1081 9.69502 48.7731 9.90002 48.2731 9.90002H47.9431V9.75002C48.0831 9.75002 48.2331 9.68002 48.3931 9.54002C48.5631 9.39002 48.6981 9.21502 48.7981 9.01502L50.8381 4.24502C50.8881 4.11502 50.9131 4.01002 50.9131 3.93002C50.9131 3.81002 50.8331 3.75002 50.6731 3.75002V3.60002H51.8881L54.1981 9.00002C54.2681 9.15002 54.3681 9.31502 54.4981 9.49502C54.6381 9.66502 54.7681 9.75002 54.8881 9.75002V9.90002H52.8931V9.75002ZM60.2005 9.90002V9.13502L60.1255 9.21002C59.8755 9.46002 59.5855 9.65502 59.2555 9.79502C58.9355 9.93502 58.5455 10.005 58.0855 10.005C57.7355 10.005 57.4355 9.96502 57.1855 9.88502C56.9355 9.80502 56.7305 9.69502 56.5705 9.55502C56.4105 9.40502 56.2905 9.23502 56.2105 9.04502C56.1405 8.85502 56.1055 8.65502 56.1055 8.44502C56.1055 8.10502 56.1955 7.80502 56.3755 7.54502C56.5655 7.28502 56.8355 7.05502 57.1855 6.85502C57.5355 6.65502 57.9605 6.47502 58.4605 6.31502C58.9705 6.14502 59.5505 5.98002 60.2005 5.82002C60.1805 5.43002 60.1005 5.11502 59.9605 4.87502C59.8205 4.63502 59.6555 4.45002 59.4655 4.32002C59.2755 4.18002 59.0755 4.09002 58.8655 4.05002C58.6555 4.00002 58.4755 3.97502 58.3255 3.97502C58.0655 3.97502 57.8355 4.01502 57.6355 4.09502C57.4355 4.16502 57.2605 4.26502 57.1105 4.39502C56.9605 4.51502 56.8355 4.65502 56.7355 4.81502C56.6455 4.97502 56.5755 5.13502 56.5255 5.29502H56.3905V4.12502C56.4805 4.12502 56.5855 4.09502 56.7055 4.03502C56.8255 3.96502 56.9655 3.89002 57.1255 3.81002C57.2955 3.73002 57.4955 3.66002 57.7255 3.60002C57.9655 3.53002 58.2505 3.49502 58.5805 3.49502C59.1305 3.49502 59.5755 3.56502 59.9155 3.70502C60.2555 3.84502 60.5155 4.03002 60.6955 4.26002C60.8855 4.49002 61.0105 4.75502 61.0705 5.05502C61.1305 5.34502 61.1605 5.64502 61.1605 5.95502V8.92502C61.1605 9.12502 61.2105 9.31502 61.3105 9.49502C61.4105 9.66502 61.5455 9.75002 61.7155 9.75002V9.90002H60.2005ZM60.2005 8.47502V6.33002L60.0505 6.36002C59.8105 6.42002 59.5155 6.50002 59.1655 6.60002C58.8255 6.70002 58.5005 6.83002 58.1905 6.99002C57.8805 7.15002 57.6155 7.34002 57.3955 7.56002C57.1755 7.78002 57.0655 8.03502 57.0655 8.32502C57.0655 8.64502 57.1955 8.91002 57.4555 9.12002C57.7155 9.33002 58.0555 9.43502 58.4755 9.43502C58.8055 9.43502 59.0955 9.36502 59.3455 9.22502C59.5955 9.07502 59.8255 8.88502 60.0355 8.65502L60.2005 8.47502ZM66.786 3.49502C67.286 3.49502 67.736 3.58002 68.136 3.75002C68.546 3.91002 68.891 4.13502 69.171 4.42502C69.461 4.70502 69.681 5.04002 69.831 5.43002C69.981 5.82002 70.056 6.24502 70.056 6.70502C70.056 7.19502 69.971 7.64502 69.801 8.05502C69.631 8.45502 69.396 8.80002 69.096 9.09002C68.796 9.38002 68.441 9.60502 68.031 9.76502C67.621 9.92502 67.176 10.005 66.696 10.005C66.186 10.005 65.731 9.91002 65.331 9.72002C64.931 9.52002 64.591 9.25002 64.311 8.91002C64.031 8.57002 63.816 8.17002 63.666 7.71002C63.516 7.24002 63.441 6.73502 63.441 6.19502C63.441 5.88502 63.456 5.60002 63.486 5.34002C63.526 5.08002 63.581 4.83002 63.651 4.59002C63.731 4.34002 63.826 4.10002 63.936 3.87002C64.046 3.64002 64.176 3.40002 64.326 3.15002C64.746 2.49002 65.271 1.97002 65.901 1.59002C66.541 1.21002 67.191 1.02002 67.851 1.02002H69.756L69.171 1.98002H67.611C67.291 1.98002 66.971 2.04002 66.651 2.16002C66.331 2.27002 66.026 2.44002 65.736 2.67002C65.456 2.89002 65.206 3.16002 64.986 3.48002C64.766 3.80002 64.591 4.16502 64.461 4.57502C64.731 4.24502 65.041 3.98502 65.391 3.79502C65.751 3.59502 66.216 3.49502 66.786 3.49502ZM66.876 9.49502C67.246 9.47502 67.571 9.39002 67.851 9.24002C68.131 9.08002 68.366 8.88002 68.556 8.64002C68.746 8.39002 68.886 8.11502 68.976 7.81502C69.076 7.50502 69.126 7.19002 69.126 6.87002C69.126 6.50002 69.066 6.14502 68.946 5.80502C68.826 5.45502 68.656 5.15002 68.436 4.89002C68.216 4.63002 67.951 4.42002 67.641 4.26002C67.341 4.10002 67.006 4.02002 66.636 4.02002C66.276 4.02002 65.956 4.10002 65.676 4.26002C65.396 4.41002 65.161 4.61002 64.971 4.86002C64.781 5.11002 64.636 5.39502 64.536 5.71502C64.446 6.03502 64.401 6.35502 64.401 6.67502C64.401 6.99502 64.456 7.32502 64.566 7.66502C64.686 7.99502 64.851 8.29502 65.061 8.56502C65.281 8.83502 65.541 9.06002 65.841 9.24002C66.151 9.41002 66.496 9.49502 66.876 9.49502ZM75.2782 9.75002C75.3482 9.75002 75.4282 9.72002 75.5182 9.66002C75.6082 9.60002 75.6532 9.51502 75.6532 9.40502C75.6532 9.38502 75.6432 9.34502 75.6232 9.28502C75.6132 9.21502 75.5882 9.14002 75.5482 9.06002L73.6432 4.56002L71.6632 9.28502C71.4932 9.69502 71.1582 9.90002 70.6582 9.90002H70.3282V9.75002C70.4682 9.75002 70.6182 9.68002 70.7782 9.54002C70.9482 9.39002 71.0832 9.21502 71.1832 9.01502L73.2232 4.24502C73.2732 4.11502 73.2982 4.01002 73.2982 3.93002C73.2982 3.81002 73.2182 3.75002 73.0582 3.75002V3.60002H74.2732L76.5832 9.00002C76.6532 9.15002 76.7532 9.31502 76.8832 9.49502C77.0232 9.66502 77.1532 9.75002 77.2732 9.75002V9.90002H75.2782V9.75002ZM83.4107 8.92502C83.4107 9.00502 83.4207 9.09502 83.4407 9.19502C83.4607 9.28502 83.4907 9.37502 83.5307 9.46502C83.5807 9.54502 83.6307 9.61502 83.6807 9.67502C83.7407 9.72502 83.8107 9.75002 83.8907 9.75002V9.90002H81.9407V9.75002C82.0107 9.75002 82.0757 9.72002 82.1357 9.66002C82.1957 9.60002 82.2457 9.53002 82.2857 9.45002C82.3357 9.37002 82.3707 9.28502 82.3907 9.19502C82.4107 9.09502 82.4207 9.00502 82.4207 8.92502V6.82502C82.3107 6.84502 82.1857 6.90502 82.0457 7.00502C81.9057 7.09502 81.7607 7.21502 81.6107 7.36502C81.4607 7.50502 81.3157 7.66002 81.1757 7.83002C81.0357 8.00002 80.9057 8.17002 80.7857 8.34002C80.6857 8.48002 80.6007 8.59502 80.5307 8.68502C80.4607 8.77502 80.4007 8.86002 80.3507 8.94002C80.2507 9.07002 80.1507 9.19502 80.0507 9.31502C79.9507 9.42502 79.8357 9.52502 79.7057 9.61502C79.5857 9.70502 79.4407 9.77502 79.2707 9.82502C79.1007 9.87502 78.9007 9.90002 78.6707 9.90002H78.1157V9.75002C78.2357 9.75002 78.3557 9.71502 78.4757 9.64502C78.6057 9.57502 78.7307 9.49002 78.8507 9.39002C78.9707 9.28002 79.0807 9.16502 79.1807 9.04502C79.2907 8.91502 79.3857 8.79502 79.4657 8.68502L79.9307 8.04002C80.1007 7.81002 80.2757 7.58502 80.4557 7.36502C80.6357 7.13502 80.8407 6.95502 81.0707 6.82502C80.7107 6.81502 80.3907 6.76502 80.1107 6.67502C79.8307 6.58502 79.5957 6.46502 79.4057 6.31502C79.2157 6.16502 79.0707 5.99502 78.9707 5.80502C78.8807 5.60502 78.8357 5.39502 78.8357 5.17502C78.8357 4.96502 78.8807 4.76502 78.9707 4.57502C79.0707 4.38502 79.2257 4.22002 79.4357 4.08002C79.6457 3.93002 79.9107 3.81502 80.2307 3.73502C80.5607 3.64502 80.9557 3.60002 81.4157 3.60002H83.8907V3.75002C83.8107 3.75002 83.7407 3.78002 83.6807 3.84002C83.6307 3.89002 83.5807 3.95502 83.5307 4.03502C83.4907 4.11502 83.4607 4.20002 83.4407 4.29002C83.4207 4.38002 83.4107 4.46002 83.4107 4.53002V8.92502ZM79.8107 5.08502C79.8107 5.23502 79.8557 5.38502 79.9457 5.53502C80.0457 5.68502 80.1757 5.82002 80.3357 5.94002C80.5057 6.06002 80.6957 6.16002 80.9057 6.24002C81.1157 6.31002 81.3407 6.34502 81.5807 6.34502H82.4207V4.08002H81.4457C80.8457 4.08002 80.4207 4.17502 80.1707 4.36502C79.9307 4.55502 79.8107 4.79502 79.8107 5.08502ZM86.6097 6.87002C86.6497 7.22002 86.7347 7.55502 86.8647 7.87502C86.9947 8.18502 87.1647 8.46002 87.3747 8.70002C87.5947 8.94002 87.8597 9.13502 88.1697 9.28502C88.4797 9.42502 88.8397 9.49502 89.2497 9.49502C89.4697 9.49502 89.6997 9.46502 89.9397 9.40502C90.1897 9.33502 90.4197 9.24002 90.6297 9.12002C90.8397 9.00002 91.0247 8.85502 91.1847 8.68502C91.3547 8.50502 91.4697 8.30502 91.5297 8.08502H91.6647V9.21002C91.6047 9.21002 91.5347 9.23002 91.4547 9.27002C91.3847 9.31002 91.2997 9.36002 91.1997 9.42002C90.9997 9.54002 90.7297 9.67002 90.3897 9.81002C90.0497 9.94002 89.5997 10.005 89.0397 10.005C88.5897 10.005 88.1597 9.94002 87.7497 9.81002C87.3497 9.68002 86.9947 9.48002 86.6847 9.21002C86.3747 8.94002 86.1247 8.59502 85.9347 8.17502C85.7547 7.75502 85.6647 7.25502 85.6647 6.67502C85.6647 6.30502 85.7247 5.93002 85.8447 5.55002C85.9747 5.17002 86.1647 4.83002 86.4147 4.53002C86.6747 4.22002 87.0047 3.97002 87.4047 3.78002C87.8047 3.59002 88.2847 3.49502 88.8447 3.49502C89.3447 3.49502 89.7797 3.58002 90.1497 3.75002C90.5297 3.92002 90.8397 4.15502 91.0797 4.45502C91.3297 4.75502 91.5147 5.11002 91.6347 5.52002C91.7547 5.93002 91.8147 6.38002 91.8147 6.87002H86.6097ZM88.7847 3.99002C88.4347 3.99002 88.1297 4.06002 87.8697 4.20002C87.6197 4.34002 87.4047 4.52002 87.2247 4.74002C87.0447 4.96002 86.9047 5.21002 86.8047 5.49002C86.7047 5.77002 86.6397 6.05002 86.6097 6.33002H90.8847C90.8747 6.04002 90.8197 5.75502 90.7197 5.47502C90.6297 5.19502 90.4997 4.94502 90.3297 4.72502C90.1597 4.50502 89.9447 4.33002 89.6847 4.20002C89.4247 4.06002 89.1247 3.99002 88.7847 3.99002ZM100.385 8.92502C100.385 9.00502 100.395 9.09502 100.415 9.19502C100.435 9.28502 100.465 9.37002 100.505 9.45002C100.555 9.53002 100.61 9.60002 100.67 9.66002C100.73 9.72002 100.8 9.75002 100.88 9.75002V9.90002H98.9299V9.75002C99.0099 9.75002 99.0799 9.72502 99.1399 9.67502C99.1999 9.61502 99.2499 9.54502 99.2899 9.46502C99.3299 9.37502 99.3599 9.28502 99.3799 9.19502C99.3999 9.09502 99.4099 9.00502 99.4099 8.92502V4.87502L96.9049 10.035L94.5049 5.17502V8.92502C94.5049 9.00502 94.5149 9.09502 94.5349 9.19502C94.5549 9.28502 94.5849 9.37002 94.6249 9.45002C94.6649 9.53002 94.7149 9.60002 94.7749 9.66002C94.8349 9.72002 94.9049 9.75002 94.9849 9.75002V9.90002H93.5299V9.75002C93.6099 9.75002 93.6799 9.72002 93.7399 9.66002C93.7999 9.60002 93.8449 9.53002 93.8749 9.45002C93.9149 9.37002 93.9449 9.28502 93.9649 9.19502C93.9849 9.09502 93.9949 9.00502 93.9949 8.92502V4.53002C93.9949 4.35002 93.9699 4.17502 93.9199 4.00502C93.8799 3.83502 93.7499 3.75002 93.5299 3.75002V3.60002H94.8649L97.1599 8.29502L99.4549 3.60002H100.88V3.75002C100.73 3.75002 100.61 3.84502 100.52 4.03502C100.43 4.21502 100.385 4.38002 100.385 4.53002V8.92502ZM108.333 9.36002C108.253 9.36002 108.178 9.38002 108.108 9.42002C108.038 9.45002 107.958 9.49002 107.868 9.54002C107.698 9.64002 107.473 9.74502 107.193 9.85502C106.913 9.95502 106.563 10.005 106.143 10.005C105.633 10.005 105.163 9.92502 104.733 9.76502C104.313 9.59502 103.948 9.36502 103.638 9.07502C103.328 8.77502 103.088 8.43002 102.918 8.04002C102.748 7.64002 102.663 7.21002 102.663 6.75002C102.663 6.32002 102.738 5.91002 102.888 5.52002C103.048 5.13002 103.273 4.78502 103.563 4.48502C103.853 4.18502 104.208 3.94502 104.628 3.76502C105.058 3.58502 105.543 3.49502 106.083 3.49502C106.453 3.49502 106.753 3.54002 106.983 3.63002C107.213 3.71002 107.408 3.79002 107.568 3.87002C107.658 3.92002 107.743 3.96002 107.823 3.99002C107.913 4.02002 108.003 4.03502 108.093 4.03502V5.17502H107.943C107.893 4.98502 107.803 4.82002 107.673 4.68002C107.543 4.53002 107.393 4.40502 107.223 4.30502C107.053 4.20502 106.868 4.13002 106.668 4.08002C106.468 4.03002 106.273 4.00502 106.083 4.00502C105.673 4.00502 105.313 4.08002 105.003 4.23002C104.693 4.37002 104.438 4.56002 104.238 4.80002C104.038 5.03002 103.888 5.29502 103.788 5.59502C103.688 5.89502 103.638 6.20502 103.638 6.52502C103.638 6.89502 103.693 7.26002 103.803 7.62002C103.923 7.97002 104.088 8.28502 104.298 8.56502C104.518 8.84502 104.783 9.07002 105.093 9.24002C105.413 9.41002 105.773 9.49502 106.173 9.49502C106.453 9.49502 106.713 9.45502 106.953 9.37502C107.193 9.29502 107.398 9.19002 107.568 9.06002C107.748 8.93002 107.888 8.79002 107.988 8.64002C108.098 8.48002 108.163 8.33002 108.183 8.19002H108.333V9.36002ZM114.566 8.92502C114.566 9.00502 114.576 9.09502 114.596 9.19502C114.616 9.28502 114.646 9.37502 114.686 9.46502C114.736 9.54502 114.786 9.61502 114.836 9.67502C114.896 9.72502 114.966 9.75002 115.046 9.75002V9.90002H113.096V9.75002C113.166 9.75002 113.231 9.72002 113.291 9.66002C113.351 9.60002 113.401 9.53002 113.441 9.45002C113.491 9.37002 113.526 9.28502 113.546 9.19502C113.566 9.09502 113.576 9.00502 113.576 8.92502V6.82502C113.466 6.84502 113.341 6.90502 113.201 7.00502C113.061 7.09502 112.916 7.21502 112.766 7.36502C112.616 7.50502 112.471 7.66002 112.331 7.83002C112.191 8.00002 112.061 8.17002 111.941 8.34002C111.841 8.48002 111.756 8.59502 111.686 8.68502C111.616 8.77502 111.556 8.86002 111.506 8.94002C111.406 9.07002 111.306 9.19502 111.206 9.31502C111.106 9.42502 110.991 9.52502 110.861 9.61502C110.741 9.70502 110.596 9.77502 110.426 9.82502C110.256 9.87502 110.056 9.90002 109.826 9.90002H109.271V9.75002C109.391 9.75002 109.511 9.71502 109.631 9.64502C109.761 9.57502 109.886 9.49002 110.006 9.39002C110.126 9.28002 110.236 9.16502 110.336 9.04502C110.446 8.91502 110.541 8.79502 110.621 8.68502L111.086 8.04002C111.256 7.81002 111.431 7.58502 111.611 7.36502C111.791 7.13502 111.996 6.95502 112.226 6.82502C111.866 6.81502 111.546 6.76502 111.266 6.67502C110.986 6.58502 110.751 6.46502 110.561 6.31502C110.371 6.16502 110.226 5.99502 110.126 5.80502C110.036 5.60502 109.991 5.39502 109.991 5.17502C109.991 4.96502 110.036 4.76502 110.126 4.57502C110.226 4.38502 110.381 4.22002 110.591 4.08002C110.801 3.93002 111.066 3.81502 111.386 3.73502C111.716 3.64502 112.111 3.60002 112.571 3.60002H115.046V3.75002C114.966 3.75002 114.896 3.78002 114.836 3.84002C114.786 3.89002 114.736 3.95502 114.686 4.03502C114.646 4.11502 114.616 4.20002 114.596 4.29002C114.576 4.38002 114.566 4.46002 114.566 4.53002V8.92502ZM110.966 5.08502C110.966 5.23502 111.011 5.38502 111.101 5.53502C111.201 5.68502 111.331 5.82002 111.491 5.94002C111.661 6.06002 111.851 6.16002 112.061 6.24002C112.271 6.31002 112.496 6.34502 112.736 6.34502H113.576V4.08002H112.601C112.001 4.08002 111.576 4.17502 111.326 4.36502C111.086 4.55502 110.966 4.79502 110.966 5.08502ZM122.757 8.92502C122.757 9.00502 122.767 9.09502 122.787 9.19502C122.807 9.28502 122.832 9.37002 122.862 9.45002C122.902 9.53002 122.947 9.60002 122.997 9.66002C123.057 9.72002 123.127 9.75002 123.207 9.75002V9.90002H121.302V9.75002C121.382 9.75002 121.452 9.72502 121.512 9.67502C121.572 9.61502 121.617 9.54502 121.647 9.46502C121.687 9.37502 121.717 9.28502 121.737 9.19502C121.757 9.09502 121.767 9.00502 121.767 8.92502V4.53002C121.767 4.46002 121.757 4.38002 121.737 4.29002C121.717 4.19002 121.687 4.10502 121.647 4.03502C121.607 3.95502 121.557 3.89002 121.497 3.84002C121.437 3.78002 121.372 3.75002 121.302 3.75002V3.60002H127.527V3.75002C127.367 3.75002 127.247 3.84502 127.167 4.03502C127.087 4.21502 127.047 4.38002 127.047 4.53002V8.92502C127.047 9.00502 127.057 9.09502 127.077 9.19502C127.097 9.28502 127.127 9.37002 127.167 9.45002C127.207 9.53002 127.257 9.60002 127.317 9.66002C127.387 9.72002 127.457 9.75002 127.527 9.75002V9.90002H125.592V9.75002C125.682 9.75002 125.752 9.72502 125.802 9.67502C125.862 9.61502 125.912 9.54502 125.952 9.46502C125.992 9.37502 126.017 9.28502 126.027 9.19502C126.047 9.09502 126.057 9.00502 126.057 8.92502V4.12502H122.757V8.92502ZM132.548 10.005C132.048 10.005 131.598 9.92502 131.198 9.76502C130.798 9.59502 130.453 9.37002 130.163 9.09002C129.883 8.80002 129.663 8.46002 129.503 8.07002C129.353 7.68002 129.278 7.25502 129.278 6.79502C129.278 6.30502 129.363 5.86002 129.533 5.46002C129.703 5.05002 129.938 4.70002 130.238 4.41002C130.538 4.12002 130.893 3.89502 131.303 3.73502C131.713 3.57502 132.158 3.49502 132.638 3.49502C133.118 3.49502 133.558 3.57502 133.958 3.73502C134.358 3.88502 134.703 4.10002 134.993 4.38002C135.283 4.66002 135.508 4.99502 135.668 5.38502C135.828 5.76502 135.908 6.18502 135.908 6.64502C135.908 7.07502 135.833 7.49502 135.683 7.90502C135.543 8.30502 135.328 8.66002 135.038 8.97002C134.758 9.28002 134.408 9.53002 133.988 9.72002C133.578 9.91002 133.098 10.005 132.548 10.005ZM132.458 3.99002C132.098 4.01002 131.778 4.10002 131.498 4.26002C131.228 4.41002 130.998 4.61002 130.808 4.86002C130.628 5.10002 130.488 5.37502 130.388 5.68502C130.298 5.99502 130.253 6.31002 130.253 6.63002C130.253 7.00002 130.308 7.36002 130.418 7.71002C130.538 8.05002 130.703 8.35502 130.913 8.62502C131.133 8.89502 131.393 9.11002 131.693 9.27002C131.993 9.43002 132.328 9.51002 132.698 9.51002C133.068 9.51002 133.393 9.43002 133.673 9.27002C133.963 9.11002 134.203 8.90502 134.393 8.65502C134.583 8.39502 134.723 8.10502 134.813 7.78502C134.913 7.46502 134.963 7.14502 134.963 6.82502C134.963 6.49502 134.913 6.16502 134.813 5.83502C134.713 5.49502 134.558 5.19002 134.348 4.92002C134.138 4.64002 133.873 4.41502 133.553 4.24502C133.243 4.07502 132.878 3.99002 132.458 3.99002ZM143.234 9.36002C143.154 9.36002 143.079 9.38002 143.009 9.42002C142.939 9.45002 142.859 9.49002 142.769 9.54002C142.599 9.64002 142.374 9.74502 142.094 9.85502C141.814 9.95502 141.464 10.005 141.044 10.005C140.534 10.005 140.064 9.92502 139.634 9.76502C139.214 9.59502 138.849 9.36502 138.539 9.07502C138.229 8.77502 137.989 8.43002 137.819 8.04002C137.649 7.64002 137.564 7.21002 137.564 6.75002C137.564 6.32002 137.639 5.91002 137.789 5.52002C137.949 5.13002 138.174 4.78502 138.464 4.48502C138.754 4.18502 139.109 3.94502 139.529 3.76502C139.959 3.58502 140.444 3.49502 140.984 3.49502C141.354 3.49502 141.654 3.54002 141.884 3.63002C142.114 3.71002 142.309 3.79002 142.469 3.87002C142.559 3.92002 142.644 3.96002 142.724 3.99002C142.814 4.02002 142.904 4.03502 142.994 4.03502V5.17502H142.844C142.794 4.98502 142.704 4.82002 142.574 4.68002C142.444 4.53002 142.294 4.40502 142.124 4.30502C141.954 4.20502 141.769 4.13002 141.569 4.08002C141.369 4.03002 141.174 4.00502 140.984 4.00502C140.574 4.00502 140.214 4.08002 139.904 4.23002C139.594 4.37002 139.339 4.56002 139.139 4.80002C138.939 5.03002 138.789 5.29502 138.689 5.59502C138.589 5.89502 138.539 6.20502 138.539 6.52502C138.539 6.89502 138.594 7.26002 138.704 7.62002C138.824 7.97002 138.989 8.28502 139.199 8.56502C139.419 8.84502 139.684 9.07002 139.994 9.24002C140.314 9.41002 140.674 9.49502 141.074 9.49502C141.354 9.49502 141.614 9.45502 141.854 9.37502C142.094 9.29502 142.299 9.19002 142.469 9.06002C142.649 8.93002 142.789 8.79002 142.889 8.64002C142.999 8.48002 143.064 8.33002 143.084 8.19002H143.234V9.36002ZM149.183 9.75002C149.253 9.75002 149.333 9.72002 149.423 9.66002C149.513 9.60002 149.558 9.51502 149.558 9.40502C149.558 9.38502 149.548 9.34502 149.528 9.28502C149.518 9.21502 149.493 9.14002 149.453 9.06002L147.548 4.56002L145.568 9.28502C145.398 9.69502 145.063 9.90002 144.563 9.90002H144.233V9.75002C144.373 9.75002 144.523 9.68002 144.683 9.54002C144.853 9.39002 144.988 9.21502 145.088 9.01502L147.128 4.24502C147.178 4.11502 147.203 4.01002 147.203 3.93002C147.203 3.81002 147.123 3.75002 146.963 3.75002V3.60002H148.178L150.488 9.00002C150.558 9.15002 150.658 9.31502 150.788 9.49502C150.928 9.66502 151.058 9.75002 151.178 9.75002V9.90002H149.183V9.75002ZM153.355 6.87002C153.395 7.22002 153.48 7.55502 153.61 7.87502C153.74 8.18502 153.91 8.46002 154.12 8.70002C154.34 8.94002 154.605 9.13502 154.915 9.28502C155.225 9.42502 155.585 9.49502 155.995 9.49502C156.215 9.49502 156.445 9.46502 156.685 9.40502C156.935 9.33502 157.165 9.24002 157.375 9.12002C157.585 9.00002 157.77 8.85502 157.93 8.68502C158.1 8.50502 158.215 8.30502 158.275 8.08502H158.41V9.21002C158.35 9.21002 158.28 9.23002 158.2 9.27002C158.13 9.31002 158.045 9.36002 157.945 9.42002C157.745 9.54002 157.475 9.67002 157.135 9.81002C156.795 9.94002 156.345 10.005 155.785 10.005C155.335 10.005 154.905 9.94002 154.495 9.81002C154.095 9.68002 153.74 9.48002 153.43 9.21002C153.12 8.94002 152.87 8.59502 152.68 8.17502C152.5 7.75502 152.41 7.25502 152.41 6.67502C152.41 6.30502 152.47 5.93002 152.59 5.55002C152.72 5.17002 152.91 4.83002 153.16 4.53002C153.42 4.22002 153.75 3.97002 154.15 3.78002C154.55 3.59002 155.03 3.49502 155.59 3.49502C156.09 3.49502 156.525 3.58002 156.895 3.75002C157.275 3.92002 157.585 4.15502 157.825 4.45502C158.075 4.75502 158.26 5.11002 158.38 5.52002C158.5 5.93002 158.56 6.38002 158.56 6.87002H153.355ZM155.53 3.99002C155.18 3.99002 154.875 4.06002 154.615 4.20002C154.365 4.34002 154.15 4.52002 153.97 4.74002C153.79 4.96002 153.65 5.21002 153.55 5.49002C153.45 5.77002 153.385 6.05002 153.355 6.33002H157.63C157.62 6.04002 157.565 5.75502 157.465 5.47502C157.375 5.19502 157.245 4.94502 157.075 4.72502C156.905 4.50502 156.69 4.33002 156.43 4.20002C156.17 4.06002 155.87 3.99002 155.53 3.99002ZM171.282 9.40502V11.25H171.132C171.112 11.13 171.077 10.99 171.027 10.83C170.977 10.68 170.907 10.535 170.817 10.395C170.727 10.255 170.617 10.135 170.487 10.035C170.367 9.94502 170.227 9.90002 170.067 9.90002H165.297C165.137 9.90002 164.992 9.94502 164.862 10.035C164.732 10.135 164.617 10.255 164.517 10.395C164.427 10.535 164.352 10.68 164.292 10.83C164.242 10.99 164.212 11.13 164.202 11.25H164.052V9.40502H164.622C164.682 9.40502 164.737 9.38002 164.787 9.33002C164.847 9.28002 164.902 9.22002 164.952 9.15002C165.012 9.08002 165.067 9.00502 165.117 8.92502C165.167 8.83502 165.212 8.75502 165.252 8.68502C165.402 8.34502 165.582 7.94002 165.792 7.47002C166.012 7.00002 166.232 6.51502 166.452 6.01502C166.682 5.51502 166.902 5.03002 167.112 4.56002C167.322 4.08002 167.502 3.67002 167.652 3.33002L170.187 8.86502C170.267 9.03502 170.342 9.17002 170.412 9.27002C170.482 9.36002 170.577 9.40502 170.697 9.40502H171.282ZM165.447 9.40502H169.347L167.397 5.13002L165.447 9.40502ZM175.765 10.005C175.265 10.005 174.815 9.92502 174.415 9.76502C174.015 9.59502 173.67 9.37002 173.38 9.09002C173.1 8.80002 172.88 8.46002 172.72 8.07002C172.57 7.68002 172.495 7.25502 172.495 6.79502C172.495 6.30502 172.58 5.86002 172.75 5.46002C172.92 5.05002 173.155 4.70002 173.455 4.41002C173.755 4.12002 174.11 3.89502 174.52 3.73502C174.93 3.57502 175.375 3.49502 175.855 3.49502C176.335 3.49502 176.775 3.57502 177.175 3.73502C177.575 3.88502 177.92 4.10002 178.21 4.38002C178.5 4.66002 178.725 4.99502 178.885 5.38502C179.045 5.76502 179.125 6.18502 179.125 6.64502C179.125 7.07502 179.05 7.49502 178.9 7.90502C178.76 8.30502 178.545 8.66002 178.255 8.97002C177.975 9.28002 177.625 9.53002 177.205 9.72002C176.795 9.91002 176.315 10.005 175.765 10.005ZM175.675 3.99002C175.315 4.01002 174.995 4.10002 174.715 4.26002C174.445 4.41002 174.215 4.61002 174.025 4.86002C173.845 5.10002 173.705 5.37502 173.605 5.68502C173.515 5.99502 173.47 6.31002 173.47 6.63002C173.47 7.00002 173.525 7.36002 173.635 7.71002C173.755 8.05002 173.92 8.35502 174.13 8.62502C174.35 8.89502 174.61 9.11002 174.91 9.27002C175.21 9.43002 175.545 9.51002 175.915 9.51002C176.285 9.51002 176.61 9.43002 176.89 9.27002C177.18 9.11002 177.42 8.90502 177.61 8.65502C177.8 8.39502 177.94 8.10502 178.03 7.78502C178.13 7.46502 178.18 7.14502 178.18 6.82502C178.18 6.49502 178.13 6.16502 178.03 5.83502C177.93 5.49502 177.775 5.19002 177.565 4.92002C177.355 4.64002 177.09 4.41502 176.77 4.24502C176.46 4.07502 176.095 3.99002 175.675 3.99002ZM183.233 3.49502C183.773 3.49502 184.238 3.59002 184.628 3.78002C185.028 3.96002 185.358 4.20002 185.618 4.50002C185.888 4.80002 186.088 5.14502 186.218 5.53502C186.348 5.92502 186.413 6.32502 186.413 6.73502C186.413 7.13502 186.348 7.53002 186.218 7.92002C186.098 8.31002 185.908 8.66002 185.648 8.97002C185.398 9.28002 185.083 9.53002 184.703 9.72002C184.323 9.91002 183.873 10.005 183.353 10.005C183.043 10.005 182.723 9.92502 182.393 9.76502C182.073 9.59502 181.783 9.38502 181.523 9.13502V12.225C181.523 12.305 181.533 12.39 181.553 12.48C181.573 12.58 181.603 12.67 181.643 12.75C181.693 12.83 181.743 12.9 181.793 12.96C181.853 13.02 181.923 13.05 182.003 13.05V13.2H180.053V13.05C180.123 13.05 180.188 13.02 180.248 12.96C180.308 12.9 180.358 12.83 180.398 12.75C180.448 12.67 180.483 12.58 180.503 12.48C180.523 12.39 180.533 12.305 180.533 12.225V4.48502C180.533 4.39502 180.528 4.31002 180.518 4.23002C180.518 4.14002 180.503 4.06502 180.473 4.00502C180.443 3.93502 180.393 3.88002 180.323 3.84002C180.263 3.79002 180.173 3.76002 180.053 3.75002V3.60002H181.523V4.26002C181.723 4.02002 181.963 3.83502 182.243 3.70502C182.533 3.56502 182.863 3.49502 183.233 3.49502ZM183.368 9.49502C183.718 9.48502 184.023 9.40502 184.283 9.25502C184.543 9.10502 184.758 8.91002 184.928 8.67002C185.098 8.43002 185.223 8.16502 185.303 7.87502C185.383 7.57502 185.423 7.26502 185.423 6.94502C185.423 6.58502 185.373 6.23002 185.273 5.88002C185.173 5.53002 185.028 5.22002 184.838 4.95002C184.648 4.67002 184.413 4.44502 184.133 4.27502C183.863 4.09502 183.553 4.00502 183.203 4.00502C182.993 4.00502 182.783 4.04502 182.573 4.12502C182.373 4.20502 182.193 4.32002 182.033 4.47002C181.883 4.62002 181.758 4.80002 181.658 5.01002C181.568 5.21002 181.523 5.43502 181.523 5.68502V7.65002C181.523 7.92002 181.578 8.17002 181.688 8.40002C181.798 8.62002 181.938 8.81502 182.108 8.98502C182.288 9.14502 182.488 9.27002 182.708 9.36002C182.928 9.45002 183.148 9.49502 183.368 9.49502ZM191.358 10.005C190.858 10.005 190.408 9.92502 190.008 9.76502C189.608 9.59502 189.263 9.37002 188.973 9.09002C188.693 8.80002 188.473 8.46002 188.313 8.07002C188.163 7.68002 188.088 7.25502 188.088 6.79502C188.088 6.30502 188.173 5.86002 188.343 5.46002C188.513 5.05002 188.748 4.70002 189.048 4.41002C189.348 4.12002 189.703 3.89502 190.113 3.73502C190.523 3.57502 190.968 3.49502 191.448 3.49502C191.928 3.49502 192.368 3.57502 192.768 3.73502C193.168 3.88502 193.513 4.10002 193.803 4.38002C194.093 4.66002 194.318 4.99502 194.478 5.38502C194.638 5.76502 194.718 6.18502 194.718 6.64502C194.718 7.07502 194.643 7.49502 194.493 7.90502C194.353 8.30502 194.138 8.66002 193.848 8.97002C193.568 9.28002 193.218 9.53002 192.798 9.72002C192.388 9.91002 191.908 10.005 191.358 10.005ZM191.268 3.99002C190.908 4.01002 190.588 4.10002 190.308 4.26002C190.038 4.41002 189.808 4.61002 189.618 4.86002C189.438 5.10002 189.298 5.37502 189.198 5.68502C189.108 5.99502 189.063 6.31002 189.063 6.63002C189.063 7.00002 189.118 7.36002 189.228 7.71002C189.348 8.05002 189.513 8.35502 189.723 8.62502C189.943 8.89502 190.203 9.11002 190.503 9.27002C190.803 9.43002 191.138 9.51002 191.508 9.51002C191.878 9.51002 192.203 9.43002 192.483 9.27002C192.773 9.11002 193.013 8.90502 193.203 8.65502C193.393 8.39502 193.533 8.10502 193.623 7.78502C193.723 7.46502 193.773 7.14502 193.773 6.82502C193.773 6.49502 193.723 6.16502 193.623 5.83502C193.523 5.49502 193.368 5.19002 193.158 4.92002C192.948 4.64002 192.683 4.41502 192.363 4.24502C192.053 4.07502 191.688 3.99002 191.268 3.99002ZM201.159 3.60002V5.16002H201.009C201.009 5.05002 200.984 4.93502 200.934 4.81502C200.894 4.68502 200.829 4.57002 200.739 4.47002C200.649 4.36002 200.539 4.27002 200.409 4.20002C200.289 4.13002 200.149 4.09502 199.989 4.09502H197.994V8.95502C197.994 9.03502 198.004 9.12002 198.024 9.21002C198.054 9.30002 198.089 9.38502 198.129 9.46502C198.179 9.54502 198.234 9.61502 198.294 9.67502C198.354 9.72502 198.424 9.75002 198.504 9.75002V9.90002H196.509V9.75002C196.589 9.75002 196.659 9.72502 196.719 9.67502C196.779 9.61502 196.829 9.54502 196.869 9.46502C196.919 9.38502 196.954 9.30002 196.974 9.21002C196.994 9.12002 197.004 9.03502 197.004 8.95502V4.53002C197.004 4.46002 196.994 4.38002 196.974 4.29002C196.954 4.20002 196.919 4.11502 196.869 4.03502C196.829 3.95502 196.779 3.89002 196.719 3.84002C196.659 3.78002 196.589 3.75002 196.509 3.75002V3.60002H201.159ZM208.467 8.92502C208.467 9.00502 208.477 9.09502 208.497 9.19502C208.527 9.28502 208.562 9.37002 208.602 9.45002C208.642 9.53002 208.692 9.60002 208.752 9.66002C208.822 9.72002 208.887 9.75002 208.947 9.75002V9.90002H207.027V9.75002C207.097 9.75002 207.162 9.72502 207.222 9.67502C207.282 9.61502 207.332 9.54502 207.372 9.46502C207.412 9.37502 207.442 9.28502 207.462 9.19502C207.482 9.09502 207.492 9.00502 207.492 8.92502V5.32502L203.922 8.82002V8.92502C203.922 9.00502 203.932 9.09502 203.952 9.19502C203.972 9.28502 204.002 9.37002 204.042 9.45002C204.082 9.53002 204.127 9.60002 204.177 9.66002C204.237 9.72002 204.302 9.75002 204.372 9.75002V9.90002H202.467V9.75002C202.537 9.75002 202.602 9.72502 202.662 9.67502C202.722 9.61502 202.772 9.54502 202.812 9.46502C202.852 9.37502 202.882 9.28502 202.902 9.19502C202.922 9.09502 202.932 9.00502 202.932 8.92502V4.53002C202.932 4.46002 202.922 4.38002 202.902 4.29002C202.882 4.20002 202.852 4.11502 202.812 4.03502C202.772 3.95502 202.722 3.89002 202.662 3.84002C202.602 3.78002 202.537 3.75002 202.467 3.75002V3.60002H204.372V3.75002C204.292 3.75002 204.222 3.78002 204.162 3.84002C204.112 3.89002 204.067 3.95502 204.027 4.03502C203.997 4.11502 203.972 4.20002 203.952 4.29002C203.932 4.38002 203.922 4.46002 203.922 4.53002V8.11502L207.492 4.62002V4.53002C207.492 4.46002 207.482 4.38002 207.462 4.29002C207.442 4.20002 207.412 4.11502 207.372 4.03502C207.332 3.95502 207.282 3.89002 207.222 3.84002C207.162 3.78002 207.097 3.75002 207.027 3.75002V3.60002H208.947V3.75002C208.867 3.75002 208.792 3.78002 208.722 3.84002C208.662 3.89002 208.612 3.95502 208.572 4.03502C208.542 4.11502 208.517 4.20002 208.497 4.29002C208.477 4.38002 208.467 4.46002 208.467 4.53002V8.92502ZM210.977 8.50502C211.267 8.50502 211.477 8.60502 211.607 8.80502C211.747 9.00502 211.817 9.23502 211.817 9.49502C211.817 9.64502 211.797 9.81002 211.757 9.99002C211.717 10.18 211.637 10.365 211.517 10.545C211.407 10.735 211.242 10.92 211.022 11.1C210.812 11.29 210.532 11.465 210.182 11.625L210.107 11.49C210.307 11.31 210.462 11.145 210.572 10.995C210.692 10.855 210.777 10.725 210.827 10.605C210.887 10.495 210.922 10.39 210.932 10.29C210.952 10.19 210.962 10.085 210.962 9.97502C210.962 9.89502 210.937 9.83502 210.887 9.79502C210.837 9.74502 210.782 9.70002 210.722 9.66002C210.642 9.61002 210.562 9.55502 210.482 9.49502C210.402 9.42502 210.362 9.31002 210.362 9.15002C210.362 8.96002 210.422 8.80502 210.542 8.68502C210.662 8.56502 210.807 8.50502 210.977 8.50502ZM1.44002 23.925C1.44002 24.005 1.45002 24.095 1.47002 24.195C1.49002 24.285 1.52002 24.37 1.56002 24.45C1.60002 24.53 1.64502 24.6 1.69502 24.66C1.75502 24.72 1.82002 24.75 1.89002 24.75V24.9H2.10889e-05V24.75C0.0700211 24.75 0.130021 24.725 0.180021 24.675C0.240021 24.615 0.290021 24.545 0.330021 24.465C0.370021 24.375 0.400021 24.285 0.420021 24.195C0.440021 24.095 0.450021 24.005 0.450021 23.925V19.53C0.450021 19.46 0.440021 19.38 0.420021 19.29C0.400021 19.2 0.370021 19.115 0.330021 19.035C0.290021 18.955 0.240021 18.89 0.180021 18.84C0.130021 18.78 0.0700211 18.75 2.10889e-05 18.75V18.6H1.89002V18.75C1.81002 18.75 1.74002 18.78 1.68002 18.84C1.63002 18.89 1.58502 18.955 1.54502 19.035C1.51502 19.115 1.49002 19.2 1.47002 19.29C1.45002 19.38 1.44002 19.46 1.44002 19.53V21.345H4.86002V19.53C4.86002 19.46 4.85002 19.38 4.83002 19.29C4.81002 19.2 4.78002 19.115 4.74002 19.035C4.71002 18.955 4.66502 18.89 4.60502 18.84C4.55502 18.78 4.49002 18.75 4.41002 18.75V18.6H6.30002V18.75C6.22002 18.75 6.15002 18.78 6.09002 18.84C6.04002 18.89 5.99502 18.955 5.95502 19.035C5.91502 19.115 5.88502 19.2 5.86502 19.29C5.85502 19.38 5.85002 19.46 5.85002 19.53V23.925C5.85002 24.005 5.86002 24.095 5.88002 24.195C5.90002 24.285 5.93002 24.37 5.97002 24.45C6.01002 24.53 6.05502 24.6 6.10502 24.66C6.16502 24.72 6.23002 24.75 6.30002 24.75V24.9H4.41002V24.75C4.48002 24.75 4.54002 24.725 4.59002 24.675C4.65002 24.615 4.70002 24.545 4.74002 24.465C4.78002 24.375 4.81002 24.285 4.83002 24.195C4.85002 24.095 4.86002 24.005 4.86002 23.925V21.84H1.44002V23.925ZM12.1583 24.9V24.135L12.0833 24.21C11.8333 24.46 11.5433 24.655 11.2133 24.795C10.8933 24.935 10.5033 25.005 10.0433 25.005C9.69334 25.005 9.39334 24.965 9.14334 24.885C8.89334 24.805 8.68834 24.695 8.52834 24.555C8.36834 24.405 8.24834 24.235 8.16834 24.045C8.09834 23.855 8.06334 23.655 8.06334 23.445C8.06334 23.105 8.15334 22.805 8.33334 22.545C8.52334 22.285 8.79334 22.055 9.14334 21.855C9.49334 21.655 9.91834 21.475 10.4183 21.315C10.9283 21.145 11.5083 20.98 12.1583 20.82C12.1383 20.43 12.0583 20.115 11.9183 19.875C11.7783 19.635 11.6133 19.45 11.4233 19.32C11.2333 19.18 11.0333 19.09 10.8233 19.05C10.6133 19 10.4333 18.975 10.2833 18.975C10.0233 18.975 9.79334 19.015 9.59334 19.095C9.39334 19.165 9.21834 19.265 9.06834 19.395C8.91834 19.515 8.79334 19.655 8.69334 19.815C8.60334 19.975 8.53334 20.135 8.48334 20.295H8.34834V19.125C8.43834 19.125 8.54334 19.095 8.66334 19.035C8.78334 18.965 8.92334 18.89 9.08334 18.81C9.25334 18.73 9.45334 18.66 9.68334 18.6C9.92334 18.53 10.2083 18.495 10.5383 18.495C11.0883 18.495 11.5333 18.565 11.8733 18.705C12.2133 18.845 12.4733 19.03 12.6533 19.26C12.8433 19.49 12.9683 19.755 13.0283 20.055C13.0883 20.345 13.1183 20.645 13.1183 20.955V23.925C13.1183 24.125 13.1683 24.315 13.2683 24.495C13.3683 24.665 13.5033 24.75 13.6733 24.75V24.9H12.1583ZM12.1583 23.475V21.33L12.0083 21.36C11.7683 21.42 11.4733 21.5 11.1233 21.6C10.7833 21.7 10.4583 21.83 10.1483 21.99C9.83834 22.15 9.57334 22.34 9.35334 22.56C9.13334 22.78 9.02334 23.035 9.02334 23.325C9.02334 23.645 9.15334 23.91 9.41334 24.12C9.67334 24.33 10.0133 24.435 10.4333 24.435C10.7633 24.435 11.0533 24.365 11.3033 24.225C11.5533 24.075 11.7833 23.885 11.9933 23.655L12.1583 23.475ZM21.0388 24.36C20.9588 24.36 20.8838 24.38 20.8138 24.42C20.7438 24.45 20.6638 24.49 20.5738 24.54C20.4038 24.64 20.1788 24.745 19.8988 24.855C19.6188 24.955 19.2688 25.005 18.8488 25.005C18.3388 25.005 17.8688 24.925 17.4388 24.765C17.0188 24.595 16.6538 24.365 16.3438 24.075C16.0338 23.775 15.7938 23.43 15.6238 23.04C15.4538 22.64 15.3688 22.21 15.3688 21.75C15.3688 21.32 15.4438 20.91 15.5938 20.52C15.7538 20.13 15.9788 19.785 16.2688 19.485C16.5588 19.185 16.9138 18.945 17.3338 18.765C17.7638 18.585 18.2488 18.495 18.7888 18.495C19.1588 18.495 19.4588 18.54 19.6888 18.63C19.9188 18.71 20.1138 18.79 20.2738 18.87C20.3638 18.92 20.4488 18.96 20.5288 18.99C20.6188 19.02 20.7088 19.035 20.7988 19.035V20.175H20.6488C20.5988 19.985 20.5088 19.82 20.3788 19.68C20.2488 19.53 20.0988 19.405 19.9288 19.305C19.7588 19.205 19.5738 19.13 19.3738 19.08C19.1738 19.03 18.9788 19.005 18.7888 19.005C18.3788 19.005 18.0188 19.08 17.7088 19.23C17.3988 19.37 17.1438 19.56 16.9438 19.8C16.7438 20.03 16.5938 20.295 16.4938 20.595C16.3938 20.895 16.3438 21.205 16.3438 21.525C16.3438 21.895 16.3988 22.26 16.5088 22.62C16.6288 22.97 16.7938 23.285 17.0038 23.565C17.2238 23.845 17.4888 24.07 17.7988 24.24C18.1188 24.41 18.4788 24.495 18.8788 24.495C19.1588 24.495 19.4188 24.455 19.6588 24.375C19.8988 24.295 20.1038 24.19 20.2738 24.06C20.4538 23.93 20.5938 23.79 20.6938 23.64C20.8038 23.48 20.8688 23.33 20.8888 23.19H21.0388V24.36ZM27.557 20.175C27.557 20.065 27.537 19.945 27.497 19.815C27.457 19.685 27.397 19.57 27.317 19.47C27.237 19.36 27.137 19.27 27.017 19.2C26.897 19.13 26.757 19.095 26.597 19.095H25.277V23.925C25.277 24.005 25.287 24.09 25.307 24.18C25.327 24.27 25.357 24.36 25.397 24.45C25.447 24.53 25.497 24.6 25.547 24.66C25.607 24.72 25.677 24.75 25.757 24.75V24.9H23.807V24.75C23.887 24.75 23.957 24.72 24.017 24.66C24.077 24.6 24.127 24.53 24.167 24.45C24.217 24.37 24.252 24.285 24.272 24.195C24.292 24.095 24.302 24.005 24.302 23.925V19.095H23.012C22.852 19.095 22.712 19.13 22.592 19.2C22.472 19.27 22.372 19.36 22.292 19.47C22.222 19.57 22.167 19.685 22.127 19.815C22.087 19.945 22.067 20.065 22.067 20.175H21.917V18.6H27.692V20.175H27.557ZM32.1965 18.495C32.7365 18.495 33.2015 18.59 33.5915 18.78C33.9915 18.96 34.3215 19.2 34.5815 19.5C34.8515 19.8 35.0515 20.145 35.1815 20.535C35.3115 20.925 35.3765 21.325 35.3765 21.735C35.3765 22.135 35.3115 22.53 35.1815 22.92C35.0615 23.31 34.8715 23.66 34.6115 23.97C34.3615 24.28 34.0465 24.53 33.6665 24.72C33.2865 24.91 32.8365 25.005 32.3165 25.005C32.0065 25.005 31.6865 24.925 31.3565 24.765C31.0365 24.595 30.7465 24.385 30.4865 24.135V27.225C30.4865 27.305 30.4965 27.39 30.5165 27.48C30.5365 27.58 30.5665 27.67 30.6065 27.75C30.6565 27.83 30.7065 27.9 30.7565 27.96C30.8165 28.02 30.8865 28.05 30.9665 28.05V28.2H29.0165V28.05C29.0865 28.05 29.1515 28.02 29.2115 27.96C29.2715 27.9 29.3215 27.83 29.3615 27.75C29.4115 27.67 29.4465 27.58 29.4665 27.48C29.4865 27.39 29.4965 27.305 29.4965 27.225V19.485C29.4965 19.395 29.4915 19.31 29.4815 19.23C29.4815 19.14 29.4665 19.065 29.4365 19.005C29.4065 18.935 29.3565 18.88 29.2865 18.84C29.2265 18.79 29.1365 18.76 29.0165 18.75V18.6H30.4865V19.26C30.6865 19.02 30.9265 18.835 31.2065 18.705C31.4965 18.565 31.8265 18.495 32.1965 18.495ZM32.3315 24.495C32.6815 24.485 32.9865 24.405 33.2465 24.255C33.5065 24.105 33.7215 23.91 33.8915 23.67C34.0615 23.43 34.1865 23.165 34.2665 22.875C34.3465 22.575 34.3865 22.265 34.3865 21.945C34.3865 21.585 34.3365 21.23 34.2365 20.88C34.1365 20.53 33.9915 20.22 33.8015 19.95C33.6115 19.67 33.3765 19.445 33.0965 19.275C32.8265 19.095 32.5165 19.005 32.1665 19.005C31.9565 19.005 31.7465 19.045 31.5365 19.125C31.3365 19.205 31.1565 19.32 30.9965 19.47C30.8465 19.62 30.7215 19.8 30.6215 20.01C30.5315 20.21 30.4865 20.435 30.4865 20.685V22.65C30.4865 22.92 30.5415 23.17 30.6515 23.4C30.7615 23.62 30.9015 23.815 31.0715 23.985C31.2515 24.145 31.4515 24.27 31.6715 24.36C31.8915 24.45 32.1115 24.495 32.3315 24.495ZM41.1312 24.9V24.135L41.0562 24.21C40.8062 24.46 40.5162 24.655 40.1862 24.795C39.8662 24.935 39.4762 25.005 39.0162 25.005C38.6662 25.005 38.3662 24.965 38.1162 24.885C37.8662 24.805 37.6612 24.695 37.5012 24.555C37.3412 24.405 37.2212 24.235 37.1412 24.045C37.0712 23.855 37.0362 23.655 37.0362 23.445C37.0362 23.105 37.1262 22.805 37.3062 22.545C37.4962 22.285 37.7662 22.055 38.1162 21.855C38.4662 21.655 38.8912 21.475 39.3912 21.315C39.9012 21.145 40.4812 20.98 41.1312 20.82C41.1112 20.43 41.0312 20.115 40.8912 19.875C40.7512 19.635 40.5862 19.45 40.3962 19.32C40.2062 19.18 40.0062 19.09 39.7962 19.05C39.5862 19 39.4062 18.975 39.2562 18.975C38.9962 18.975 38.7662 19.015 38.5662 19.095C38.3662 19.165 38.1912 19.265 38.0412 19.395C37.8912 19.515 37.7662 19.655 37.6662 19.815C37.5762 19.975 37.5062 20.135 37.4562 20.295H37.3212V19.125C37.4112 19.125 37.5162 19.095 37.6362 19.035C37.7562 18.965 37.8962 18.89 38.0562 18.81C38.2262 18.73 38.4262 18.66 38.6562 18.6C38.8962 18.53 39.1812 18.495 39.5112 18.495C40.0612 18.495 40.5062 18.565 40.8462 18.705C41.1862 18.845 41.4462 19.03 41.6262 19.26C41.8162 19.49 41.9412 19.755 42.0012 20.055C42.0612 20.345 42.0912 20.645 42.0912 20.955V23.925C42.0912 24.125 42.1412 24.315 42.2412 24.495C42.3412 24.665 42.4762 24.75 42.6462 24.75V24.9H41.1312ZM41.1312 23.475V21.33L40.9812 21.36C40.7412 21.42 40.4462 21.5 40.0962 21.6C39.7562 21.7 39.4312 21.83 39.1212 21.99C38.8112 22.15 38.5462 22.34 38.3262 22.56C38.1062 22.78 37.9962 23.035 37.9962 23.325C37.9962 23.645 38.1262 23.91 38.3862 24.12C38.6462 24.33 38.9862 24.435 39.4062 24.435C39.7362 24.435 40.0262 24.365 40.2762 24.225C40.5262 24.075 40.7562 23.885 40.9662 23.655L41.1312 23.475ZM50.4917 23.925C50.4917 24.005 50.5017 24.095 50.5217 24.195C50.5517 24.285 50.5867 24.37 50.6267 24.45C50.6667 24.53 50.7167 24.6 50.7767 24.66C50.8467 24.72 50.9117 24.75 50.9717 24.75V24.9H49.0517V24.75C49.1217 24.75 49.1867 24.725 49.2467 24.675C49.3067 24.615 49.3567 24.545 49.3967 24.465C49.4367 24.375 49.4667 24.285 49.4867 24.195C49.5067 24.095 49.5167 24.005 49.5167 23.925V20.325L45.9467 23.82V23.925C45.9467 24.005 45.9567 24.095 45.9767 24.195C45.9967 24.285 46.0267 24.37 46.0667 24.45C46.1067 24.53 46.1517 24.6 46.2017 24.66C46.2617 24.72 46.3267 24.75 46.3967 24.75V24.9H44.4917V24.75C44.5617 24.75 44.6267 24.725 44.6867 24.675C44.7467 24.615 44.7967 24.545 44.8367 24.465C44.8767 24.375 44.9067 24.285 44.9267 24.195C44.9467 24.095 44.9567 24.005 44.9567 23.925V19.53C44.9567 19.46 44.9467 19.38 44.9267 19.29C44.9067 19.2 44.8767 19.115 44.8367 19.035C44.7967 18.955 44.7467 18.89 44.6867 18.84C44.6267 18.78 44.5617 18.75 44.4917 18.75V18.6H46.3967V18.75C46.3167 18.75 46.2467 18.78 46.1867 18.84C46.1367 18.89 46.0917 18.955 46.0517 19.035C46.0217 19.115 45.9967 19.2 45.9767 19.29C45.9567 19.38 45.9467 19.46 45.9467 19.53V23.115L49.5167 19.62V19.53C49.5167 19.46 49.5067 19.38 49.4867 19.29C49.4667 19.2 49.4367 19.115 49.3967 19.035C49.3567 18.955 49.3067 18.89 49.2467 18.84C49.1867 18.78 49.1217 18.75 49.0517 18.75V18.6H50.9717V18.75C50.8917 18.75 50.8167 18.78 50.7467 18.84C50.6867 18.89 50.6367 18.955 50.5967 19.035C50.5667 19.115 50.5417 19.2 50.5217 19.29C50.5017 19.38 50.4917 19.46 50.4917 19.53V23.925ZM57.9511 20.1C57.9511 20.27 57.9161 20.43 57.8461 20.58C57.7761 20.73 57.6861 20.87 57.5761 21C57.4761 21.12 57.3561 21.23 57.2161 21.33C57.0761 21.42 56.9411 21.49 56.8111 21.54C56.9811 21.57 57.1561 21.625 57.3361 21.705C57.5261 21.785 57.6961 21.89 57.8461 22.02C58.0061 22.15 58.1361 22.315 58.2361 22.515C58.3361 22.705 58.3861 22.935 58.3861 23.205C58.3861 23.345 58.3511 23.515 58.2811 23.715C58.2211 23.905 58.1061 24.09 57.9361 24.27C57.7761 24.44 57.5511 24.59 57.2611 24.72C56.9811 24.84 56.6161 24.9 56.1661 24.9H52.8661V24.75C52.9461 24.75 53.0161 24.72 53.0761 24.66C53.1361 24.6 53.1861 24.53 53.2261 24.45C53.2761 24.37 53.3111 24.285 53.3311 24.195C53.3511 24.095 53.3611 24.005 53.3611 23.925V19.545C53.3611 19.385 53.3161 19.215 53.2261 19.035C53.1461 18.845 53.0261 18.75 52.8661 18.75V18.6H55.9261C56.2861 18.6 56.5911 18.65 56.8411 18.75C57.1011 18.84 57.3111 18.96 57.4711 19.11C57.6411 19.25 57.7611 19.41 57.8311 19.59C57.9111 19.76 57.9511 19.93 57.9511 20.1ZM54.3361 21.345H55.4911C55.7811 21.345 56.0211 21.315 56.2111 21.255C56.4111 21.185 56.5711 21.095 56.6911 20.985C56.8111 20.875 56.8961 20.75 56.9461 20.61C57.0061 20.47 57.0361 20.325 57.0361 20.175C57.0361 20.055 57.0011 19.93 56.9311 19.8C56.8611 19.67 56.7561 19.555 56.6161 19.455C56.4861 19.345 56.3261 19.255 56.1361 19.185C55.9461 19.115 55.7311 19.08 55.4911 19.08H54.3361V21.345ZM55.8061 24.42C55.9261 24.42 56.0761 24.41 56.2561 24.39C56.4461 24.36 56.6261 24.305 56.7961 24.225C56.9761 24.135 57.1261 24.01 57.2461 23.85C57.3761 23.68 57.4411 23.46 57.4411 23.19C57.4411 22.9 57.3561 22.665 57.1861 22.485C57.0161 22.305 56.8161 22.17 56.5861 22.08C56.3661 21.98 56.1361 21.915 55.8961 21.885C55.6561 21.855 55.4711 21.84 55.3411 21.84H54.3361V24.42H55.8061ZM64.1023 24.9V24.135L64.0273 24.21C63.7773 24.46 63.4873 24.655 63.1573 24.795C62.8373 24.935 62.4473 25.005 61.9873 25.005C61.6373 25.005 61.3373 24.965 61.0873 24.885C60.8373 24.805 60.6323 24.695 60.4723 24.555C60.3123 24.405 60.1923 24.235 60.1123 24.045C60.0423 23.855 60.0073 23.655 60.0073 23.445C60.0073 23.105 60.0973 22.805 60.2773 22.545C60.4673 22.285 60.7373 22.055 61.0873 21.855C61.4373 21.655 61.8623 21.475 62.3623 21.315C62.8723 21.145 63.4523 20.98 64.1023 20.82C64.0823 20.43 64.0023 20.115 63.8623 19.875C63.7223 19.635 63.5573 19.45 63.3673 19.32C63.1773 19.18 62.9773 19.09 62.7673 19.05C62.5573 19 62.3773 18.975 62.2273 18.975C61.9673 18.975 61.7373 19.015 61.5373 19.095C61.3373 19.165 61.1623 19.265 61.0123 19.395C60.8623 19.515 60.7373 19.655 60.6373 19.815C60.5473 19.975 60.4773 20.135 60.4273 20.295H60.2923V19.125C60.3823 19.125 60.4873 19.095 60.6073 19.035C60.7273 18.965 60.8673 18.89 61.0273 18.81C61.1973 18.73 61.3973 18.66 61.6273 18.6C61.8673 18.53 62.1523 18.495 62.4823 18.495C63.0323 18.495 63.4773 18.565 63.8173 18.705C64.1573 18.845 64.4173 19.03 64.5973 19.26C64.7873 19.49 64.9123 19.755 64.9723 20.055C65.0323 20.345 65.0623 20.645 65.0623 20.955V23.925C65.0623 24.125 65.1123 24.315 65.2123 24.495C65.3123 24.665 65.4473 24.75 65.6173 24.75V24.9H64.1023ZM64.1023 23.475V21.33L63.9523 21.36C63.7123 21.42 63.4173 21.5 63.0673 21.6C62.7273 21.7 62.4023 21.83 62.0923 21.99C61.7823 22.15 61.5173 22.34 61.2973 22.56C61.0773 22.78 60.9673 23.035 60.9673 23.325C60.9673 23.645 61.0973 23.91 61.3573 24.12C61.6173 24.33 61.9573 24.435 62.3773 24.435C62.7073 24.435 62.9973 24.365 63.2473 24.225C63.4973 24.075 63.7273 23.885 63.9373 23.655L64.1023 23.475ZM68.2728 21.87C68.3128 22.22 68.3978 22.555 68.5278 22.875C68.6578 23.185 68.8278 23.46 69.0378 23.7C69.2578 23.94 69.5228 24.135 69.8328 24.285C70.1428 24.425 70.5028 24.495 70.9128 24.495C71.1328 24.495 71.3628 24.465 71.6028 24.405C71.8528 24.335 72.0828 24.24 72.2928 24.12C72.5028 24 72.6878 23.855 72.8478 23.685C73.0178 23.505 73.1328 23.305 73.1928 23.085H73.3278V24.21C73.2678 24.21 73.1978 24.23 73.1178 24.27C73.0478 24.31 72.9628 24.36 72.8628 24.42C72.6628 24.54 72.3928 24.67 72.0528 24.81C71.7128 24.94 71.2628 25.005 70.7028 25.005C70.2528 25.005 69.8228 24.94 69.4128 24.81C69.0128 24.68 68.6578 24.48 68.3478 24.21C68.0378 23.94 67.7878 23.595 67.5978 23.175C67.4178 22.755 67.3278 22.255 67.3278 21.675C67.3278 21.305 67.3878 20.93 67.5078 20.55C67.6378 20.17 67.8278 19.83 68.0778 19.53C68.3378 19.22 68.6678 18.97 69.0678 18.78C69.4678 18.59 69.9478 18.495 70.5078 18.495C71.0078 18.495 71.4428 18.58 71.8128 18.75C72.1928 18.92 72.5028 19.155 72.7428 19.455C72.9928 19.755 73.1778 20.11 73.2978 20.52C73.4178 20.93 73.4778 21.38 73.4778 21.87H68.2728ZM70.4478 18.99C70.0978 18.99 69.7928 19.06 69.5328 19.2C69.2828 19.34 69.0678 19.52 68.8878 19.74C68.7078 19.96 68.5678 20.21 68.4678 20.49C68.3678 20.77 68.3028 21.05 68.2728 21.33H72.5478C72.5378 21.04 72.4828 20.755 72.3828 20.475C72.2928 20.195 72.1628 19.945 71.9928 19.725C71.8228 19.505 71.6078 19.33 71.3478 19.2C71.0878 19.06 70.7878 18.99 70.4478 18.99ZM82.048 23.925C82.048 24.005 82.058 24.095 82.078 24.195C82.098 24.285 82.128 24.37 82.168 24.45C82.218 24.53 82.273 24.6 82.333 24.66C82.393 24.72 82.463 24.75 82.543 24.75V24.9H80.593V24.75C80.673 24.75 80.743 24.725 80.803 24.675C80.863 24.615 80.913 24.545 80.953 24.465C80.993 24.375 81.023 24.285 81.043 24.195C81.063 24.095 81.073 24.005 81.073 23.925V19.875L78.568 25.035L76.168 20.175V23.925C76.168 24.005 76.178 24.095 76.198 24.195C76.218 24.285 76.248 24.37 76.288 24.45C76.328 24.53 76.378 24.6 76.438 24.66C76.498 24.72 76.568 24.75 76.648 24.75V24.9H75.193V24.75C75.273 24.75 75.343 24.72 75.403 24.66C75.463 24.6 75.508 24.53 75.538 24.45C75.578 24.37 75.608 24.285 75.628 24.195C75.648 24.095 75.658 24.005 75.658 23.925V19.53C75.658 19.35 75.633 19.175 75.583 19.005C75.543 18.835 75.413 18.75 75.193 18.75V18.6H76.528L78.823 23.295L81.118 18.6H82.543V18.75C82.393 18.75 82.273 18.845 82.183 19.035C82.093 19.215 82.048 19.38 82.048 19.53V23.925ZM89.996 24.36C89.916 24.36 89.841 24.38 89.771 24.42C89.701 24.45 89.621 24.49 89.531 24.54C89.361 24.64 89.136 24.745 88.856 24.855C88.576 24.955 88.226 25.005 87.806 25.005C87.296 25.005 86.826 24.925 86.396 24.765C85.976 24.595 85.611 24.365 85.301 24.075C84.991 23.775 84.751 23.43 84.581 23.04C84.411 22.64 84.326 22.21 84.326 21.75C84.326 21.32 84.401 20.91 84.551 20.52C84.711 20.13 84.936 19.785 85.226 19.485C85.516 19.185 85.871 18.945 86.291 18.765C86.721 18.585 87.206 18.495 87.746 18.495C88.116 18.495 88.416 18.54 88.646 18.63C88.876 18.71 89.071 18.79 89.231 18.87C89.321 18.92 89.406 18.96 89.486 18.99C89.576 19.02 89.666 19.035 89.756 19.035V20.175H89.606C89.556 19.985 89.466 19.82 89.336 19.68C89.206 19.53 89.056 19.405 88.886 19.305C88.716 19.205 88.531 19.13 88.331 19.08C88.131 19.03 87.936 19.005 87.746 19.005C87.336 19.005 86.976 19.08 86.666 19.23C86.356 19.37 86.101 19.56 85.901 19.8C85.701 20.03 85.551 20.295 85.451 20.595C85.351 20.895 85.301 21.205 85.301 21.525C85.301 21.895 85.356 22.26 85.466 22.62C85.586 22.97 85.751 23.285 85.961 23.565C86.181 23.845 86.446 24.07 86.756 24.24C87.076 24.41 87.436 24.495 87.836 24.495C88.116 24.495 88.376 24.455 88.616 24.375C88.856 24.295 89.061 24.19 89.231 24.06C89.411 23.93 89.551 23.79 89.651 23.64C89.761 23.48 89.826 23.33 89.846 23.19H89.996V24.36ZM96.2292 23.925C96.2292 24.005 96.2392 24.095 96.2592 24.195C96.2792 24.285 96.3092 24.375 96.3492 24.465C96.3992 24.545 96.4492 24.615 96.4992 24.675C96.5592 24.725 96.6292 24.75 96.7092 24.75V24.9H94.7592V24.75C94.8292 24.75 94.8942 24.72 94.9542 24.66C95.0142 24.6 95.0642 24.53 95.1042 24.45C95.1542 24.37 95.1892 24.285 95.2092 24.195C95.2292 24.095 95.2392 24.005 95.2392 23.925V21.825C95.1292 21.845 95.0042 21.905 94.8642 22.005C94.7242 22.095 94.5792 22.215 94.4292 22.365C94.2792 22.505 94.1342 22.66 93.9942 22.83C93.8542 23 93.7242 23.17 93.6042 23.34C93.5042 23.48 93.4192 23.595 93.3492 23.685C93.2792 23.775 93.2192 23.86 93.1692 23.94C93.0692 24.07 92.9692 24.195 92.8692 24.315C92.7692 24.425 92.6542 24.525 92.5242 24.615C92.4042 24.705 92.2592 24.775 92.0892 24.825C91.9192 24.875 91.7192 24.9 91.4892 24.9H90.9342V24.75C91.0542 24.75 91.1742 24.715 91.2942 24.645C91.4242 24.575 91.5492 24.49 91.6692 24.39C91.7892 24.28 91.8992 24.165 91.9992 24.045C92.1092 23.915 92.2042 23.795 92.2842 23.685L92.7492 23.04C92.9192 22.81 93.0942 22.585 93.2742 22.365C93.4542 22.135 93.6592 21.955 93.8892 21.825C93.5292 21.815 93.2092 21.765 92.9292 21.675C92.6492 21.585 92.4142 21.465 92.2242 21.315C92.0342 21.165 91.8892 20.995 91.7892 20.805C91.6992 20.605 91.6542 20.395 91.6542 20.175C91.6542 19.965 91.6992 19.765 91.7892 19.575C91.8892 19.385 92.0442 19.22 92.2542 19.08C92.4642 18.93 92.7292 18.815 93.0492 18.735C93.3792 18.645 93.7742 18.6 94.2342 18.6H96.7092V18.75C96.6292 18.75 96.5592 18.78 96.4992 18.84C96.4492 18.89 96.3992 18.955 96.3492 19.035C96.3092 19.115 96.2792 19.2 96.2592 19.29C96.2392 19.38 96.2292 19.46 96.2292 19.53V23.925ZM92.6292 20.085C92.6292 20.235 92.6742 20.385 92.7642 20.535C92.8642 20.685 92.9942 20.82 93.1542 20.94C93.3242 21.06 93.5142 21.16 93.7242 21.24C93.9342 21.31 94.1592 21.345 94.3992 21.345H95.2392V19.08H94.2642C93.6642 19.08 93.2392 19.175 92.9892 19.365C92.7492 19.555 92.6292 19.795 92.6292 20.085ZM104.42 23.925C104.42 24.005 104.43 24.095 104.45 24.195C104.47 24.285 104.5 24.37 104.54 24.45C104.58 24.53 104.625 24.6 104.675 24.66C104.735 24.72 104.8 24.75 104.87 24.75V24.9H102.98V24.75C103.05 24.75 103.11 24.725 103.16 24.675C103.22 24.615 103.27 24.545 103.31 24.465C103.35 24.375 103.38 24.285 103.4 24.195C103.42 24.095 103.43 24.005 103.43 23.925V19.53C103.43 19.46 103.42 19.38 103.4 19.29C103.38 19.2 103.35 19.115 103.31 19.035C103.27 18.955 103.22 18.89 103.16 18.84C103.11 18.78 103.05 18.75 102.98 18.75V18.6H104.87V18.75C104.79 18.75 104.72 18.78 104.66 18.84C104.61 18.89 104.565 18.955 104.525 19.035C104.495 19.115 104.47 19.2 104.45 19.29C104.43 19.38 104.42 19.46 104.42 19.53V21.345H107.84V19.53C107.84 19.46 107.83 19.38 107.81 19.29C107.79 19.2 107.76 19.115 107.72 19.035C107.69 18.955 107.645 18.89 107.585 18.84C107.535 18.78 107.47 18.75 107.39 18.75V18.6H109.28V18.75C109.2 18.75 109.13 18.78 109.07 18.84C109.02 18.89 108.975 18.955 108.935 19.035C108.895 19.115 108.865 19.2 108.845 19.29C108.835 19.38 108.83 19.46 108.83 19.53V23.925C108.83 24.005 108.84 24.095 108.86 24.195C108.88 24.285 108.91 24.37 108.95 24.45C108.99 24.53 109.035 24.6 109.085 24.66C109.145 24.72 109.21 24.75 109.28 24.75V24.9H107.39V24.75C107.46 24.75 107.52 24.725 107.57 24.675C107.63 24.615 107.68 24.545 107.72 24.465C107.76 24.375 107.79 24.285 107.81 24.195C107.83 24.095 107.84 24.005 107.84 23.925V21.84H104.42V23.925ZM115.138 24.9V24.135L115.063 24.21C114.813 24.46 114.523 24.655 114.193 24.795C113.873 24.935 113.483 25.005 113.023 25.005C112.673 25.005 112.373 24.965 112.123 24.885C111.873 24.805 111.668 24.695 111.508 24.555C111.348 24.405 111.228 24.235 111.148 24.045C111.078 23.855 111.043 23.655 111.043 23.445C111.043 23.105 111.133 22.805 111.313 22.545C111.503 22.285 111.773 22.055 112.123 21.855C112.473 21.655 112.898 21.475 113.398 21.315C113.908 21.145 114.488 20.98 115.138 20.82C115.118 20.43 115.038 20.115 114.898 19.875C114.758 19.635 114.593 19.45 114.403 19.32C114.213 19.18 114.013 19.09 113.803 19.05C113.593 19 113.413 18.975 113.263 18.975C113.003 18.975 112.773 19.015 112.573 19.095C112.373 19.165 112.198 19.265 112.048 19.395C111.898 19.515 111.773 19.655 111.673 19.815C111.583 19.975 111.513 20.135 111.463 20.295H111.328V19.125C111.418 19.125 111.523 19.095 111.643 19.035C111.763 18.965 111.903 18.89 112.063 18.81C112.233 18.73 112.433 18.66 112.663 18.6C112.903 18.53 113.188 18.495 113.518 18.495C114.068 18.495 114.513 18.565 114.853 18.705C115.193 18.845 115.453 19.03 115.633 19.26C115.823 19.49 115.948 19.755 116.008 20.055C116.068 20.345 116.098 20.645 116.098 20.955V23.925C116.098 24.125 116.148 24.315 116.248 24.495C116.348 24.665 116.483 24.75 116.653 24.75V24.9H115.138ZM115.138 23.475V21.33L114.988 21.36C114.748 21.42 114.453 21.5 114.103 21.6C113.763 21.7 113.438 21.83 113.128 21.99C112.818 22.15 112.553 22.34 112.333 22.56C112.113 22.78 112.003 23.035 112.003 23.325C112.003 23.645 112.133 23.91 112.393 24.12C112.653 24.33 112.993 24.435 113.413 24.435C113.743 24.435 114.033 24.365 114.283 24.225C114.533 24.075 114.763 23.885 114.973 23.655L115.138 23.475ZM127.915 20.1C127.915 20.27 127.88 20.43 127.81 20.58C127.74 20.73 127.65 20.87 127.54 21C127.44 21.12 127.32 21.23 127.18 21.33C127.04 21.42 126.905 21.49 126.775 21.54C126.945 21.57 127.12 21.625 127.3 21.705C127.49 21.785 127.66 21.89 127.81 22.02C127.97 22.15 128.1 22.315 128.2 22.515C128.3 22.705 128.35 22.935 128.35 23.205C128.35 23.345 128.315 23.515 128.245 23.715C128.185 23.905 128.07 24.09 127.9 24.27C127.74 24.44 127.515 24.59 127.225 24.72C126.945 24.84 126.58 24.9 126.13 24.9H122.83V24.75C122.91 24.75 122.98 24.72 123.04 24.66C123.1 24.6 123.15 24.53 123.19 24.45C123.24 24.37 123.275 24.285 123.295 24.195C123.315 24.095 123.325 24.005 123.325 23.925V19.545C123.325 19.385 123.28 19.215 123.19 19.035C123.11 18.845 122.99 18.75 122.83 18.75V18.6H125.89C126.25 18.6 126.555 18.65 126.805 18.75C127.065 18.84 127.275 18.96 127.435 19.11C127.605 19.25 127.725 19.41 127.795 19.59C127.875 19.76 127.915 19.93 127.915 20.1ZM124.3 21.345H125.455C125.745 21.345 125.985 21.315 126.175 21.255C126.375 21.185 126.535 21.095 126.655 20.985C126.775 20.875 126.86 20.75 126.91 20.61C126.97 20.47 127 20.325 127 20.175C127 20.055 126.965 19.93 126.895 19.8C126.825 19.67 126.72 19.555 126.58 19.455C126.45 19.345 126.29 19.255 126.1 19.185C125.91 19.115 125.695 19.08 125.455 19.08H124.3V21.345ZM125.77 24.42C125.89 24.42 126.04 24.41 126.22 24.39C126.41 24.36 126.59 24.305 126.76 24.225C126.94 24.135 127.09 24.01 127.21 23.85C127.34 23.68 127.405 23.46 127.405 23.19C127.405 22.9 127.32 22.665 127.15 22.485C126.98 22.305 126.78 22.17 126.55 22.08C126.33 21.98 126.1 21.915 125.86 21.885C125.62 21.855 125.435 21.84 125.305 21.84H124.3V24.42H125.77ZM130.931 21.87C130.971 22.22 131.056 22.555 131.186 22.875C131.316 23.185 131.486 23.46 131.696 23.7C131.916 23.94 132.181 24.135 132.491 24.285C132.801 24.425 133.161 24.495 133.571 24.495C133.791 24.495 134.021 24.465 134.261 24.405C134.511 24.335 134.741 24.24 134.951 24.12C135.161 24 135.346 23.855 135.506 23.685C135.676 23.505 135.791 23.305 135.851 23.085H135.986V24.21C135.926 24.21 135.856 24.23 135.776 24.27C135.706 24.31 135.621 24.36 135.521 24.42C135.321 24.54 135.051 24.67 134.711 24.81C134.371 24.94 133.921 25.005 133.361 25.005C132.911 25.005 132.481 24.94 132.071 24.81C131.671 24.68 131.316 24.48 131.006 24.21C130.696 23.94 130.446 23.595 130.256 23.175C130.076 22.755 129.986 22.255 129.986 21.675C129.986 21.305 130.046 20.93 130.166 20.55C130.296 20.17 130.486 19.83 130.736 19.53C130.996 19.22 131.326 18.97 131.726 18.78C132.126 18.59 132.606 18.495 133.166 18.495C133.666 18.495 134.101 18.58 134.471 18.75C134.851 18.92 135.161 19.155 135.401 19.455C135.651 19.755 135.836 20.11 135.956 20.52C136.076 20.93 136.136 21.38 136.136 21.87H130.931ZM133.106 18.99C132.756 18.99 132.451 19.06 132.191 19.2C131.941 19.34 131.726 19.52 131.546 19.74C131.366 19.96 131.226 20.21 131.126 20.49C131.026 20.77 130.961 21.05 130.931 21.33H135.206C135.196 21.04 135.141 20.755 135.041 20.475C134.951 20.195 134.821 19.945 134.651 19.725C134.481 19.505 134.266 19.33 134.006 19.2C133.746 19.06 133.446 18.99 133.106 18.99ZM143.049 24.36C142.969 24.36 142.894 24.38 142.824 24.42C142.754 24.45 142.674 24.49 142.584 24.54C142.414 24.64 142.189 24.745 141.909 24.855C141.629 24.955 141.279 25.005 140.859 25.005C140.349 25.005 139.879 24.925 139.449 24.765C139.029 24.595 138.664 24.365 138.354 24.075C138.044 23.775 137.804 23.43 137.634 23.04C137.464 22.64 137.379 22.21 137.379 21.75C137.379 21.32 137.454 20.91 137.604 20.52C137.764 20.13 137.989 19.785 138.279 19.485C138.569 19.185 138.924 18.945 139.344 18.765C139.774 18.585 140.259 18.495 140.799 18.495C141.169 18.495 141.469 18.54 141.699 18.63C141.929 18.71 142.124 18.79 142.284 18.87C142.374 18.92 142.459 18.96 142.539 18.99C142.629 19.02 142.719 19.035 142.809 19.035V20.175H142.659C142.609 19.985 142.519 19.82 142.389 19.68C142.259 19.53 142.109 19.405 141.939 19.305C141.769 19.205 141.584 19.13 141.384 19.08C141.184 19.03 140.989 19.005 140.799 19.005C140.389 19.005 140.029 19.08 139.719 19.23C139.409 19.37 139.154 19.56 138.954 19.8C138.754 20.03 138.604 20.295 138.504 20.595C138.404 20.895 138.354 21.205 138.354 21.525C138.354 21.895 138.409 22.26 138.519 22.62C138.639 22.97 138.804 23.285 139.014 23.565C139.234 23.845 139.499 24.07 139.809 24.24C140.129 24.41 140.489 24.495 140.889 24.495C141.169 24.495 141.429 24.455 141.669 24.375C141.909 24.295 142.114 24.19 142.284 24.06C142.464 23.93 142.604 23.79 142.704 23.64C142.814 23.48 142.879 23.33 142.899 23.19H143.049V24.36ZM145.044 21.87C145.084 22.22 145.169 22.555 145.299 22.875C145.429 23.185 145.599 23.46 145.809 23.7C146.029 23.94 146.294 24.135 146.604 24.285C146.914 24.425 147.274 24.495 147.684 24.495C147.904 24.495 148.134 24.465 148.374 24.405C148.624 24.335 148.854 24.24 149.064 24.12C149.274 24 149.459 23.855 149.619 23.685C149.789 23.505 149.904 23.305 149.964 23.085H150.099V24.21C150.039 24.21 149.969 24.23 149.889 24.27C149.819 24.31 149.734 24.36 149.634 24.42C149.434 24.54 149.164 24.67 148.824 24.81C148.484 24.94 148.034 25.005 147.474 25.005C147.024 25.005 146.594 24.94 146.184 24.81C145.784 24.68 145.429 24.48 145.119 24.21C144.809 23.94 144.559 23.595 144.369 23.175C144.189 22.755 144.099 22.255 144.099 21.675C144.099 21.305 144.159 20.93 144.279 20.55C144.409 20.17 144.599 19.83 144.849 19.53C145.109 19.22 145.439 18.97 145.839 18.78C146.239 18.59 146.719 18.495 147.279 18.495C147.779 18.495 148.214 18.58 148.584 18.75C148.964 18.92 149.274 19.155 149.514 19.455C149.764 19.755 149.949 20.11 150.069 20.52C150.189 20.93 150.249 21.38 150.249 21.87H145.044ZM147.219 18.99C146.869 18.99 146.564 19.06 146.304 19.2C146.054 19.34 145.839 19.52 145.659 19.74C145.479 19.96 145.339 20.21 145.239 20.49C145.139 20.77 145.074 21.05 145.044 21.33H149.319C149.309 21.04 149.254 20.755 149.154 20.475C149.064 20.195 148.934 19.945 148.764 19.725C148.594 19.505 148.379 19.33 148.119 19.2C147.859 19.06 147.559 18.99 147.219 18.99ZM155.834 24.75C155.904 24.75 155.984 24.72 156.074 24.66C156.164 24.6 156.209 24.515 156.209 24.405C156.209 24.385 156.199 24.345 156.179 24.285C156.169 24.215 156.144 24.14 156.104 24.06L154.199 19.56L152.219 24.285C152.049 24.695 151.714 24.9 151.214 24.9H150.884V24.75C151.024 24.75 151.174 24.68 151.334 24.54C151.504 24.39 151.639 24.215 151.739 24.015L153.779 19.245C153.829 19.115 153.854 19.01 153.854 18.93C153.854 18.81 153.774 18.75 153.614 18.75V18.6H154.829L157.139 24C157.209 24.15 157.309 24.315 157.439 24.495C157.579 24.665 157.709 24.75 157.829 24.75V24.9H155.834V24.75ZM161.582 27.045C161.442 27.465 161.262 27.75 161.042 27.9C160.832 28.05 160.612 28.125 160.382 28.125C160.232 28.125 160.097 28.1 159.977 28.05C159.857 28 159.752 27.945 159.662 27.885C159.572 27.825 159.502 27.77 159.452 27.72C159.412 27.67 159.392 27.645 159.392 27.645L159.887 26.43C159.927 26.59 159.977 26.725 160.037 26.835C160.087 26.935 160.157 27.025 160.247 27.105C160.337 27.185 160.447 27.225 160.577 27.225C160.817 27.225 161.007 27.05 161.147 26.7L161.867 24.855L159.467 19.395C159.387 19.225 159.302 19.075 159.212 18.945C159.132 18.815 158.992 18.75 158.792 18.75V18.6H160.727V18.75C160.687 18.75 160.637 18.785 160.577 18.855C160.517 18.925 160.487 19.015 160.487 19.125C160.487 19.205 160.507 19.285 160.547 19.365L162.392 23.61L164.162 19.275C164.192 19.205 164.207 19.14 164.207 19.08C164.207 18.98 164.172 18.9 164.102 18.84C164.042 18.78 163.977 18.75 163.907 18.75V18.6H165.362V18.75C165.202 18.75 165.062 18.82 164.942 18.96C164.832 19.09 164.742 19.24 164.672 19.41L161.582 27.045ZM172.511 18.495C173.011 18.495 173.456 18.58 173.846 18.75C174.246 18.91 174.581 19.135 174.851 19.425C175.121 19.705 175.326 20.04 175.466 20.43C175.616 20.82 175.691 21.245 175.691 21.705C175.691 22.195 175.611 22.645 175.451 23.055C175.291 23.455 175.061 23.8 174.761 24.09C174.471 24.38 174.126 24.605 173.726 24.765C173.326 24.925 172.886 25.005 172.406 25.005C171.936 25.005 171.506 24.92 171.116 24.75C170.736 24.57 170.406 24.335 170.126 24.045C169.846 23.755 169.626 23.42 169.466 23.04C169.316 22.66 169.236 22.26 169.226 21.84H168.206V23.925C168.206 24.005 168.216 24.09 168.236 24.18C168.256 24.27 168.281 24.36 168.311 24.45C168.351 24.53 168.396 24.6 168.446 24.66C168.496 24.71 168.556 24.74 168.626 24.75V24.9H166.766V24.75C166.836 24.74 166.896 24.71 166.946 24.66C167.006 24.6 167.056 24.53 167.096 24.45C167.136 24.36 167.166 24.27 167.186 24.18C167.206 24.09 167.216 24.005 167.216 23.925V19.53C167.216 19.4 167.176 19.245 167.096 19.065C167.026 18.875 166.921 18.77 166.781 18.75V18.6H168.626V18.75C168.476 18.77 168.366 18.875 168.296 19.065C168.236 19.245 168.206 19.4 168.206 19.53V21.345H169.256C169.316 20.975 169.426 20.62 169.586 20.28C169.746 19.93 169.961 19.625 170.231 19.365C170.501 19.095 170.826 18.885 171.206 18.735C171.586 18.575 172.021 18.495 172.511 18.495ZM172.631 24.48C172.991 24.47 173.301 24.39 173.561 24.24C173.831 24.08 174.051 23.88 174.221 23.64C174.391 23.39 174.516 23.115 174.596 22.815C174.676 22.505 174.716 22.19 174.716 21.87C174.716 21.5 174.661 21.145 174.551 20.805C174.441 20.455 174.281 20.15 174.071 19.89C173.871 19.62 173.626 19.405 173.336 19.245C173.046 19.085 172.716 19.005 172.346 19.005C171.976 19.005 171.656 19.085 171.386 19.245C171.126 19.395 170.906 19.595 170.726 19.845C170.556 20.085 170.426 20.365 170.336 20.685C170.256 20.995 170.216 21.31 170.216 21.63C170.216 21.96 170.261 22.295 170.351 22.635C170.451 22.975 170.596 23.28 170.786 23.55C170.986 23.82 171.236 24.045 171.536 24.225C171.846 24.395 172.211 24.48 172.631 24.48ZM187.395 24.36C187.315 24.36 187.24 24.38 187.17 24.42C187.1 24.45 187.02 24.49 186.93 24.54C186.76 24.64 186.535 24.745 186.255 24.855C185.975 24.955 185.625 25.005 185.205 25.005C184.695 25.005 184.225 24.925 183.795 24.765C183.375 24.595 183.01 24.365 182.7 24.075C182.39 23.775 182.15 23.43 181.98 23.04C181.81 22.64 181.725 22.21 181.725 21.75C181.725 21.32 181.8 20.91 181.95 20.52C182.11 20.13 182.335 19.785 182.625 19.485C182.915 19.185 183.27 18.945 183.69 18.765C184.12 18.585 184.605 18.495 185.145 18.495C185.515 18.495 185.815 18.54 186.045 18.63C186.275 18.71 186.47 18.79 186.63 18.87C186.72 18.92 186.805 18.96 186.885 18.99C186.975 19.02 187.065 19.035 187.155 19.035V20.175H187.005C186.955 19.985 186.865 19.82 186.735 19.68C186.605 19.53 186.455 19.405 186.285 19.305C186.115 19.205 185.93 19.13 185.73 19.08C185.53 19.03 185.335 19.005 185.145 19.005C184.735 19.005 184.375 19.08 184.065 19.23C183.755 19.37 183.5 19.56 183.3 19.8C183.1 20.03 182.95 20.295 182.85 20.595C182.75 20.895 182.7 21.205 182.7 21.525C182.7 21.895 182.755 22.26 182.865 22.62C182.985 22.97 183.15 23.285 183.36 23.565C183.58 23.845 183.845 24.07 184.155 24.24C184.475 24.41 184.835 24.495 185.235 24.495C185.515 24.495 185.775 24.455 186.015 24.375C186.255 24.295 186.46 24.19 186.63 24.06C186.81 23.93 186.95 23.79 187.05 23.64C187.16 23.48 187.225 23.33 187.245 23.19H187.395V24.36ZM193.928 20.1C193.928 20.27 193.893 20.43 193.823 20.58C193.753 20.73 193.663 20.87 193.553 21C193.453 21.12 193.333 21.23 193.193 21.33C193.053 21.42 192.918 21.49 192.788 21.54C192.958 21.57 193.133 21.625 193.313 21.705C193.503 21.785 193.673 21.89 193.823 22.02C193.983 22.15 194.113 22.315 194.213 22.515C194.313 22.705 194.363 22.935 194.363 23.205C194.363 23.345 194.328 23.515 194.258 23.715C194.198 23.905 194.083 24.09 193.913 24.27C193.753 24.44 193.528 24.59 193.238 24.72C192.958 24.84 192.593 24.9 192.143 24.9H188.843V24.75C188.923 24.75 188.993 24.72 189.053 24.66C189.113 24.6 189.163 24.53 189.203 24.45C189.253 24.37 189.288 24.285 189.308 24.195C189.328 24.095 189.338 24.005 189.338 23.925V19.545C189.338 19.385 189.293 19.215 189.203 19.035C189.123 18.845 189.003 18.75 188.843 18.75V18.6H191.903C192.263 18.6 192.568 18.65 192.818 18.75C193.078 18.84 193.288 18.96 193.448 19.11C193.618 19.25 193.738 19.41 193.808 19.59C193.888 19.76 193.928 19.93 193.928 20.1ZM190.313 21.345H191.468C191.758 21.345 191.998 21.315 192.188 21.255C192.388 21.185 192.548 21.095 192.668 20.985C192.788 20.875 192.873 20.75 192.923 20.61C192.983 20.47 193.013 20.325 193.013 20.175C193.013 20.055 192.978 19.93 192.908 19.8C192.838 19.67 192.733 19.555 192.593 19.455C192.463 19.345 192.303 19.255 192.113 19.185C191.923 19.115 191.708 19.08 191.468 19.08H190.313V21.345ZM191.783 24.42C191.903 24.42 192.053 24.41 192.233 24.39C192.423 24.36 192.603 24.305 192.773 24.225C192.953 24.135 193.103 24.01 193.223 23.85C193.353 23.68 193.418 23.46 193.418 23.19C193.418 22.9 193.333 22.665 193.163 22.485C192.993 22.305 192.793 22.17 192.563 22.08C192.343 21.98 192.113 21.915 191.873 21.885C191.633 21.855 191.448 21.84 191.318 21.84H190.313V24.42H191.783ZM200.079 24.9V24.135L200.004 24.21C199.754 24.46 199.464 24.655 199.134 24.795C198.814 24.935 198.424 25.005 197.964 25.005C197.614 25.005 197.314 24.965 197.064 24.885C196.814 24.805 196.609 24.695 196.449 24.555C196.289 24.405 196.169 24.235 196.089 24.045C196.019 23.855 195.984 23.655 195.984 23.445C195.984 23.105 196.074 22.805 196.254 22.545C196.444 22.285 196.714 22.055 197.064 21.855C197.414 21.655 197.839 21.475 198.339 21.315C198.849 21.145 199.429 20.98 200.079 20.82C200.059 20.43 199.979 20.115 199.839 19.875C199.699 19.635 199.534 19.45 199.344 19.32C199.154 19.18 198.954 19.09 198.744 19.05C198.534 19 198.354 18.975 198.204 18.975C197.944 18.975 197.714 19.015 197.514 19.095C197.314 19.165 197.139 19.265 196.989 19.395C196.839 19.515 196.714 19.655 196.614 19.815C196.524 19.975 196.454 20.135 196.404 20.295H196.269V19.125C196.359 19.125 196.464 19.095 196.584 19.035C196.704 18.965 196.844 18.89 197.004 18.81C197.174 18.73 197.374 18.66 197.604 18.6C197.844 18.53 198.129 18.495 198.459 18.495C199.009 18.495 199.454 18.565 199.794 18.705C200.134 18.845 200.394 19.03 200.574 19.26C200.764 19.49 200.889 19.755 200.949 20.055C201.009 20.345 201.039 20.645 201.039 20.955V23.925C201.039 24.125 201.089 24.315 201.189 24.495C201.289 24.665 201.424 24.75 201.594 24.75V24.9H200.079ZM200.079 23.475V21.33L199.929 21.36C199.689 21.42 199.394 21.5 199.044 21.6C198.704 21.7 198.379 21.83 198.069 21.99C197.759 22.15 197.494 22.34 197.274 22.56C197.054 22.78 196.944 23.035 196.944 23.325C196.944 23.645 197.074 23.91 197.334 24.12C197.594 24.33 197.934 24.435 198.354 24.435C198.684 24.435 198.974 24.365 199.224 24.225C199.474 24.075 199.704 23.885 199.914 23.655L200.079 23.475ZM210.1 24.405V26.25H209.95C209.93 26.13 209.895 25.99 209.845 25.83C209.795 25.68 209.725 25.535 209.635 25.395C209.545 25.255 209.435 25.135 209.305 25.035C209.185 24.945 209.045 24.9 208.885 24.9H204.115C203.955 24.9 203.81 24.945 203.68 25.035C203.55 25.135 203.435 25.255 203.335 25.395C203.245 25.535 203.17 25.68 203.11 25.83C203.06 25.99 203.03 26.13 203.02 26.25H202.87V24.405H203.44C203.5 24.405 203.555 24.38 203.605 24.33C203.665 24.28 203.72 24.22 203.77 24.15C203.83 24.08 203.885 24.005 203.935 23.925C203.985 23.835 204.03 23.755 204.07 23.685C204.22 23.345 204.4 22.94 204.61 22.47C204.83 22 205.05 21.515 205.27 21.015C205.5 20.515 205.72 20.03 205.93 19.56C206.14 19.08 206.32 18.67 206.47 18.33L209.005 23.865C209.085 24.035 209.16 24.17 209.23 24.27C209.3 24.36 209.395 24.405 209.515 24.405H210.1ZM204.265 24.405H208.165L206.215 20.13L204.265 24.405ZM214.073 21.33C214.533 21.33 214.933 21.375 215.273 21.465C215.623 21.555 215.908 21.68 216.128 21.84C216.358 22 216.528 22.19 216.638 22.41C216.748 22.62 216.803 22.85 216.803 23.1C216.803 23.35 216.748 23.585 216.638 23.805C216.528 24.025 216.353 24.215 216.113 24.375C215.883 24.535 215.593 24.665 215.243 24.765C214.893 24.855 214.478 24.9 213.998 24.9H211.433V24.75C211.513 24.75 211.583 24.725 211.643 24.675C211.703 24.615 211.753 24.545 211.793 24.465C211.843 24.375 211.878 24.285 211.898 24.195C211.918 24.095 211.928 24.005 211.928 23.925V19.53C211.928 19.46 211.918 19.38 211.898 19.29C211.878 19.2 211.843 19.115 211.793 19.035C211.753 18.955 211.703 18.89 211.643 18.84C211.583 18.78 211.513 18.75 211.433 18.75V18.6H213.398V18.75C213.248 18.75 213.128 18.845 213.038 19.035C212.948 19.215 212.903 19.38 212.903 19.53V21.33H214.073ZM213.968 24.405C214.628 24.405 215.103 24.3 215.393 24.09C215.693 23.87 215.843 23.6 215.843 23.28C215.843 23.1 215.803 22.925 215.723 22.755C215.643 22.575 215.518 22.42 215.348 22.29C215.188 22.15 214.988 22.04 214.748 21.96C214.508 21.87 214.233 21.825 213.923 21.825H212.903V24.405H213.968ZM221.803 18.495C222.303 18.495 222.753 18.58 223.153 18.75C223.563 18.91 223.908 19.135 224.188 19.425C224.478 19.705 224.698 20.04 224.848 20.43C224.998 20.82 225.073 21.245 225.073 21.705C225.073 22.195 224.988 22.645 224.818 23.055C224.648 23.455 224.413 23.8 224.113 24.09C223.813 24.38 223.458 24.605 223.048 24.765C222.638 24.925 222.193 25.005 221.713 25.005C221.203 25.005 220.748 24.91 220.348 24.72C219.948 24.52 219.608 24.25 219.328 23.91C219.048 23.57 218.833 23.17 218.683 22.71C218.533 22.24 218.458 21.735 218.458 21.195C218.458 20.885 218.473 20.6 218.503 20.34C218.543 20.08 218.598 19.83 218.668 19.59C218.748 19.34 218.843 19.1 218.953 18.87C219.063 18.64 219.193 18.4 219.343 18.15C219.763 17.49 220.288 16.97 220.918 16.59C221.558 16.21 222.208 16.02 222.868 16.02H224.773L224.188 16.98H222.628C222.308 16.98 221.988 17.04 221.668 17.16C221.348 17.27 221.043 17.44 220.753 17.67C220.473 17.89 220.223 18.16 220.003 18.48C219.783 18.8 219.608 19.165 219.478 19.575C219.748 19.245 220.058 18.985 220.408 18.795C220.768 18.595 221.233 18.495 221.803 18.495ZM221.893 24.495C222.263 24.475 222.588 24.39 222.868 24.24C223.148 24.08 223.383 23.88 223.573 23.64C223.763 23.39 223.903 23.115 223.993 22.815C224.093 22.505 224.143 22.19 224.143 21.87C224.143 21.5 224.083 21.145 223.963 20.805C223.843 20.455 223.673 20.15 223.453 19.89C223.233 19.63 222.968 19.42 222.658 19.26C222.358 19.1 222.023 19.02 221.653 19.02C221.293 19.02 220.973 19.1 220.693 19.26C220.413 19.41 220.178 19.61 219.988 19.86C219.798 20.11 219.653 20.395 219.553 20.715C219.463 21.035 219.418 21.355 219.418 21.675C219.418 21.995 219.473 22.325 219.583 22.665C219.703 22.995 219.868 23.295 220.078 23.565C220.298 23.835 220.558 24.06 220.858 24.24C221.168 24.41 221.513 24.495 221.893 24.495ZM229.264 27.045C229.124 27.465 228.944 27.75 228.724 27.9C228.514 28.05 228.294 28.125 228.064 28.125C227.914 28.125 227.779 28.1 227.659 28.05C227.539 28 227.434 27.945 227.344 27.885C227.254 27.825 227.184 27.77 227.134 27.72C227.094 27.67 227.074 27.645 227.074 27.645L227.569 26.43C227.609 26.59 227.659 26.725 227.719 26.835C227.769 26.935 227.839 27.025 227.929 27.105C228.019 27.185 228.129 27.225 228.259 27.225C228.499 27.225 228.689 27.05 228.829 26.7L229.549 24.855L227.149 19.395C227.069 19.225 226.984 19.075 226.894 18.945C226.814 18.815 226.674 18.75 226.474 18.75V18.6H228.409V18.75C228.369 18.75 228.319 18.785 228.259 18.855C228.199 18.925 228.169 19.015 228.169 19.125C228.169 19.205 228.189 19.285 228.229 19.365L230.074 23.61L231.844 19.275C231.874 19.205 231.889 19.14 231.889 19.08C231.889 18.98 231.854 18.9 231.784 18.84C231.724 18.78 231.659 18.75 231.589 18.75V18.6H233.044V18.75C232.884 18.75 232.744 18.82 232.624 18.96C232.514 19.09 232.424 19.24 232.354 19.41L229.264 27.045Z" fill="white"></path></svg> 