<?xml version="1.0" encoding="UTF-8"?> <svg xmlns="http://www.w3.org/2000/svg" width="105" height="16" viewBox="0 0 105 16" fill="none"><path d="M-4.88162e-05 7.89999C-4.88162e-05 6.61666 0.158285 5.48333 0.474951 4.49999C0.808285 3.51666 1.24162 2.69999 1.77495 2.04999C2.30828 1.38333 2.90828 0.883326 3.57495 0.549993C4.25828 0.199994 4.94995 0.0249939 5.64995 0.0249939C6.34995 0.0249939 7.04162 0.199994 7.72495 0.549993C8.40829 0.883326 9.00829 1.38333 9.52495 2.04999C10.0583 2.69999 10.4833 3.51666 10.8 4.49999C11.1333 5.48333 11.3 6.61666 11.3 7.89999C11.3 9.19999 11.1333 10.35 10.8 11.35C10.4833 12.3333 10.0583 13.1667 9.52495 13.85C9.00829 14.5167 8.40829 15.025 7.72495 15.375C7.04162 15.725 6.34995 15.9 5.64995 15.9C4.94995 15.9 4.25828 15.725 3.57495 15.375C2.90828 15.025 2.30828 14.5167 1.77495 13.85C1.24162 13.1667 0.808285 12.3333 0.474951 11.35C0.158285 10.35 -4.88162e-05 9.19999 -4.88162e-05 7.89999ZM9.72495 8.54999C9.72495 7.34999 9.59162 6.29166 9.32495 5.37499C9.05829 4.44166 8.70829 3.66666 8.27495 3.04999C7.85829 2.41666 7.37495 1.94166 6.82495 1.62499C6.29162 1.29166 5.74162 1.12499 5.17495 1.12499C4.60828 1.12499 4.09162 1.29166 3.62495 1.62499C3.17495 1.94166 2.79162 2.36666 2.47495 2.89999C2.15828 3.43333 1.90828 4.04999 1.72495 4.74999C1.55828 5.44999 1.47495 6.18333 1.47495 6.94999C1.47495 7.86666 1.58328 8.79999 1.79995 9.74999C2.01662 10.6833 2.32495 11.5333 2.72495 12.3C3.12495 13.05 3.59995 13.6667 4.14995 14.15C4.71662 14.6333 5.33328 14.875 5.99995 14.875C6.48328 14.875 6.94995 14.7417 7.39995 14.475C7.84995 14.1917 8.24162 13.7833 8.57495 13.25C8.92495 12.7167 9.19995 12.0583 9.39995 11.275C9.61662 10.4917 9.72495 9.58333 9.72495 8.54999ZM24.555 11.575C24.555 12.3083 24.405 12.95 24.105 13.5C23.8217 14.0333 23.43 14.4833 22.93 14.85C22.4467 15.2 21.88 15.4667 21.23 15.65C20.58 15.8167 19.8884 15.9 19.155 15.9C18.4717 15.9 17.805 15.8167 17.155 15.65C16.505 15.4667 15.9217 15.2 15.405 14.85C14.8884 14.4833 14.4717 14.0333 14.155 13.5C13.855 12.9667 13.705 12.3417 13.705 11.625C13.705 10.675 13.9884 9.82499 14.555 9.07499C15.1217 8.30833 16.0217 7.74166 17.255 7.37499C16.305 6.94166 15.605 6.44166 15.155 5.87499C14.7217 5.29166 14.505 4.58333 14.505 3.74999C14.505 3.13333 14.63 2.59999 14.88 2.14999C15.1467 1.68333 15.4884 1.29166 15.905 0.974994C16.3384 0.658327 16.83 0.424994 17.38 0.274994C17.93 0.108327 18.4884 0.0249939 19.055 0.0249939C19.6217 0.0249939 20.18 0.108327 20.73 0.274994C21.2967 0.424994 21.7967 0.658327 22.23 0.974994C22.6634 1.29166 23.0134 1.69166 23.28 2.17499C23.5634 2.64166 23.705 3.19166 23.705 3.82499C23.705 4.57499 23.455 5.27499 22.955 5.92499C22.455 6.57499 21.805 7.06666 21.005 7.39999C22.0384 7.69999 22.8884 8.19999 23.555 8.89999C24.2217 9.58333 24.555 10.475 24.555 11.575ZM22.255 4.19999C22.255 3.69999 22.1467 3.24166 21.93 2.82499C21.73 2.40833 21.4634 2.05833 21.13 1.77499C20.7967 1.47499 20.4134 1.24999 19.98 1.09999C19.5634 0.933327 19.1384 0.849994 18.705 0.849994C18.3717 0.849994 18.0467 0.899994 17.73 0.999993C17.4134 1.09999 17.13 1.24999 16.88 1.44999C16.63 1.64999 16.4217 1.89999 16.255 2.19999C16.105 2.49999 16.03 2.84999 16.03 3.24999C16.03 3.69999 16.1384 4.11666 16.355 4.49999C16.5717 4.88333 16.855 5.22499 17.205 5.52499C17.5717 5.82499 17.98 6.09166 18.43 6.32499C18.8967 6.54166 19.3634 6.72499 19.83 6.87499C20.58 6.57499 21.1717 6.19999 21.605 5.74999C22.0384 5.29999 22.255 4.78333 22.255 4.19999ZM23.305 12.1C23.305 11.6333 23.18 11.1917 22.93 10.775C22.68 10.3583 22.33 9.98333 21.88 9.64999C21.43 9.29999 20.905 8.99166 20.305 8.72499C19.7217 8.44166 19.105 8.19999 18.455 7.99999C18.0217 8.14999 17.6134 8.33333 17.23 8.54999C16.8467 8.76666 16.5134 9.01666 16.23 9.29999C15.9467 9.58333 15.7217 9.89166 15.555 10.225C15.3884 10.5583 15.305 10.9167 15.305 11.3C15.305 11.8 15.4217 12.275 15.655 12.725C15.8884 13.175 16.1967 13.575 16.58 13.925C16.9634 14.2583 17.405 14.5167 17.905 14.7C18.405 14.8833 18.9217 14.975 19.455 14.975C19.905 14.975 20.355 14.9083 20.805 14.775C21.2717 14.625 21.68 14.4333 22.03 14.2C22.3967 13.95 22.6967 13.65 22.93 13.3C23.18 12.95 23.305 12.55 23.305 12.1ZM27.7783 14.575C27.7783 14.2417 27.8866 13.9583 28.1033 13.725C28.3366 13.4917 28.6199 13.375 28.9533 13.375C29.2866 13.375 29.5699 13.4917 29.8033 13.725C30.0366 13.9583 30.1533 14.2417 30.1533 14.575C30.1533 14.9083 30.0366 15.1917 29.8033 15.425C29.5699 15.6417 29.2866 15.75 28.9533 15.75C28.6199 15.75 28.3366 15.6417 28.1033 15.425C27.8866 15.1917 27.7783 14.9083 27.7783 14.575ZM34.8576 15.65V15.4C35.2576 15.4 35.5076 15.2833 35.6076 15.05C35.7242 14.8 35.7826 14.5083 35.7826 14.175V2.19999C35.7826 2.03333 35.6992 1.94999 35.5326 1.94999C35.4659 1.94999 35.3742 1.97499 35.2576 2.02499L32.4076 2.92499V2.02499L38.2326 -7.27177e-06V0.674993C37.9659 0.79166 37.7492 0.974994 37.5826 1.22499C37.4326 1.47499 37.3742 1.76666 37.4076 2.09999V14.075C37.4076 14.425 37.4659 14.7333 37.5826 15C37.6992 15.2667 37.9659 15.4 38.3826 15.4V15.65H34.8576ZM43.7375 15.65V15.4C44.1375 15.4 44.3875 15.2833 44.4875 15.05C44.6041 14.8 44.6625 14.5083 44.6625 14.175V2.19999C44.6625 2.03333 44.5791 1.94999 44.4125 1.94999C44.3458 1.94999 44.2541 1.97499 44.1375 2.02499L41.2875 2.92499V2.02499L47.1125 -7.27177e-06V0.674993C46.8458 0.79166 46.6291 0.974994 46.4625 1.22499C46.3125 1.47499 46.2541 1.76666 46.2875 2.09999V14.075C46.2875 14.425 46.3458 14.7333 46.4625 15C46.5791 15.2667 46.8458 15.4 47.2625 15.4V15.65H43.7375ZM51.3173 14.575C51.3173 14.2417 51.4257 13.9583 51.6423 13.725C51.8757 13.4917 52.159 13.375 52.4923 13.375C52.8257 13.375 53.109 13.4917 53.3423 13.725C53.5757 13.9583 53.6923 14.2417 53.6923 14.575C53.6923 14.9083 53.5757 15.1917 53.3423 15.425C53.109 15.6417 52.8257 15.75 52.4923 15.75C52.159 15.75 51.8757 15.6417 51.6423 15.425C51.4257 15.1917 51.3173 14.9083 51.3173 14.575ZM56.3716 1.67499H56.5966C56.68 1.67499 56.78 1.63333 56.8966 1.54999C57.03 1.46666 57.1716 1.37499 57.3216 1.27499C57.4883 1.15833 57.68 1.02499 57.8966 0.874993C58.13 0.724993 58.3883 0.59166 58.6716 0.474993C58.9716 0.34166 59.305 0.233327 59.6716 0.149994C60.0383 0.0666605 60.4466 0.0249939 60.8966 0.0249939C61.4633 0.0249939 62.0133 0.108327 62.5466 0.274994C63.08 0.424994 63.555 0.66666 63.9716 0.999993C64.3883 1.31666 64.7216 1.72499 64.9716 2.22499C65.2216 2.72499 65.3466 3.32499 65.3466 4.02499C65.3466 4.60833 65.2466 5.14166 65.0466 5.62499C64.8466 6.10833 64.5716 6.55833 64.2216 6.97499C63.8883 7.39166 63.505 7.79166 63.0716 8.17499C62.655 8.54166 62.2216 8.90833 61.7716 9.27499C61.3383 9.62499 60.9133 9.98333 60.4966 10.35C60.0966 10.7167 59.73 11.1 59.3966 11.5C59.08 11.9 58.8133 12.3333 58.5966 12.8C58.38 13.25 58.255 13.7333 58.2216 14.25H63.4216C64.055 14.25 64.555 14.1417 64.9216 13.925C65.2883 13.6917 65.48 13.3167 65.4966 12.8H65.7216V15.65H56.4716C56.4716 14.9 56.5966 14.2083 56.8466 13.575C57.0966 12.925 57.4216 12.3333 57.8216 11.8C58.2216 11.25 58.6633 10.7417 59.1466 10.275C59.6466 9.80833 60.1383 9.35833 60.6216 8.92499C61.0216 8.57499 61.405 8.22499 61.7716 7.87499C62.155 7.52499 62.4883 7.17499 62.7716 6.82499C63.0716 6.45833 63.305 6.08333 63.4716 5.69999C63.655 5.29999 63.7466 4.88333 63.7466 4.44999C63.7466 3.89999 63.6466 3.40833 63.4466 2.97499C63.2633 2.54166 63.0133 2.17499 62.6966 1.87499C62.3966 1.57499 62.0466 1.34999 61.6466 1.19999C61.2466 1.03333 60.8466 0.949994 60.4466 0.949994C59.5966 0.949994 58.8466 1.20833 58.1966 1.72499C57.5466 2.22499 57.0216 2.87499 56.6216 3.67499H56.3716V1.67499ZM68.1894 7.89999C68.1894 6.61666 68.3477 5.48333 68.6644 4.49999C68.9977 3.51666 69.4311 2.69999 69.9644 2.04999C70.4977 1.38333 71.0977 0.883326 71.7644 0.549993C72.4477 0.199994 73.1394 0.0249939 73.8394 0.0249939C74.5394 0.0249939 75.2311 0.199994 75.9144 0.549993C76.5977 0.883326 77.1977 1.38333 77.7144 2.04999C78.2477 2.69999 78.6727 3.51666 78.9894 4.49999C79.3227 5.48333 79.4894 6.61666 79.4894 7.89999C79.4894 9.19999 79.3227 10.35 78.9894 11.35C78.6727 12.3333 78.2477 13.1667 77.7144 13.85C77.1977 14.5167 76.5977 15.025 75.9144 15.375C75.2311 15.725 74.5394 15.9 73.8394 15.9C73.1394 15.9 72.4477 15.725 71.7644 15.375C71.0977 15.025 70.4977 14.5167 69.9644 13.85C69.4311 13.1667 68.9977 12.3333 68.6644 11.35C68.3477 10.35 68.1894 9.19999 68.1894 7.89999ZM77.9144 8.54999C77.9144 7.34999 77.7811 6.29166 77.5144 5.37499C77.2477 4.44166 76.8977 3.66666 76.4644 3.04999C76.0477 2.41666 75.5644 1.94166 75.0144 1.62499C74.4811 1.29166 73.9311 1.12499 73.3644 1.12499C72.7977 1.12499 72.2811 1.29166 71.8144 1.62499C71.3644 1.94166 70.9811 2.36666 70.6644 2.89999C70.3477 3.43333 70.0977 4.04999 69.9144 4.74999C69.7477 5.44999 69.6644 6.18333 69.6644 6.94999C69.6644 7.86666 69.7727 8.79999 69.9894 9.74999C70.2061 10.6833 70.5144 11.5333 70.9144 12.3C71.3144 13.05 71.7894 13.6667 72.3394 14.15C72.9061 14.6333 73.5227 14.875 74.1894 14.875C74.6727 14.875 75.1394 14.7417 75.5894 14.475C76.0394 14.1917 76.4311 13.7833 76.7644 13.25C77.1144 12.7167 77.3894 12.0583 77.5894 11.275C77.8061 10.4917 77.9144 9.58333 77.9144 8.54999ZM81.9195 1.67499H82.1445C82.2278 1.67499 82.3278 1.63333 82.4445 1.54999C82.5778 1.46666 82.7195 1.37499 82.8695 1.27499C83.0361 1.15833 83.2278 1.02499 83.4445 0.874993C83.6778 0.724993 83.9361 0.59166 84.2195 0.474993C84.5195 0.34166 84.8528 0.233327 85.2195 0.149994C85.5861 0.0666605 85.9945 0.0249939 86.4445 0.0249939C87.0111 0.0249939 87.5611 0.108327 88.0945 0.274994C88.6278 0.424994 89.1028 0.66666 89.5195 0.999993C89.9361 1.31666 90.2695 1.72499 90.5195 2.22499C90.7695 2.72499 90.8945 3.32499 90.8945 4.02499C90.8945 4.60833 90.7945 5.14166 90.5945 5.62499C90.3945 6.10833 90.1195 6.55833 89.7695 6.97499C89.4361 7.39166 89.0528 7.79166 88.6195 8.17499C88.2028 8.54166 87.7695 8.90833 87.3195 9.27499C86.8861 9.62499 86.4611 9.98333 86.0445 10.35C85.6445 10.7167 85.2778 11.1 84.9445 11.5C84.6278 11.9 84.3611 12.3333 84.1445 12.8C83.9278 13.25 83.8028 13.7333 83.7695 14.25H88.9695C89.6028 14.25 90.1028 14.1417 90.4695 13.925C90.8361 13.6917 91.0278 13.3167 91.0445 12.8H91.2695V15.65H82.0195C82.0195 14.9 82.1445 14.2083 82.3945 13.575C82.6445 12.925 82.9695 12.3333 83.3695 11.8C83.7695 11.25 84.2111 10.7417 84.6945 10.275C85.1945 9.80833 85.6861 9.35833 86.1695 8.92499C86.5695 8.57499 86.9528 8.22499 87.3195 7.87499C87.7028 7.52499 88.0361 7.17499 88.3195 6.82499C88.6195 6.45833 88.8528 6.08333 89.0195 5.69999C89.2028 5.29999 89.2945 4.88333 89.2945 4.44999C89.2945 3.89999 89.1945 3.40833 88.9945 2.97499C88.8111 2.54166 88.5611 2.17499 88.2445 1.87499C87.9445 1.57499 87.5945 1.34999 87.1945 1.19999C86.7945 1.03333 86.3945 0.949994 85.9945 0.949994C85.1445 0.949994 84.3945 1.20833 83.7445 1.72499C83.0945 2.22499 82.5695 2.87499 82.1695 3.67499H81.9195V1.67499ZM98.7373 6.39999C98.1373 6.39999 97.6123 6.50833 97.1623 6.72499C96.7289 6.92499 96.3623 7.19999 96.0623 7.54999C95.7789 7.89999 95.5623 8.29999 95.4123 8.74999C95.2789 9.19999 95.2123 9.66666 95.2123 10.15C95.2123 10.7333 95.2956 11.3167 95.4623 11.9C95.6456 12.4833 95.9039 13.0083 96.2373 13.475C96.5873 13.925 97.0039 14.3 97.4873 14.6C97.9706 14.8833 98.5289 15.025 99.1623 15.025C99.7289 15.025 100.229 14.9167 100.662 14.7C101.096 14.4667 101.454 14.1667 101.737 13.8C102.037 13.4167 102.254 12.9833 102.387 12.5C102.537 12.0167 102.612 11.525 102.612 11.025C102.612 10.4583 102.521 9.89999 102.337 9.34999C102.171 8.79999 101.921 8.30833 101.587 7.87499C101.271 7.42499 100.871 7.06666 100.387 6.79999C99.9039 6.53333 99.3539 6.39999 98.7373 6.39999ZM102.287 2.27499C102.021 1.94166 101.696 1.67499 101.312 1.47499C100.946 1.27499 100.596 1.17499 100.262 1.17499C99.4956 1.17499 98.8289 1.36666 98.2623 1.74999C97.6956 2.11666 97.2206 2.57499 96.8373 3.12499C96.4706 3.67499 96.1789 4.27499 95.9623 4.92499C95.7456 5.55833 95.6039 6.14999 95.5373 6.69999C96.0206 6.26666 96.5623 5.96666 97.1623 5.79999C97.7623 5.61666 98.3873 5.52499 99.0373 5.52499C99.8873 5.52499 100.629 5.67499 101.262 5.97499C101.912 6.25833 102.446 6.64166 102.862 7.12499C103.296 7.59166 103.612 8.13333 103.812 8.74999C104.029 9.36666 104.137 9.99999 104.137 10.65C104.137 11.3 104.029 11.9417 103.812 12.575C103.596 13.2083 103.271 13.775 102.837 14.275C102.404 14.7583 101.862 15.15 101.212 15.45C100.579 15.75 99.8373 15.9 98.9873 15.9C98.0539 15.9 97.2456 15.725 96.5623 15.375C95.8789 15.025 95.3206 14.5583 94.8873 13.975C94.4539 13.375 94.1289 12.6833 93.9123 11.9C93.7123 11.1167 93.6123 10.3 93.6123 9.44999C93.6123 8.34999 93.7623 7.25833 94.0623 6.17499C94.3789 5.07499 94.8373 4.09166 95.4373 3.22499C96.0373 2.34166 96.7706 1.62499 97.6373 1.07499C98.5039 0.524993 99.4956 0.249992 100.612 0.249992C100.846 0.249992 101.087 0.266659 101.337 0.299993C101.604 0.333326 101.837 0.36666 102.037 0.399994C102.137 0.41666 102.237 0.433326 102.337 0.449993C102.454 0.466659 102.521 0.474993 102.537 0.474993V2.27499H102.287Z" fill="#281814"></path></svg> 