<?xml version="1.0" encoding="UTF-8"?> <svg xmlns="http://www.w3.org/2000/svg" width="243" height="26" viewBox="0 0 243 26" fill="none"><path d="M11.77 21.5161C11.33 21.5161 10.9633 21.3548 10.67 21.0321C10.3913 20.7094 10.2813 20.1008 10.34 19.2061C10.3987 18.2821 10.6847 17.0941 11.198 15.6421C11.7113 14.1901 12.3787 12.4814 13.2 10.5161C13.464 9.88545 13.728 9.18145 13.992 8.40411C14.2707 7.62678 14.5053 6.84945 14.696 6.07211C14.8867 5.28011 14.982 4.56878 14.982 3.93811C14.982 3.49811 14.9233 3.11678 14.806 2.79411C14.7033 2.45678 14.5127 2.20745 14.234 2.04611C13.9113 1.84078 13.5667 1.69411 13.2 1.60611C12.8333 1.51811 12.4447 1.47411 12.034 1.47411C11.11 1.47411 10.1347 1.68678 9.10799 2.11211C8.09599 2.53745 7.11332 3.12411 6.15999 3.87211C5.22132 4.60545 4.37799 5.44145 3.62999 6.38011C2.89665 7.31878 2.33932 8.29411 1.95799 9.30611C1.73799 9.90745 1.57665 10.4721 1.47399 11.0001C1.37132 11.5281 1.31999 12.0048 1.31999 12.4301C1.31999 13.2368 1.46665 13.9114 1.75999 14.4541C2.06799 14.9821 2.46399 15.3781 2.94799 15.6421C3.44665 15.8914 3.98199 16.0161 4.55399 16.0161C5.09665 16.0161 5.60999 15.9208 6.09399 15.7301C6.72465 15.4954 7.28932 15.0994 7.78799 14.5421C8.28665 13.9848 8.68265 13.3688 8.97599 12.6941C9.26932 12.0048 9.41599 11.3741 9.41599 10.8021C9.41599 10.3034 9.28399 9.88545 9.01999 9.54811C8.77065 9.21078 8.35265 9.04211 7.76599 9.04211C7.67799 9.04211 7.58999 9.04211 7.50199 9.04211C7.42865 9.04211 7.34065 9.05678 7.23799 9.08611C7.17932 9.10078 7.12799 9.10811 7.08399 9.10811C7.03999 9.10811 7.00332 9.10811 6.97399 9.10811C6.84199 9.10811 6.77599 9.07878 6.77599 9.02011C6.77599 8.93211 6.91532 8.83678 7.19399 8.73411C7.64865 8.58745 8.07399 8.51411 8.46999 8.51411C9.15932 8.51411 9.67265 8.71945 10.01 9.13011C10.3473 9.52611 10.516 10.0321 10.516 10.6481C10.516 11.2641 10.3473 11.9314 10.01 12.6501C9.67265 13.3541 9.17399 14.0288 8.51399 14.6741C7.86865 15.3194 7.05465 15.8474 6.07199 16.2581C5.54399 16.4781 5.00132 16.5881 4.44399 16.5881C3.68132 16.5881 2.96265 16.3901 2.28799 15.9941C1.61332 15.5981 1.06332 15.0334 0.637985 14.3001C0.212652 13.5668 -1.47298e-05 12.7014 -1.47298e-05 11.7041C-1.47298e-05 11.2201 0.0586519 10.7141 0.175985 10.1861C0.293319 9.65811 0.476652 9.10078 0.725985 8.51411C1.20999 7.38478 1.86999 6.35811 2.70599 5.43411C3.54199 4.49545 4.47332 3.68878 5.49999 3.01411C6.54132 2.32478 7.60465 1.79678 8.68999 1.43011C9.77532 1.06345 10.8093 0.880113 11.792 0.880113C12.6573 0.880113 13.442 1.03411 14.146 1.34211C14.9233 1.67945 15.466 2.16345 15.774 2.79411C16.0967 3.41011 16.258 4.10678 16.258 4.88411C16.258 5.73478 16.1113 6.64411 15.818 7.61211C15.5393 8.56545 15.1947 9.50411 14.784 10.4281C14.3293 11.4694 13.882 12.5548 13.442 13.6841C13.002 14.8134 12.6207 15.8841 12.298 16.8961C11.9753 17.9081 11.748 18.7514 11.616 19.4261C11.5867 19.5874 11.5647 19.7268 11.55 19.8441C11.5353 19.9761 11.528 20.0861 11.528 20.1741C11.528 20.6874 11.6967 20.9441 12.034 20.9441C12.2393 20.9441 12.4813 20.8561 12.76 20.6801C13.3027 20.3574 13.8527 19.8734 14.41 19.2281C14.9673 18.5828 15.5173 17.8494 16.06 17.0281C16.6173 16.1921 17.1527 15.3414 17.666 14.4761C18.1793 13.5961 18.6707 12.7674 19.14 11.9901C19.6093 11.2128 20.0347 10.5528 20.416 10.0101C20.6507 9.68745 20.8707 9.45278 21.076 9.30611C21.2813 9.14478 21.4573 9.06411 21.604 9.06411C21.912 9.06411 22.066 9.29878 22.066 9.76811C22.066 10.0468 22 10.3841 21.868 10.7801C21.6773 11.3374 21.4207 11.9754 21.098 12.6941C20.7753 13.3981 20.4747 14.1168 20.196 14.8501C19.9173 15.5688 19.734 16.2434 19.646 16.8741C19.6313 17.0354 19.6167 17.1821 19.602 17.3141C19.602 17.4314 19.602 17.5561 19.602 17.6881C19.602 18.4508 19.756 18.9934 20.064 19.3161C20.372 19.6534 20.7753 19.8221 21.274 19.8221C21.846 19.8221 22.4913 19.6388 23.21 19.2721C23.9433 18.9054 24.6767 18.4214 25.41 17.8201C26.1433 17.2041 26.8033 16.5294 27.39 15.7961C27.9913 15.0628 28.446 14.3294 28.754 13.5961C29.0913 12.7894 29.348 12.0048 29.524 11.2421C29.7 10.4794 29.788 9.78278 29.788 9.15211C29.788 8.14011 29.568 7.31878 29.128 6.68811C28.688 6.04278 27.9987 5.72011 27.06 5.72011C26.9867 5.72011 26.906 5.72745 26.818 5.74211C26.73 5.74211 26.6347 5.74945 26.532 5.76411C26.18 5.85211 25.9233 5.89611 25.762 5.89611C25.5713 5.89611 25.476 5.85211 25.476 5.76411C25.476 5.64678 25.6227 5.51478 25.916 5.36811C26.2093 5.22145 26.5173 5.17745 26.84 5.23611C27.544 5.17745 28.204 5.33878 28.82 5.72011C29.4507 6.08678 29.9567 6.64411 30.338 7.39211C30.7193 8.12545 30.91 9.02011 30.91 10.0761C30.91 10.6188 30.8513 11.2054 30.734 11.8361C30.6167 12.4668 30.4187 13.1268 30.14 13.8161C29.7733 14.7401 29.26 15.5981 28.6 16.3901C27.94 17.1821 27.1993 17.8788 26.378 18.4801C25.5713 19.0814 24.7427 19.5434 23.892 19.8661C23.056 20.2034 22.2713 20.3721 21.538 20.3721C20.702 20.3721 19.998 20.1081 19.426 19.5801C18.8687 19.0668 18.59 18.2308 18.59 17.0721C18.59 16.5881 18.634 16.0968 18.722 15.5981C18.81 15.0994 18.9127 14.6594 19.03 14.2781C18.7807 14.6888 18.4507 15.2021 18.04 15.8181C17.6293 16.4194 17.16 17.0501 16.632 17.7101C16.1187 18.3701 15.5833 18.9861 15.026 19.5581C14.4687 20.1448 13.9113 20.6141 13.354 20.9661C12.7967 21.3328 12.2687 21.5161 11.77 21.5161ZM33.9439 18.7661C33.4013 18.7661 33.0199 18.6121 32.7999 18.3041C32.5799 17.9814 32.4699 17.6148 32.4699 17.2041C32.4699 16.9841 32.4919 16.7641 32.5359 16.5441C32.5946 16.3094 32.6606 16.0968 32.7339 15.9061L34.2079 12.1441C34.2519 12.0268 34.2739 11.9241 34.2739 11.8361C34.2739 11.6894 34.2373 11.5648 34.1639 11.4621C34.0906 11.3448 34.0393 11.2641 34.0099 11.2201L35.2199 11.1761C35.4399 11.1614 35.5939 11.1908 35.6819 11.2641C35.7846 11.3228 35.8359 11.3961 35.8359 11.4841C35.8359 11.5721 35.7846 11.7334 35.6819 11.9681C35.5353 12.3201 35.3373 12.7601 35.0879 13.2881C34.8386 13.8161 34.5893 14.3588 34.3399 14.9161C34.1053 15.4734 33.8999 15.9941 33.7239 16.4781C33.5626 16.9621 33.4819 17.3361 33.4819 17.6001C33.4819 17.7908 33.5259 17.9521 33.6139 18.0841C33.7166 18.2161 33.8853 18.2821 34.1199 18.2821C34.4279 18.2821 34.7286 18.1648 35.0219 17.9301C35.3299 17.6808 35.6159 17.3654 35.8799 16.9841C36.1439 16.6028 36.3859 16.1921 36.6059 15.7521C36.8406 15.3121 37.0386 14.9014 37.1999 14.5201C37.3759 14.5201 37.4639 14.5861 37.4639 14.7181C37.3173 15.0848 37.1266 15.5028 36.8919 15.9721C36.6573 16.4414 36.3859 16.8888 36.0779 17.3141C35.7846 17.7248 35.4546 18.0694 35.0879 18.3481C34.7359 18.6268 34.3546 18.7661 33.9439 18.7661ZM35.9019 9.81211C35.7113 9.81211 35.5426 9.73878 35.3959 9.59211C35.2639 9.44545 35.1979 9.26945 35.1979 9.06411C35.1979 8.81478 35.3006 8.59478 35.5059 8.40411C35.7113 8.19878 35.9386 8.09611 36.1879 8.09611C36.3933 8.09611 36.5693 8.16211 36.7159 8.29411C36.8626 8.42611 36.9359 8.59478 36.9359 8.80011C36.9359 9.06411 36.8333 9.29878 36.6279 9.50411C36.4226 9.70945 36.1806 9.81211 35.9019 9.81211ZM41.0451 20.0421C40.7371 20.3501 40.4218 20.5628 40.0991 20.6801C39.7911 20.8121 39.4904 20.8781 39.1971 20.8781C38.5518 20.8781 38.0971 20.6214 37.8331 20.1081C37.7451 19.9468 37.6791 19.7561 37.6351 19.5361C37.6058 19.3161 37.5911 19.0814 37.5911 18.8321C37.5911 18.2601 37.6644 17.6368 37.8111 16.9621C37.9724 16.2874 38.1558 15.6348 38.3611 15.0041C38.5664 14.3734 38.7571 13.8528 38.9331 13.4421C39.1091 13.0168 39.2998 12.5914 39.5051 12.1661C39.7251 11.7408 39.9158 11.3228 40.0771 10.9121H38.4491C38.4491 10.7948 38.5004 10.6701 38.6031 10.5381C38.7058 10.4061 38.8158 10.3401 38.9331 10.3401H40.3631C40.4804 10.1054 40.6344 9.81211 40.8251 9.46011C41.0158 9.10811 41.2504 8.71945 41.5291 8.29411C41.7784 7.94211 42.0791 7.66345 42.4311 7.45811C42.7978 7.25278 43.1791 7.15011 43.5751 7.15011C43.3551 7.42878 43.1058 7.78078 42.8271 8.20611C42.5631 8.63145 42.3138 9.04211 42.0791 9.43811C41.8591 9.83411 41.6978 10.1348 41.5951 10.3401H42.0791C42.1818 10.3401 42.4018 10.3401 42.7391 10.3401C43.0911 10.3401 43.4724 10.3328 43.8831 10.3181C44.3084 10.2888 44.6898 10.2448 45.0271 10.1861C45.4524 9.30611 45.8924 8.41878 46.3471 7.52411C46.8018 6.61478 47.2491 5.76411 47.6891 4.97211C48.3051 3.84278 48.8991 3.05078 49.4711 2.59611C50.0431 2.12678 50.5344 1.89211 50.9451 1.89211C51.6638 1.89211 52.0231 2.39811 52.0231 3.41011C52.0231 3.89411 51.8691 4.48811 51.5611 5.19211C51.2678 5.89611 50.8498 6.60745 50.3071 7.32611C49.7791 8.04478 49.1484 8.69011 48.4151 9.26211C47.6964 9.83411 46.9118 10.2301 46.0611 10.4501C45.6651 11.3008 45.3278 12.0414 45.0491 12.6721C44.7704 13.3028 44.5944 13.6914 44.5211 13.8381C44.3744 14.1168 44.2351 14.4028 44.1031 14.6961C43.9711 14.9748 43.8318 15.2608 43.6851 15.5541C43.9784 15.1728 44.2791 14.8134 44.5871 14.4761C44.8951 14.1388 45.1958 13.8454 45.4891 13.5961C45.8118 13.3028 46.2151 12.9948 46.6991 12.6721C47.1978 12.3494 47.6891 12.0708 48.1731 11.8361C48.6718 11.6014 49.0678 11.4841 49.3611 11.4841C49.4638 11.4841 49.5371 11.4914 49.5811 11.5061C49.1704 12.3714 48.7964 13.1121 48.4591 13.7281C48.1218 14.3294 47.8358 14.8574 47.6011 15.3121C47.3664 15.7668 47.1831 16.1921 47.0511 16.5881C46.9338 16.9694 46.8751 17.3801 46.8751 17.8201C46.8751 18.0548 46.9191 18.2161 47.0071 18.3041C47.0951 18.3774 47.1904 18.4141 47.2931 18.4141C47.5424 18.4141 47.8138 18.2748 48.1071 17.9961C48.4151 17.7028 48.7084 17.3434 48.9871 16.9181C49.2804 16.4781 49.5444 16.0454 49.7791 15.6201C50.0138 15.1801 50.1898 14.8134 50.3071 14.5201C50.4831 14.5201 50.5711 14.5861 50.5711 14.7181C50.3951 15.1288 50.1824 15.5761 49.9331 16.0601C49.6984 16.5294 49.4271 16.9768 49.1191 17.4021C48.8111 17.8274 48.4738 18.1794 48.1071 18.4581C47.7551 18.7221 47.3738 18.8541 46.9631 18.8541C46.6698 18.8541 46.3691 18.7514 46.0611 18.5461C45.7531 18.3408 45.5991 17.9668 45.5991 17.4241C45.5991 17.2628 45.6138 17.0941 45.6431 16.9181C45.6724 16.7274 45.7238 16.5148 45.7971 16.2801C45.8851 15.9868 46.0318 15.6641 46.2371 15.3121C46.4424 14.9454 46.7064 14.4908 47.0291 13.9481C47.1758 13.6988 47.2491 13.5008 47.2491 13.3541C47.2491 13.1781 47.1611 13.0901 46.9851 13.0901C46.8384 13.0901 46.6404 13.1634 46.3911 13.3101C46.1418 13.4568 45.8264 13.7134 45.4451 14.0801C45.0784 14.4321 44.6238 14.9454 44.0811 15.6201C43.5384 16.2948 42.9591 17.2408 42.3431 18.4581C42.2404 18.6488 42.1231 18.7514 41.9911 18.7661C41.8738 18.7661 41.7124 18.7734 41.5071 18.7881C41.3751 18.8028 41.2431 18.8101 41.1111 18.8101C40.9791 18.8248 40.8691 18.8688 40.7811 18.9421C41.2504 17.9888 41.7198 17.0501 42.1891 16.1261C42.6731 15.1874 43.1351 14.2414 43.5751 13.2881C43.7658 12.8921 43.9564 12.4814 44.1471 12.0561C44.3524 11.6161 44.5651 11.1688 44.7851 10.7141C44.4478 10.7874 44.0664 10.8388 43.6411 10.8681C43.2304 10.8828 42.8564 10.8974 42.5191 10.9121C42.1818 10.9121 41.9618 10.9121 41.8591 10.9121H41.3091C41.1331 11.3228 40.9204 11.7481 40.6711 12.1881C40.4218 12.6281 40.2164 13.0681 40.0551 13.5081C39.9524 13.7868 39.8204 14.1461 39.6591 14.5861C39.4978 15.0261 39.3438 15.5028 39.1971 16.0161C39.0504 16.5294 38.9258 17.0354 38.8231 17.5341C38.7204 18.0328 38.6691 18.4801 38.6691 18.8761C38.6691 19.2134 38.6984 19.4701 38.7571 19.6461C38.9038 20.1301 39.1751 20.3721 39.5711 20.3721C39.7764 20.3721 39.9964 20.3208 40.2311 20.2181C40.4658 20.1154 40.7004 19.9541 40.9351 19.7341C41.0231 19.7341 41.0598 19.7634 41.0451 19.8221C41.0451 19.8954 41.0451 19.9688 41.0451 20.0421ZM50.7691 2.86011C50.5344 2.86011 50.2411 3.07278 49.8891 3.49811C49.5518 3.92345 49.1778 4.48811 48.7671 5.19211C48.3564 5.88145 47.9384 6.64411 47.5131 7.48011C47.1024 8.30145 46.7064 9.10078 46.3251 9.87811C46.9264 9.71678 47.5278 9.40145 48.1291 8.93211C48.7304 8.44811 49.2731 7.89811 49.7571 7.28211C50.2411 6.65145 50.6298 6.03545 50.9231 5.43411C51.2164 4.81811 51.3631 4.29011 51.3631 3.85011C51.3631 3.49811 51.3264 3.24878 51.2531 3.10211C51.1798 2.94078 51.0184 2.86011 50.7691 2.86011ZM57.7653 18.8321C57.2226 18.8321 56.8193 18.6708 56.5553 18.3481C56.3059 18.0108 56.1813 17.6148 56.1813 17.1601C56.1813 16.6908 56.2473 16.2068 56.3793 15.7081C56.5113 15.2094 56.6286 14.7914 56.7313 14.4541C56.9659 13.6328 57.2593 12.7601 57.6113 11.8361C57.9779 10.8974 58.3739 9.98078 58.7993 9.08611C59.2393 8.17678 59.6719 7.36278 60.0973 6.64411C60.4346 6.07211 60.7939 5.64678 61.1753 5.36811C61.5713 5.07478 61.9159 4.92811 62.2093 4.92811C62.4439 4.92811 62.6273 5.01611 62.7593 5.19211C62.9059 5.35345 62.9793 5.60278 62.9793 5.94011C62.9793 6.17478 62.9353 6.45345 62.8473 6.77611C62.7739 7.09878 62.6419 7.46545 62.4513 7.87611C61.9379 9.02011 61.3219 10.1641 60.6033 11.3081C59.8993 12.4521 59.0046 13.5228 57.9193 14.5201C57.7433 14.9308 57.5966 15.3708 57.4793 15.8401C57.3619 16.3094 57.3033 16.6908 57.3033 16.9841C57.3033 17.8934 57.6113 18.3481 58.2273 18.3481C58.6966 18.3481 59.2173 18.0108 59.7893 17.3361C60.3613 16.6468 60.9039 15.7081 61.4173 14.5201C61.4759 14.5201 61.5346 14.5348 61.5933 14.5641C61.6519 14.5788 61.6813 14.6301 61.6813 14.7181C61.5199 15.1141 61.3146 15.5541 61.0653 16.0381C60.8306 16.5074 60.5519 16.9548 60.2293 17.3801C59.9213 17.8054 59.5619 18.1574 59.1513 18.4361C58.7406 18.7001 58.2786 18.8321 57.7653 18.8321ZM58.0953 13.8161C58.6233 13.2734 59.1366 12.6501 59.6353 11.9461C60.1339 11.2274 60.5959 10.4868 61.0213 9.72411C61.4613 8.94678 61.8279 8.21345 62.1213 7.52411C62.2239 7.30411 62.3046 7.06211 62.3633 6.79811C62.4366 6.53411 62.4733 6.31411 62.4733 6.13811C62.4733 5.93278 62.4219 5.83011 62.3193 5.83011C62.2606 5.83011 62.1726 5.88878 62.0553 6.00611C61.9379 6.10878 61.7839 6.29211 61.5933 6.55611C61.3146 6.92278 61.0066 7.42145 60.6693 8.05211C60.3466 8.68278 60.0166 9.35745 59.6793 10.0761C59.3419 10.7948 59.0339 11.4914 58.7553 12.1661C58.4766 12.8261 58.2566 13.3761 58.0953 13.8161ZM64.0549 18.7661C63.4535 18.7661 63.0062 18.5534 62.7129 18.1281C62.4342 17.6881 62.2949 17.1601 62.2949 16.5441C62.2949 15.9721 62.4049 15.3781 62.6249 14.7621C62.8595 14.0874 63.1822 13.4714 63.5929 12.9141C64.0182 12.3568 64.4802 11.9094 64.9789 11.5721C65.4922 11.2201 65.9982 11.0441 66.4969 11.0441C67.0982 11.0441 67.5382 11.2494 67.8169 11.6601C68.1102 12.0708 68.2569 12.5914 68.2569 13.2221C68.2569 13.6621 68.1835 14.1241 68.0369 14.6081C67.8902 15.0921 67.6922 15.5688 67.4429 16.0381C67.6335 16.2288 67.9049 16.3241 68.2569 16.3241C68.6675 16.3241 69.0195 16.1921 69.3129 15.9281C69.6062 15.6641 69.8922 15.1948 70.1709 14.5201C70.3469 14.5201 70.4349 14.5861 70.4349 14.7181C70.1562 15.3928 69.8335 15.8914 69.4669 16.2141C69.1149 16.5221 68.6602 16.6688 68.1029 16.6541C67.7655 16.6541 67.4869 16.5588 67.2669 16.3681C66.8562 17.0428 66.3649 17.6148 65.7929 18.0841C65.2355 18.5388 64.6562 18.7661 64.0549 18.7661ZM64.3629 18.2821C64.7002 18.2821 65.0375 18.1428 65.3749 17.8641C65.7122 17.5708 66.0202 17.2408 66.2989 16.8741C66.5775 16.5074 66.7755 16.1921 66.8929 15.9281C66.6582 15.5028 66.5189 15.1874 66.4749 14.9821C66.4455 14.7621 66.4309 14.6008 66.4309 14.4981C66.4309 14.2194 66.5042 14.0068 66.6509 13.8601C66.7975 13.7134 66.9442 13.6401 67.0909 13.6401C67.2962 13.6401 67.4722 13.7281 67.6189 13.9041C67.6482 13.7428 67.6702 13.5961 67.6849 13.4641C67.6995 13.3174 67.7069 13.1781 67.7069 13.0461C67.7069 12.6648 67.6335 12.3568 67.4869 12.1221C67.3549 11.8728 67.1422 11.7481 66.8489 11.7481C66.5409 11.7481 66.2182 11.8801 65.8809 12.1441C65.5435 12.4081 65.2209 12.7601 64.9129 13.2001C64.6195 13.6401 64.3629 14.1314 64.1429 14.6741C63.9522 15.1288 63.8055 15.5614 63.7029 15.9721C63.6002 16.3681 63.5489 16.7348 63.5489 17.0721C63.5489 17.4388 63.6149 17.7321 63.7469 17.9521C63.8789 18.1721 64.0842 18.2821 64.3629 18.2821ZM72.2145 18.9201C71.7598 18.9201 71.4445 18.8028 71.2685 18.5681C71.0925 18.3334 71.0045 18.0328 71.0045 17.6661C71.0045 17.2848 71.0705 16.8521 71.2025 16.3681C71.3345 15.8841 71.5105 15.3414 71.7305 14.7401C71.5691 14.7401 71.4885 14.6668 71.4885 14.5201C71.6058 14.2268 71.7305 13.8968 71.8625 13.5301C72.0091 13.1488 72.0825 12.7234 72.0825 12.2541C72.0825 12.0194 72.0531 11.8214 71.9945 11.6601C71.9358 11.4988 71.8478 11.4034 71.7305 11.3741C71.7305 11.3741 71.8038 11.3594 71.9505 11.3301C72.1118 11.3008 72.2805 11.2714 72.4565 11.2421C72.6325 11.2128 72.7498 11.1981 72.8085 11.1981C72.8965 11.1834 72.9771 11.1761 73.0505 11.1761C73.1238 11.1614 73.1898 11.1541 73.2485 11.1541C73.3951 11.1541 73.4905 11.2128 73.5345 11.3301C73.5931 11.4474 73.6151 11.7041 73.6005 12.1001C73.5858 12.4668 73.5125 12.9141 73.3805 13.4421C73.2485 13.9554 73.1091 14.4028 72.9625 14.7841C72.7718 15.2828 72.5958 15.7888 72.4345 16.3021C72.2731 16.8154 72.1925 17.2408 72.1925 17.5781C72.1925 17.8714 72.2731 18.0621 72.4345 18.1501C72.5518 18.1941 72.6545 18.2161 72.7425 18.2161C73.0798 18.2161 73.4098 18.0548 73.7325 17.7321C74.0551 17.4094 74.3558 17.0208 74.6345 16.5661C74.9278 16.0968 75.1698 15.6494 75.3605 15.2241C75.2725 14.8868 75.2285 14.4834 75.2285 14.0141C75.2285 13.5154 75.2871 13.0094 75.4045 12.4961C75.5218 11.9828 75.7051 11.5574 75.9545 11.2201C76.2038 10.8681 76.5265 10.6921 76.9225 10.6921C77.2011 10.6921 77.3405 10.8168 77.3405 11.0661C77.3405 11.1248 77.2671 11.3741 77.1205 11.8141C76.9885 12.2541 76.8125 12.7748 76.5925 13.3761C76.3725 13.9774 76.1378 14.5568 75.8885 15.1141C75.8298 15.2314 75.7785 15.3488 75.7345 15.4661C75.7931 15.7154 75.9031 15.9208 76.0645 16.0821C76.2258 16.2288 76.4238 16.3021 76.6585 16.3021C76.9518 16.3021 77.2231 16.1701 77.4725 15.9061C77.7365 15.6274 78.0078 15.1654 78.2865 14.5201C78.4625 14.5201 78.5505 14.5861 78.5505 14.7181C78.3158 15.3048 78.0298 15.7741 77.6925 16.1261C77.3698 16.4781 77.0031 16.6541 76.5925 16.6541C76.0938 16.6541 75.7345 16.3974 75.5145 15.8841C75.2651 16.3974 74.9718 16.8888 74.6345 17.3581C74.2971 17.8128 73.9231 18.1868 73.5125 18.4801C73.1165 18.7734 72.6838 18.9201 72.2145 18.9201ZM81.1815 18.8541C80.6389 18.8541 80.1475 18.6781 79.7075 18.3261C79.2822 17.9741 79.0695 17.4388 79.0695 16.7201C79.0695 16.1188 79.2015 15.4808 79.4655 14.8061C79.7442 14.1314 80.1035 13.5008 80.5435 12.9141C80.9982 12.3128 81.4969 11.8288 82.0395 11.4621C82.5969 11.0808 83.1542 10.8901 83.7115 10.8901C83.9902 10.8901 84.2615 10.9708 84.5255 11.1321C84.7895 11.2934 84.9215 11.5721 84.9215 11.9681C84.9215 12.3348 84.7822 12.7381 84.5035 13.1781C84.2249 13.6181 83.8289 14.0288 83.3155 14.4101C83.0955 14.5714 82.8169 14.7254 82.4795 14.8721C82.1422 15.0188 81.8049 15.1434 81.4675 15.2461C81.1302 15.3341 80.8515 15.3781 80.6315 15.3781C80.5582 15.5541 80.4849 15.7888 80.4115 16.0821C80.3529 16.3754 80.3235 16.6761 80.3235 16.9841C80.3235 17.3508 80.3969 17.6808 80.5435 17.9741C80.6902 18.2674 80.9615 18.4141 81.3575 18.4141C81.8415 18.4141 82.2889 18.2748 82.6995 17.9961C83.1249 17.7174 83.4989 17.3654 83.8215 16.9401C84.1589 16.5148 84.4449 16.0821 84.6795 15.6421C84.9142 15.2021 85.0975 14.8281 85.2295 14.5201C85.4055 14.5201 85.4935 14.5861 85.4935 14.7181C85.3029 15.1288 85.0829 15.5761 84.8335 16.0601C84.5989 16.5441 84.3129 16.9988 83.9755 17.4241C83.6529 17.8348 83.2569 18.1794 82.7875 18.4581C82.3329 18.7221 81.7975 18.8541 81.1815 18.8541ZM80.7855 14.9821C80.9909 14.9821 81.3355 14.9088 81.8195 14.7621C82.3035 14.6008 82.7435 14.3514 83.1395 14.0141C83.5209 13.6768 83.8142 13.3101 84.0195 12.9141C84.2249 12.5034 84.3275 12.1588 84.3275 11.8801C84.3275 11.5574 84.2102 11.3961 83.9755 11.3961C83.7995 11.3961 83.5575 11.5134 83.2495 11.7481C82.9415 11.9828 82.5602 12.3788 82.1055 12.9361C81.8269 13.2881 81.5629 13.6694 81.3135 14.0801C81.0642 14.4908 80.8882 14.7914 80.7855 14.9821ZM86.4804 21.0761C86.3778 21.0761 86.3264 21.0028 86.3264 20.8561C86.8398 20.6948 87.2651 20.4454 87.6024 20.1081C87.9398 19.7708 88.1378 19.3601 88.1964 18.8761C88.1084 18.9348 88.0131 18.9861 87.9104 19.0301C87.8078 19.0888 87.6978 19.1181 87.5804 19.1181C87.3604 19.1181 87.1844 19.0374 87.0524 18.8761C86.9351 18.7294 86.8764 18.5461 86.8764 18.3261C86.8764 17.9741 86.9864 17.7174 87.2064 17.5561C87.4411 17.3801 87.6758 17.2921 87.9104 17.2921C88.2184 17.2921 88.4531 17.3948 88.6144 17.6001C88.7904 17.7908 88.8784 18.0328 88.8784 18.3261C88.8784 18.8101 88.7538 19.2428 88.5044 19.6241C88.2551 20.0054 87.9471 20.3208 87.5804 20.5701C87.2138 20.8194 86.8471 20.9881 86.4804 21.0761ZM123.435 22.8361C122.408 22.8361 121.411 22.5134 120.443 21.8681C119.489 21.2374 118.675 20.1814 118.001 18.7001C117.707 18.0401 117.465 17.3728 117.275 16.6981C117.099 16.0234 116.967 15.3928 116.879 14.8061C116.791 14.2194 116.747 13.7354 116.747 13.3541C116.747 12.8848 116.798 12.6208 116.901 12.5621C117.179 12.5914 117.641 12.4741 118.287 12.2101C118.947 11.9461 119.724 11.5574 120.619 11.0441C121.528 10.5308 122.503 9.91478 123.545 9.19611C124.601 8.46278 125.657 7.64145 126.713 6.73211C127.783 5.82278 128.81 4.84011 129.793 3.78411C130.775 2.72811 131.641 1.62078 132.389 0.462113C132.491 0.300779 132.572 0.183445 132.631 0.110112C132.689 0.0367789 132.748 0.000112295 132.807 0.000112295C132.88 0.000112295 132.946 0.0367789 133.005 0.110112C133.063 0.168779 133.093 0.234779 133.093 0.308112C133.093 0.425446 133.041 0.564779 132.939 0.726112C132.235 1.89945 131.399 3.05078 130.431 4.18011C129.477 5.29478 128.458 6.34345 127.373 7.32611C126.287 8.30878 125.195 9.19611 124.095 9.98811C122.995 10.7801 121.946 11.4401 120.949 11.9681C119.951 12.4961 119.071 12.8554 118.309 13.0461C118.265 13.0168 118.243 13.0901 118.243 13.2661C118.243 13.5154 118.294 13.9188 118.397 14.4761C118.499 15.0188 118.653 15.6421 118.859 16.3461C119.079 17.0354 119.343 17.7394 119.651 18.4581C120.208 19.7634 120.861 20.6581 121.609 21.1421C122.371 21.6408 123.156 21.8901 123.963 21.8901C124.476 21.8901 125.004 21.7874 125.547 21.5821C126.089 21.3768 126.588 21.0908 127.043 20.7241C127.497 20.3721 127.849 19.9541 128.099 19.4701C128.187 19.3234 128.253 19.2501 128.297 19.2501C128.399 19.2501 128.451 19.3088 128.451 19.4261C128.451 19.4701 128.436 19.5141 128.407 19.5581C128.392 19.6168 128.348 19.7268 128.275 19.8881C128.069 20.2988 127.725 20.7314 127.241 21.1861C126.771 21.6554 126.207 22.0441 125.547 22.3521C124.901 22.6748 124.197 22.8361 123.435 22.8361ZM104.757 22.5501C103.759 22.5501 102.791 22.4108 101.853 22.1321C100.929 21.8681 100.093 21.4721 99.3448 20.9441C98.6114 20.4161 98.0248 19.7708 97.5848 19.0081C97.1594 18.2454 96.9468 17.3801 96.9468 16.4121C96.9468 15.7081 97.0494 15.0848 97.2548 14.5421C97.4748 13.9848 97.7388 13.5228 98.0468 13.1561C98.3694 12.7894 98.6848 12.5108 98.9928 12.3201C99.3154 12.1294 99.5794 12.0341 99.7848 12.0341C99.9314 12.0341 100.005 12.0781 100.005 12.1661C100.005 12.2394 99.9681 12.2981 99.8948 12.3421C99.5574 12.5181 99.2128 12.7748 98.8608 13.1121C98.5088 13.4494 98.2154 13.8894 97.9808 14.4321C97.7461 14.9748 97.6288 15.6494 97.6288 16.4561C97.6288 17.3361 97.8121 18.0914 98.1788 18.7221C98.5601 19.3381 99.0514 19.8441 99.6528 20.2401C100.269 20.6361 100.929 20.9221 101.633 21.0981C102.337 21.2888 103.011 21.3841 103.657 21.3841C105.094 21.3841 106.436 21.1054 107.683 20.5481C108.929 19.9908 110.066 19.2501 111.093 18.3261C112.134 17.3874 113.051 16.3461 113.843 15.2021C114.635 14.0581 115.287 12.8994 115.801 11.7261C115.991 11.3008 116.219 10.7948 116.483 10.2081C116.747 9.60678 117.033 8.96878 117.341 8.29411C117.649 7.61945 117.949 6.95945 118.243 6.31411C118.536 5.66878 118.8 5.08945 119.035 4.57611C119.284 4.04811 119.482 3.64478 119.629 3.36611C118.646 3.48345 117.583 3.59345 116.439 3.69611C115.309 3.78411 114.231 3.97478 113.205 4.26811C112.061 4.59078 111.122 5.06011 110.389 5.67611C109.67 6.29211 109.135 6.95945 108.783 7.67811C108.445 8.39678 108.277 9.07145 108.277 9.70211C108.277 10.4648 108.467 11.0954 108.849 11.5941C109.23 12.0781 109.78 12.3201 110.499 12.3201C111.041 12.3201 111.525 12.1661 111.951 11.8581C112.376 11.5354 112.713 11.1248 112.963 10.6261C113.212 10.1128 113.337 9.57011 113.337 8.99811C113.337 8.76345 113.315 8.56545 113.271 8.40411C113.227 8.24278 113.205 8.11811 113.205 8.03011C113.205 7.92745 113.241 7.87611 113.315 7.87611C113.417 7.87611 113.513 7.96411 113.601 8.14011C113.747 8.47745 113.821 8.80745 113.821 9.13011C113.821 9.81945 113.652 10.4428 113.315 11.0001C112.977 11.5428 112.545 11.9754 112.017 12.2981C111.489 12.6208 110.931 12.7821 110.345 12.7821C109.655 12.7821 109.054 12.6208 108.541 12.2981C108.042 11.9608 107.653 11.5208 107.375 10.9781C107.096 10.4354 106.957 9.84878 106.957 9.21811C106.957 8.49945 107.155 7.77345 107.551 7.04011C107.947 6.29211 108.585 5.61745 109.465 5.01611C110.345 4.40011 111.503 3.93078 112.941 3.60811C114.143 3.34411 115.368 3.17545 116.615 3.10211C117.861 3.01411 118.961 2.92611 119.915 2.83811C120.428 2.04611 120.846 1.54745 121.169 1.34211C121.491 1.12211 121.785 1.01211 122.049 1.01211C122.313 1.01211 122.518 1.08545 122.665 1.23211C122.826 1.37878 122.907 1.55478 122.907 1.76011C122.907 2.05345 122.701 2.36878 122.291 2.70611C121.895 3.02878 121.22 3.24145 120.267 3.34411C119.797 4.20945 119.365 5.17745 118.969 6.24811C118.573 7.30411 118.177 8.41145 117.781 9.57011C117.385 10.7288 116.952 11.8801 116.483 13.0241C115.691 14.9308 114.752 16.6028 113.667 18.0401C112.581 19.4628 111.305 20.5701 109.839 21.3621C108.372 22.1541 106.678 22.5501 104.757 22.5501ZM120.685 2.79411C121.051 2.76478 121.403 2.66211 121.741 2.48611C122.078 2.29545 122.247 2.09011 122.247 1.87011C122.247 1.72345 122.173 1.65011 122.027 1.65011C121.895 1.65011 121.711 1.73811 121.477 1.91411C121.242 2.07545 120.978 2.36878 120.685 2.79411ZM130.064 18.8321C129.726 18.8321 129.426 18.7368 129.162 18.5461C128.912 18.3554 128.788 17.9668 128.788 17.3801C128.788 17.1308 128.802 16.8961 128.832 16.6761C128.876 16.4561 128.927 16.2214 128.986 15.9721C128.854 16.1921 128.67 16.4634 128.436 16.7861C128.201 17.1088 127.937 17.4241 127.644 17.7321C127.365 18.0401 127.072 18.2968 126.764 18.5021C126.47 18.7074 126.192 18.8101 125.928 18.8101C125.546 18.8101 125.238 18.6414 125.004 18.3041C124.769 17.9521 124.652 17.4974 124.652 16.9401C124.652 16.3388 124.791 15.6934 125.07 15.0041C125.348 14.3148 125.73 13.6548 126.214 13.0241C126.698 12.3934 127.255 11.8801 127.886 11.4841C128.516 11.0881 129.176 10.8901 129.866 10.8901C130.203 10.8901 130.526 10.9488 130.834 11.0661C131.142 11.1688 131.413 11.3448 131.648 11.5941C131.75 11.6968 131.802 11.8141 131.802 11.9461C131.802 12.0341 131.765 12.1074 131.692 12.1661C131.618 12.2248 131.523 12.2394 131.406 12.2101C131.244 11.6968 130.9 11.4401 130.372 11.4401C130.122 11.4401 129.836 11.5208 129.514 11.6821C129.118 11.8874 128.692 12.2174 128.238 12.6721C127.798 13.1121 127.38 13.6181 126.984 14.1901C126.602 14.7474 126.287 15.3121 126.038 15.8841C125.788 16.4561 125.664 16.9768 125.664 17.4461C125.664 17.9301 125.847 18.1721 126.214 18.1721C126.536 18.1721 126.866 18.0181 127.204 17.7101C127.556 17.4021 127.886 17.0208 128.194 16.5661C128.516 16.0968 128.81 15.6348 129.074 15.1801C129.338 14.7254 129.543 14.3588 129.69 14.0801C129.91 13.6841 130.115 13.3541 130.306 13.0901C130.496 12.8261 130.768 12.6941 131.12 12.6941C131.281 12.6941 131.442 12.7161 131.604 12.7601C131.765 12.8041 131.934 12.8114 132.11 12.7821C131.67 13.2221 131.281 13.7428 130.944 14.3441C130.621 14.9454 130.372 15.5394 130.196 16.1261C130.02 16.6981 129.932 17.1821 129.932 17.5781C129.932 18.0181 130.078 18.2381 130.372 18.2381C130.606 18.2381 130.856 18.1061 131.12 17.8421C131.398 17.5781 131.662 17.2481 131.912 16.8521C132.176 16.4414 132.418 16.0308 132.638 15.6201C132.858 15.1948 133.034 14.8281 133.166 14.5201C133.239 14.5201 133.298 14.5274 133.342 14.5421C133.4 14.5568 133.43 14.6154 133.43 14.7181C133.415 14.7768 133.386 14.8428 133.342 14.9161C133.312 14.9748 133.261 15.0848 133.188 15.2461C133.07 15.4808 132.909 15.7961 132.704 16.1921C132.498 16.5881 132.256 16.9914 131.978 17.4021C131.699 17.7981 131.398 18.1354 131.076 18.4141C130.753 18.6928 130.416 18.8321 130.064 18.8321ZM139.048 7.15011C138.858 7.42878 138.645 7.78078 138.41 8.20611C138.176 8.63145 137.956 9.04211 137.75 9.43811C137.56 9.83411 137.413 10.1348 137.31 10.3401H139.334C139.334 10.3988 139.305 10.4941 139.246 10.6261C139.202 10.7581 139.107 10.8534 138.96 10.9121H137.046C136.87 11.3081 136.665 11.7848 136.43 12.3421C136.21 12.8994 135.99 13.4788 135.77 14.0801C135.565 14.6814 135.389 15.2461 135.242 15.7741C135.11 16.2874 135.044 16.7054 135.044 17.0281C135.044 17.4681 135.103 17.7981 135.22 18.0181C135.338 18.2234 135.55 18.3261 135.858 18.3261C136.254 18.3261 136.636 18.1354 137.002 17.7541C137.369 17.3581 137.714 16.8668 138.036 16.2801C138.374 15.6934 138.667 15.1068 138.916 14.5201C139.092 14.5201 139.18 14.5861 139.18 14.7181C139.019 15.1141 138.821 15.5468 138.586 16.0161C138.352 16.4854 138.08 16.9401 137.772 17.3801C137.479 17.8054 137.142 18.1574 136.76 18.4361C136.394 18.7001 135.983 18.8321 135.528 18.8321C134.912 18.8321 134.494 18.6634 134.274 18.3261C134.054 17.9741 133.944 17.5268 133.944 16.9841C133.944 16.5881 134.018 16.1114 134.164 15.5541C134.311 14.9821 134.487 14.3954 134.692 13.7941C134.912 13.1928 135.125 12.6354 135.33 12.1221C135.536 11.5941 135.697 11.1908 135.814 10.9121H134.406C134.406 10.7948 134.458 10.6701 134.56 10.5381C134.663 10.4061 134.773 10.3401 134.89 10.3401H136.056C136.174 10.1054 136.306 9.81211 136.452 9.46011C136.614 9.10811 136.826 8.71945 137.09 8.29411C137.31 7.94211 137.589 7.66345 137.926 7.45811C138.278 7.25278 138.652 7.15011 139.048 7.15011ZM137.204 25.7841C136.442 25.7841 135.899 25.6301 135.576 25.3221C135.254 25.0288 135.092 24.6768 135.092 24.2661C135.092 23.6354 135.327 23.0488 135.796 22.5061C136.251 21.9781 136.816 21.5528 137.49 21.2301C138.253 20.8781 139.118 20.5921 140.086 20.3721C141.069 20.1521 142.008 19.9101 142.902 19.6461C143.181 19.1621 143.438 18.6121 143.672 17.9961C143.907 17.3654 144.12 16.7568 144.31 16.1701C144.501 15.5688 144.655 15.0774 144.772 14.6961C144.596 15.0188 144.369 15.4148 144.09 15.8841C143.826 16.3388 143.526 16.7861 143.188 17.2261C142.851 17.6661 142.484 18.0328 142.088 18.3261C141.707 18.6194 141.304 18.7661 140.878 18.7661C140.717 18.7661 140.519 18.7294 140.284 18.6561C140.064 18.5828 139.866 18.4508 139.69 18.2601C139.529 18.0548 139.448 17.7541 139.448 17.3581C139.448 16.9768 139.566 16.5588 139.8 16.1041C140.035 15.6348 140.27 15.1728 140.504 14.7181C140.431 14.7181 140.365 14.7108 140.306 14.6961C140.262 14.6814 140.24 14.6228 140.24 14.5201C140.284 14.4321 140.372 14.2414 140.504 13.9481C140.636 13.6548 140.783 13.3321 140.944 12.9801C141.12 12.6281 141.274 12.3201 141.406 12.0561C141.568 11.7188 141.744 11.4841 141.934 11.3521C142.14 11.2201 142.338 11.1541 142.528 11.1541H143.892C143.79 11.2421 143.658 11.3448 143.496 11.4621C143.35 11.5648 143.21 11.7261 143.078 11.9461C142.682 12.6208 142.338 13.2734 142.044 13.9041C141.751 14.5201 141.436 15.1801 141.098 15.8841C140.937 16.2214 140.82 16.5294 140.746 16.8081C140.673 17.0868 140.636 17.3288 140.636 17.5341C140.636 18.0181 140.798 18.2601 141.12 18.2601C141.472 18.2601 141.898 17.9741 142.396 17.4021C142.807 16.9181 143.218 16.3461 143.628 15.6861C144.054 15.0114 144.457 14.3221 144.838 13.6181C145.234 12.8994 145.579 12.2394 145.872 11.6381C146.034 11.3154 146.32 11.1541 146.73 11.1541H147.94C147.515 11.4474 147.185 11.8288 146.95 12.2981C146.73 12.7674 146.481 13.3688 146.202 14.1021C145.894 14.9088 145.601 15.7448 145.322 16.6101C145.044 17.4754 144.736 18.3628 144.398 19.2721C145.117 19.0228 145.718 18.7001 146.202 18.3041C146.686 17.9081 147.112 17.4021 147.478 16.7861C147.86 16.1554 148.241 15.4001 148.622 14.5201C148.798 14.5201 148.886 14.5861 148.886 14.7181C148.564 15.3928 148.27 15.9868 148.006 16.5001C147.742 17.0134 147.449 17.4681 147.126 17.8641C146.804 18.2454 146.4 18.5974 145.916 18.9201C145.432 19.2574 144.809 19.5801 144.046 19.8881C143.694 20.5188 143.291 21.1714 142.836 21.8461C142.396 22.5354 141.89 23.1734 141.318 23.7601C140.761 24.3614 140.138 24.8454 139.448 25.2121C138.774 25.5934 138.026 25.7841 137.204 25.7841ZM136.676 25.3441C137.16 25.3441 137.659 25.1974 138.172 24.9041C138.686 24.6108 139.184 24.2368 139.668 23.7821C140.152 23.3421 140.592 22.8874 140.988 22.4181C141.399 21.9634 141.729 21.5601 141.978 21.2081C142.052 21.1054 142.132 20.9734 142.22 20.8121C142.308 20.6508 142.396 20.4968 142.484 20.3501C141.766 20.5408 140.974 20.7461 140.108 20.9661C139.258 21.2008 138.517 21.4574 137.886 21.7361C137.182 22.0294 136.632 22.4474 136.236 22.9901C135.826 23.5328 135.62 24.0168 135.62 24.4421C135.62 24.7061 135.708 24.9188 135.884 25.0801C136.046 25.2561 136.31 25.3441 136.676 25.3441ZM154.713 18.8321C154.376 18.8321 154.075 18.7368 153.811 18.5461C153.562 18.3554 153.437 17.9668 153.437 17.3801C153.437 17.1308 153.452 16.8961 153.481 16.6761C153.525 16.4561 153.576 16.2214 153.635 15.9721C153.503 16.1921 153.32 16.4634 153.085 16.7861C152.85 17.1088 152.586 17.4241 152.293 17.7321C152.014 18.0401 151.721 18.2968 151.413 18.5021C151.12 18.7074 150.841 18.8101 150.577 18.8101C150.196 18.8101 149.888 18.6414 149.653 18.3041C149.418 17.9521 149.301 17.4974 149.301 16.9401C149.301 16.3388 149.44 15.6934 149.719 15.0041C149.998 14.3148 150.379 13.6548 150.863 13.0241C151.347 12.3934 151.904 11.8801 152.535 11.4841C153.166 11.0881 153.826 10.8901 154.515 10.8901C154.852 10.8901 155.175 10.9488 155.483 11.0661C155.791 11.1688 156.062 11.3448 156.297 11.5941C156.4 11.6968 156.451 11.8141 156.451 11.9461C156.451 12.0341 156.414 12.1074 156.341 12.1661C156.268 12.2248 156.172 12.2394 156.055 12.2101C155.894 11.6968 155.549 11.4401 155.021 11.4401C154.772 11.4401 154.486 11.5208 154.163 11.6821C153.767 11.8874 153.342 12.2174 152.887 12.6721C152.447 13.1121 152.029 13.6181 151.633 14.1901C151.252 14.7474 150.936 15.3121 150.687 15.8841C150.438 16.4561 150.313 16.9768 150.313 17.4461C150.313 17.9301 150.496 18.1721 150.863 18.1721C151.186 18.1721 151.516 18.0181 151.853 17.7101C152.205 17.4021 152.535 17.0208 152.843 16.5661C153.166 16.0968 153.459 15.6348 153.723 15.1801C153.987 14.7254 154.192 14.3588 154.339 14.0801C154.559 13.6841 154.764 13.3541 154.955 13.0901C155.146 12.8261 155.417 12.6941 155.769 12.6941C155.93 12.6941 156.092 12.7161 156.253 12.7601C156.414 12.8041 156.583 12.8114 156.759 12.7821C156.319 13.2221 155.93 13.7428 155.593 14.3441C155.27 14.9454 155.021 15.5394 154.845 16.1261C154.669 16.6981 154.581 17.1821 154.581 17.5781C154.581 18.0181 154.728 18.2381 155.021 18.2381C155.256 18.2381 155.505 18.1061 155.769 17.8421C156.048 17.5781 156.312 17.2481 156.561 16.8521C156.825 16.4414 157.067 16.0308 157.287 15.6201C157.507 15.1948 157.683 14.8281 157.815 14.5201C157.888 14.5201 157.947 14.5274 157.991 14.5421C158.05 14.5568 158.079 14.6154 158.079 14.7181C158.064 14.7768 158.035 14.8428 157.991 14.9161C157.962 14.9748 157.91 15.0848 157.837 15.2461C157.72 15.4808 157.558 15.7961 157.353 16.1921C157.148 16.5881 156.906 16.9914 156.627 17.4021C156.348 17.7981 156.048 18.1354 155.725 18.4141C155.402 18.6928 155.065 18.8321 154.713 18.8321ZM168.998 18.8321C168.66 18.8321 168.36 18.7368 168.096 18.5461C167.846 18.3554 167.722 17.9668 167.722 17.3801C167.722 17.1308 167.736 16.8961 167.766 16.6761C167.81 16.4561 167.861 16.2214 167.92 15.9721C167.788 16.1921 167.604 16.4634 167.37 16.7861C167.135 17.1088 166.871 17.4241 166.578 17.7321C166.299 18.0401 166.006 18.2968 165.698 18.5021C165.404 18.7074 165.126 18.8101 164.862 18.8101C164.48 18.8101 164.172 18.6414 163.938 18.3041C163.703 17.9521 163.586 17.4974 163.586 16.9401C163.586 16.3388 163.725 15.6934 164.004 15.0041C164.282 14.3148 164.664 13.6548 165.148 13.0241C165.632 12.3934 166.189 11.8801 166.82 11.4841C167.45 11.0881 168.11 10.8901 168.8 10.8901C169.137 10.8901 169.46 10.9488 169.768 11.0661C170.076 11.1688 170.347 11.3448 170.582 11.5941C170.684 11.6968 170.736 11.8141 170.736 11.9461C170.736 12.0341 170.699 12.1074 170.626 12.1661C170.552 12.2248 170.457 12.2394 170.34 12.2101C170.178 11.6968 169.834 11.4401 169.306 11.4401C169.056 11.4401 168.77 11.5208 168.448 11.6821C168.052 11.8874 167.626 12.2174 167.172 12.6721C166.732 13.1121 166.314 13.6181 165.918 14.1901C165.536 14.7474 165.221 15.3121 164.972 15.8841C164.722 16.4561 164.598 16.9768 164.598 17.4461C164.598 17.9301 164.781 18.1721 165.148 18.1721C165.47 18.1721 165.8 18.0181 166.138 17.7101C166.49 17.4021 166.82 17.0208 167.128 16.5661C167.45 16.0968 167.744 15.6348 168.008 15.1801C168.272 14.7254 168.477 14.3588 168.624 14.0801C168.844 13.6841 169.049 13.3541 169.24 13.0901C169.43 12.8261 169.702 12.6941 170.054 12.6941C170.215 12.6941 170.376 12.7161 170.538 12.7601C170.699 12.8041 170.868 12.8114 171.044 12.7821C170.604 13.2221 170.215 13.7428 169.878 14.3441C169.555 14.9454 169.306 15.5394 169.13 16.1261C168.954 16.6981 168.866 17.1821 168.866 17.5781C168.866 18.0181 169.012 18.2381 169.306 18.2381C169.54 18.2381 169.79 18.1061 170.054 17.8421C170.332 17.5781 170.596 17.2481 170.846 16.8521C171.11 16.4414 171.352 16.0308 171.572 15.6201C171.792 15.1948 171.968 14.8281 172.1 14.5201C172.173 14.5201 172.232 14.5274 172.276 14.5421C172.334 14.5568 172.364 14.6154 172.364 14.7181C172.349 14.7768 172.32 14.8428 172.276 14.9161C172.246 14.9748 172.195 15.0848 172.122 15.2461C172.004 15.4808 171.843 15.7961 171.638 16.1921C171.432 16.5881 171.19 16.9914 170.912 17.4021C170.633 17.7981 170.332 18.1354 170.01 18.4141C169.687 18.6928 169.35 18.8321 168.998 18.8321ZM171.316 18.9421C171.844 17.8714 172.35 16.8154 172.834 15.7741C173.318 14.7181 173.817 13.7134 174.33 12.7601C174.624 12.2321 174.873 11.8654 175.078 11.6601C175.284 11.4401 175.555 11.3301 175.892 11.3301C176.01 11.3301 176.134 11.3521 176.266 11.3961C176.398 11.4254 176.53 11.4401 176.662 11.4401C176.75 11.4401 176.816 11.4328 176.86 11.4181C176.655 11.5354 176.384 11.8288 176.046 12.2981C175.724 12.7528 175.394 13.2808 175.056 13.8821C174.719 14.4834 174.418 15.0481 174.154 15.5761C174.433 15.2388 174.726 14.9014 175.034 14.5641C175.342 14.2268 175.68 13.9041 176.046 13.5961C176.398 13.2881 176.816 12.9728 177.3 12.6501C177.799 12.3128 178.283 12.0341 178.752 11.8141C179.222 11.5941 179.596 11.4841 179.874 11.4841C179.977 11.4841 180.05 11.4914 180.094 11.5061C180.094 11.5061 180.014 11.6528 179.852 11.9461C179.691 12.2248 179.486 12.5988 179.236 13.0681C179.002 13.5228 178.76 14.0141 178.51 14.5421C178.261 15.0554 178.034 15.5541 177.828 16.0381C177.638 16.5074 177.513 16.9034 177.454 17.2261C177.41 17.4168 177.388 17.5928 177.388 17.7541C177.388 17.9888 177.432 18.1428 177.52 18.2161C177.608 18.2894 177.704 18.3261 177.806 18.3261C178.085 18.3261 178.371 18.2014 178.664 17.9521C178.958 17.7028 179.236 17.3874 179.5 17.0061C179.779 16.6101 180.036 16.1921 180.27 15.7521C180.505 15.3121 180.703 14.9014 180.864 14.5201C181.04 14.5201 181.128 14.5861 181.128 14.7181C180.967 15.1141 180.762 15.5541 180.512 16.0381C180.278 16.5074 180.006 16.9548 179.698 17.3801C179.405 17.8054 179.075 18.1574 178.708 18.4361C178.342 18.7148 177.946 18.8541 177.52 18.8541C177.227 18.8541 176.919 18.7514 176.596 18.5461C176.288 18.3408 176.134 17.9594 176.134 17.4021C176.134 17.2408 176.149 17.0721 176.178 16.8961C176.208 16.7054 176.259 16.5001 176.332 16.2801C176.45 15.9868 176.589 15.6714 176.75 15.3341C176.912 14.9968 177.176 14.5348 177.542 13.9481C177.645 13.7868 177.704 13.6621 177.718 13.5741C177.748 13.4861 177.762 13.4128 177.762 13.3541C177.762 13.1781 177.682 13.0901 177.52 13.0901C177.388 13.0901 177.19 13.1634 176.926 13.3101C176.677 13.4568 176.362 13.7134 175.98 14.0801C175.614 14.4321 175.174 14.9308 174.66 15.5761C174.162 16.2214 173.582 17.1748 172.922 18.4361C172.82 18.6268 172.702 18.7294 172.57 18.7441C172.453 18.7588 172.284 18.7734 172.064 18.7881C171.918 18.8028 171.778 18.8101 171.646 18.8101C171.514 18.8248 171.404 18.8688 171.316 18.9421ZM187.22 18.7661C186.721 18.7661 186.355 18.5974 186.12 18.2601C185.885 17.9228 185.768 17.5268 185.768 17.0721C185.768 16.9401 185.775 16.8081 185.79 16.6761C185.805 16.5294 185.834 16.3828 185.878 16.2361C185.673 16.5588 185.431 16.9181 185.152 17.3141C184.888 17.6954 184.58 18.0328 184.228 18.3261C183.891 18.6048 183.509 18.7441 183.084 18.7441C182.893 18.7441 182.673 18.7001 182.424 18.6121C182.189 18.5241 181.977 18.3554 181.786 18.1061C181.61 17.8568 181.522 17.4901 181.522 17.0061C181.522 16.3754 181.661 15.7081 181.94 15.0041C182.219 14.3001 182.6 13.6401 183.084 13.0241C183.568 12.3934 184.118 11.8874 184.734 11.5061C185.35 11.1101 185.988 10.9121 186.648 10.9121C187.176 10.9121 187.675 11.0514 188.144 11.3301C188.364 10.9194 188.599 10.4648 188.848 9.96611C189.097 9.45278 189.347 8.94678 189.596 8.44811C189.845 7.94945 190.065 7.49478 190.256 7.08411C190.447 6.65878 190.593 6.33611 190.696 6.11611C190.916 5.60278 191.121 5.28011 191.312 5.14811C191.517 5.00145 191.759 4.92811 192.038 4.92811C192.199 4.92811 192.375 4.95011 192.566 4.99411C192.771 5.02345 192.969 5.03078 193.16 5.01611C193.087 5.08945 192.918 5.33145 192.654 5.74211C192.39 6.15278 192.067 6.68811 191.686 7.34811C191.305 7.99345 190.894 8.70478 190.454 9.48211C190.029 10.2594 189.603 11.0588 189.178 11.8801C188.767 12.6868 188.386 13.4641 188.034 14.2121C187.682 14.9601 187.403 15.6201 187.198 16.1921C186.993 16.7641 186.89 17.1968 186.89 17.4901C186.89 17.6808 186.934 17.8494 187.022 17.9961C187.11 18.1281 187.257 18.1941 187.462 18.1941C187.741 18.1941 188.027 18.0548 188.32 17.7761C188.613 17.4974 188.892 17.1528 189.156 16.7421C189.435 16.3168 189.677 15.9061 189.882 15.5101C190.102 15.0994 190.263 14.7694 190.366 14.5201C190.542 14.5201 190.63 14.5861 190.63 14.7181C190.498 15.0261 190.322 15.4074 190.102 15.8621C189.882 16.3168 189.625 16.7641 189.332 17.2041C189.039 17.6441 188.709 18.0181 188.342 18.3261C187.99 18.6194 187.616 18.7661 187.22 18.7661ZM183.238 18.1061C183.443 18.1061 183.7 17.9961 184.008 17.7761C184.316 17.5414 184.646 17.1748 184.998 16.6761C185.409 16.0894 185.878 15.3561 186.406 14.4761C186.934 13.5961 187.455 12.6648 187.968 11.6821C187.865 11.5941 187.755 11.5281 187.638 11.4841C187.521 11.4401 187.359 11.4181 187.154 11.4181C186.817 11.4181 186.443 11.5648 186.032 11.8581C185.636 12.1368 185.233 12.5034 184.822 12.9581C184.426 13.4128 184.059 13.9041 183.722 14.4321C183.399 14.9601 183.135 15.4734 182.93 15.9721C182.739 16.4561 182.644 16.8741 182.644 17.2261C182.644 17.8128 182.842 18.1061 183.238 18.1061ZM207.459 20.1741C206.814 20.1741 206.359 19.9174 206.095 19.4041C205.831 18.9054 205.699 18.3188 205.699 17.6441C205.699 17.0428 205.78 16.4488 205.941 15.8621C206.117 15.2754 206.323 14.8281 206.557 14.5201C206.161 14.9894 205.67 15.5248 205.083 16.1261C204.497 16.7274 203.851 17.3068 203.147 17.8641C202.443 18.4214 201.717 18.8834 200.969 19.2501C200.221 19.6168 199.481 19.8001 198.747 19.8001C197.779 19.8001 197.053 19.4921 196.569 18.8761C196.1 18.2601 195.865 17.4168 195.865 16.3461C195.865 15.5101 196.005 14.6154 196.283 13.6621C196.577 12.6941 197.002 11.7114 197.559 10.7141C197.823 10.2301 198.117 9.75345 198.439 9.28411C198.777 8.80011 199.136 8.34545 199.517 7.92011C199.063 7.70011 198.623 7.45811 198.197 7.19411C197.772 6.91545 197.427 6.58545 197.163 6.20411C196.899 5.82278 196.767 5.36811 196.767 4.84011C196.767 4.56145 196.826 4.31211 196.943 4.09211C197.075 3.85745 197.215 3.74011 197.361 3.74011C197.493 3.74011 197.559 3.82078 197.559 3.98211C197.559 4.08478 197.53 4.19478 197.471 4.31211C197.398 4.50278 197.361 4.67878 197.361 4.84011C197.361 5.23611 197.501 5.61011 197.779 5.96211C198.058 6.29945 198.395 6.59278 198.791 6.84211C199.187 7.09145 199.554 7.28945 199.891 7.43611C200.83 6.40945 201.857 5.46345 202.971 4.59811C204.101 3.71811 205.311 3.01411 206.601 2.48611C207.892 1.95811 209.249 1.69411 210.671 1.69411C211.859 1.69411 212.791 1.95811 213.465 2.48611C214.14 2.99945 214.477 3.66678 214.477 4.48811C214.477 5.22145 214.265 5.85211 213.839 6.38011C213.429 6.89345 212.886 7.32611 212.211 7.67811C211.537 8.01545 210.803 8.28678 210.011 8.49211C209.234 8.68278 208.464 8.82211 207.701 8.91011C206.939 8.98345 206.271 9.02011 205.699 9.02011C204.863 9.02011 204.049 8.96878 203.257 8.86611C202.48 8.76345 201.703 8.60211 200.925 8.38211C200.544 8.92478 200.126 9.55545 199.671 10.2741C199.231 10.9781 198.806 11.7261 198.395 12.5181C197.999 13.2954 197.669 14.0728 197.405 14.8501C197.156 15.6128 197.031 16.3241 197.031 16.9841C197.031 17.7028 197.2 18.2454 197.537 18.6121C197.875 18.9641 198.329 19.1401 198.901 19.1401C199.591 19.1401 200.317 18.9348 201.079 18.5241C201.857 18.0988 202.634 17.5488 203.411 16.8741C204.189 16.1994 204.929 15.4661 205.633 14.6741C206.337 13.8821 206.968 13.0974 207.525 12.3201C208.083 11.5428 208.523 10.8534 208.845 10.2521C209.095 9.78278 209.337 9.45278 209.571 9.26211C209.806 9.05678 210.004 8.95411 210.165 8.95411C210.327 8.95411 210.451 9.02011 210.539 9.15211C210.627 9.26945 210.671 9.43078 210.671 9.63611C210.671 10.0468 210.488 10.4574 210.121 10.8681C209.623 11.4401 209.139 12.1368 208.669 12.9581C208.2 13.7648 207.819 14.6154 207.525 15.5101C207.232 16.3901 207.085 17.2188 207.085 17.9961C207.085 18.5388 207.166 18.9274 207.327 19.1621C207.503 19.3968 207.731 19.5141 208.009 19.5141C208.435 19.5141 208.86 19.3674 209.285 19.0741C209.725 18.7954 210.143 18.4141 210.539 17.9301C210.935 17.4461 211.302 16.9108 211.639 16.3241C211.977 15.7228 212.27 15.1214 212.519 14.5201C212.593 14.5201 212.651 14.5274 212.695 14.5421C212.754 14.5568 212.783 14.6154 212.783 14.7181C212.534 15.3488 212.233 15.9868 211.881 16.6321C211.544 17.2774 211.155 17.8714 210.715 18.4141C210.275 18.9421 209.784 19.3674 209.241 19.6901C208.699 20.0128 208.105 20.1741 207.459 20.1741ZM205.501 8.49211C206.088 8.49211 206.741 8.46278 207.459 8.40411C208.178 8.33078 208.889 8.20611 209.593 8.03011C210.312 7.85411 210.972 7.60478 211.573 7.28211C212.175 6.95945 212.659 6.54878 213.025 6.05011C213.392 5.55145 213.575 4.94278 213.575 4.22411C213.575 3.57878 213.304 3.08745 212.761 2.75011C212.233 2.41278 211.559 2.24411 210.737 2.24411C209.373 2.24411 208.127 2.51545 206.997 3.05811C205.883 3.58611 204.856 4.28278 203.917 5.14811C202.993 6.01345 202.113 6.94478 201.277 7.94211C201.923 8.13278 202.583 8.27211 203.257 8.36011C203.947 8.44811 204.695 8.49211 205.501 8.49211ZM213.857 14.4541C213.975 14.2048 214.129 13.8088 214.319 13.2661C214.51 12.7088 214.708 12.0928 214.913 11.4181C215.119 10.7434 215.273 10.1054 215.375 9.50411C215.419 9.26945 215.5 9.10078 215.617 8.99811C215.735 8.88078 215.859 8.82211 215.991 8.82211C216.182 8.82211 216.358 8.91745 216.519 9.10811C216.681 9.28411 216.761 9.54078 216.761 9.87811C216.761 10.2888 216.637 10.6408 216.387 10.9341C216.153 11.2274 215.859 11.5061 215.507 11.7701C215.654 11.7848 215.808 11.7994 215.969 11.8141C216.131 11.8141 216.307 11.8141 216.497 11.8141C217.187 11.8141 217.869 11.7701 218.543 11.6821C218.573 11.7701 218.587 11.8361 218.587 11.8801C218.587 12.0708 218.529 12.3128 218.411 12.6061C218.309 12.8994 218.199 13.1634 218.081 13.3981C218.023 13.5301 217.905 13.7721 217.729 14.1241C217.553 14.4614 217.363 14.8501 217.157 15.2901C216.952 15.7154 216.776 16.1408 216.629 16.5661C216.497 16.9768 216.431 17.3288 216.431 17.6221C216.431 18.0034 216.578 18.1941 216.871 18.1941C217.15 18.1941 217.539 17.8714 218.037 17.2261C218.536 16.5661 219.035 15.6641 219.533 14.5201C219.709 14.5201 219.797 14.5861 219.797 14.7181C219.636 15.1141 219.431 15.5468 219.181 16.0161C218.947 16.4854 218.683 16.9328 218.389 17.3581C218.096 17.7688 217.781 18.1134 217.443 18.3921C217.106 18.6561 216.754 18.7881 216.387 18.7881C216.109 18.7881 215.83 18.6781 215.551 18.4581C215.273 18.2234 215.133 17.8494 215.133 17.3361C215.133 16.8814 215.221 16.4414 215.397 16.0161C215.573 15.5761 215.771 15.1654 215.991 14.7841C216.211 14.4028 216.409 14.0654 216.585 13.7721C216.761 13.4788 216.849 13.2441 216.849 13.0681C216.849 12.8041 216.681 12.6134 216.343 12.4961C216.021 12.3788 215.595 12.3128 215.067 12.2981C214.803 12.9728 214.605 13.4714 214.473 13.7941C214.341 14.1168 214.217 14.4248 214.099 14.7181C213.865 14.7181 213.784 14.6301 213.857 14.4541ZM221.465 18.7661C220.922 18.7661 220.541 18.6121 220.321 18.3041C220.101 17.9814 219.991 17.6148 219.991 17.2041C219.991 16.9841 220.013 16.7641 220.057 16.5441C220.115 16.3094 220.181 16.0968 220.255 15.9061L221.729 12.1441C221.773 12.0268 221.795 11.9241 221.795 11.8361C221.795 11.6894 221.758 11.5648 221.685 11.4621C221.611 11.3448 221.56 11.2641 221.531 11.2201L222.741 11.1761C222.961 11.1614 223.115 11.1908 223.203 11.2641C223.305 11.3228 223.357 11.3961 223.357 11.4841C223.357 11.5721 223.305 11.7334 223.203 11.9681C223.056 12.3201 222.858 12.7601 222.609 13.2881C222.359 13.8161 222.11 14.3588 221.861 14.9161C221.626 15.4734 221.421 15.9941 221.245 16.4781C221.083 16.9621 221.003 17.3361 221.003 17.6001C221.003 17.7908 221.047 17.9521 221.135 18.0841C221.237 18.2161 221.406 18.2821 221.641 18.2821C221.949 18.2821 222.249 18.1648 222.543 17.9301C222.851 17.6808 223.137 17.3654 223.401 16.9841C223.665 16.6028 223.907 16.1921 224.127 15.7521C224.361 15.3121 224.559 14.9014 224.721 14.5201C224.897 14.5201 224.985 14.5861 224.985 14.7181C224.838 15.0848 224.647 15.5028 224.413 15.9721C224.178 16.4414 223.907 16.8888 223.599 17.3141C223.305 17.7248 222.975 18.0694 222.609 18.3481C222.257 18.6268 221.875 18.7661 221.465 18.7661ZM223.423 9.81211C223.232 9.81211 223.063 9.73878 222.917 9.59211C222.785 9.44545 222.719 9.26945 222.719 9.06411C222.719 8.81478 222.821 8.59478 223.027 8.40411C223.232 8.19878 223.459 8.09611 223.709 8.09611C223.914 8.09611 224.09 8.16211 224.237 8.29411C224.383 8.42611 224.457 8.59478 224.457 8.80011C224.457 9.06411 224.354 9.29878 224.149 9.50411C223.943 9.70945 223.701 9.81211 223.423 9.81211ZM223.924 18.9421C224.452 17.8714 224.958 16.8154 225.442 15.7741C225.926 14.7181 226.425 13.7134 226.938 12.7601C227.231 12.2321 227.481 11.8654 227.686 11.6601C227.891 11.4401 228.163 11.3301 228.5 11.3301C228.617 11.3301 228.742 11.3521 228.874 11.3961C229.006 11.4254 229.138 11.4401 229.27 11.4401C229.358 11.4401 229.424 11.4328 229.468 11.4181C229.263 11.5354 228.991 11.8288 228.654 12.2981C228.331 12.7528 228.001 13.2808 227.664 13.8821C227.327 14.4834 227.026 15.0481 226.762 15.5761C227.041 15.2388 227.334 14.9014 227.642 14.5641C227.95 14.2268 228.287 13.9041 228.654 13.5961C229.006 13.2881 229.424 12.9728 229.908 12.6501C230.407 12.3128 230.891 12.0341 231.36 11.8141C231.829 11.5941 232.203 11.4841 232.482 11.4841C232.585 11.4841 232.658 11.4914 232.702 11.5061C232.702 11.5061 232.621 11.6528 232.46 11.9461C232.299 12.2248 232.093 12.5988 231.844 13.0681C231.609 13.5228 231.367 14.0141 231.118 14.5421C230.869 15.0554 230.641 15.5541 230.436 16.0381C230.245 16.5074 230.121 16.9034 230.062 17.2261C230.018 17.4168 229.996 17.5928 229.996 17.7541C229.996 17.9888 230.04 18.1428 230.128 18.2161C230.216 18.2894 230.311 18.3261 230.414 18.3261C230.693 18.3261 230.979 18.2014 231.272 17.9521C231.565 17.7028 231.844 17.3874 232.108 17.0061C232.387 16.6101 232.643 16.1921 232.878 15.7521C233.113 15.3121 233.311 14.9014 233.472 14.5201C233.648 14.5201 233.736 14.5861 233.736 14.7181C233.575 15.1141 233.369 15.5541 233.12 16.0381C232.885 16.5074 232.614 16.9548 232.306 17.3801C232.013 17.8054 231.683 18.1574 231.316 18.4361C230.949 18.7148 230.553 18.8541 230.128 18.8541C229.835 18.8541 229.527 18.7514 229.204 18.5461C228.896 18.3408 228.742 17.9594 228.742 17.4021C228.742 17.2408 228.757 17.0721 228.786 16.8961C228.815 16.7054 228.867 16.5001 228.94 16.2801C229.057 15.9868 229.197 15.6714 229.358 15.3341C229.519 14.9968 229.783 14.5348 230.15 13.9481C230.253 13.7868 230.311 13.6621 230.326 13.5741C230.355 13.4861 230.37 13.4128 230.37 13.3541C230.37 13.1781 230.289 13.0901 230.128 13.0901C229.996 13.0901 229.798 13.1634 229.534 13.3101C229.285 13.4568 228.969 13.7134 228.588 14.0801C228.221 14.4321 227.781 14.9308 227.268 15.5761C226.769 16.2214 226.19 17.1748 225.53 18.4361C225.427 18.6268 225.31 18.7294 225.178 18.7441C225.061 18.7588 224.892 18.7734 224.672 18.7881C224.525 18.8028 224.386 18.8101 224.254 18.8101C224.122 18.8248 224.012 18.8688 223.924 18.9421ZM239.563 18.8321C239.226 18.8321 238.925 18.7368 238.661 18.5461C238.412 18.3554 238.287 17.9668 238.287 17.3801C238.287 17.1308 238.302 16.8961 238.331 16.6761C238.375 16.4561 238.427 16.2214 238.485 15.9721C238.353 16.1921 238.17 16.4634 237.935 16.7861C237.701 17.1088 237.437 17.4241 237.143 17.7321C236.865 18.0401 236.571 18.2968 236.263 18.5021C235.97 18.7074 235.691 18.8101 235.427 18.8101C235.046 18.8101 234.738 18.6414 234.503 18.3041C234.269 17.9521 234.151 17.4974 234.151 16.9401C234.151 16.3388 234.291 15.6934 234.569 15.0041C234.848 14.3148 235.229 13.6548 235.713 13.0241C236.197 12.3934 236.755 11.8801 237.385 11.4841C238.016 11.0881 238.676 10.8901 239.365 10.8901C239.703 10.8901 240.025 10.9488 240.333 11.0661C240.641 11.1688 240.913 11.3448 241.147 11.5941C241.25 11.6968 241.301 11.8141 241.301 11.9461C241.301 12.0341 241.265 12.1074 241.191 12.1661C241.118 12.2248 241.023 12.2394 240.905 12.2101C240.744 11.6968 240.399 11.4401 239.871 11.4401C239.622 11.4401 239.336 11.5208 239.013 11.6821C238.617 11.8874 238.192 12.2174 237.737 12.6721C237.297 13.1121 236.879 13.6181 236.483 14.1901C236.102 14.7474 235.787 15.3121 235.537 15.8841C235.288 16.4561 235.163 16.9768 235.163 17.4461C235.163 17.9301 235.347 18.1721 235.713 18.1721C236.036 18.1721 236.366 18.0181 236.703 17.7101C237.055 17.4021 237.385 17.0208 237.693 16.5661C238.016 16.0968 238.309 15.6348 238.573 15.1801C238.837 14.7254 239.043 14.3588 239.189 14.0801C239.409 13.6841 239.615 13.3541 239.805 13.0901C239.996 12.8261 240.267 12.6941 240.619 12.6941C240.781 12.6941 240.942 12.7161 241.103 12.7601C241.265 12.8041 241.433 12.8114 241.609 12.7821C241.169 13.2221 240.781 13.7428 240.443 14.3441C240.121 14.9454 239.871 15.5394 239.695 16.1261C239.519 16.6981 239.431 17.1821 239.431 17.5781C239.431 18.0181 239.578 18.2381 239.871 18.2381C240.106 18.2381 240.355 18.1061 240.619 17.8421C240.898 17.5781 241.162 17.2481 241.411 16.8521C241.675 16.4414 241.917 16.0308 242.137 15.6201C242.357 15.1948 242.533 14.8281 242.665 14.5201C242.739 14.5201 242.797 14.5274 242.841 14.5421C242.9 14.5568 242.929 14.6154 242.929 14.7181C242.915 14.7768 242.885 14.8428 242.841 14.9161C242.812 14.9748 242.761 15.0848 242.687 15.2461C242.57 15.4808 242.409 15.7961 242.203 16.1921C241.998 16.5881 241.756 16.9914 241.477 17.4021C241.199 17.7981 240.898 18.1354 240.575 18.4141C240.253 18.6928 239.915 18.8321 239.563 18.8321Z" fill="#E7E0CB"></path></svg> 