<?xml version="1.0" encoding="UTF-8"?> <svg xmlns="http://www.w3.org/2000/svg" width="269" height="14" viewBox="0 0 269 14" fill="none"><path d="M6.19499 9.92996H6.26999C6.50999 9.92996 6.62999 9.81996 6.62999 9.59996C6.62999 9.51996 6.61499 9.43496 6.58499 9.34496L5.23499 5.69996H2.60999L1.30499 9.28496C1.27499 9.36496 1.25999 9.43996 1.25999 9.50996C1.25999 9.63996 1.29499 9.74496 1.36499 9.82496C1.43499 9.89496 1.50999 9.92996 1.58999 9.92996H1.66499V10.08H-6.70739e-06V9.92996H0.0749933C0.204993 9.92996 0.329993 9.85496 0.449993 9.70496C0.579993 9.54496 0.684993 9.35996 0.764993 9.14996L4.19999 -4.47035e-05L7.55999 9.05996C7.62999 9.25996 7.72499 9.45496 7.84499 9.64496C7.97499 9.83496 8.13999 9.92996 8.33999 9.92996H8.41499V10.08H6.19499V9.92996ZM2.75999 5.18996H5.06999L3.91499 2.05496L2.75999 5.18996ZM16.4376 9.58496V11.43H16.2876C16.2676 11.31 16.2326 11.17 16.1826 11.01C16.1326 10.86 16.0626 10.715 15.9726 10.575C15.8826 10.435 15.7726 10.315 15.6426 10.215C15.5226 10.125 15.3826 10.08 15.2226 10.08H10.4526C10.2926 10.08 10.1476 10.125 10.0176 10.215C9.88765 10.315 9.77265 10.435 9.67265 10.575C9.58265 10.715 9.50765 10.86 9.44765 11.01C9.39765 11.17 9.36765 11.31 9.35765 11.43H9.20765V9.58496H9.77765C9.83765 9.58496 9.89265 9.55996 9.94265 9.50996C10.0026 9.45996 10.0576 9.39996 10.1076 9.32996C10.1676 9.25996 10.2226 9.18496 10.2726 9.10496C10.3226 9.01496 10.3676 8.93496 10.4076 8.86496C10.5576 8.52496 10.7376 8.11996 10.9476 7.64996C11.1676 7.17996 11.3876 6.69496 11.6076 6.19496C11.8376 5.69496 12.0576 5.20996 12.2676 4.73996C12.4776 4.25996 12.6576 3.84996 12.8076 3.50996L15.3426 9.04496C15.4226 9.21496 15.4976 9.34996 15.5676 9.44996C15.6376 9.53996 15.7326 9.58496 15.8526 9.58496H16.4376ZM10.6026 9.58496H14.5026L12.5526 5.30996L10.6026 9.58496ZM20.5561 3.67496C21.0961 3.67496 21.5611 3.76996 21.9511 3.95996C22.3511 4.13996 22.6811 4.37996 22.9411 4.67996C23.2111 4.97996 23.4111 5.32496 23.5411 5.71496C23.6711 6.10496 23.7361 6.50496 23.7361 6.91496C23.7361 7.31496 23.6711 7.70996 23.5411 8.09996C23.4211 8.48996 23.2311 8.83996 22.9711 9.14996C22.7211 9.45996 22.4061 9.70996 22.0261 9.89996C21.6461 10.09 21.1961 10.185 20.6761 10.185C20.3661 10.185 20.0461 10.105 19.7161 9.94496C19.3961 9.77496 19.1061 9.56496 18.8461 9.31496V12.405C18.8461 12.485 18.8561 12.57 18.8761 12.66C18.8961 12.76 18.9261 12.85 18.9661 12.93C19.0161 13.01 19.0661 13.08 19.1161 13.14C19.1761 13.2 19.2461 13.23 19.3261 13.23V13.38H17.3761V13.23C17.4461 13.23 17.5111 13.2 17.5711 13.14C17.6311 13.08 17.6811 13.01 17.7211 12.93C17.7711 12.85 17.8061 12.76 17.8261 12.66C17.8461 12.57 17.8561 12.485 17.8561 12.405V4.66496C17.8561 4.57496 17.8511 4.48996 17.8411 4.40996C17.8411 4.31996 17.8261 4.24496 17.7961 4.18496C17.7661 4.11496 17.7161 4.05996 17.6461 4.01996C17.5861 3.96996 17.4961 3.93996 17.3761 3.92996V3.77996H18.8461V4.43996C19.0461 4.19996 19.2861 4.01496 19.5661 3.88496C19.8561 3.74496 20.1861 3.67496 20.5561 3.67496ZM20.6911 9.67496C21.0411 9.66496 21.3461 9.58496 21.6061 9.43496C21.8661 9.28496 22.0811 9.08996 22.2511 8.84996C22.4211 8.60996 22.5461 8.34496 22.6261 8.05496C22.7061 7.75496 22.7461 7.44496 22.7461 7.12496C22.7461 6.76496 22.6961 6.40996 22.5961 6.05996C22.4961 5.70996 22.3511 5.39996 22.1611 5.12996C21.9711 4.84996 21.7361 4.62496 21.4561 4.45496C21.1861 4.27496 20.8761 4.18496 20.5261 4.18496C20.3161 4.18496 20.1061 4.22496 19.8961 4.30496C19.6961 4.38496 19.5161 4.49996 19.3561 4.64996C19.2061 4.79996 19.0811 4.97996 18.9811 5.18996C18.8911 5.38996 18.8461 5.61496 18.8461 5.86496V7.82996C18.8461 8.09996 18.9011 8.34996 19.0111 8.57996C19.1211 8.79996 19.2611 8.99496 19.4311 9.16496C19.6111 9.32496 19.8111 9.44996 20.0311 9.53996C20.2511 9.62996 20.4711 9.67496 20.6911 9.67496ZM26.3558 7.04996C26.3958 7.39996 26.4808 7.73496 26.6108 8.05496C26.7408 8.36496 26.9108 8.63996 27.1208 8.87996C27.3408 9.11996 27.6058 9.31496 27.9158 9.46496C28.2258 9.60496 28.5858 9.67496 28.9958 9.67496C29.2158 9.67496 29.4458 9.64496 29.6858 9.58496C29.9358 9.51496 30.1658 9.41996 30.3758 9.29996C30.5858 9.17996 30.7708 9.03496 30.9308 8.86496C31.1008 8.68496 31.2158 8.48496 31.2758 8.26496H31.4108V9.38996C31.3508 9.38996 31.2808 9.40996 31.2008 9.44996C31.1308 9.48996 31.0458 9.53996 30.9458 9.59996C30.7458 9.71996 30.4758 9.84996 30.1358 9.98996C29.7958 10.12 29.3458 10.185 28.7858 10.185C28.3358 10.185 27.9058 10.12 27.4958 9.98996C27.0958 9.85996 26.7408 9.65996 26.4308 9.38996C26.1208 9.11996 25.8708 8.77496 25.6808 8.35496C25.5008 7.93496 25.4108 7.43496 25.4108 6.85496C25.4108 6.48496 25.4708 6.10996 25.5908 5.72996C25.7208 5.34996 25.9108 5.00996 26.1608 4.70996C26.4208 4.39996 26.7508 4.14996 27.1508 3.95996C27.5508 3.76996 28.0308 3.67496 28.5908 3.67496C29.0908 3.67496 29.5258 3.75996 29.8958 3.92996C30.2758 4.09996 30.5858 4.33496 30.8258 4.63496C31.0758 4.93496 31.2608 5.28996 31.3808 5.69996C31.5008 6.10996 31.5608 6.55996 31.5608 7.04996H26.3558ZM28.5308 4.16996C28.1808 4.16996 27.8758 4.23996 27.6158 4.37996C27.3658 4.51996 27.1508 4.69996 26.9708 4.91996C26.7908 5.13996 26.6508 5.38996 26.5508 5.66996C26.4508 5.94996 26.3858 6.22996 26.3558 6.50996H30.6308C30.6208 6.21996 30.5658 5.93496 30.4658 5.65496C30.3758 5.37496 30.2458 5.12496 30.0758 4.90496C29.9058 4.68496 29.6908 4.50996 29.4308 4.37996C29.1708 4.23996 28.8708 4.16996 28.5308 4.16996ZM38.4738 9.53996C38.3938 9.53996 38.3188 9.55996 38.2488 9.59996C38.1788 9.62996 38.0988 9.66996 38.0088 9.71996C37.8388 9.81996 37.6138 9.92496 37.3338 10.035C37.0538 10.135 36.7038 10.185 36.2838 10.185C35.7738 10.185 35.3038 10.105 34.8738 9.94496C34.4538 9.77496 34.0888 9.54496 33.7788 9.25496C33.4688 8.95496 33.2288 8.60996 33.0588 8.21996C32.8888 7.81996 32.8038 7.38996 32.8038 6.92996C32.8038 6.49996 32.8788 6.08996 33.0288 5.69996C33.1888 5.30996 33.4138 4.96496 33.7038 4.66496C33.9938 4.36496 34.3488 4.12496 34.7688 3.94496C35.1988 3.76496 35.6838 3.67496 36.2238 3.67496C36.5938 3.67496 36.8938 3.71996 37.1238 3.80996C37.3538 3.88996 37.5488 3.96996 37.7088 4.04996C37.7988 4.09996 37.8838 4.13996 37.9638 4.16996C38.0538 4.19996 38.1438 4.21496 38.2338 4.21496V5.35496H38.0838C38.0338 5.16496 37.9438 4.99996 37.8138 4.85996C37.6838 4.70996 37.5338 4.58496 37.3638 4.48496C37.1938 4.38496 37.0088 4.30996 36.8088 4.25996C36.6088 4.20996 36.4138 4.18496 36.2238 4.18496C35.8138 4.18496 35.4538 4.25996 35.1438 4.40996C34.8338 4.54996 34.5788 4.73996 34.3788 4.97996C34.1788 5.20996 34.0288 5.47496 33.9288 5.77496C33.8288 6.07496 33.7788 6.38496 33.7788 6.70496C33.7788 7.07496 33.8338 7.43996 33.9438 7.79996C34.0638 8.14996 34.2288 8.46496 34.4388 8.74496C34.6588 9.02496 34.9238 9.24996 35.2338 9.41996C35.5538 9.58996 35.9138 9.67496 36.3138 9.67496C36.5938 9.67496 36.8538 9.63496 37.0938 9.55496C37.3338 9.47496 37.5388 9.36996 37.7088 9.23996C37.8888 9.10996 38.0288 8.96996 38.1288 8.81996C38.2388 8.65996 38.3038 8.50996 38.3238 8.36996H38.4738V9.53996ZM40.027 4.99496C40.027 4.79496 40.092 4.62496 40.222 4.48496C40.362 4.34496 40.532 4.27496 40.732 4.27496C40.932 4.27496 41.102 4.34496 41.242 4.48496C41.382 4.62496 41.452 4.79496 41.452 4.99496C41.452 5.19496 41.382 5.36496 41.242 5.50496C41.102 5.63496 40.932 5.69996 40.732 5.69996C40.532 5.69996 40.362 5.63496 40.222 5.50496C40.092 5.36496 40.027 5.19496 40.027 4.99496ZM40.027 9.43496C40.027 9.23496 40.092 9.06496 40.222 8.92496C40.362 8.78496 40.532 8.71496 40.732 8.71496C40.932 8.71496 41.102 8.78496 41.242 8.92496C41.382 9.06496 41.452 9.23496 41.452 9.43496C41.452 9.63496 41.382 9.80496 41.242 9.94496C41.102 10.075 40.932 10.14 40.732 10.14C40.532 10.14 40.362 10.075 40.222 9.94496C40.092 9.80496 40.027 9.63496 40.027 9.43496ZM47.7361 9.92996H47.8111C47.8911 9.92996 47.9611 9.89996 48.0211 9.83996C48.0811 9.77996 48.1311 9.70996 48.1711 9.62996C48.2211 9.54996 48.2561 9.46496 48.2761 9.37496C48.2961 9.27496 48.3061 9.18496 48.3061 9.10496V1.10996C48.3061 1.03996 48.2961 0.959956 48.2761 0.869956C48.2561 0.779956 48.2211 0.694956 48.1711 0.614955C48.1311 0.534955 48.0811 0.469955 48.0211 0.419955C47.9611 0.359955 47.8961 0.329956 47.8261 0.329956H47.7511V0.179956H49.8811V0.329956H49.8061C49.7261 0.329956 49.6561 0.359955 49.5961 0.419955C49.5361 0.469955 49.4811 0.534955 49.4311 0.614955C49.3911 0.694956 49.3561 0.779956 49.3261 0.869956C49.3061 0.959956 49.2961 1.03996 49.2961 1.10996V4.21496L52.7761 0.749955C52.8561 0.669955 52.8961 0.574955 52.8961 0.464956C52.8961 0.374956 52.8561 0.329956 52.7761 0.329956V0.179956H54.3961V0.329956C54.1961 0.339955 54.0161 0.399956 53.8561 0.509956C53.7061 0.619956 53.5411 0.764956 53.3611 0.944956L49.8061 4.49996C50.4561 4.51996 50.9811 4.65996 51.3811 4.91996C51.7811 5.17996 52.0961 5.53996 52.3261 5.99996L53.5111 8.39996C53.5811 8.54996 53.6711 8.71496 53.7811 8.89496C53.9011 9.06496 54.0311 9.22996 54.1711 9.38996C54.3211 9.53996 54.4861 9.66996 54.6661 9.77996C54.8461 9.87996 55.0361 9.92996 55.2361 9.92996V10.08H54.4861C54.1961 10.08 53.9461 10.04 53.7361 9.95996C53.5261 9.86996 53.3411 9.75496 53.1811 9.61496C53.0311 9.46496 52.8961 9.29996 52.7761 9.11996C52.6661 8.93996 52.5661 8.75996 52.4761 8.57996L51.2611 6.16496C51.0711 5.79496 50.8061 5.51496 50.4661 5.32496C50.1361 5.12496 49.7461 5.01496 49.2961 4.99496V9.10496C49.2961 9.18496 49.3061 9.26996 49.3261 9.35996C49.3461 9.44996 49.3761 9.53996 49.4161 9.62996C49.4561 9.70996 49.5061 9.77996 49.5661 9.83996C49.6261 9.88996 49.6911 9.91996 49.7611 9.92996H49.8661V10.08H47.7361V9.92996ZM59.3352 3.67496C59.8752 3.67496 60.3402 3.76996 60.7302 3.95996C61.1302 4.13996 61.4602 4.37996 61.7202 4.67996C61.9902 4.97996 62.1902 5.32496 62.3202 5.71496C62.4502 6.10496 62.5152 6.50496 62.5152 6.91496C62.5152 7.31496 62.4502 7.70996 62.3202 8.09996C62.2002 8.48996 62.0102 8.83996 61.7502 9.14996C61.5002 9.45996 61.1852 9.70996 60.8052 9.89996C60.4252 10.09 59.9752 10.185 59.4552 10.185C59.1452 10.185 58.8252 10.105 58.4952 9.94496C58.1752 9.77496 57.8852 9.56496 57.6252 9.31496V12.405C57.6252 12.485 57.6352 12.57 57.6552 12.66C57.6752 12.76 57.7052 12.85 57.7452 12.93C57.7952 13.01 57.8452 13.08 57.8952 13.14C57.9552 13.2 58.0252 13.23 58.1052 13.23V13.38H56.1552V13.23C56.2252 13.23 56.2902 13.2 56.3502 13.14C56.4102 13.08 56.4602 13.01 56.5002 12.93C56.5502 12.85 56.5852 12.76 56.6052 12.66C56.6252 12.57 56.6352 12.485 56.6352 12.405V4.66496C56.6352 4.57496 56.6302 4.48996 56.6202 4.40996C56.6202 4.31996 56.6052 4.24496 56.5752 4.18496C56.5452 4.11496 56.4952 4.05996 56.4252 4.01996C56.3652 3.96996 56.2752 3.93996 56.1552 3.92996V3.77996H57.6252V4.43996C57.8252 4.19996 58.0652 4.01496 58.3452 3.88496C58.6352 3.74496 58.9652 3.67496 59.3352 3.67496ZM59.4702 9.67496C59.8202 9.66496 60.1252 9.58496 60.3852 9.43496C60.6452 9.28496 60.8602 9.08996 61.0302 8.84996C61.2002 8.60996 61.3252 8.34496 61.4052 8.05496C61.4852 7.75496 61.5252 7.44496 61.5252 7.12496C61.5252 6.76496 61.4752 6.40996 61.3752 6.05996C61.2752 5.70996 61.1302 5.39996 60.9402 5.12996C60.7502 4.84996 60.5152 4.62496 60.2352 4.45496C59.9652 4.27496 59.6552 4.18496 59.3052 4.18496C59.0952 4.18496 58.8852 4.22496 58.6752 4.30496C58.4752 4.38496 58.2952 4.49996 58.1352 4.64996C57.9852 4.79996 57.8602 4.97996 57.7602 5.18996C57.6702 5.38996 57.6252 5.61496 57.6252 5.86496V7.82996C57.6252 8.09996 57.6802 8.34996 57.7902 8.57996C57.9002 8.79996 58.0402 8.99496 58.2102 9.16496C58.3902 9.32496 58.5902 9.44996 58.8102 9.53996C59.0302 9.62996 59.2502 9.67496 59.4702 9.67496ZM68.2699 10.08V9.31496L68.1949 9.38996C67.9449 9.63996 67.6549 9.83496 67.3249 9.97496C67.0049 10.115 66.6149 10.185 66.1549 10.185C65.8049 10.185 65.5049 10.145 65.2549 10.065C65.0049 9.98496 64.7999 9.87496 64.6399 9.73496C64.4799 9.58496 64.3599 9.41496 64.2799 9.22496C64.2099 9.03496 64.1749 8.83496 64.1749 8.62496C64.1749 8.28496 64.2649 7.98496 64.4449 7.72496C64.6349 7.46496 64.9049 7.23496 65.2549 7.03496C65.6049 6.83496 66.0299 6.65496 66.5299 6.49496C67.0399 6.32496 67.6199 6.15996 68.2699 5.99996C68.2499 5.60996 68.1699 5.29496 68.0299 5.05496C67.8899 4.81496 67.7249 4.62996 67.5349 4.49996C67.3449 4.35996 67.1449 4.26996 66.9349 4.22996C66.7249 4.17996 66.5449 4.15496 66.3949 4.15496C66.1349 4.15496 65.9049 4.19496 65.7049 4.27496C65.5049 4.34496 65.3299 4.44496 65.1799 4.57496C65.0299 4.69496 64.9049 4.83496 64.8049 4.99496C64.7149 5.15496 64.6449 5.31496 64.5949 5.47496H64.4599V4.30496C64.5499 4.30496 64.6549 4.27496 64.7749 4.21496C64.8949 4.14496 65.0349 4.06996 65.1949 3.98996C65.3649 3.90996 65.5649 3.83996 65.7949 3.77996C66.0349 3.70996 66.3199 3.67496 66.6499 3.67496C67.1999 3.67496 67.6449 3.74496 67.9849 3.88496C68.3249 4.02496 68.5849 4.20996 68.7649 4.43996C68.9549 4.66996 69.0799 4.93496 69.1399 5.23496C69.1999 5.52496 69.2299 5.82496 69.2299 6.13496V9.10496C69.2299 9.30496 69.2799 9.49496 69.3799 9.67496C69.4799 9.84496 69.6149 9.92996 69.7849 9.92996V10.08H68.2699ZM68.2699 8.65496V6.50996L68.1199 6.53996C67.8799 6.59996 67.5849 6.67996 67.2349 6.77996C66.8949 6.87996 66.5699 7.00996 66.2599 7.16996C65.9499 7.32996 65.6849 7.51996 65.4649 7.73996C65.2449 7.95996 65.1349 8.21496 65.1349 8.50496C65.1349 8.82496 65.2649 9.08996 65.5249 9.29996C65.7849 9.50996 66.1249 9.61496 66.5449 9.61496C66.8749 9.61496 67.1649 9.54496 67.4149 9.40496C67.6649 9.25496 67.8949 9.06496 68.1049 8.83496L68.2699 8.65496ZM77.1504 9.53996C77.0704 9.53996 76.9954 9.55996 76.9254 9.59996C76.8554 9.62996 76.7754 9.66996 76.6854 9.71996C76.5154 9.81996 76.2904 9.92496 76.0104 10.035C75.7304 10.135 75.3804 10.185 74.9604 10.185C74.4504 10.185 73.9804 10.105 73.5504 9.94496C73.1304 9.77496 72.7654 9.54496 72.4554 9.25496C72.1454 8.95496 71.9054 8.60996 71.7354 8.21996C71.5654 7.81996 71.4804 7.38996 71.4804 6.92996C71.4804 6.49996 71.5554 6.08996 71.7054 5.69996C71.8654 5.30996 72.0904 4.96496 72.3804 4.66496C72.6704 4.36496 73.0254 4.12496 73.4454 3.94496C73.8754 3.76496 74.3604 3.67496 74.9004 3.67496C75.2704 3.67496 75.5704 3.71996 75.8004 3.80996C76.0304 3.88996 76.2254 3.96996 76.3854 4.04996C76.4754 4.09996 76.5604 4.13996 76.6404 4.16996C76.7304 4.19996 76.8204 4.21496 76.9104 4.21496V5.35496H76.7604C76.7104 5.16496 76.6204 4.99996 76.4904 4.85996C76.3604 4.70996 76.2104 4.58496 76.0404 4.48496C75.8704 4.38496 75.6854 4.30996 75.4854 4.25996C75.2854 4.20996 75.0904 4.18496 74.9004 4.18496C74.4904 4.18496 74.1304 4.25996 73.8204 4.40996C73.5104 4.54996 73.2554 4.73996 73.0554 4.97996C72.8554 5.20996 72.7054 5.47496 72.6054 5.77496C72.5054 6.07496 72.4554 6.38496 72.4554 6.70496C72.4554 7.07496 72.5104 7.43996 72.6204 7.79996C72.7404 8.14996 72.9054 8.46496 73.1154 8.74496C73.3354 9.02496 73.6004 9.24996 73.9104 9.41996C74.2304 9.58996 74.5904 9.67496 74.9904 9.67496C75.2704 9.67496 75.5304 9.63496 75.7704 9.55496C76.0104 9.47496 76.2154 9.36996 76.3854 9.23996C76.5654 9.10996 76.7054 8.96996 76.8054 8.81996C76.9154 8.65996 76.9804 8.50996 77.0004 8.36996H77.1504V9.53996ZM80.0686 9.10496C80.0686 9.18496 80.0786 9.27496 80.0986 9.37496C80.1186 9.46496 80.1486 9.54996 80.1886 9.62996C80.2286 9.70996 80.2736 9.77996 80.3236 9.83996C80.3836 9.89996 80.4486 9.92996 80.5186 9.92996V10.08H78.6286V9.92996C78.6986 9.92996 78.7586 9.90496 78.8086 9.85496C78.8686 9.79496 78.9186 9.72496 78.9586 9.64496C78.9986 9.55496 79.0286 9.46496 79.0486 9.37496C79.0686 9.27496 79.0786 9.18496 79.0786 9.10496V4.70996C79.0786 4.63996 79.0686 4.55996 79.0486 4.46996C79.0286 4.37996 78.9986 4.29496 78.9586 4.21496C78.9186 4.13496 78.8686 4.06996 78.8086 4.01996C78.7586 3.95996 78.6986 3.92996 78.6286 3.92996V3.77996H80.5186V3.92996C80.4386 3.92996 80.3686 3.95996 80.3086 4.01996C80.2586 4.06996 80.2136 4.13496 80.1736 4.21496C80.1436 4.29496 80.1186 4.37996 80.0986 4.46996C80.0786 4.55996 80.0686 4.63996 80.0686 4.70996V6.52496H83.4886V4.70996C83.4886 4.63996 83.4786 4.55996 83.4586 4.46996C83.4386 4.37996 83.4086 4.29496 83.3686 4.21496C83.3386 4.13496 83.2936 4.06996 83.2336 4.01996C83.1836 3.95996 83.1186 3.92996 83.0386 3.92996V3.77996H84.9286V3.92996C84.8486 3.92996 84.7786 3.95996 84.7186 4.01996C84.6686 4.06996 84.6236 4.13496 84.5836 4.21496C84.5436 4.29496 84.5136 4.37996 84.4936 4.46996C84.4836 4.55996 84.4786 4.63996 84.4786 4.70996V9.10496C84.4786 9.18496 84.4886 9.27496 84.5086 9.37496C84.5286 9.46496 84.5586 9.54996 84.5986 9.62996C84.6386 9.70996 84.6836 9.77996 84.7336 9.83996C84.7936 9.89996 84.8586 9.92996 84.9286 9.92996V10.08H83.0386V9.92996C83.1086 9.92996 83.1686 9.90496 83.2186 9.85496C83.2786 9.79496 83.3286 9.72496 83.3686 9.64496C83.4086 9.55496 83.4386 9.46496 83.4586 9.37496C83.4786 9.27496 83.4886 9.18496 83.4886 9.10496V7.01996H80.0686V9.10496ZM89.9769 10.185C89.4769 10.185 89.0269 10.105 88.6269 9.94496C88.2269 9.77496 87.8819 9.54996 87.5919 9.26996C87.3119 8.97996 87.0919 8.63996 86.9319 8.24996C86.7819 7.85996 86.7069 7.43496 86.7069 6.97496C86.7069 6.48496 86.7919 6.03996 86.9619 5.63996C87.1319 5.22996 87.3669 4.87996 87.6669 4.58996C87.9669 4.29996 88.3219 4.07496 88.7319 3.91496C89.1419 3.75496 89.5869 3.67496 90.0669 3.67496C90.5469 3.67496 90.9869 3.75496 91.3869 3.91496C91.7869 4.06496 92.1319 4.27996 92.4219 4.55996C92.7119 4.83996 92.9369 5.17496 93.0969 5.56496C93.2569 5.94496 93.3369 6.36496 93.3369 6.82496C93.3369 7.25496 93.2619 7.67496 93.1119 8.08496C92.9719 8.48496 92.7569 8.83996 92.4669 9.14996C92.1869 9.45996 91.8369 9.70996 91.4169 9.89996C91.0069 10.09 90.5269 10.185 89.9769 10.185ZM89.8869 4.16996C89.5269 4.18996 89.2069 4.27996 88.9269 4.43996C88.6569 4.58996 88.4269 4.78996 88.2369 5.03996C88.0569 5.27996 87.9169 5.55496 87.8169 5.86496C87.7269 6.17496 87.6819 6.48996 87.6819 6.80996C87.6819 7.17996 87.7369 7.53996 87.8469 7.88996C87.9669 8.22996 88.1319 8.53496 88.3419 8.80496C88.5619 9.07496 88.8219 9.28996 89.1219 9.44996C89.4219 9.60996 89.7569 9.68996 90.1269 9.68996C90.4969 9.68996 90.8219 9.60996 91.1019 9.44996C91.3919 9.28996 91.6319 9.08496 91.8219 8.83496C92.0119 8.57496 92.1519 8.28496 92.2419 7.96496C92.3419 7.64496 92.3919 7.32496 92.3919 7.00496C92.3919 6.67496 92.3419 6.34496 92.2419 6.01496C92.1419 5.67496 91.9869 5.36996 91.7769 5.09996C91.5669 4.81996 91.3019 4.59496 90.9819 4.42496C90.6719 4.25496 90.3069 4.16996 89.8869 4.16996ZM101.803 9.58496V11.43H101.653C101.633 11.31 101.598 11.17 101.548 11.01C101.498 10.86 101.428 10.715 101.338 10.575C101.248 10.435 101.138 10.315 101.008 10.215C100.888 10.125 100.748 10.08 100.588 10.08H95.8185C95.6585 10.08 95.5135 10.125 95.3835 10.215C95.2535 10.315 95.1385 10.435 95.0385 10.575C94.9485 10.715 94.8735 10.86 94.8135 11.01C94.7635 11.17 94.7335 11.31 94.7235 11.43H94.5735V9.58496H95.1435C95.2035 9.58496 95.2585 9.55996 95.3085 9.50996C95.3685 9.45996 95.4235 9.39996 95.4735 9.32996C95.5335 9.25996 95.5885 9.18496 95.6385 9.10496C95.6885 9.01496 95.7335 8.93496 95.7735 8.86496C95.9235 8.52496 96.1035 8.11996 96.3135 7.64996C96.5335 7.17996 96.7535 6.69496 96.9735 6.19496C97.2035 5.69496 97.4235 5.20996 97.6335 4.73996C97.8435 4.25996 98.0235 3.84996 98.1735 3.50996L100.708 9.04496C100.788 9.21496 100.863 9.34996 100.933 9.44996C101.003 9.53996 101.098 9.58496 101.218 9.58496H101.803ZM95.9685 9.58496H99.8685L97.9185 5.30996L95.9685 9.58496ZM106.936 10.08V9.31496L106.861 9.38996C106.611 9.63996 106.321 9.83496 105.991 9.97496C105.671 10.115 105.281 10.185 104.821 10.185C104.471 10.185 104.171 10.145 103.921 10.065C103.671 9.98496 103.466 9.87496 103.306 9.73496C103.146 9.58496 103.026 9.41496 102.946 9.22496C102.876 9.03496 102.841 8.83496 102.841 8.62496C102.841 8.28496 102.931 7.98496 103.111 7.72496C103.301 7.46496 103.571 7.23496 103.921 7.03496C104.271 6.83496 104.696 6.65496 105.196 6.49496C105.706 6.32496 106.286 6.15996 106.936 5.99996C106.916 5.60996 106.836 5.29496 106.696 5.05496C106.556 4.81496 106.391 4.62996 106.201 4.49996C106.011 4.35996 105.811 4.26996 105.601 4.22996C105.391 4.17996 105.211 4.15496 105.061 4.15496C104.801 4.15496 104.571 4.19496 104.371 4.27496C104.171 4.34496 103.996 4.44496 103.846 4.57496C103.696 4.69496 103.571 4.83496 103.471 4.99496C103.381 5.15496 103.311 5.31496 103.261 5.47496H103.126V4.30496C103.216 4.30496 103.321 4.27496 103.441 4.21496C103.561 4.14496 103.701 4.06996 103.861 3.98996C104.031 3.90996 104.231 3.83996 104.461 3.77996C104.701 3.70996 104.986 3.67496 105.316 3.67496C105.866 3.67496 106.311 3.74496 106.651 3.88496C106.991 4.02496 107.251 4.20996 107.431 4.43996C107.621 4.66996 107.746 4.93496 107.806 5.23496C107.866 5.52496 107.896 5.82496 107.896 6.13496V9.10496C107.896 9.30496 107.946 9.49496 108.046 9.67496C108.146 9.84496 108.281 9.92996 108.451 9.92996V10.08H106.936ZM106.936 8.65496V6.50996L106.786 6.53996C106.546 6.59996 106.251 6.67996 105.901 6.77996C105.561 6.87996 105.236 7.00996 104.926 7.16996C104.616 7.32996 104.351 7.51996 104.131 7.73996C103.911 7.95996 103.801 8.21496 103.801 8.50496C103.801 8.82496 103.931 9.08996 104.191 9.29996C104.451 9.50996 104.791 9.61496 105.211 9.61496C105.541 9.61496 105.831 9.54496 106.081 9.40496C106.331 9.25496 106.561 9.06496 106.771 8.83496L106.936 8.65496ZM113.476 3.67496C114.016 3.67496 114.481 3.76996 114.871 3.95996C115.271 4.13996 115.601 4.37996 115.861 4.67996C116.131 4.97996 116.331 5.32496 116.461 5.71496C116.591 6.10496 116.656 6.50496 116.656 6.91496C116.656 7.31496 116.591 7.70996 116.461 8.09996C116.341 8.48996 116.151 8.83996 115.891 9.14996C115.641 9.45996 115.326 9.70996 114.946 9.89996C114.566 10.09 114.116 10.185 113.596 10.185C113.286 10.185 112.966 10.105 112.636 9.94496C112.316 9.77496 112.026 9.56496 111.766 9.31496V12.405C111.766 12.485 111.776 12.57 111.796 12.66C111.816 12.76 111.846 12.85 111.886 12.93C111.936 13.01 111.986 13.08 112.036 13.14C112.096 13.2 112.166 13.23 112.246 13.23V13.38H110.296V13.23C110.366 13.23 110.431 13.2 110.491 13.14C110.551 13.08 110.601 13.01 110.641 12.93C110.691 12.85 110.726 12.76 110.746 12.66C110.766 12.57 110.776 12.485 110.776 12.405V4.66496C110.776 4.57496 110.771 4.48996 110.761 4.40996C110.761 4.31996 110.746 4.24496 110.716 4.18496C110.686 4.11496 110.636 4.05996 110.566 4.01996C110.506 3.96996 110.416 3.93996 110.296 3.92996V3.77996H111.766V4.43996C111.966 4.19996 112.206 4.01496 112.486 3.88496C112.776 3.74496 113.106 3.67496 113.476 3.67496ZM113.611 9.67496C113.961 9.66496 114.266 9.58496 114.526 9.43496C114.786 9.28496 115.001 9.08996 115.171 8.84996C115.341 8.60996 115.466 8.34496 115.546 8.05496C115.626 7.75496 115.666 7.44496 115.666 7.12496C115.666 6.76496 115.616 6.40996 115.516 6.05996C115.416 5.70996 115.271 5.39996 115.081 5.12996C114.891 4.84996 114.656 4.62496 114.376 4.45496C114.106 4.27496 113.796 4.18496 113.446 4.18496C113.236 4.18496 113.026 4.22496 112.816 4.30496C112.616 4.38496 112.436 4.49996 112.276 4.64996C112.126 4.79996 112.001 4.97996 111.901 5.18996C111.811 5.38996 111.766 5.61496 111.766 5.86496V7.82996C111.766 8.09996 111.821 8.34996 111.931 8.57996C112.041 8.79996 112.181 8.99496 112.351 9.16496C112.531 9.32496 112.731 9.44996 112.951 9.53996C113.171 9.62996 113.391 9.67496 113.611 9.67496ZM118.586 8.68496C118.876 8.68496 119.086 8.78496 119.216 8.98496C119.356 9.18496 119.426 9.41496 119.426 9.67496C119.426 9.82496 119.406 9.98996 119.366 10.17C119.326 10.36 119.246 10.545 119.126 10.725C119.016 10.915 118.851 11.1 118.631 11.28C118.421 11.47 118.141 11.645 117.791 11.805L117.716 11.67C117.916 11.49 118.071 11.325 118.181 11.175C118.301 11.035 118.386 10.905 118.436 10.785C118.496 10.675 118.531 10.57 118.541 10.47C118.561 10.37 118.571 10.265 118.571 10.155C118.571 10.075 118.546 10.015 118.496 9.97496C118.446 9.92496 118.391 9.87996 118.331 9.83996C118.251 9.78996 118.171 9.73496 118.091 9.67496C118.011 9.60496 117.971 9.48996 117.971 9.32996C117.971 9.13996 118.031 8.98496 118.151 8.86496C118.271 8.74496 118.416 8.68496 118.586 8.68496ZM130.119 0.0299558C130.899 0.0299558 131.599 0.169956 132.219 0.449956C132.839 0.719956 133.364 1.08996 133.794 1.55996C134.234 2.01996 134.569 2.55996 134.799 3.17996C135.039 3.78996 135.159 4.42996 135.159 5.09996C135.159 5.84996 135.019 6.53996 134.739 7.16996C134.469 7.79996 134.094 8.33996 133.614 8.78996C133.134 9.23996 132.574 9.59496 131.934 9.85496C131.304 10.105 130.629 10.23 129.909 10.23C129.139 10.23 128.444 10.09 127.824 9.80996C127.214 9.52996 126.694 9.15996 126.264 8.69996C125.844 8.23996 125.519 7.70996 125.289 7.10996C125.059 6.50996 124.944 5.88496 124.944 5.23496C124.944 4.59496 125.059 3.96496 125.289 3.34496C125.519 2.71496 125.854 2.15496 126.294 1.66496C126.744 1.17496 127.289 0.779956 127.929 0.479955C128.569 0.179956 129.299 0.0299558 130.119 0.0299558ZM130.104 9.70496C130.774 9.67496 131.359 9.52496 131.859 9.25496C132.369 8.97496 132.794 8.62496 133.134 8.20496C133.474 7.77496 133.724 7.30496 133.884 6.79496C134.054 6.28496 134.139 5.77996 134.139 5.27996C134.139 4.72996 134.039 4.17496 133.839 3.61496C133.639 3.05496 133.354 2.54996 132.984 2.09996C132.614 1.63996 132.169 1.26996 131.649 0.989956C131.139 0.699956 130.564 0.554955 129.924 0.554955C129.304 0.554955 128.749 0.694955 128.259 0.974955C127.769 1.24496 127.349 1.59496 126.999 2.02496C126.659 2.45496 126.399 2.93496 126.219 3.46496C126.039 3.99496 125.949 4.51496 125.949 5.02496C125.949 5.57496 126.054 6.12996 126.264 6.68996C126.474 7.23996 126.764 7.73996 127.134 8.18996C127.504 8.63996 127.939 9.00496 128.439 9.28496C128.949 9.56496 129.504 9.70496 130.104 9.70496ZM143.218 3.67496C143.708 3.67496 144.123 3.76496 144.463 3.94496C144.813 4.12496 145.098 4.36496 145.318 4.66496C145.538 4.96496 145.693 5.30996 145.783 5.69996C145.883 6.07996 145.933 6.47496 145.933 6.88496C145.933 7.28496 145.873 7.68496 145.753 8.08496C145.643 8.47496 145.468 8.82496 145.228 9.13496C144.998 9.44496 144.703 9.69996 144.343 9.89996C143.983 10.09 143.558 10.185 143.068 10.185C142.878 10.185 142.698 10.155 142.528 10.095C142.368 10.045 142.218 9.98496 142.078 9.91496C141.918 9.83496 141.768 9.73996 141.628 9.62996V12.405C141.628 12.485 141.638 12.57 141.658 12.66C141.678 12.76 141.708 12.85 141.748 12.93C141.798 13.01 141.848 13.08 141.898 13.14C141.958 13.2 142.028 13.23 142.108 13.23V13.38H140.188V13.23C140.268 13.23 140.338 13.2 140.398 13.14C140.458 13.09 140.508 13.02 140.548 12.93C140.588 12.85 140.618 12.76 140.638 12.66C140.658 12.57 140.668 12.485 140.668 12.405V9.62996C140.568 9.72996 140.403 9.84996 140.173 9.98996C139.953 10.12 139.643 10.185 139.243 10.185C138.753 10.185 138.328 10.09 137.968 9.89996C137.608 9.69996 137.308 9.44496 137.068 9.13496C136.828 8.81496 136.648 8.45496 136.528 8.05496C136.418 7.65496 136.363 7.24496 136.363 6.82496C136.363 6.42496 136.413 6.03996 136.513 5.66996C136.613 5.28996 136.768 4.95496 136.978 4.66496C137.198 4.36496 137.478 4.12496 137.818 3.94496C138.168 3.76496 138.588 3.67496 139.078 3.67496C139.558 3.67496 139.913 3.74496 140.143 3.88496C140.383 4.01496 140.558 4.13496 140.668 4.24496V2.45996C140.668 2.38996 140.658 2.31496 140.638 2.23496C140.618 2.14496 140.588 2.05996 140.548 1.97996C140.508 1.89996 140.458 1.83496 140.398 1.78496C140.338 1.72496 140.268 1.69496 140.188 1.69496V1.54496H142.108V1.69496C142.038 1.69496 141.973 1.72496 141.913 1.78496C141.853 1.83496 141.803 1.89996 141.763 1.97996C141.723 2.04996 141.688 2.12996 141.658 2.21996C141.638 2.30996 141.628 2.38996 141.628 2.45996V4.22996C141.738 4.12996 141.913 4.01496 142.153 3.88496C142.393 3.74496 142.748 3.67496 143.218 3.67496ZM139.348 9.67496C139.538 9.67496 139.713 9.62996 139.873 9.53996C140.033 9.44996 140.173 9.33496 140.293 9.19496C140.413 9.05496 140.503 8.90496 140.563 8.74496C140.633 8.57496 140.668 8.41496 140.668 8.26496V5.72996C140.668 5.50996 140.623 5.30996 140.533 5.12996C140.453 4.93996 140.343 4.77496 140.203 4.63496C140.073 4.49496 139.918 4.38496 139.738 4.30496C139.568 4.22496 139.388 4.18496 139.198 4.18496C138.848 4.18496 138.553 4.25496 138.313 4.39496C138.073 4.52496 137.878 4.70496 137.728 4.93496C137.578 5.16496 137.468 5.42996 137.398 5.72996C137.328 6.01996 137.293 6.31996 137.293 6.62996C137.293 6.99996 137.338 7.36996 137.428 7.73996C137.518 8.09996 137.648 8.42496 137.818 8.71496C137.998 8.99496 138.213 9.22496 138.463 9.40496C138.723 9.58496 139.018 9.67496 139.348 9.67496ZM143.008 9.67496C143.358 9.67496 143.658 9.60496 143.908 9.46496C144.158 9.32496 144.363 9.13996 144.523 8.90996C144.693 8.66996 144.818 8.40496 144.898 8.11496C144.978 7.81496 145.018 7.50496 145.018 7.18496C145.018 6.81496 144.978 6.45496 144.898 6.10496C144.818 5.74496 144.698 5.42496 144.538 5.14496C144.378 4.86496 144.173 4.63996 143.923 4.46996C143.683 4.28996 143.398 4.19996 143.068 4.19996C142.648 4.19996 142.303 4.34496 142.033 4.63496C141.763 4.91496 141.628 5.27496 141.628 5.71496V8.24996C141.628 8.40996 141.663 8.57496 141.733 8.74496C141.813 8.90496 141.913 9.05496 142.033 9.19496C142.163 9.33496 142.313 9.44996 142.483 9.53996C142.653 9.62996 142.828 9.67496 143.008 9.67496ZM153.527 9.10496C153.527 9.18496 153.537 9.27496 153.557 9.37496C153.587 9.46496 153.622 9.54996 153.662 9.62996C153.702 9.70996 153.752 9.77996 153.812 9.83996C153.882 9.89996 153.947 9.92996 154.007 9.92996V10.08H152.087V9.92996C152.157 9.92996 152.222 9.90496 152.282 9.85496C152.342 9.79496 152.392 9.72496 152.432 9.64496C152.472 9.55496 152.502 9.46496 152.522 9.37496C152.542 9.27496 152.552 9.18496 152.552 9.10496V5.50496L148.982 8.99996V9.10496C148.982 9.18496 148.992 9.27496 149.012 9.37496C149.032 9.46496 149.062 9.54996 149.102 9.62996C149.142 9.70996 149.187 9.77996 149.237 9.83996C149.297 9.89996 149.362 9.92996 149.432 9.92996V10.08H147.527V9.92996C147.597 9.92996 147.662 9.90496 147.722 9.85496C147.782 9.79496 147.832 9.72496 147.872 9.64496C147.912 9.55496 147.942 9.46496 147.962 9.37496C147.982 9.27496 147.992 9.18496 147.992 9.10496V4.70996C147.992 4.63996 147.982 4.55996 147.962 4.46996C147.942 4.37996 147.912 4.29496 147.872 4.21496C147.832 4.13496 147.782 4.06996 147.722 4.01996C147.662 3.95996 147.597 3.92996 147.527 3.92996V3.77996H149.432V3.92996C149.352 3.92996 149.282 3.95996 149.222 4.01996C149.172 4.06996 149.127 4.13496 149.087 4.21496C149.057 4.29496 149.032 4.37996 149.012 4.46996C148.992 4.55996 148.982 4.63996 148.982 4.70996V8.29496L152.552 4.79996V4.70996C152.552 4.63996 152.542 4.55996 152.522 4.46996C152.502 4.37996 152.472 4.29496 152.432 4.21496C152.392 4.13496 152.342 4.06996 152.282 4.01996C152.222 3.95996 152.157 3.92996 152.087 3.92996V3.77996H154.007V3.92996C153.927 3.92996 153.852 3.95996 153.782 4.01996C153.722 4.06996 153.672 4.13496 153.632 4.21496C153.602 4.29496 153.577 4.37996 153.557 4.46996C153.537 4.55996 153.527 4.63996 153.527 4.70996V9.10496ZM162.711 9.58496V11.4H162.561C162.561 11.27 162.526 11.13 162.456 10.98C162.396 10.83 162.311 10.685 162.201 10.545C162.091 10.415 161.961 10.305 161.811 10.215C161.671 10.125 161.521 10.08 161.361 10.08H155.916V9.92996C155.986 9.92996 156.046 9.90496 156.096 9.85496C156.156 9.79496 156.206 9.72496 156.246 9.64496C156.286 9.55496 156.316 9.46496 156.336 9.37496C156.356 9.28496 156.366 9.20996 156.366 9.14996V4.75496C156.366 4.68496 156.356 4.59996 156.336 4.49996C156.326 4.39996 156.306 4.30996 156.276 4.22996C156.246 4.14996 156.201 4.07996 156.141 4.01996C156.081 3.95996 156.006 3.92996 155.916 3.92996V3.77996H157.821V3.92996C157.731 3.92996 157.656 3.95996 157.596 4.01996C157.546 4.06996 157.501 4.13996 157.461 4.22996C157.421 4.30996 157.391 4.39996 157.371 4.49996C157.361 4.58996 157.356 4.67496 157.356 4.75496V9.58496H160.626V4.75496C160.626 4.68496 160.616 4.59996 160.596 4.49996C160.586 4.39996 160.561 4.30996 160.521 4.22996C160.481 4.14996 160.431 4.07996 160.371 4.01996C160.321 3.95996 160.251 3.92996 160.161 3.92996V3.77996H162.066V3.92996C161.976 3.92996 161.901 3.95996 161.841 4.01996C161.791 4.06996 161.746 4.13996 161.706 4.22996C161.676 4.30996 161.651 4.39996 161.631 4.49996C161.621 4.58996 161.616 4.67496 161.616 4.75496V8.75996C161.616 8.95996 161.656 9.14996 161.736 9.32996C161.826 9.49996 161.991 9.58496 162.231 9.58496H162.711ZM164.867 7.04996C164.907 7.39996 164.992 7.73496 165.122 8.05496C165.252 8.36496 165.422 8.63996 165.632 8.87996C165.852 9.11996 166.117 9.31496 166.427 9.46496C166.737 9.60496 167.097 9.67496 167.507 9.67496C167.727 9.67496 167.957 9.64496 168.197 9.58496C168.447 9.51496 168.677 9.41996 168.887 9.29996C169.097 9.17996 169.282 9.03496 169.442 8.86496C169.612 8.68496 169.727 8.48496 169.787 8.26496H169.922V9.38996C169.862 9.38996 169.792 9.40996 169.712 9.44996C169.642 9.48996 169.557 9.53996 169.457 9.59996C169.257 9.71996 168.987 9.84996 168.647 9.98996C168.307 10.12 167.857 10.185 167.297 10.185C166.847 10.185 166.417 10.12 166.007 9.98996C165.607 9.85996 165.252 9.65996 164.942 9.38996C164.632 9.11996 164.382 8.77496 164.192 8.35496C164.012 7.93496 163.922 7.43496 163.922 6.85496C163.922 6.48496 163.982 6.10996 164.102 5.72996C164.232 5.34996 164.422 5.00996 164.672 4.70996C164.932 4.39996 165.262 4.14996 165.662 3.95996C166.062 3.76996 166.542 3.67496 167.102 3.67496C167.602 3.67496 168.037 3.75996 168.407 3.92996C168.787 4.09996 169.097 4.33496 169.337 4.63496C169.587 4.93496 169.772 5.28996 169.892 5.69996C170.012 6.10996 170.072 6.55996 170.072 7.04996H164.867ZM167.042 4.16996C166.692 4.16996 166.387 4.23996 166.127 4.37996C165.877 4.51996 165.662 4.69996 165.482 4.91996C165.302 5.13996 165.162 5.38996 165.062 5.66996C164.962 5.94996 164.897 6.22996 164.867 6.50996H169.142C169.132 6.21996 169.077 5.93496 168.977 5.65496C168.887 5.37496 168.757 5.12496 168.587 4.90496C168.417 4.68496 168.202 4.50996 167.942 4.37996C167.682 4.23996 167.382 4.16996 167.042 4.16996ZM174.176 3.67496C174.716 3.67496 175.181 3.76996 175.571 3.95996C175.971 4.13996 176.301 4.37996 176.561 4.67996C176.831 4.97996 177.031 5.32496 177.161 5.71496C177.291 6.10496 177.356 6.50496 177.356 6.91496C177.356 7.31496 177.291 7.70996 177.161 8.09996C177.041 8.48996 176.851 8.83996 176.591 9.14996C176.341 9.45996 176.026 9.70996 175.646 9.89996C175.266 10.09 174.816 10.185 174.296 10.185C173.986 10.185 173.666 10.105 173.336 9.94496C173.016 9.77496 172.726 9.56496 172.466 9.31496V12.405C172.466 12.485 172.476 12.57 172.496 12.66C172.516 12.76 172.546 12.85 172.586 12.93C172.636 13.01 172.686 13.08 172.736 13.14C172.796 13.2 172.866 13.23 172.946 13.23V13.38H170.996V13.23C171.066 13.23 171.131 13.2 171.191 13.14C171.251 13.08 171.301 13.01 171.341 12.93C171.391 12.85 171.426 12.76 171.446 12.66C171.466 12.57 171.476 12.485 171.476 12.405V4.66496C171.476 4.57496 171.471 4.48996 171.461 4.40996C171.461 4.31996 171.446 4.24496 171.416 4.18496C171.386 4.11496 171.336 4.05996 171.266 4.01996C171.206 3.96996 171.116 3.93996 170.996 3.92996V3.77996H172.466V4.43996C172.666 4.19996 172.906 4.01496 173.186 3.88496C173.476 3.74496 173.806 3.67496 174.176 3.67496ZM174.311 9.67496C174.661 9.66496 174.966 9.58496 175.226 9.43496C175.486 9.28496 175.701 9.08996 175.871 8.84996C176.041 8.60996 176.166 8.34496 176.246 8.05496C176.326 7.75496 176.366 7.44496 176.366 7.12496C176.366 6.76496 176.316 6.40996 176.216 6.05996C176.116 5.70996 175.971 5.39996 175.781 5.12996C175.591 4.84996 175.356 4.62496 175.076 4.45496C174.806 4.27496 174.496 4.18496 174.146 4.18496C173.936 4.18496 173.726 4.22496 173.516 4.30496C173.316 4.38496 173.136 4.49996 172.976 4.64996C172.826 4.79996 172.701 4.97996 172.601 5.18996C172.511 5.38996 172.466 5.61496 172.466 5.86496V7.82996C172.466 8.09996 172.521 8.34996 172.631 8.57996C172.741 8.79996 172.881 8.99496 173.051 9.16496C173.231 9.32496 173.431 9.44996 173.651 9.53996C173.871 9.62996 174.091 9.67496 174.311 9.67496ZM184.686 9.53996C184.606 9.53996 184.531 9.55996 184.461 9.59996C184.391 9.62996 184.311 9.66996 184.221 9.71996C184.051 9.81996 183.826 9.92496 183.546 10.035C183.266 10.135 182.916 10.185 182.496 10.185C181.986 10.185 181.516 10.105 181.086 9.94496C180.666 9.77496 180.301 9.54496 179.991 9.25496C179.681 8.95496 179.441 8.60996 179.271 8.21996C179.101 7.81996 179.016 7.38996 179.016 6.92996C179.016 6.49996 179.091 6.08996 179.241 5.69996C179.401 5.30996 179.626 4.96496 179.916 4.66496C180.206 4.36496 180.561 4.12496 180.981 3.94496C181.411 3.76496 181.896 3.67496 182.436 3.67496C182.806 3.67496 183.106 3.71996 183.336 3.80996C183.566 3.88996 183.761 3.96996 183.921 4.04996C184.011 4.09996 184.096 4.13996 184.176 4.16996C184.266 4.19996 184.356 4.21496 184.446 4.21496V5.35496H184.296C184.246 5.16496 184.156 4.99996 184.026 4.85996C183.896 4.70996 183.746 4.58496 183.576 4.48496C183.406 4.38496 183.221 4.30996 183.021 4.25996C182.821 4.20996 182.626 4.18496 182.436 4.18496C182.026 4.18496 181.666 4.25996 181.356 4.40996C181.046 4.54996 180.791 4.73996 180.591 4.97996C180.391 5.20996 180.241 5.47496 180.141 5.77496C180.041 6.07496 179.991 6.38496 179.991 6.70496C179.991 7.07496 180.046 7.43996 180.156 7.79996C180.276 8.14996 180.441 8.46496 180.651 8.74496C180.871 9.02496 181.136 9.24996 181.446 9.41996C181.766 9.58996 182.126 9.67496 182.526 9.67496C182.806 9.67496 183.066 9.63496 183.306 9.55496C183.546 9.47496 183.751 9.36996 183.921 9.23996C184.101 9.10996 184.241 8.96996 184.341 8.81996C184.451 8.65996 184.516 8.50996 184.536 8.36996H184.686V9.53996ZM190.679 8.90996C190.739 9.01996 190.819 9.13496 190.919 9.25496C191.019 9.37496 191.129 9.48496 191.249 9.58496C191.379 9.68496 191.509 9.76996 191.639 9.83996C191.769 9.89996 191.894 9.92996 192.014 9.92996V10.08H191.444C190.984 10.08 190.629 9.98496 190.379 9.79496C190.129 9.60496 189.934 9.37996 189.794 9.11996L189.089 7.78496C188.979 7.57496 188.794 7.39496 188.534 7.24496C188.274 7.08496 187.999 7.00496 187.709 7.00496V9.13496C187.709 9.21496 187.714 9.29996 187.724 9.38996C187.744 9.47996 187.774 9.56496 187.814 9.64496C187.854 9.72496 187.904 9.79496 187.964 9.85496C188.024 9.90496 188.094 9.92996 188.174 9.92996V10.08H186.239V9.92996C186.309 9.92996 186.374 9.90496 186.434 9.85496C186.504 9.79496 186.559 9.72496 186.599 9.64496C186.639 9.56496 186.669 9.47996 186.689 9.38996C186.709 9.29996 186.719 9.21496 186.719 9.13496V4.72496C186.719 4.65496 186.709 4.57496 186.689 4.48496C186.669 4.38496 186.639 4.29496 186.599 4.21496C186.569 4.13496 186.524 4.06996 186.464 4.01996C186.404 3.95996 186.329 3.92996 186.239 3.92996V3.77996H188.159V3.92996C188.089 3.92996 188.024 3.95996 187.964 4.01996C187.914 4.06996 187.869 4.13496 187.829 4.21496C187.789 4.29496 187.759 4.38496 187.739 4.48496C187.719 4.57496 187.709 4.65496 187.709 4.72496V6.26996C188.139 5.88996 188.564 5.52496 188.984 5.17496C189.404 4.81496 189.829 4.44496 190.259 4.06496C190.259 4.05496 190.264 4.04496 190.274 4.03496C190.284 4.02496 190.289 4.01496 190.289 4.00496C190.289 3.95496 190.264 3.92996 190.214 3.92996V3.77996H191.519V3.92996C191.469 3.92996 191.409 3.94496 191.339 3.97496C191.269 4.00496 191.199 4.03996 191.129 4.07996C191.049 4.11996 190.969 4.16996 190.889 4.22996C190.439 4.60996 189.989 4.99996 189.539 5.39996C189.089 5.78996 188.639 6.17496 188.189 6.55496C188.619 6.55496 188.969 6.63496 189.239 6.79496C189.519 6.95496 189.754 7.20996 189.944 7.55996L190.679 8.90996ZM197.312 10.08V9.31496L197.237 9.38996C196.987 9.63996 196.697 9.83496 196.367 9.97496C196.047 10.115 195.657 10.185 195.197 10.185C194.847 10.185 194.547 10.145 194.297 10.065C194.047 9.98496 193.842 9.87496 193.682 9.73496C193.522 9.58496 193.402 9.41496 193.322 9.22496C193.252 9.03496 193.217 8.83496 193.217 8.62496C193.217 8.28496 193.307 7.98496 193.487 7.72496C193.677 7.46496 193.947 7.23496 194.297 7.03496C194.647 6.83496 195.072 6.65496 195.572 6.49496C196.082 6.32496 196.662 6.15996 197.312 5.99996C197.292 5.60996 197.212 5.29496 197.072 5.05496C196.932 4.81496 196.767 4.62996 196.577 4.49996C196.387 4.35996 196.187 4.26996 195.977 4.22996C195.767 4.17996 195.587 4.15496 195.437 4.15496C195.177 4.15496 194.947 4.19496 194.747 4.27496C194.547 4.34496 194.372 4.44496 194.222 4.57496C194.072 4.69496 193.947 4.83496 193.847 4.99496C193.757 5.15496 193.687 5.31496 193.637 5.47496H193.502V4.30496C193.592 4.30496 193.697 4.27496 193.817 4.21496C193.937 4.14496 194.077 4.06996 194.237 3.98996C194.407 3.90996 194.607 3.83996 194.837 3.77996C195.077 3.70996 195.362 3.67496 195.692 3.67496C196.242 3.67496 196.687 3.74496 197.027 3.88496C197.367 4.02496 197.627 4.20996 197.807 4.43996C197.997 4.66996 198.122 4.93496 198.182 5.23496C198.242 5.52496 198.272 5.82496 198.272 6.13496V9.10496C198.272 9.30496 198.322 9.49496 198.422 9.67496C198.522 9.84496 198.657 9.92996 198.827 9.92996V10.08H197.312ZM197.312 8.65496V6.50996L197.162 6.53996C196.922 6.59996 196.627 6.67996 196.277 6.77996C195.937 6.87996 195.612 7.00996 195.302 7.16996C194.992 7.32996 194.727 7.51996 194.507 7.73996C194.287 7.95996 194.177 8.21496 194.177 8.50496C194.177 8.82496 194.307 9.08996 194.567 9.29996C194.827 9.50996 195.167 9.61496 195.587 9.61496C195.917 9.61496 196.207 9.54496 196.457 9.40496C196.707 9.25496 196.937 9.06496 197.147 8.83496L197.312 8.65496ZM205.442 9.10496C205.442 9.18496 205.452 9.27496 205.472 9.37496C205.492 9.46496 205.522 9.55496 205.562 9.64496C205.612 9.72496 205.662 9.79496 205.712 9.85496C205.772 9.90496 205.842 9.92996 205.922 9.92996V10.08H203.972V9.92996C204.042 9.92996 204.107 9.89996 204.167 9.83996C204.227 9.77996 204.277 9.70996 204.317 9.62996C204.367 9.54996 204.402 9.46496 204.422 9.37496C204.442 9.27496 204.452 9.18496 204.452 9.10496V7.00496C204.342 7.02496 204.217 7.08496 204.077 7.18496C203.937 7.27496 203.792 7.39496 203.642 7.54496C203.492 7.68496 203.347 7.83996 203.207 8.00996C203.067 8.17996 202.937 8.34996 202.817 8.51996C202.717 8.65996 202.632 8.77496 202.562 8.86496C202.492 8.95496 202.432 9.03996 202.382 9.11996C202.282 9.24996 202.182 9.37496 202.082 9.49496C201.982 9.60496 201.867 9.70496 201.737 9.79496C201.617 9.88496 201.472 9.95496 201.302 10.005C201.132 10.055 200.932 10.08 200.702 10.08H200.147V9.92996C200.267 9.92996 200.387 9.89496 200.507 9.82496C200.637 9.75496 200.762 9.66996 200.882 9.56996C201.002 9.45996 201.112 9.34496 201.212 9.22496C201.322 9.09496 201.417 8.97496 201.497 8.86496L201.962 8.21996C202.132 7.98996 202.307 7.76496 202.487 7.54496C202.667 7.31496 202.872 7.13496 203.102 7.00496C202.742 6.99496 202.422 6.94496 202.142 6.85496C201.862 6.76496 201.627 6.64496 201.437 6.49496C201.247 6.34496 201.102 6.17496 201.002 5.98496C200.912 5.78496 200.867 5.57496 200.867 5.35496C200.867 5.14496 200.912 4.94496 201.002 4.75496C201.102 4.56496 201.257 4.39996 201.467 4.25996C201.677 4.10996 201.942 3.99496 202.262 3.91496C202.592 3.82496 202.987 3.77996 203.447 3.77996H205.922V3.92996C205.842 3.92996 205.772 3.95996 205.712 4.01996C205.662 4.06996 205.612 4.13496 205.562 4.21496C205.522 4.29496 205.492 4.37996 205.472 4.46996C205.452 4.55996 205.442 4.63996 205.442 4.70996V9.10496ZM201.842 5.26496C201.842 5.41496 201.887 5.56496 201.977 5.71496C202.077 5.86496 202.207 5.99996 202.367 6.11996C202.537 6.23996 202.727 6.33996 202.937 6.41996C203.147 6.48996 203.372 6.52496 203.612 6.52496H204.452V4.25996H203.477C202.877 4.25996 202.452 4.35496 202.202 4.54496C201.962 4.73496 201.842 4.97496 201.842 5.26496ZM214.562 12.225C214.422 12.645 214.242 12.93 214.022 13.08C213.812 13.23 213.592 13.305 213.362 13.305C213.212 13.305 213.077 13.28 212.957 13.23C212.837 13.18 212.732 13.125 212.642 13.065C212.552 13.005 212.482 12.95 212.432 12.9C212.392 12.85 212.372 12.825 212.372 12.825L212.867 11.61C212.907 11.77 212.957 11.905 213.017 12.015C213.067 12.115 213.137 12.205 213.227 12.285C213.317 12.365 213.427 12.405 213.557 12.405C213.797 12.405 213.987 12.23 214.127 11.88L214.847 10.035L212.447 4.57496C212.367 4.40496 212.282 4.25496 212.192 4.12496C212.112 3.99496 211.972 3.92996 211.772 3.92996V3.77996H213.707V3.92996C213.667 3.92996 213.617 3.96496 213.557 4.03496C213.497 4.10496 213.467 4.19496 213.467 4.30496C213.467 4.38496 213.487 4.46496 213.527 4.54496L215.372 8.78996L217.142 4.45496C217.172 4.38496 217.187 4.31996 217.187 4.25996C217.187 4.15996 217.152 4.07996 217.082 4.01996C217.022 3.95996 216.957 3.92996 216.887 3.92996V3.77996H218.342V3.92996C218.182 3.92996 218.042 3.99996 217.922 4.13996C217.812 4.26996 217.722 4.41996 217.652 4.58996L214.562 12.225ZM222.342 9.92996C222.412 9.92996 222.492 9.89996 222.582 9.83996C222.672 9.77996 222.717 9.69496 222.717 9.58496C222.717 9.56496 222.707 9.52496 222.687 9.46496C222.677 9.39496 222.652 9.31996 222.612 9.23996L220.707 4.73996L218.727 9.46496C218.557 9.87496 218.222 10.08 217.722 10.08H217.392V9.92996C217.532 9.92996 217.682 9.85996 217.842 9.71996C218.012 9.56996 218.147 9.39496 218.247 9.19496L220.287 4.42496C220.337 4.29496 220.362 4.18996 220.362 4.10996C220.362 3.98996 220.282 3.92996 220.122 3.92996V3.77996H221.337L223.647 9.17996C223.717 9.32996 223.817 9.49496 223.947 9.67496C224.087 9.84496 224.217 9.92996 224.337 9.92996V10.08H222.342V9.92996ZM231.704 9.10496C231.704 9.18496 231.714 9.27496 231.734 9.37496C231.764 9.46496 231.799 9.54996 231.839 9.62996C231.879 9.70996 231.929 9.77996 231.989 9.83996C232.059 9.89996 232.124 9.92996 232.184 9.92996V10.08H230.264V9.92996C230.334 9.92996 230.399 9.90496 230.459 9.85496C230.519 9.79496 230.569 9.72496 230.609 9.64496C230.649 9.55496 230.679 9.46496 230.699 9.37496C230.719 9.27496 230.729 9.18496 230.729 9.10496V5.50496L227.159 8.99996V9.10496C227.159 9.18496 227.169 9.27496 227.189 9.37496C227.209 9.46496 227.239 9.54996 227.279 9.62996C227.319 9.70996 227.364 9.77996 227.414 9.83996C227.474 9.89996 227.539 9.92996 227.609 9.92996V10.08H225.704V9.92996C225.774 9.92996 225.839 9.90496 225.899 9.85496C225.959 9.79496 226.009 9.72496 226.049 9.64496C226.089 9.55496 226.119 9.46496 226.139 9.37496C226.159 9.27496 226.169 9.18496 226.169 9.10496V4.70996C226.169 4.63996 226.159 4.55996 226.139 4.46996C226.119 4.37996 226.089 4.29496 226.049 4.21496C226.009 4.13496 225.959 4.06996 225.899 4.01996C225.839 3.95996 225.774 3.92996 225.704 3.92996V3.77996H227.609V3.92996C227.529 3.92996 227.459 3.95996 227.399 4.01996C227.349 4.06996 227.304 4.13496 227.264 4.21496C227.234 4.29496 227.209 4.37996 227.189 4.46996C227.169 4.55996 227.159 4.63996 227.159 4.70996V8.29496L230.729 4.79996V4.70996C230.729 4.63996 230.719 4.55996 230.699 4.46996C230.679 4.37996 230.649 4.29496 230.609 4.21496C230.569 4.13496 230.519 4.06996 230.459 4.01996C230.399 3.95996 230.334 3.92996 230.264 3.92996V3.77996H232.184V3.92996C232.104 3.92996 232.029 3.95996 231.959 4.01996C231.899 4.06996 231.849 4.13496 231.809 4.21496C231.779 4.29496 231.754 4.37996 231.734 4.46996C231.714 4.55996 231.704 4.63996 231.704 4.70996V9.10496ZM240.889 9.58496V11.4H240.739C240.739 11.27 240.704 11.13 240.634 10.98C240.574 10.83 240.489 10.685 240.379 10.545C240.269 10.415 240.139 10.305 239.989 10.215C239.849 10.125 239.699 10.08 239.539 10.08H234.094V9.92996C234.164 9.92996 234.224 9.90496 234.274 9.85496C234.334 9.79496 234.384 9.72496 234.424 9.64496C234.464 9.55496 234.494 9.46496 234.514 9.37496C234.534 9.28496 234.544 9.20996 234.544 9.14996V4.75496C234.544 4.68496 234.534 4.59996 234.514 4.49996C234.504 4.39996 234.484 4.30996 234.454 4.22996C234.424 4.14996 234.379 4.07996 234.319 4.01996C234.259 3.95996 234.184 3.92996 234.094 3.92996V3.77996H235.999V3.92996C235.909 3.92996 235.834 3.95996 235.774 4.01996C235.724 4.06996 235.679 4.13996 235.639 4.22996C235.599 4.30996 235.569 4.39996 235.549 4.49996C235.539 4.58996 235.534 4.67496 235.534 4.75496V9.58496H238.804V4.75496C238.804 4.68496 238.794 4.59996 238.774 4.49996C238.764 4.39996 238.739 4.30996 238.699 4.22996C238.659 4.14996 238.609 4.07996 238.549 4.01996C238.499 3.95996 238.429 3.92996 238.339 3.92996V3.77996H240.244V3.92996C240.154 3.92996 240.079 3.95996 240.019 4.01996C239.969 4.06996 239.924 4.13996 239.884 4.22996C239.854 4.30996 239.829 4.39996 239.809 4.49996C239.799 4.58996 239.794 4.67496 239.794 4.75496V8.75996C239.794 8.95996 239.834 9.14996 239.914 9.32996C240.004 9.49996 240.169 9.58496 240.409 9.58496H240.889ZM246.179 10.08V9.31496L246.104 9.38996C245.854 9.63996 245.564 9.83496 245.234 9.97496C244.914 10.115 244.524 10.185 244.064 10.185C243.714 10.185 243.414 10.145 243.164 10.065C242.914 9.98496 242.709 9.87496 242.549 9.73496C242.389 9.58496 242.269 9.41496 242.189 9.22496C242.119 9.03496 242.084 8.83496 242.084 8.62496C242.084 8.28496 242.174 7.98496 242.354 7.72496C242.544 7.46496 242.814 7.23496 243.164 7.03496C243.514 6.83496 243.939 6.65496 244.439 6.49496C244.949 6.32496 245.529 6.15996 246.179 5.99996C246.159 5.60996 246.079 5.29496 245.939 5.05496C245.799 4.81496 245.634 4.62996 245.444 4.49996C245.254 4.35996 245.054 4.26996 244.844 4.22996C244.634 4.17996 244.454 4.15496 244.304 4.15496C244.044 4.15496 243.814 4.19496 243.614 4.27496C243.414 4.34496 243.239 4.44496 243.089 4.57496C242.939 4.69496 242.814 4.83496 242.714 4.99496C242.624 5.15496 242.554 5.31496 242.504 5.47496H242.369V4.30496C242.459 4.30496 242.564 4.27496 242.684 4.21496C242.804 4.14496 242.944 4.06996 243.104 3.98996C243.274 3.90996 243.474 3.83996 243.704 3.77996C243.944 3.70996 244.229 3.67496 244.559 3.67496C245.109 3.67496 245.554 3.74496 245.894 3.88496C246.234 4.02496 246.494 4.20996 246.674 4.43996C246.864 4.66996 246.989 4.93496 247.049 5.23496C247.109 5.52496 247.139 5.82496 247.139 6.13496V9.10496C247.139 9.30496 247.189 9.49496 247.289 9.67496C247.389 9.84496 247.524 9.92996 247.694 9.92996V10.08H246.179ZM246.179 8.65496V6.50996L246.029 6.53996C245.789 6.59996 245.494 6.67996 245.144 6.77996C244.804 6.87996 244.479 7.00996 244.169 7.16996C243.859 7.32996 243.594 7.51996 243.374 7.73996C243.154 7.95996 243.044 8.21496 243.044 8.50496C243.044 8.82496 243.174 9.08996 243.434 9.29996C243.694 9.50996 244.034 9.61496 244.454 9.61496C244.784 9.61496 245.074 9.54496 245.324 9.40496C245.574 9.25496 245.804 9.06496 246.014 8.83496L246.179 8.65496ZM249.66 8.68496C249.95 8.68496 250.16 8.78496 250.29 8.98496C250.43 9.18496 250.5 9.41496 250.5 9.67496C250.5 9.82496 250.48 9.98996 250.44 10.17C250.4 10.36 250.32 10.545 250.2 10.725C250.09 10.915 249.925 11.1 249.705 11.28C249.495 11.47 249.215 11.645 248.865 11.805L248.79 11.67C248.99 11.49 249.145 11.325 249.255 11.175C249.375 11.035 249.46 10.905 249.51 10.785C249.57 10.675 249.605 10.57 249.615 10.47C249.635 10.37 249.645 10.265 249.645 10.155C249.645 10.075 249.62 10.015 249.57 9.97496C249.52 9.92496 249.465 9.87996 249.405 9.83996C249.325 9.78996 249.245 9.73496 249.165 9.67496C249.085 9.60496 249.045 9.48996 249.045 9.32996C249.045 9.13996 249.105 8.98496 249.225 8.86496C249.345 8.74496 249.49 8.68496 249.66 8.68496ZM259.048 10.08V9.92996C259.188 9.92996 259.293 9.90996 259.363 9.86996C259.443 9.81996 259.498 9.75996 259.528 9.68996C259.568 9.60996 259.588 9.52496 259.588 9.43496C259.598 9.33496 259.603 9.23496 259.603 9.13496V7.66496H255.508L260.578 0.479955V6.91496H261.493V7.66496H260.578V9.13496C260.578 9.33496 260.613 9.51996 260.683 9.68996C260.763 9.84996 260.923 9.92996 261.163 9.92996V10.08H259.048ZM259.603 2.71496C259.103 3.42496 258.603 4.12496 258.103 4.81496C257.613 5.50496 257.118 6.20496 256.618 6.91496H259.603V2.71496ZM265.931 6.53996C266.291 6.53996 266.606 6.47996 266.876 6.35996C267.146 6.22996 267.366 6.05996 267.536 5.84996C267.716 5.63996 267.846 5.39996 267.926 5.12996C268.016 4.85996 268.061 4.57996 268.061 4.28996C268.061 3.93996 268.006 3.58996 267.896 3.23996C267.796 2.88996 267.641 2.57996 267.431 2.30996C267.231 2.02996 266.981 1.80496 266.681 1.63496C266.391 1.45496 266.056 1.36496 265.676 1.36496C265.336 1.36496 265.036 1.43496 264.776 1.57496C264.526 1.70496 264.311 1.88496 264.131 2.11496C263.961 2.33496 263.831 2.58996 263.741 2.87996C263.661 3.16996 263.621 3.46496 263.621 3.76496C263.621 4.10496 263.671 4.43996 263.771 4.76996C263.881 5.09996 264.031 5.39996 264.221 5.66996C264.421 5.92996 264.661 6.13996 264.941 6.29996C265.231 6.45996 265.561 6.53996 265.931 6.53996ZM263.816 9.01496C263.976 9.21496 264.166 9.37496 264.386 9.49496C264.616 9.61496 264.831 9.65496 265.031 9.61496C265.461 9.61496 265.841 9.51496 266.171 9.31496C266.501 9.11496 266.781 8.84996 267.011 8.51996C267.251 8.18996 267.436 7.83496 267.566 7.45496C267.706 7.06496 267.801 6.70496 267.851 6.37496C267.561 6.63496 267.236 6.81496 266.876 6.91496C266.526 7.01496 266.151 7.06496 265.751 7.06496C265.241 7.06496 264.791 6.97996 264.401 6.80996C264.021 6.62996 263.701 6.39996 263.441 6.11996C263.191 5.82996 263.001 5.49996 262.871 5.12996C262.751 4.75996 262.691 4.37996 262.691 3.98996C262.691 3.59996 262.756 3.21496 262.886 2.83496C263.016 2.45496 263.211 2.11996 263.471 1.82996C263.731 1.52996 264.051 1.28996 264.431 1.10996C264.821 0.929955 265.271 0.839955 265.781 0.839955C266.351 0.839955 266.836 0.944955 267.236 1.15496C267.646 1.36496 267.981 1.64996 268.241 2.00996C268.501 2.35996 268.691 2.76996 268.811 3.23996C268.941 3.70996 269.006 4.19996 269.006 4.70996C269.006 5.36996 268.936 6.03496 268.796 6.70496C268.656 7.36496 268.426 7.95996 268.106 8.48996C267.796 9.00996 267.381 9.43496 266.861 9.76496C266.351 10.095 265.726 10.26 264.986 10.26C264.846 10.26 264.671 10.245 264.461 10.215C264.251 10.185 264.086 10.16 263.966 10.14C263.896 10.13 263.821 10.12 263.741 10.11C263.671 10.1 263.646 10.095 263.666 10.095V9.01496H263.816Z" fill="white"></path></svg> 