<?xml version="1.0" encoding="UTF-8"?> <svg xmlns="http://www.w3.org/2000/svg" width="153" height="17" viewBox="0 0 153 17" fill="none"><path d="M0.467949 0.503997H0.629949C0.725949 0.503997 0.833949 0.491997 0.953949 0.467997C1.07395 0.431997 1.19995 0.389997 1.33195 0.341997C1.55995 0.269997 1.82995 0.197997 2.14195 0.125997C2.45395 0.0419971 2.83195 -2.74181e-06 3.27595 -2.74181e-06C3.83995 -2.74181e-06 4.33795 0.0779973 4.76995 0.233997C5.21395 0.389997 5.58595 0.599997 5.88595 0.863997C6.19795 1.128 6.43195 1.434 6.58795 1.782C6.74395 2.13 6.82195 2.502 6.82195 2.898C6.82195 3.462 6.65995 3.966 6.33595 4.41C6.02395 4.842 5.57995 5.208 5.00395 5.508C5.81995 5.868 6.41395 6.33 6.78595 6.894C7.16995 7.446 7.36195 8.046 7.36195 8.694C7.36195 9.162 7.25995 9.612 7.05595 10.044C6.86395 10.476 6.58195 10.854 6.20995 11.178C5.83795 11.502 5.38195 11.76 4.84195 11.952C4.30195 12.144 3.68395 12.24 2.98795 12.24C2.48395 12.24 2.07595 12.198 1.76395 12.114C1.45195 12.03 1.18195 11.94 0.953949 11.844C0.809949 11.784 0.671949 11.736 0.539949 11.7C0.419949 11.664 0.293949 11.646 0.161949 11.646H-5.14369e-05V9.648H0.179949C0.287949 9.984 0.431949 10.278 0.611949 10.53C0.803949 10.77 1.01995 10.968 1.25995 11.124C1.49995 11.28 1.75795 11.4 2.03395 11.484C2.30995 11.556 2.59195 11.592 2.87995 11.592C3.25195 11.592 3.61795 11.532 3.97795 11.412C4.34995 11.28 4.67395 11.1 4.94995 10.872C5.23795 10.644 5.46595 10.368 5.63395 10.044C5.81395 9.708 5.90395 9.336 5.90395 8.928C5.90395 8.52 5.82595 8.13 5.66995 7.758C5.51395 7.374 5.29195 7.044 5.00395 6.768C4.72795 6.492 4.39795 6.27 4.01395 6.102C3.62995 5.934 3.20995 5.85 2.75395 5.85H2.10595V5.238H2.84395C3.20395 5.238 3.54595 5.19 3.86995 5.094C4.19395 4.986 4.47595 4.836 4.71595 4.644C4.96795 4.44 5.16595 4.2 5.30995 3.924C5.45395 3.648 5.52595 3.33 5.52595 2.97C5.52595 2.61 5.45395 2.286 5.30995 1.998C5.16595 1.71 4.97395 1.47 4.73395 1.278C4.50595 1.074 4.24195 0.917997 3.94195 0.809998C3.65395 0.701998 3.35395 0.647997 3.04195 0.647997C2.78995 0.647997 2.54395 0.683997 2.30395 0.755997C2.06395 0.827997 1.83595 0.941997 1.61995 1.098C1.40395 1.254 1.21195 1.446 1.04395 1.674C0.875949 1.902 0.743949 2.178 0.647949 2.502H0.467949V0.503997ZM14.236 12.06V11.142L14.146 11.232C13.846 11.532 13.498 11.766 13.102 11.934C12.718 12.102 12.25 12.186 11.698 12.186C11.278 12.186 10.918 12.138 10.618 12.042C10.318 11.946 10.072 11.814 9.87998 11.646C9.68798 11.466 9.54398 11.262 9.44798 11.034C9.36398 10.806 9.32198 10.566 9.32198 10.314C9.32198 9.906 9.42998 9.546 9.64598 9.234C9.87398 8.922 10.198 8.646 10.618 8.406C11.038 8.166 11.548 7.95 12.148 7.758C12.76 7.554 13.456 7.356 14.236 7.164C14.212 6.696 14.116 6.318 13.948 6.03C13.78 5.742 13.582 5.52 13.354 5.364C13.126 5.196 12.886 5.088 12.634 5.04C12.382 4.98 12.166 4.95 11.986 4.95C11.674 4.95 11.398 4.998 11.158 5.094C10.918 5.178 10.708 5.298 10.528 5.454C10.348 5.598 10.198 5.766 10.078 5.958C9.96998 6.15 9.88598 6.342 9.82598 6.534H9.66398V5.13C9.77198 5.13 9.89798 5.094 10.042 5.022C10.186 4.938 10.354 4.848 10.546 4.752C10.75 4.656 10.99 4.572 11.266 4.5C11.554 4.416 11.896 4.374 12.292 4.374C12.952 4.374 13.486 4.458 13.894 4.626C14.302 4.794 14.614 5.016 14.83 5.292C15.058 5.568 15.208 5.886 15.28 6.246C15.352 6.594 15.388 6.954 15.388 7.326V10.89C15.388 11.13 15.448 11.358 15.568 11.574C15.688 11.778 15.85 11.88 16.054 11.88V12.06H14.236ZM14.236 10.35V7.776L14.056 7.812C13.768 7.884 13.414 7.98 12.994 8.1C12.586 8.22 12.196 8.376 11.824 8.568C11.452 8.76 11.134 8.988 10.87 9.252C10.606 9.516 10.474 9.822 10.474 10.17C10.474 10.554 10.63 10.872 10.942 11.124C11.254 11.376 11.662 11.502 12.166 11.502C12.562 11.502 12.91 11.418 13.21 11.25C13.51 11.07 13.786 10.842 14.038 10.566L14.236 10.35ZM24.3525 6.3C24.3525 6.504 24.3105 6.696 24.2265 6.876C24.1425 7.056 24.0345 7.224 23.9025 7.38C23.7825 7.524 23.6385 7.656 23.4705 7.776C23.3025 7.884 23.1405 7.968 22.9845 8.028C23.1885 8.064 23.3985 8.13 23.6145 8.226C23.8425 8.322 24.0465 8.448 24.2265 8.604C24.4185 8.76 24.5745 8.958 24.6945 9.198C24.8145 9.426 24.8745 9.702 24.8745 10.026C24.8745 10.194 24.8325 10.398 24.7485 10.638C24.6765 10.866 24.5385 11.088 24.3345 11.304C24.1425 11.508 23.8725 11.688 23.5245 11.844C23.1885 11.988 22.7505 12.06 22.2105 12.06H18.2505V11.88C18.3465 11.88 18.4305 11.844 18.5025 11.772C18.5745 11.7 18.6345 11.616 18.6825 11.52C18.7425 11.424 18.7845 11.322 18.8085 11.214C18.8325 11.094 18.8445 10.986 18.8445 10.89V5.634C18.8445 5.442 18.7905 5.238 18.6825 5.022C18.5865 4.794 18.4425 4.68 18.2505 4.68V4.5H21.9225C22.3545 4.5 22.7205 4.56 23.0205 4.68C23.3325 4.788 23.5845 4.932 23.7765 5.112C23.9805 5.28 24.1245 5.472 24.2085 5.688C24.3045 5.892 24.3525 6.096 24.3525 6.3ZM20.0145 7.794H21.4005C21.7485 7.794 22.0365 7.758 22.2645 7.686C22.5045 7.602 22.6965 7.494 22.8405 7.362C22.9845 7.23 23.0865 7.08 23.1465 6.912C23.2185 6.744 23.2545 6.57 23.2545 6.39C23.2545 6.246 23.2125 6.096 23.1285 5.94C23.0445 5.784 22.9185 5.646 22.7505 5.526C22.5945 5.394 22.4025 5.286 22.1745 5.202C21.9465 5.118 21.6885 5.076 21.4005 5.076H20.0145V7.794ZM21.7785 11.484C21.9225 11.484 22.1025 11.472 22.3185 11.448C22.5465 11.412 22.7625 11.346 22.9665 11.25C23.1825 11.142 23.3625 10.992 23.5065 10.8C23.6625 10.596 23.7405 10.332 23.7405 10.008C23.7405 9.66 23.6385 9.378 23.4345 9.162C23.2305 8.946 22.9905 8.784 22.7145 8.676C22.4505 8.556 22.1745 8.478 21.8865 8.442C21.5985 8.406 21.3765 8.388 21.2205 8.388H20.0145V11.484H21.7785ZM27.972 8.424C28.02 8.844 28.122 9.246 28.278 9.63C28.434 10.002 28.638 10.332 28.89 10.62C29.154 10.908 29.472 11.142 29.844 11.322C30.216 11.49 30.648 11.574 31.14 11.574C31.404 11.574 31.68 11.538 31.968 11.466C32.268 11.382 32.544 11.268 32.796 11.124C33.048 10.98 33.27 10.806 33.462 10.602C33.666 10.386 33.804 10.146 33.876 9.882H34.038V11.232C33.966 11.232 33.882 11.256 33.786 11.304C33.702 11.352 33.6 11.412 33.48 11.484C33.24 11.628 32.916 11.784 32.508 11.952C32.1 12.108 31.56 12.186 30.888 12.186C30.348 12.186 29.832 12.108 29.34 11.952C28.86 11.796 28.434 11.556 28.062 11.232C27.69 10.908 27.39 10.494 27.162 9.99C26.946 9.486 26.838 8.886 26.838 8.19C26.838 7.746 26.91 7.296 27.054 6.84C27.21 6.384 27.438 5.976 27.738 5.616C28.05 5.244 28.446 4.944 28.926 4.716C29.406 4.488 29.982 4.374 30.654 4.374C31.254 4.374 31.776 4.476 32.22 4.68C32.676 4.884 33.048 5.166 33.336 5.526C33.636 5.886 33.858 6.312 34.002 6.804C34.146 7.296 34.218 7.836 34.218 8.424H27.972ZM30.582 4.968C30.162 4.968 29.796 5.052 29.484 5.22C29.184 5.388 28.926 5.604 28.71 5.868C28.494 6.132 28.326 6.432 28.206 6.768C28.086 7.104 28.008 7.44 27.972 7.776H33.102C33.09 7.428 33.024 7.086 32.904 6.75C32.796 6.414 32.64 6.114 32.436 5.85C32.232 5.586 31.974 5.376 31.662 5.22C31.35 5.052 30.99 4.968 30.582 4.968ZM39.1431 4.374C39.7911 4.374 40.3491 4.488 40.8171 4.716C41.2971 4.932 41.6931 5.22 42.0051 5.58C42.3291 5.94 42.5691 6.354 42.7251 6.822C42.8811 7.29 42.9591 7.77 42.9591 8.262C42.9591 8.742 42.8811 9.216 42.7251 9.684C42.5811 10.152 42.3531 10.572 42.0411 10.944C41.7411 11.316 41.3631 11.616 40.9071 11.844C40.4511 12.072 39.9111 12.186 39.2871 12.186C38.9151 12.186 38.5311 12.09 38.1351 11.898C37.7511 11.694 37.4031 11.442 37.0911 11.142V14.85C37.0911 14.946 37.1031 15.048 37.1271 15.156C37.1511 15.276 37.1871 15.384 37.2351 15.48C37.2951 15.576 37.3551 15.66 37.4151 15.732C37.4871 15.804 37.5711 15.84 37.6671 15.84V16.02H35.3271V15.84C35.4111 15.84 35.4891 15.804 35.5611 15.732C35.6331 15.66 35.6931 15.576 35.7411 15.48C35.8011 15.384 35.8431 15.276 35.8671 15.156C35.8911 15.048 35.9031 14.946 35.9031 14.85V5.562C35.9031 5.454 35.8971 5.352 35.8851 5.256C35.8851 5.148 35.8671 5.058 35.8311 4.986C35.7951 4.902 35.7351 4.836 35.6511 4.788C35.5791 4.728 35.4711 4.692 35.3271 4.68V4.5H37.0911V5.292C37.3311 5.004 37.6191 4.782 37.9551 4.626C38.3031 4.458 38.6991 4.374 39.1431 4.374ZM39.3051 11.574C39.7251 11.562 40.0911 11.466 40.4031 11.286C40.7151 11.106 40.9731 10.872 41.1771 10.584C41.3811 10.296 41.5311 9.978 41.6271 9.63C41.7231 9.27 41.7711 8.898 41.7711 8.514C41.7711 8.082 41.7111 7.656 41.5911 7.236C41.4711 6.816 41.2971 6.444 41.0691 6.12C40.8411 5.784 40.5591 5.514 40.2231 5.31C39.8991 5.094 39.5271 4.986 39.1071 4.986C38.8551 4.986 38.6031 5.034 38.3511 5.13C38.1111 5.226 37.8951 5.364 37.7031 5.544C37.5231 5.724 37.3731 5.94 37.2531 6.192C37.1451 6.432 37.0911 6.702 37.0911 7.002V9.36C37.0911 9.684 37.1571 9.984 37.2891 10.26C37.4211 10.524 37.5891 10.758 37.7931 10.962C38.0091 11.154 38.2491 11.304 38.5131 11.412C38.7771 11.52 39.0411 11.574 39.3051 11.574ZM46.8047 11.466H50.0627V5.67C50.0627 5.586 50.0507 5.484 50.0267 5.364C50.0027 5.244 49.9667 5.136 49.9187 5.04C49.8827 4.944 49.8287 4.86 49.7567 4.788C49.6847 4.716 49.6067 4.68 49.5227 4.68V4.5H51.7547V4.68C51.6587 4.68 51.5747 4.716 51.5027 4.788C51.4427 4.848 51.3887 4.926 51.3407 5.022C51.3047 5.118 51.2747 5.22 51.2507 5.328C51.2267 5.424 51.2147 5.508 51.2147 5.58V11.466H54.4907V5.67C54.4907 5.586 54.4787 5.484 54.4547 5.364C54.4427 5.244 54.4127 5.136 54.3647 5.04C54.3287 4.944 54.2747 4.86 54.2027 4.788C54.1307 4.716 54.0407 4.68 53.9327 4.68V4.5H56.2007V4.68C56.1047 4.68 56.0207 4.716 55.9487 4.788C55.8887 4.86 55.8347 4.944 55.7867 5.04C55.7387 5.136 55.7027 5.244 55.6787 5.364C55.6667 5.484 55.6607 5.586 55.6607 5.67V10.944C55.6607 11.028 55.6727 11.124 55.6967 11.232C55.7207 11.34 55.7507 11.442 55.7867 11.538C55.8347 11.634 55.8887 11.718 55.9487 11.79C56.0207 11.85 56.0987 11.88 56.1827 11.88V12.06H45.1127V11.88C45.1967 11.88 45.2687 11.85 45.3287 11.79C45.3887 11.718 45.4427 11.634 45.4907 11.538C45.5387 11.442 45.5747 11.34 45.5987 11.232C45.6227 11.124 45.6347 11.028 45.6347 10.944V5.67C45.6347 5.586 45.6227 5.484 45.5987 5.364C45.5867 5.244 45.5567 5.136 45.5087 5.04C45.4727 4.944 45.4187 4.86 45.3467 4.788C45.2867 4.716 45.2087 4.68 45.1127 4.68V4.5H47.3447V4.68C47.2487 4.68 47.1647 4.716 47.0927 4.788C47.0207 4.86 46.9607 4.944 46.9127 5.04C46.8767 5.136 46.8467 5.244 46.8227 5.364C46.8107 5.484 46.8047 5.586 46.8047 5.67V11.466ZM59.3693 8.424C59.4173 8.844 59.5193 9.246 59.6753 9.63C59.8313 10.002 60.0353 10.332 60.2873 10.62C60.5513 10.908 60.8693 11.142 61.2413 11.322C61.6133 11.49 62.0453 11.574 62.5373 11.574C62.8013 11.574 63.0773 11.538 63.3653 11.466C63.6653 11.382 63.9413 11.268 64.1933 11.124C64.4453 10.98 64.6673 10.806 64.8593 10.602C65.0633 10.386 65.2013 10.146 65.2733 9.882H65.4353V11.232C65.3633 11.232 65.2793 11.256 65.1833 11.304C65.0993 11.352 64.9973 11.412 64.8773 11.484C64.6373 11.628 64.3133 11.784 63.9053 11.952C63.4973 12.108 62.9573 12.186 62.2853 12.186C61.7453 12.186 61.2293 12.108 60.7373 11.952C60.2573 11.796 59.8313 11.556 59.4593 11.232C59.0873 10.908 58.7873 10.494 58.5593 9.99C58.3433 9.486 58.2353 8.886 58.2353 8.19C58.2353 7.746 58.3073 7.296 58.4513 6.84C58.6073 6.384 58.8353 5.976 59.1353 5.616C59.4473 5.244 59.8433 4.944 60.3233 4.716C60.8033 4.488 61.3793 4.374 62.0513 4.374C62.6513 4.374 63.1733 4.476 63.6173 4.68C64.0733 4.884 64.4453 5.166 64.7333 5.526C65.0333 5.886 65.2553 6.312 65.3993 6.804C65.5433 7.296 65.6153 7.836 65.6153 8.424H59.3693ZM61.9793 4.968C61.5593 4.968 61.1933 5.052 60.8813 5.22C60.5813 5.388 60.3233 5.604 60.1073 5.868C59.8913 6.132 59.7233 6.432 59.6033 6.768C59.4833 7.104 59.4053 7.44 59.3693 7.776H64.4993C64.4873 7.428 64.4213 7.086 64.3013 6.75C64.1933 6.414 64.0373 6.114 63.8333 5.85C63.6293 5.586 63.3713 5.376 63.0593 5.22C62.7473 5.052 62.3873 4.968 61.9793 4.968ZM69.4196 10.89C69.4196 10.986 69.4316 11.094 69.4556 11.214C69.4796 11.322 69.5156 11.424 69.5636 11.52C69.6116 11.616 69.6656 11.7 69.7256 11.772C69.7976 11.844 69.8756 11.88 69.9596 11.88V12.06H67.6916V11.88C67.7756 11.88 67.8476 11.85 67.9076 11.79C67.9796 11.718 68.0396 11.634 68.0876 11.538C68.1356 11.43 68.1716 11.322 68.1956 11.214C68.2196 11.094 68.2316 10.986 68.2316 10.89V5.616C68.2316 5.532 68.2196 5.436 68.1956 5.328C68.1716 5.22 68.1356 5.118 68.0876 5.022C68.0396 4.926 67.9796 4.848 67.9076 4.788C67.8476 4.716 67.7756 4.68 67.6916 4.68V4.5H69.9596V4.68C69.8636 4.68 69.7796 4.716 69.7076 4.788C69.6476 4.848 69.5936 4.926 69.5456 5.022C69.5096 5.118 69.4796 5.22 69.4556 5.328C69.4316 5.436 69.4196 5.532 69.4196 5.616V7.794H73.5236V5.616C73.5236 5.532 73.5116 5.436 73.4876 5.328C73.4636 5.22 73.4276 5.118 73.3796 5.022C73.3436 4.926 73.2896 4.848 73.2176 4.788C73.1576 4.716 73.0796 4.68 72.9836 4.68V4.5H75.2516V4.68C75.1556 4.68 75.0716 4.716 74.9996 4.788C74.9396 4.848 74.8856 4.926 74.8376 5.022C74.7896 5.118 74.7536 5.22 74.7296 5.328C74.7176 5.436 74.7116 5.532 74.7116 5.616V10.89C74.7116 10.986 74.7236 11.094 74.7476 11.214C74.7716 11.322 74.8076 11.424 74.8556 11.52C74.9036 11.616 74.9576 11.7 75.0176 11.772C75.0896 11.844 75.1676 11.88 75.2516 11.88V12.06H72.9836V11.88C73.0676 11.88 73.1396 11.85 73.1996 11.79C73.2716 11.718 73.3316 11.634 73.3796 11.538C73.4276 11.43 73.4636 11.322 73.4876 11.214C73.5116 11.094 73.5236 10.986 73.5236 10.89V8.388H69.4196V10.89ZM84.7476 10.89C84.7476 10.986 84.7596 11.094 84.7836 11.214C84.8196 11.322 84.8616 11.424 84.9096 11.52C84.9576 11.616 85.0176 11.7 85.0896 11.772C85.1736 11.844 85.2516 11.88 85.3236 11.88V12.06H83.0196V11.88C83.1036 11.88 83.1816 11.85 83.2536 11.79C83.3256 11.718 83.3856 11.634 83.4336 11.538C83.4816 11.43 83.5176 11.322 83.5416 11.214C83.5656 11.094 83.5776 10.986 83.5776 10.89V6.57L79.2936 10.764V10.89C79.2936 10.986 79.3056 11.094 79.3296 11.214C79.3536 11.322 79.3896 11.424 79.4376 11.52C79.4856 11.616 79.5396 11.7 79.5996 11.772C79.6716 11.844 79.7496 11.88 79.8336 11.88V12.06H77.5476V11.88C77.6316 11.88 77.7096 11.85 77.7816 11.79C77.8536 11.718 77.9136 11.634 77.9616 11.538C78.0096 11.43 78.0456 11.322 78.0696 11.214C78.0936 11.094 78.1056 10.986 78.1056 10.89V5.616C78.1056 5.532 78.0936 5.436 78.0696 5.328C78.0456 5.22 78.0096 5.118 77.9616 5.022C77.9136 4.926 77.8536 4.848 77.7816 4.788C77.7096 4.716 77.6316 4.68 77.5476 4.68V4.5H79.8336V4.68C79.7376 4.68 79.6536 4.716 79.5816 4.788C79.5216 4.848 79.4676 4.926 79.4196 5.022C79.3836 5.118 79.3536 5.22 79.3296 5.328C79.3056 5.436 79.2936 5.532 79.2936 5.616V9.918L83.5776 5.724V5.616C83.5776 5.532 83.5656 5.436 83.5416 5.328C83.5176 5.22 83.4816 5.118 83.4336 5.022C83.3856 4.926 83.3256 4.848 83.2536 4.788C83.1816 4.716 83.1036 4.68 83.0196 4.68V4.5H85.3236V4.68C85.2276 4.68 85.1376 4.716 85.0536 4.788C84.9816 4.848 84.9216 4.926 84.8736 5.022C84.8376 5.118 84.8076 5.22 84.7836 5.328C84.7596 5.436 84.7476 5.532 84.7476 5.616V10.89ZM88.587 8.424C88.635 8.844 88.737 9.246 88.893 9.63C89.049 10.002 89.253 10.332 89.505 10.62C89.769 10.908 90.087 11.142 90.459 11.322C90.831 11.49 91.263 11.574 91.755 11.574C92.019 11.574 92.295 11.538 92.583 11.466C92.883 11.382 93.159 11.268 93.411 11.124C93.663 10.98 93.885 10.806 94.077 10.602C94.281 10.386 94.419 10.146 94.491 9.882H94.653V11.232C94.581 11.232 94.497 11.256 94.401 11.304C94.317 11.352 94.215 11.412 94.095 11.484C93.855 11.628 93.531 11.784 93.123 11.952C92.715 12.108 92.175 12.186 91.503 12.186C90.963 12.186 90.447 12.108 89.955 11.952C89.475 11.796 89.049 11.556 88.677 11.232C88.305 10.908 88.005 10.494 87.777 9.99C87.561 9.486 87.453 8.886 87.453 8.19C87.453 7.746 87.525 7.296 87.669 6.84C87.825 6.384 88.053 5.976 88.353 5.616C88.665 5.244 89.061 4.944 89.541 4.716C90.021 4.488 90.597 4.374 91.269 4.374C91.869 4.374 92.391 4.476 92.835 4.68C93.291 4.884 93.663 5.166 93.951 5.526C94.251 5.886 94.473 6.312 94.617 6.804C94.761 7.296 94.833 7.836 94.833 8.424H88.587ZM91.197 4.968C90.777 4.968 90.411 5.052 90.099 5.22C89.799 5.388 89.541 5.604 89.325 5.868C89.109 6.132 88.941 6.432 88.821 6.768C88.701 7.104 88.623 7.44 88.587 7.776H93.717C93.705 7.428 93.639 7.086 93.519 6.75C93.411 6.414 93.255 6.114 93.051 5.85C92.847 5.586 92.589 5.376 92.277 5.22C91.965 5.052 91.605 4.968 91.197 4.968ZM108.191 6.3C108.191 6.504 108.149 6.696 108.065 6.876C107.981 7.056 107.873 7.224 107.741 7.38C107.621 7.524 107.477 7.656 107.309 7.776C107.141 7.884 106.979 7.968 106.823 8.028C107.027 8.064 107.237 8.13 107.453 8.226C107.681 8.322 107.885 8.448 108.065 8.604C108.257 8.76 108.413 8.958 108.533 9.198C108.653 9.426 108.713 9.702 108.713 10.026C108.713 10.194 108.671 10.398 108.587 10.638C108.515 10.866 108.377 11.088 108.173 11.304C107.981 11.508 107.711 11.688 107.363 11.844C107.027 11.988 106.589 12.06 106.049 12.06H102.089V11.88C102.185 11.88 102.269 11.844 102.341 11.772C102.413 11.7 102.473 11.616 102.521 11.52C102.581 11.424 102.623 11.322 102.647 11.214C102.671 11.094 102.683 10.986 102.683 10.89V5.634C102.683 5.442 102.629 5.238 102.521 5.022C102.425 4.794 102.281 4.68 102.089 4.68V4.5H105.761C106.193 4.5 106.559 4.56 106.859 4.68C107.171 4.788 107.423 4.932 107.615 5.112C107.819 5.28 107.963 5.472 108.047 5.688C108.143 5.892 108.191 6.096 108.191 6.3ZM103.853 7.794H105.239C105.587 7.794 105.875 7.758 106.103 7.686C106.343 7.602 106.535 7.494 106.679 7.362C106.823 7.23 106.925 7.08 106.985 6.912C107.057 6.744 107.093 6.57 107.093 6.39C107.093 6.246 107.051 6.096 106.967 5.94C106.883 5.784 106.757 5.646 106.589 5.526C106.433 5.394 106.241 5.286 106.013 5.202C105.785 5.118 105.527 5.076 105.239 5.076H103.853V7.794ZM105.617 11.484C105.761 11.484 105.941 11.472 106.157 11.448C106.385 11.412 106.601 11.346 106.805 11.25C107.021 11.142 107.201 10.992 107.345 10.8C107.501 10.596 107.579 10.332 107.579 10.008C107.579 9.66 107.477 9.378 107.273 9.162C107.069 8.946 106.829 8.784 106.553 8.676C106.289 8.556 106.013 8.478 105.725 8.442C105.437 8.406 105.215 8.388 105.059 8.388H103.853V11.484H105.617ZM111.81 8.424C111.858 8.844 111.96 9.246 112.116 9.63C112.272 10.002 112.476 10.332 112.728 10.62C112.992 10.908 113.31 11.142 113.682 11.322C114.054 11.49 114.486 11.574 114.978 11.574C115.242 11.574 115.518 11.538 115.806 11.466C116.106 11.382 116.382 11.268 116.634 11.124C116.886 10.98 117.108 10.806 117.3 10.602C117.504 10.386 117.642 10.146 117.714 9.882H117.876V11.232C117.804 11.232 117.72 11.256 117.624 11.304C117.54 11.352 117.438 11.412 117.318 11.484C117.078 11.628 116.754 11.784 116.346 11.952C115.938 12.108 115.398 12.186 114.726 12.186C114.186 12.186 113.67 12.108 113.178 11.952C112.698 11.796 112.272 11.556 111.9 11.232C111.528 10.908 111.228 10.494 111 9.99C110.784 9.486 110.676 8.886 110.676 8.19C110.676 7.746 110.748 7.296 110.892 6.84C111.048 6.384 111.276 5.976 111.576 5.616C111.888 5.244 112.284 4.944 112.764 4.716C113.244 4.488 113.82 4.374 114.492 4.374C115.092 4.374 115.614 4.476 116.058 4.68C116.514 4.884 116.886 5.166 117.174 5.526C117.474 5.886 117.696 6.312 117.84 6.804C117.984 7.296 118.056 7.836 118.056 8.424H111.81ZM114.42 4.968C114 4.968 113.634 5.052 113.322 5.22C113.022 5.388 112.764 5.604 112.548 5.868C112.332 6.132 112.164 6.432 112.044 6.768C111.924 7.104 111.846 7.44 111.81 7.776H116.94C116.928 7.428 116.862 7.086 116.742 6.75C116.634 6.414 116.478 6.114 116.274 5.85C116.07 5.586 115.812 5.376 115.5 5.22C115.188 5.052 114.828 4.968 114.42 4.968ZM125.389 10.926C125.389 11.022 125.401 11.124 125.425 11.232C125.461 11.34 125.503 11.442 125.551 11.538C125.599 11.634 125.653 11.718 125.713 11.79C125.773 11.85 125.851 11.88 125.947 11.88V12.06H123.661V11.88C123.745 11.88 123.817 11.85 123.877 11.79C123.949 11.718 124.009 11.634 124.057 11.538C124.105 11.442 124.141 11.34 124.165 11.232C124.189 11.124 124.201 11.022 124.201 10.926V8.442C123.925 8.73 123.631 8.952 123.319 9.108C123.019 9.252 122.641 9.324 122.185 9.324C121.753 9.324 121.369 9.24 121.033 9.072C120.697 8.904 120.415 8.682 120.187 8.406C119.971 8.118 119.803 7.8 119.683 7.452C119.575 7.092 119.521 6.72 119.521 6.336V5.616C119.521 5.532 119.509 5.436 119.485 5.328C119.473 5.22 119.449 5.118 119.413 5.022C119.377 4.926 119.329 4.848 119.269 4.788C119.221 4.716 119.167 4.68 119.107 4.68V4.5H121.213V4.68C121.141 4.68 121.069 4.716 120.997 4.788C120.937 4.848 120.883 4.926 120.835 5.022C120.799 5.118 120.769 5.22 120.745 5.328C120.721 5.436 120.709 5.532 120.709 5.616V6.336C120.709 6.744 120.769 7.092 120.889 7.38C121.009 7.656 121.159 7.884 121.339 8.064C121.519 8.232 121.717 8.358 121.933 8.442C122.149 8.514 122.359 8.55 122.563 8.55C122.875 8.55 123.157 8.478 123.409 8.334C123.673 8.178 123.937 7.944 124.201 7.632V5.616C124.201 5.532 124.189 5.436 124.165 5.328C124.141 5.22 124.105 5.118 124.057 5.022C124.009 4.926 123.949 4.848 123.877 4.788C123.817 4.716 123.745 4.68 123.661 4.68V4.5H125.947V4.68C125.851 4.68 125.773 4.716 125.713 4.788C125.653 4.848 125.599 4.926 125.551 5.022C125.503 5.118 125.461 5.22 125.425 5.328C125.401 5.436 125.389 5.532 125.389 5.616V10.926ZM129.238 8.424C129.286 8.844 129.388 9.246 129.544 9.63C129.7 10.002 129.904 10.332 130.156 10.62C130.42 10.908 130.738 11.142 131.11 11.322C131.482 11.49 131.914 11.574 132.406 11.574C132.67 11.574 132.946 11.538 133.234 11.466C133.534 11.382 133.81 11.268 134.062 11.124C134.314 10.98 134.536 10.806 134.728 10.602C134.932 10.386 135.07 10.146 135.142 9.882H135.304V11.232C135.232 11.232 135.148 11.256 135.052 11.304C134.968 11.352 134.866 11.412 134.746 11.484C134.506 11.628 134.182 11.784 133.774 11.952C133.366 12.108 132.826 12.186 132.154 12.186C131.614 12.186 131.098 12.108 130.606 11.952C130.126 11.796 129.7 11.556 129.328 11.232C128.956 10.908 128.656 10.494 128.428 9.99C128.212 9.486 128.104 8.886 128.104 8.19C128.104 7.746 128.176 7.296 128.32 6.84C128.476 6.384 128.704 5.976 129.004 5.616C129.316 5.244 129.712 4.944 130.192 4.716C130.672 4.488 131.248 4.374 131.92 4.374C132.52 4.374 133.042 4.476 133.486 4.68C133.942 4.884 134.314 5.166 134.602 5.526C134.902 5.886 135.124 6.312 135.268 6.804C135.412 7.296 135.484 7.836 135.484 8.424H129.238ZM131.848 4.968C131.428 4.968 131.062 5.052 130.75 5.22C130.45 5.388 130.192 5.604 129.976 5.868C129.76 6.132 129.592 6.432 129.472 6.768C129.352 7.104 129.274 7.44 129.238 7.776H134.368C134.356 7.428 134.29 7.086 134.17 6.75C134.062 6.414 133.906 6.114 133.702 5.85C133.498 5.586 133.24 5.376 132.928 5.22C132.616 5.052 132.256 4.968 131.848 4.968ZM140.409 4.374C141.057 4.374 141.615 4.488 142.083 4.716C142.563 4.932 142.959 5.22 143.271 5.58C143.595 5.94 143.835 6.354 143.991 6.822C144.147 7.29 144.225 7.77 144.225 8.262C144.225 8.742 144.147 9.216 143.991 9.684C143.847 10.152 143.619 10.572 143.307 10.944C143.007 11.316 142.629 11.616 142.173 11.844C141.717 12.072 141.177 12.186 140.553 12.186C140.181 12.186 139.797 12.09 139.401 11.898C139.017 11.694 138.669 11.442 138.357 11.142V14.85C138.357 14.946 138.369 15.048 138.393 15.156C138.417 15.276 138.453 15.384 138.501 15.48C138.561 15.576 138.621 15.66 138.681 15.732C138.753 15.804 138.837 15.84 138.933 15.84V16.02H136.593V15.84C136.677 15.84 136.755 15.804 136.827 15.732C136.899 15.66 136.959 15.576 137.007 15.48C137.067 15.384 137.109 15.276 137.133 15.156C137.157 15.048 137.169 14.946 137.169 14.85V5.562C137.169 5.454 137.163 5.352 137.151 5.256C137.151 5.148 137.133 5.058 137.097 4.986C137.061 4.902 137.001 4.836 136.917 4.788C136.845 4.728 136.737 4.692 136.593 4.68V4.5H138.357V5.292C138.597 5.004 138.885 4.782 139.221 4.626C139.569 4.458 139.965 4.374 140.409 4.374ZM140.571 11.574C140.991 11.562 141.357 11.466 141.669 11.286C141.981 11.106 142.239 10.872 142.443 10.584C142.647 10.296 142.797 9.978 142.893 9.63C142.989 9.27 143.037 8.898 143.037 8.514C143.037 8.082 142.977 7.656 142.857 7.236C142.737 6.816 142.563 6.444 142.335 6.12C142.107 5.784 141.825 5.514 141.489 5.31C141.165 5.094 140.793 4.986 140.373 4.986C140.121 4.986 139.869 5.034 139.617 5.13C139.377 5.226 139.161 5.364 138.969 5.544C138.789 5.724 138.639 5.94 138.519 6.192C138.411 6.432 138.357 6.702 138.357 7.002V9.36C138.357 9.684 138.423 9.984 138.555 10.26C138.687 10.524 138.855 10.758 139.059 10.962C139.275 11.154 139.515 11.304 139.779 11.412C140.043 11.52 140.307 11.574 140.571 11.574ZM151.131 12.06V11.142L151.041 11.232C150.741 11.532 150.393 11.766 149.997 11.934C149.613 12.102 149.145 12.186 148.593 12.186C148.173 12.186 147.813 12.138 147.513 12.042C147.213 11.946 146.967 11.814 146.775 11.646C146.583 11.466 146.439 11.262 146.343 11.034C146.259 10.806 146.217 10.566 146.217 10.314C146.217 9.906 146.325 9.546 146.541 9.234C146.769 8.922 147.093 8.646 147.513 8.406C147.933 8.166 148.443 7.95 149.043 7.758C149.655 7.554 150.351 7.356 151.131 7.164C151.107 6.696 151.011 6.318 150.843 6.03C150.675 5.742 150.477 5.52 150.249 5.364C150.021 5.196 149.781 5.088 149.529 5.04C149.277 4.98 149.061 4.95 148.881 4.95C148.569 4.95 148.293 4.998 148.053 5.094C147.813 5.178 147.603 5.298 147.423 5.454C147.243 5.598 147.093 5.766 146.973 5.958C146.865 6.15 146.781 6.342 146.721 6.534H146.559V5.13C146.667 5.13 146.793 5.094 146.937 5.022C147.081 4.938 147.249 4.848 147.441 4.752C147.645 4.656 147.885 4.572 148.161 4.5C148.449 4.416 148.791 4.374 149.187 4.374C149.847 4.374 150.381 4.458 150.789 4.626C151.197 4.794 151.509 5.016 151.725 5.292C151.953 5.568 152.103 5.886 152.175 6.246C152.247 6.594 152.283 6.954 152.283 7.326V10.89C152.283 11.13 152.343 11.358 152.463 11.574C152.583 11.778 152.745 11.88 152.949 11.88V12.06H151.131ZM151.131 10.35V7.776L150.951 7.812C150.663 7.884 150.309 7.98 149.889 8.1C149.481 8.22 149.091 8.376 148.719 8.568C148.347 8.76 148.029 8.988 147.765 9.252C147.501 9.516 147.369 9.822 147.369 10.17C147.369 10.554 147.525 10.872 147.837 11.124C148.149 11.376 148.557 11.502 149.061 11.502C149.457 11.502 149.805 11.418 150.105 11.25C150.405 11.07 150.681 10.842 150.933 10.566L151.131 10.35Z" fill="white"></path></svg> 