<?xml version="1.0" encoding="UTF-8"?> <svg xmlns="http://www.w3.org/2000/svg" width="95" height="42" viewBox="0 0 95 42" fill="none"><path d="M14.1486 7.75534L16.6559 7.50305C20.3966 8.12164 22.3841 9.59506 22.6184 11.9233L22.7941 13.6695C22.8091 13.8187 22.8913 13.8858 23.0405 13.8708C23.3919 17.3632 21.8345 23.4598 18.3682 32.1605C16.6864 35.2243 15.4502 37.0221 14.6595 37.5539C13.7997 37.3992 13.2737 36.3667 13.0814 34.4563L13.0527 31.4742C12.3861 29.9433 12.0483 29.133 12.0393 29.0435L11.5468 29.093C10.2015 30.7058 8.32716 33.6533 5.9238 37.9354C4.98401 38.7838 4.51862 39.2527 4.52763 39.3423C3.69768 39.1846 3.23614 38.6431 3.14303 37.7177C3.08296 37.1208 3.0825 36.367 3.14164 35.4565C2.75923 34.9523 2.5455 34.4763 2.50045 34.0285L2.45089 33.536C5.1856 29.2507 7.18251 26.6226 8.44162 25.6516C7.28447 22.5419 6.65032 20.4348 6.53919 19.3303C6.71305 15.6645 7.4547 12.9969 8.76413 11.3274C10.1273 9.59218 11.9221 8.4015 14.1486 7.75534ZM8.58133 19.8485C8.82762 22.2961 9.69145 24.1389 11.1728 25.3768C15.3379 17.0279 17.3483 12.137 17.2042 10.7042C17.1831 10.4953 16.6486 10.127 15.6005 9.59925C11.6906 10.5957 9.79722 11.7058 9.92036 12.9297C8.67025 13.9901 8.22391 16.2964 8.58133 19.8485ZM19.1531 12.5434C18.3841 14.4901 16.7965 17.7404 14.3904 22.2942C13.4485 24.6202 13.0001 26.007 13.0452 26.4548L13.1172 27.1712C13.873 28.0901 14.4011 30.042 14.7015 33.027L14.8547 34.5493L15.6158 34.4727C19.8068 24.5834 21.8242 18.8627 21.668 17.3105C21.65 17.1314 21.5349 16.8867 21.3228 16.5764C21.4117 15.6629 21.4262 14.9077 21.3661 14.3107L21.267 13.3256C20.9323 12.696 20.3172 12.4262 19.4217 12.5163L19.1531 12.5434ZM4.93738 35.7733L5.16125 35.7508C5.60899 35.7057 6.98375 33.487 9.28555 29.0944C9.61389 29.0614 9.73601 28.627 9.65191 27.7912L9.62488 27.5226L9.13237 27.5721C7.49066 27.7373 6.15043 30.2994 5.11169 35.2583C4.96244 35.2733 4.90434 35.445 4.93738 35.7733ZM37.0236 16.6247L37.9191 16.5346C38.4265 16.4835 39.0109 17.7966 39.6723 20.4739L39.4934 20.9441L39.6061 22.0635C39.6481 22.4814 41.3498 22.7624 44.7111 22.9066C44.7412 23.2051 44.9801 23.3318 45.4278 23.2868L45.4729 23.7345L41.8459 23.6472C40.1743 23.8154 39.4287 24.795 39.6089 26.5859C39.8311 28.7948 39.3962 32.713 38.3042 38.3406L37.8564 38.3857L37.8339 38.1618C38.1437 32.2511 38.2355 28.6689 38.1094 27.4152L37.8616 24.9527C37.8315 24.6542 37.6673 24.5199 37.3688 24.55C36.533 24.6341 34.1231 25.555 30.1391 27.3127L29.9152 27.3352L29.8927 27.1113C29.7395 25.589 32.1118 24.295 37.0098 23.2293C37.756 23.1542 38.069 22.5197 37.9489 21.3257C37.5453 20.311 37.3044 19.4156 37.2263 18.6395L37.0236 16.6247ZM65.5564 2.58252C67.5861 2.37828 68.9421 3.5685 69.6243 6.15319L69.6783 6.69048C69.1367 9.39831 68.0451 10.8348 66.4033 11L65.8661 11.0541C65.851 10.9048 65.6895 10.3482 65.3814 9.38421C65.2313 7.89175 66.0069 7.05991 67.7083 6.88871L67.6813 6.62007C67.6572 6.38127 66.5614 5.82821 64.3936 4.96088C62.2931 6.55921 61.3434 8.35833 61.5447 10.3582L61.797 12.8656C64.0357 12.6403 65.2211 13.1844 65.3533 14.4977L65.3848 14.8111C65.556 16.5125 64.4343 17.6506 62.0197 18.2252C60.8612 17.799 60.2444 17.2129 60.1693 16.4666L59.8559 16.4982C57.2889 16.7565 55.176 20.1802 53.5174 26.7694L53.9409 30.9781C54.3443 31.6913 55.0385 31.9983 56.0236 31.8992L58.8443 31.6154C59.5309 31.5463 60.3757 31.5518 61.3787 31.6317C62.1784 31.1894 64.2005 30.6091 67.4449 29.8907C67.8211 30.0337 68.1137 30.0947 68.3226 30.0737L68.3541 30.3871C68.4352 31.193 64.6837 32.4148 57.0995 34.0523C53.5475 34.4097 51.5732 32.6184 51.1768 28.6783C51.2733 25.4424 52.4278 21.9342 54.6404 18.1536C57.7791 15.486 59.2869 13.5403 59.1638 12.3164C58.7973 8.67483 60.0255 5.89792 62.8482 3.9857L65.5564 2.58252ZM89.8296 15.3817C90.7549 15.2885 91.7791 15.7282 92.9021 16.7007L92.9471 17.1484C92.126 16.7788 91.3572 16.63 90.6408 16.7021L90.1931 16.7471C86.9487 17.4655 82.9793 18.7695 78.2849 20.659C77.9393 21.7189 77.7755 22.3384 77.7935 22.5175C77.5846 22.5386 77.0392 21.6135 76.1575 19.7424C76.2466 19.1304 76.6643 18.7868 77.4106 18.7117L78.0822 18.6442C79.5746 18.494 82.9622 17.5501 88.2447 15.8125C88.4357 15.6124 88.9639 15.4688 89.8296 15.3817ZM87.517 26.5593C88.129 26.6485 88.7335 26.6631 89.3305 26.603L90.2708 26.5084L90.3158 26.9561C86.1673 28.2781 83.5857 28.9902 82.5708 29.0923L79.8396 29.3671L78.6977 29.2559C78.6226 28.5096 78.876 28.0319 79.458 27.8225C81.3535 27.7826 82.3461 27.7581 82.4356 27.7491C85.2114 27.1682 86.9052 26.7717 87.517 26.5593Z" fill="#0A1843"></path></svg> 