<?xml version="1.0" encoding="UTF-8"?> <svg xmlns="http://www.w3.org/2000/svg" width="220" height="14" viewBox="0 0 220 14" fill="none"><path d="M0.0298813 9.75002H0.104881C0.174881 9.75002 0.239881 9.72002 0.299881 9.66002C0.359881 9.60002 0.409881 9.53002 0.449881 9.45002C0.499881 9.37002 0.534881 9.28502 0.554881 9.19502C0.574881 9.09502 0.584881 9.00502 0.584881 8.92502V0.945024C0.584881 0.875024 0.574881 0.795024 0.554881 0.705024C0.534881 0.615024 0.499881 0.530024 0.449881 0.450024C0.409881 0.360024 0.354881 0.290024 0.284881 0.240024C0.224881 0.180024 0.154881 0.150024 0.0748813 0.150024H-0.000118691V2.40207e-05H2.45988C3.38988 2.40207e-05 4.11488 0.205024 4.63488 0.615024C5.16488 1.02502 5.42988 1.57002 5.42988 2.25002C5.42988 2.54002 5.37988 2.80002 5.27988 3.03002C5.17988 3.26002 5.04988 3.46502 4.88988 3.64502C4.73988 3.82502 4.57488 3.98002 4.39488 4.11002C4.21488 4.23002 4.04488 4.33002 3.88488 4.41002C4.30488 4.49002 4.65488 4.62502 4.93488 4.81502C5.21488 5.00502 5.43988 5.22502 5.60988 5.47502C5.78988 5.71502 5.91488 5.97502 5.98488 6.25502C6.05488 6.53502 6.08988 6.81002 6.08988 7.08002C6.08988 7.60002 5.99488 8.04002 5.80488 8.40002C5.61488 8.75002 5.35988 9.04002 5.03988 9.27002C4.72988 9.49002 4.36988 9.65002 3.95988 9.75002C3.55988 9.85002 3.14488 9.90002 2.71488 9.90002H0.0298813V9.75002ZM5.06988 7.17002C4.98988 6.40002 4.72988 5.80502 4.28988 5.38502C3.84988 4.96502 3.22988 4.75502 2.42988 4.75502H1.58988V9.40502H2.45988C3.26988 9.40502 3.90488 9.22502 4.36488 8.86502C4.83488 8.49502 5.06988 7.98502 5.06988 7.33502V7.17002ZM4.45488 2.38502C4.42488 1.80502 4.21988 1.34502 3.83988 1.00502C3.46988 0.665024 2.96988 0.495024 2.33988 0.495024H1.58988V4.27502H2.36988C2.78988 4.27502 3.12988 4.22002 3.38988 4.11002C3.65988 4.00002 3.87488 3.86002 4.03488 3.69002C4.19488 3.51002 4.30488 3.31502 4.36488 3.10502C4.42488 2.89502 4.45488 2.69002 4.45488 2.49002V2.38502ZM14.4937 9.40502V11.25H14.3437C14.3237 11.13 14.2887 10.99 14.2387 10.83C14.1887 10.68 14.1187 10.535 14.0287 10.395C13.9387 10.255 13.8287 10.135 13.6987 10.035C13.5787 9.94502 13.4387 9.90002 13.2787 9.90002H8.50875C8.34875 9.90002 8.20375 9.94502 8.07375 10.035C7.94375 10.135 7.82875 10.255 7.72875 10.395C7.63875 10.535 7.56375 10.68 7.50375 10.83C7.45375 10.99 7.42375 11.13 7.41375 11.25H7.26375V9.40502H7.83375C7.89375 9.40502 7.94875 9.38002 7.99875 9.33002C8.05875 9.28002 8.11375 9.22002 8.16375 9.15002C8.22375 9.08002 8.27875 9.00502 8.32875 8.92502C8.37875 8.83502 8.42375 8.75502 8.46375 8.68502C8.61375 8.34502 8.79375 7.94002 9.00375 7.47002C9.22375 7.00002 9.44375 6.51502 9.66375 6.01502C9.89375 5.51502 10.1137 5.03002 10.3237 4.56002C10.5337 4.08002 10.7137 3.67002 10.8637 3.33002L13.3987 8.86502C13.4787 9.03502 13.5537 9.17002 13.6237 9.27002C13.6937 9.36002 13.7887 9.40502 13.9087 9.40502H14.4937ZM8.65875 9.40502H12.5587L10.6087 5.13002L8.65875 9.40502ZM18.9773 10.005C18.4773 10.005 18.0273 9.92502 17.6273 9.76502C17.2273 9.59502 16.8823 9.37002 16.5923 9.09002C16.3123 8.80002 16.0923 8.46002 15.9323 8.07002C15.7823 7.68002 15.7073 7.25502 15.7073 6.79502C15.7073 6.30502 15.7923 5.86002 15.9623 5.46002C16.1323 5.05002 16.3673 4.70002 16.6673 4.41002C16.9673 4.12002 17.3223 3.89502 17.7323 3.73502C18.1423 3.57502 18.5873 3.49502 19.0673 3.49502C19.5473 3.49502 19.9873 3.57502 20.3873 3.73502C20.7873 3.88502 21.1323 4.10002 21.4223 4.38002C21.7123 4.66002 21.9373 4.99502 22.0973 5.38502C22.2573 5.76502 22.3373 6.18502 22.3373 6.64502C22.3373 7.07502 22.2623 7.49502 22.1123 7.90502C21.9723 8.30502 21.7573 8.66002 21.4673 8.97002C21.1873 9.28002 20.8373 9.53002 20.4173 9.72002C20.0073 9.91002 19.5273 10.005 18.9773 10.005ZM18.8873 3.99002C18.5273 4.01002 18.2073 4.10002 17.9273 4.26002C17.6573 4.41002 17.4273 4.61002 17.2373 4.86002C17.0573 5.10002 16.9173 5.37502 16.8173 5.68502C16.7273 5.99502 16.6823 6.31002 16.6823 6.63002C16.6823 7.00002 16.7373 7.36002 16.8473 7.71002C16.9673 8.05002 17.1323 8.35502 17.3423 8.62502C17.5623 8.89502 17.8223 9.11002 18.1223 9.27002C18.4223 9.43002 18.7573 9.51002 19.1273 9.51002C19.4973 9.51002 19.8223 9.43002 20.1023 9.27002C20.3923 9.11002 20.6323 8.90502 20.8223 8.65502C21.0123 8.39502 21.1523 8.10502 21.2423 7.78502C21.3423 7.46502 21.3923 7.14502 21.3923 6.82502C21.3923 6.49502 21.3423 6.16502 21.2423 5.83502C21.1423 5.49502 20.9873 5.19002 20.7773 4.92002C20.5673 4.64002 20.3023 4.41502 19.9823 4.24502C19.6723 4.07502 19.3073 3.99002 18.8873 3.99002ZM27.4859 9.75002C27.5659 9.75002 27.6309 9.73002 27.6809 9.69002C27.7409 9.65002 27.7709 9.60002 27.7709 9.54002C27.7709 9.47002 27.7109 9.36002 27.5909 9.21002C27.3309 8.87002 27.0759 8.52502 26.8259 8.17502C26.5859 7.82502 26.3409 7.48002 26.0909 7.14002L24.5309 9.25502C24.5009 9.29502 24.4659 9.35002 24.4259 9.42002C24.3859 9.49002 24.3659 9.55002 24.3659 9.60002C24.3659 9.70002 24.4209 9.75002 24.5309 9.75002V9.90002H23.1209V9.75002C23.2609 9.75002 23.4109 9.69502 23.5709 9.58502C23.7309 9.46502 23.8659 9.32502 23.9759 9.16502L25.7909 6.70502L24.1109 4.42502C24.0609 4.36502 24.0009 4.29502 23.9309 4.21502C23.8709 4.13502 23.8009 4.06502 23.7209 4.00502C23.6409 3.93502 23.5609 3.87502 23.4809 3.82502C23.4009 3.77502 23.3259 3.75002 23.2559 3.75002V3.60002H25.4159V3.75002C25.3559 3.75002 25.2909 3.77002 25.2209 3.81002C25.1609 3.85002 25.1309 3.92502 25.1309 4.03502C25.1309 4.09502 25.1609 4.16502 25.2209 4.24502L26.4359 5.92502L27.5909 4.39502C27.6709 4.29502 27.7209 4.21502 27.7409 4.15502C27.7609 4.09502 27.7709 4.04002 27.7709 3.99002C27.7709 3.93002 27.7509 3.87502 27.7109 3.82502C27.6809 3.77502 27.6309 3.75002 27.5609 3.75002V3.60002H29.0009V3.75002C28.8409 3.75002 28.6859 3.83002 28.5359 3.99002C28.3959 4.15002 28.2759 4.30002 28.1759 4.44002L26.7209 6.36002L28.7309 9.07502C28.8609 9.25502 29.0059 9.41502 29.1659 9.55502C29.3259 9.68502 29.4809 9.75002 29.6309 9.75002V9.90002H27.4859V9.75002ZM32.5382 8.92502C32.5382 9.00502 32.5482 9.09502 32.5682 9.19502C32.5882 9.28502 32.6182 9.37002 32.6582 9.45002C32.6982 9.53002 32.7432 9.60002 32.7932 9.66002C32.8532 9.72002 32.9182 9.75002 32.9882 9.75002V9.90002H31.0982V9.75002C31.1682 9.75002 31.2282 9.72502 31.2782 9.67502C31.3382 9.61502 31.3882 9.54502 31.4282 9.46502C31.4682 9.37502 31.4982 9.28502 31.5182 9.19502C31.5382 9.09502 31.5482 9.00502 31.5482 8.92502V4.53002C31.5482 4.46002 31.5382 4.38002 31.5182 4.29002C31.4982 4.20002 31.4682 4.11502 31.4282 4.03502C31.3882 3.95502 31.3382 3.89002 31.2782 3.84002C31.2282 3.78002 31.1682 3.75002 31.0982 3.75002V3.60002H32.9882V3.75002C32.9082 3.75002 32.8382 3.78002 32.7782 3.84002C32.7282 3.89002 32.6832 3.95502 32.6432 4.03502C32.6132 4.11502 32.5882 4.20002 32.5682 4.29002C32.5482 4.38002 32.5382 4.46002 32.5382 4.53002V6.34502H35.9582V4.53002C35.9582 4.46002 35.9482 4.38002 35.9282 4.29002C35.9082 4.20002 35.8782 4.11502 35.8382 4.03502C35.8082 3.95502 35.7632 3.89002 35.7032 3.84002C35.6532 3.78002 35.5882 3.75002 35.5082 3.75002V3.60002H37.3982V3.75002C37.3182 3.75002 37.2482 3.78002 37.1882 3.84002C37.1382 3.89002 37.0932 3.95502 37.0532 4.03502C37.0132 4.11502 36.9832 4.20002 36.9632 4.29002C36.9532 4.38002 36.9482 4.46002 36.9482 4.53002V8.92502C36.9482 9.00502 36.9582 9.09502 36.9782 9.19502C36.9982 9.28502 37.0282 9.37002 37.0682 9.45002C37.1082 9.53002 37.1532 9.60002 37.2032 9.66002C37.2632 9.72002 37.3282 9.75002 37.3982 9.75002V9.90002H35.5082V9.75002C35.5782 9.75002 35.6382 9.72502 35.6882 9.67502C35.7482 9.61502 35.7982 9.54502 35.8382 9.46502C35.8782 9.37502 35.9082 9.28502 35.9282 9.19502C35.9482 9.09502 35.9582 9.00502 35.9582 8.92502V6.84002H32.5382V8.92502ZM42.4465 10.005C41.9465 10.005 41.4965 9.92502 41.0965 9.76502C40.6965 9.59502 40.3515 9.37002 40.0615 9.09002C39.7815 8.80002 39.5615 8.46002 39.4015 8.07002C39.2515 7.68002 39.1765 7.25502 39.1765 6.79502C39.1765 6.30502 39.2615 5.86002 39.4315 5.46002C39.6015 5.05002 39.8365 4.70002 40.1365 4.41002C40.4365 4.12002 40.7915 3.89502 41.2015 3.73502C41.6115 3.57502 42.0565 3.49502 42.5365 3.49502C43.0165 3.49502 43.4565 3.57502 43.8565 3.73502C44.2565 3.88502 44.6015 4.10002 44.8915 4.38002C45.1815 4.66002 45.4065 4.99502 45.5665 5.38502C45.7265 5.76502 45.8065 6.18502 45.8065 6.64502C45.8065 7.07502 45.7315 7.49502 45.5815 7.90502C45.4415 8.30502 45.2265 8.66002 44.9365 8.97002C44.6565 9.28002 44.3065 9.53002 43.8865 9.72002C43.4765 9.91002 42.9965 10.005 42.4465 10.005ZM42.3565 3.99002C41.9965 4.01002 41.6765 4.10002 41.3965 4.26002C41.1265 4.41002 40.8965 4.61002 40.7065 4.86002C40.5265 5.10002 40.3865 5.37502 40.2865 5.68502C40.1965 5.99502 40.1515 6.31002 40.1515 6.63002C40.1515 7.00002 40.2065 7.36002 40.3165 7.71002C40.4365 8.05002 40.6015 8.35502 40.8115 8.62502C41.0315 8.89502 41.2915 9.11002 41.5915 9.27002C41.8915 9.43002 42.2265 9.51002 42.5965 9.51002C42.9665 9.51002 43.2915 9.43002 43.5715 9.27002C43.8615 9.11002 44.1015 8.90502 44.2915 8.65502C44.4815 8.39502 44.6215 8.10502 44.7115 7.78502C44.8115 7.46502 44.8615 7.14502 44.8615 6.82502C44.8615 6.49502 44.8115 6.16502 44.7115 5.83502C44.6115 5.49502 44.4565 5.19002 44.2465 4.92002C44.0365 4.64002 43.7715 4.41502 43.4515 4.24502C43.1415 4.07502 42.7765 3.99002 42.3565 3.99002ZM52.683 5.10002C52.683 5.27002 52.648 5.43002 52.578 5.58002C52.508 5.73002 52.418 5.87002 52.308 6.00002C52.208 6.12002 52.088 6.23002 51.948 6.33002C51.808 6.42002 51.673 6.49002 51.543 6.54002C51.713 6.57002 51.888 6.62502 52.068 6.70502C52.258 6.78502 52.428 6.89002 52.578 7.02002C52.738 7.15002 52.868 7.31502 52.968 7.51502C53.068 7.70502 53.118 7.93502 53.118 8.20502C53.118 8.34502 53.083 8.51502 53.013 8.71502C52.953 8.90502 52.838 9.09002 52.668 9.27002C52.508 9.44002 52.283 9.59002 51.993 9.72002C51.713 9.84002 51.348 9.90002 50.898 9.90002H47.598V9.75002C47.678 9.75002 47.748 9.72002 47.808 9.66002C47.868 9.60002 47.918 9.53002 47.958 9.45002C48.008 9.37002 48.043 9.28502 48.063 9.19502C48.083 9.09502 48.093 9.00502 48.093 8.92502V4.54502C48.093 4.38502 48.048 4.21502 47.958 4.03502C47.878 3.84502 47.758 3.75002 47.598 3.75002V3.60002H50.658C51.018 3.60002 51.323 3.65002 51.573 3.75002C51.833 3.84002 52.043 3.96002 52.203 4.11002C52.373 4.25002 52.493 4.41002 52.563 4.59002C52.643 4.76002 52.683 4.93002 52.683 5.10002ZM49.068 6.34502H50.223C50.513 6.34502 50.753 6.31502 50.943 6.25502C51.143 6.18502 51.303 6.09502 51.423 5.98502C51.543 5.87502 51.628 5.75002 51.678 5.61002C51.738 5.47002 51.768 5.32502 51.768 5.17502C51.768 5.05502 51.733 4.93002 51.663 4.80002C51.593 4.67002 51.488 4.55502 51.348 4.45502C51.218 4.34502 51.058 4.25502 50.868 4.18502C50.678 4.11502 50.463 4.08002 50.223 4.08002H49.068V6.34502ZM50.538 9.42002C50.658 9.42002 50.808 9.41002 50.988 9.39002C51.178 9.36002 51.358 9.30502 51.528 9.22502C51.708 9.13502 51.858 9.01002 51.978 8.85002C52.108 8.68002 52.173 8.46002 52.173 8.19002C52.173 7.90002 52.088 7.66502 51.918 7.48502C51.748 7.30502 51.548 7.17002 51.318 7.08002C51.098 6.98002 50.868 6.91502 50.628 6.88502C50.388 6.85502 50.203 6.84002 50.073 6.84002H49.068V9.42002H50.538ZM55.6992 6.87002C55.7392 7.22002 55.8242 7.55502 55.9542 7.87502C56.0842 8.18502 56.2542 8.46002 56.4642 8.70002C56.6842 8.94002 56.9492 9.13502 57.2592 9.28502C57.5692 9.42502 57.9292 9.49502 58.3392 9.49502C58.5592 9.49502 58.7892 9.46502 59.0292 9.40502C59.2792 9.33502 59.5092 9.24002 59.7192 9.12002C59.9292 9.00002 60.1142 8.85502 60.2742 8.68502C60.4442 8.50502 60.5592 8.30502 60.6192 8.08502H60.7542V9.21002C60.6942 9.21002 60.6242 9.23002 60.5442 9.27002C60.4742 9.31002 60.3892 9.36002 60.2892 9.42002C60.0892 9.54002 59.8192 9.67002 59.4792 9.81002C59.1392 9.94002 58.6892 10.005 58.1292 10.005C57.6792 10.005 57.2492 9.94002 56.8392 9.81002C56.4392 9.68002 56.0842 9.48002 55.7742 9.21002C55.4642 8.94002 55.2142 8.59502 55.0242 8.17502C54.8442 7.75502 54.7542 7.25502 54.7542 6.67502C54.7542 6.30502 54.8142 5.93002 54.9342 5.55002C55.0642 5.17002 55.2542 4.83002 55.5042 4.53002C55.7642 4.22002 56.0942 3.97002 56.4942 3.78002C56.8942 3.59002 57.3742 3.49502 57.9342 3.49502C58.4342 3.49502 58.8692 3.58002 59.2392 3.75002C59.6192 3.92002 59.9292 4.15502 60.1692 4.45502C60.4192 4.75502 60.6042 5.11002 60.7242 5.52002C60.8442 5.93002 60.9042 6.38002 60.9042 6.87002H55.6992ZM57.8742 3.99002C57.5242 3.99002 57.2192 4.06002 56.9592 4.20002C56.7092 4.34002 56.4942 4.52002 56.3142 4.74002C56.1342 4.96002 55.9942 5.21002 55.8942 5.49002C55.7942 5.77002 55.7292 6.05002 55.6992 6.33002H59.9742C59.9642 6.04002 59.9092 5.75502 59.8092 5.47502C59.7192 5.19502 59.5892 4.94502 59.4192 4.72502C59.2492 4.50502 59.0342 4.33002 58.7742 4.20002C58.5142 4.06002 58.2142 3.99002 57.8742 3.99002ZM64.0745 8.92502C64.0745 9.00502 64.0845 9.09502 64.1045 9.19502C64.1245 9.28502 64.1545 9.37002 64.1945 9.45002C64.2345 9.53002 64.2795 9.60002 64.3295 9.66002C64.3895 9.72002 64.4545 9.75002 64.5245 9.75002V9.90002H62.6345V9.75002C62.7045 9.75002 62.7645 9.72502 62.8145 9.67502C62.8745 9.61502 62.9245 9.54502 62.9645 9.46502C63.0045 9.37502 63.0345 9.28502 63.0545 9.19502C63.0745 9.09502 63.0845 9.00502 63.0845 8.92502V4.53002C63.0845 4.46002 63.0745 4.38002 63.0545 4.29002C63.0345 4.20002 63.0045 4.11502 62.9645 4.03502C62.9245 3.95502 62.8745 3.89002 62.8145 3.84002C62.7645 3.78002 62.7045 3.75002 62.6345 3.75002V3.60002H64.5245V3.75002C64.4445 3.75002 64.3745 3.78002 64.3145 3.84002C64.2645 3.89002 64.2195 3.95502 64.1795 4.03502C64.1495 4.11502 64.1245 4.20002 64.1045 4.29002C64.0845 4.38002 64.0745 4.46002 64.0745 4.53002V6.34502H67.4945V4.53002C67.4945 4.46002 67.4845 4.38002 67.4645 4.29002C67.4445 4.20002 67.4145 4.11502 67.3745 4.03502C67.3445 3.95502 67.2995 3.89002 67.2395 3.84002C67.1895 3.78002 67.1245 3.75002 67.0445 3.75002V3.60002H68.9345V3.75002C68.8545 3.75002 68.7845 3.78002 68.7245 3.84002C68.6745 3.89002 68.6295 3.95502 68.5895 4.03502C68.5495 4.11502 68.5195 4.20002 68.4995 4.29002C68.4895 4.38002 68.4845 4.46002 68.4845 4.53002V8.92502C68.4845 9.00502 68.4945 9.09502 68.5145 9.19502C68.5345 9.28502 68.5645 9.37002 68.6045 9.45002C68.6445 9.53002 68.6895 9.60002 68.7395 9.66002C68.7995 9.72002 68.8645 9.75002 68.9345 9.75002V9.90002H67.0445V9.75002C67.1145 9.75002 67.1745 9.72502 67.2245 9.67502C67.2845 9.61502 67.3345 9.54502 67.3745 9.46502C67.4145 9.37502 67.4445 9.28502 67.4645 9.19502C67.4845 9.09502 67.4945 9.00502 67.4945 8.92502V6.84002H64.0745V8.92502ZM76.8478 8.92502C76.8478 9.00502 76.8578 9.09502 76.8778 9.19502C76.9078 9.28502 76.9428 9.37002 76.9828 9.45002C77.0228 9.53002 77.0728 9.60002 77.1328 9.66002C77.2028 9.72002 77.2678 9.75002 77.3278 9.75002V9.90002H75.4078V9.75002C75.4778 9.75002 75.5428 9.72502 75.6028 9.67502C75.6628 9.61502 75.7128 9.54502 75.7528 9.46502C75.7928 9.37502 75.8228 9.28502 75.8428 9.19502C75.8628 9.09502 75.8728 9.00502 75.8728 8.92502V5.32502L72.3028 8.82002V8.92502C72.3028 9.00502 72.3128 9.09502 72.3328 9.19502C72.3528 9.28502 72.3828 9.37002 72.4228 9.45002C72.4628 9.53002 72.5078 9.60002 72.5578 9.66002C72.6178 9.72002 72.6828 9.75002 72.7528 9.75002V9.90002H70.8478V9.75002C70.9178 9.75002 70.9828 9.72502 71.0428 9.67502C71.1028 9.61502 71.1528 9.54502 71.1928 9.46502C71.2328 9.37502 71.2628 9.28502 71.2828 9.19502C71.3028 9.09502 71.3128 9.00502 71.3128 8.92502V4.53002C71.3128 4.46002 71.3028 4.38002 71.2828 4.29002C71.2628 4.20002 71.2328 4.11502 71.1928 4.03502C71.1528 3.95502 71.1028 3.89002 71.0428 3.84002C70.9828 3.78002 70.9178 3.75002 70.8478 3.75002V3.60002H72.7528V3.75002C72.6728 3.75002 72.6028 3.78002 72.5428 3.84002C72.4928 3.89002 72.4478 3.95502 72.4078 4.03502C72.3778 4.11502 72.3528 4.20002 72.3328 4.29002C72.3128 4.38002 72.3028 4.46002 72.3028 4.53002V8.11502L75.8728 4.62002V4.53002C75.8728 4.46002 75.8628 4.38002 75.8428 4.29002C75.8228 4.20002 75.7928 4.11502 75.7528 4.03502C75.7128 3.95502 75.6628 3.89002 75.6028 3.84002C75.5428 3.78002 75.4778 3.75002 75.4078 3.75002V3.60002H77.3278V3.75002C77.2478 3.75002 77.1728 3.78002 77.1028 3.84002C77.0428 3.89002 76.9928 3.95502 76.9528 4.03502C76.9228 4.11502 76.8978 4.20002 76.8778 4.29002C76.8578 4.38002 76.8478 4.46002 76.8478 4.53002V8.92502ZM80.0473 6.87002C80.0873 7.22002 80.1723 7.55502 80.3023 7.87502C80.4323 8.18502 80.6023 8.46002 80.8123 8.70002C81.0323 8.94002 81.2973 9.13502 81.6073 9.28502C81.9173 9.42502 82.2773 9.49502 82.6873 9.49502C82.9073 9.49502 83.1373 9.46502 83.3773 9.40502C83.6273 9.33502 83.8573 9.24002 84.0673 9.12002C84.2773 9.00002 84.4623 8.85502 84.6223 8.68502C84.7923 8.50502 84.9073 8.30502 84.9673 8.08502H85.1023V9.21002C85.0423 9.21002 84.9723 9.23002 84.8923 9.27002C84.8223 9.31002 84.7373 9.36002 84.6373 9.42002C84.4373 9.54002 84.1673 9.67002 83.8273 9.81002C83.4873 9.94002 83.0373 10.005 82.4773 10.005C82.0273 10.005 81.5973 9.94002 81.1873 9.81002C80.7873 9.68002 80.4323 9.48002 80.1223 9.21002C79.8123 8.94002 79.5623 8.59502 79.3723 8.17502C79.1923 7.75502 79.1023 7.25502 79.1023 6.67502C79.1023 6.30502 79.1623 5.93002 79.2823 5.55002C79.4123 5.17002 79.6023 4.83002 79.8523 4.53002C80.1123 4.22002 80.4423 3.97002 80.8423 3.78002C81.2423 3.59002 81.7223 3.49502 82.2823 3.49502C82.7823 3.49502 83.2173 3.58002 83.5873 3.75002C83.9673 3.92002 84.2773 4.15502 84.5173 4.45502C84.7673 4.75502 84.9523 5.11002 85.0723 5.52002C85.1923 5.93002 85.2523 6.38002 85.2523 6.87002H80.0473ZM82.2223 3.99002C81.8723 3.99002 81.5673 4.06002 81.3073 4.20002C81.0573 4.34002 80.8423 4.52002 80.6623 4.74002C80.4823 4.96002 80.3423 5.21002 80.2423 5.49002C80.1423 5.77002 80.0773 6.05002 80.0473 6.33002H84.3223C84.3123 6.04002 84.2573 5.75502 84.1573 5.47502C84.0673 5.19502 83.9373 4.94502 83.7673 4.72502C83.5973 4.50502 83.3823 4.33002 83.1223 4.20002C82.8623 4.06002 82.5623 3.99002 82.2223 3.99002ZM97.974 9.40502V11.25H97.824C97.804 11.13 97.769 10.99 97.719 10.83C97.669 10.68 97.599 10.535 97.509 10.395C97.419 10.255 97.309 10.135 97.179 10.035C97.059 9.94502 96.919 9.90002 96.759 9.90002H91.989C91.829 9.90002 91.684 9.94502 91.554 10.035C91.424 10.135 91.309 10.255 91.209 10.395C91.119 10.535 91.044 10.68 90.984 10.83C90.934 10.99 90.904 11.13 90.894 11.25H90.744V9.40502H91.314C91.374 9.40502 91.429 9.38002 91.479 9.33002C91.539 9.28002 91.594 9.22002 91.644 9.15002C91.704 9.08002 91.759 9.00502 91.809 8.92502C91.859 8.83502 91.904 8.75502 91.944 8.68502C92.094 8.34502 92.274 7.94002 92.484 7.47002C92.704 7.00002 92.924 6.51502 93.144 6.01502C93.374 5.51502 93.594 5.03002 93.804 4.56002C94.014 4.08002 94.194 3.67002 94.344 3.33002L96.879 8.86502C96.959 9.03502 97.034 9.17002 97.104 9.27002C97.174 9.36002 97.269 9.40502 97.389 9.40502H97.974ZM92.139 9.40502H96.039L94.089 5.13002L92.139 9.40502ZM103.808 9.75002C103.878 9.75002 103.958 9.72002 104.048 9.66002C104.138 9.60002 104.183 9.51502 104.183 9.40502C104.183 9.38502 104.173 9.34502 104.153 9.28502C104.143 9.21502 104.118 9.14002 104.078 9.06002L102.173 4.56002L100.193 9.28502C100.023 9.69502 99.6876 9.90002 99.1876 9.90002H98.8576V9.75002C98.9976 9.75002 99.1476 9.68002 99.3076 9.54002C99.4776 9.39002 99.6126 9.21502 99.7126 9.01502L101.753 4.24502C101.803 4.11502 101.828 4.01002 101.828 3.93002C101.828 3.81002 101.748 3.75002 101.588 3.75002V3.60002H102.803L105.113 9.00002C105.183 9.15002 105.283 9.31502 105.413 9.49502C105.553 9.66502 105.683 9.75002 105.803 9.75002V9.90002H103.808V9.75002ZM111.94 8.92502C111.94 9.00502 111.95 9.09502 111.97 9.19502C111.99 9.28502 112.02 9.37502 112.06 9.46502C112.11 9.54502 112.16 9.61502 112.21 9.67502C112.27 9.72502 112.34 9.75002 112.42 9.75002V9.90002H110.47V9.75002C110.54 9.75002 110.605 9.72002 110.665 9.66002C110.725 9.60002 110.775 9.53002 110.815 9.45002C110.865 9.37002 110.9 9.28502 110.92 9.19502C110.94 9.09502 110.95 9.00502 110.95 8.92502V6.82502C110.84 6.84502 110.715 6.90502 110.575 7.00502C110.435 7.09502 110.29 7.21502 110.14 7.36502C109.99 7.50502 109.845 7.66002 109.705 7.83002C109.565 8.00002 109.435 8.17002 109.315 8.34002C109.215 8.48002 109.13 8.59502 109.06 8.68502C108.99 8.77502 108.93 8.86002 108.88 8.94002C108.78 9.07002 108.68 9.19502 108.58 9.31502C108.48 9.42502 108.365 9.52502 108.235 9.61502C108.115 9.70502 107.97 9.77502 107.8 9.82502C107.63 9.87502 107.43 9.90002 107.2 9.90002H106.645V9.75002C106.765 9.75002 106.885 9.71502 107.005 9.64502C107.135 9.57502 107.26 9.49002 107.38 9.39002C107.5 9.28002 107.61 9.16502 107.71 9.04502C107.82 8.91502 107.915 8.79502 107.995 8.68502L108.46 8.04002C108.63 7.81002 108.805 7.58502 108.985 7.36502C109.165 7.13502 109.37 6.95502 109.6 6.82502C109.24 6.81502 108.92 6.76502 108.64 6.67502C108.36 6.58502 108.125 6.46502 107.935 6.31502C107.745 6.16502 107.6 5.99502 107.5 5.80502C107.41 5.60502 107.365 5.39502 107.365 5.17502C107.365 4.96502 107.41 4.76502 107.5 4.57502C107.6 4.38502 107.755 4.22002 107.965 4.08002C108.175 3.93002 108.44 3.81502 108.76 3.73502C109.09 3.64502 109.485 3.60002 109.945 3.60002H112.42V3.75002C112.34 3.75002 112.27 3.78002 112.21 3.84002C112.16 3.89002 112.11 3.95502 112.06 4.03502C112.02 4.11502 111.99 4.20002 111.97 4.29002C111.95 4.38002 111.94 4.46002 111.94 4.53002V8.92502ZM108.34 5.08502C108.34 5.23502 108.385 5.38502 108.475 5.53502C108.575 5.68502 108.705 5.82002 108.865 5.94002C109.035 6.06002 109.225 6.16002 109.435 6.24002C109.645 6.31002 109.87 6.34502 110.11 6.34502H110.95V4.08002H109.975C109.375 4.08002 108.95 4.17502 108.7 4.36502C108.46 4.55502 108.34 4.79502 108.34 5.08502ZM123.746 5.10002C123.746 5.27002 123.711 5.43002 123.641 5.58002C123.571 5.73002 123.481 5.87002 123.371 6.00002C123.271 6.12002 123.151 6.23002 123.011 6.33002C122.871 6.42002 122.736 6.49002 122.606 6.54002C122.776 6.57002 122.951 6.62502 123.131 6.70502C123.321 6.78502 123.491 6.89002 123.641 7.02002C123.801 7.15002 123.931 7.31502 124.031 7.51502C124.131 7.70502 124.181 7.93502 124.181 8.20502C124.181 8.34502 124.146 8.51502 124.076 8.71502C124.016 8.90502 123.901 9.09002 123.731 9.27002C123.571 9.44002 123.346 9.59002 123.056 9.72002C122.776 9.84002 122.411 9.90002 121.961 9.90002H118.661V9.75002C118.741 9.75002 118.811 9.72002 118.871 9.66002C118.931 9.60002 118.981 9.53002 119.021 9.45002C119.071 9.37002 119.106 9.28502 119.126 9.19502C119.146 9.09502 119.156 9.00502 119.156 8.92502V4.54502C119.156 4.38502 119.111 4.21502 119.021 4.03502C118.941 3.84502 118.821 3.75002 118.661 3.75002V3.60002H121.721C122.081 3.60002 122.386 3.65002 122.636 3.75002C122.896 3.84002 123.106 3.96002 123.266 4.11002C123.436 4.25002 123.556 4.41002 123.626 4.59002C123.706 4.76002 123.746 4.93002 123.746 5.10002ZM120.131 6.34502H121.286C121.576 6.34502 121.816 6.31502 122.006 6.25502C122.206 6.18502 122.366 6.09502 122.486 5.98502C122.606 5.87502 122.691 5.75002 122.741 5.61002C122.801 5.47002 122.831 5.32502 122.831 5.17502C122.831 5.05502 122.796 4.93002 122.726 4.80002C122.656 4.67002 122.551 4.55502 122.411 4.45502C122.281 4.34502 122.121 4.25502 121.931 4.18502C121.741 4.11502 121.526 4.08002 121.286 4.08002H120.131V6.34502ZM121.601 9.42002C121.721 9.42002 121.871 9.41002 122.051 9.39002C122.241 9.36002 122.421 9.30502 122.591 9.22502C122.771 9.13502 122.921 9.01002 123.041 8.85002C123.171 8.68002 123.236 8.46002 123.236 8.19002C123.236 7.90002 123.151 7.66502 122.981 7.48502C122.811 7.30502 122.611 7.17002 122.381 7.08002C122.161 6.98002 121.931 6.91502 121.691 6.88502C121.451 6.85502 121.266 6.84002 121.136 6.84002H120.131V9.42002H121.601ZM129.897 9.90002V9.13502L129.822 9.21002C129.572 9.46002 129.282 9.65502 128.952 9.79502C128.632 9.93502 128.242 10.005 127.782 10.005C127.432 10.005 127.132 9.96502 126.882 9.88502C126.632 9.80502 126.427 9.69502 126.267 9.55502C126.107 9.40502 125.987 9.23502 125.907 9.04502C125.837 8.85502 125.802 8.65502 125.802 8.44502C125.802 8.10502 125.892 7.80502 126.072 7.54502C126.262 7.28502 126.532 7.05502 126.882 6.85502C127.232 6.65502 127.657 6.47502 128.157 6.31502C128.667 6.14502 129.247 5.98002 129.897 5.82002C129.877 5.43002 129.797 5.11502 129.657 4.87502C129.517 4.63502 129.352 4.45002 129.162 4.32002C128.972 4.18002 128.772 4.09002 128.562 4.05002C128.352 4.00002 128.172 3.97502 128.022 3.97502C127.762 3.97502 127.532 4.01502 127.332 4.09502C127.132 4.16502 126.957 4.26502 126.807 4.39502C126.657 4.51502 126.532 4.65502 126.432 4.81502C126.342 4.97502 126.272 5.13502 126.222 5.29502H126.087V4.12502C126.177 4.12502 126.282 4.09502 126.402 4.03502C126.522 3.96502 126.662 3.89002 126.822 3.81002C126.992 3.73002 127.192 3.66002 127.422 3.60002C127.662 3.53002 127.947 3.49502 128.277 3.49502C128.827 3.49502 129.272 3.56502 129.612 3.70502C129.952 3.84502 130.212 4.03002 130.392 4.26002C130.582 4.49002 130.707 4.75502 130.767 5.05502C130.827 5.34502 130.857 5.64502 130.857 5.95502V8.92502C130.857 9.12502 130.907 9.31502 131.007 9.49502C131.107 9.66502 131.242 9.75002 131.412 9.75002V9.90002H129.897ZM129.897 8.47502V6.33002L129.747 6.36002C129.507 6.42002 129.212 6.50002 128.862 6.60002C128.522 6.70002 128.197 6.83002 127.887 6.99002C127.577 7.15002 127.312 7.34002 127.092 7.56002C126.872 7.78002 126.762 8.03502 126.762 8.32502C126.762 8.64502 126.892 8.91002 127.152 9.12002C127.412 9.33002 127.752 9.43502 128.172 9.43502C128.502 9.43502 128.792 9.36502 129.042 9.22502C129.292 9.07502 129.522 8.88502 129.732 8.65502L129.897 8.47502ZM134.652 9.40502H137.367V4.57502C137.367 4.50502 137.357 4.42002 137.337 4.32002C137.317 4.22002 137.287 4.13002 137.247 4.05002C137.217 3.97002 137.172 3.90002 137.112 3.84002C137.052 3.78002 136.987 3.75002 136.917 3.75002V3.60002H138.777V3.75002C138.697 3.75002 138.627 3.78002 138.567 3.84002C138.517 3.89002 138.472 3.95502 138.432 4.03502C138.402 4.11502 138.377 4.20002 138.357 4.29002C138.337 4.37002 138.327 4.44002 138.327 4.50002V9.40502H141.057V4.57502C141.057 4.50502 141.047 4.42002 141.027 4.32002C141.017 4.22002 140.992 4.13002 140.952 4.05002C140.922 3.97002 140.877 3.90002 140.817 3.84002C140.757 3.78002 140.682 3.75002 140.592 3.75002V3.60002H142.482V3.75002C142.402 3.75002 142.332 3.78002 142.272 3.84002C142.222 3.90002 142.177 3.97002 142.137 4.05002C142.097 4.13002 142.067 4.22002 142.047 4.32002C142.037 4.42002 142.032 4.50502 142.032 4.57502V8.97002C142.032 9.04002 142.042 9.12002 142.062 9.21002C142.082 9.30002 142.107 9.38502 142.137 9.46502C142.177 9.54502 142.222 9.61502 142.272 9.67502C142.332 9.72502 142.397 9.75002 142.467 9.75002V9.90002H133.242V9.75002C133.312 9.75002 133.372 9.72502 133.422 9.67502C133.472 9.61502 133.517 9.54502 133.557 9.46502C133.597 9.38502 133.627 9.30002 133.647 9.21002C133.667 9.12002 133.677 9.04002 133.677 8.97002V4.57502C133.677 4.50502 133.667 4.42002 133.647 4.32002C133.637 4.22002 133.612 4.13002 133.572 4.05002C133.542 3.97002 133.497 3.90002 133.437 3.84002C133.387 3.78002 133.322 3.75002 133.242 3.75002V3.60002H135.102V3.75002C135.022 3.75002 134.952 3.78002 134.892 3.84002C134.832 3.90002 134.782 3.97002 134.742 4.05002C134.712 4.13002 134.687 4.22002 134.667 4.32002C134.657 4.42002 134.652 4.50502 134.652 4.57502V9.40502ZM150.313 8.92502C150.313 9.00502 150.323 9.09502 150.343 9.19502C150.373 9.28502 150.408 9.37002 150.448 9.45002C150.488 9.53002 150.538 9.60002 150.598 9.66002C150.668 9.72002 150.733 9.75002 150.793 9.75002V9.90002H148.873V9.75002C148.943 9.75002 149.008 9.72502 149.068 9.67502C149.128 9.61502 149.178 9.54502 149.218 9.46502C149.258 9.37502 149.288 9.28502 149.308 9.19502C149.328 9.09502 149.338 9.00502 149.338 8.92502V5.32502L145.768 8.82002V8.92502C145.768 9.00502 145.778 9.09502 145.798 9.19502C145.818 9.28502 145.848 9.37002 145.888 9.45002C145.928 9.53002 145.973 9.60002 146.023 9.66002C146.083 9.72002 146.148 9.75002 146.218 9.75002V9.90002H144.313V9.75002C144.383 9.75002 144.448 9.72502 144.508 9.67502C144.568 9.61502 144.618 9.54502 144.658 9.46502C144.698 9.37502 144.728 9.28502 144.748 9.19502C144.768 9.09502 144.778 9.00502 144.778 8.92502V4.53002C144.778 4.46002 144.768 4.38002 144.748 4.29002C144.728 4.20002 144.698 4.11502 144.658 4.03502C144.618 3.95502 144.568 3.89002 144.508 3.84002C144.448 3.78002 144.383 3.75002 144.313 3.75002V3.60002H146.218V3.75002C146.138 3.75002 146.068 3.78002 146.008 3.84002C145.958 3.89002 145.913 3.95502 145.873 4.03502C145.843 4.11502 145.818 4.20002 145.798 4.29002C145.778 4.38002 145.768 4.46002 145.768 4.53002V8.11502L149.338 4.62002V4.53002C149.338 4.46002 149.328 4.38002 149.308 4.29002C149.288 4.20002 149.258 4.11502 149.218 4.03502C149.178 3.95502 149.128 3.89002 149.068 3.84002C149.008 3.78002 148.943 3.75002 148.873 3.75002V3.60002H150.793V3.75002C150.713 3.75002 150.638 3.78002 150.568 3.84002C150.508 3.89002 150.458 3.95502 150.418 4.03502C150.388 4.11502 150.363 4.20002 150.343 4.29002C150.323 4.38002 150.313 4.46002 150.313 4.53002V8.92502ZM156.542 9.75002C156.622 9.75002 156.687 9.73002 156.737 9.69002C156.797 9.65002 156.827 9.60002 156.827 9.54002C156.827 9.47002 156.767 9.36002 156.647 9.21002C156.387 8.87002 156.132 8.52502 155.882 8.17502C155.642 7.82502 155.397 7.48002 155.147 7.14002L153.587 9.25502C153.557 9.29502 153.522 9.35002 153.482 9.42002C153.442 9.49002 153.422 9.55002 153.422 9.60002C153.422 9.70002 153.477 9.75002 153.587 9.75002V9.90002H152.177V9.75002C152.317 9.75002 152.467 9.69502 152.627 9.58502C152.787 9.46502 152.922 9.32502 153.032 9.16502L154.847 6.70502L153.167 4.42502C153.117 4.36502 153.057 4.29502 152.987 4.21502C152.927 4.13502 152.857 4.06502 152.777 4.00502C152.697 3.93502 152.617 3.87502 152.537 3.82502C152.457 3.77502 152.382 3.75002 152.312 3.75002V3.60002H154.472V3.75002C154.412 3.75002 154.347 3.77002 154.277 3.81002C154.217 3.85002 154.187 3.92502 154.187 4.03502C154.187 4.09502 154.217 4.16502 154.277 4.24502L155.492 5.92502L156.647 4.39502C156.727 4.29502 156.777 4.21502 156.797 4.15502C156.817 4.09502 156.827 4.04002 156.827 3.99002C156.827 3.93002 156.807 3.87502 156.767 3.82502C156.737 3.77502 156.687 3.75002 156.617 3.75002V3.60002H158.057V3.75002C157.897 3.75002 157.742 3.83002 157.592 3.99002C157.452 4.15002 157.332 4.30002 157.232 4.44002L155.777 6.36002L157.787 9.07502C157.917 9.25502 158.062 9.41502 158.222 9.55502C158.382 9.68502 158.537 9.75002 158.687 9.75002V9.90002H156.542V9.75002ZM167.621 10.005C167.121 10.005 166.671 9.92502 166.271 9.76502C165.871 9.59502 165.526 9.37002 165.236 9.09002C164.956 8.80002 164.736 8.46002 164.576 8.07002C164.426 7.68002 164.351 7.25502 164.351 6.79502C164.351 6.30502 164.436 5.86002 164.606 5.46002C164.776 5.05002 165.011 4.70002 165.311 4.41002C165.611 4.12002 165.966 3.89502 166.376 3.73502C166.786 3.57502 167.231 3.49502 167.711 3.49502C168.191 3.49502 168.631 3.57502 169.031 3.73502C169.431 3.88502 169.776 4.10002 170.066 4.38002C170.356 4.66002 170.581 4.99502 170.741 5.38502C170.901 5.76502 170.981 6.18502 170.981 6.64502C170.981 7.07502 170.906 7.49502 170.756 7.90502C170.616 8.30502 170.401 8.66002 170.111 8.97002C169.831 9.28002 169.481 9.53002 169.061 9.72002C168.651 9.91002 168.171 10.005 167.621 10.005ZM167.531 3.99002C167.171 4.01002 166.851 4.10002 166.571 4.26002C166.301 4.41002 166.071 4.61002 165.881 4.86002C165.701 5.10002 165.561 5.37502 165.461 5.68502C165.371 5.99502 165.326 6.31002 165.326 6.63002C165.326 7.00002 165.381 7.36002 165.491 7.71002C165.611 8.05002 165.776 8.35502 165.986 8.62502C166.206 8.89502 166.466 9.11002 166.766 9.27002C167.066 9.43002 167.401 9.51002 167.771 9.51002C168.141 9.51002 168.466 9.43002 168.746 9.27002C169.036 9.11002 169.276 8.90502 169.466 8.65502C169.656 8.39502 169.796 8.10502 169.886 7.78502C169.986 7.46502 170.036 7.14502 170.036 6.82502C170.036 6.49502 169.986 6.16502 169.886 5.83502C169.786 5.49502 169.631 5.19002 169.421 4.92002C169.211 4.64002 168.946 4.41502 168.626 4.24502C168.316 4.07502 167.951 3.99002 167.531 3.99002ZM176.012 3.49502C176.512 3.49502 176.962 3.58002 177.362 3.75002C177.772 3.91002 178.117 4.13502 178.397 4.42502C178.687 4.70502 178.907 5.04002 179.057 5.43002C179.207 5.82002 179.282 6.24502 179.282 6.70502C179.282 7.19502 179.197 7.64502 179.027 8.05502C178.857 8.45502 178.622 8.80002 178.322 9.09002C178.022 9.38002 177.667 9.60502 177.257 9.76502C176.847 9.92502 176.402 10.005 175.922 10.005C175.412 10.005 174.957 9.91002 174.557 9.72002C174.157 9.52002 173.817 9.25002 173.537 8.91002C173.257 8.57002 173.042 8.17002 172.892 7.71002C172.742 7.24002 172.667 6.73502 172.667 6.19502C172.667 5.88502 172.682 5.60002 172.712 5.34002C172.752 5.08002 172.807 4.83002 172.877 4.59002C172.957 4.34002 173.052 4.10002 173.162 3.87002C173.272 3.64002 173.402 3.40002 173.552 3.15002C173.972 2.49002 174.497 1.97002 175.127 1.59002C175.767 1.21002 176.417 1.02002 177.077 1.02002H178.982L178.397 1.98002H176.837C176.517 1.98002 176.197 2.04002 175.877 2.16002C175.557 2.27002 175.252 2.44002 174.962 2.67002C174.682 2.89002 174.432 3.16002 174.212 3.48002C173.992 3.80002 173.817 4.16502 173.687 4.57502C173.957 4.24502 174.267 3.98502 174.617 3.79502C174.977 3.59502 175.442 3.49502 176.012 3.49502ZM176.102 9.49502C176.472 9.47502 176.797 9.39002 177.077 9.24002C177.357 9.08002 177.592 8.88002 177.782 8.64002C177.972 8.39002 178.112 8.11502 178.202 7.81502C178.302 7.50502 178.352 7.19002 178.352 6.87002C178.352 6.50002 178.292 6.14502 178.172 5.80502C178.052 5.45502 177.882 5.15002 177.662 4.89002C177.442 4.63002 177.177 4.42002 176.867 4.26002C176.567 4.10002 176.232 4.02002 175.862 4.02002C175.502 4.02002 175.182 4.10002 174.902 4.26002C174.622 4.41002 174.387 4.61002 174.197 4.86002C174.007 5.11002 173.862 5.39502 173.762 5.71502C173.672 6.03502 173.627 6.35502 173.627 6.67502C173.627 6.99502 173.682 7.32502 173.792 7.66502C173.912 7.99502 174.077 8.29502 174.287 8.56502C174.507 8.83502 174.767 9.06002 175.067 9.24002C175.377 9.41002 175.722 9.49502 176.102 9.49502ZM184.269 3.49502C184.809 3.49502 185.274 3.59002 185.664 3.78002C186.064 3.96002 186.394 4.20002 186.654 4.50002C186.924 4.80002 187.124 5.14502 187.254 5.53502C187.384 5.92502 187.449 6.32502 187.449 6.73502C187.449 7.13502 187.384 7.53002 187.254 7.92002C187.134 8.31002 186.944 8.66002 186.684 8.97002C186.434 9.28002 186.119 9.53002 185.739 9.72002C185.359 9.91002 184.909 10.005 184.389 10.005C184.079 10.005 183.759 9.92502 183.429 9.76502C183.109 9.59502 182.819 9.38502 182.559 9.13502V12.225C182.559 12.305 182.569 12.39 182.589 12.48C182.609 12.58 182.639 12.67 182.679 12.75C182.729 12.83 182.779 12.9 182.829 12.96C182.889 13.02 182.959 13.05 183.039 13.05V13.2H181.089V13.05C181.159 13.05 181.224 13.02 181.284 12.96C181.344 12.9 181.394 12.83 181.434 12.75C181.484 12.67 181.519 12.58 181.539 12.48C181.559 12.39 181.569 12.305 181.569 12.225V4.48502C181.569 4.39502 181.564 4.31002 181.554 4.23002C181.554 4.14002 181.539 4.06502 181.509 4.00502C181.479 3.93502 181.429 3.88002 181.359 3.84002C181.299 3.79002 181.209 3.76002 181.089 3.75002V3.60002H182.559V4.26002C182.759 4.02002 182.999 3.83502 183.279 3.70502C183.569 3.56502 183.899 3.49502 184.269 3.49502ZM184.404 9.49502C184.754 9.48502 185.059 9.40502 185.319 9.25502C185.579 9.10502 185.794 8.91002 185.964 8.67002C186.134 8.43002 186.259 8.16502 186.339 7.87502C186.419 7.57502 186.459 7.26502 186.459 6.94502C186.459 6.58502 186.409 6.23002 186.309 5.88002C186.209 5.53002 186.064 5.22002 185.874 4.95002C185.684 4.67002 185.449 4.44502 185.169 4.27502C184.899 4.09502 184.589 4.00502 184.239 4.00502C184.029 4.00502 183.819 4.04502 183.609 4.12502C183.409 4.20502 183.229 4.32002 183.069 4.47002C182.919 4.62002 182.794 4.80002 182.694 5.01002C182.604 5.21002 182.559 5.43502 182.559 5.68502V7.65002C182.559 7.92002 182.614 8.17002 182.724 8.40002C182.834 8.62002 182.974 8.81502 183.144 8.98502C183.324 9.14502 183.524 9.27002 183.744 9.36002C183.964 9.45002 184.184 9.49502 184.404 9.49502ZM193.204 9.90002V9.13502L193.129 9.21002C192.879 9.46002 192.589 9.65502 192.259 9.79502C191.939 9.93502 191.549 10.005 191.089 10.005C190.739 10.005 190.439 9.96502 190.189 9.88502C189.939 9.80502 189.734 9.69502 189.574 9.55502C189.414 9.40502 189.294 9.23502 189.214 9.04502C189.144 8.85502 189.109 8.65502 189.109 8.44502C189.109 8.10502 189.199 7.80502 189.379 7.54502C189.569 7.28502 189.839 7.05502 190.189 6.85502C190.539 6.65502 190.964 6.47502 191.464 6.31502C191.974 6.14502 192.554 5.98002 193.204 5.82002C193.184 5.43002 193.104 5.11502 192.964 4.87502C192.824 4.63502 192.659 4.45002 192.469 4.32002C192.279 4.18002 192.079 4.09002 191.869 4.05002C191.659 4.00002 191.479 3.97502 191.329 3.97502C191.069 3.97502 190.839 4.01502 190.639 4.09502C190.439 4.16502 190.264 4.26502 190.114 4.39502C189.964 4.51502 189.839 4.65502 189.739 4.81502C189.649 4.97502 189.579 5.13502 189.529 5.29502H189.394V4.12502C189.484 4.12502 189.589 4.09502 189.709 4.03502C189.829 3.96502 189.969 3.89002 190.129 3.81002C190.299 3.73002 190.499 3.66002 190.729 3.60002C190.969 3.53002 191.254 3.49502 191.584 3.49502C192.134 3.49502 192.579 3.56502 192.919 3.70502C193.259 3.84502 193.519 4.03002 193.699 4.26002C193.889 4.49002 194.014 4.75502 194.074 5.05502C194.134 5.34502 194.164 5.64502 194.164 5.95502V8.92502C194.164 9.12502 194.214 9.31502 194.314 9.49502C194.414 9.66502 194.549 9.75002 194.719 9.75002V9.90002H193.204ZM193.204 8.47502V6.33002L193.054 6.36002C192.814 6.42002 192.519 6.50002 192.169 6.60002C191.829 6.70002 191.504 6.83002 191.194 6.99002C190.884 7.15002 190.619 7.34002 190.399 7.56002C190.179 7.78002 190.069 8.03502 190.069 8.32502C190.069 8.64502 190.199 8.91002 190.459 9.12002C190.719 9.33002 191.059 9.43502 191.479 9.43502C191.809 9.43502 192.099 9.36502 192.349 9.22502C192.599 9.07502 192.829 8.88502 193.039 8.65502L193.204 8.47502ZM200.644 5.07002C200.644 5.31002 200.539 5.57002 200.329 5.85002C200.119 6.12002 199.834 6.33502 199.474 6.49502C200.034 6.61502 200.434 6.82502 200.674 7.12502C200.924 7.41502 201.049 7.72502 201.049 8.05502C201.049 8.36502 200.974 8.64002 200.824 8.88002C200.674 9.12002 200.469 9.32002 200.209 9.48002C199.959 9.64002 199.669 9.76002 199.339 9.84002C199.019 9.92002 198.684 9.96002 198.334 9.96002C198.004 9.96002 197.709 9.93002 197.449 9.87002C197.189 9.80002 196.964 9.73002 196.774 9.66002C196.584 9.58002 196.424 9.51002 196.294 9.45002C196.174 9.38002 196.079 9.34502 196.009 9.34502V8.13002H196.144C196.164 8.34002 196.234 8.53002 196.354 8.70002C196.474 8.86002 196.624 9.00002 196.804 9.12002C196.994 9.23002 197.204 9.31502 197.434 9.37502C197.674 9.43502 197.919 9.46502 198.169 9.46502C198.399 9.46502 198.624 9.44002 198.844 9.39002C199.074 9.34002 199.274 9.26502 199.444 9.16502C199.624 9.05502 199.769 8.92002 199.879 8.76002C199.989 8.60002 200.044 8.41502 200.044 8.20502C200.044 7.98502 199.984 7.79002 199.864 7.62002C199.744 7.44002 199.584 7.29002 199.384 7.17002C199.194 7.05002 198.979 6.96002 198.739 6.90002C198.509 6.84002 198.279 6.81002 198.049 6.81002H197.569V6.33002H198.094C198.304 6.33002 198.504 6.29502 198.694 6.22502C198.894 6.15502 199.064 6.06502 199.204 5.95502C199.344 5.84502 199.454 5.72002 199.534 5.58002C199.624 5.43002 199.669 5.28002 199.669 5.13002C199.669 4.95002 199.619 4.79002 199.519 4.65002C199.429 4.51002 199.304 4.39002 199.144 4.29002C198.984 4.19002 198.804 4.11502 198.604 4.06502C198.414 4.00502 198.214 3.97502 198.004 3.97502C197.814 3.97502 197.629 4.00002 197.449 4.05002C197.269 4.09002 197.104 4.16002 196.954 4.26002C196.814 4.36002 196.694 4.48502 196.594 4.63502C196.504 4.78502 196.444 4.96502 196.414 5.17502H196.279V4.00502C196.359 4.00502 196.434 3.99502 196.504 3.97502C196.574 3.94502 196.654 3.90502 196.744 3.85502C196.904 3.77502 197.099 3.70002 197.329 3.63002C197.559 3.55002 197.849 3.51002 198.199 3.51002C198.979 3.51002 199.579 3.65002 199.999 3.93002C200.429 4.21002 200.644 4.59002 200.644 5.07002ZM205.862 10.005C205.362 10.005 204.912 9.92502 204.512 9.76502C204.112 9.59502 203.767 9.37002 203.477 9.09002C203.197 8.80002 202.977 8.46002 202.817 8.07002C202.667 7.68002 202.592 7.25502 202.592 6.79502C202.592 6.30502 202.677 5.86002 202.847 5.46002C203.017 5.05002 203.252 4.70002 203.552 4.41002C203.852 4.12002 204.207 3.89502 204.617 3.73502C205.027 3.57502 205.472 3.49502 205.952 3.49502C206.432 3.49502 206.872 3.57502 207.272 3.73502C207.672 3.88502 208.017 4.10002 208.307 4.38002C208.597 4.66002 208.822 4.99502 208.982 5.38502C209.142 5.76502 209.222 6.18502 209.222 6.64502C209.222 7.07502 209.147 7.49502 208.997 7.90502C208.857 8.30502 208.642 8.66002 208.352 8.97002C208.072 9.28002 207.722 9.53002 207.302 9.72002C206.892 9.91002 206.412 10.005 205.862 10.005ZM205.772 3.99002C205.412 4.01002 205.092 4.10002 204.812 4.26002C204.542 4.41002 204.312 4.61002 204.122 4.86002C203.942 5.10002 203.802 5.37502 203.702 5.68502C203.612 5.99502 203.567 6.31002 203.567 6.63002C203.567 7.00002 203.622 7.36002 203.732 7.71002C203.852 8.05002 204.017 8.35502 204.227 8.62502C204.447 8.89502 204.707 9.11002 205.007 9.27002C205.307 9.43002 205.642 9.51002 206.012 9.51002C206.382 9.51002 206.707 9.43002 206.987 9.27002C207.277 9.11002 207.517 8.90502 207.707 8.65502C207.897 8.39502 208.037 8.10502 208.127 7.78502C208.227 7.46502 208.277 7.14502 208.277 6.82502C208.277 6.49502 208.227 6.16502 208.127 5.83502C208.027 5.49502 207.872 5.19002 207.662 4.92002C207.452 4.64002 207.187 4.41502 206.867 4.24502C206.557 4.07502 206.192 3.99002 205.772 3.99002ZM216.099 5.10002C216.099 5.27002 216.064 5.43002 215.994 5.58002C215.924 5.73002 215.834 5.87002 215.724 6.00002C215.624 6.12002 215.504 6.23002 215.364 6.33002C215.224 6.42002 215.089 6.49002 214.959 6.54002C215.129 6.57002 215.304 6.62502 215.484 6.70502C215.674 6.78502 215.844 6.89002 215.994 7.02002C216.154 7.15002 216.284 7.31502 216.384 7.51502C216.484 7.70502 216.534 7.93502 216.534 8.20502C216.534 8.34502 216.499 8.51502 216.429 8.71502C216.369 8.90502 216.254 9.09002 216.084 9.27002C215.924 9.44002 215.699 9.59002 215.409 9.72002C215.129 9.84002 214.764 9.90002 214.314 9.90002H211.014V9.75002C211.094 9.75002 211.164 9.72002 211.224 9.66002C211.284 9.60002 211.334 9.53002 211.374 9.45002C211.424 9.37002 211.459 9.28502 211.479 9.19502C211.499 9.09502 211.509 9.00502 211.509 8.92502V4.54502C211.509 4.38502 211.464 4.21502 211.374 4.03502C211.294 3.84502 211.174 3.75002 211.014 3.75002V3.60002H214.074C214.434 3.60002 214.739 3.65002 214.989 3.75002C215.249 3.84002 215.459 3.96002 215.619 4.11002C215.789 4.25002 215.909 4.41002 215.979 4.59002C216.059 4.76002 216.099 4.93002 216.099 5.10002ZM212.484 6.34502H213.639C213.929 6.34502 214.169 6.31502 214.359 6.25502C214.559 6.18502 214.719 6.09502 214.839 5.98502C214.959 5.87502 215.044 5.75002 215.094 5.61002C215.154 5.47002 215.184 5.32502 215.184 5.17502C215.184 5.05502 215.149 4.93002 215.079 4.80002C215.009 4.67002 214.904 4.55502 214.764 4.45502C214.634 4.34502 214.474 4.25502 214.284 4.18502C214.094 4.11502 213.879 4.08002 213.639 4.08002H212.484V6.34502ZM213.954 9.42002C214.074 9.42002 214.224 9.41002 214.404 9.39002C214.594 9.36002 214.774 9.30502 214.944 9.22502C215.124 9.13502 215.274 9.01002 215.394 8.85002C215.524 8.68002 215.589 8.46002 215.589 8.19002C215.589 7.90002 215.504 7.66502 215.334 7.48502C215.164 7.30502 214.964 7.17002 214.734 7.08002C214.514 6.98002 214.284 6.91502 214.044 6.88502C213.804 6.85502 213.619 6.84002 213.489 6.84002H212.484V9.42002H213.954ZM218.395 4.81502C218.395 4.61502 218.46 4.44502 218.59 4.30502C218.73 4.16502 218.9 4.09502 219.1 4.09502C219.3 4.09502 219.47 4.16502 219.61 4.30502C219.75 4.44502 219.82 4.61502 219.82 4.81502C219.82 5.01502 219.75 5.18502 219.61 5.32502C219.47 5.45502 219.3 5.52002 219.1 5.52002C218.9 5.52002 218.73 5.45502 218.59 5.32502C218.46 5.18502 218.395 5.01502 218.395 4.81502ZM218.395 9.25502C218.395 9.05502 218.46 8.88502 218.59 8.74502C218.73 8.60502 218.9 8.53502 219.1 8.53502C219.3 8.53502 219.47 8.60502 219.61 8.74502C219.75 8.88502 219.82 9.05502 219.82 9.25502C219.82 9.45502 219.75 9.62502 219.61 9.76502C219.47 9.89502 219.3 9.96002 219.1 9.96002C218.9 9.96002 218.73 9.89502 218.59 9.76502C218.46 9.62502 218.395 9.45502 218.395 9.25502Z" fill="#281814"></path></svg> 