<?xml version="1.0" encoding="UTF-8"?> <svg xmlns="http://www.w3.org/2000/svg" width="195" height="29" viewBox="0 0 195 29" fill="none"><path d="M5.37004 0.540049C4.63004 0.540049 3.98504 0.675049 3.43504 0.945048C2.89504 1.20505 2.44504 1.55005 2.08504 1.98005C1.72504 2.40005 1.45504 2.87505 1.27504 3.40505C1.10504 3.93505 1.02004 4.46005 1.02004 4.98005C1.02004 5.57005 1.13504 6.15005 1.36504 6.72005C1.59504 7.28005 1.91004 7.78005 2.31004 8.22005C2.72004 8.65005 3.19504 9.00005 3.73504 9.27005C4.27504 9.53005 4.86004 9.66005 5.49004 9.66005C5.67004 9.66005 5.88004 9.64005 6.12004 9.60005C6.37004 9.56005 6.61504 9.48505 6.85504 9.37505C7.09504 9.25505 7.31504 9.09005 7.51504 8.88005C7.72504 8.67005 7.88504 8.39505 7.99504 8.05505H8.14504V9.72005C7.99504 9.72005 7.83504 9.74005 7.66504 9.78005C7.50504 9.82005 7.32504 9.86505 7.12504 9.91505C6.86504 9.98505 6.57504 10.05 6.25504 10.11C5.94504 10.17 5.61504 10.2 5.26504 10.2C4.39504 10.2 3.63004 10.05 2.97004 9.75005C2.31004 9.45005 1.76004 9.06005 1.32004 8.58005C0.880039 8.10005 0.550039 7.56005 0.330039 6.96005C0.110039 6.35005 3.90746e-05 5.73505 3.90746e-05 5.11505C3.90746e-05 4.49505 0.110039 3.88005 0.330039 3.27005C0.550039 2.66005 0.885039 2.11505 1.33504 1.63505C1.78504 1.14505 2.35004 0.750048 3.03004 0.450048C3.71004 0.150048 4.51004 4.85778e-05 5.43004 4.85778e-05C5.76004 4.85778e-05 6.05504 0.0300485 6.31504 0.0900483C6.58504 0.150048 6.82504 0.210048 7.03504 0.270049C7.18504 0.320049 7.32004 0.360048 7.44004 0.390048C7.57004 0.410048 7.69504 0.420049 7.81504 0.420049V2.08505H7.66504C7.60504 1.77505 7.49504 1.52005 7.33504 1.32005C7.17504 1.11005 6.98504 0.950048 6.76504 0.840048C6.55504 0.730049 6.32504 0.655049 6.07504 0.615049C5.83504 0.565049 5.60004 0.540049 5.37004 0.540049ZM13.8457 10.05V9.28505L13.7707 9.36005C13.5207 9.61005 13.2307 9.80505 12.9007 9.94505C12.5807 10.085 12.1907 10.155 11.7307 10.155C11.3807 10.155 11.0807 10.115 10.8307 10.035C10.5807 9.95505 10.3757 9.84505 10.2157 9.70505C10.0557 9.55505 9.93574 9.38505 9.85574 9.19505C9.78574 9.00505 9.75074 8.80505 9.75074 8.59505C9.75074 8.25505 9.84074 7.95505 10.0207 7.69505C10.2107 7.43505 10.4807 7.20505 10.8307 7.00505C11.1807 6.80505 11.6057 6.62505 12.1057 6.46505C12.6157 6.29505 13.1957 6.13005 13.8457 5.97005C13.8257 5.58005 13.7457 5.26505 13.6057 5.02505C13.4657 4.78505 13.3007 4.60005 13.1107 4.47005C12.9207 4.33005 12.7207 4.24005 12.5107 4.20005C12.3007 4.15005 12.1207 4.12505 11.9707 4.12505C11.7107 4.12505 11.4807 4.16505 11.2807 4.24505C11.0807 4.31505 10.9057 4.41505 10.7557 4.54505C10.6057 4.66505 10.4807 4.80505 10.3807 4.96505C10.2907 5.12505 10.2207 5.28505 10.1707 5.44505H10.0357V4.27505C10.1257 4.27505 10.2307 4.24505 10.3507 4.18505C10.4707 4.11505 10.6107 4.04005 10.7707 3.96005C10.9407 3.88005 11.1407 3.81005 11.3707 3.75005C11.6107 3.68005 11.8957 3.64505 12.2257 3.64505C12.7757 3.64505 13.2207 3.71505 13.5607 3.85505C13.9007 3.99505 14.1607 4.18005 14.3407 4.41005C14.5307 4.64005 14.6557 4.90505 14.7157 5.20505C14.7757 5.49505 14.8057 5.79505 14.8057 6.10505V9.07505C14.8057 9.27505 14.8557 9.46505 14.9557 9.64505C15.0557 9.81505 15.1907 9.90005 15.3607 9.90005V10.05H13.8457ZM13.8457 8.62505V6.48005L13.6957 6.51005C13.4557 6.57005 13.1607 6.65005 12.8107 6.75005C12.4707 6.85005 12.1457 6.98005 11.8357 7.14005C11.5257 7.30005 11.2607 7.49005 11.0407 7.71005C10.8207 7.93005 10.7107 8.18505 10.7107 8.47505C10.7107 8.79505 10.8407 9.06005 11.1007 9.27005C11.3607 9.48005 11.7007 9.58505 12.1207 9.58505C12.4507 9.58505 12.7407 9.51505 12.9907 9.37505C13.2407 9.22505 13.4707 9.03505 13.6807 8.80505L13.8457 8.62505ZM24.0612 9.07505C24.0612 9.15505 24.0712 9.24505 24.0912 9.34505C24.1112 9.43505 24.1412 9.52005 24.1812 9.60005C24.2312 9.68005 24.2862 9.75005 24.3462 9.81005C24.4062 9.87005 24.4762 9.90005 24.5562 9.90005V10.05H22.6062V9.90005C22.6862 9.90005 22.7562 9.87505 22.8162 9.82505C22.8762 9.76505 22.9262 9.69505 22.9662 9.61505C23.0062 9.52505 23.0362 9.43505 23.0562 9.34505C23.0762 9.24505 23.0862 9.15505 23.0862 9.07505V5.02505L20.5812 10.185L18.1812 5.32505V9.07505C18.1812 9.15505 18.1912 9.24505 18.2112 9.34505C18.2312 9.43505 18.2612 9.52005 18.3012 9.60005C18.3412 9.68005 18.3912 9.75005 18.4512 9.81005C18.5112 9.87005 18.5812 9.90005 18.6612 9.90005V10.05H17.2062V9.90005C17.2862 9.90005 17.3562 9.87005 17.4162 9.81005C17.4762 9.75005 17.5212 9.68005 17.5512 9.60005C17.5912 9.52005 17.6212 9.43505 17.6412 9.34505C17.6612 9.24505 17.6712 9.15505 17.6712 9.07505V4.68005C17.6712 4.50005 17.6462 4.32505 17.5962 4.15505C17.5562 3.98505 17.4262 3.90005 17.2062 3.90005V3.75005H18.5412L20.8362 8.44505L23.1312 3.75005H24.5562V3.90005C24.4062 3.90005 24.2862 3.99505 24.1962 4.18505C24.1062 4.36505 24.0612 4.53005 24.0612 4.68005V9.07505ZM32.6842 10.05V9.90005C32.7542 9.90005 32.8192 9.87505 32.8792 9.82505C32.9392 9.76505 32.9892 9.69505 33.0292 9.61505C33.0792 9.52505 33.1142 9.43505 33.1342 9.34505C33.1542 9.24505 33.1642 9.15505 33.1642 9.07505V4.68005C33.1642 4.61005 33.1542 4.53005 33.1342 4.44005C33.1142 4.35005 33.0792 4.26505 33.0292 4.18505C32.9892 4.10505 32.9392 4.04005 32.8792 3.99005C32.8192 3.93005 32.7542 3.90005 32.6842 3.90005V3.75005H34.6342V3.90005C34.4842 3.90005 34.3642 3.99505 34.2742 4.18505C34.1842 4.36505 34.1392 4.53005 34.1392 4.68005V9.07505C34.1392 9.15505 34.1492 9.24505 34.1692 9.34505C34.1892 9.43505 34.2192 9.52005 34.2592 9.60005C34.3092 9.68005 34.3642 9.75005 34.4242 9.81005C34.4842 9.87005 34.5542 9.90005 34.6342 9.90005V10.05H32.6842ZM29.1442 6.48005C30.0642 6.48005 30.7442 6.65005 31.1842 6.99005C31.6342 7.33005 31.8592 7.75005 31.8592 8.25005C31.8592 8.50005 31.7992 8.73505 31.6792 8.95505C31.5692 9.17505 31.3992 9.36505 31.1692 9.52505C30.9392 9.68505 30.6492 9.81505 30.2992 9.91505C29.9492 10.005 29.5342 10.05 29.0542 10.05H26.5042V9.90005C26.5742 9.90005 26.6392 9.87505 26.6992 9.82505C26.7592 9.76505 26.8092 9.69505 26.8492 9.61505C26.8992 9.52505 26.9342 9.43505 26.9542 9.34505C26.9742 9.24505 26.9842 9.15505 26.9842 9.07505V4.68005C26.9842 4.61005 26.9742 4.53005 26.9542 4.44005C26.9342 4.35005 26.8992 4.26505 26.8492 4.18505C26.8092 4.10505 26.7592 4.04005 26.6992 3.99005C26.6392 3.93005 26.5742 3.90005 26.5042 3.90005V3.75005H28.4542V3.90005C28.3042 3.90005 28.1842 3.99505 28.0942 4.18505C28.0042 4.36505 27.9592 4.53005 27.9592 4.68005V6.48005H29.1442ZM29.0242 9.55505C29.6842 9.55505 30.1592 9.45005 30.4492 9.24005C30.7492 9.02005 30.8992 8.75005 30.8992 8.43005C30.8992 8.25005 30.8592 8.07505 30.7792 7.90505C30.6992 7.72505 30.5742 7.57005 30.4042 7.44005C30.2442 7.30005 30.0442 7.19005 29.8042 7.11005C29.5642 7.02005 29.2892 6.97505 28.9792 6.97505H27.9592V9.55505H29.0242ZM42.5779 9.07505C42.5779 9.15505 42.5879 9.24505 42.6079 9.34505C42.6379 9.43505 42.6729 9.52005 42.7129 9.60005C42.7529 9.68005 42.8029 9.75005 42.8629 9.81005C42.9329 9.87005 42.9979 9.90005 43.0579 9.90005V10.05H41.1379V9.90005C41.2079 9.90005 41.2729 9.87505 41.3329 9.82505C41.3929 9.76505 41.4429 9.69505 41.4829 9.61505C41.5229 9.52505 41.5529 9.43505 41.5729 9.34505C41.5929 9.24505 41.6029 9.15505 41.6029 9.07505V5.47505L38.0329 8.97005V9.07505C38.0329 9.15505 38.0429 9.24505 38.0629 9.34505C38.0829 9.43505 38.1129 9.52005 38.1529 9.60005C38.1929 9.68005 38.2379 9.75005 38.2879 9.81005C38.3479 9.87005 38.4129 9.90005 38.4829 9.90005V10.05H36.5779V9.90005C36.6479 9.90005 36.7129 9.87505 36.7729 9.82505C36.8329 9.76505 36.8829 9.69505 36.9229 9.61505C36.9629 9.52505 36.9929 9.43505 37.0129 9.34505C37.0329 9.24505 37.0429 9.15505 37.0429 9.07505V4.68005C37.0429 4.61005 37.0329 4.53005 37.0129 4.44005C36.9929 4.35005 36.9629 4.26505 36.9229 4.18505C36.8829 4.10505 36.8329 4.04005 36.7729 3.99005C36.7129 3.93005 36.6479 3.90005 36.5779 3.90005V3.75005H38.4829V3.90005C38.4029 3.90005 38.3329 3.93005 38.2729 3.99005C38.2229 4.04005 38.1779 4.10505 38.1379 4.18505C38.1079 4.26505 38.0829 4.35005 38.0629 4.44005C38.0429 4.53005 38.0329 4.61005 38.0329 4.68005V8.26505L41.6029 4.77005V4.68005C41.6029 4.61005 41.5929 4.53005 41.5729 4.44005C41.5529 4.35005 41.5229 4.26505 41.4829 4.18505C41.4429 4.10505 41.3929 4.04005 41.3329 3.99005C41.2729 3.93005 41.2079 3.90005 41.1379 3.90005V3.75005H43.0579V3.90005C42.9779 3.90005 42.9029 3.93005 42.8329 3.99005C42.7729 4.04005 42.7229 4.10505 42.6829 4.18505C42.6529 4.26505 42.6279 4.35005 42.6079 4.44005C42.5879 4.53005 42.5779 4.61005 42.5779 4.68005V9.07505ZM41.4229 1.72505C41.4229 1.88505 41.3829 2.06005 41.3029 2.25005C41.2229 2.43005 41.1079 2.60005 40.9579 2.76005C40.8079 2.91005 40.6279 3.03505 40.4179 3.13505C40.2179 3.23505 39.9929 3.28505 39.7429 3.28505C39.5129 3.28505 39.2929 3.24005 39.0829 3.15005C38.8829 3.05005 38.7079 2.92505 38.5579 2.77505C38.4079 2.62505 38.2879 2.46005 38.1979 2.28005C38.1079 2.09005 38.0629 1.90505 38.0629 1.72505H38.1529C38.1629 1.78505 38.1929 1.87005 38.2429 1.98005C38.3029 2.08005 38.3929 2.18505 38.5129 2.29505C38.6329 2.40505 38.7879 2.50005 38.9779 2.58005C39.1779 2.66005 39.4279 2.70005 39.7279 2.70005C40.0379 2.70005 40.2929 2.66005 40.4929 2.58005C40.6929 2.50005 40.8529 2.40505 40.9729 2.29505C41.0929 2.18505 41.1779 2.08005 41.2279 1.98005C41.2779 1.87005 41.3129 1.78505 41.3329 1.72505H41.4229ZM54.3688 5.32505C54.3688 5.21505 54.3488 5.09505 54.3088 4.96505C54.2688 4.83505 54.2088 4.72005 54.1288 4.62005C54.0488 4.51005 53.9488 4.42005 53.8288 4.35005C53.7088 4.28005 53.5688 4.24505 53.4088 4.24505H52.0888V9.07505C52.0888 9.15505 52.0988 9.24005 52.1188 9.33005C52.1388 9.42005 52.1688 9.51005 52.2088 9.60005C52.2588 9.68005 52.3088 9.75005 52.3588 9.81005C52.4188 9.87005 52.4888 9.90005 52.5688 9.90005V10.05H50.6188V9.90005C50.6988 9.90005 50.7688 9.87005 50.8288 9.81005C50.8888 9.75005 50.9388 9.68005 50.9788 9.60005C51.0288 9.52005 51.0638 9.43505 51.0838 9.34505C51.1038 9.24505 51.1138 9.15505 51.1138 9.07505V4.24505H49.8238C49.6638 4.24505 49.5238 4.28005 49.4038 4.35005C49.2838 4.42005 49.1838 4.51005 49.1038 4.62005C49.0338 4.72005 48.9788 4.83505 48.9388 4.96505C48.8988 5.09505 48.8788 5.21505 48.8788 5.32505H48.7288V3.75005H54.5038V5.32505H54.3688ZM59.0083 3.64505C59.5483 3.64505 60.0133 3.74005 60.4033 3.93005C60.8033 4.11005 61.1333 4.35005 61.3933 4.65005C61.6633 4.95005 61.8633 5.29505 61.9933 5.68505C62.1233 6.07505 62.1883 6.47505 62.1883 6.88505C62.1883 7.28505 62.1233 7.68005 61.9933 8.07005C61.8733 8.46005 61.6833 8.81005 61.4233 9.12005C61.1733 9.43005 60.8583 9.68005 60.4783 9.87005C60.0983 10.06 59.6483 10.155 59.1283 10.155C58.8183 10.155 58.4983 10.075 58.1683 9.91505C57.8483 9.74505 57.5583 9.53505 57.2983 9.28505V12.375C57.2983 12.455 57.3083 12.54 57.3283 12.63C57.3483 12.73 57.3783 12.82 57.4183 12.9C57.4683 12.98 57.5183 13.05 57.5683 13.11C57.6283 13.17 57.6983 13.2 57.7783 13.2V13.35H55.8283V13.2C55.8983 13.2 55.9633 13.17 56.0233 13.11C56.0833 13.05 56.1333 12.98 56.1733 12.9C56.2233 12.82 56.2583 12.73 56.2783 12.63C56.2983 12.54 56.3083 12.455 56.3083 12.375V4.63505C56.3083 4.54505 56.3033 4.46005 56.2933 4.38005C56.2933 4.29005 56.2783 4.21505 56.2483 4.15505C56.2183 4.08505 56.1683 4.03005 56.0983 3.99005C56.0383 3.94005 55.9483 3.91005 55.8283 3.90005V3.75005H57.2983V4.41005C57.4983 4.17005 57.7383 3.98505 58.0183 3.85505C58.3083 3.71505 58.6383 3.64505 59.0083 3.64505ZM59.1433 9.64505C59.4933 9.63505 59.7983 9.55505 60.0583 9.40505C60.3183 9.25505 60.5333 9.06005 60.7033 8.82005C60.8733 8.58005 60.9983 8.31505 61.0783 8.02505C61.1583 7.72505 61.1983 7.41505 61.1983 7.09505C61.1983 6.73505 61.1483 6.38005 61.0483 6.03005C60.9483 5.68005 60.8033 5.37005 60.6133 5.10005C60.4233 4.82005 60.1883 4.59505 59.9083 4.42505C59.6383 4.24505 59.3283 4.15505 58.9783 4.15505C58.7683 4.15505 58.5583 4.19505 58.3483 4.27505C58.1483 4.35505 57.9683 4.47005 57.8083 4.62005C57.6583 4.77005 57.5333 4.95005 57.4333 5.16005C57.3433 5.36005 57.2983 5.58505 57.2983 5.83505V7.80005C57.2983 8.07005 57.3533 8.32005 57.4633 8.55005C57.5733 8.77005 57.7133 8.96505 57.8833 9.13505C58.0633 9.29505 58.2633 9.42005 58.4833 9.51005C58.7033 9.60005 58.9233 9.64505 59.1433 9.64505ZM67.133 10.155C66.633 10.155 66.183 10.075 65.783 9.91505C65.383 9.74505 65.038 9.52005 64.748 9.24005C64.468 8.95005 64.248 8.61005 64.088 8.22005C63.938 7.83005 63.863 7.40505 63.863 6.94505C63.863 6.45505 63.948 6.01005 64.118 5.61005C64.288 5.20005 64.523 4.85005 64.823 4.56005C65.123 4.27005 65.478 4.04505 65.888 3.88505C66.298 3.72505 66.743 3.64505 67.223 3.64505C67.703 3.64505 68.143 3.72505 68.543 3.88505C68.943 4.03505 69.288 4.25005 69.578 4.53005C69.868 4.81005 70.093 5.14505 70.253 5.53505C70.413 5.91505 70.493 6.33505 70.493 6.79505C70.493 7.22505 70.418 7.64505 70.268 8.05505C70.128 8.45505 69.913 8.81005 69.623 9.12005C69.343 9.43005 68.993 9.68005 68.573 9.87005C68.163 10.06 67.683 10.155 67.133 10.155ZM67.043 4.14005C66.683 4.16005 66.363 4.25005 66.083 4.41005C65.813 4.56005 65.583 4.76005 65.393 5.01005C65.213 5.25005 65.073 5.52505 64.973 5.83505C64.883 6.14505 64.838 6.46005 64.838 6.78005C64.838 7.15005 64.893 7.51005 65.003 7.86005C65.123 8.20005 65.288 8.50505 65.498 8.77505C65.718 9.04505 65.978 9.26005 66.278 9.42005C66.578 9.58005 66.913 9.66005 67.283 9.66005C67.653 9.66005 67.978 9.58005 68.258 9.42005C68.548 9.26005 68.788 9.05505 68.978 8.80505C69.168 8.54505 69.308 8.25505 69.398 7.93505C69.498 7.61505 69.548 7.29505 69.548 6.97505C69.548 6.64505 69.498 6.31505 69.398 5.98505C69.298 5.64505 69.143 5.34005 68.933 5.07005C68.723 4.79005 68.458 4.56505 68.138 4.39505C67.828 4.22505 67.463 4.14005 67.043 4.14005ZM76.9346 3.75005V5.31005H76.7846C76.7846 5.20005 76.7596 5.08505 76.7096 4.96505C76.6696 4.83505 76.6046 4.72005 76.5146 4.62005C76.4246 4.51005 76.3146 4.42005 76.1846 4.35005C76.0646 4.28005 75.9246 4.24505 75.7646 4.24505H73.7696V9.10505C73.7696 9.18505 73.7796 9.27005 73.7996 9.36005C73.8296 9.45005 73.8646 9.53505 73.9046 9.61505C73.9546 9.69505 74.0096 9.76505 74.0696 9.82505C74.1296 9.87505 74.1996 9.90005 74.2796 9.90005V10.05H72.2846V9.90005C72.3646 9.90005 72.4346 9.87505 72.4946 9.82505C72.5546 9.76505 72.6046 9.69505 72.6446 9.61505C72.6946 9.53505 72.7296 9.45005 72.7496 9.36005C72.7696 9.27005 72.7796 9.18505 72.7796 9.10505V4.68005C72.7796 4.61005 72.7696 4.53005 72.7496 4.44005C72.7296 4.35005 72.6946 4.26505 72.6446 4.18505C72.6046 4.10505 72.5546 4.04005 72.4946 3.99005C72.4346 3.93005 72.3646 3.90005 72.2846 3.90005V3.75005H76.9346ZM82.1877 10.05V9.28505L82.1127 9.36005C81.8627 9.61005 81.5727 9.80505 81.2427 9.94505C80.9227 10.085 80.5327 10.155 80.0727 10.155C79.7227 10.155 79.4227 10.115 79.1727 10.035C78.9227 9.95505 78.7177 9.84505 78.5577 9.70505C78.3977 9.55505 78.2777 9.38505 78.1977 9.19505C78.1277 9.00505 78.0927 8.80505 78.0927 8.59505C78.0927 8.25505 78.1827 7.95505 78.3627 7.69505C78.5527 7.43505 78.8227 7.20505 79.1727 7.00505C79.5227 6.80505 79.9477 6.62505 80.4477 6.46505C80.9577 6.29505 81.5377 6.13005 82.1877 5.97005C82.1677 5.58005 82.0877 5.26505 81.9477 5.02505C81.8077 4.78505 81.6427 4.60005 81.4527 4.47005C81.2627 4.33005 81.0627 4.24005 80.8527 4.20005C80.6427 4.15005 80.4627 4.12505 80.3127 4.12505C80.0527 4.12505 79.8227 4.16505 79.6227 4.24505C79.4227 4.31505 79.2477 4.41505 79.0977 4.54505C78.9477 4.66505 78.8227 4.80505 78.7227 4.96505C78.6327 5.12505 78.5627 5.28505 78.5127 5.44505H78.3777V4.27505C78.4677 4.27505 78.5727 4.24505 78.6927 4.18505C78.8127 4.11505 78.9527 4.04005 79.1127 3.96005C79.2827 3.88005 79.4827 3.81005 79.7127 3.75005C79.9527 3.68005 80.2377 3.64505 80.5677 3.64505C81.1177 3.64505 81.5627 3.71505 81.9027 3.85505C82.2427 3.99505 82.5027 4.18005 82.6827 4.41005C82.8727 4.64005 82.9977 4.90505 83.0577 5.20505C83.1177 5.49505 83.1477 5.79505 83.1477 6.10505V9.07505C83.1477 9.27505 83.1977 9.46505 83.2977 9.64505C83.3977 9.81505 83.5327 9.90005 83.7027 9.90005V10.05H82.1877ZM82.1877 8.62505V6.48005L82.0377 6.51005C81.7977 6.57005 81.5027 6.65005 81.1527 6.75005C80.8127 6.85005 80.4877 6.98005 80.1777 7.14005C79.8677 7.30005 79.6027 7.49005 79.3827 7.71005C79.1627 7.93005 79.0527 8.18505 79.0527 8.47505C79.0527 8.79505 79.1827 9.06005 79.4427 9.27005C79.7027 9.48005 80.0427 9.58505 80.4627 9.58505C80.7927 9.58505 81.0827 9.51505 81.3327 9.37505C81.5827 9.22505 81.8127 9.03505 82.0227 8.80505L82.1877 8.62505ZM90.6032 5.32505C90.6032 5.21505 90.5832 5.09505 90.5432 4.96505C90.5032 4.83505 90.4432 4.72005 90.3632 4.62005C90.2832 4.51005 90.1832 4.42005 90.0632 4.35005C89.9432 4.28005 89.8032 4.24505 89.6432 4.24505H88.3232V9.07505C88.3232 9.15505 88.3332 9.24005 88.3532 9.33005C88.3732 9.42005 88.4032 9.51005 88.4432 9.60005C88.4932 9.68005 88.5432 9.75005 88.5932 9.81005C88.6532 9.87005 88.7232 9.90005 88.8032 9.90005V10.05H86.8532V9.90005C86.9332 9.90005 87.0032 9.87005 87.0632 9.81005C87.1232 9.75005 87.1732 9.68005 87.2132 9.60005C87.2632 9.52005 87.2982 9.43505 87.3182 9.34505C87.3382 9.24505 87.3482 9.15505 87.3482 9.07505V4.24505H86.0582C85.8982 4.24505 85.7582 4.28005 85.6382 4.35005C85.5182 4.42005 85.4182 4.51005 85.3382 4.62005C85.2682 4.72005 85.2132 4.83505 85.1732 4.96505C85.1332 5.09505 85.1132 5.21505 85.1132 5.32505H84.9632V3.75005H90.7382V5.32505H90.6032ZM92.6822 7.02005C92.7222 7.37005 92.8072 7.70505 92.9372 8.02505C93.0672 8.33505 93.2372 8.61005 93.4472 8.85005C93.6672 9.09005 93.9322 9.28505 94.2422 9.43505C94.5522 9.57505 94.9122 9.64505 95.3222 9.64505C95.5422 9.64505 95.7722 9.61505 96.0122 9.55505C96.2622 9.48505 96.4922 9.39005 96.7022 9.27005C96.9122 9.15005 97.0972 9.00505 97.2572 8.83505C97.4272 8.65505 97.5422 8.45505 97.6022 8.23505H97.7372V9.36005C97.6772 9.36005 97.6072 9.38005 97.5272 9.42005C97.4572 9.46005 97.3722 9.51005 97.2722 9.57005C97.0722 9.69005 96.8022 9.82005 96.4622 9.96005C96.1222 10.09 95.6722 10.155 95.1122 10.155C94.6622 10.155 94.2322 10.09 93.8222 9.96005C93.4222 9.83005 93.0672 9.63005 92.7572 9.36005C92.4472 9.09005 92.1972 8.74505 92.0072 8.32505C91.8272 7.90505 91.7372 7.40505 91.7372 6.82505C91.7372 6.45505 91.7972 6.08005 91.9172 5.70005C92.0472 5.32005 92.2372 4.98005 92.4872 4.68005C92.7472 4.37005 93.0772 4.12005 93.4772 3.93005C93.8772 3.74005 94.3572 3.64505 94.9172 3.64505C95.4172 3.64505 95.8522 3.73005 96.2222 3.90005C96.6022 4.07005 96.9122 4.30505 97.1522 4.60505C97.4022 4.90505 97.5872 5.26005 97.7072 5.67005C97.8272 6.08005 97.8872 6.53005 97.8872 7.02005H92.6822ZM94.8572 4.14005C94.5072 4.14005 94.2022 4.21005 93.9422 4.35005C93.6922 4.49005 93.4772 4.67005 93.2972 4.89005C93.1172 5.11005 92.9772 5.36005 92.8772 5.64005C92.7772 5.92005 92.7122 6.20005 92.6822 6.48005H96.9572C96.9472 6.19005 96.8922 5.90505 96.7922 5.62505C96.7022 5.34505 96.5722 5.09505 96.4022 4.87505C96.2322 4.65505 96.0172 4.48005 95.7572 4.35005C95.4972 4.21005 95.1972 4.14005 94.8572 4.14005ZM103.472 9.90005C103.542 9.90005 103.622 9.87005 103.712 9.81005C103.802 9.75005 103.847 9.66505 103.847 9.55505C103.847 9.53505 103.837 9.49505 103.817 9.43505C103.807 9.36505 103.782 9.29005 103.742 9.21005L101.837 4.71005L99.8573 9.43505C99.6873 9.84505 99.3523 10.05 98.8523 10.05H98.5223V9.90005C98.6623 9.90005 98.8123 9.83005 98.9723 9.69005C99.1423 9.54005 99.2773 9.36505 99.3773 9.16505L101.417 4.39505C101.467 4.26505 101.492 4.16005 101.492 4.08005C101.492 3.96005 101.412 3.90005 101.252 3.90005V3.75005H102.467L104.777 9.15005C104.847 9.30005 104.947 9.46505 105.077 9.64505C105.217 9.81505 105.347 9.90005 105.467 9.90005V10.05H103.472V9.90005ZM109.46 6.48005C109.92 6.48005 110.32 6.52505 110.66 6.61505C111.01 6.70505 111.295 6.83005 111.515 6.99005C111.745 7.15005 111.915 7.34005 112.025 7.56005C112.135 7.77005 112.19 8.00005 112.19 8.25005C112.19 8.50005 112.135 8.73505 112.025 8.95505C111.915 9.17505 111.74 9.36505 111.5 9.52505C111.27 9.68505 110.98 9.81505 110.63 9.91505C110.28 10.005 109.865 10.05 109.385 10.05H106.82V9.90005C106.9 9.90005 106.97 9.87505 107.03 9.82505C107.09 9.76505 107.14 9.69505 107.18 9.61505C107.23 9.52505 107.265 9.43505 107.285 9.34505C107.305 9.24505 107.315 9.15505 107.315 9.07505V4.68005C107.315 4.61005 107.305 4.53005 107.285 4.44005C107.265 4.35005 107.23 4.26505 107.18 4.18505C107.14 4.10505 107.09 4.04005 107.03 3.99005C106.97 3.93005 106.9 3.90005 106.82 3.90005V3.75005H108.785V3.90005C108.635 3.90005 108.515 3.99505 108.425 4.18505C108.335 4.36505 108.29 4.53005 108.29 4.68005V6.48005H109.46ZM109.355 9.55505C110.015 9.55505 110.49 9.45005 110.78 9.24005C111.08 9.02005 111.23 8.75005 111.23 8.43005C111.23 8.25005 111.19 8.07505 111.11 7.90505C111.03 7.72505 110.905 7.57005 110.735 7.44005C110.575 7.30005 110.375 7.19005 110.135 7.11005C109.895 7.02005 109.62 6.97505 109.31 6.97505H108.29V9.55505H109.355ZM115.419 9.07505C115.419 9.15505 115.429 9.24505 115.449 9.34505C115.469 9.43505 115.499 9.52005 115.539 9.60005C115.579 9.68005 115.624 9.75005 115.674 9.81005C115.734 9.87005 115.799 9.90005 115.869 9.90005V10.05H113.979V9.90005C114.049 9.90005 114.109 9.87505 114.159 9.82505C114.219 9.76505 114.269 9.69505 114.309 9.61505C114.349 9.52505 114.379 9.43505 114.399 9.34505C114.419 9.24505 114.429 9.15505 114.429 9.07505V4.68005C114.429 4.61005 114.419 4.53005 114.399 4.44005C114.379 4.35005 114.349 4.26505 114.309 4.18505C114.269 4.10505 114.219 4.04005 114.159 3.99005C114.109 3.93005 114.049 3.90005 113.979 3.90005V3.75005H115.869V3.90005C115.789 3.90005 115.719 3.93005 115.659 3.99005C115.609 4.04005 115.564 4.10505 115.524 4.18505C115.494 4.26505 115.469 4.35005 115.449 4.44005C115.429 4.53005 115.419 4.61005 115.419 4.68005V6.49505H118.839V4.68005C118.839 4.61005 118.829 4.53005 118.809 4.44005C118.789 4.35005 118.759 4.26505 118.719 4.18505C118.689 4.10505 118.644 4.04005 118.584 3.99005C118.534 3.93005 118.469 3.90005 118.389 3.90005V3.75005H120.279V3.90005C120.199 3.90005 120.129 3.93005 120.069 3.99005C120.019 4.04005 119.974 4.10505 119.934 4.18505C119.894 4.26505 119.864 4.35005 119.844 4.44005C119.834 4.53005 119.829 4.61005 119.829 4.68005V9.07505C119.829 9.15505 119.839 9.24505 119.859 9.34505C119.879 9.43505 119.909 9.52005 119.949 9.60005C119.989 9.68005 120.034 9.75005 120.084 9.81005C120.144 9.87005 120.209 9.90005 120.279 9.90005V10.05H118.389V9.90005C118.459 9.90005 118.519 9.87505 118.569 9.82505C118.629 9.76505 118.679 9.69505 118.719 9.61505C118.759 9.52505 118.789 9.43505 118.809 9.34505C118.829 9.24505 118.839 9.15505 118.839 9.07505V6.99005H115.419V9.07505ZM128.388 10.05V9.90005C128.458 9.90005 128.523 9.87505 128.583 9.82505C128.643 9.76505 128.693 9.69505 128.733 9.61505C128.783 9.52505 128.818 9.43505 128.838 9.34505C128.858 9.24505 128.868 9.15505 128.868 9.07505V4.68005C128.868 4.61005 128.858 4.53005 128.838 4.44005C128.818 4.35005 128.783 4.26505 128.733 4.18505C128.693 4.10505 128.643 4.04005 128.583 3.99005C128.523 3.93005 128.458 3.90005 128.388 3.90005V3.75005H130.338V3.90005C130.188 3.90005 130.068 3.99505 129.978 4.18505C129.888 4.36505 129.843 4.53005 129.843 4.68005V9.07505C129.843 9.15505 129.853 9.24505 129.873 9.34505C129.893 9.43505 129.923 9.52005 129.963 9.60005C130.013 9.68005 130.068 9.75005 130.128 9.81005C130.188 9.87005 130.258 9.90005 130.338 9.90005V10.05H128.388ZM124.848 6.48005C125.768 6.48005 126.448 6.65005 126.888 6.99005C127.338 7.33005 127.563 7.75005 127.563 8.25005C127.563 8.50005 127.503 8.73505 127.383 8.95505C127.273 9.17505 127.103 9.36505 126.873 9.52505C126.643 9.68505 126.353 9.81505 126.003 9.91505C125.653 10.005 125.238 10.05 124.758 10.05H122.208V9.90005C122.278 9.90005 122.343 9.87505 122.403 9.82505C122.463 9.76505 122.513 9.69505 122.553 9.61505C122.603 9.52505 122.638 9.43505 122.658 9.34505C122.678 9.24505 122.688 9.15505 122.688 9.07505V4.68005C122.688 4.61005 122.678 4.53005 122.658 4.44005C122.638 4.35005 122.603 4.26505 122.553 4.18505C122.513 4.10505 122.463 4.04005 122.403 3.99005C122.343 3.93005 122.278 3.90005 122.208 3.90005V3.75005H124.158V3.90005C124.008 3.90005 123.888 3.99505 123.798 4.18505C123.708 4.36505 123.663 4.53005 123.663 4.68005V6.48005H124.848ZM124.728 9.55505C125.388 9.55505 125.863 9.45005 126.153 9.24005C126.453 9.02005 126.603 8.75005 126.603 8.43005C126.603 8.25005 126.563 8.07505 126.483 7.90505C126.403 7.72505 126.278 7.57005 126.108 7.44005C125.948 7.30005 125.748 7.19005 125.508 7.11005C125.268 7.02005 124.993 6.97505 124.683 6.97505H123.663V9.55505H124.728ZM138.281 9.07505C138.281 9.15505 138.291 9.24505 138.311 9.34505C138.341 9.43505 138.376 9.52005 138.416 9.60005C138.456 9.68005 138.506 9.75005 138.566 9.81005C138.636 9.87005 138.701 9.90005 138.761 9.90005V10.05H136.841V9.90005C136.911 9.90005 136.976 9.87505 137.036 9.82505C137.096 9.76505 137.146 9.69505 137.186 9.61505C137.226 9.52505 137.256 9.43505 137.276 9.34505C137.296 9.24505 137.306 9.15505 137.306 9.07505V5.47505L133.736 8.97005V9.07505C133.736 9.15505 133.746 9.24505 133.766 9.34505C133.786 9.43505 133.816 9.52005 133.856 9.60005C133.896 9.68005 133.941 9.75005 133.991 9.81005C134.051 9.87005 134.116 9.90005 134.186 9.90005V10.05H132.281V9.90005C132.351 9.90005 132.416 9.87505 132.476 9.82505C132.536 9.76505 132.586 9.69505 132.626 9.61505C132.666 9.52505 132.696 9.43505 132.716 9.34505C132.736 9.24505 132.746 9.15505 132.746 9.07505V4.68005C132.746 4.61005 132.736 4.53005 132.716 4.44005C132.696 4.35005 132.666 4.26505 132.626 4.18505C132.586 4.10505 132.536 4.04005 132.476 3.99005C132.416 3.93005 132.351 3.90005 132.281 3.90005V3.75005H134.186V3.90005C134.106 3.90005 134.036 3.93005 133.976 3.99005C133.926 4.04005 133.881 4.10505 133.841 4.18505C133.811 4.26505 133.786 4.35005 133.766 4.44005C133.746 4.53005 133.736 4.61005 133.736 4.68005V8.26505L137.306 4.77005V4.68005C137.306 4.61005 137.296 4.53005 137.276 4.44005C137.256 4.35005 137.226 4.26505 137.186 4.18505C137.146 4.10505 137.096 4.04005 137.036 3.99005C136.976 3.93005 136.911 3.90005 136.841 3.90005V3.75005H138.761V3.90005C138.681 3.90005 138.606 3.93005 138.536 3.99005C138.476 4.04005 138.426 4.10505 138.386 4.18505C138.356 4.26505 138.331 4.35005 138.311 4.44005C138.291 4.53005 138.281 4.61005 138.281 4.68005V9.07505ZM137.126 1.72505C137.126 1.88505 137.086 2.06005 137.006 2.25005C136.926 2.43005 136.811 2.60005 136.661 2.76005C136.511 2.91005 136.331 3.03505 136.121 3.13505C135.921 3.23505 135.696 3.28505 135.446 3.28505C135.216 3.28505 134.996 3.24005 134.786 3.15005C134.586 3.05005 134.411 2.92505 134.261 2.77505C134.111 2.62505 133.991 2.46005 133.901 2.28005C133.811 2.09005 133.766 1.90505 133.766 1.72505H133.856C133.866 1.78505 133.896 1.87005 133.946 1.98005C134.006 2.08005 134.096 2.18505 134.216 2.29505C134.336 2.40505 134.491 2.50005 134.681 2.58005C134.881 2.66005 135.131 2.70005 135.431 2.70005C135.741 2.70005 135.996 2.66005 136.196 2.58005C136.396 2.50005 136.556 2.40505 136.676 2.29505C136.796 2.18505 136.881 2.08005 136.931 1.98005C136.981 1.87005 137.016 1.78505 137.036 1.72505H137.126ZM151.872 9.07505C151.872 9.15505 151.882 9.24505 151.902 9.34505C151.922 9.43505 151.952 9.52005 151.992 9.60005C152.042 9.68005 152.097 9.75005 152.157 9.81005C152.217 9.87005 152.287 9.90005 152.367 9.90005V10.05H150.417V9.90005C150.497 9.90005 150.567 9.87505 150.627 9.82505C150.687 9.76505 150.737 9.69505 150.777 9.61505C150.817 9.52505 150.847 9.43505 150.867 9.34505C150.887 9.24505 150.897 9.15505 150.897 9.07505V5.02505L148.392 10.185L145.992 5.32505V9.07505C145.992 9.15505 146.002 9.24505 146.022 9.34505C146.042 9.43505 146.072 9.52005 146.112 9.60005C146.152 9.68005 146.202 9.75005 146.262 9.81005C146.322 9.87005 146.392 9.90005 146.472 9.90005V10.05H145.017V9.90005C145.097 9.90005 145.167 9.87005 145.227 9.81005C145.287 9.75005 145.332 9.68005 145.362 9.60005C145.402 9.52005 145.432 9.43505 145.452 9.34505C145.472 9.24505 145.482 9.15505 145.482 9.07505V4.68005C145.482 4.50005 145.457 4.32505 145.407 4.15505C145.367 3.98505 145.237 3.90005 145.017 3.90005V3.75005H146.352L148.647 8.44505L150.942 3.75005H152.367V3.90005C152.217 3.90005 152.097 3.99505 152.007 4.18505C151.917 4.36505 151.872 4.53005 151.872 4.68005V9.07505ZM157.435 10.155C156.935 10.155 156.485 10.075 156.085 9.91505C155.685 9.74505 155.34 9.52005 155.05 9.24005C154.77 8.95005 154.55 8.61005 154.39 8.22005C154.24 7.83005 154.165 7.40505 154.165 6.94505C154.165 6.45505 154.25 6.01005 154.42 5.61005C154.59 5.20005 154.825 4.85005 155.125 4.56005C155.425 4.27005 155.78 4.04505 156.19 3.88505C156.6 3.72505 157.045 3.64505 157.525 3.64505C158.005 3.64505 158.445 3.72505 158.845 3.88505C159.245 4.03505 159.59 4.25005 159.88 4.53005C160.17 4.81005 160.395 5.14505 160.555 5.53505C160.715 5.91505 160.795 6.33505 160.795 6.79505C160.795 7.22505 160.72 7.64505 160.57 8.05505C160.43 8.45505 160.215 8.81005 159.925 9.12005C159.645 9.43005 159.295 9.68005 158.875 9.87005C158.465 10.06 157.985 10.155 157.435 10.155ZM157.345 4.14005C156.985 4.16005 156.665 4.25005 156.385 4.41005C156.115 4.56005 155.885 4.76005 155.695 5.01005C155.515 5.25005 155.375 5.52505 155.275 5.83505C155.185 6.14505 155.14 6.46005 155.14 6.78005C155.14 7.15005 155.195 7.51005 155.305 7.86005C155.425 8.20005 155.59 8.50505 155.8 8.77505C156.02 9.04505 156.28 9.26005 156.58 9.42005C156.88 9.58005 157.215 9.66005 157.585 9.66005C157.955 9.66005 158.28 9.58005 158.56 9.42005C158.85 9.26005 159.09 9.05505 159.28 8.80505C159.47 8.54505 159.61 8.25505 159.7 7.93505C159.8 7.61505 159.85 7.29505 159.85 6.97505C159.85 6.64505 159.8 6.31505 159.7 5.98505C159.6 5.64505 159.445 5.34005 159.235 5.07005C159.025 4.79005 158.76 4.56505 158.44 4.39505C158.13 4.22505 157.765 4.14005 157.345 4.14005ZM169.457 9.07505C169.457 9.15505 169.467 9.24505 169.487 9.34505C169.507 9.43505 169.537 9.52005 169.577 9.60005C169.627 9.68005 169.682 9.75005 169.742 9.81005C169.802 9.87005 169.872 9.90005 169.952 9.90005V10.05H168.002V9.90005C168.082 9.90005 168.152 9.87505 168.212 9.82505C168.272 9.76505 168.322 9.69505 168.362 9.61505C168.402 9.52505 168.432 9.43505 168.452 9.34505C168.472 9.24505 168.482 9.15505 168.482 9.07505V5.02505L165.977 10.185L163.577 5.32505V9.07505C163.577 9.15505 163.587 9.24505 163.607 9.34505C163.627 9.43505 163.657 9.52005 163.697 9.60005C163.737 9.68005 163.787 9.75005 163.847 9.81005C163.907 9.87005 163.977 9.90005 164.057 9.90005V10.05H162.602V9.90005C162.682 9.90005 162.752 9.87005 162.812 9.81005C162.872 9.75005 162.917 9.68005 162.947 9.60005C162.987 9.52005 163.017 9.43505 163.037 9.34505C163.057 9.24505 163.067 9.15505 163.067 9.07505V4.68005C163.067 4.50005 163.042 4.32505 162.992 4.15505C162.952 3.98505 162.822 3.90005 162.602 3.90005V3.75005H163.937L166.232 8.44505L168.527 3.75005H169.952V3.90005C169.802 3.90005 169.682 3.99505 169.592 4.18505C169.502 4.36505 169.457 4.53005 169.457 4.68005V9.07505ZM172.695 7.02005C172.735 7.37005 172.82 7.70505 172.95 8.02505C173.08 8.33505 173.25 8.61005 173.46 8.85005C173.68 9.09005 173.945 9.28505 174.255 9.43505C174.565 9.57505 174.925 9.64505 175.335 9.64505C175.555 9.64505 175.785 9.61505 176.025 9.55505C176.275 9.48505 176.505 9.39005 176.715 9.27005C176.925 9.15005 177.11 9.00505 177.27 8.83505C177.44 8.65505 177.555 8.45505 177.615 8.23505H177.75V9.36005C177.69 9.36005 177.62 9.38005 177.54 9.42005C177.47 9.46005 177.385 9.51005 177.285 9.57005C177.085 9.69005 176.815 9.82005 176.475 9.96005C176.135 10.09 175.685 10.155 175.125 10.155C174.675 10.155 174.245 10.09 173.835 9.96005C173.435 9.83005 173.08 9.63005 172.77 9.36005C172.46 9.09005 172.21 8.74505 172.02 8.32505C171.84 7.90505 171.75 7.40505 171.75 6.82505C171.75 6.45505 171.81 6.08005 171.93 5.70005C172.06 5.32005 172.25 4.98005 172.5 4.68005C172.76 4.37005 173.09 4.12005 173.49 3.93005C173.89 3.74005 174.37 3.64505 174.93 3.64505C175.43 3.64505 175.865 3.73005 176.235 3.90005C176.615 4.07005 176.925 4.30505 177.165 4.60505C177.415 4.90505 177.6 5.26005 177.72 5.67005C177.84 6.08005 177.9 6.53005 177.9 7.02005H172.695ZM174.87 4.14005C174.52 4.14005 174.215 4.21005 173.955 4.35005C173.705 4.49005 173.49 4.67005 173.31 4.89005C173.13 5.11005 172.99 5.36005 172.89 5.64005C172.79 5.92005 172.725 6.20005 172.695 6.48005H176.97C176.96 6.19005 176.905 5.90505 176.805 5.62505C176.715 5.34505 176.585 5.09505 176.415 4.87505C176.245 4.65505 176.03 4.48005 175.77 4.35005C175.51 4.21005 175.21 4.14005 174.87 4.14005ZM181.07 9.07505C181.07 9.15505 181.08 9.24505 181.1 9.34505C181.12 9.43505 181.15 9.52005 181.19 9.60005C181.23 9.68005 181.275 9.75005 181.325 9.81005C181.385 9.87005 181.45 9.90005 181.52 9.90005V10.05H179.63V9.90005C179.7 9.90005 179.76 9.87505 179.81 9.82505C179.87 9.76505 179.92 9.69505 179.96 9.61505C180 9.52505 180.03 9.43505 180.05 9.34505C180.07 9.24505 180.08 9.15505 180.08 9.07505V4.68005C180.08 4.61005 180.07 4.53005 180.05 4.44005C180.03 4.35005 180 4.26505 179.96 4.18505C179.92 4.10505 179.87 4.04005 179.81 3.99005C179.76 3.93005 179.7 3.90005 179.63 3.90005V3.75005H181.52V3.90005C181.44 3.90005 181.37 3.93005 181.31 3.99005C181.26 4.04005 181.215 4.10505 181.175 4.18505C181.145 4.26505 181.12 4.35005 181.1 4.44005C181.08 4.53005 181.07 4.61005 181.07 4.68005V6.49505H184.49V4.68005C184.49 4.61005 184.48 4.53005 184.46 4.44005C184.44 4.35005 184.41 4.26505 184.37 4.18505C184.34 4.10505 184.295 4.04005 184.235 3.99005C184.185 3.93005 184.12 3.90005 184.04 3.90005V3.75005H185.93V3.90005C185.85 3.90005 185.78 3.93005 185.72 3.99005C185.67 4.04005 185.625 4.10505 185.585 4.18505C185.545 4.26505 185.515 4.35005 185.495 4.44005C185.485 4.53005 185.48 4.61005 185.48 4.68005V9.07505C185.48 9.15505 185.49 9.24505 185.51 9.34505C185.53 9.43505 185.56 9.52005 185.6 9.60005C185.64 9.68005 185.685 9.75005 185.735 9.81005C185.795 9.87005 185.86 9.90005 185.93 9.90005V10.05H184.04V9.90005C184.11 9.90005 184.17 9.87505 184.22 9.82505C184.28 9.76505 184.33 9.69505 184.37 9.61505C184.41 9.52505 184.44 9.43505 184.46 9.34505C184.48 9.24505 184.49 9.15505 184.49 9.07505V6.99005H181.07V9.07505ZM192.899 5.32505C192.899 5.21505 192.879 5.09505 192.839 4.96505C192.799 4.83505 192.739 4.72005 192.659 4.62005C192.579 4.51005 192.479 4.42005 192.359 4.35005C192.239 4.28005 192.099 4.24505 191.939 4.24505H190.619V9.07505C190.619 9.15505 190.629 9.24005 190.649 9.33005C190.669 9.42005 190.699 9.51005 190.739 9.60005C190.789 9.68005 190.839 9.75005 190.889 9.81005C190.949 9.87005 191.019 9.90005 191.099 9.90005V10.05H189.149V9.90005C189.229 9.90005 189.299 9.87005 189.359 9.81005C189.419 9.75005 189.469 9.68005 189.509 9.60005C189.559 9.52005 189.594 9.43505 189.614 9.34505C189.634 9.24505 189.644 9.15505 189.644 9.07505V4.24505H188.354C188.194 4.24505 188.054 4.28005 187.934 4.35005C187.814 4.42005 187.714 4.51005 187.634 4.62005C187.564 4.72005 187.509 4.83505 187.469 4.96505C187.429 5.09505 187.409 5.21505 187.409 5.32505H187.259V3.75005H193.034V5.32505H192.899ZM193.467 8.65505C193.757 8.65505 193.967 8.75505 194.097 8.95505C194.237 9.15505 194.307 9.38505 194.307 9.64505C194.307 9.79505 194.287 9.96005 194.247 10.14C194.207 10.33 194.127 10.515 194.007 10.695C193.897 10.885 193.732 11.07 193.512 11.25C193.302 11.44 193.022 11.615 192.672 11.775L192.597 11.64C192.797 11.46 192.952 11.295 193.062 11.145C193.182 11.005 193.267 10.875 193.317 10.755C193.377 10.645 193.412 10.54 193.422 10.44C193.442 10.34 193.452 10.235 193.452 10.125C193.452 10.045 193.427 9.98505 193.377 9.94505C193.327 9.89505 193.272 9.85005 193.212 9.81005C193.132 9.76005 193.052 9.70505 192.972 9.64505C192.892 9.57505 192.852 9.46005 192.852 9.30005C192.852 9.11005 192.912 8.95505 193.032 8.83505C193.152 8.71505 193.297 8.65505 193.467 8.65505ZM26.4867 24.075C26.4867 24.155 26.4967 24.245 26.5167 24.345C26.5367 24.435 26.5617 24.52 26.5917 24.6C26.6317 24.68 26.6767 24.75 26.7267 24.81C26.7867 24.87 26.8567 24.9 26.9367 24.9V25.05H25.0317V24.9C25.1117 24.9 25.1817 24.875 25.2417 24.825C25.3017 24.765 25.3467 24.695 25.3767 24.615C25.4167 24.525 25.4467 24.435 25.4667 24.345C25.4867 24.245 25.4967 24.155 25.4967 24.075V19.68C25.4967 19.61 25.4867 19.53 25.4667 19.44C25.4467 19.34 25.4167 19.255 25.3767 19.185C25.3367 19.105 25.2867 19.04 25.2267 18.99C25.1667 18.93 25.1017 18.9 25.0317 18.9V18.75H31.2567V18.9C31.0967 18.9 30.9767 18.995 30.8967 19.185C30.8167 19.365 30.7767 19.53 30.7767 19.68V24.075C30.7767 24.155 30.7867 24.245 30.8067 24.345C30.8267 24.435 30.8567 24.52 30.8967 24.6C30.9367 24.68 30.9867 24.75 31.0467 24.81C31.1167 24.87 31.1867 24.9 31.2567 24.9V25.05H29.3217V24.9C29.4117 24.9 29.4817 24.875 29.5317 24.825C29.5917 24.765 29.6417 24.695 29.6817 24.615C29.7217 24.525 29.7467 24.435 29.7567 24.345C29.7767 24.245 29.7867 24.155 29.7867 24.075V19.275H26.4867V24.075ZM36.3228 18.645C36.8628 18.645 37.3278 18.74 37.7178 18.93C38.1178 19.11 38.4478 19.35 38.7078 19.65C38.9778 19.95 39.1778 20.295 39.3078 20.685C39.4378 21.075 39.5028 21.475 39.5028 21.885C39.5028 22.285 39.4378 22.68 39.3078 23.07C39.1878 23.46 38.9978 23.81 38.7378 24.12C38.4878 24.43 38.1728 24.68 37.7928 24.87C37.4128 25.06 36.9628 25.155 36.4428 25.155C36.1328 25.155 35.8128 25.075 35.4828 24.915C35.1628 24.745 34.8728 24.535 34.6128 24.285V27.375C34.6128 27.455 34.6228 27.54 34.6428 27.63C34.6628 27.73 34.6928 27.82 34.7328 27.9C34.7828 27.98 34.8328 28.05 34.8828 28.11C34.9428 28.17 35.0128 28.2 35.0928 28.2V28.35H33.1428V28.2C33.2128 28.2 33.2778 28.17 33.3378 28.11C33.3978 28.05 33.4478 27.98 33.4878 27.9C33.5378 27.82 33.5728 27.73 33.5928 27.63C33.6128 27.54 33.6228 27.455 33.6228 27.375V19.635C33.6228 19.545 33.6178 19.46 33.6078 19.38C33.6078 19.29 33.5928 19.215 33.5628 19.155C33.5328 19.085 33.4828 19.03 33.4128 18.99C33.3528 18.94 33.2628 18.91 33.1428 18.9V18.75H34.6128V19.41C34.8128 19.17 35.0528 18.985 35.3328 18.855C35.6228 18.715 35.9528 18.645 36.3228 18.645ZM36.4578 24.645C36.8078 24.635 37.1128 24.555 37.3728 24.405C37.6328 24.255 37.8478 24.06 38.0178 23.82C38.1878 23.58 38.3128 23.315 38.3928 23.025C38.4728 22.725 38.5128 22.415 38.5128 22.095C38.5128 21.735 38.4628 21.38 38.3628 21.03C38.2628 20.68 38.1178 20.37 37.9278 20.1C37.7378 19.82 37.5028 19.595 37.2228 19.425C36.9528 19.245 36.6428 19.155 36.2928 19.155C36.0828 19.155 35.8728 19.195 35.6628 19.275C35.4628 19.355 35.2828 19.47 35.1228 19.62C34.9728 19.77 34.8478 19.95 34.7478 20.16C34.6578 20.36 34.6128 20.585 34.6128 20.835V22.8C34.6128 23.07 34.6678 23.32 34.7778 23.55C34.8878 23.77 35.0278 23.965 35.1978 24.135C35.3778 24.295 35.5778 24.42 35.7978 24.51C36.0178 24.6 36.2378 24.645 36.4578 24.645ZM47.3126 24.075C47.3126 24.155 47.3226 24.245 47.3426 24.345C47.3726 24.435 47.4076 24.52 47.4476 24.6C47.4876 24.68 47.5376 24.75 47.5976 24.81C47.6676 24.87 47.7326 24.9 47.7926 24.9V25.05H45.8726V24.9C45.9426 24.9 46.0076 24.875 46.0676 24.825C46.1276 24.765 46.1776 24.695 46.2176 24.615C46.2576 24.525 46.2876 24.435 46.3076 24.345C46.3276 24.245 46.3376 24.155 46.3376 24.075V20.475L42.7676 23.97V24.075C42.7676 24.155 42.7776 24.245 42.7976 24.345C42.8176 24.435 42.8476 24.52 42.8876 24.6C42.9276 24.68 42.9726 24.75 43.0226 24.81C43.0826 24.87 43.1476 24.9 43.2176 24.9V25.05H41.3126V24.9C41.3826 24.9 41.4476 24.875 41.5076 24.825C41.5676 24.765 41.6176 24.695 41.6576 24.615C41.6976 24.525 41.7276 24.435 41.7476 24.345C41.7676 24.245 41.7776 24.155 41.7776 24.075V19.68C41.7776 19.61 41.7676 19.53 41.7476 19.44C41.7276 19.35 41.6976 19.265 41.6576 19.185C41.6176 19.105 41.5676 19.04 41.5076 18.99C41.4476 18.93 41.3826 18.9 41.3126 18.9V18.75H43.2176V18.9C43.1376 18.9 43.0676 18.93 43.0076 18.99C42.9576 19.04 42.9126 19.105 42.8726 19.185C42.8426 19.265 42.8176 19.35 42.7976 19.44C42.7776 19.53 42.7676 19.61 42.7676 19.68V23.265L46.3376 19.77V19.68C46.3376 19.61 46.3276 19.53 46.3076 19.44C46.2876 19.35 46.2576 19.265 46.2176 19.185C46.1776 19.105 46.1276 19.04 46.0676 18.99C46.0076 18.93 45.9426 18.9 45.8726 18.9V18.75H47.7926V18.9C47.7126 18.9 47.6376 18.93 47.5676 18.99C47.5076 19.04 47.4576 19.105 47.4176 19.185C47.3876 19.265 47.3626 19.35 47.3426 19.44C47.3226 19.53 47.3126 19.61 47.3126 19.68V24.075ZM54.337 18.75V20.31H54.187C54.187 20.2 54.162 20.085 54.112 19.965C54.072 19.835 54.007 19.72 53.917 19.62C53.827 19.51 53.717 19.42 53.587 19.35C53.467 19.28 53.327 19.245 53.167 19.245H51.172V24.105C51.172 24.185 51.182 24.27 51.202 24.36C51.232 24.45 51.267 24.535 51.307 24.615C51.357 24.695 51.412 24.765 51.472 24.825C51.532 24.875 51.602 24.9 51.682 24.9V25.05H49.687V24.9C49.767 24.9 49.837 24.875 49.897 24.825C49.957 24.765 50.007 24.695 50.047 24.615C50.097 24.535 50.132 24.45 50.152 24.36C50.172 24.27 50.182 24.185 50.182 24.105V19.68C50.182 19.61 50.172 19.53 50.152 19.44C50.132 19.35 50.097 19.265 50.047 19.185C50.007 19.105 49.957 19.04 49.897 18.99C49.837 18.93 49.767 18.9 49.687 18.9V18.75H54.337ZM58.5604 25.155C58.0604 25.155 57.6104 25.075 57.2104 24.915C56.8104 24.745 56.4654 24.52 56.1754 24.24C55.8954 23.95 55.6754 23.61 55.5154 23.22C55.3654 22.83 55.2904 22.405 55.2904 21.945C55.2904 21.455 55.3754 21.01 55.5454 20.61C55.7154 20.2 55.9504 19.85 56.2504 19.56C56.5504 19.27 56.9054 19.045 57.3154 18.885C57.7254 18.725 58.1704 18.645 58.6504 18.645C59.1304 18.645 59.5704 18.725 59.9704 18.885C60.3704 19.035 60.7154 19.25 61.0054 19.53C61.2954 19.81 61.5204 20.145 61.6804 20.535C61.8404 20.915 61.9204 21.335 61.9204 21.795C61.9204 22.225 61.8454 22.645 61.6954 23.055C61.5554 23.455 61.3404 23.81 61.0504 24.12C60.7704 24.43 60.4204 24.68 60.0004 24.87C59.5904 25.06 59.1104 25.155 58.5604 25.155ZM58.4704 19.14C58.1104 19.16 57.7904 19.25 57.5104 19.41C57.2404 19.56 57.0104 19.76 56.8204 20.01C56.6404 20.25 56.5004 20.525 56.4004 20.835C56.3104 21.145 56.2654 21.46 56.2654 21.78C56.2654 22.15 56.3204 22.51 56.4304 22.86C56.5504 23.2 56.7154 23.505 56.9254 23.775C57.1454 24.045 57.4054 24.26 57.7054 24.42C58.0054 24.58 58.3404 24.66 58.7104 24.66C59.0804 24.66 59.4054 24.58 59.6854 24.42C59.9754 24.26 60.2154 24.055 60.4054 23.805C60.5954 23.545 60.7354 23.255 60.8254 22.935C60.9254 22.615 60.9754 22.295 60.9754 21.975C60.9754 21.645 60.9254 21.315 60.8254 20.985C60.7254 20.645 60.5704 20.34 60.3604 20.07C60.1504 19.79 59.8854 19.565 59.5654 19.395C59.2554 19.225 58.8904 19.14 58.4704 19.14ZM68.5623 20.325C68.5623 20.215 68.5423 20.095 68.5023 19.965C68.4623 19.835 68.4023 19.72 68.3223 19.62C68.2423 19.51 68.1423 19.42 68.0223 19.35C67.9023 19.28 67.7623 19.245 67.6023 19.245H66.2823V24.075C66.2823 24.155 66.2923 24.24 66.3123 24.33C66.3323 24.42 66.3623 24.51 66.4023 24.6C66.4523 24.68 66.5023 24.75 66.5523 24.81C66.6123 24.87 66.6823 24.9 66.7623 24.9V25.05H64.8123V24.9C64.8923 24.9 64.9623 24.87 65.0223 24.81C65.0823 24.75 65.1323 24.68 65.1723 24.6C65.2223 24.52 65.2573 24.435 65.2773 24.345C65.2973 24.245 65.3073 24.155 65.3073 24.075V19.245H64.0173C63.8573 19.245 63.7173 19.28 63.5973 19.35C63.4773 19.42 63.3773 19.51 63.2973 19.62C63.2273 19.72 63.1723 19.835 63.1323 19.965C63.0923 20.095 63.0723 20.215 63.0723 20.325H62.9223V18.75H68.6973V20.325H68.5623ZM72.937 25.155C72.437 25.155 71.987 25.075 71.587 24.915C71.187 24.745 70.842 24.52 70.552 24.24C70.272 23.95 70.052 23.61 69.892 23.22C69.742 22.83 69.667 22.405 69.667 21.945C69.667 21.455 69.752 21.01 69.922 20.61C70.092 20.2 70.327 19.85 70.627 19.56C70.927 19.27 71.282 19.045 71.692 18.885C72.102 18.725 72.547 18.645 73.027 18.645C73.507 18.645 73.947 18.725 74.347 18.885C74.747 19.035 75.092 19.25 75.382 19.53C75.672 19.81 75.897 20.145 76.057 20.535C76.217 20.915 76.297 21.335 76.297 21.795C76.297 22.225 76.222 22.645 76.072 23.055C75.932 23.455 75.717 23.81 75.427 24.12C75.147 24.43 74.797 24.68 74.377 24.87C73.967 25.06 73.487 25.155 72.937 25.155ZM72.847 19.14C72.487 19.16 72.167 19.25 71.887 19.41C71.617 19.56 71.387 19.76 71.197 20.01C71.017 20.25 70.877 20.525 70.777 20.835C70.687 21.145 70.642 21.46 70.642 21.78C70.642 22.15 70.697 22.51 70.807 22.86C70.927 23.2 71.092 23.505 71.302 23.775C71.522 24.045 71.782 24.26 72.082 24.42C72.382 24.58 72.717 24.66 73.087 24.66C73.457 24.66 73.782 24.58 74.062 24.42C74.352 24.26 74.592 24.055 74.782 23.805C74.972 23.545 75.112 23.255 75.202 22.935C75.302 22.615 75.352 22.295 75.352 21.975C75.352 21.645 75.302 21.315 75.202 20.985C75.102 20.645 74.947 20.34 74.737 20.07C74.527 19.79 74.262 19.565 73.942 19.395C73.632 19.225 73.267 19.14 72.847 19.14ZM83.1736 20.25C83.1736 20.42 83.1386 20.58 83.0686 20.73C82.9986 20.88 82.9086 21.02 82.7986 21.15C82.6986 21.27 82.5786 21.38 82.4386 21.48C82.2986 21.57 82.1636 21.64 82.0336 21.69C82.2036 21.72 82.3786 21.775 82.5586 21.855C82.7486 21.935 82.9186 22.04 83.0686 22.17C83.2286 22.3 83.3586 22.465 83.4586 22.665C83.5586 22.855 83.6086 23.085 83.6086 23.355C83.6086 23.495 83.5736 23.665 83.5036 23.865C83.4436 24.055 83.3286 24.24 83.1586 24.42C82.9986 24.59 82.7736 24.74 82.4836 24.87C82.2036 24.99 81.8386 25.05 81.3886 25.05H78.0886V24.9C78.1686 24.9 78.2386 24.87 78.2986 24.81C78.3586 24.75 78.4086 24.68 78.4486 24.6C78.4986 24.52 78.5336 24.435 78.5536 24.345C78.5736 24.245 78.5836 24.155 78.5836 24.075V19.695C78.5836 19.535 78.5386 19.365 78.4486 19.185C78.3686 18.995 78.2486 18.9 78.0886 18.9V18.75H81.1486C81.5086 18.75 81.8136 18.8 82.0636 18.9C82.3236 18.99 82.5336 19.11 82.6936 19.26C82.8636 19.4 82.9836 19.56 83.0536 19.74C83.1336 19.91 83.1736 20.08 83.1736 20.25ZM79.5586 21.495H80.7136C81.0036 21.495 81.2436 21.465 81.4336 21.405C81.6336 21.335 81.7936 21.245 81.9136 21.135C82.0336 21.025 82.1186 20.9 82.1686 20.76C82.2286 20.62 82.2586 20.475 82.2586 20.325C82.2586 20.205 82.2236 20.08 82.1536 19.95C82.0836 19.82 81.9786 19.705 81.8386 19.605C81.7086 19.495 81.5486 19.405 81.3586 19.335C81.1686 19.265 80.9536 19.23 80.7136 19.23H79.5586V21.495ZM81.0286 24.57C81.1486 24.57 81.2986 24.56 81.4786 24.54C81.6686 24.51 81.8486 24.455 82.0186 24.375C82.1986 24.285 82.3486 24.16 82.4686 24C82.5986 23.83 82.6636 23.61 82.6636 23.34C82.6636 23.05 82.5786 22.815 82.4086 22.635C82.2386 22.455 82.0386 22.32 81.8086 22.23C81.5886 22.13 81.3586 22.065 81.1186 22.035C80.8786 22.005 80.6936 21.99 80.5636 21.99H79.5586V24.57H81.0286ZM88.0047 21.48C88.4647 21.48 88.8647 21.525 89.2047 21.615C89.5547 21.705 89.8397 21.83 90.0597 21.99C90.2897 22.15 90.4597 22.34 90.5697 22.56C90.6797 22.77 90.7347 23 90.7347 23.25C90.7347 23.5 90.6797 23.735 90.5697 23.955C90.4597 24.175 90.2847 24.365 90.0447 24.525C89.8147 24.685 89.5247 24.815 89.1747 24.915C88.8247 25.005 88.4097 25.05 87.9297 25.05H85.3647V24.9C85.4447 24.9 85.5147 24.875 85.5747 24.825C85.6347 24.765 85.6847 24.695 85.7247 24.615C85.7747 24.525 85.8097 24.435 85.8297 24.345C85.8497 24.245 85.8597 24.155 85.8597 24.075V19.68C85.8597 19.61 85.8497 19.53 85.8297 19.44C85.8097 19.35 85.7747 19.265 85.7247 19.185C85.6847 19.105 85.6347 19.04 85.5747 18.99C85.5147 18.93 85.4447 18.9 85.3647 18.9V18.75H87.3297V18.9C87.1797 18.9 87.0597 18.995 86.9697 19.185C86.8797 19.365 86.8347 19.53 86.8347 19.68V21.48H88.0047ZM87.8997 24.555C88.5597 24.555 89.0347 24.45 89.3247 24.24C89.6247 24.02 89.7747 23.75 89.7747 23.43C89.7747 23.25 89.7347 23.075 89.6547 22.905C89.5747 22.725 89.4497 22.57 89.2797 22.44C89.1197 22.3 88.9197 22.19 88.6797 22.11C88.4397 22.02 88.1647 21.975 87.8547 21.975H86.8347V24.555H87.8997ZM96.4658 20.325C96.4658 20.215 96.4458 20.095 96.4058 19.965C96.3658 19.835 96.3058 19.72 96.2258 19.62C96.1458 19.51 96.0458 19.42 95.9258 19.35C95.8058 19.28 95.6658 19.245 95.5058 19.245H94.1858V24.075C94.1858 24.155 94.1958 24.24 94.2158 24.33C94.2358 24.42 94.2658 24.51 94.3058 24.6C94.3558 24.68 94.4058 24.75 94.4558 24.81C94.5158 24.87 94.5858 24.9 94.6658 24.9V25.05H92.7158V24.9C92.7958 24.9 92.8658 24.87 92.9258 24.81C92.9858 24.75 93.0358 24.68 93.0758 24.6C93.1258 24.52 93.1608 24.435 93.1808 24.345C93.2008 24.245 93.2108 24.155 93.2108 24.075V19.245H91.9208C91.7608 19.245 91.6208 19.28 91.5008 19.35C91.3808 19.42 91.2808 19.51 91.2008 19.62C91.1308 19.72 91.0758 19.835 91.0358 19.965C90.9958 20.095 90.9758 20.215 90.9758 20.325H90.8258V18.75H96.6008V20.325H96.4658ZM98.5448 22.02C98.5848 22.37 98.6698 22.705 98.7998 23.025C98.9298 23.335 99.0998 23.61 99.3098 23.85C99.5298 24.09 99.7948 24.285 100.105 24.435C100.415 24.575 100.775 24.645 101.185 24.645C101.405 24.645 101.635 24.615 101.875 24.555C102.125 24.485 102.355 24.39 102.565 24.27C102.775 24.15 102.96 24.005 103.12 23.835C103.29 23.655 103.405 23.455 103.465 23.235H103.6V24.36C103.54 24.36 103.47 24.38 103.39 24.42C103.32 24.46 103.235 24.51 103.135 24.57C102.935 24.69 102.665 24.82 102.325 24.96C101.985 25.09 101.535 25.155 100.975 25.155C100.525 25.155 100.095 25.09 99.6848 24.96C99.2848 24.83 98.9298 24.63 98.6198 24.36C98.3098 24.09 98.0598 23.745 97.8698 23.325C97.6898 22.905 97.5998 22.405 97.5998 21.825C97.5998 21.455 97.6598 21.08 97.7798 20.7C97.9098 20.32 98.0998 19.98 98.3498 19.68C98.6098 19.37 98.9398 19.12 99.3398 18.93C99.7398 18.74 100.22 18.645 100.78 18.645C101.28 18.645 101.715 18.73 102.085 18.9C102.465 19.07 102.775 19.305 103.015 19.605C103.265 19.905 103.45 20.26 103.57 20.67C103.69 21.08 103.75 21.53 103.75 22.02H98.5448ZM100.72 19.14C100.37 19.14 100.065 19.21 99.8048 19.35C99.5548 19.49 99.3398 19.67 99.1598 19.89C98.9798 20.11 98.8398 20.36 98.7398 20.64C98.6398 20.92 98.5748 21.2 98.5448 21.48H102.82C102.81 21.19 102.755 20.905 102.655 20.625C102.565 20.345 102.435 20.095 102.265 19.875C102.095 19.655 101.88 19.48 101.62 19.35C101.36 19.21 101.06 19.14 100.72 19.14ZM111.267 24.075C111.267 24.155 111.277 24.245 111.297 24.345C111.317 24.435 111.342 24.52 111.372 24.6C111.412 24.68 111.457 24.75 111.507 24.81C111.567 24.87 111.637 24.9 111.717 24.9V25.05H109.812V24.9C109.892 24.9 109.962 24.875 110.022 24.825C110.082 24.765 110.127 24.695 110.157 24.615C110.197 24.525 110.227 24.435 110.247 24.345C110.267 24.245 110.277 24.155 110.277 24.075V19.68C110.277 19.61 110.267 19.53 110.247 19.44C110.227 19.34 110.197 19.255 110.157 19.185C110.117 19.105 110.067 19.04 110.007 18.99C109.947 18.93 109.882 18.9 109.812 18.9V18.75H116.037V18.9C115.877 18.9 115.757 18.995 115.677 19.185C115.597 19.365 115.557 19.53 115.557 19.68V24.075C115.557 24.155 115.567 24.245 115.587 24.345C115.607 24.435 115.637 24.52 115.677 24.6C115.717 24.68 115.767 24.75 115.827 24.81C115.897 24.87 115.967 24.9 116.037 24.9V25.05H114.102V24.9C114.192 24.9 114.262 24.875 114.312 24.825C114.372 24.765 114.422 24.695 114.462 24.615C114.502 24.525 114.527 24.435 114.537 24.345C114.557 24.245 114.567 24.155 114.567 24.075V19.275H111.267V24.075ZM122.408 24.9C122.478 24.9 122.558 24.87 122.648 24.81C122.738 24.75 122.783 24.665 122.783 24.555C122.783 24.535 122.773 24.495 122.753 24.435C122.743 24.365 122.718 24.29 122.678 24.21L120.773 19.71L118.793 24.435C118.623 24.845 118.288 25.05 117.788 25.05H117.458V24.9C117.598 24.9 117.748 24.83 117.908 24.69C118.078 24.54 118.213 24.365 118.313 24.165L120.353 19.395C120.403 19.265 120.428 19.16 120.428 19.08C120.428 18.96 120.348 18.9 120.188 18.9V18.75H121.403L123.713 24.15C123.783 24.3 123.883 24.465 124.013 24.645C124.153 24.815 124.283 24.9 124.403 24.9V25.05H122.408V24.9ZM129.715 25.05V24.285L129.64 24.36C129.39 24.61 129.1 24.805 128.77 24.945C128.45 25.085 128.06 25.155 127.6 25.155C127.25 25.155 126.95 25.115 126.7 25.035C126.45 24.955 126.245 24.845 126.085 24.705C125.925 24.555 125.805 24.385 125.725 24.195C125.655 24.005 125.62 23.805 125.62 23.595C125.62 23.255 125.71 22.955 125.89 22.695C126.08 22.435 126.35 22.205 126.7 22.005C127.05 21.805 127.475 21.625 127.975 21.465C128.485 21.295 129.065 21.13 129.715 20.97C129.695 20.58 129.615 20.265 129.475 20.025C129.335 19.785 129.17 19.6 128.98 19.47C128.79 19.33 128.59 19.24 128.38 19.2C128.17 19.15 127.99 19.125 127.84 19.125C127.58 19.125 127.35 19.165 127.15 19.245C126.95 19.315 126.775 19.415 126.625 19.545C126.475 19.665 126.35 19.805 126.25 19.965C126.16 20.125 126.09 20.285 126.04 20.445H125.905V19.275C125.995 19.275 126.1 19.245 126.22 19.185C126.34 19.115 126.48 19.04 126.64 18.96C126.81 18.88 127.01 18.81 127.24 18.75C127.48 18.68 127.765 18.645 128.095 18.645C128.645 18.645 129.09 18.715 129.43 18.855C129.77 18.995 130.03 19.18 130.21 19.41C130.4 19.64 130.525 19.905 130.585 20.205C130.645 20.495 130.675 20.795 130.675 21.105V24.075C130.675 24.275 130.725 24.465 130.825 24.645C130.925 24.815 131.06 24.9 131.23 24.9V25.05H129.715ZM129.715 23.625V21.48L129.565 21.51C129.325 21.57 129.03 21.65 128.68 21.75C128.34 21.85 128.015 21.98 127.705 22.14C127.395 22.3 127.13 22.49 126.91 22.71C126.69 22.93 126.58 23.185 126.58 23.475C126.58 23.795 126.71 24.06 126.97 24.27C127.23 24.48 127.57 24.585 127.99 24.585C128.32 24.585 128.61 24.515 128.86 24.375C129.11 24.225 129.34 24.035 129.55 23.805L129.715 23.625ZM138.131 20.325C138.131 20.215 138.111 20.095 138.071 19.965C138.031 19.835 137.971 19.72 137.891 19.62C137.811 19.51 137.711 19.42 137.591 19.35C137.471 19.28 137.331 19.245 137.171 19.245H135.851V24.075C135.851 24.155 135.861 24.24 135.881 24.33C135.901 24.42 135.931 24.51 135.971 24.6C136.021 24.68 136.071 24.75 136.121 24.81C136.181 24.87 136.251 24.9 136.331 24.9V25.05H134.381V24.9C134.461 24.9 134.531 24.87 134.591 24.81C134.651 24.75 134.701 24.68 134.741 24.6C134.791 24.52 134.826 24.435 134.846 24.345C134.866 24.245 134.876 24.155 134.876 24.075V19.245H133.586C133.426 19.245 133.286 19.28 133.166 19.35C133.046 19.42 132.946 19.51 132.866 19.62C132.796 19.72 132.741 19.835 132.701 19.965C132.661 20.095 132.641 20.215 132.641 20.325H132.491V18.75H138.266V20.325H138.131ZM142.505 25.155C142.005 25.155 141.555 25.075 141.155 24.915C140.755 24.745 140.41 24.52 140.12 24.24C139.84 23.95 139.62 23.61 139.46 23.22C139.31 22.83 139.235 22.405 139.235 21.945C139.235 21.455 139.32 21.01 139.49 20.61C139.66 20.2 139.895 19.85 140.195 19.56C140.495 19.27 140.85 19.045 141.26 18.885C141.67 18.725 142.115 18.645 142.595 18.645C143.075 18.645 143.515 18.725 143.915 18.885C144.315 19.035 144.66 19.25 144.95 19.53C145.24 19.81 145.465 20.145 145.625 20.535C145.785 20.915 145.865 21.335 145.865 21.795C145.865 22.225 145.79 22.645 145.64 23.055C145.5 23.455 145.285 23.81 144.995 24.12C144.715 24.43 144.365 24.68 143.945 24.87C143.535 25.06 143.055 25.155 142.505 25.155ZM142.415 19.14C142.055 19.16 141.735 19.25 141.455 19.41C141.185 19.56 140.955 19.76 140.765 20.01C140.585 20.25 140.445 20.525 140.345 20.835C140.255 21.145 140.21 21.46 140.21 21.78C140.21 22.15 140.265 22.51 140.375 22.86C140.495 23.2 140.66 23.505 140.87 23.775C141.09 24.045 141.35 24.26 141.65 24.42C141.95 24.58 142.285 24.66 142.655 24.66C143.025 24.66 143.35 24.58 143.63 24.42C143.92 24.26 144.16 24.055 144.35 23.805C144.54 23.545 144.68 23.255 144.77 22.935C144.87 22.615 144.92 22.295 144.92 21.975C144.92 21.645 144.87 21.315 144.77 20.985C144.67 20.645 144.515 20.34 144.305 20.07C144.095 19.79 143.83 19.565 143.51 19.395C143.2 19.225 142.835 19.14 142.415 19.14ZM152.682 24.105C152.682 24.185 152.692 24.27 152.712 24.36C152.742 24.45 152.777 24.535 152.817 24.615C152.857 24.695 152.902 24.765 152.952 24.825C153.002 24.875 153.067 24.9 153.147 24.9V25.05H151.242V24.9C151.312 24.9 151.372 24.875 151.422 24.825C151.482 24.765 151.532 24.695 151.572 24.615C151.612 24.535 151.642 24.45 151.662 24.36C151.682 24.27 151.692 24.185 151.692 24.105V22.035C151.462 22.275 151.217 22.46 150.957 22.59C150.707 22.71 150.392 22.77 150.012 22.77C149.652 22.77 149.332 22.7 149.052 22.56C148.772 22.42 148.537 22.235 148.347 22.005C148.167 21.765 148.027 21.5 147.927 21.21C147.837 20.91 147.792 20.6 147.792 20.28V19.68C147.792 19.61 147.782 19.53 147.762 19.44C147.752 19.35 147.732 19.265 147.702 19.185C147.672 19.105 147.632 19.04 147.582 18.99C147.542 18.93 147.497 18.9 147.447 18.9V18.75H149.202V18.9C149.142 18.9 149.082 18.93 149.022 18.99C148.972 19.04 148.927 19.105 148.887 19.185C148.857 19.265 148.832 19.35 148.812 19.44C148.792 19.53 148.782 19.61 148.782 19.68V20.28C148.782 20.62 148.832 20.91 148.932 21.15C149.032 21.38 149.157 21.57 149.307 21.72C149.457 21.86 149.622 21.965 149.802 22.035C149.982 22.095 150.157 22.125 150.327 22.125C150.587 22.125 150.822 22.065 151.032 21.945C151.252 21.815 151.472 21.62 151.692 21.36V19.68C151.692 19.61 151.682 19.53 151.662 19.44C151.642 19.35 151.612 19.265 151.572 19.185C151.532 19.105 151.482 19.04 151.422 18.99C151.372 18.93 151.312 18.9 151.242 18.9V18.75H153.147V18.9C153.067 18.9 153.002 18.93 152.952 18.99C152.902 19.04 152.857 19.105 152.817 19.185C152.777 19.265 152.742 19.35 152.712 19.44C152.692 19.53 152.682 19.61 152.682 19.68V24.105ZM159.61 23.88C159.67 23.99 159.75 24.105 159.85 24.225C159.95 24.345 160.06 24.455 160.18 24.555C160.31 24.655 160.44 24.74 160.57 24.81C160.7 24.87 160.825 24.9 160.945 24.9V25.05H160.375C159.915 25.05 159.56 24.955 159.31 24.765C159.06 24.575 158.865 24.35 158.725 24.09L158.02 22.755C157.91 22.545 157.725 22.365 157.465 22.215C157.205 22.055 156.93 21.975 156.64 21.975V24.105C156.64 24.185 156.645 24.27 156.655 24.36C156.675 24.45 156.705 24.535 156.745 24.615C156.785 24.695 156.835 24.765 156.895 24.825C156.955 24.875 157.025 24.9 157.105 24.9V25.05H155.17V24.9C155.24 24.9 155.305 24.875 155.365 24.825C155.435 24.765 155.49 24.695 155.53 24.615C155.57 24.535 155.6 24.45 155.62 24.36C155.64 24.27 155.65 24.185 155.65 24.105V19.695C155.65 19.625 155.64 19.545 155.62 19.455C155.6 19.355 155.57 19.265 155.53 19.185C155.5 19.105 155.455 19.04 155.395 18.99C155.335 18.93 155.26 18.9 155.17 18.9V18.75H157.09V18.9C157.02 18.9 156.955 18.93 156.895 18.99C156.845 19.04 156.8 19.105 156.76 19.185C156.72 19.265 156.69 19.355 156.67 19.455C156.65 19.545 156.64 19.625 156.64 19.695V21.24C157.07 20.86 157.495 20.495 157.915 20.145C158.335 19.785 158.76 19.415 159.19 19.035C159.19 19.025 159.195 19.015 159.205 19.005C159.215 18.995 159.22 18.985 159.22 18.975C159.22 18.925 159.195 18.9 159.145 18.9V18.75H160.45V18.9C160.4 18.9 160.34 18.915 160.27 18.945C160.2 18.975 160.13 19.01 160.06 19.05C159.98 19.09 159.9 19.14 159.82 19.2C159.37 19.58 158.92 19.97 158.47 20.37C158.02 20.76 157.57 21.145 157.12 21.525C157.55 21.525 157.9 21.605 158.17 21.765C158.45 21.925 158.685 22.18 158.875 22.53L159.61 23.88ZM168.298 24.075C168.298 24.155 168.308 24.245 168.328 24.345C168.358 24.435 168.393 24.52 168.433 24.6C168.473 24.68 168.523 24.75 168.583 24.81C168.653 24.87 168.718 24.9 168.778 24.9V25.05H166.858V24.9C166.928 24.9 166.993 24.875 167.053 24.825C167.113 24.765 167.163 24.695 167.203 24.615C167.243 24.525 167.273 24.435 167.293 24.345C167.313 24.245 167.323 24.155 167.323 24.075V20.475L163.753 23.97V24.075C163.753 24.155 163.763 24.245 163.783 24.345C163.803 24.435 163.833 24.52 163.873 24.6C163.913 24.68 163.958 24.75 164.008 24.81C164.068 24.87 164.133 24.9 164.203 24.9V25.05H162.298V24.9C162.368 24.9 162.433 24.875 162.493 24.825C162.553 24.765 162.603 24.695 162.643 24.615C162.683 24.525 162.713 24.435 162.733 24.345C162.753 24.245 162.763 24.155 162.763 24.075V19.68C162.763 19.61 162.753 19.53 162.733 19.44C162.713 19.35 162.683 19.265 162.643 19.185C162.603 19.105 162.553 19.04 162.493 18.99C162.433 18.93 162.368 18.9 162.298 18.9V18.75H164.203V18.9C164.123 18.9 164.053 18.93 163.993 18.99C163.943 19.04 163.898 19.105 163.858 19.185C163.828 19.265 163.803 19.35 163.783 19.44C163.763 19.53 163.753 19.61 163.753 19.68V23.265L167.323 19.77V19.68C167.323 19.61 167.313 19.53 167.293 19.44C167.273 19.35 167.243 19.265 167.203 19.185C167.163 19.105 167.113 19.04 167.053 18.99C166.993 18.93 166.928 18.9 166.858 18.9V18.75H168.778V18.9C168.698 18.9 168.623 18.93 168.553 18.99C168.493 19.04 168.443 19.105 168.403 19.185C168.373 19.265 168.348 19.35 168.328 19.44C168.308 19.53 168.298 19.61 168.298 19.68V24.075Z" fill="white"></path></svg> 