<?xml version="1.0" encoding="UTF-8"?> <svg xmlns="http://www.w3.org/2000/svg" width="87" height="16" viewBox="0 0 87 16" fill="none"><path d="M-8.36775e-05 11.7H0.0899163C0.197916 11.7 0.287916 11.664 0.359916 11.592C0.431916 11.52 0.485916 11.436 0.521916 11.34C0.569916 11.244 0.599916 11.142 0.611916 11.034C0.635916 10.914 0.647916 10.806 0.647916 10.71V1.17C0.647916 1.086 0.635916 0.984004 0.611916 0.864004C0.599916 0.744004 0.569916 0.636004 0.521916 0.540004C0.485916 0.444004 0.431916 0.360004 0.359916 0.288004C0.287916 0.216004 0.197916 0.180004 0.0899163 0.180004H-8.36775e-05V4.41074e-06H2.53792V0.180004H2.35792C2.26192 0.192004 2.17792 0.234004 2.10592 0.306005C2.04592 0.378005 1.99792 0.462005 1.96192 0.558005C1.92592 0.654004 1.89592 0.762004 1.87192 0.882005C1.85992 0.990004 1.85392 1.086 1.85392 1.17V11.25H7.27192V1.17C7.27192 1.086 7.25992 0.990004 7.23592 0.882005C7.22392 0.762004 7.19392 0.654004 7.14592 0.558005C7.10992 0.462005 7.05592 0.378005 6.98392 0.306005C6.91192 0.234004 6.82792 0.192004 6.73192 0.180004H6.62392V4.41074e-06H9.12592V0.180004H8.96392C8.86792 0.192004 8.78992 0.234004 8.72992 0.306005C8.66992 0.378005 8.62192 0.462005 8.58592 0.558005C8.54992 0.654004 8.51992 0.762004 8.49592 0.882005C8.48392 0.990004 8.47792 1.086 8.47792 1.17V10.278C8.47792 10.518 8.53792 10.74 8.65792 10.944C8.78992 11.148 8.99992 11.25 9.28792 11.25H10.1879V13.5H10.0079C9.99592 13.344 9.95392 13.17 9.88192 12.978C9.82192 12.798 9.72592 12.624 9.59392 12.456C9.47392 12.3 9.31792 12.162 9.12592 12.042C8.94592 11.934 8.72992 11.88 8.47792 11.88H-8.36775e-05V11.7ZM12.7979 8.244C12.8459 8.664 12.9479 9.066 13.1039 9.45C13.2599 9.822 13.4639 10.152 13.7159 10.44C13.9799 10.728 14.2979 10.962 14.6699 11.142C15.0419 11.31 15.4739 11.394 15.9659 11.394C16.2299 11.394 16.5059 11.358 16.7939 11.286C17.0939 11.202 17.3699 11.088 17.6219 10.944C17.8739 10.8 18.0959 10.626 18.2879 10.422C18.4919 10.206 18.6299 9.966 18.7019 9.702H18.8639V11.052C18.7919 11.052 18.7079 11.076 18.6119 11.124C18.5279 11.172 18.4259 11.232 18.3059 11.304C18.0659 11.448 17.7419 11.604 17.3339 11.772C16.9259 11.928 16.3859 12.006 15.7139 12.006C15.1739 12.006 14.6579 11.928 14.1659 11.772C13.6859 11.616 13.2599 11.376 12.8879 11.052C12.5159 10.728 12.2159 10.314 11.9879 9.81C11.7719 9.306 11.6639 8.706 11.6639 8.01C11.6639 7.566 11.7359 7.116 11.8799 6.66C12.0359 6.204 12.2639 5.796 12.5639 5.436C12.8759 5.064 13.2719 4.764 13.7519 4.536C14.2319 4.308 14.8079 4.194 15.4799 4.194C16.0799 4.194 16.6019 4.296 17.0459 4.5C17.5019 4.704 17.8739 4.986 18.1619 5.346C18.4619 5.706 18.6839 6.132 18.8279 6.624C18.9719 7.116 19.0439 7.656 19.0439 8.244H12.7979ZM15.4079 4.788C14.9879 4.788 14.6219 4.872 14.3099 5.04C14.0099 5.208 13.7519 5.424 13.5359 5.688C13.3199 5.952 13.1519 6.252 13.0319 6.588C12.9119 6.924 12.8339 7.26 12.7979 7.596H17.9279C17.9159 7.248 17.8499 6.906 17.7299 6.57C17.6219 6.234 17.4659 5.934 17.2619 5.67C17.0579 5.406 16.7999 5.196 16.4879 5.04C16.1759 4.872 15.8159 4.788 15.4079 4.788ZM23.969 4.194C24.617 4.194 25.175 4.308 25.643 4.536C26.123 4.752 26.519 5.04 26.831 5.4C27.155 5.76 27.395 6.174 27.551 6.642C27.707 7.11 27.785 7.59 27.785 8.082C27.785 8.562 27.707 9.036 27.551 9.504C27.407 9.972 27.179 10.392 26.867 10.764C26.567 11.136 26.189 11.436 25.733 11.664C25.277 11.892 24.737 12.006 24.113 12.006C23.741 12.006 23.357 11.91 22.961 11.718C22.577 11.514 22.229 11.262 21.917 10.962V14.67C21.917 14.766 21.929 14.868 21.953 14.976C21.977 15.096 22.013 15.204 22.061 15.3C22.121 15.396 22.181 15.48 22.241 15.552C22.313 15.624 22.397 15.66 22.493 15.66V15.84H20.153V15.66C20.237 15.66 20.315 15.624 20.387 15.552C20.459 15.48 20.519 15.396 20.567 15.3C20.627 15.204 20.669 15.096 20.693 14.976C20.717 14.868 20.729 14.766 20.729 14.67V5.382C20.729 5.274 20.723 5.172 20.711 5.076C20.711 4.968 20.693 4.878 20.657 4.806C20.621 4.722 20.561 4.656 20.477 4.608C20.405 4.548 20.297 4.512 20.153 4.5V4.32H21.917V5.112C22.157 4.824 22.445 4.602 22.781 4.446C23.129 4.278 23.525 4.194 23.969 4.194ZM24.131 11.394C24.551 11.382 24.917 11.286 25.229 11.106C25.541 10.926 25.799 10.692 26.003 10.404C26.207 10.116 26.357 9.798 26.453 9.45C26.549 9.09 26.597 8.718 26.597 8.334C26.597 7.902 26.537 7.476 26.417 7.056C26.297 6.636 26.123 6.264 25.895 5.94C25.667 5.604 25.385 5.334 25.049 5.13C24.725 4.914 24.353 4.806 23.933 4.806C23.681 4.806 23.429 4.854 23.177 4.95C22.937 5.046 22.721 5.184 22.529 5.364C22.349 5.544 22.199 5.76 22.079 6.012C21.971 6.252 21.917 6.522 21.917 6.822V9.18C21.917 9.504 21.983 9.804 22.115 10.08C22.247 10.344 22.415 10.578 22.619 10.782C22.835 10.974 23.075 11.124 23.339 11.232C23.603 11.34 23.867 11.394 24.131 11.394ZM30.9287 8.244C30.9767 8.664 31.0787 9.066 31.2347 9.45C31.3907 9.822 31.5947 10.152 31.8467 10.44C32.1107 10.728 32.4287 10.962 32.8007 11.142C33.1727 11.31 33.6047 11.394 34.0967 11.394C34.3607 11.394 34.6367 11.358 34.9247 11.286C35.2247 11.202 35.5007 11.088 35.7527 10.944C36.0047 10.8 36.2267 10.626 36.4187 10.422C36.6227 10.206 36.7607 9.966 36.8327 9.702H36.9947V11.052C36.9227 11.052 36.8387 11.076 36.7427 11.124C36.6587 11.172 36.5567 11.232 36.4367 11.304C36.1967 11.448 35.8727 11.604 35.4647 11.772C35.0567 11.928 34.5167 12.006 33.8447 12.006C33.3047 12.006 32.7887 11.928 32.2967 11.772C31.8167 11.616 31.3907 11.376 31.0187 11.052C30.6467 10.728 30.3467 10.314 30.1187 9.81C29.9027 9.306 29.7947 8.706 29.7947 8.01C29.7947 7.566 29.8667 7.116 30.0107 6.66C30.1667 6.204 30.3947 5.796 30.6947 5.436C31.0067 5.064 31.4027 4.764 31.8827 4.536C32.3627 4.308 32.9387 4.194 33.6107 4.194C34.2107 4.194 34.7327 4.296 35.1767 4.5C35.6327 4.704 36.0047 4.986 36.2927 5.346C36.5927 5.706 36.8147 6.132 36.9587 6.624C37.1027 7.116 37.1747 7.656 37.1747 8.244H30.9287ZM33.5387 4.788C33.1187 4.788 32.7527 4.872 32.4407 5.04C32.1407 5.208 31.8827 5.424 31.6667 5.688C31.4507 5.952 31.2827 6.252 31.1627 6.588C31.0427 6.924 30.9647 7.26 30.9287 7.596H36.0587C36.0467 7.248 35.9807 6.906 35.8607 6.57C35.7527 6.234 35.5967 5.934 35.3927 5.67C35.1887 5.406 34.9307 5.196 34.6187 5.04C34.3067 4.872 33.9467 4.788 33.5387 4.788ZM47.459 10.71C47.459 10.806 47.471 10.914 47.495 11.034C47.519 11.142 47.555 11.244 47.603 11.34C47.663 11.436 47.729 11.52 47.801 11.592C47.873 11.664 47.957 11.7 48.053 11.7V11.88H45.713V11.7C45.809 11.7 45.893 11.67 45.965 11.61C46.037 11.538 46.097 11.454 46.145 11.358C46.193 11.25 46.229 11.142 46.253 11.034C46.277 10.914 46.289 10.806 46.289 10.71V5.85L43.283 12.042L40.403 6.21V10.71C40.403 10.806 40.415 10.914 40.439 11.034C40.463 11.142 40.499 11.244 40.547 11.34C40.595 11.436 40.655 11.52 40.727 11.592C40.799 11.664 40.883 11.7 40.979 11.7V11.88H39.233V11.7C39.329 11.7 39.413 11.664 39.485 11.592C39.557 11.52 39.611 11.436 39.647 11.34C39.695 11.244 39.731 11.142 39.755 11.034C39.779 10.914 39.791 10.806 39.791 10.71V5.436C39.791 5.22 39.761 5.01 39.701 4.806C39.653 4.602 39.497 4.5 39.233 4.5V4.32H40.835L43.589 9.954L46.343 4.32H48.053V4.5C47.873 4.5 47.729 4.614 47.621 4.842C47.513 5.058 47.459 5.256 47.459 5.436V10.71ZM54.1346 12.006C53.5346 12.006 52.9946 11.91 52.5146 11.718C52.0346 11.514 51.6206 11.244 51.2726 10.908C50.9366 10.56 50.6726 10.152 50.4806 9.684C50.3006 9.216 50.2106 8.706 50.2106 8.154C50.2106 7.566 50.3126 7.032 50.5166 6.552C50.7206 6.06 51.0026 5.64 51.3626 5.292C51.7226 4.944 52.1486 4.674 52.6406 4.482C53.1326 4.29 53.6666 4.194 54.2426 4.194C54.8186 4.194 55.3466 4.29 55.8266 4.482C56.3066 4.662 56.7206 4.92 57.0686 5.256C57.4166 5.592 57.6866 5.994 57.8786 6.462C58.0706 6.918 58.1666 7.422 58.1666 7.974C58.1666 8.49 58.0766 8.994 57.8966 9.486C57.7286 9.966 57.4706 10.392 57.1226 10.764C56.7866 11.136 56.3666 11.436 55.8626 11.664C55.3706 11.892 54.7946 12.006 54.1346 12.006ZM54.0266 4.788C53.5946 4.812 53.2106 4.92 52.8746 5.112C52.5506 5.292 52.2746 5.532 52.0466 5.832C51.8306 6.12 51.6626 6.45 51.5426 6.822C51.4346 7.194 51.3806 7.572 51.3806 7.956C51.3806 8.4 51.4466 8.832 51.5786 9.252C51.7226 9.66 51.9206 10.026 52.1726 10.35C52.4366 10.674 52.7486 10.932 53.1086 11.124C53.4686 11.316 53.8706 11.412 54.3146 11.412C54.7586 11.412 55.1486 11.316 55.4846 11.124C55.8326 10.932 56.1206 10.686 56.3486 10.386C56.5766 10.074 56.7446 9.726 56.8526 9.342C56.9726 8.958 57.0326 8.574 57.0326 8.19C57.0326 7.794 56.9726 7.398 56.8526 7.002C56.7326 6.594 56.5466 6.228 56.2946 5.904C56.0426 5.568 55.7246 5.298 55.3406 5.094C54.9686 4.89 54.5306 4.788 54.0266 4.788ZM62.0805 10.71C62.0805 10.806 62.0925 10.914 62.1165 11.034C62.1405 11.142 62.1765 11.244 62.2245 11.34C62.2725 11.436 62.3265 11.52 62.3865 11.592C62.4585 11.664 62.5365 11.7 62.6205 11.7V11.88H60.3525V11.7C60.4365 11.7 60.5085 11.67 60.5685 11.61C60.6405 11.538 60.7005 11.454 60.7485 11.358C60.7965 11.25 60.8325 11.142 60.8565 11.034C60.8805 10.914 60.8925 10.806 60.8925 10.71V5.436C60.8925 5.352 60.8805 5.256 60.8565 5.148C60.8325 5.04 60.7965 4.938 60.7485 4.842C60.7005 4.746 60.6405 4.668 60.5685 4.608C60.5085 4.536 60.4365 4.5 60.3525 4.5V4.32H62.6205V4.5C62.5245 4.5 62.4405 4.536 62.3685 4.608C62.3085 4.668 62.2545 4.746 62.2065 4.842C62.1705 4.938 62.1405 5.04 62.1165 5.148C62.0925 5.256 62.0805 5.352 62.0805 5.436V7.614H66.1845V5.436C66.1845 5.352 66.1725 5.256 66.1485 5.148C66.1245 5.04 66.0885 4.938 66.0405 4.842C66.0045 4.746 65.9505 4.668 65.8785 4.608C65.8185 4.536 65.7405 4.5 65.6445 4.5V4.32H67.9125V4.5C67.8165 4.5 67.7325 4.536 67.6605 4.608C67.6005 4.668 67.5465 4.746 67.4985 4.842C67.4505 4.938 67.4145 5.04 67.3905 5.148C67.3785 5.256 67.3725 5.352 67.3725 5.436V10.71C67.3725 10.806 67.3845 10.914 67.4085 11.034C67.4325 11.142 67.4685 11.244 67.5165 11.34C67.5645 11.436 67.6185 11.52 67.6785 11.592C67.7505 11.664 67.8285 11.7 67.9125 11.7V11.88H65.6445V11.7C65.7285 11.7 65.8005 11.67 65.8605 11.61C65.9325 11.538 65.9925 11.454 66.0405 11.358C66.0885 11.25 66.1245 11.142 66.1485 11.034C66.1725 10.914 66.1845 10.806 66.1845 10.71V8.208H62.0805V10.71ZM77.4085 10.71C77.4085 10.806 77.4205 10.914 77.4445 11.034C77.4805 11.142 77.5225 11.244 77.5705 11.34C77.6185 11.436 77.6785 11.52 77.7505 11.592C77.8345 11.664 77.9125 11.7 77.9845 11.7V11.88H75.6805V11.7C75.7645 11.7 75.8425 11.67 75.9145 11.61C75.9865 11.538 76.0465 11.454 76.0945 11.358C76.1425 11.25 76.1785 11.142 76.2025 11.034C76.2265 10.914 76.2385 10.806 76.2385 10.71V6.39L71.9545 10.584V10.71C71.9545 10.806 71.9665 10.914 71.9905 11.034C72.0145 11.142 72.0505 11.244 72.0985 11.34C72.1465 11.436 72.2005 11.52 72.2605 11.592C72.3325 11.664 72.4105 11.7 72.4945 11.7V11.88H70.2085V11.7C70.2925 11.7 70.3705 11.67 70.4425 11.61C70.5145 11.538 70.5745 11.454 70.6225 11.358C70.6705 11.25 70.7065 11.142 70.7305 11.034C70.7545 10.914 70.7665 10.806 70.7665 10.71V5.436C70.7665 5.352 70.7545 5.256 70.7305 5.148C70.7065 5.04 70.6705 4.938 70.6225 4.842C70.5745 4.746 70.5145 4.668 70.4425 4.608C70.3705 4.536 70.2925 4.5 70.2085 4.5V4.32H72.4945V4.5C72.3985 4.5 72.3145 4.536 72.2425 4.608C72.1825 4.668 72.1285 4.746 72.0805 4.842C72.0445 4.938 72.0145 5.04 71.9905 5.148C71.9665 5.256 71.9545 5.352 71.9545 5.436V9.738L76.2385 5.544V5.436C76.2385 5.352 76.2265 5.256 76.2025 5.148C76.1785 5.04 76.1425 4.938 76.0945 4.842C76.0465 4.746 75.9865 4.668 75.9145 4.608C75.8425 4.536 75.7645 4.5 75.6805 4.5V4.32H77.9845V4.5C77.8885 4.5 77.7985 4.536 77.7145 4.608C77.6425 4.668 77.5825 4.746 77.5345 4.842C77.4985 4.938 77.4685 5.04 77.4445 5.148C77.4205 5.256 77.4085 5.352 77.4085 5.436V10.71ZM85.9998 10.71C85.9998 10.806 86.0118 10.914 86.0358 11.034C86.0598 11.142 86.0958 11.25 86.1438 11.358C86.2038 11.454 86.2638 11.538 86.3238 11.61C86.3958 11.67 86.4798 11.7 86.5758 11.7V11.88H84.2358V11.7C84.3198 11.7 84.3978 11.664 84.4698 11.592C84.5418 11.52 84.6018 11.436 84.6498 11.34C84.7098 11.244 84.7518 11.142 84.7758 11.034C84.7998 10.914 84.8118 10.806 84.8118 10.71V8.19C84.6798 8.214 84.5298 8.286 84.3618 8.406C84.1938 8.514 84.0198 8.658 83.8398 8.838C83.6598 9.006 83.4858 9.192 83.3178 9.396C83.1498 9.6 82.9938 9.804 82.8498 10.008C82.7298 10.176 82.6278 10.314 82.5438 10.422C82.4598 10.53 82.3878 10.632 82.3278 10.728C82.2078 10.884 82.0878 11.034 81.9678 11.178C81.8478 11.31 81.7098 11.43 81.5538 11.538C81.4098 11.646 81.2358 11.73 81.0318 11.79C80.8278 11.85 80.5878 11.88 80.3118 11.88H79.6458V11.7C79.7898 11.7 79.9338 11.658 80.0778 11.574C80.2338 11.49 80.3838 11.388 80.5278 11.268C80.6718 11.136 80.8038 10.998 80.9238 10.854C81.0558 10.698 81.1698 10.554 81.2658 10.422L81.8238 9.648C82.0278 9.372 82.2378 9.102 82.4538 8.838C82.6698 8.562 82.9158 8.346 83.1918 8.19C82.7598 8.178 82.3758 8.118 82.0398 8.01C81.7038 7.902 81.4218 7.758 81.1938 7.578C80.9658 7.398 80.7918 7.194 80.6718 6.966C80.5638 6.726 80.5098 6.474 80.5098 6.21C80.5098 5.958 80.5638 5.718 80.6718 5.49C80.7918 5.262 80.9778 5.064 81.2298 4.896C81.4818 4.716 81.7998 4.578 82.1838 4.482C82.5798 4.374 83.0538 4.32 83.6058 4.32H86.5758V4.5C86.4798 4.5 86.3958 4.536 86.3238 4.608C86.2638 4.668 86.2038 4.746 86.1438 4.842C86.0958 4.938 86.0598 5.04 86.0358 5.148C86.0118 5.256 85.9998 5.352 85.9998 5.436V10.71ZM81.6798 6.102C81.6798 6.282 81.7338 6.462 81.8418 6.642C81.9618 6.822 82.1178 6.984 82.3098 7.128C82.5138 7.272 82.7418 7.392 82.9938 7.488C83.2458 7.572 83.5158 7.614 83.8038 7.614H84.8118V4.896H83.6418C82.9218 4.896 82.4118 5.01 82.1118 5.238C81.8238 5.466 81.6798 5.754 81.6798 6.102Z" fill="white"></path></svg> 