<?xml version="1.0" encoding="UTF-8"?> <svg xmlns="http://www.w3.org/2000/svg" width="173" height="38" viewBox="0 0 173 38" fill="none"><path d="M59.73 4.015C59.73 4.95 58.85 5.665 57.75 5.665C55.495 5.665 52.195 4.785 49.83 4.29C47.85 3.85 45.65 3.19 43.065 2.805C37.785 4.84 31.955 8.36 26.675 12.925C22.935 16.17 19.69 19.69 16.995 23.485C14.3 27.28 12.925 30.36 12.925 32.78C12.925 35.365 14.575 37.07 18.26 37.015C21.945 36.96 26.29 35.2 29.645 33C32.23 31.405 34.485 29.59 36.63 27.775C36.905 27.555 37.455 27.06 37.675 27.28C37.95 27.555 37.565 27.94 37.29 28.215C35.145 29.975 32.45 32.175 29.975 33.715C26.4 35.97 22.33 37.73 18.15 37.895C14.575 37.95 11.44 36.465 10.725 33.33C10.23 33.55 9.56996 33.605 8.96496 33.605C3.29996 33.605 -3.9015e-05 29.975 -3.9015e-05 23.595C-3.9015e-05 20.13 1.04496 16.83 3.07996 13.585C5.11496 10.34 7.64496 7.755 10.56 5.775C16.5 1.815 23.21 0.0549976 31.075 0.0549976C35.035 0.0549976 38.83 0.604997 42.405 1.485C45.76 0.439999 49.39 -1.66893e-06 52.525 0.0549976C56.65 0.219999 59.73 1.65 59.73 4.015ZM59.125 4.015C59.125 1.98 56.1 0.769998 52.525 0.769998C50.27 0.769998 47.355 1.1 44.66 2.035C46.475 2.475 48.51 3.08 50.05 3.52C52.305 4.125 55.44 5.06 57.64 5.06C58.575 5.06 59.125 4.675 59.125 4.015ZM40.205 2.42C37.51 2.145 34.43 1.925 31.075 1.925C23.815 1.925 17.655 3.19 11.55 6.985C8.41496 8.965 5.82996 11.44 3.84996 14.41C1.92496 17.38 0.934961 20.405 0.934961 23.485C0.934961 29.81 4.12496 32.89 9.01996 32.89C9.51496 32.89 10.175 32.835 10.67 32.67C10.45 29.37 11.55 25.905 14.025 22.22C16.5 18.535 19.25 15.4 22.22 12.925C27.555 8.305 34.1 4.675 40.205 2.42ZM55.9496 18.26C57.2696 18.26 58.0396 18.7 58.0396 19.855C58.0396 21.45 56.3896 24.42 53.0346 27.775C48.6346 32.175 44.4546 35.035 42.2546 35.035C40.7696 35.035 39.8896 34.045 39.8896 32.45C39.8896 30.47 41.4846 27.445 44.1796 24.64C46.0496 22.715 48.0846 21.175 50.3396 20.02C52.5946 18.865 54.4646 18.26 55.9496 18.26ZM57.1596 19.635C57.1596 19.25 56.9396 19.03 56.4996 19.03C54.7946 19.03 50.6696 22.11 46.2146 26.73C43.7396 29.425 41.4296 32.065 41.4296 33.44C41.4296 34.155 41.8146 34.375 42.3096 34.375C43.9046 34.375 47.9746 31.02 52.4296 26.4C53.3646 25.465 54.3546 24.255 55.4546 22.825C56.6096 21.395 57.1596 20.35 57.1596 19.635ZM81.3046 26.95C81.5796 27.225 81.1396 27.61 80.8646 27.83C79.1596 29.315 76.8496 31.35 74.8146 32.725C72.7796 34.1 70.8546 35.035 69.5346 35.035C68.2696 35.035 67.5546 34.375 67.5546 33.055C67.5546 32.23 68.0496 31.13 68.7646 30.03C70.1396 28.105 71.2396 27.06 73.4946 25.025C74.3196 24.255 75.4746 23.265 76.9046 22.055C78.3346 20.845 79.0496 20.02 79.1046 19.525C79.1046 19.305 78.9946 19.195 78.7196 19.195C77.7846 19.195 75.8046 20.13 72.7796 22.055C69.7546 23.98 67.3896 25.74 65.5746 27.445C64.1996 28.71 63.0996 29.92 62.1646 30.965C61.2296 32.01 60.0746 33.44 58.5896 35.255C58.1496 35.255 57.8746 34.65 57.8746 33.99C57.8746 33.385 58.5896 32.12 59.9646 30.195C61.3396 28.215 63.0446 26.125 65.1896 23.925C66.9496 22.11 68.9296 20.35 70.2496 19.47C71.1846 18.865 72.7246 18.59 74.0996 18.59C72.1746 19.91 69.0946 22.715 66.6746 25.41C66.5096 25.575 66.6196 25.63 66.6746 25.575C68.0496 24.42 70.0846 22.935 72.8346 21.12C75.6396 19.305 77.7296 18.37 79.2146 18.37C80.3696 18.37 80.9746 19.085 80.9746 19.91C80.9746 20.845 80.3696 21.945 79.1596 23.265C77.9496 24.53 76.8496 25.63 75.8596 26.51C74.0996 28.105 72.6146 29.645 71.4596 30.8C70.0846 32.285 69.4796 33 69.4796 33.605C69.4796 33.99 69.6996 34.155 70.0846 34.155C70.9646 34.155 72.8896 33.165 74.7046 31.9C76.6296 30.525 79.0496 28.325 80.5346 27.17C80.7546 26.95 81.0846 26.73 81.3046 26.95ZM95.944 19.855C96.659 19.855 99.134 19.91 100.289 19.965C100.344 19.965 100.619 20.075 100.564 20.35C100.509 20.57 100.179 20.57 99.959 20.57C99.024 20.57 96.714 20.515 95.449 20.57C91.874 24.145 88.464 27.665 86.649 29.92C85.494 31.46 84.724 32.615 84.724 33.275C84.724 33.77 84.999 34.1 85.604 34.1C86.759 34.1 88.739 32.945 90.279 31.79C91.984 30.47 94.569 28.27 96.164 26.895C96.384 26.675 96.714 26.4 96.934 26.62C97.209 26.895 96.824 27.225 96.549 27.5C95.174 28.765 92.479 31.075 90.444 32.615C88.464 34.1 86.649 35.035 85.164 35.035C83.789 35.035 82.909 34.155 82.909 32.78C82.909 31.955 83.239 30.91 83.844 29.975C84.999 28.05 87.859 24.915 92.204 20.515C91.269 20.515 89.564 20.46 88.849 20.515C88.684 20.515 88.244 20.515 88.299 20.24C88.354 20.02 88.629 19.91 88.904 19.91C89.564 19.855 91.379 19.855 92.754 19.855C97.319 15.4 100.289 13.035 102.544 11.715C103.369 11.22 104.689 10.56 105.624 10.285C106.339 10.065 107.219 9.9 108.154 9.9C108.374 9.9 108.649 9.9 108.924 9.955C109.144 10.01 109.144 10.065 108.924 10.12C107.329 10.395 105.459 11.66 104.524 12.375C102.709 13.75 99.079 16.72 95.944 19.855ZM121.384 18.81H121.824C119.459 20.9 117.259 22.99 115.169 25.135C113.134 27.225 111.594 28.82 110.659 29.975C109.284 31.57 108.349 32.835 108.349 33.55C108.349 33.825 108.514 34.045 108.899 34.045C109.394 34.045 110.219 33.715 111.264 33C112.309 32.285 113.244 31.625 113.959 31.075C115.719 29.7 117.754 27.83 119.074 26.675C119.294 26.62 119.624 26.29 119.844 26.565C120.064 26.785 119.844 27.005 119.569 27.225C117.974 28.765 115.829 30.525 114.454 31.625C113.629 32.285 112.639 33 111.484 33.77C110.329 34.54 109.339 34.925 108.514 34.925C107.194 34.925 106.589 34.32 106.589 33.055C106.589 32.34 107.029 31.02 108.184 29.645C105.049 32.505 101.529 34.925 99.7691 34.925C98.4491 34.925 97.8991 34.21 97.8991 33.11C97.8441 31.13 99.7141 27.885 102.189 25.41C104.059 23.54 106.259 21.89 108.789 20.46C111.374 18.975 113.409 18.26 115.004 18.26C115.939 18.26 116.764 18.535 116.764 19.47C116.764 20.075 116.324 21.065 115.169 22.22C115.114 22.275 115.169 22.33 115.224 22.275C116.929 20.68 118.799 19.305 119.679 19.03C120.284 18.81 120.779 18.81 121.384 18.81ZM115.994 19.69C115.994 19.305 115.774 19.085 115.334 19.085C113.794 19.085 109.834 21.835 104.719 26.73C102.024 29.425 99.6591 32.395 99.6591 33.55C99.6591 33.825 99.7141 34.1 100.209 34.1C100.924 34.1 102.244 33.385 104.224 31.9C106.259 30.415 108.349 28.6 110.494 26.4L113.959 22.88C115.334 21.45 115.994 20.405 115.994 19.69ZM136.479 27.28C134.774 28.82 133.069 30.305 130.814 31.9C128.559 33.495 125.919 35.035 123.664 35.035C121.849 35.035 120.859 34.21 120.859 32.505C120.859 30.03 122.894 26.95 125.589 24.475C127.404 22.77 129.384 21.34 131.529 20.13C133.674 18.865 135.379 18.26 136.644 18.26C137.799 18.26 138.294 18.975 138.294 19.69C138.294 21.395 136.864 23.32 135.599 24.365C135.214 24.64 134.554 25.135 134.059 25.135C133.619 25.135 133.289 24.915 133.289 24.475C133.289 23.76 134.444 22.99 135.159 22.55C136.754 21.45 137.634 20.405 137.634 19.69C137.634 19.305 137.414 18.975 136.974 18.975C136.259 18.975 134.939 19.8 133.014 21.395C131.089 22.99 129.494 24.475 128.119 25.74C124.434 29.26 122.839 31.9 122.894 33.22C122.894 33.88 123.389 34.21 124.104 34.21C124.984 34.21 125.974 33.935 127.019 33.385C128.064 32.78 128.889 32.34 129.439 31.955C130.704 31.13 132.024 30.085 133.509 28.875C134.994 27.61 135.874 26.895 136.149 26.62C137.524 25.465 139.229 23.705 141.704 21.34C141.924 21.12 142.144 20.9 142.364 21.065C142.639 21.285 142.254 21.67 142.034 21.89C140.439 23.595 138.184 25.74 136.479 27.28ZM151.76 19.855C152.475 19.855 154.95 19.91 156.105 19.965C156.16 19.965 156.435 20.075 156.38 20.35C156.325 20.57 155.995 20.57 155.775 20.57C154.84 20.57 152.53 20.515 151.265 20.57C147.69 24.145 144.28 27.665 142.465 29.92C141.31 31.46 140.54 32.615 140.54 33.275C140.54 33.77 140.815 34.1 141.42 34.1C142.575 34.1 144.555 32.945 146.095 31.79C147.8 30.47 150.385 28.27 151.98 26.895C152.2 26.675 152.53 26.4 152.75 26.62C153.025 26.895 152.64 27.225 152.365 27.5C150.99 28.765 148.295 31.075 146.26 32.615C144.28 34.1 142.465 35.035 140.98 35.035C139.605 35.035 138.725 34.155 138.725 32.78C138.725 31.955 139.055 30.91 139.66 29.975C140.815 28.05 143.675 24.915 148.02 20.515C147.085 20.515 145.38 20.46 144.665 20.515C144.5 20.515 144.06 20.515 144.115 20.24C144.17 20.02 144.445 19.91 144.72 19.91C145.38 19.855 147.195 19.855 148.57 19.855C153.135 15.4 156.105 13.035 158.36 11.715C159.185 11.22 160.505 10.56 161.44 10.285C162.155 10.065 163.035 9.9 163.97 9.9C164.19 9.9 164.465 9.9 164.74 9.955C164.96 10.01 164.96 10.065 164.74 10.12C163.145 10.395 161.275 11.66 160.34 12.375C158.525 13.75 154.895 16.72 151.76 19.855ZM172.251 14.025C172.636 14.025 172.911 14.19 172.911 14.575C172.911 15.07 172.086 16.28 170.106 17.655C168.786 18.59 167.081 19.525 166.366 20.35C165.761 21.065 165.486 22.275 165.321 23.155C165.046 24.42 164.661 26.015 164.166 27.94C163.671 29.865 162.241 31.68 159.821 33.275C161.801 32.34 163.781 31.075 165.541 29.81C166.916 28.875 168.016 27.94 169.336 26.785C169.611 26.51 169.831 26.455 169.996 26.675C170.216 26.895 170.051 27.115 169.886 27.28C168.621 28.435 167.136 29.59 165.816 30.525C163.781 32.01 161.581 33.165 160.206 33.77C158.171 34.65 156.191 34.98 154.651 34.98C152.946 34.98 151.846 34.43 151.846 32.945C151.846 32.065 152.506 30.965 153.661 29.645C154.321 28.93 155.311 28.16 156.026 27.555C157.126 26.675 158.116 26.125 158.831 26.125C161.031 24.31 164.001 21.67 165.376 20.075C166.696 18.48 167.851 17.215 169.006 16.17C170.381 14.85 171.536 14.025 172.251 14.025ZM165.046 21.285C163.561 22.88 161.361 24.86 159.161 26.675C158.996 27.17 158.281 27.995 156.906 28.875L154.101 30.69C153.221 31.35 152.506 32.12 152.506 32.945C152.506 33.88 153.331 34.045 153.991 34.045C155.586 34.045 158.006 32.67 160.151 30.25C161.086 29.205 162.076 27.775 163.066 25.96C164.056 24.09 164.716 22.55 165.046 21.285Z" fill="#426E8F" fill-opacity="0.2"></path></svg> 