<?xml version="1.0" encoding="UTF-8"?> <svg xmlns="http://www.w3.org/2000/svg" width="83" height="9" viewBox="0 0 83 9" fill="none"><path d="M2.145 5.59495C2.145 5.67495 2.155 5.76495 2.175 5.86495C2.195 5.95495 2.225 6.03995 2.265 6.11995C2.305 6.19995 2.35 6.26995 2.4 6.32995C2.46 6.38995 2.525 6.41995 2.595 6.41995V6.56995H0.705V6.41995C0.775 6.41995 0.835 6.39495 0.885 6.34495C0.945 6.28495 0.995 6.21495 1.035 6.13495C1.075 6.04495 1.105 5.95495 1.125 5.86495C1.145 5.76495 1.155 5.67495 1.155 5.59495V1.19995C1.155 1.12995 1.145 1.04995 1.125 0.959946C1.105 0.869946 1.075 0.784946 1.035 0.704946C0.995 0.624946 0.945 0.559946 0.885 0.509946C0.835 0.449946 0.775 0.419946 0.705 0.419946V0.269946H2.595V0.419946C2.515 0.419946 2.445 0.449946 2.385 0.509946C2.335 0.559946 2.29 0.624946 2.25 0.704946C2.22 0.784946 2.195 0.869946 2.175 0.959946C2.155 1.04995 2.145 1.12995 2.145 1.19995V3.01495H5.565V1.19995C5.565 1.12995 5.555 1.04995 5.535 0.959946C5.515 0.869946 5.485 0.784946 5.445 0.704946C5.415 0.624946 5.37 0.559946 5.31 0.509946C5.26 0.449946 5.195 0.419946 5.115 0.419946V0.269946H7.005V0.419946C6.925 0.419946 6.855 0.449946 6.795 0.509946C6.745 0.559946 6.7 0.624946 6.66 0.704946C6.62 0.784946 6.59 0.869946 6.57 0.959946C6.56 1.04995 6.555 1.12995 6.555 1.19995V5.59495C6.555 5.67495 6.565 5.76495 6.585 5.86495C6.605 5.95495 6.635 6.03995 6.675 6.11995C6.715 6.19995 6.76 6.26995 6.81 6.32995C6.87 6.38995 6.935 6.41995 7.005 6.41995V6.56995H5.115V6.41995C5.185 6.41995 5.245 6.39495 5.295 6.34495C5.355 6.28495 5.405 6.21495 5.445 6.13495C5.485 6.04495 5.515 5.95495 5.535 5.86495C5.555 5.76495 5.565 5.67495 5.565 5.59495V3.50995H2.145V5.59495ZM12.8633 6.56995V5.80495L12.7883 5.87995C12.5383 6.12995 12.2483 6.32495 11.9183 6.46495C11.5983 6.60495 11.2083 6.67495 10.7483 6.67495C10.3983 6.67495 10.0983 6.63495 9.84832 6.55495C9.59832 6.47495 9.39332 6.36495 9.23332 6.22495C9.07332 6.07495 8.95332 5.90495 8.87332 5.71495C8.80332 5.52495 8.76832 5.32495 8.76832 5.11495C8.76832 4.77495 8.85832 4.47495 9.03832 4.21495C9.22832 3.95495 9.49832 3.72495 9.84832 3.52495C10.1983 3.32495 10.6233 3.14495 11.1233 2.98495C11.6333 2.81495 12.2133 2.64995 12.8633 2.48995C12.8433 2.09995 12.7633 1.78495 12.6233 1.54495C12.4833 1.30495 12.3183 1.11995 12.1283 0.989946C11.9383 0.849946 11.7383 0.759946 11.5283 0.719946C11.3183 0.669946 11.1383 0.644946 10.9883 0.644946C10.7283 0.644946 10.4983 0.684946 10.2983 0.764946C10.0983 0.834946 9.92332 0.934946 9.77332 1.06495C9.62332 1.18495 9.49832 1.32495 9.39832 1.48495C9.30832 1.64495 9.23832 1.80495 9.18832 1.96495H9.05332V0.794946C9.14332 0.794946 9.24832 0.764946 9.36832 0.704946C9.48832 0.634946 9.62832 0.559946 9.78832 0.479946C9.95832 0.399946 10.1583 0.329946 10.3883 0.269946C10.6283 0.199946 10.9133 0.164946 11.2433 0.164946C11.7933 0.164946 12.2383 0.234946 12.5783 0.374946C12.9183 0.514946 13.1783 0.699946 13.3583 0.929946C13.5483 1.15995 13.6733 1.42495 13.7333 1.72495C13.7933 2.01495 13.8233 2.31495 13.8233 2.62495V5.59495C13.8233 5.79495 13.8733 5.98495 13.9733 6.16495C14.0733 6.33495 14.2083 6.41995 14.3783 6.41995V6.56995H12.8633ZM12.8633 5.14495V2.99995L12.7133 3.02995C12.4733 3.08995 12.1783 3.16995 11.8283 3.26995C11.4883 3.36995 11.1633 3.49995 10.8533 3.65995C10.5433 3.81995 10.2783 4.00995 10.0583 4.22995C9.83832 4.44995 9.72832 4.70495 9.72832 4.99495C9.72832 5.31495 9.85832 5.57995 10.1183 5.78995C10.3783 5.99995 10.7183 6.10495 11.1383 6.10495C11.4683 6.10495 11.7583 6.03495 12.0083 5.89495C12.2583 5.74495 12.4883 5.55495 12.6983 5.32495L12.8633 5.14495ZM23.4088 5.38495C23.4688 5.50495 23.5438 5.62495 23.6338 5.74495C23.7338 5.86495 23.8388 5.97495 23.9488 6.07495C24.0588 6.16495 24.1738 6.24495 24.2938 6.31495C24.4238 6.37495 24.5438 6.40995 24.6538 6.41995V6.56995H24.1288C23.7088 6.56995 23.3788 6.48495 23.1388 6.31495C22.9088 6.13495 22.7238 5.90995 22.5838 5.63995L21.8638 4.22995C21.7738 3.99995 21.6138 3.79995 21.3838 3.62995C21.1538 3.45995 20.9138 3.36495 20.6638 3.34495V5.57995C20.6638 5.64995 20.6738 5.73495 20.6938 5.83495C20.7138 5.92495 20.7438 6.01495 20.7838 6.10495C20.8338 6.18495 20.8888 6.25495 20.9488 6.31495C21.0088 6.37495 21.0788 6.40995 21.1588 6.41995V6.56995H19.2388V6.41995C19.3188 6.40995 19.3888 6.37495 19.4488 6.31495C19.5088 6.25495 19.5588 6.18495 19.5988 6.10495C19.6488 6.01495 19.6838 5.92495 19.7038 5.83495C19.7238 5.74495 19.7338 5.65995 19.7338 5.57995V3.34495C19.4738 3.36495 19.2338 3.45995 19.0138 3.62995C18.8038 3.79995 18.6438 3.99995 18.5338 4.22995L17.8288 5.63995C17.6988 5.89995 17.5088 6.11995 17.2588 6.29995C17.0188 6.47995 16.6888 6.56995 16.2688 6.56995H15.7438V6.41995C15.8538 6.40995 15.9688 6.37495 16.0888 6.31495C16.2088 6.24495 16.3238 6.16495 16.4338 6.07495C16.5538 5.97495 16.6588 5.86495 16.7488 5.74495C16.8488 5.62495 16.9288 5.50495 16.9888 5.38495L17.6938 3.92995C17.8138 3.69995 18.0138 3.49995 18.2938 3.32995C18.5838 3.14995 18.9138 3.04995 19.2838 3.02995C18.9038 2.66995 18.4988 2.28495 18.0688 1.87495C17.6388 1.46495 17.2288 1.07995 16.8388 0.719946C16.8088 0.699946 16.7288 0.649946 16.5988 0.569946C16.4788 0.479946 16.3688 0.429946 16.2688 0.419946V0.269946H17.4238V0.434946C17.3938 0.454946 17.3788 0.469946 17.3788 0.479946C17.3788 0.529946 17.3938 0.574946 17.4238 0.614946L19.7338 2.75995V1.21495C19.7338 1.07495 19.6888 0.914946 19.5988 0.734946C19.5188 0.544946 19.3988 0.439946 19.2388 0.419946V0.269946H21.1588V0.419946C21.0788 0.429946 21.0088 0.464946 20.9488 0.524946C20.8888 0.574946 20.8388 0.639946 20.7988 0.719946C20.7588 0.799946 20.7238 0.884946 20.6938 0.974946C20.6738 1.06495 20.6638 1.14495 20.6638 1.21495V2.75995L22.9888 0.584946C23.0088 0.564946 23.0188 0.529946 23.0188 0.479946C23.0188 0.469946 23.0038 0.454946 22.9738 0.434946V0.269946H24.1288V0.419946C24.0788 0.419946 24.0188 0.434946 23.9488 0.464946C23.8888 0.494946 23.8288 0.529946 23.7688 0.569946C23.6988 0.609946 23.6288 0.659946 23.5588 0.719946L21.1138 3.02995C21.5138 3.03995 21.8488 3.12995 22.1188 3.29995C22.3888 3.45995 22.5838 3.66995 22.7038 3.92995L23.4088 5.38495ZM32.9331 5.59495C32.9331 5.67495 32.9431 5.76495 32.9631 5.86495C32.9831 5.95495 33.0131 6.03995 33.0531 6.11995C33.1031 6.19995 33.1581 6.26995 33.2181 6.32995C33.2781 6.38995 33.3481 6.41995 33.4281 6.41995V6.56995H31.4781V6.41995C31.5581 6.41995 31.6281 6.39495 31.6881 6.34495C31.7481 6.28495 31.7981 6.21495 31.8381 6.13495C31.8781 6.04495 31.9081 5.95495 31.9281 5.86495C31.9481 5.76495 31.9581 5.67495 31.9581 5.59495V1.54495L29.4531 6.70495L27.0531 1.84495V5.59495C27.0531 5.67495 27.0631 5.76495 27.0831 5.86495C27.1031 5.95495 27.1331 6.03995 27.1731 6.11995C27.2131 6.19995 27.2631 6.26995 27.3231 6.32995C27.3831 6.38995 27.4531 6.41995 27.5331 6.41995V6.56995H26.0781V6.41995C26.1581 6.41995 26.2281 6.38995 26.2881 6.32995C26.3481 6.26995 26.3931 6.19995 26.4231 6.11995C26.4631 6.03995 26.4931 5.95495 26.5131 5.86495C26.5331 5.76495 26.5431 5.67495 26.5431 5.59495V1.19995C26.5431 1.01995 26.5181 0.844946 26.4681 0.674946C26.4281 0.504946 26.2981 0.419946 26.0781 0.419946V0.269946H27.4131L29.7081 4.96495L32.0031 0.269946H33.4281V0.419946C33.2781 0.419946 33.1581 0.514946 33.0681 0.704946C32.9781 0.884946 32.9331 1.04995 32.9331 1.19995V5.59495ZM41.3611 5.59495C41.3611 5.67495 41.3711 5.76495 41.3911 5.86495C41.4211 5.95495 41.4561 6.03995 41.4961 6.11995C41.5361 6.19995 41.5861 6.26995 41.6461 6.32995C41.7161 6.38995 41.7811 6.41995 41.8411 6.41995V6.56995H39.9211V6.41995C39.9911 6.41995 40.0561 6.39495 40.1161 6.34495C40.1761 6.28495 40.2261 6.21495 40.2661 6.13495C40.3061 6.04495 40.3361 5.95495 40.3561 5.86495C40.3761 5.76495 40.3861 5.67495 40.3861 5.59495V1.99495L36.8161 5.48995V5.59495C36.8161 5.67495 36.8261 5.76495 36.8461 5.86495C36.8661 5.95495 36.8961 6.03995 36.9361 6.11995C36.9761 6.19995 37.0211 6.26995 37.0711 6.32995C37.1311 6.38995 37.1961 6.41995 37.2661 6.41995V6.56995H35.3611V6.41995C35.4311 6.41995 35.4961 6.39495 35.5561 6.34495C35.6161 6.28495 35.6661 6.21495 35.7061 6.13495C35.7461 6.04495 35.7761 5.95495 35.7961 5.86495C35.8161 5.76495 35.8261 5.67495 35.8261 5.59495V1.19995C35.8261 1.12995 35.8161 1.04995 35.7961 0.959946C35.7761 0.869946 35.7461 0.784946 35.7061 0.704946C35.6661 0.624946 35.6161 0.559946 35.5561 0.509946C35.4961 0.449946 35.4311 0.419946 35.3611 0.419946V0.269946H37.2661V0.419946C37.1861 0.419946 37.1161 0.449946 37.0561 0.509946C37.0061 0.559946 36.9611 0.624946 36.9211 0.704946C36.8911 0.784946 36.8661 0.869946 36.8461 0.959946C36.8261 1.04995 36.8161 1.12995 36.8161 1.19995V4.78495L40.3861 1.28995V1.19995C40.3861 1.12995 40.3761 1.04995 40.3561 0.959946C40.3361 0.869946 40.3061 0.784946 40.2661 0.704946C40.2261 0.624946 40.1761 0.559946 40.1161 0.509946C40.0561 0.449946 39.9911 0.419946 39.9211 0.419946V0.269946H41.8411V0.419946C41.7611 0.419946 41.6861 0.449946 41.6161 0.509946C41.5561 0.559946 41.5061 0.624946 41.4661 0.704946C41.4361 0.784946 41.4111 0.869946 41.3911 0.959946C41.3711 1.04995 41.3611 1.12995 41.3611 1.19995V5.59495ZM52.177 1.73995C52.177 1.97995 52.072 2.23995 51.862 2.51995C51.652 2.78995 51.367 3.00495 51.007 3.16495C51.567 3.28495 51.967 3.49495 52.207 3.79495C52.457 4.08495 52.582 4.39495 52.582 4.72495C52.582 5.03495 52.507 5.30995 52.357 5.54995C52.207 5.78995 52.002 5.98995 51.742 6.14995C51.492 6.30995 51.202 6.42995 50.872 6.50995C50.552 6.58995 50.217 6.62995 49.867 6.62995C49.537 6.62995 49.242 6.59995 48.982 6.53995C48.722 6.46995 48.497 6.39995 48.307 6.32995C48.117 6.24995 47.957 6.17995 47.827 6.11995C47.707 6.04995 47.612 6.01495 47.542 6.01495V4.79995H47.677C47.697 5.00995 47.767 5.19995 47.887 5.36995C48.007 5.52995 48.157 5.66995 48.337 5.78995C48.527 5.89995 48.737 5.98495 48.967 6.04495C49.207 6.10495 49.452 6.13495 49.702 6.13495C49.932 6.13495 50.157 6.10995 50.377 6.05995C50.607 6.00995 50.807 5.93495 50.977 5.83495C51.157 5.72495 51.302 5.58995 51.412 5.42995C51.522 5.26995 51.577 5.08495 51.577 4.87495C51.577 4.65495 51.517 4.45995 51.397 4.28995C51.277 4.10995 51.117 3.95995 50.917 3.83995C50.727 3.71995 50.512 3.62995 50.272 3.56995C50.042 3.50995 49.812 3.47995 49.582 3.47995H49.102V2.99995H49.627C49.837 2.99995 50.037 2.96495 50.227 2.89495C50.427 2.82495 50.597 2.73495 50.737 2.62495C50.877 2.51495 50.987 2.38995 51.067 2.24995C51.157 2.09995 51.202 1.94995 51.202 1.79995C51.202 1.61995 51.152 1.45995 51.052 1.31995C50.962 1.17995 50.837 1.05995 50.677 0.959946C50.517 0.859946 50.337 0.784946 50.137 0.734946C49.947 0.674946 49.747 0.644946 49.537 0.644946C49.347 0.644946 49.162 0.669946 48.982 0.719946C48.802 0.759946 48.637 0.829946 48.487 0.929946C48.347 1.02995 48.227 1.15495 48.127 1.30495C48.037 1.45495 47.977 1.63495 47.947 1.84495H47.812V0.674946C47.892 0.674946 47.967 0.664946 48.037 0.644946C48.107 0.614946 48.187 0.574946 48.277 0.524946C48.437 0.444946 48.632 0.369946 48.862 0.299946C49.092 0.219946 49.382 0.179946 49.732 0.179946C50.512 0.179946 51.112 0.319946 51.532 0.599946C51.962 0.879946 52.177 1.25995 52.177 1.73995ZM60.9199 6.07495V7.91995H60.7699C60.7499 7.79995 60.7149 7.65995 60.6649 7.49995C60.6149 7.34995 60.5449 7.20495 60.4549 7.06495C60.3649 6.92495 60.2549 6.80495 60.1249 6.70495C60.0049 6.61495 59.8649 6.56995 59.7049 6.56995H54.9349C54.7749 6.56995 54.6299 6.61495 54.4999 6.70495C54.3699 6.80495 54.2549 6.92495 54.1549 7.06495C54.0649 7.20495 53.9899 7.34995 53.9299 7.49995C53.8799 7.65995 53.8499 7.79995 53.8399 7.91995H53.6899V6.07495H54.2599C54.3199 6.07495 54.3749 6.04995 54.4249 5.99995C54.4849 5.94995 54.5399 5.88995 54.5899 5.81995C54.6499 5.74995 54.7049 5.67495 54.7549 5.59495C54.8049 5.50495 54.8499 5.42495 54.8899 5.35495C55.0399 5.01495 55.2199 4.60995 55.4299 4.13995C55.6499 3.66995 55.8699 3.18495 56.0899 2.68495C56.3199 2.18495 56.5399 1.69995 56.7499 1.22995C56.9599 0.749946 57.1399 0.339946 57.2899 -5.40614e-05L59.8249 5.53495C59.9049 5.70495 59.9799 5.83995 60.0499 5.93995C60.1199 6.02995 60.2149 6.07495 60.3349 6.07495H60.9199ZM55.0849 6.07495H58.9849L57.0349 1.79995L55.0849 6.07495ZM63.0785 3.53995C63.1185 3.88995 63.2035 4.22495 63.3335 4.54495C63.4635 4.85495 63.6335 5.12995 63.8435 5.36995C64.0635 5.60995 64.3285 5.80495 64.6385 5.95495C64.9485 6.09495 65.3085 6.16495 65.7185 6.16495C65.9385 6.16495 66.1685 6.13495 66.4085 6.07495C66.6585 6.00495 66.8885 5.90995 67.0985 5.78995C67.3085 5.66995 67.4935 5.52495 67.6535 5.35495C67.8235 5.17495 67.9385 4.97495 67.9985 4.75495H68.1335V5.87995C68.0735 5.87995 68.0035 5.89995 67.9235 5.93995C67.8535 5.97995 67.7685 6.02995 67.6685 6.08995C67.4685 6.20995 67.1985 6.33995 66.8585 6.47995C66.5185 6.60995 66.0685 6.67495 65.5085 6.67495C65.0585 6.67495 64.6285 6.60995 64.2185 6.47995C63.8185 6.34995 63.4635 6.14995 63.1535 5.87995C62.8435 5.60995 62.5935 5.26495 62.4035 4.84495C62.2235 4.42495 62.1335 3.92495 62.1335 3.34495C62.1335 2.97495 62.1935 2.59995 62.3135 2.21995C62.4435 1.83995 62.6335 1.49995 62.8835 1.19995C63.1435 0.889946 63.4735 0.639946 63.8735 0.449946C64.2735 0.259946 64.7535 0.164946 65.3135 0.164946C65.8135 0.164946 66.2485 0.249946 66.6185 0.419946C66.9985 0.589946 67.3085 0.824946 67.5485 1.12495C67.7985 1.42495 67.9835 1.77995 68.1035 2.18995C68.2235 2.59995 68.2835 3.04995 68.2835 3.53995H63.0785ZM65.2535 0.659946C64.9035 0.659946 64.5985 0.729946 64.3385 0.869946C64.0885 1.00995 63.8735 1.18995 63.6935 1.40995C63.5135 1.62995 63.3735 1.87995 63.2735 2.15995C63.1735 2.43995 63.1085 2.71995 63.0785 2.99995H67.3535C67.3435 2.70995 67.2885 2.42495 67.1885 2.14495C67.0985 1.86495 66.9685 1.61495 66.7985 1.39495C66.6285 1.17495 66.4135 0.999946 66.1535 0.869946C65.8935 0.729946 65.5935 0.659946 65.2535 0.659946ZM75.1965 6.02995C75.1165 6.02995 75.0415 6.04995 74.9715 6.08995C74.9015 6.11995 74.8215 6.15995 74.7315 6.20995C74.5615 6.30995 74.3365 6.41495 74.0565 6.52495C73.7765 6.62495 73.4265 6.67495 73.0065 6.67495C72.4965 6.67495 72.0265 6.59495 71.5965 6.43495C71.1765 6.26495 70.8115 6.03495 70.5015 5.74495C70.1915 5.44495 69.9515 5.09995 69.7815 4.70995C69.6115 4.30995 69.5265 3.87995 69.5265 3.41995C69.5265 2.98995 69.6015 2.57995 69.7515 2.18995C69.9115 1.79995 70.1365 1.45495 70.4265 1.15495C70.7165 0.854946 71.0715 0.614946 71.4915 0.434946C71.9215 0.254946 72.4065 0.164946 72.9465 0.164946C73.3165 0.164946 73.6165 0.209946 73.8465 0.299946C74.0765 0.379946 74.2715 0.459946 74.4315 0.539946C74.5215 0.589946 74.6065 0.629946 74.6865 0.659946C74.7765 0.689946 74.8665 0.704946 74.9565 0.704946V1.84495H74.8065C74.7565 1.65495 74.6665 1.48995 74.5365 1.34995C74.4065 1.19995 74.2565 1.07495 74.0865 0.974946C73.9165 0.874946 73.7315 0.799946 73.5315 0.749946C73.3315 0.699946 73.1365 0.674946 72.9465 0.674946C72.5365 0.674946 72.1765 0.749946 71.8665 0.899946C71.5565 1.03995 71.3015 1.22995 71.1015 1.46995C70.9015 1.69995 70.7515 1.96495 70.6515 2.26495C70.5515 2.56495 70.5015 2.87495 70.5015 3.19495C70.5015 3.56495 70.5565 3.92995 70.6665 4.28995C70.7865 4.63995 70.9515 4.95495 71.1615 5.23495C71.3815 5.51495 71.6465 5.73995 71.9565 5.90995C72.2765 6.07995 72.6365 6.16495 73.0365 6.16495C73.3165 6.16495 73.5765 6.12495 73.8165 6.04495C74.0565 5.96495 74.2615 5.85995 74.4315 5.72995C74.6115 5.59995 74.7515 5.45995 74.8515 5.30995C74.9615 5.14995 75.0265 4.99995 75.0465 4.85995H75.1965V6.02995ZM79.2847 2.99995C79.7447 2.99995 80.1447 3.04495 80.4847 3.13495C80.8347 3.22495 81.1197 3.34995 81.3397 3.50995C81.5697 3.66995 81.7397 3.85995 81.8497 4.07995C81.9597 4.28995 82.0147 4.51995 82.0147 4.76995C82.0147 5.01995 81.9597 5.25495 81.8497 5.47495C81.7397 5.69495 81.5647 5.88495 81.3247 6.04495C81.0947 6.20495 80.8047 6.33495 80.4547 6.43495C80.1047 6.52495 79.6897 6.56995 79.2097 6.56995H76.6447V6.41995C76.7247 6.41995 76.7947 6.39495 76.8547 6.34495C76.9147 6.28495 76.9647 6.21495 77.0047 6.13495C77.0547 6.04495 77.0897 5.95495 77.1097 5.86495C77.1297 5.76495 77.1397 5.67495 77.1397 5.59495V1.19995C77.1397 1.12995 77.1297 1.04995 77.1097 0.959946C77.0897 0.869946 77.0547 0.784946 77.0047 0.704946C76.9647 0.624946 76.9147 0.559946 76.8547 0.509946C76.7947 0.449946 76.7247 0.419946 76.6447 0.419946V0.269946H78.6097V0.419946C78.4597 0.419946 78.3397 0.514946 78.2497 0.704946C78.1597 0.884946 78.1147 1.04995 78.1147 1.19995V2.99995H79.2847ZM79.1797 6.07495C79.8397 6.07495 80.3147 5.96995 80.6047 5.75995C80.9047 5.53995 81.0547 5.26995 81.0547 4.94995C81.0547 4.76995 81.0147 4.59495 80.9347 4.42495C80.8547 4.24495 80.7297 4.08995 80.5597 3.95995C80.3997 3.81995 80.1997 3.70995 79.9597 3.62995C79.7197 3.53995 79.4447 3.49495 79.1347 3.49495H78.1147V6.07495H79.1797Z" fill="white"></path><path d="M0 8.06995H82.6447V8.81995H0V8.06995Z" fill="white"></path></svg> 