<?xml version="1.0" encoding="UTF-8"?> <svg xmlns="http://www.w3.org/2000/svg" width="263" height="29" viewBox="0 0 263 29" fill="none"><path d="M31.59 0.29999C31.59 0.359989 31.5 0.399989 31.32 0.419989C30.98 0.459989 30.74 0.499989 30.6 0.539989C29.56 0.779989 28.53 1.36999 27.51 2.30999C29.37 3.94999 30.3 6.06999 30.3 8.66999C30.3 9.08999 30.26 9.48999 30.18 9.86999C29.58 12.93 27.95 15.5 25.29 17.58C22.73 19.58 19.16 20.56 14.58 20.52C12.98 20.5 11.09 20.34 8.90997 20.04C7.34997 19.82 5.79997 19.6 4.25997 19.38C5.45997 22.4 8.04997 23.91 12.03 23.91C13.29 23.91 14.38 23.6 15.3 22.98C15.62 22.76 15.79 22.66 15.81 22.68C15.95 22.78 15.88 22.95 15.6 23.19C14.74 23.93 13.5 24.3 11.88 24.3C7.81997 24.3 5.11997 22.71 3.77997 19.53C2.85997 19.81 2.00997 19.99 1.22997 20.07C0.909971 20.09 0.629971 20.05 0.389971 19.95C0.129971 19.87 0.00997068 19.75 0.0299706 19.59C0.0299706 19.09 0.579971 18.78 1.67997 18.66C2.29997 18.6 2.90997 18.63 3.50997 18.75C3.18997 17.73 3.02997 16.58 3.02997 15.3C3.02997 10.92 4.89997 7.19999 8.63997 4.13999C12.02 1.37999 15.81 -1.13249e-05 20.01 -1.13249e-05C22.93 -1.13249e-05 25.27 0.639989 27.03 1.91999C28.21 0.999989 29.33 0.439989 30.39 0.239989C30.73 0.179989 31.01 0.149989 31.23 0.149989C31.49 0.149989 31.61 0.199989 31.59 0.29999ZM28.89 9.29999C28.99 8.73999 29.04 8.17999 29.04 7.61999C29.04 5.57999 28.41 3.89999 27.15 2.57999C25.83 3.69999 24.42 5.15999 22.92 6.95999C21.82 8.27999 20.73 9.59999 19.65 10.92C16.99 13.92 14.4 16.07 11.88 17.37C9.95997 18.37 7.91997 18.94 5.75997 19.08C8.77997 19.7 11.73 20.01 14.61 20.01C18.61 20.01 21.94 18.78 24.6 16.32C27 14.08 28.43 11.74 28.89 9.29999ZM26.67 2.18999C25.21 1.06999 23.19 0.509989 20.61 0.509989C16.61 0.509989 12.86 1.95999 9.35997 4.85999C5.51997 8.03999 3.59997 11.6 3.59997 15.54C3.59997 16.78 3.75997 17.87 4.07997 18.81C6.51997 18.73 8.73997 18.08 10.74 16.86C12.64 15.72 14.93 13.7 17.61 10.8C21.53 6.57999 24.55 3.70999 26.67 2.18999ZM41.3723 15.03C43.1323 13.19 44.5823 11.94 45.7223 11.28C46.1423 11.02 46.6823 10.92 47.3423 10.98C44.7623 13.36 42.7423 15.44 41.2823 17.22C40.4023 18.3 39.9623 18.97 39.9623 19.23C39.9623 19.33 40.0123 19.4 40.1123 19.44C40.4923 19.62 41.4123 19.13 42.8723 17.97C42.9123 17.93 43.8823 17.1 45.7823 15.48C45.9623 15.36 46.0923 15.34 46.1723 15.42C46.2723 15.52 46.2423 15.63 46.0823 15.75C45.3823 16.43 44.4223 17.25 43.2023 18.21C41.7023 19.39 40.6623 19.97 40.0823 19.95C39.3623 19.91 39.0023 19.58 39.0023 18.96C39.0223 18.36 39.3023 17.68 39.8423 16.92C39.3223 17.4 38.8223 17.83 38.3423 18.21C36.8423 19.39 35.8023 19.97 35.2223 19.95C34.5023 19.91 34.1423 19.58 34.1423 18.96C34.1423 18 35.8223 15.95 39.1823 12.81C38.7023 12.89 38.2823 13.1 37.9223 13.44C35.4223 15.82 33.6923 17.41 32.7323 18.21C31.2323 19.37 30.1523 19.95 29.4923 19.95C28.8123 19.95 28.4723 19.66 28.4723 19.08C28.4723 18.44 28.8523 17.64 29.6123 16.68C30.5123 15.56 31.4623 15.12 32.4623 15.36C31.8223 16.02 31.2623 16.64 30.7823 17.22C29.9223 18.28 29.4923 18.94 29.4923 19.2C29.4923 19.32 29.5423 19.4 29.6423 19.44C30.0623 19.64 31.0323 19.11 32.5523 17.85C33.7723 16.73 34.6723 15.86 35.2523 15.24C37.1523 13.26 38.6523 11.99 39.7523 11.43C40.9123 11.07 41.8223 10.92 42.4823 10.98C39.9023 13.36 37.8823 15.44 36.4223 17.22C35.5423 18.3 35.1023 18.97 35.1023 19.23C35.1023 19.33 35.1523 19.4 35.2523 19.44C35.6323 19.62 36.5523 19.13 38.0123 17.97C38.0523 17.93 39.1723 16.95 41.3723 15.03ZM58.1892 10.98C55.6092 13.36 53.5892 15.44 52.1292 17.22C51.2492 18.3 50.8092 18.97 50.8092 19.23C50.8092 19.33 50.8592 19.4 50.9592 19.44C51.3392 19.62 52.2592 19.13 53.7192 17.97C53.7592 17.93 54.7292 17.1 56.6292 15.48C56.8092 15.36 56.9392 15.34 57.0192 15.42C57.1192 15.52 57.0892 15.63 56.9292 15.75C56.2292 16.43 55.2692 17.25 54.0492 18.21C52.5492 19.39 51.5092 19.97 50.9292 19.95C50.2092 19.91 49.8492 19.58 49.8492 18.96C49.8492 18.5 50.0392 17.95 50.4192 17.31C50.1592 17.57 49.8092 17.87 49.3692 18.21C47.8692 19.37 46.7892 19.95 46.1292 19.95C45.4492 19.95 45.1092 19.66 45.1092 19.08C45.1092 18.08 45.8592 16.79 47.3592 15.21C48.8592 13.63 50.3792 12.4 51.9192 11.52C52.4392 11.22 53.0592 11.1 53.7792 11.16C50.9192 13.5 48.7992 15.52 47.4192 17.22C46.5592 18.28 46.1292 18.94 46.1292 19.2C46.1292 19.32 46.1792 19.4 46.2792 19.44C46.6992 19.64 47.6592 19.14 49.1592 17.94C49.8592 17.38 50.8092 16.48 52.0092 15.24C53.9092 13.26 55.4292 11.94 56.5692 11.28C56.9892 11.02 57.5292 10.92 58.1892 10.98ZM73.2935 15.6C73.3735 15.68 73.3035 15.83 73.0835 16.05C71.9635 17.09 70.8535 17.99 69.7535 18.75C68.3535 19.73 67.2935 20.14 66.5735 19.98C66.0935 19.86 65.8535 19.5 65.8535 18.9C65.8535 18.4 66.0535 17.86 66.4535 17.28C66.9335 16.6 67.7935 15.69 69.0335 14.55C69.6535 14.01 70.2735 13.47 70.8935 12.93C71.6735 12.23 72.0635 11.77 72.0635 11.55C72.0635 11.43 72.0035 11.37 71.8835 11.37C71.4635 11.37 70.5335 11.8 69.0935 12.66C67.5935 13.54 66.3335 14.43 65.3135 15.33C64.1535 16.35 62.6835 17.95 60.9035 20.13C60.7435 20.13 60.6435 19.97 60.6035 19.65C60.5635 19.37 60.5835 19.14 60.6635 18.96C61.2235 17.86 62.3635 16.39 64.0835 14.55C64.2035 14.41 64.8135 13.86 65.9135 12.9C66.7335 12.18 67.1435 11.72 67.1435 11.52C67.1435 11.46 67.1135 11.42 67.0535 11.4C66.7135 11.26 65.6735 11.72 63.9335 12.78C62.2135 13.84 60.8235 14.87 59.7635 15.87C58.5635 17.01 57.2935 18.43 55.9535 20.13C55.7935 20.13 55.6835 19.97 55.6235 19.65C55.5835 19.35 55.6035 19.12 55.6835 18.96C56.3835 17.62 57.6735 15.95 59.5535 13.95C60.5335 12.91 61.4635 12.1 62.3435 11.52C62.8235 11.2 63.5135 11.04 64.4135 11.04C62.9335 12.06 61.5135 13.38 60.1535 15C63.7735 12.08 66.2135 10.73 67.4735 10.95C67.8735 11.03 68.0735 11.28 68.0735 11.7C68.0735 12.18 67.8635 12.69 67.4435 13.23C69.7635 11.67 71.3235 10.89 72.1235 10.89C72.3835 10.89 72.6035 10.98 72.7835 11.16C72.9835 11.34 73.0835 11.55 73.0835 11.79C73.0835 12.51 72.1635 13.7 70.3235 15.36C69.4635 16.14 68.6635 16.92 67.9235 17.7C67.2035 18.46 66.8435 18.98 66.8435 19.26C66.8435 19.46 66.9535 19.56 67.1735 19.56C67.6735 19.56 68.5035 19.14 69.6635 18.3C70.8235 17.46 71.8735 16.61 72.8135 15.75C73.0335 15.55 73.1935 15.5 73.2935 15.6ZM83.8242 8.27999C83.3242 8.51999 82.8742 8.80999 82.4742 9.14999C79.9942 11.31 78.1042 13.17 76.8042 14.73C77.6242 13.97 78.6242 13.19 79.8042 12.39C81.2842 11.39 82.3342 10.89 82.9542 10.89C83.4342 10.89 83.6742 11.19 83.6742 11.79C83.6742 12.35 83.4542 13.04 83.0142 13.86C82.5942 14.66 82.0642 15.37 81.4242 15.99C78.6842 18.67 76.3842 19.99 74.5242 19.95C74.2242 19.95 73.9442 19.86 73.6842 19.68C73.5242 19.58 73.4342 19.43 73.4142 19.23C73.3942 19.03 73.4442 18.92 73.5642 18.9C73.6842 18.88 73.7642 18.96 73.8042 19.14C73.9242 19.36 74.1142 19.48 74.3742 19.5C74.9342 19.54 75.5842 19.28 76.3242 18.72C77.0842 18.14 78.3342 16.96 80.0742 15.18C81.9542 13.26 82.8942 12.09 82.8942 11.67C82.8942 11.53 82.8042 11.46 82.6242 11.46C82.0442 11.46 80.8842 12.1 79.1442 13.38C77.5442 14.58 76.1242 15.8 74.8842 17.04C71.1842 20.76 68.0942 24.34 65.6142 27.78C65.1342 28.46 64.8642 28.79 64.8042 28.77C64.7242 28.77 64.6742 28.71 64.6542 28.59C64.6342 28.51 64.6342 28.38 64.6542 28.2C64.6742 28.04 64.7042 27.88 64.7442 27.72C64.9442 26.74 66.0742 24.99 68.1342 22.47C69.8942 20.29 72.4442 17.5 75.7842 14.1C78.0242 11.82 79.9642 10.12 81.6042 8.99999C81.8842 8.83999 82.2842 8.63999 82.8042 8.39999C83.2442 8.27999 83.5842 8.23999 83.8242 8.27999ZM96.2048 10.98C93.6248 13.36 91.6048 15.44 90.1448 17.22C89.2648 18.3 88.8248 18.97 88.8248 19.23C88.8248 19.33 88.8748 19.4 88.9748 19.44C89.3548 19.62 90.2748 19.13 91.7348 17.97C91.7748 17.93 92.7448 17.1 94.6448 15.48C94.8248 15.36 94.9548 15.34 95.0348 15.42C95.1348 15.52 95.1048 15.63 94.9448 15.75C94.2448 16.43 93.2848 17.25 92.0648 18.21C90.5648 19.39 89.5248 19.97 88.9448 19.95C88.2248 19.91 87.8648 19.58 87.8648 18.96C87.8648 18.5 88.0548 17.95 88.4348 17.31C88.1748 17.57 87.8248 17.87 87.3848 18.21C85.8848 19.37 84.8048 19.95 84.1448 19.95C83.4648 19.95 83.1248 19.66 83.1248 19.08C83.1248 18.08 83.8748 16.79 85.3748 15.21C86.8748 13.63 88.3948 12.4 89.9348 11.52C90.4548 11.22 91.0748 11.1 91.7948 11.16C88.9348 13.5 86.8148 15.52 85.4348 17.22C84.5748 18.28 84.1448 18.94 84.1448 19.2C84.1448 19.32 84.1948 19.4 84.2948 19.44C84.7148 19.64 85.6748 19.14 87.1748 17.94C87.8748 17.38 88.8248 16.48 90.0248 15.24C91.9248 13.26 93.4448 11.94 94.5848 11.28C95.0048 11.02 95.5448 10.92 96.2048 10.98ZM107.109 10.98C104.529 13.36 102.509 15.44 101.049 17.22C100.169 18.3 99.7291 18.97 99.7291 19.23C99.7291 19.33 99.7791 19.4 99.8791 19.44C100.259 19.62 101.179 19.13 102.639 17.97C102.679 17.93 103.649 17.1 105.549 15.48C105.729 15.36 105.859 15.34 105.939 15.42C106.039 15.52 106.009 15.63 105.849 15.75C105.149 16.43 104.189 17.25 102.969 18.21C101.469 19.39 100.429 19.97 99.8491 19.95C99.1291 19.91 98.7691 19.58 98.7691 18.96C98.7691 18.5 98.9591 17.95 99.3391 17.31C99.0791 17.57 98.7291 17.87 98.2891 18.21C96.7891 19.37 95.7091 19.95 95.0491 19.95C94.3691 19.95 94.0291 19.66 94.0291 19.08C94.0291 18.08 94.7791 16.79 96.2791 15.21C97.7791 13.63 99.2991 12.4 100.839 11.52C101.359 11.22 101.979 11.1 102.699 11.16C99.8391 13.5 97.7191 15.52 96.3391 17.22C95.4791 18.28 95.0491 18.94 95.0491 19.2C95.0491 19.32 95.0991 19.4 95.1991 19.44C95.6191 19.64 96.5791 19.14 98.0791 17.94C98.7791 17.38 99.7291 16.48 100.929 15.24C102.829 13.26 104.349 11.94 105.489 11.28C105.909 11.02 106.449 10.92 107.109 10.98ZM104.229 7.28999C104.229 7.12999 104.289 7.04999 104.409 7.04999C104.489 7.04999 104.579 7.10999 104.679 7.22999C104.879 7.56999 105.089 8.13999 105.309 8.93999C107.029 8.01999 108.329 7.40999 109.209 7.10999C109.489 6.98999 109.629 6.99999 109.629 7.13999C109.769 7.23999 109.739 7.33999 109.539 7.43999C107.919 8.35999 106.449 9.26999 105.129 10.17C104.889 10.33 104.739 10.41 104.679 10.41C104.539 10.41 104.469 10.28 104.469 10.02C104.449 9.11999 104.369 8.20999 104.229 7.28999ZM134.513 10.98C131.933 13.36 129.913 15.44 128.453 17.22C127.573 18.3 127.133 18.97 127.133 19.23C127.133 19.33 127.183 19.4 127.283 19.44C127.663 19.62 128.583 19.13 130.043 17.97C130.083 17.93 131.053 17.1 132.953 15.48C133.133 15.36 133.263 15.34 133.343 15.42C133.443 15.52 133.413 15.63 133.253 15.75C132.553 16.43 131.593 17.25 130.373 18.21C128.873 19.39 127.833 19.97 127.253 19.95C126.533 19.91 126.173 19.58 126.173 18.96C126.173 18.5 126.363 17.95 126.743 17.31C126.483 17.57 126.133 17.87 125.693 18.21C124.193 19.37 123.113 19.95 122.453 19.95C121.773 19.95 121.433 19.66 121.433 19.08C121.433 18.08 122.183 16.79 123.683 15.21C125.183 13.63 126.703 12.4 128.243 11.52C128.763 11.22 129.383 11.1 130.103 11.16C127.243 13.5 125.123 15.52 123.743 17.22C122.883 18.28 122.453 18.94 122.453 19.2C122.453 19.32 122.503 19.4 122.603 19.44C123.023 19.64 123.983 19.14 125.483 17.94C126.183 17.38 127.133 16.48 128.333 15.24C130.233 13.26 131.753 11.94 132.893 11.28C133.313 11.02 133.853 10.92 134.513 10.98ZM183.488 3.14999C183.368 3.48999 182.978 3.65999 182.318 3.65999C181.838 3.65999 180.548 3.45999 178.448 3.05999C177.648 2.89999 176.398 2.66999 174.698 2.36999C172.418 3.20999 170.488 4.63999 168.908 6.65999C168.168 7.59999 167.798 8.40999 167.798 9.08999C167.798 9.24999 167.828 9.38999 167.888 9.50999C168.228 9.46999 168.778 9.56999 169.538 9.80999C170.158 10.05 170.438 10.27 170.378 10.47C170.258 10.69 169.918 10.74 169.358 10.62C168.618 10.4 168.068 10.13 167.708 9.80999C166.828 9.78999 165.538 10.21 163.838 11.07C162.218 11.89 160.818 12.9 159.638 14.1C158.478 15.3 157.698 16.5 157.298 17.7C157.138 18.16 157.058 18.59 157.058 18.99C157.058 20.43 157.928 21.18 159.668 21.24C160.948 21.28 162.478 20.91 164.258 20.13C165.898 19.43 167.478 18.51 168.998 17.37C169.498 16.99 170.188 16.43 171.068 15.69C171.688 15.17 172.018 14.91 172.058 14.91C172.158 14.91 172.208 14.96 172.208 15.06C172.208 15.16 171.938 15.45 171.398 15.93C170.618 16.63 169.958 17.19 169.418 17.61C167.918 18.77 166.288 19.74 164.528 20.52C162.648 21.36 161.018 21.78 159.638 21.78C158.398 21.78 157.398 21.49 156.638 20.91C155.798 20.29 155.418 19.44 155.498 18.36C154.178 18.26 153.158 17.76 152.438 16.86C151.778 16.02 151.438 14.94 151.418 13.62C151.378 10.6 152.838 7.77999 155.798 5.15999C159.018 2.31999 163.118 0.89999 168.098 0.89999C169.898 0.89999 171.898 1.13999 174.098 1.61999C175.818 1.09999 177.588 0.839989 179.408 0.839989C179.868 0.839989 180.318 0.859989 180.758 0.89999C181.638 0.97999 182.338 1.19999 182.858 1.55999C183.318 1.89999 183.548 2.28999 183.548 2.72999C183.548 2.86999 183.528 3.00999 183.488 3.14999ZM183.188 2.99999C183.228 2.91999 183.248 2.82999 183.248 2.72999C183.248 2.38999 183.038 2.07999 182.618 1.79999C182.198 1.49999 181.608 1.31999 180.848 1.25999C179.428 1.13999 177.758 1.37999 175.838 1.97999L178.568 2.66999C180.328 3.12999 181.568 3.35999 182.288 3.35999C182.768 3.35999 183.068 3.23999 183.188 2.99999ZM172.778 2.09999C171.118 1.91999 169.588 1.82999 168.188 1.82999C163.328 1.82999 159.338 3.08999 156.218 5.60999C154.878 6.68999 153.818 7.96999 153.038 9.44999C152.278 10.91 151.908 12.31 151.928 13.65C151.948 14.87 152.268 15.88 152.888 16.68C153.528 17.46 154.418 17.89 155.558 17.97C155.718 16.71 156.408 15.41 157.628 14.07C158.668 12.93 159.848 11.99 161.168 11.25C163.068 10.17 165.178 9.58999 167.498 9.50999C167.338 9.26999 167.258 8.91999 167.258 8.45999C167.258 7.77999 167.448 7.09999 167.828 6.41999C168.208 5.71999 168.798 4.99999 169.598 4.25999C170.558 3.33999 171.618 2.61999 172.778 2.09999ZM178.71 10.77C177.01 12.43 175.42 14.16 173.94 15.96C174.58 15.42 175.79 14.5 177.57 13.2C180.01 11.52 181.77 10.74 182.85 10.86C183.55 10.94 183.83 11.29 183.69 11.91C183.63 12.19 183.48 12.37 183.24 12.45C183.18 12.45 182.99 12.31 182.67 12.03C182.47 11.87 182.22 11.78 181.92 11.76C180.88 11.72 179.77 12.15 178.59 13.05C177.99 13.75 177.44 14.84 176.94 16.32C176.62 17.3 176.46 18.02 176.46 18.48C176.46 18.88 176.62 19.08 176.94 19.08C177.24 19.08 177.97 18.66 179.13 17.82C179.91 17.14 180.86 16.33 181.98 15.39C182.1 15.27 182.21 15.26 182.31 15.36C182.41 15.46 182.38 15.59 182.22 15.75C180.98 16.87 180 17.71 179.28 18.27C177.66 19.51 176.5 20.08 175.8 19.98C175.32 19.9 175.08 19.54 175.08 18.9C175.08 18.5 175.18 17.94 175.38 17.22C175.7 16.1 176.14 15.11 176.7 14.25C176.38 14.47 175.89 14.83 175.23 15.33C174.11 16.21 173.29 16.91 172.77 17.43C172.27 18.01 171.6 18.91 170.76 20.13C170.46 20.13 170.31 19.87 170.31 19.35C170.31 19.19 170.33 19.05 170.37 18.93C170.83 17.73 172.1 15.98 174.18 13.68C174.92 12.86 175.7 12.08 176.52 11.34C176.96 10.88 177.69 10.69 178.71 10.77ZM194.332 11.16C191.672 13.54 189.642 15.57 188.242 17.25C187.402 18.25 186.982 18.9 186.982 19.2C186.982 19.32 187.032 19.4 187.132 19.44C187.492 19.62 188.462 19.09 190.042 17.85C190.702 17.33 191.652 16.52 192.892 15.42C193.052 15.26 193.172 15.25 193.252 15.39C193.312 15.51 193.262 15.64 193.102 15.78C192.102 16.66 191.172 17.45 190.312 18.15C188.832 19.35 187.762 19.95 187.102 19.95C186.382 19.95 186.022 19.62 186.022 18.96C186.022 18.52 186.222 18 186.622 17.4C184.602 19.1 183.162 19.95 182.302 19.95C181.622 19.95 181.282 19.62 181.282 18.96C181.282 17.76 182.062 16.36 183.622 14.76C184.642 13.72 185.842 12.81 187.222 12.03C188.622 11.25 189.752 10.86 190.612 10.86C191.252 10.86 191.572 11.08 191.572 11.52C191.572 11.94 191.262 12.45 190.642 13.05C191.902 12.01 192.742 11.42 193.162 11.28C193.502 11.16 193.892 11.12 194.332 11.16ZM190.792 11.31C189.832 11.31 187.902 12.7 185.002 15.48C183.162 17.24 182.242 18.48 182.242 19.2C182.242 19.34 182.302 19.44 182.422 19.5C182.702 19.62 183.412 19.27 184.552 18.45C185.712 17.61 186.912 16.56 188.152 15.3C190.152 13.24 191.152 12.02 191.152 11.64C191.152 11.42 191.032 11.31 190.792 11.31ZM209.465 15.6C209.545 15.68 209.475 15.83 209.255 16.05C208.135 17.09 207.025 17.99 205.925 18.75C204.525 19.73 203.465 20.14 202.745 19.98C202.265 19.86 202.025 19.5 202.025 18.9C202.025 18.4 202.225 17.86 202.625 17.28C203.105 16.6 203.965 15.69 205.205 14.55C205.825 14.01 206.445 13.47 207.065 12.93C207.845 12.23 208.235 11.77 208.235 11.55C208.235 11.43 208.175 11.37 208.055 11.37C207.635 11.37 206.705 11.8 205.265 12.66C203.765 13.54 202.505 14.43 201.485 15.33C200.325 16.35 198.855 17.95 197.075 20.13C196.915 20.13 196.815 19.97 196.775 19.65C196.735 19.37 196.755 19.14 196.835 18.96C197.395 17.86 198.535 16.39 200.255 14.55C200.375 14.41 200.985 13.86 202.085 12.9C202.905 12.18 203.315 11.72 203.315 11.52C203.315 11.46 203.285 11.42 203.225 11.4C202.885 11.26 201.845 11.72 200.105 12.78C198.385 13.84 196.995 14.87 195.935 15.87C194.735 17.01 193.465 18.43 192.125 20.13C191.965 20.13 191.855 19.97 191.795 19.65C191.755 19.35 191.775 19.12 191.855 18.96C192.555 17.62 193.845 15.95 195.725 13.95C196.705 12.91 197.635 12.1 198.515 11.52C198.995 11.2 199.685 11.04 200.585 11.04C199.105 12.06 197.685 13.38 196.325 15C199.945 12.08 202.385 10.73 203.645 10.95C204.045 11.03 204.245 11.28 204.245 11.7C204.245 12.18 204.035 12.69 203.615 13.23C205.935 11.67 207.495 10.89 208.295 10.89C208.555 10.89 208.775 10.98 208.955 11.16C209.155 11.34 209.255 11.55 209.255 11.79C209.255 12.51 208.335 13.7 206.495 15.36C205.635 16.14 204.835 16.92 204.095 17.7C203.375 18.46 203.015 18.98 203.015 19.26C203.015 19.46 203.125 19.56 203.345 19.56C203.845 19.56 204.675 19.14 205.835 18.3C206.995 17.46 208.045 16.61 208.985 15.75C209.205 15.55 209.365 15.5 209.465 15.6ZM218.376 11.61C218.376 12.21 217.856 12.88 216.816 13.62C216.416 13.9 215.866 14.16 215.166 14.4C214.486 14.64 213.936 14.76 213.516 14.76C213.296 14.76 213.136 14.73 213.036 14.67C210.936 16.65 209.886 18.1 209.886 19.02C209.886 19.38 210.106 19.56 210.546 19.56C211.206 19.56 212.076 19.22 213.156 18.54C214.336 17.8 215.606 16.79 216.966 15.51C217.166 15.33 217.306 15.29 217.386 15.39C217.466 15.49 217.416 15.63 217.236 15.81C216.076 16.87 214.926 17.8 213.786 18.6C212.326 19.62 211.106 20.08 210.126 19.98C209.146 19.88 208.696 19.34 208.776 18.36C208.896 17.14 209.676 15.84 211.116 14.46C212.116 13.5 213.246 12.66 214.506 11.94C215.786 11.22 216.776 10.86 217.476 10.86C218.076 10.86 218.376 11.11 218.376 11.61ZM217.806 11.25C217.626 11.11 216.996 11.43 215.916 12.21C214.916 12.95 214.016 13.71 213.216 14.49C213.276 14.51 213.356 14.52 213.456 14.52C214.276 14.52 215.286 14.05 216.486 13.11C217.406 12.37 217.866 11.81 217.866 11.43C217.866 11.35 217.846 11.29 217.806 11.25ZM227.736 8.27999C227.236 8.51999 226.786 8.80999 226.386 9.14999C223.906 11.31 222.016 13.17 220.716 14.73C221.536 13.97 222.536 13.19 223.716 12.39C225.196 11.39 226.246 10.89 226.866 10.89C227.346 10.89 227.586 11.19 227.586 11.79C227.586 12.35 227.366 13.04 226.926 13.86C226.506 14.66 225.976 15.37 225.336 15.99C222.596 18.67 220.296 19.99 218.436 19.95C218.136 19.95 217.856 19.86 217.596 19.68C217.436 19.58 217.346 19.43 217.326 19.23C217.306 19.03 217.356 18.92 217.476 18.9C217.596 18.88 217.676 18.96 217.716 19.14C217.836 19.36 218.026 19.48 218.286 19.5C218.846 19.54 219.496 19.28 220.236 18.72C220.996 18.14 222.246 16.96 223.986 15.18C225.866 13.26 226.806 12.09 226.806 11.67C226.806 11.53 226.716 11.46 226.536 11.46C225.956 11.46 224.796 12.1 223.056 13.38C221.456 14.58 220.036 15.8 218.796 17.04C215.096 20.76 212.006 24.34 209.526 27.78C209.046 28.46 208.776 28.79 208.716 28.77C208.636 28.77 208.586 28.71 208.566 28.59C208.546 28.51 208.546 28.38 208.566 28.2C208.586 28.04 208.616 27.88 208.656 27.72C208.856 26.74 209.986 24.99 212.046 22.47C213.806 20.29 216.356 17.5 219.696 14.1C221.936 11.82 223.876 10.12 225.516 8.99999C225.796 8.83999 226.196 8.63999 226.716 8.39999C227.156 8.27999 227.496 8.23999 227.736 8.27999ZM240.117 10.98C237.537 13.36 235.517 15.44 234.057 17.22C233.177 18.3 232.737 18.97 232.737 19.23C232.737 19.33 232.787 19.4 232.887 19.44C233.267 19.62 234.187 19.13 235.647 17.97C235.687 17.93 236.657 17.1 238.557 15.48C238.737 15.36 238.867 15.34 238.947 15.42C239.047 15.52 239.017 15.63 238.857 15.75C238.157 16.43 237.197 17.25 235.977 18.21C234.477 19.39 233.437 19.97 232.857 19.95C232.137 19.91 231.777 19.58 231.777 18.96C231.777 18.5 231.967 17.95 232.347 17.31C232.087 17.57 231.737 17.87 231.297 18.21C229.797 19.37 228.717 19.95 228.057 19.95C227.377 19.95 227.037 19.66 227.037 19.08C227.037 18.08 227.787 16.79 229.287 15.21C230.787 13.63 232.307 12.4 233.847 11.52C234.367 11.22 234.987 11.1 235.707 11.16C232.847 13.5 230.727 15.52 229.347 17.22C228.487 18.28 228.057 18.94 228.057 19.2C228.057 19.32 228.107 19.4 228.207 19.44C228.627 19.64 229.587 19.14 231.087 17.94C231.787 17.38 232.737 16.48 233.937 15.24C235.837 13.26 237.357 11.94 238.497 11.28C238.917 11.02 239.457 10.92 240.117 10.98ZM241.841 15.36C241.781 16.18 241.961 16.64 242.381 16.74C242.801 16.94 243.761 16.44 245.261 15.24C247.181 13.26 248.711 11.94 249.851 11.28C250.271 11.02 250.811 10.92 251.471 10.98C248.891 13.36 246.871 15.44 245.411 17.22C244.531 18.3 244.091 18.97 244.091 19.23C244.091 19.33 244.141 19.4 244.241 19.44C244.621 19.62 245.541 19.13 247.001 17.97C247.041 17.93 248.011 17.1 249.911 15.48C250.091 15.36 250.221 15.34 250.301 15.42C250.401 15.52 250.371 15.63 250.211 15.75C249.511 16.43 248.551 17.25 247.331 18.21C245.831 19.39 244.791 19.97 244.211 19.95C243.491 19.91 243.131 19.58 243.131 18.96C243.211 18.02 243.741 17.07 244.721 16.11C243.761 16.85 242.931 17.23 242.231 17.25C241.551 17.25 241.201 16.96 241.181 16.38C240.361 17.14 239.261 18.39 237.881 20.13C237.721 20.13 237.611 19.97 237.551 19.65C237.511 19.35 237.531 19.12 237.611 18.96C238.351 17.54 239.641 15.87 241.481 13.95C242.541 12.85 243.461 12.04 244.241 11.52C244.721 11.2 245.421 11.04 246.341 11.04C244.961 12 243.461 13.44 241.841 15.36ZM262.394 11.16C259.734 13.54 257.704 15.57 256.304 17.25C255.464 18.25 255.044 18.9 255.044 19.2C255.044 19.32 255.094 19.4 255.194 19.44C255.554 19.62 256.524 19.09 258.104 17.85C258.764 17.33 259.714 16.52 260.954 15.42C261.114 15.26 261.234 15.25 261.314 15.39C261.374 15.51 261.324 15.64 261.164 15.78C260.164 16.66 259.234 17.45 258.374 18.15C256.894 19.35 255.824 19.95 255.164 19.95C254.444 19.95 254.084 19.62 254.084 18.96C254.084 18.52 254.284 18 254.684 17.4C252.664 19.1 251.224 19.95 250.364 19.95C249.684 19.95 249.344 19.62 249.344 18.96C249.344 17.76 250.124 16.36 251.684 14.76C252.704 13.72 253.904 12.81 255.284 12.03C256.684 11.25 257.814 10.86 258.674 10.86C259.314 10.86 259.634 11.08 259.634 11.52C259.634 11.94 259.324 12.45 258.704 13.05C259.964 12.01 260.804 11.42 261.224 11.28C261.564 11.16 261.954 11.12 262.394 11.16ZM258.854 11.31C257.894 11.31 255.964 12.7 253.064 15.48C251.224 17.24 250.304 18.48 250.304 19.2C250.304 19.34 250.364 19.44 250.484 19.5C250.764 19.62 251.474 19.27 252.614 18.45C253.774 17.61 254.974 16.56 256.214 15.3C258.214 13.24 259.214 12.02 259.214 11.64C259.214 11.42 259.094 11.31 258.854 11.31Z" fill="#281814"></path></svg> 