<?xml version="1.0" encoding="UTF-8"?> <svg xmlns="http://www.w3.org/2000/svg" width="55" height="44" viewBox="0 0 55 44" fill="none"><path fill-rule="evenodd" clip-rule="evenodd" d="M52.9449 0.0872184C52.7106 0.252649 52.0463 1.50905 51.8254 2.20477C51.4861 3.27366 51.3617 4.02951 51.296 5.4226C51.2678 6.01994 51.2231 6.54408 51.1965 6.58734C51.1483 6.66606 51.1342 6.76736 50.9498 8.36451C50.8055 9.61457 50.8344 12.5097 51.037 17.1181C51.0715 17.9031 51.1037 18.7309 51.1084 18.9576C51.1206 19.5443 51.2919 20.7854 51.3949 21.0338C51.4427 21.1494 51.5777 21.3508 51.6947 21.4813C51.9037 21.7145 51.9077 21.7301 51.9292 22.3838C51.9467 22.9159 51.9796 23.1072 52.0932 23.3397C52.1973 23.5526 52.2242 23.6867 52.1936 23.8408C52.1333 24.1452 52.2753 24.2371 52.6208 24.1172C52.9311 24.0094 54.0046 24.0236 54.0415 24.136C54.084 24.2656 53.6755 24.3494 52.9959 24.3503C52.6289 24.3509 52.2899 24.3761 52.2424 24.4064C52.0733 24.5143 52.2063 24.6236 52.5209 24.6352C52.9048 24.6495 53.1302 24.718 53.0773 24.8043C53.053 24.8437 52.9097 24.8543 52.7145 24.8309C52.3731 24.7901 52.2813 24.8208 52.2167 24.9977C52.1439 25.1967 52.329 25.2986 52.6861 25.2559C52.8978 25.2307 52.9957 25.2396 52.9698 25.2817C52.9481 25.3172 52.7825 25.3638 52.6019 25.3854C52.4212 25.407 52.2374 25.4609 52.1934 25.5054C52.0968 25.6031 52.0873 26.0077 52.143 27.6331C52.1667 28.3227 52.1526 29.6358 52.1106 30.6461C52.0696 31.6311 52.0098 33.6072 51.9776 35.0376C51.9454 36.468 51.8925 37.8239 51.86 38.0506C51.7498 38.8201 51.7117 39.9702 51.7872 40.2492C51.8547 40.4989 52.4495 41.4472 52.9745 42.142C53.1874 42.4238 53.2439 42.4613 53.4808 42.4788C53.7319 42.4972 53.7689 42.4767 54.1164 42.1265C54.6453 41.5934 54.8025 41.242 54.9126 40.3475C55.0546 39.1943 55.0251 37.6539 54.813 35.1328C54.3468 29.5943 54.3091 29.0073 54.3218 27.4892C54.3282 26.7323 54.3061 26.2215 54.2626 26.116C54.1541 25.8531 53.6799 25.7206 53.049 25.7769C52.6995 25.8081 52.549 25.8004 52.549 25.7515C52.549 25.6645 52.496 25.6706 53.4069 25.6511C53.8269 25.6421 54.2017 25.6153 54.2397 25.5915C54.2833 25.5644 54.296 25.4303 54.274 25.2307C54.2523 25.0345 54.2664 24.8795 54.3107 24.8256C54.3975 24.7202 54.3477 23.7899 54.2499 23.6914C54.1426 23.5832 54.1747 23.5309 54.4088 23.4323C54.6131 23.3463 54.6295 23.3204 54.6 23.1302C54.5823 23.0158 54.55 22.6725 54.5282 22.3674C54.4872 21.7915 54.4568 21.7206 54.2801 21.789C54.1877 21.8247 54.1802 21.9012 54.2185 22.4167L54.2622 23.0038L54.0192 23.0394C53.8856 23.059 53.4831 23.0835 53.1249 23.0938L52.4737 23.1124L52.4559 22.4333L52.4381 21.7542L52.7118 21.7128C53.2574 21.6303 53.1602 21.3677 52.549 21.2729C52.0426 21.1944 51.8818 21.0124 51.6974 20.3088C51.4646 19.4206 51.3359 15.9216 51.3002 9.50629C51.295 8.57948 51.3855 7.39959 51.5117 6.747C51.5657 6.4679 51.6373 5.8542 51.6709 5.38321C51.7983 3.59596 52.0102 2.72434 52.6578 1.32357C52.795 1.02703 52.9402 0.703653 52.9807 0.604953C53.0782 0.367337 53.1975 0.419094 53.2597 0.726168C53.2875 0.862864 53.3257 1.04974 53.3447 1.14152C53.376 1.293 53.3642 1.30543 53.2159 1.27682C53.0576 1.24631 53.0525 1.25526 53.0525 1.5629C53.0525 2.23414 53.2491 5.10728 53.3076 5.29219C53.3884 5.54731 53.4845 6.20707 53.5611 7.03244C53.6444 7.93127 53.5875 15.1783 53.495 15.44C53.4173 15.6599 53.4475 19.5335 53.5348 20.5564C53.5893 21.1929 53.6487 21.3327 53.8482 21.2936C53.9591 21.2718 53.9641 21.1844 53.9459 19.5592C53.934 18.4958 53.9488 17.8836 53.9849 17.9427C54.0168 17.9951 54.0616 18.4232 54.0845 18.8942C54.122 19.6645 54.1859 20.3902 54.2845 21.1619C54.3215 21.4518 54.4686 21.5351 54.5084 21.2888C54.5211 21.2103 54.5148 19.0766 54.4944 16.5472C54.4611 12.4245 54.4693 11.8007 54.5733 10.5212C54.7326 8.56128 54.7851 6.42197 54.6973 5.46992C54.5591 3.97185 53.9484 0.951862 53.6759 0.419098C53.4702 0.0171297 53.211 -0.100603 52.9449 0.0872184ZM25.613 1.7421C23.3952 1.92903 21.4475 2.65146 20.2636 3.72631C20.0586 3.91236 19.8585 4.01911 19.5398 4.11242C17.4928 4.7116 16.3721 5.35702 15.7365 6.30298C15.4356 6.75074 15.1294 7.46746 15.0149 7.99185C14.9825 8.14066 14.9434 8.16153 14.6474 8.18792C14.4653 8.20422 14.1888 8.27939 14.033 8.35506C13.7919 8.47222 12.8402 9.14225 12.4282 9.48504C11.1544 10.5447 10.4811 11.3254 9.66028 12.6941C9.16524 13.5196 9.13289 13.5961 9.05982 14.115C8.98846 14.6219 8.99494 14.8946 9.09916 15.7586C9.13748 16.0762 9.13415 16.0842 8.80796 16.4563C8.15728 17.1984 8.08654 17.4794 8.01454 19.6078C7.98094 20.6029 7.98704 20.6865 8.11083 20.926C8.28585 21.2645 8.27673 21.4023 8.05426 21.7804C7.84733 22.132 7.83059 22.2451 7.94022 22.5506C8.00359 22.7273 7.99881 22.7769 7.90875 22.8773C7.75399 23.0496 7.77778 23.1812 7.99132 23.3344C8.30876 23.5623 8.19044 23.8669 7.78892 23.8554C7.45801 23.8459 7.36197 23.9366 7.36197 24.2585C7.36197 24.4154 7.40521 24.6481 7.45808 24.7756C7.5409 24.9752 7.54184 25.0198 7.46531 25.097C7.38872 25.1742 7.35574 25.1264 7.22761 24.7521C7.0996 24.3784 7.07933 24.2023 7.08298 23.493C7.08689 22.7357 7.10356 22.6212 7.28752 22.09C7.52265 21.4111 7.52655 21.3513 7.36462 20.9106C7.20772 20.4836 7.09073 19.3211 7.14252 18.7039C7.18853 18.1562 7.31761 17.6452 7.50251 17.2786C7.69087 16.9051 8.38309 15.9827 8.50524 15.9424C8.669 15.8883 8.74905 15.5784 8.67183 15.2974C8.57296 14.9374 8.64534 13.9288 8.81438 13.3122C9.07228 12.3711 9.90252 10.8916 10.6417 10.0557C11.2211 9.40055 12.4482 8.4164 13.2464 7.96679C13.5832 7.77701 14.4134 7.37003 14.6467 7.28034C14.7246 7.2504 14.7883 7.1784 14.7883 7.12036C14.7883 6.94795 14.1403 7.03948 13.6711 7.27818C12.4131 7.91827 10.7925 9.22173 10.0729 10.1723C9.96728 10.3119 9.85815 10.4546 9.83039 10.4895C9.44152 10.9784 8.37308 12.6856 8.24004 13.0306C8.13085 13.3138 8.00838 14.2289 8.06143 14.3652C8.08723 14.4315 8.11033 14.7305 8.11278 15.0297C8.11687 15.534 8.10548 15.5847 7.95627 15.726C7.80252 15.8716 7.6684 16.0888 7.25322 16.8644C6.92181 17.4837 6.7325 18.1969 6.69065 18.9841C6.65339 19.6856 6.74641 20.331 6.99853 21.1203L7.13214 21.5387L6.90324 22.1811C6.596 23.0433 6.49115 23.9897 6.63772 24.5786C6.77882 25.1457 6.89374 25.3965 7.08003 25.5442C7.24171 25.6724 7.24177 25.6729 7.15083 26.0417C6.93849 26.9034 6.90545 27.2393 6.98544 27.723C7.16694 28.8206 7.67816 29.7764 8.30574 30.1914C8.44873 30.286 8.45798 30.3252 8.44174 30.7651C8.40977 31.6301 8.81369 33.0885 9.38784 34.1813C10.2224 35.7698 11.1746 36.9745 12.2079 37.7495C12.6583 38.0872 13.5009 38.5581 13.6548 38.5581C13.7478 38.5581 13.8352 38.6495 14.0793 39.0021C14.4077 39.4766 15.3255 40.3731 15.8363 40.7183C15.9108 40.7687 16.1657 40.9416 16.4027 41.1025C17.6293 41.9352 18.7059 42.4155 19.4707 42.4712C20.2408 42.5273 21.3804 42.3439 21.8951 42.081C22.2774 41.8857 22.3495 41.882 22.4548 42.0518C22.5185 42.1548 22.5199 42.2038 22.4609 42.2754C22.4194 42.3258 22.3965 42.3773 22.4101 42.3898C22.4753 42.4497 23.0386 42.6721 23.3474 42.7598C24.1466 42.9869 24.3889 43.0179 24.8038 42.9459C25.0239 42.9077 25.4348 42.8631 25.7169 42.8468C26.0709 42.8262 26.3119 42.7749 26.4945 42.6809C26.754 42.5475 26.7618 42.5472 26.8941 42.664C27.2911 43.0147 28.3332 43.3363 29.0744 43.3369C30.0212 43.3376 32.3863 42.8095 33.354 42.3813C34.9825 41.6606 35.1521 41.5631 35.617 41.0803L36.0519 40.6288L36.2993 40.7035C36.6225 40.8011 36.7266 40.7979 37.126 40.6784C37.5844 40.5412 37.97 40.1773 37.968 39.8836C37.9673 39.7651 37.945 39.6039 37.9186 39.5254C37.853 39.3306 37.9747 39.3402 38.1788 39.5459C38.3111 39.6793 38.3342 39.7496 38.3052 39.9299C38.1966 40.6041 39.0916 39.9235 39.6878 38.8785C39.9733 38.3781 39.9933 38.314 39.99 37.9125C39.9858 37.3993 39.862 37.2219 39.421 37.0975C38.9775 36.9723 39.0089 36.8893 39.5215 36.8315C39.9547 36.7826 39.497 36.1457 39.0316 36.1497C38.903 36.1508 38.7443 36.1925 38.679 36.2424C38.3529 36.4912 38.1754 35.9217 38.4926 35.6438C38.9057 35.2818 39.709 35.6151 40.1298 36.3231C40.3068 36.6211 40.3082 36.6314 40.3056 37.6701C40.3034 38.5935 40.2877 38.7503 40.172 39.0021C39.9382 39.5112 39.2427 40.1566 38.5398 40.5166C37.9051 40.8416 36.7991 41.129 36.493 41.0483C36.2777 40.9915 36.0683 41.0945 35.7003 41.4378C35.281 41.8292 34.9954 42.0126 33.9833 42.5407C33.1225 42.9899 32.5341 43.231 32.0813 43.3199C31.0737 43.5178 29.4011 43.6472 28.8227 43.5721C28.7361 43.5608 28.4529 43.5257 28.1933 43.494C27.9337 43.4623 27.5816 43.3909 27.4109 43.3353C27.1375 43.2462 27.0163 43.2439 26.3975 43.3157C25.4993 43.42 24.0718 43.37 23.6306 43.2189C23.4575 43.1596 22.9307 42.9572 22.4599 42.7693C21.989 42.5813 21.5713 42.4274 21.5316 42.4274C21.1729 42.4274 22.3684 43.2254 23.2613 43.582C23.7111 43.7617 23.8367 43.7824 24.6334 43.8089C25.4966 43.8375 26.5872 43.7374 26.6573 43.6231C26.7096 43.5379 27.1755 43.5604 27.3626 43.6573C27.5651 43.7622 28.5404 43.9392 29.2003 43.9907C29.533 44.0167 29.9044 43.9889 30.459 43.8963C30.8916 43.8241 31.3873 43.7483 31.5603 43.7279C32.2481 43.6469 32.9399 43.4228 33.8418 42.9888C34.2658 42.7847 34.6387 42.6177 34.6704 42.6177C34.7021 42.6177 34.7374 42.5963 34.749 42.5702C34.7605 42.544 34.9682 42.4233 35.2105 42.3018C35.4671 42.1732 35.7876 41.9424 35.9779 41.749C36.3041 41.4177 36.3058 41.4169 36.859 41.3476C38.3011 41.1671 39.9031 40.2371 40.3764 39.3057C40.5406 38.9824 40.6468 38.9005 40.9761 38.8428C41.6306 38.7281 42.2793 38.2192 42.7862 37.4228C43.2078 36.7604 43.3033 36.5125 43.3511 35.9577L43.392 35.4822L43.8507 35.2327C44.6232 34.8125 45.673 33.5972 46.2111 32.5004C46.3651 32.1864 46.5125 31.8581 46.5386 31.7709C46.5647 31.6837 46.7407 31.284 46.9296 30.8828C47.1185 30.4816 47.3513 29.9107 47.447 29.6142C47.603 29.1308 47.6924 28.7105 48.0582 26.7411C48.1349 26.3282 48.1528 25.9859 48.1271 25.4235C48.099 24.8072 48.1098 24.6462 48.1844 24.571C48.3195 24.4349 48.6103 23.7455 48.7357 23.2645C48.829 22.9063 48.8352 22.7593 48.7785 22.2496C48.6936 21.4865 48.5711 21.0201 48.3286 20.5358C48.1156 20.1106 48.0728 19.6515 48.2077 19.2395C48.2603 19.0789 48.2627 18.9321 48.2163 18.7173C48.1808 18.5529 48.1366 18.3043 48.118 18.1647C48.0198 17.4284 47.4841 16.2508 46.9249 15.5423L46.5073 15.0133L46.5066 14.5591C46.5056 13.8691 46.2391 13.1051 45.6089 11.9861C44.2938 9.65078 42.6161 7.74574 41.1893 6.96762C40.9124 6.81665 40.564 6.62673 40.415 6.5456C40.2661 6.46447 40.0477 6.39812 39.9297 6.39812C39.6894 6.39812 39.4937 6.23035 39.4284 5.96844C39.356 5.67728 38.9524 5.13767 38.5875 4.84379C38.1623 4.50138 37.3692 4.09618 36.8468 3.95441C36.6391 3.89808 36.2383 3.83585 35.9561 3.81613L35.4431 3.78029L35.2495 3.50354C34.8913 2.99139 34.159 2.63224 33.0393 2.41968C32.144 2.24974 31.4427 2.24486 30.8974 2.40489C30.1614 2.62088 30.1235 2.62208 29.8487 2.43883C29.5469 2.23756 28.8403 2.0002 28.1619 1.87219C27.6517 1.77597 26.1318 1.69839 25.613 1.7421ZM53.4739 2.06465C53.4565 2.09319 53.4959 2.58745 53.5616 3.1631C53.6273 3.73874 53.7127 4.60934 53.7516 5.09777C53.7903 5.5862 53.8478 6.14281 53.8791 6.33469C53.9105 6.52657 53.9633 7.05255 53.9964 7.50355C54.0295 7.95455 54.0823 8.34948 54.1137 8.38113C54.2169 8.48516 54.3312 7.3633 54.2899 6.65191C54.2476 5.92473 54.0979 4.69326 53.9968 4.24144C53.9412 3.99323 53.8039 3.31698 53.6113 2.34368C53.5514 2.04111 53.5233 1.98402 53.4739 2.06465ZM24.4802 2.30848C23.145 2.52687 21.7626 3.1029 20.7548 3.86079C20.309 4.19596 20.0639 4.33221 19.7286 4.43136C19.0046 4.6455 17.8642 5.07709 17.4944 5.2769C16.1948 5.97915 15.4176 7.1352 15.4176 8.36591C15.4176 9.14961 15.9833 9.9597 16.3977 9.7694C16.6016 9.67578 16.5901 9.60169 16.3568 9.50426C16.0205 9.36388 15.9798 9.23543 16.0551 8.55367C16.1475 7.71776 16.268 7.16064 16.4344 6.80041C16.6314 6.37421 17.1728 5.85045 17.827 5.45369C18.5957 4.9874 18.9427 4.87576 19.6233 4.87576C20.2474 4.87576 20.2081 4.89415 21.0031 4.22818C21.6882 3.65425 22.5638 3.29415 24.0711 2.96633C24.8765 2.7912 25.5892 2.75485 26.4941 2.84277C27.8847 2.97788 29.4842 3.33956 29.6119 3.54781C29.6635 3.63211 29.9882 3.61752 30.4275 3.51121C31.0755 3.35434 31.9863 3.32694 32.7439 3.44144C33.4099 3.54204 33.6465 3.6238 34.0026 3.87626C34.1472 3.97877 34.2385 3.99399 34.5066 3.96018C35.2599 3.86535 35.1026 3.65032 34.022 3.29763C32.6782 2.85907 31.5304 2.74349 30.5498 2.94787C30.1006 3.0415 30.0435 3.0415 29.8486 2.94787C29.732 2.8918 29.6077 2.84594 29.5723 2.84594C29.537 2.84594 29.3868 2.79024 29.2385 2.72218C28.2841 2.28393 25.8983 2.07651 24.4802 2.30848ZM1.58949 2.4812C1.55601 2.52484 1.50799 2.61758 1.48275 2.68736C1.45752 2.75713 1.43952 4.58518 1.44273 6.74966C1.44745 9.91904 1.4319 10.7336 1.36286 10.9347C1.28545 11.16 1.27079 11.1721 1.21283 11.059C1.17746 10.99 1.11616 10.2199 1.07657 9.34771C1.03705 8.47552 0.975185 7.2046 0.939186 6.52347C0.89079 5.60871 0.892866 5.1279 0.947116 4.68394C1.0334 3.97832 0.984813 2.92472 0.860266 2.79919C0.750067 2.68812 0.571837 2.76081 0.534076 2.9322C0.479197 3.18143 0.259493 5.27589 0.183782 6.27126C0.129721 6.9822 0.12689 7.48167 0.173524 8.07488C0.226201 8.74593 0.216445 9.1734 0.119715 10.4219C0.0546402 11.2614 0.000768619 12.1232 1.34044e-05 12.3369C-0.00168583 12.8124 0.15823 13.3224 0.445086 13.7562C0.508587 13.8523 0.560319 14.0898 0.576242 14.3588C0.608024 14.8952 0.717782 15.138 1.1351 15.5957C1.57552 16.0787 1.6477 16.2419 1.71076 16.8961C1.74097 17.2101 1.78371 17.5669 1.80573 17.689C1.87855 18.0934 1.84947 19.9948 1.76162 20.5752C1.699 20.9887 1.63493 21.1955 1.5292 21.3254C1.37123 21.5193 1.34637 21.6876 1.44738 21.8779C1.57281 22.114 1.54518 22.5343 1.3898 22.7542C1.30609 22.8727 1.25789 23.0126 1.27633 23.0836C1.29395 23.1516 1.25436 23.3502 1.18841 23.5252C1.03415 23.9344 1.03736 24.1835 1.20584 24.8759C1.29439 25.2398 1.32233 25.4687 1.28451 25.5202C0.988779 25.9232 0.99161 25.9143 1.09589 26.1175C1.20974 26.3393 1.22044 26.9696 1.13202 28.2504C1.10074 28.704 1.05845 29.3177 1.03806 29.6142C1.0176 29.9107 0.972226 30.2961 0.937172 30.4705C0.902117 30.645 0.849127 31.016 0.819422 31.2951C0.78978 31.5742 0.718097 32.1309 0.66026 32.5321C0.523503 33.4801 0.563907 33.9115 0.927606 35.3865C1.0991 36.082 1.06581 36.5455 0.804695 37.0992C0.68128 37.3608 0.532314 37.7176 0.473659 37.8921C0.320413 38.3476 0.124498 39.3492 0.124498 39.6767C0.124498 40.4574 0.885125 41.642 1.78956 42.2698C2.48933 42.7556 2.90501 42.68 3.57828 41.9446C4.35622 41.0949 4.68965 40.3983 4.68323 39.6364C4.67989 39.2416 4.62696 39.0043 4.37195 38.2409L4.06477 37.3212L4.06131 36.3063C4.05885 35.5629 4.08969 35.1242 4.1766 34.6666C4.30744 33.9778 4.28995 33.2669 4.1311 32.8175C4.08176 32.678 4.00788 32.2641 3.96684 31.8977C3.92575 31.5314 3.86243 30.9891 3.82606 30.6925C3.73619 29.9593 3.64928 28.6494 3.60887 27.4182L3.57533 26.3957L3.76942 26.1729C3.98988 25.9199 4.01599 25.6954 3.85671 25.4236C3.76256 25.263 3.75954 25.2034 3.83122 24.9216C3.8759 24.7458 3.91687 24.3936 3.92229 24.1391C3.93103 23.7224 3.91524 23.656 3.76388 23.4746C3.55922 23.2293 3.33416 22.6447 3.33416 22.3584C3.33416 22.2427 3.36557 22.0573 3.40402 21.9462C3.45569 21.7968 3.45487 21.6682 3.40087 21.452C3.23246 20.7779 3.06965 19.1843 3.03761 17.8966C2.99765 16.2903 3.01351 16.2195 3.62756 15.2627C3.96747 14.733 4.0513 14.5503 4.08522 14.2646C4.1126 14.0348 4.2092 13.7668 4.36711 13.4833C4.52451 13.2006 4.62721 12.9163 4.66498 12.6587C4.76378 11.9843 4.79915 10.5086 4.72766 10.0414C4.69065 9.79941 4.64282 9.33026 4.62136 8.99883C4.59996 8.6674 4.55805 8.3106 4.52822 8.20593C4.45748 7.95728 4.41626 7.22572 4.34181 4.89898C4.28221 3.03642 4.22487 2.55713 4.07937 2.70378C4.0418 2.74165 3.97207 2.75751 3.92436 2.73905C3.81756 2.69776 3.81586 2.71806 3.79214 4.30487C3.75211 6.98512 3.7567 9.00587 3.8046 9.81368C3.85526 10.6672 3.77401 11.3773 3.63121 11.3293C3.52171 11.2925 3.40918 10.8137 3.33687 10.0772C3.1728 8.40454 3.13491 7.5045 3.12465 5.03434L3.11389 2.43363L2.94504 2.41397C2.58417 2.37197 2.57039 2.54787 2.56516 7.25591C2.5617 10.4336 2.54528 11.1681 2.47655 11.2256C2.35477 11.3275 2.26427 11.0491 2.26427 10.5728C2.26427 10.3615 2.22274 9.71397 2.17201 9.13388C2.03192 7.53318 1.9496 5.66022 1.9496 4.07519C1.9496 3.21219 1.9238 2.59874 1.88446 2.52459C1.81001 2.38441 1.6786 2.36506 1.58949 2.4812ZM3.93972 2.89681C3.9226 2.92478 3.93135 3.14597 3.95923 3.38841L4.00989 3.82913L4.0182 3.33753C4.02606 2.86991 4.01033 2.78168 3.93972 2.89681ZM1.63159 3.14724C1.61177 3.42754 1.64449 6.74605 1.66728 6.76901C1.68408 6.78601 1.69786 5.96729 1.69786 4.94978C1.69786 3.93221 1.6837 3.09966 1.6664 3.09966C1.64909 3.09966 1.63342 3.12104 1.63159 3.14724ZM24.9837 3.39887C24.8279 3.41023 24.4314 3.46243 24.1026 3.51489C22.3958 3.78739 21.9286 3.96545 20.8838 4.74185C20.55 4.98993 20.2145 5.19292 20.1383 5.19292C19.8113 5.19292 18.7915 5.54331 18.1867 5.86346C17.7519 6.09365 17.0539 6.67792 17.0539 6.81164C17.0539 6.86663 17.197 6.89898 17.5102 6.91497C17.8996 6.93482 18.0024 6.9659 18.2116 7.1267C18.4548 7.31383 18.8161 7.97783 18.8161 8.2379C18.8161 8.38012 18.4719 8.68167 18.3097 8.68167C18.1952 8.68167 17.8052 8.48865 17.6309 8.34567C17.5848 8.30787 17.4399 8.28326 17.309 8.29106C17.0526 8.30628 16.9149 8.17453 16.8297 7.83194C16.807 7.7411 16.7678 7.66676 16.7425 7.66676C16.672 7.66676 16.5504 7.97073 16.5504 8.14707C16.5504 8.23353 16.4984 8.45338 16.4349 8.63569C16.3714 8.81799 16.3313 9.00283 16.3458 9.04641C16.3615 9.09373 16.4832 9.1257 16.6476 9.1257C16.85 9.1257 16.9572 9.16255 17.0514 9.26455C17.2049 9.43049 17.2071 9.45928 17.0854 9.69646C16.9657 9.92988 16.6273 10.1917 16.3814 10.2413C16.1849 10.2809 15.838 10.1358 15.5681 9.90128C15.3352 9.69887 15.0817 9.23074 15.0307 8.90901C14.9562 8.43822 14.9119 8.4242 14.3921 8.70717C13.2955 9.30426 11.9941 10.3307 11.2479 11.1872C10.5039 12.0412 9.56468 13.6042 9.56468 13.9886C9.56468 14.066 9.53636 14.147 9.50175 14.1685C9.41635 14.2218 9.42163 15.3368 9.50848 15.5879C9.61516 15.8964 9.52856 16.1763 9.17927 16.6518C9.00369 16.8908 8.79506 17.215 8.71557 17.3724C8.46182 17.8745 8.32349 18.9564 8.35716 20.1766C8.36842 20.5849 8.38076 20.616 8.65213 20.924C8.8079 21.1008 8.93534 21.2898 8.93534 21.3439C8.93534 21.3981 8.76095 21.6255 8.54785 21.8492C8.17641 22.239 8.16489 22.2609 8.26842 22.3762C8.40442 22.5277 8.69115 23.2974 8.71557 23.5766C8.7257 23.6923 8.74748 23.8005 8.76397 23.8172C8.78039 23.8338 8.9461 23.7891 9.13207 23.7178C9.95047 23.4043 10.8437 23.7092 11.2075 24.4261C11.4198 24.8447 11.3158 25.4854 10.9991 25.7089C10.8229 25.8333 10.3911 25.8345 10.2292 25.7111C10.0704 25.5901 9.91542 25.5929 9.81189 25.7187C9.72857 25.8198 9.45977 25.8177 9.14183 25.7135C8.94572 25.6491 8.56824 26.017 8.68492 26.1587C8.78341 26.2784 9.00261 26.2786 9.15932 26.1592C9.34221 26.0198 9.52491 26.0428 9.69534 26.2267C9.85506 26.3991 9.95985 26.4046 10.6982 26.2794C10.8688 26.2505 10.9596 26.274 11.0963 26.3823C11.4494 26.6623 11.4516 27.034 11.1027 27.445C10.8446 27.7489 10.3578 27.9229 9.72303 27.9384L9.28343 27.9491L9.24214 28.1524C9.21949 28.2643 9.12697 28.4335 9.03666 28.5286C8.94629 28.6236 8.8724 28.7508 8.8724 28.8112C8.8724 28.9562 9.03024 29.2075 9.3171 29.5191C9.52529 29.7452 9.58545 29.8968 9.8708 30.9146C10.4657 33.036 10.7176 33.7007 11.2532 34.5619C11.5097 34.9746 12.3001 35.809 12.9679 36.3724C13.4365 36.7676 14.4102 37.4163 14.5349 37.4163C14.5698 37.4163 14.6337 37.4734 14.677 37.5432C14.7202 37.613 14.786 37.6701 14.8231 37.6701C14.9156 37.6701 15.1515 37.9388 15.5004 38.4415C16.1418 39.3658 17.3971 40.4375 18.1157 40.6744C18.2889 40.7315 18.6377 40.7811 18.8908 40.7846C19.5529 40.7936 19.6593 40.8347 19.6972 41.0958C19.7397 41.3892 19.9911 41.5425 20.2238 41.417C20.4388 41.301 20.4682 41.1929 20.3573 40.9255C20.2386 40.6392 20.2388 40.4951 20.358 40.375C20.4721 40.2599 20.4763 40.1808 20.3767 40.0201C20.3162 39.9225 20.3226 39.8292 20.4082 39.5555C20.5507 39.0997 20.5456 39.0656 20.3342 39.0656C20.0415 39.0656 19.9836 39.2027 19.9489 39.9788C19.9206 40.6128 19.9057 40.6831 19.7999 40.6831C19.5384 40.6831 19.2966 39.5288 19.461 39.0656C19.519 38.9021 19.6139 38.8059 19.8206 38.7008C20.2315 38.492 20.482 38.5119 20.7419 38.7738C20.9808 39.0146 21.0078 39.195 20.8663 39.6047C20.7932 39.8161 20.7924 39.8917 20.8613 40.0579C20.9067 40.1677 20.9236 40.2819 20.8989 40.3117C20.8092 40.4197 20.7099 40.7109 20.7537 40.7374C20.7783 40.7524 20.9383 40.6963 21.1092 40.6128C21.28 40.5294 21.4712 40.4611 21.534 40.4611C21.6085 40.4611 21.6481 40.4141 21.6481 40.3257C21.6481 40.0905 21.7905 39.6736 21.9215 39.5254C22.1115 39.3105 22.518 39.3266 22.7258 39.5572C22.9434 39.7985 23.0327 40.0365 23.0327 40.375C23.0327 40.6888 22.8714 41.3245 22.7768 41.3834C22.7444 41.4035 22.718 41.4754 22.718 41.5431C22.718 41.6418 22.7623 41.6663 22.9411 41.6663C23.0947 41.6663 23.2129 41.7153 23.3202 41.8234C23.4691 41.9735 23.472 41.9905 23.3837 42.2036C23.2968 42.4132 23.2989 42.4308 23.4196 42.4959C23.6245 42.6064 24.6508 42.6394 25.2039 42.5534C26.0857 42.4162 26.3327 42.3738 26.5025 42.3307C26.5993 42.3061 26.6859 42.3175 26.7107 42.3581C26.7341 42.3962 26.8349 42.4274 26.9346 42.4274C27.0344 42.4274 27.1322 42.4538 27.1519 42.486C27.1716 42.5182 27.2786 42.5647 27.3896 42.5892C27.5005 42.6137 27.6347 42.6573 27.6878 42.686C28.0102 42.8603 29.379 42.9825 29.8611 42.8802C30.0342 42.8434 30.4723 42.7956 30.8348 42.774C31.1973 42.7523 31.5183 42.7194 31.5482 42.7008C31.5781 42.6823 31.7629 42.6299 31.959 42.5844C32.6131 42.433 32.7528 42.3852 33.291 42.1292C33.9362 41.8224 34.5954 41.3989 35.2371 40.879C35.8638 40.3714 35.9817 40.3226 36.4602 40.3719C36.7833 40.4054 36.8984 40.3887 37.1408 40.2739C37.3013 40.1979 37.4842 40.0782 37.5472 40.0081C37.6562 39.8866 37.6565 39.8713 37.5532 39.6899C37.413 39.4436 37.4147 39.4284 37.6076 39.1973C37.8584 38.8969 38.0614 38.9304 38.4193 39.3316C38.6578 39.599 38.7332 39.6491 38.8184 39.5967C38.9237 39.5322 39.39 38.7129 39.3937 38.5858C39.3948 38.5487 39.2935 38.4779 39.1687 38.4286C38.9014 38.3228 38.7034 38.0925 38.7034 37.8872C38.7034 37.6969 38.5903 37.63 38.4714 37.7498C38.388 37.8339 38.3884 37.866 38.4748 38.0343C38.5558 38.1922 38.5583 38.2432 38.4899 38.3375C38.4111 38.4461 38.3975 38.4458 38.1639 38.33C37.8645 38.1816 37.6763 37.8684 37.634 37.448C37.6056 37.1667 37.5842 37.1288 37.4438 37.1122C37.2146 37.0853 37.0042 37.3072 37.0042 37.5759C37.0042 37.7629 37.0507 37.831 37.3302 38.0537C37.5095 38.1966 37.7593 38.3665 37.8851 38.4312C38.3689 38.68 38.3388 38.8886 37.8386 38.7528C37.313 38.6102 36.6892 37.9741 36.6897 37.5812C36.6901 37.2751 36.9059 36.9809 37.2392 36.8323C37.5019 36.7152 37.551 36.7107 37.6927 36.7909C37.8238 36.865 37.8637 36.9557 37.9213 37.3097C38.0122 37.868 38.0747 37.9247 38.2673 37.6237C38.5537 37.1764 38.9898 37.3039 39.0633 37.8564C39.0906 38.0618 39.1288 38.1238 39.2466 38.1535C39.5189 38.2224 39.5933 38.1447 39.5722 37.8134C39.5534 37.5169 39.5468 37.5083 39.207 37.3349C38.7093 37.0809 38.659 37.0184 38.7896 36.8175C38.8476 36.7282 38.9228 36.6551 38.9566 36.6551C38.9904 36.6551 39.0181 36.61 39.0181 36.555C39.0181 36.4787 38.9767 36.4639 38.845 36.4929C38.7498 36.514 38.566 36.5351 38.4364 36.54C38.0029 36.5562 37.7818 36.1646 37.9831 35.7371C38.141 35.4018 38.394 35.2493 38.8497 35.215C39.2106 35.1878 39.2653 35.2023 39.616 35.4173C40.1537 35.7469 40.3187 35.9262 40.5805 36.4648L40.8117 36.9406L40.8305 36.6483C40.8554 36.2621 41.024 36.1531 41.3706 36.299C41.5862 36.3898 41.607 36.389 41.6445 36.2883C41.7015 36.1349 41.8482 36.0362 42.0866 35.9906C42.3874 35.9332 42.5048 35.7153 42.4617 35.2944C42.4213 34.9 42.4547 34.8418 42.8571 34.6071C43.1833 34.4168 43.8239 33.7558 44.2568 33.1628C44.4209 32.938 44.7551 32.4972 44.9994 32.1832C45.8006 31.1537 46.2954 29.8899 46.5517 28.2187C46.6879 27.33 46.7111 26.9742 46.7052 25.8602L46.6982 24.5484L46.8882 24.3696C47.1765 24.0982 47.4354 23.6576 47.6092 23.1424C47.6954 22.8869 47.766 22.6714 47.766 22.6635C47.766 22.6555 47.5684 22.5885 47.3269 22.5146C46.8346 22.3639 46.7245 22.2392 46.7871 21.903L46.8267 21.6902L46.5569 21.8093C46.1861 21.973 45.5493 22.0896 45.2989 22.0397C45.0336 21.9869 44.7649 21.7485 44.6451 21.4595C44.5676 21.2725 44.5647 21.1949 44.6288 21.0164C44.7167 20.7713 45.0166 20.5908 45.2385 20.6492C45.3153 20.6695 45.5064 20.6367 45.6632 20.5764C45.861 20.5002 46.0307 20.4792 46.218 20.5075C46.5055 20.5509 46.581 20.5058 46.661 20.2426C46.7265 20.0274 46.4785 19.9328 46.1003 20.0288C45.7693 20.1129 45.5633 20.0431 45.5633 19.8472C45.5633 19.5569 45.2261 19.6253 45.1242 19.9362C45.0006 20.3138 44.7071 20.4768 44.5003 20.2826C44.3225 20.1157 44.3202 19.6267 44.4954 19.2582C44.7729 18.6746 44.9558 18.5627 45.6244 18.5671C46.1649 18.5706 46.3892 18.6481 46.9592 19.0279C47.1213 19.1359 47.2842 19.2054 47.3211 19.1823C47.4069 19.1289 47.4065 18.8674 47.3201 18.5537L47.2525 18.3083L46.9422 18.3498C46.6662 18.3867 46.6147 18.3738 46.4752 18.2333C46.2757 18.0323 46.2783 17.9933 46.5073 17.7304C46.6434 17.5743 46.6961 17.449 46.6961 17.2821C46.6961 17.0112 46.4469 16.4839 46.1868 16.2042C46.0865 16.0963 46.0042 15.9905 46.0041 15.9691C46.0039 15.9477 45.8931 15.8528 45.7578 15.7583C45.4773 15.5624 45.447 15.4988 45.1901 14.5641C44.8345 13.27 44.3437 12.2285 43.4345 10.8384C43.0361 10.2292 43.0515 10.251 42.8063 9.95031C42.7067 9.8282 42.5996 9.68092 42.5681 9.623C42.4437 9.3937 41.6832 8.59192 41.3823 8.37276C40.7263 7.89505 39.4161 7.15931 39.2213 7.15931C39.0964 7.15931 38.7621 6.82863 38.6369 6.58138C38.4695 6.25058 38.2568 6.12517 37.7783 6.07525C37.4929 6.0455 37.3496 5.99863 37.2863 5.91439C37.1685 5.75772 37.1691 5.48217 37.2874 5.38321C37.4407 5.25495 37.3964 5.12917 37.1635 5.0311C36.902 4.92098 36.4286 4.91033 36.3274 5.01233C36.2726 5.06758 36.2732 5.11807 36.3298 5.21848C36.4459 5.42445 36.4209 6.56857 36.2942 6.85033C35.9863 7.53495 35.1056 8.01881 34.6241 7.76787C34.347 7.62344 34.235 7.42788 34.235 7.08833C34.235 6.82838 34.2624 6.76761 34.4575 6.59502C34.5799 6.48674 34.7101 6.39812 34.747 6.39812C34.862 6.39812 35.242 6.19628 35.242 6.1352C35.242 6.10316 35.1924 6.05927 35.1319 6.03764C35.0713 6.01595 34.9721 5.9553 34.9114 5.90278C34.807 5.81233 34.8095 5.79279 34.9586 5.53634C35.1459 5.21436 35.1587 5.06605 34.9994 5.06605C34.7952 5.06605 34.5497 5.35334 34.5497 5.59235C34.5497 5.72562 34.5027 5.85045 34.4262 5.92023C34.3076 6.02838 34.2937 6.02755 34.0764 5.89834C33.952 5.82432 33.8377 5.7638 33.8224 5.7638C33.807 5.7638 33.7945 5.943 33.7945 6.16197C33.7945 6.82026 33.5226 7.0299 32.9997 6.77478C32.606 6.58265 32.4515 6.26371 32.4457 5.63155C32.4415 5.16659 32.4494 5.14052 32.6779 4.85908C32.8322 4.66897 33.0447 4.5057 33.2898 4.38879C33.4963 4.29028 33.658 4.1853 33.6491 4.15549C33.6401 4.12568 33.5205 4.05666 33.3832 4.00211C33.0629 3.87487 30.7964 3.86814 30.1752 3.9926C29.7986 4.06802 29.7472 4.06415 29.4689 3.9395C29.0961 3.77249 28.3627 3.63458 27.2178 3.51635C26.2077 3.41194 25.3925 3.36912 24.9837 3.39887ZM2.7967 6.62014C2.81438 8.08541 2.84636 9.66962 2.86763 10.1406C2.9113 11.1069 2.86574 11.3772 2.62885 11.5555C2.39518 11.7314 2.17063 11.6592 2.02223 11.3607C1.88711 11.0889 1.83481 10.7241 1.78358 9.69658C1.72958 8.61272 1.63317 8.33825 1.66105 9.34771C1.68553 10.2338 1.60245 11.2641 1.49616 11.3933C1.39615 11.5146 1.08356 11.4878 0.942647 11.3458C0.834715 11.237 0.816778 11.1344 0.816778 10.625C0.816778 10.2984 0.788583 9.88111 0.754095 9.69779C0.712055 9.47463 0.712621 9.17524 0.755732 8.79179C0.799031 8.40663 0.799598 8.00911 0.757431 7.57815C0.670015 6.68458 0.6298 5.05368 0.688644 4.7907C0.715643 4.67011 0.717279 4.53817 0.692294 4.49745C0.667309 4.45666 0.612619 4.58898 0.570516 4.79235C0.514126 5.06447 0.499274 6.1593 0.513811 8.96712L0.533573 12.773L0.70979 13.1536C0.814387 13.3796 0.992869 13.6274 1.1492 13.7637C1.37929 13.9643 1.40169 14.0062 1.32718 14.0967C1.28029 14.1536 1.20483 14.2002 1.15946 14.2002C1.04108 14.2002 0.991988 14.4096 1.06493 14.6031C1.09935 14.6943 1.27148 14.9912 1.44745 15.2628L1.76734 15.7566L2.34747 15.76L2.92767 15.7635L3.07544 15.4417C3.15669 15.2648 3.30206 15.0014 3.39842 14.8564C3.64015 14.4927 3.67011 14.3637 3.57463 14.0977C3.49257 13.8689 3.49351 13.8665 3.75614 13.6375C4.0844 13.3513 4.33633 12.8131 4.4077 12.2452C4.46434 11.7943 4.40493 10.832 4.24835 9.66487C4.19687 9.2811 4.15137 8.78158 4.14728 8.55481C4.14312 8.32804 4.11864 8.07114 4.09277 7.98392C4.06697 7.8967 4.03437 8.64012 4.0204 9.636C3.99774 11.2503 3.98264 11.4656 3.88094 11.6219C3.79037 11.7612 3.727 11.7933 3.57249 11.7777C3.03799 11.7239 2.95983 11.151 2.95548 7.25445C2.95259 4.73031 2.93774 4.24886 2.85831 4.11458C2.77448 3.97293 2.76794 4.2403 2.7967 6.62014ZM34.77 4.27385C34.257 4.36944 33.549 4.62723 33.2911 4.81226C33.1921 4.88331 33.051 5.03948 32.9775 5.15924C32.8532 5.36209 32.8507 5.38987 32.941 5.5659C33 5.68084 33.0233 5.82857 33.0006 5.943C32.9577 6.1593 33.1602 6.42115 33.3421 6.38455C33.456 6.36171 33.4665 6.20193 33.3851 5.7298C33.344 5.49136 33.3576 5.4573 33.5835 5.23351C33.7956 5.0233 33.855 4.99698 34.0581 5.02305C34.231 5.04531 34.3173 5.02279 34.3962 4.93494C34.6171 4.68889 35.0367 4.59006 35.8399 4.59476C36.6916 4.5997 37.1929 4.71324 37.602 4.99393C37.8982 5.1971 37.9783 5.44607 37.7481 5.4476C37.5416 5.44899 37.4286 5.53716 37.4548 5.67627C37.4738 5.77687 37.5515 5.80047 37.952 5.82724C38.609 5.87113 38.7443 5.97801 39.0077 6.66117C39.0563 6.78721 39.1558 6.85661 39.4071 6.93964C40.0859 7.16387 41.4545 7.96502 41.9546 8.43105C43.0999 9.49811 44.5657 11.6771 45.183 13.2302C45.4254 13.8403 45.6859 14.8637 45.6882 15.2152C45.6889 15.3297 45.8039 15.4771 46.1021 15.7459C46.5892 16.185 46.8084 16.5124 46.9305 16.9832C47.0345 17.3847 47.0069 17.5451 46.7889 17.8062C46.6958 17.9177 46.6561 18.013 46.6932 18.036C46.7865 18.0942 46.9962 17.9619 47.0422 17.8159C47.1047 17.6176 47.2453 17.6656 47.4312 17.9487C47.6251 18.244 47.6888 18.5877 47.638 19.0646C47.5979 19.4401 47.6553 19.6554 47.7954 19.6554C47.9149 19.6554 47.9151 19.5515 47.7976 18.7184C47.6208 17.4648 47.2136 16.3737 46.6401 15.6173C46.2837 15.1473 46.2581 15.0838 46.1606 14.4292C46.0678 13.8061 45.8779 13.2261 45.6029 12.7255C45.5119 12.5598 45.3709 12.3028 45.2898 12.1546C44.737 11.1453 43.8473 9.83988 43.1822 9.06226C42.5129 8.27964 42.334 8.09061 42.0265 7.84069C41.6452 7.5307 40.0545 6.67507 39.7539 6.61823C39.5073 6.57161 39.2071 6.28287 39.2066 6.09194C39.2061 5.84423 38.9291 5.55397 38.279 5.11991C37.9067 4.87132 37.4488 4.59628 37.2616 4.50881C36.5901 4.19501 35.6623 4.10753 34.77 4.27385ZM35.4404 5.19241C35.3903 5.33716 35.3962 5.42368 35.4654 5.55714C35.5151 5.65337 35.556 5.82349 35.5563 5.93526C35.557 6.2972 35.4429 6.44208 35.0119 6.62673C34.5837 6.81011 34.4762 6.96578 34.6072 7.21253C34.7098 7.40574 34.8792 7.42927 35.1926 7.29391C35.6776 7.08439 35.916 6.82394 36.0012 6.41075C36.0729 6.06307 36.0511 5.20522 35.9671 5.06815C35.9449 5.03212 35.8322 5.00262 35.7165 5.00262C35.5394 5.00262 35.4956 5.03269 35.4404 5.19241ZM17.0187 7.52626C17.2225 7.73933 17.2974 7.77942 17.4384 7.751C17.5864 7.72119 17.6322 7.7517 17.7702 7.972C17.997 8.33419 18.378 8.42287 18.2754 8.0896C18.1427 7.6582 17.7097 7.36229 17.1245 7.30285L16.7707 7.26689L17.0187 7.52626ZM54.0246 8.81405C54.0013 8.85199 54.0138 8.91478 54.0523 8.9536C54.1037 9.00543 54.1224 8.9871 54.1224 8.88466C54.1224 8.73147 54.0897 8.70787 54.0246 8.81405ZM26.62 9.03873C25.987 9.07514 24.7543 9.24939 24.197 9.38126C23.9201 9.44672 23.3302 9.62859 22.886 9.78539C22.2446 10.0118 22.0226 10.1223 21.8065 10.3232C21.6568 10.4623 21.2596 10.7063 20.9239 10.8654C20.2755 11.1729 19.395 11.6863 18.9649 12.0077C18.8217 12.1146 18.6428 12.245 18.5672 12.2973C18.3816 12.4258 18.2192 12.5539 17.4382 13.1882C16.9298 13.6011 16.6732 13.8671 16.3616 14.3045C16.1366 14.6203 15.8499 14.979 15.7245 15.1015C15.3673 15.4503 14.5712 16.913 14.2987 17.7207C13.5265 20.0106 13.3335 21.099 13.3369 23.1441C13.3395 24.6692 13.4521 25.6875 13.7508 26.8866C13.8753 27.3867 14.3314 28.7602 14.4458 28.9799C14.4913 29.0671 14.6118 29.324 14.7136 29.5508C15.6681 31.6757 16.2707 32.6685 17.2066 33.6583C18.6815 35.2181 20.7192 36.434 22.9698 37.0971C24.0342 37.4107 24.18 37.4342 25.3927 37.4864C26.0504 37.5147 26.8575 37.5649 27.1864 37.598C27.9512 37.6749 29.8475 37.6816 30.1758 37.6085C30.3142 37.5776 30.6147 37.5099 30.8434 37.4578C31.3419 37.3445 34.5422 35.7767 35.2106 35.3184C35.8096 34.9077 36.1892 34.5633 37.2451 33.4728C37.8172 32.8819 38.3799 32.3724 38.7866 32.0773C39.6903 31.4213 40.0229 31.0666 40.206 30.564C40.2882 30.3382 40.5903 29.6681 40.8774 29.075C41.1645 28.4819 41.4559 27.8209 41.525 27.6061C41.6787 27.1284 41.9401 25.7768 42.069 24.7934C42.1215 24.3922 42.1912 23.9212 42.2238 23.7467C42.3999 22.8057 42.182 20.4352 41.81 19.2431C41.7556 19.0686 41.6036 18.6976 41.4723 18.4185C41.341 18.1394 41.2034 17.8397 41.1665 17.7524C41.0807 17.5496 40.8008 17.0597 40.5069 16.5978C40.3804 16.3989 40.2768 16.2211 40.2768 16.2026C40.2768 16.1378 39.8496 15.497 39.6183 15.215C39.4897 15.0581 39.0947 14.63 38.7405 14.2637C38.3863 13.8974 37.9669 13.4264 37.8086 13.2171C37.4504 12.7433 37.2969 12.6032 36.6266 12.1369C36.3323 11.9322 35.9694 11.6708 35.82 11.5558C35.61 11.3943 33.6765 10.3943 33.5741 10.3943C33.5622 10.3943 33.26 10.2569 32.9025 10.089C31.954 9.64336 31.6156 9.5165 31.0883 9.40898C29.8163 9.14948 27.718 8.97562 26.62 9.03873ZM26.8717 9.4395C25.0341 9.67705 22.318 10.2965 21.9652 10.5586C21.5269 10.884 20.9163 11.2698 20.4309 11.5279C19.8089 11.8586 19.5007 12.0752 18.7531 12.7071C16.7105 14.4335 16.1089 15.0833 15.6941 16.011C15.6012 16.2187 15.3924 16.5742 15.2302 16.801C14.9458 17.1985 14.7299 17.6106 14.6321 17.9427C14.6064 18.0299 14.5488 18.1869 14.504 18.2916C14.2495 18.886 14.1186 19.3819 13.9679 20.3214C13.8192 21.249 13.8113 22.2616 13.939 24.0322C14.0357 25.3731 14.137 26.0638 14.3577 26.8866C14.4279 27.1483 14.5154 27.4765 14.5521 27.6161C14.5888 27.7556 14.6723 27.9473 14.7377 28.0419C14.803 28.1366 14.9229 28.4363 15.0042 28.708C15.1932 29.3398 15.2491 29.463 15.6605 30.1534C15.8476 30.4674 16.1147 30.9383 16.2541 31.2C16.7068 32.0495 16.9394 32.3621 17.6474 33.0718C18.6203 34.047 20.4598 35.546 21.0788 35.8682C21.5599 36.1186 21.6969 36.1569 23.3474 36.5023C24.4712 36.7376 24.7343 36.793 25.141 36.8798C26.321 37.1319 26.7061 37.1726 27.501 37.1289C29.4756 37.0205 30.1289 36.9485 30.6837 36.778C30.79 36.7453 30.9257 36.7186 30.9853 36.7186C31.0448 36.7186 31.2753 36.6329 31.4974 36.5283C31.7195 36.4236 31.9819 36.338 32.0804 36.338C32.179 36.338 32.428 36.2831 32.6337 36.2161C32.8395 36.1491 33.1069 36.0773 33.2281 36.0566C33.3837 36.0301 33.6333 35.8591 34.0777 35.4749C34.6402 34.9885 34.9343 34.7833 35.6796 34.3568C36.1584 34.0828 36.8862 33.4753 37.6379 32.7224C39.2523 31.105 39.3791 30.9479 40.1509 29.6091C40.8121 28.4622 41.072 27.8396 41.2476 26.9818C41.46 25.944 41.48 25.8291 41.535 25.3325C41.5658 25.0534 41.6388 24.4105 41.6971 23.9037C41.7952 23.0517 41.7957 22.8942 41.704 21.8105C41.5599 20.1073 41.4259 19.5039 41.0003 18.6405C40.8884 18.4137 40.7598 18.1283 40.7144 18.0062C40.669 17.8841 40.3962 17.3913 40.1082 16.9112C39.8202 16.431 39.5845 16.0215 39.5845 16.0011C39.5845 15.9176 38.8796 14.9696 38.5811 14.6517C38.4048 14.4639 38.0795 14.0484 37.8581 13.7284C37.6367 13.4084 37.4146 13.1123 37.3645 13.0703C37.3144 13.0284 37.0358 12.8776 36.7454 12.7352C36.4551 12.5928 35.9626 12.2842 35.6511 12.0494C35.0351 11.5851 34.417 11.2069 33.826 10.9326C33.3794 10.7253 31.319 9.86519 30.868 9.69773C29.9563 9.35925 28.3135 9.25307 26.8717 9.4395ZM25.8744 9.95818C25.357 10.0547 24.2914 10.5204 24.2914 10.6499C24.2914 10.6859 24.3928 10.7001 24.5274 10.683C24.6572 10.6665 24.9616 10.6369 25.2039 10.6172C25.6377 10.582 26.3052 10.4782 27.2663 10.2965C27.9332 10.1704 29.4965 10.1731 29.9844 10.3012C30.2385 10.3679 30.3746 10.3778 30.4193 10.3329C30.5081 10.2433 30.4267 10.1798 30.0499 10.0444C29.7797 9.94733 29.4819 9.9297 27.9416 9.91923C26.9551 9.91257 26.0248 9.93008 25.8744 9.95818ZM23.0956 10.813C21.9719 11.0188 21.4863 11.2132 20.7368 11.7575C20.1804 12.1615 19.5898 12.7854 19.679 12.8752C19.7318 12.9284 19.8443 12.8741 20.1169 12.664C20.7208 12.1984 21.2987 11.8795 21.9456 11.6548C22.6517 11.4094 23.6798 10.9069 23.7129 10.7908C23.7392 10.6983 23.718 10.6991 23.0956 10.813ZM35.1444 12.6196C35.0821 12.7213 35.38 13.0104 36.1545 13.5996C37.2978 14.4693 37.6307 14.8602 38.5833 16.4521C39.5371 18.0459 39.909 18.7975 40.2783 19.8774C40.7583 21.2811 40.7279 21.064 40.6552 22.5733C40.6191 23.3233 40.5624 24.0798 40.5293 24.2542C40.4962 24.4286 40.4393 24.8854 40.4029 25.2691C40.2532 26.8474 40.2047 27.2578 40.114 27.7112C39.9815 28.3741 39.8759 28.7148 39.6856 29.0934C39.4107 29.6401 39.4881 29.782 39.8405 29.3776C40.2969 28.8537 40.685 27.6437 40.8122 26.3475C40.8327 26.1381 40.8899 25.6814 40.9391 25.3325C41.0875 24.2808 41.0987 24.1681 41.1647 23.049C41.2456 21.6772 41.189 21.1799 40.9041 20.7625C40.7809 20.5821 40.6417 20.2428 40.5525 19.9061C40.1574 18.4137 39.3902 16.6282 38.4959 15.12C38.1956 14.6137 38.0832 14.4899 37.5021 14.0259C37.1417 13.7381 36.6486 13.3897 36.4063 13.2517C36.164 13.1137 35.8109 12.8996 35.6217 12.7759C35.2463 12.5305 35.207 12.5176 35.1444 12.6196ZM1.34046 12.6874C1.14599 12.7857 1.04674 13.056 1.12705 13.2688C1.20779 13.4829 1.36827 13.4893 1.42026 13.2805C1.48068 13.038 1.60585 13.0885 1.8922 13.4708C2.03595 13.6627 2.19328 13.8197 2.24193 13.8197C2.29052 13.8197 2.44527 13.6944 2.58574 13.5414C2.72621 13.3884 2.95259 13.2126 3.08872 13.1508C3.33315 13.0397 3.33806 13.0401 3.48785 13.1819C3.65846 13.3435 3.7747 13.3105 3.7747 13.1005C3.7747 12.8595 3.60151 12.6779 3.37148 12.6779C3.15102 12.6779 2.705 12.9583 2.56435 13.1853C2.45006 13.3698 2.34697 13.3416 2.23035 13.0939C2.06062 12.7334 1.63461 12.5388 1.34046 12.6874ZM2.59241 14.1509C2.32916 14.2867 2.31764 14.2873 2.11367 14.1767C1.8742 14.0467 1.58156 14.0594 1.492 14.2037C1.44455 14.2802 1.51007 14.3861 1.78446 14.6762L2.13803 15.05L2.35125 14.8155C2.60318 14.5383 2.65667 14.5291 2.79343 14.7394C2.9293 14.9484 2.98362 14.9397 3.1402 14.6844C3.30162 14.4211 3.30634 14.2519 3.15612 14.1149C3.00571 13.9777 2.91709 13.9834 2.59241 14.1509ZM2.29574 16.2438C2.1919 16.2807 2.09825 16.318 2.08768 16.3269C2.07711 16.3357 2.11531 16.5245 2.17258 16.7463C2.30512 17.26 2.27164 18.4579 2.08069 20.0337C2.00687 20.643 1.95973 21.1763 1.97591 21.2189C1.99649 21.2728 2.10813 21.2855 2.34477 21.2609C2.55509 21.239 2.73798 21.2546 2.82578 21.302C2.90363 21.344 2.98173 21.3638 2.99929 21.3461C3.03768 21.3074 2.93585 20.6078 2.80853 20.036C2.60871 19.138 2.57416 18.8977 2.53942 18.1647C2.50682 17.4773 2.56548 16.6892 2.67744 16.3094C2.72546 16.1465 2.62023 16.1284 2.29574 16.2438ZM15.7086 16.9273C15.4219 17.364 14.9324 18.3389 14.8007 18.7356C14.5674 19.4381 14.3701 21.4687 14.4417 22.4284C14.5101 23.3443 14.4925 23.8447 14.3826 24.1095C14.3288 24.2392 14.2848 24.4701 14.2848 24.6227C14.2848 25.0306 14.5145 26.085 14.7268 26.6515C14.8287 26.9234 14.9569 27.323 15.0117 27.5395C15.1084 27.9216 15.5659 28.8095 16.0432 29.5411C16.1717 29.7383 16.2972 29.9425 16.3218 29.9948C16.6202 30.629 17.4309 31.7066 18.1867 32.4737C19.6318 33.9405 21.0713 34.8398 23.5362 35.8153C24.4497 36.1769 25.2694 36.3454 25.3069 36.1794C25.3246 36.1007 25.1876 36.0319 24.3543 35.7009C23.9909 35.5566 23.6652 35.4158 23.6306 35.3882C23.596 35.3604 23.3552 35.2612 23.0956 35.1676C21.9067 34.7389 20.9445 34.1095 19.0034 32.4908C17.4142 31.1657 16.8276 30.4741 16.1181 29.0896C15.6651 28.2056 15.4961 27.7673 15.4494 27.3554C15.4262 27.1499 15.3416 26.7534 15.2615 26.4743C15.1814 26.1952 15.0811 25.8099 15.0386 25.618C14.9961 25.4261 14.9047 25.1011 14.8355 24.8958C14.7373 24.6047 14.7171 24.4231 14.7437 24.0712C14.7625 23.823 14.7477 23.2269 14.711 22.7466C14.6637 22.1287 14.6638 21.7577 14.7113 21.478C14.7482 21.2605 14.8243 20.8114 14.8802 20.48C15.0393 19.5375 15.1591 19.1014 15.4287 18.4838C15.7591 17.7267 16.0566 16.8543 16.0185 16.7543C15.9663 16.6171 15.8811 16.6646 15.7086 16.9273ZM45.1296 19.0026C44.8908 19.098 44.6193 19.5001 44.6193 19.7583C44.6193 19.8742 44.788 19.8704 44.8532 19.7531C44.9389 19.5988 45.5221 19.2114 45.6687 19.2114C45.8723 19.2114 46.0187 19.3821 45.9408 19.5288C45.8494 19.7008 45.8479 19.7001 46.2131 19.6695C46.6166 19.6358 46.9518 19.7842 47.2529 20.1297C47.6416 20.576 47.9929 21.4491 47.8916 21.7176C47.8116 21.9296 47.7305 21.9565 47.5129 21.8431C47.2638 21.7133 47.0737 21.771 47.0737 21.9765C47.0737 22.159 47.2685 22.2561 47.6344 22.2561C47.7942 22.2561 47.9106 22.2987 47.9888 22.3858C48.0956 22.5048 48.099 22.5534 48.0285 22.9726C47.929 23.5653 47.7117 24.0074 47.3536 24.3456C47.1487 24.5393 47.0785 24.6474 47.1101 24.7213C47.2529 25.055 47.3055 26.3728 47.1965 26.8866C47.1631 27.0436 47.1207 27.3005 47.1021 27.4575C47.0835 27.6145 46.9937 28.114 46.9026 28.5676C46.7607 29.2736 46.6486 29.5989 46.1229 30.83C45.3905 32.5453 45.4037 32.5187 44.9333 33.2168C44.5675 33.7597 44.2154 34.1813 44.1279 34.1813C44.1034 34.1813 43.9278 34.3103 43.7377 34.4681C43.5476 34.6258 43.2716 34.8138 43.1246 34.886C42.8493 35.021 42.7625 35.227 42.9502 35.2997C43.0638 35.3436 43.5434 35.1172 43.927 34.8386C44.4489 34.4596 45.5861 33.1087 45.8888 32.508C46.351 31.5909 47.0335 29.625 47.2898 28.4724C47.348 28.2108 47.4203 27.8968 47.4506 27.7747C47.6277 27.0583 47.7121 26.3796 47.7227 25.5863C47.7336 24.7691 47.7462 24.6817 47.8806 24.4918C47.961 24.3782 48.1141 24.05 48.2208 23.7623C48.3902 23.3056 48.4185 23.1364 48.4441 22.4276L48.4733 21.6159L48.1217 20.9053C47.5604 19.7707 47.1743 19.3869 46.2905 19.0853C45.9396 18.9655 45.3309 18.9222 45.1296 19.0026ZM28.3476 19.7661C28.2766 19.8274 28.1641 19.9843 28.0974 20.115C27.9475 20.4089 27.575 20.6067 27.287 20.5453C27.1385 20.5138 27.0971 20.4745 27.1137 20.3809C27.1456 20.2004 27.1869 20.1814 27.2771 20.3057C27.3864 20.4563 27.4796 20.445 27.5954 20.2669C27.7165 20.0807 27.6611 19.9202 27.458 19.8688C27.2243 19.8097 27.0193 19.936 26.936 20.1903C26.8953 20.3148 26.8392 20.4166 26.8113 20.4166C26.7835 20.4166 26.6877 20.32 26.5984 20.202C26.4114 19.9549 26.1412 19.857 26.0103 19.989C25.9592 20.0404 25.9165 20.244 25.9062 20.4843C25.8959 20.727 25.8392 20.9951 25.7663 21.146C25.6557 21.3749 25.6192 21.4007 25.3942 21.4096C25.0326 21.4238 24.7949 21.7039 24.7949 22.1161C24.7949 22.2822 24.8369 22.4786 24.8883 22.5525C24.9742 22.6763 24.9693 22.695 24.8263 22.7894C24.5834 22.9499 24.5578 23.1816 24.7595 23.3938C24.8525 23.4916 24.9764 23.6682 25.0348 23.7861C25.1298 23.9779 25.1742 24.0038 25.4557 24.0322C25.834 24.0703 26.2802 24.2968 26.3379 24.48C26.3961 24.6647 26.3529 24.6858 26.0752 24.608C25.4469 24.4322 25.0207 24.6358 25.0586 25.0937C25.0835 25.3958 25.3097 25.5398 25.5302 25.3941C25.6914 25.2877 25.8181 25.323 26.0255 25.532C26.2043 25.7123 26.3636 25.7214 26.5643 25.5628C26.6468 25.4976 26.8056 25.4241 26.9172 25.3996C27.0288 25.375 27.1898 25.2714 27.275 25.1693C27.4632 24.9439 27.5314 24.938 27.6601 25.136C27.7499 25.2741 27.7501 25.3408 27.6624 25.8473C27.6051 26.1782 27.5887 26.4295 27.6222 26.4632C27.7021 26.5437 28.0554 26.0325 28.1053 25.7643C28.1278 25.6436 28.1288 25.4168 28.1075 25.2602C28.0693 24.9794 28.0712 24.9757 28.2407 24.9954C28.3723 25.0107 28.4423 25.0781 28.539 25.2826C28.6889 25.5998 29.1015 25.9986 29.2796 25.9986C29.5629 25.9986 29.8985 25.8441 30.0501 25.6439C30.3194 25.288 30.2547 25.1501 29.6836 24.8625C29.54 24.7901 29.4776 24.71 29.4628 24.5788C29.4432 24.4064 29.4522 24.3988 29.6201 24.4441C29.9103 24.5222 30.2232 24.5043 30.4747 24.395C30.6576 24.3155 30.7107 24.2566 30.7107 24.1334C30.7107 23.9816 30.6954 23.9751 30.3688 23.9884C30.1809 23.9961 30.0091 24.0204 29.9873 24.0424C29.9654 24.0645 29.8432 24.0688 29.7155 24.052C29.5126 24.0253 29.4562 24.0501 29.2666 24.2489C29.1189 24.4037 28.9934 24.4762 28.8733 24.4762C28.6181 24.4762 28.6567 24.5709 28.9475 24.6587C29.2062 24.7368 29.3261 24.8786 29.3261 25.1063C29.3261 25.1784 29.3871 25.2988 29.4616 25.3739C29.5921 25.5055 29.5928 25.5135 29.481 25.5959C29.2329 25.7788 29.1062 25.7006 28.8227 25.1901C28.6193 24.8239 28.3882 24.6797 28.1486 24.7695C28.0091 24.8217 27.9236 24.8106 27.7323 24.7154C27.378 24.5391 27.1715 24.5841 27.0824 24.8568C27.0156 25.0613 26.9922 25.0774 26.7851 25.0604C26.6524 25.0496 26.494 25.0858 26.3985 25.1489C26.2602 25.2402 26.2142 25.2436 26.0822 25.1724C25.8525 25.0486 25.8941 24.9837 26.2032 24.9837C26.4866 24.9837 26.5898 24.9156 26.6289 24.7028C26.6424 24.6298 26.7275 24.5603 26.8402 24.5303C26.9441 24.5027 27.1355 24.4201 27.2656 24.3469L27.5022 24.2137L27.8532 24.3757L28.2041 24.5376L28.4842 24.3801C28.6382 24.2934 28.8127 24.2224 28.8721 24.2222C29.0215 24.2219 29.3869 23.9887 29.5346 23.7994C29.6021 23.7129 29.7308 23.614 29.8206 23.5795C29.9646 23.5244 30.004 23.5418 30.154 23.727L30.324 23.937L30.5016 23.8034C30.8692 23.5271 30.7061 23.2076 30.1975 23.2076C29.8486 23.2076 29.8009 23.1253 30.0907 23.0235C30.388 22.919 30.5319 22.9376 30.7891 23.1137C31.1743 23.3776 31.3532 23.3821 31.621 23.1348C31.8899 22.8864 31.8756 22.76 31.5617 22.6099C31.3041 22.4867 30.9824 22.4847 30.7736 22.605C30.6871 22.6548 30.5224 22.6966 30.4076 22.6979C30.2929 22.6991 30.1418 22.731 30.0719 22.7687C30.0019 22.8064 29.9291 22.8216 29.9101 22.8024C29.8476 22.7394 30.0749 22.4569 30.2213 22.4155C30.4997 22.3368 30.6595 22.2269 30.7489 22.0527C30.8357 21.8836 30.8127 21.5583 30.7139 21.5583C30.6886 21.5583 30.4935 21.6462 30.2802 21.7536C29.9693 21.9102 29.8926 21.9785 29.8926 22.0987C29.8926 22.2409 29.7921 22.3662 29.729 22.3027C29.678 22.2513 29.8505 21.6586 29.9523 21.5351C30.0868 21.3719 30.6835 21.1143 30.927 21.1143C31.3487 21.1143 31.6497 20.477 31.355 20.2081C31.2533 20.1155 31.2175 20.1155 30.9302 20.2081C30.5102 20.3436 30.4591 20.3928 30.4582 20.6622C30.4575 20.8548 30.4217 20.9156 30.2388 21.035C29.9221 21.2418 29.8688 21.2113 30.054 20.9292C30.1902 20.7216 30.2053 20.6582 30.1451 20.5448C30.0934 20.4477 30.0247 20.4146 29.9041 20.4286C29.7516 20.4464 29.7371 20.4704 29.7547 20.6753C29.7674 20.8243 29.7398 20.931 29.6745 20.9856C29.5586 21.0825 29.5393 21.0686 29.3993 20.7872C29.3418 20.6716 29.238 20.5479 29.1688 20.5126C28.8765 20.3632 28.8688 20.3476 29.0115 20.1945C29.1008 20.0988 29.14 19.9875 29.1264 19.8681C29.1072 19.6985 29.0861 19.6861 28.7912 19.671C28.5646 19.6593 28.4404 19.686 28.3476 19.7661ZM28.3192 20.2897C28.3192 20.3246 28.3492 20.3531 28.3858 20.3531C28.4225 20.3531 28.435 20.3246 28.4136 20.2897C28.3922 20.2548 28.3622 20.2263 28.3469 20.2263C28.3317 20.2263 28.3192 20.2548 28.3192 20.2897ZM46.9183 20.5276C46.8474 20.8139 46.7053 20.924 46.4068 20.924C46.2585 20.924 46.1196 20.9526 46.0982 20.9875C46.0768 21.0224 45.9912 21.0509 45.9079 21.0509C45.8185 21.0509 45.7275 21.1054 45.6857 21.1841C45.6243 21.2999 45.5786 21.3119 45.3374 21.2754C45.0025 21.2248 44.9596 21.342 45.2329 21.5608C45.3842 21.6819 45.4587 21.695 45.8246 21.6648C46.3631 21.6203 46.8221 21.3908 47.0743 21.04C47.2805 20.7531 47.3016 20.6324 47.1749 20.4641C47.0553 20.3053 46.968 20.3269 46.9183 20.5276ZM26.2765 20.4756C26.2566 20.5081 26.2691 20.5526 26.3043 20.5745C26.3395 20.5964 26.3682 20.5698 26.3682 20.5155C26.3682 20.404 26.3305 20.3877 26.2765 20.4756ZM30.8366 20.674C30.8366 20.711 30.8649 20.7236 30.8995 20.702C30.9341 20.6805 30.9624 20.6503 30.9624 20.6348C30.9624 20.6194 30.9341 20.6069 30.8995 20.6069C30.8649 20.6069 30.8366 20.6371 30.8366 20.674ZM28.7966 20.7884C28.7561 20.8544 28.8045 21.0053 29.0165 21.4743C29.1666 21.8065 29.1501 22.1301 28.973 22.3274C28.8473 22.4673 28.6854 22.4867 28.7352 22.3559C28.7607 22.2888 28.734 22.2747 28.6317 22.3017C28.5009 22.3362 28.4962 22.324 28.5393 22.0671C28.5715 21.8749 28.5644 21.8087 28.5149 21.8395C28.4765 21.8635 28.4451 21.9637 28.4451 22.0623C28.4451 22.1848 28.3938 22.2753 28.2833 22.3484C28.1272 22.4514 28.1164 22.4496 27.9782 22.2994C27.8306 22.1389 27.4915 22.0251 27.3757 22.0972C27.2601 22.1693 27.3777 22.2579 27.5358 22.2179C27.6472 22.1897 27.7002 22.2095 27.7313 22.291C27.7975 22.4651 27.4299 22.7636 27.149 22.7636C26.9851 22.7636 26.8754 22.8135 26.7404 22.9495C26.5768 23.1145 26.5641 23.1538 26.6285 23.2961C26.6684 23.3844 26.8101 23.5329 26.9434 23.626C27.2899 23.868 27.6348 23.817 27.9198 23.4815C28.033 23.3483 28.1267 23.2165 28.128 23.1887C28.1293 23.1608 28.0551 23.0727 27.963 22.9929C27.6392 22.7122 27.9593 22.6216 28.3072 22.8954C28.4437 23.0028 28.4593 23.0033 28.5655 22.9025C29.4516 22.0615 29.452 22.061 29.452 21.7766C29.452 21.5276 29.3367 21.3046 29.2079 21.3046C29.1824 21.3046 29.1348 21.1833 29.1022 21.0352C29.045 20.7753 28.8843 20.6454 28.7966 20.7884ZM27.3753 20.8684C27.2888 20.9032 27.0835 20.9129 26.919 20.8902C26.7417 20.8655 26.62 20.8734 26.62 20.9094C26.62 20.9429 26.4925 21.0193 26.3366 21.0793C26.0279 21.1981 25.9272 21.3839 26.0482 21.6117C26.1308 21.7672 26.1381 22.0024 26.0603 22.0024C25.9237 22.0024 25.937 22.2173 26.0846 22.3941C26.1714 22.498 26.2424 22.6059 26.2424 22.6338C26.2424 22.725 26.0889 22.8153 25.8962 22.8375L25.7074 22.8591L25.9736 23.0334C26.2946 23.2434 26.3053 23.2446 26.3053 23.0683C26.3053 22.9917 26.3804 22.85 26.4723 22.7534L26.6393 22.5777L26.5029 22.4645C26.2896 22.2874 26.2421 22.0151 26.3712 21.7099C26.5642 21.2535 27.0522 21.0356 27.8944 21.0296C28.0934 21.0282 28.2563 21.0097 28.2563 20.9883C28.2563 20.8076 27.711 20.7335 27.3753 20.8684ZM47.2625 21.2412C47.1886 21.3459 47.1512 21.4339 47.1796 21.4368C47.2079 21.4397 47.296 21.4492 47.3753 21.4581C47.5525 21.4778 47.6008 21.4082 47.5504 21.2059C47.4995 21.0013 47.4256 21.0104 47.2625 21.2412ZM27.6673 21.4404C27.6014 21.479 27.4428 21.4916 27.3041 21.4692C27.0327 21.4255 26.7257 21.5448 26.659 21.7198C26.6058 21.8596 26.6096 22.2245 26.6649 22.2802C26.6896 22.3051 26.7392 22.2035 26.775 22.0544C26.8594 21.7034 27.0191 21.6239 27.6426 21.6227C28.1265 21.6218 28.2444 21.5609 28.0087 21.4337C27.8587 21.3528 27.8153 21.3537 27.6673 21.4404ZM2.37441 21.6904C2.3038 21.7318 2.26427 21.8321 2.26427 21.9701C2.26427 22.228 2.18542 22.2944 2.04608 22.154C1.92122 22.0281 1.92241 22.0268 1.83305 22.3952C1.7068 22.9155 1.6876 22.8975 2.34294 22.877L2.92509 22.8587L2.93012 22.5098C2.93289 22.3169 2.98211 22.0702 3.04026 21.958C3.16789 21.7114 3.16959 21.6852 3.05769 21.6852C3.00948 21.6852 2.95372 21.728 2.93377 21.7804C2.88235 21.9154 2.67297 21.8982 2.57089 21.7506C2.50418 21.6541 2.4595 21.6404 2.37441 21.6904ZM25.3455 21.7537C25.285 21.7893 25.2354 21.882 25.2354 21.9597C25.2354 22.1024 25.3944 22.3832 25.475 22.3827C25.5458 22.3823 25.753 21.823 25.7089 21.7511C25.6581 21.6681 25.4891 21.6694 25.3455 21.7537ZM29.1419 22.6915C29.1074 22.7566 29.0851 22.9431 29.0925 23.1061C29.1048 23.3784 29.1181 23.4009 29.2569 23.3842C29.4332 23.3631 29.5942 23.1454 29.4678 23.099C29.4231 23.0826 29.3891 22.9628 29.3891 22.8217C29.3891 22.549 29.2551 22.4784 29.1419 22.6915ZM31.039 22.8375C31.0543 22.8841 31.1314 22.9316 31.2104 22.9433C31.308 22.9577 31.3452 22.9374 31.3264 22.8799C31.3112 22.8333 31.2341 22.7858 31.155 22.7741C31.0574 22.7597 31.0202 22.78 31.039 22.8375ZM24.9479 23.0244C24.8991 23.1038 25.027 23.2052 25.1777 23.2066C25.3226 23.208 25.3705 23.1366 25.2901 23.039C25.2051 22.9358 25.0073 22.9273 24.9479 23.0244ZM1.80126 23.3877C1.37098 23.6977 1.28589 24.0598 1.48483 24.7343C1.55374 24.9681 1.57665 25.2173 1.55594 25.5095C1.52379 25.9646 1.57206 26.021 1.74632 25.7316C1.83613 25.5824 1.83846 25.5051 1.7664 25.0579C1.6708 24.4647 1.70856 24.2288 1.93878 23.9804C2.07742 23.8309 2.18026 23.7901 2.515 23.7519C2.88858 23.7093 2.93188 23.7171 3.03472 23.8451C3.21761 24.0727 3.23391 24.278 3.11578 24.8644C2.9935 25.4718 3.01678 25.705 3.21031 25.8094C3.38489 25.9036 3.4745 25.8286 3.43026 25.6257C3.40981 25.5319 3.43649 25.2474 3.48948 24.9932C3.54254 24.7392 3.5859 24.3932 3.5859 24.2245C3.5859 23.9519 3.55607 23.8848 3.31843 23.6236C3.08072 23.3622 3.00892 23.3228 2.67335 23.2689C2.13803 23.183 2.07302 23.1918 1.80126 23.3877ZM25.4289 23.5508C25.3834 23.606 25.3784 23.6548 25.4159 23.6781C25.4897 23.7241 25.7737 23.6219 25.8309 23.5287C25.8943 23.4253 25.515 23.4462 25.4289 23.5508ZM28.1016 23.6881C28.0432 23.7779 27.9904 23.9277 27.9843 24.021C27.9755 24.1534 28.0045 24.1952 28.1164 24.2112C28.2276 24.2272 28.2744 24.189 28.3257 24.0405C28.388 23.8606 28.4105 23.8498 28.707 23.8566C29.0279 23.8639 29.1584 23.7806 29.0933 23.6098C29.0553 23.5101 28.9101 23.497 28.8541 23.5882C28.8327 23.6231 28.7195 23.6516 28.6024 23.6516C28.4853 23.6516 28.3721 23.6231 28.3507 23.5882C28.2875 23.4852 28.2145 23.5144 28.1016 23.6881ZM52.8322 23.715C52.8536 23.7499 53.0519 23.7785 53.2728 23.7785C53.4937 23.7785 53.6919 23.7499 53.7133 23.715C53.7379 23.6749 53.5764 23.6516 53.2728 23.6516C52.9692 23.6516 52.8076 23.6749 52.8322 23.715ZM26.148 23.8011C26.0306 23.8899 26.0296 23.8992 26.1333 23.9397C26.1944 23.9636 26.3155 23.9695 26.4023 23.9527C26.5899 23.9166 26.6612 24.0009 26.5535 24.1317C26.4433 24.2654 26.5131 24.3034 26.7062 24.2147C26.8872 24.1316 26.9223 23.9632 26.7829 23.8466C26.6331 23.7213 26.2864 23.6964 26.148 23.8011ZM2.53433 24.1025C2.49594 24.1412 2.36988 24.1802 2.25427 24.1893C1.93733 24.2139 1.88943 24.4199 2.07383 24.9657C2.24715 25.4789 2.21644 25.9 1.98604 26.17L1.84173 26.3391L2.01486 26.4861C2.23589 26.6735 2.36012 26.6711 2.61601 26.4743C2.85945 26.2871 2.85674 26.2876 2.98355 26.4154C3.11188 26.5448 3.10948 26.7861 2.97783 26.9886C2.88292 27.1345 2.88021 27.2507 2.94825 28.2391C3.11087 30.6018 3.35896 32.832 3.47186 32.9457C3.49005 32.9641 3.55311 32.9604 3.61195 32.9377C3.7056 32.9015 3.71372 32.8317 3.67671 32.3812C3.65349 32.0978 3.60824 31.7376 3.57614 31.5806C3.52083 31.3095 3.48646 31.025 3.33775 29.6061C3.23177 28.5948 3.1942 27.2613 3.25933 26.8232L3.32063 26.4109L3.07644 26.1714C2.9422 26.0397 2.81382 25.8578 2.79129 25.7672C2.76869 25.6765 2.7692 25.306 2.79248 24.9438C2.84214 24.1691 2.75384 23.8813 2.53433 24.1025ZM9.39388 24.1877C8.18132 24.5696 7.61371 25.5337 7.61371 27.2112C7.61371 27.8218 7.64191 28.1004 7.73247 28.3849C7.86791 28.8103 8.16546 29.385 8.47013 29.8095C8.76107 30.215 8.805 30.356 8.94339 31.3269C9.01054 31.7978 9.13931 32.4115 9.22962 32.6906C9.65028 33.9909 10.8004 35.8775 11.7106 36.7606C12.2229 37.2575 12.5909 37.5365 13.3048 37.9688C13.7182 38.2193 14.0407 38.486 14.4736 38.9355C15.1019 39.588 15.4508 39.8684 16.4121 40.493C16.7341 40.7022 17.2698 41.0518 17.6024 41.2698C17.9352 41.4879 18.2339 41.6663 18.2662 41.6663C18.2986 41.6663 18.4143 41.7069 18.5234 41.7565C19.019 41.9818 19.4847 42.0659 20.2636 42.0706C20.9593 42.0749 21.083 42.0589 21.3335 41.9326C22.0987 41.5468 22.4291 41.2223 22.533 40.7543C22.623 40.3487 22.5692 39.9797 22.4072 39.8923C22.2394 39.8017 22.1787 39.9085 22.089 40.4521C22.0401 40.7483 21.9675 40.9638 21.8901 41.0418C21.8231 41.1093 21.7177 41.2561 21.656 41.3679C21.5661 41.5306 21.4976 41.5751 21.3119 41.5908C21.0978 41.6091 21.0772 41.5958 21.0416 41.4164C21.0204 41.3097 20.9793 41.2222 20.9502 41.2222C20.9212 41.2222 20.7856 41.3431 20.6489 41.4907C20.4098 41.7492 20.3862 41.7593 20.0205 41.7593C19.5367 41.7593 19.278 41.5934 19.3068 41.3015L19.3254 41.1117L18.7718 41.102C17.7347 41.084 17.7145 41.0751 16.4992 40.0992C15.4948 39.2926 15.1163 38.8427 14.8441 38.1314L14.6796 37.7018L14.2889 37.6576C13.199 37.5342 11.2477 35.7287 10.5163 34.1668C9.89956 32.8498 9.56299 31.7539 9.47299 30.7697C9.41295 30.1128 9.34322 29.9546 9.03308 29.7714C8.49146 29.4515 8.22323 28.5202 8.5892 28.2301C8.7685 28.0878 8.78971 27.9532 8.65094 27.8371C8.57265 27.7716 8.53023 27.7788 8.416 27.8769C8.33928 27.9428 8.24595 28.0354 8.20845 28.0829C8.07081 28.257 7.90076 28.1371 7.81548 27.8056C7.66041 27.203 7.83335 26.375 8.23544 25.7949C8.56327 25.322 8.82445 25.1601 9.21854 25.1855L9.53322 25.2057L9.51465 24.9669C9.48193 24.546 9.78193 24.589 10.1974 25.0647C10.3878 25.2828 10.4463 25.3145 10.5908 25.2779C10.7416 25.2397 10.7604 25.2052 10.7604 24.9666C10.7604 24.7518 10.7181 24.6504 10.5485 24.4584C10.2391 24.1079 9.89962 24.0283 9.39388 24.1877ZM7.80252 24.5396C7.80252 24.5745 7.83084 24.6031 7.86545 24.6031C7.90007 24.6031 7.92839 24.5745 7.92839 24.5396C7.92839 24.5048 7.90007 24.4762 7.86545 24.4762C7.83084 24.4762 7.80252 24.5048 7.80252 24.5396ZM53.746 24.6333C53.6821 24.7109 53.6871 24.736 53.7734 24.7693C53.9205 24.8262 54.0265 24.7071 53.9131 24.6123C53.8443 24.5547 53.8069 24.5594 53.746 24.6333ZM25.4032 24.8357C25.3801 24.8589 25.3613 24.9303 25.3613 24.9943C25.3613 25.1197 25.4642 25.1433 25.609 25.051C25.6839 25.0032 25.6852 24.9762 25.617 24.8933C25.528 24.7853 25.469 24.7693 25.4032 24.8357ZM53.257 25.2194C53.3522 25.2339 53.5079 25.2339 53.6032 25.2194C53.6984 25.2049 53.6205 25.193 53.4301 25.193C53.2397 25.193 53.1618 25.2049 53.257 25.2194ZM53.021 26.1048C52.7121 26.1737 52.7335 26.2142 53.1154 26.2828C53.5418 26.3593 53.7448 26.318 53.7448 26.1549C53.7448 26.0854 53.6697 26.0639 53.4458 26.0694C53.2814 26.0734 53.0902 26.0894 53.021 26.1048ZM1.52851 26.4585C1.5005 26.5021 1.44474 27.651 1.40452 29.0116C1.36437 30.3722 1.29628 31.6995 1.25317 31.9612C1.21012 32.2228 1.17217 32.5368 1.1689 32.6589C1.16336 32.8636 1.17733 32.8809 1.34763 32.8809C1.51604 32.8809 1.5392 32.8536 1.61082 32.5708C1.77175 31.9349 1.81335 30.6499 1.73606 28.7026C1.69232 27.602 1.6978 27.3835 1.76841 27.4072C2.06339 27.5063 2.13104 31.5742 1.85746 32.7648C1.75733 33.2008 1.75803 33.231 1.87351 33.4943C1.98138 33.7403 2.06081 34.0143 2.16465 34.4985C2.20707 34.696 2.08428 35.4369 2.00051 35.4891C1.88522 35.5609 1.81083 35.4001 1.78717 35.0279C1.75387 34.5046 1.70862 34.2806 1.57092 33.9567C1.44763 33.6669 1.29829 33.5945 1.14404 33.75C1.03076 33.8641 1.05152 34.0746 1.25814 34.9069C1.36154 35.3235 1.44612 35.7387 1.44612 35.8298C1.44612 36.0537 1.55506 36.1479 1.76495 36.1056C1.88169 36.0821 2.02443 36.1185 2.19586 36.2156L2.45226 36.3609L2.60072 36.2203C2.73855 36.0898 2.75189 36.0171 2.78625 35.2098C2.82364 34.3312 2.868 34.1085 3.0996 33.6356L3.22705 33.3753L3.0918 32.87C3.01741 32.5922 2.95655 32.1926 2.95655 31.9822C2.95655 31.7717 2.92886 31.5168 2.895 31.4156C2.86115 31.3145 2.8045 30.7893 2.7692 30.2485C2.73389 29.7078 2.6933 29.1654 2.67908 29.0433C2.66485 28.9212 2.63521 28.4811 2.61331 28.0654C2.59134 27.6497 2.55881 27.2857 2.541 27.2566C2.52319 27.2276 2.46069 27.2037 2.40216 27.2035C2.10291 27.2029 1.60831 26.64 1.73103 26.4398C1.78704 26.3485 1.58729 26.3669 1.52851 26.4585ZM8.29133 26.5924C8.23582 26.7097 8.17119 26.9351 8.14765 27.0932L8.10485 27.3808L8.45936 27.3851C8.65434 27.3874 8.84245 27.4072 8.87738 27.4289C8.9123 27.4507 8.97499 27.441 9.01678 27.4073C9.0585 27.3737 9.3334 27.3453 9.62762 27.3442C10.3701 27.3412 10.7604 27.1692 10.7604 26.8451C10.7604 26.6763 10.6595 26.6574 10.4818 26.7929C10.3171 26.9184 9.52925 26.8502 9.32792 26.6929C9.24963 26.6318 9.12987 26.5964 9.06177 26.6144C8.99368 26.6323 8.83666 26.5867 8.7128 26.5131C8.58895 26.4394 8.46616 26.3792 8.43992 26.3792C8.41367 26.3792 8.34684 26.4751 8.29133 26.5924ZM53.6189 26.5741C53.4977 26.604 53.2021 26.6454 52.962 26.666C52.7219 26.6867 52.4987 26.7202 52.4659 26.7406C52.4007 26.7812 52.4567 29.0266 52.5416 29.7728L52.5921 30.2168L52.603 29.8362C52.6146 29.4305 52.6917 29.2222 52.7907 29.3293C52.875 29.4205 52.9912 31.5153 53.0018 33.1347C53.0068 33.9022 53.0028 35.6862 52.993 37.0992C52.9761 39.5121 52.9824 39.6874 53.0967 39.9853C53.2538 40.3948 53.5356 40.8416 53.6365 40.8416C53.7508 40.8416 54.0112 40.1369 54.0156 39.8154C54.0177 39.6647 53.9958 39.039 53.967 38.4251C53.929 37.617 53.934 37.2967 53.9851 37.2649C54.0285 37.2378 54.0706 37.289 54.0943 37.3979C54.1601 37.6996 54.1784 37.7335 54.2766 37.7335C54.4263 37.7335 54.4534 37.4796 54.3827 36.7393C54.3465 36.3616 54.2986 35.5102 54.2762 34.8473C54.2316 33.5312 54.1502 32.5827 54.1267 33.103C54.0346 35.1309 54.0058 35.417 53.9034 35.3138C53.8868 35.2971 53.8421 34.4431 53.8039 33.4161C53.7658 32.3892 53.7228 31.449 53.7083 31.3269C53.6938 31.2048 53.649 30.8448 53.6089 30.5269C53.5371 29.9586 53.5606 29.6972 53.677 29.7697C53.7094 29.79 53.754 29.9702 53.7759 30.1702C53.8423 30.7741 53.9386 31.2 54.009 31.2C54.0519 31.2 54.0623 31.0823 54.0382 30.867C53.8779 29.4358 53.8598 29.0684 53.9048 28.1553C53.9927 26.3719 54.0117 26.4771 53.6189 26.5741ZM52.5201 33.6501C52.4944 33.7503 52.4594 34.7128 52.4421 35.7888C52.4121 37.6663 52.4155 37.7443 52.5271 37.7228C52.629 37.7031 52.6496 37.6062 52.6939 36.9399C52.7216 36.5216 52.7283 35.6124 52.7087 34.9194C52.6733 33.6662 52.6155 33.277 52.5201 33.6501ZM3.35688 33.9004C3.24064 34.0792 2.94051 35.6511 2.9952 35.7948C3.04705 35.931 3.18003 35.9576 3.31899 35.8595C3.40672 35.7975 3.45462 35.671 3.47929 35.4361C3.49861 35.2518 3.57218 34.9012 3.64273 34.657C3.79069 34.145 3.80573 33.9208 3.69918 33.8134C3.58162 33.6949 3.47243 33.7227 3.35688 33.9004ZM42.8725 35.7195C42.8379 35.7632 42.7902 35.8623 42.7666 35.9399C42.7182 36.0993 42.4173 36.338 42.2648 36.338C42.2094 36.338 42.1009 36.4111 42.0238 36.5005C41.9021 36.6415 41.8397 36.6609 41.5511 36.6475C41.3682 36.6389 41.188 36.6628 41.1505 36.7006C41.0364 36.8156 41.1575 37.0421 41.3842 37.1375C41.538 37.2023 41.5981 37.2678 41.5974 37.3696C41.596 37.5811 41.5153 37.6749 41.1478 37.8924C40.9003 38.0389 40.7994 38.1422 40.7564 38.2933C40.7245 38.4052 40.7175 38.516 40.7407 38.5395C40.7984 38.5976 41.3222 38.3345 41.6165 38.0997C42.0115 37.7843 42.7736 36.6876 42.9823 36.1341C43.1314 35.7387 43.1393 35.6402 43.0221 35.6402C42.9745 35.6402 42.9071 35.6759 42.8725 35.7195ZM2.90507 36.4677C2.67045 36.688 2.74862 36.8058 3.16852 36.8649C3.37073 36.8934 3.54801 36.9048 3.56242 36.8903C3.57684 36.8757 3.55261 36.7526 3.50862 36.6168C3.44172 36.4102 3.39747 36.3666 3.239 36.3509C3.11314 36.3385 3.00086 36.3778 2.90507 36.4677ZM1.46016 36.627C1.22126 36.7956 1.28772 36.8904 1.6669 36.9221C1.92046 36.9433 2.05697 36.9922 2.17541 37.1044C2.33262 37.2532 2.33992 37.2542 2.42469 37.1374C2.5432 36.9741 2.47479 36.8886 2.26018 36.9319C2.12078 36.96 2.07409 36.941 2.04337 36.8435C1.94834 36.5417 1.70762 36.4523 1.46016 36.627ZM40.7802 37.3247C40.7802 37.4756 40.808 37.6164 40.8419 37.6375C40.8935 37.6697 41.1195 37.5879 41.2164 37.502C41.2313 37.4888 41.1393 37.3818 41.0118 37.2641L40.7802 37.0503V37.3247ZM3.50943 37.134C3.49043 37.1531 3.33706 37.2031 3.16852 37.245C2.92244 37.3062 2.85806 37.3504 2.84132 37.4696L2.82043 37.618L3.0047 37.4807C3.22931 37.3134 3.60459 37.3222 3.63719 37.4956C3.65148 37.5717 3.618 37.6066 3.53077 37.6066C3.4139 37.6066 3.22314 37.818 3.04435 38.1458C2.95643 38.307 2.76278 38.3367 2.53602 38.2238C2.43332 38.1726 2.12752 38.1303 1.80951 38.1233C1.33246 38.1127 1.2436 38.1279 1.13296 38.2394C1.06292 38.31 0.978961 38.3678 0.946361 38.3678C0.80394 38.3678 0.838302 38.2466 1.0402 38.0371C1.21943 37.8512 1.31906 37.8038 1.60749 37.7674C1.99749 37.7183 2.09202 37.61 1.91599 37.414C1.75822 37.2382 1.37469 37.2475 1.16575 37.4322C0.97015 37.605 0.751955 38.2089 0.713125 38.685C0.697454 38.8768 0.653966 39.1386 0.616394 39.2667C0.560445 39.4576 0.572529 39.5929 0.683231 40.0167C0.824142 40.5561 1.09948 41.0352 1.53467 41.4982C1.7185 41.6937 1.78188 41.7276 1.85287 41.6682C2.03318 41.5174 2.03349 41.2377 1.85375 40.9286C1.68886 40.645 1.67791 40.6383 1.43939 40.6768C1.22541 40.7113 1.19439 40.7007 1.19439 40.5932C1.19439 40.5256 1.26588 40.4136 1.3533 40.3443L1.51227 40.2182L1.32044 40.0806C1.10621 39.9268 0.879713 39.5282 0.879713 39.3051C0.879713 39.1315 1.09281 38.5229 1.19848 38.3946C1.23932 38.345 1.31497 38.3044 1.36657 38.3044C1.43838 38.3044 1.45141 38.3528 1.42202 38.5105C1.31944 39.0616 1.30792 39.2014 1.34751 39.4142C1.37104 39.5406 1.48206 39.7494 1.59415 39.8781C1.7063 40.0068 1.84777 40.1919 1.90857 40.2894C2.01543 40.4608 2.03179 40.4653 2.40915 40.4266C2.74245 40.3924 2.82452 40.3575 2.97317 40.1873C3.06883 40.0777 3.20577 39.8304 3.27758 39.6378C3.38583 39.3473 3.40087 39.2091 3.36575 38.8277C3.32636 38.3995 3.3319 38.3678 3.44612 38.3678C3.51711 38.3678 3.63864 38.4694 3.73468 38.6091C4.01153 39.0118 3.94186 39.5887 3.56639 40.0024C3.45091 40.1297 3.44442 40.1709 3.51076 40.3558C3.61686 40.6515 3.60579 40.7728 3.44455 41.0795C3.28891 41.3757 3.2599 41.393 3.14731 41.2563C3.0867 41.1827 3.09174 41.1214 3.17135 40.9606C3.30735 40.6857 3.24687 40.6541 3.01332 40.878C2.84661 41.0378 2.82401 41.0971 2.85101 41.304C2.88443 41.5607 2.98745 41.7297 3.11049 41.7297C3.26581 41.7297 3.84997 41.0535 4.04205 40.6514C4.20411 40.3121 4.24319 40.1435 4.26257 39.6999C4.28636 39.1561 4.27126 39.0777 3.86848 37.6591C3.7348 37.1881 3.62089 37.0216 3.50943 37.134ZM54.2627 38.1894C54.3015 38.307 54.437 38.3265 54.437 38.2145C54.437 38.1593 54.3922 38.1141 54.3374 38.1141C54.2826 38.1141 54.2489 38.1479 54.2627 38.1894ZM2.82445 38.4471C2.79135 38.531 2.80362 39.8902 2.83748 39.8902C2.93994 39.8902 3.20634 39.4894 3.24618 39.2753C3.28803 39.0506 3.20124 38.6808 3.06675 38.5105C3.01326 38.4428 2.84359 38.3984 2.82445 38.4471ZM1.60818 38.6956C1.48659 39.0788 1.58924 39.5409 1.84324 39.7533C1.9737 39.8625 2.03035 39.6872 1.93752 39.4614C1.89825 39.3658 1.84947 39.1471 1.82914 38.9754C1.79403 38.6781 1.66539 38.5152 1.60818 38.6956ZM52.3373 39.9857C52.3175 40.0378 52.327 40.0805 52.3584 40.0805C52.4438 40.0805 52.4968 39.9677 52.4308 39.9266C52.3992 39.907 52.3572 39.9336 52.3373 39.9857ZM52.5263 40.3148C52.4554 40.3862 52.4832 40.4611 52.5805 40.4611C52.6324 40.4611 52.6749 40.4342 52.6749 40.4014C52.6749 40.3214 52.5766 40.2641 52.5263 40.3148ZM54.3741 40.4331C54.3741 40.4874 54.4024 40.5143 54.437 40.4928C54.4717 40.4712 54.5 40.4267 54.5 40.3939C54.5 40.361 54.4717 40.3342 54.437 40.3342C54.4024 40.3342 54.3741 40.3787 54.3741 40.4331ZM54.1853 40.8416C54.1853 40.9234 54.2172 40.9684 54.264 40.9527C54.3073 40.9381 54.3426 40.8881 54.3426 40.8416C54.3426 40.7952 54.3073 40.7452 54.264 40.7306C54.2172 40.7149 54.1853 40.7599 54.1853 40.8416ZM2.29133 41.1429C2.26742 41.3086 2.20581 41.5516 2.15452 41.6828C2.03538 41.9876 2.12103 42.1103 2.45308 42.1103C2.7984 42.1103 2.85869 41.9999 2.70488 41.6495C2.63527 41.4909 2.5938 41.3205 2.61268 41.2709C2.6629 41.139 2.53426 40.8416 2.42702 40.8416C2.36522 40.8416 2.3206 40.9407 2.29133 41.1429ZM53.4458 41.5908C53.3835 41.6314 53.3848 41.6664 53.4524 41.7596C53.556 41.9022 53.764 41.8455 53.7329 41.6831C53.7093 41.5593 53.5653 41.513 53.4458 41.5908Z" fill="white"></path></svg> 