<?xml version="1.0" encoding="UTF-8"?> <svg xmlns="http://www.w3.org/2000/svg" width="162" height="45" viewBox="0 0 162 45" fill="none"><path d="M58.0249 0.36C57.9699 0.635 57.3649 0.524998 56.2099 0.799998C54.3949 1.24 51.8649 2.89 50.5449 4.045C54.1199 7.18 55.6049 11.8 55.6049 15.595C55.6049 19.17 54.6149 22.415 52.6899 25.275C50.7649 28.08 48.7299 30.335 46.4749 32.04C42.2949 35.175 35.6399 37.485 26.8399 37.43C23.2099 37.375 19.6899 37.1 16.3349 36.55C12.9799 36 10.1749 35.615 7.80993 35.34C9.84493 40.565 14.1899 43.755 21.4499 43.755C24.8049 43.755 27.4449 42.765 28.5999 41.94C29.0949 41.665 29.4249 41.39 29.6449 41.445C29.9199 41.72 29.4249 42.105 29.1499 42.325C27.8849 43.26 24.9699 44.415 21.2299 44.415C13.7499 44.415 9.18493 41.06 6.81993 35.505C6.15993 35.56 4.12493 36.66 1.86993 36.66C0.824932 36.66 -6.83889e-05 36.385 -6.83889e-05 35.725C-6.83889e-05 35.01 0.494932 34.57 1.42993 34.35C2.36493 34.075 3.24493 33.965 4.12493 33.965C5.00493 33.965 5.93993 34.13 6.43493 34.185C5.99493 32.59 5.66493 30.665 5.66493 28.3C5.66493 19.995 9.40493 12.68 15.9499 7.4C21.2849 3 28.5999 -0.190003 36.7949 -0.190003C43.3949 -0.190003 47.0249 1.405 49.6649 3.33C50.3249 2.835 51.2599 2.23 52.4699 1.57C53.6799 0.909999 54.7799 0.469998 55.8249 0.249998C56.7599 0.0299976 58.0799 -0.0250017 58.0249 0.36ZM49.0049 3.825C46.8599 2.23 43.3949 0.744998 37.8949 0.744998C33.7149 0.744998 29.8099 1.57 26.1799 3.275C22.6049 4.98 19.6349 6.795 17.2699 8.72C11.1099 13.78 6.70993 20.655 6.70993 28.3C6.70993 30.555 6.81993 32.535 7.42493 34.295C11.6599 34.46 15.6749 33.36 19.4699 30.995C23.2649 28.63 27.6099 24.835 32.3949 19.61C35.1449 16.695 37.9499 13.78 40.7549 10.92C43.6149 8.06 46.3649 5.695 49.0049 3.825ZM45.2099 29.73C47.2449 27.86 49.1149 25.55 50.8199 22.745C52.5249 19.94 53.4049 16.805 53.4049 13.45C53.4049 9.49 51.9199 6.355 49.8849 4.54C47.2449 6.96 44.7149 9.655 42.3499 12.625C39.9849 15.595 37.8949 18.07 36.1349 20.05C30.7999 26.045 26.0149 29.95 21.8349 31.765C17.7099 33.58 13.9699 34.57 10.6699 34.79C12.6499 35.175 15.1799 35.56 18.3149 35.945C21.4499 36.33 24.3099 36.495 26.8949 36.495C31.7899 36.495 35.7499 35.725 38.6649 34.13C41.5799 32.535 43.7799 31.05 45.2099 29.73ZM56.8192 33.91C56.8192 32.535 57.5892 29.675 61.1092 26.32C62.9242 24.615 65.0142 23.075 67.3242 21.755C69.6892 20.38 71.5042 19.72 72.8242 19.72C73.9242 19.72 74.4742 20.38 74.4742 21.095C74.4742 22.25 73.0992 23.735 71.5592 24.78C69.7992 25.935 67.2692 26.925 65.6742 26.925C65.2342 26.925 64.8492 26.76 64.6292 26.705C63.2542 27.97 61.9892 29.345 60.7242 30.885C59.4592 32.425 58.8542 33.69 58.8542 34.68C58.8542 35.34 59.3492 35.67 60.0642 35.67C60.9442 35.67 61.9342 35.395 62.9792 34.845C64.0242 34.24 64.8492 33.8 65.3992 33.415C66.6642 32.59 67.9842 31.545 69.4692 30.335C70.9542 29.07 71.8342 28.355 72.1092 28.08C73.4842 26.925 75.1892 25.165 77.6642 22.8C77.8842 22.58 78.1042 22.36 78.3242 22.525C78.5992 22.745 78.2142 23.13 77.9942 23.35C76.3992 25.055 74.1442 27.2 72.4392 28.74C70.7342 30.28 69.0292 31.765 66.7742 33.36C64.5192 34.955 61.8792 36.495 59.6242 36.495C57.8092 36.495 56.8192 35.615 56.8192 33.91ZM73.5392 20.71C73.5392 20.49 73.4292 20.38 73.1542 20.38C72.5492 20.38 71.3942 21.04 69.5792 22.415C67.7642 23.79 66.2792 25.055 65.0142 26.32C65.0692 26.375 65.2892 26.43 65.4542 26.43C66.5542 26.43 68.9192 25.55 70.9542 23.845C72.4942 22.69 73.5392 21.37 73.5392 20.71ZM87.7206 21.315C88.4356 21.315 90.9106 21.37 92.0656 21.425C92.1206 21.425 92.3956 21.535 92.3406 21.81C92.2856 22.03 91.9556 22.03 91.7356 22.03C90.8006 22.03 88.4906 21.975 87.2256 22.03C83.6506 25.605 80.2406 29.125 78.4256 31.38C77.2706 32.92 76.5006 34.075 76.5006 34.735C76.5006 35.23 76.7756 35.56 77.3806 35.56C78.5356 35.56 80.5156 34.405 82.0556 33.25C83.7606 31.93 86.3456 29.73 87.9406 28.355C88.1606 28.135 88.4906 27.86 88.7106 28.08C88.9856 28.355 88.6006 28.685 88.3256 28.96C86.9506 30.225 84.2556 32.535 82.2206 34.075C80.2406 35.56 78.4256 36.495 76.9406 36.495C75.5656 36.495 74.6856 35.615 74.6856 34.24C74.6856 33.415 75.0156 32.37 75.6206 31.435C76.7756 29.51 79.6356 26.375 83.9806 21.975C83.0456 21.975 81.3406 21.92 80.6256 21.975C80.4606 21.975 80.0206 21.975 80.0756 21.7C80.1306 21.48 80.4056 21.37 80.6806 21.37C81.3406 21.315 83.1556 21.315 84.5306 21.315C89.0956 16.86 92.0656 14.495 94.3206 13.175C95.1456 12.68 96.4656 12.02 97.4006 11.745C98.1156 11.525 98.9956 11.36 99.9306 11.36C100.151 11.36 100.426 11.36 100.701 11.415C100.921 11.47 100.921 11.525 100.701 11.58C99.1056 11.855 97.2356 13.12 96.3006 13.835C94.4856 15.21 90.8556 18.18 87.7206 21.315ZM113.161 20.27H113.601C111.236 22.36 109.036 24.45 106.946 26.595C104.911 28.685 103.371 30.28 102.436 31.435C101.061 33.03 100.126 34.295 100.126 35.01C100.126 35.285 100.291 35.505 100.676 35.505C101.171 35.505 101.996 35.175 103.041 34.46C104.086 33.745 105.021 33.085 105.736 32.535C107.496 31.16 109.531 29.29 110.851 28.135C111.071 28.08 111.401 27.75 111.621 28.025C111.841 28.245 111.621 28.465 111.346 28.685C109.751 30.225 107.606 31.985 106.231 33.085C105.406 33.745 104.416 34.46 103.261 35.23C102.106 36 101.116 36.385 100.291 36.385C98.9707 36.385 98.3657 35.78 98.3657 34.515C98.3657 33.8 98.8057 32.48 99.9607 31.105C96.8257 33.965 93.3057 36.385 91.5457 36.385C90.2257 36.385 89.6757 35.67 89.6757 34.57C89.6207 32.59 91.4907 29.345 93.9657 26.87C95.8357 25 98.0357 23.35 100.566 21.92C103.151 20.435 105.186 19.72 106.781 19.72C107.716 19.72 108.541 19.995 108.541 20.93C108.541 21.535 108.101 22.525 106.946 23.68C106.891 23.735 106.946 23.79 107.001 23.735C108.706 22.14 110.576 20.765 111.456 20.49C112.061 20.27 112.556 20.27 113.161 20.27ZM107.771 21.15C107.771 20.765 107.551 20.545 107.111 20.545C105.571 20.545 101.611 23.295 96.4957 28.19C93.8007 30.885 91.4357 33.855 91.4357 35.01C91.4357 35.285 91.4907 35.56 91.9857 35.56C92.7007 35.56 94.0207 34.845 96.0007 33.36C98.0357 31.875 100.126 30.06 102.271 27.86L105.736 24.34C107.111 22.91 107.771 21.865 107.771 21.15ZM131.776 15.485C131.776 16.31 131.061 17.025 130.236 17.025C129.411 17.025 128.641 16.31 128.641 15.485C128.641 14.66 129.411 13.945 130.236 13.945C131.061 13.945 131.776 14.66 131.776 15.485ZM127.981 20.05C125.616 22.14 123.361 24.285 121.216 26.485C119.071 28.63 117.476 30.28 116.541 31.435C115.221 33.03 114.341 34.24 114.341 35.065C114.341 35.34 114.561 35.615 114.946 35.615C115.551 35.615 116.321 35.285 117.311 34.68C118.356 34.075 119.181 33.525 119.896 33.03C120.831 32.315 121.821 31.49 122.976 30.555L125.561 28.355C125.836 28.08 126.166 27.86 126.386 28.135C126.551 28.3 126.441 28.52 126.166 28.74C125.451 29.345 124.516 30.225 123.251 31.27C121.986 32.315 121.051 33.085 120.391 33.58C118.631 34.9 116.156 36.495 114.341 36.495C113.021 36.495 112.416 35.89 112.416 34.735C112.416 33.14 114.011 30.5 116.486 27.86C117.531 26.76 118.961 25.44 120.666 23.845C122.426 22.25 123.856 21.205 124.956 20.6C125.781 20.16 127.266 19.995 127.981 20.05ZM158.391 6.96C158.556 6.96 158.611 7.015 158.391 7.07C156.906 7.455 154.981 8.775 154.046 9.49C148.491 13.67 143.101 18.785 136.941 25.11C134.576 27.585 132.211 30.17 130.726 32.15C129.791 33.415 129.186 34.405 129.186 35.01C129.186 35.285 129.406 35.505 129.791 35.505C130.616 35.505 132.211 34.68 134.136 33.305C134.961 32.755 135.951 31.985 137.216 30.94C138.481 29.895 139.416 29.07 140.076 28.465C140.296 28.3 140.626 27.915 140.901 28.19C141.066 28.41 140.901 28.685 140.626 28.96C140.021 29.565 139.031 30.39 137.766 31.435C136.501 32.48 135.346 33.36 134.301 34.075C132.376 35.45 130.451 36.495 129.186 36.495C128.031 36.495 127.316 35.78 127.316 34.625C127.316 33.8 127.811 32.645 128.526 31.49C129.681 29.675 132.156 26.65 135.621 23.13C138.591 20.105 141.506 17.355 144.421 14.77C147.336 12.185 149.756 10.26 151.626 8.995C152.781 8.28 153.936 7.62 154.981 7.345C155.861 7.07 157.016 6.905 158.391 6.96ZM160.536 15.485C160.921 15.485 161.196 15.65 161.196 16.035C161.196 16.53 160.371 17.74 158.391 19.115C157.071 20.05 155.366 20.985 154.651 21.81C154.046 22.525 153.771 23.735 153.606 24.615C153.331 25.88 152.946 27.475 152.451 29.4C151.956 31.325 150.526 33.14 148.106 34.735C150.086 33.8 152.066 32.535 153.826 31.27C155.201 30.335 156.301 29.4 157.621 28.245C157.896 27.97 158.116 27.915 158.281 28.135C158.501 28.355 158.336 28.575 158.171 28.74C156.906 29.895 155.421 31.05 154.101 31.985C152.066 33.47 149.866 34.625 148.491 35.23C146.456 36.11 144.476 36.44 142.936 36.44C141.231 36.44 140.131 35.89 140.131 34.405C140.131 33.525 140.791 32.425 141.946 31.105C142.606 30.39 143.596 29.62 144.311 29.015C145.411 28.135 146.401 27.585 147.116 27.585C149.316 25.77 152.286 23.13 153.661 21.535C154.981 19.94 156.136 18.675 157.291 17.63C158.666 16.31 159.821 15.485 160.536 15.485ZM153.331 22.745C151.846 24.34 149.646 26.32 147.446 28.135C147.281 28.63 146.566 29.455 145.191 30.335L142.386 32.15C141.506 32.81 140.791 33.58 140.791 34.405C140.791 35.34 141.616 35.505 142.276 35.505C143.871 35.505 146.291 34.13 148.436 31.71C149.371 30.665 150.361 29.235 151.351 27.42C152.341 25.55 153.001 24.01 153.331 22.745Z" fill="#426E8F" fill-opacity="0.2"></path></svg> 