<?xml version="1.0" encoding="UTF-8"?> <svg xmlns="http://www.w3.org/2000/svg" viewBox="0 0 55 53.6519775390625" fill="none"><path fill-rule="evenodd" clip-rule="evenodd" d="M50.7545 0.0498835C50.7295 0.09090825 50.6625 0.297235 50.60575 0.5084725C50.49325 0.9287225 50.421 0.977525 49.6785 1.1344025C49.126 1.2510875 48.98025 1.42028 49.3205 1.5496525C49.75775 1.71588 49.79675 1.8533075 49.73125 2.9984C49.68175 3.865375 49.694 4.060225 49.7975 4.060225C49.86825 4.060225 50.013 3.8174 50.12425 3.512275C50.341 2.91745 50.826 2.39941 51.1795 2.3847775C51.8145 2.3584775 51.92725 2.3368075 51.96175 2.235125C51.9825 2.173635 51.86125 2.0648225 51.692 1.9932375C51.0725 1.73116 51.01225 1.5627075 51.08975 0.312145C51.10175 0.1210055 51.06 0.0274705 50.9535 0.0060783C50.869 -0.01086875 50.7795 0.0088586 50.7545 0.0498835ZM50.289 1.4156475C50.055 1.498345 50.034 1.5383525 50.0935 1.78867C50.13 1.9429525 50.16275 2.1838225 50.1665 2.3238425C50.1745 2.63575 50.231 2.64195 50.478 2.3581075C50.58325 2.2369775 50.718 2.12159 50.7775 2.1017725C50.854 2.076305 50.83675 1.9576775 50.7185 1.6944875C50.56025 1.34323 50.537 1.328135 50.289 1.4156475ZM52.2335 3.47375C52.114 3.5933 52.17375 4.11755 52.3455 4.454275L52.519 4.794875L52.3025 4.936925C52.00975 5.128625 52.0115 5.12955 51.9405 4.71005C51.87675 4.33175 51.4245 3.830925 51.211 3.90195C51.00925 3.9692 51.04825 4.255425 51.2845 4.4413C51.5675 4.663825 51.584 4.89925 51.37925 5.78205C51.2645 6.2775 51.25875 6.418825 51.35175 6.47625C51.51575 6.57765 51.59825 6.50505 51.761 6.115625C52.02075 5.49395 52.55425 5.0789 53.09325 5.0789C53.31075 5.0789 53.37575 5.037675 53.37575 4.899875C53.37575 4.796825 53.28925 4.693475 53.17175 4.65615C52.8925 4.567625 52.746 4.405275 52.68575 4.117725C52.65775 3.9842 52.61325 3.770825 52.58675 3.6435C52.54125 3.42355 52.36725 3.340025 52.2335 3.47375ZM30.965 4.70115C30.965 4.821275 31.0475 4.89525 31.2195 4.92905C31.35975 4.95665 31.8285 5.0437 32.2615 5.1226C32.69425 5.2015 33.257 5.305975 33.5115 5.354775L33.9745 5.4435L33.46525 5.398575C32.46325 5.310225 31.0075 5.0527 30.806 4.92795C30.69325 4.858225 30.58 4.801075 30.55475 4.801075C30.41725 4.801075 30.31225 5.2769 30.18525 6.475675C30.1075 7.209975 29.91425 8.4359 29.75525 9.1999C29.541 10.231075 29.47475 10.767925 29.49825 11.28355C29.5345 12.076 29.61125 12.21305 30.3785 12.857875C30.862 13.26405 31.28025 13.45815 32.56375 13.871925C33.3185 14.115275 35.12125 14.95255 35.80225 15.376125C36.073 15.544575 36.496 15.78655 36.742 15.9139C37.32875 16.21755 37.93125 16.7507 38.39125 17.373375C38.641 17.7115 38.7935 17.84595 38.85625 17.78325C39.103 17.53645 37.871 16.0241 37.10375 15.631825C36.96175 15.5592 36.49125 15.29335 36.05825 15.041075C35.0905 14.4771 33.358 13.732725 31.79825 13.2108C31.41625 13.0829 31.11375 12.93185 31.12575 12.8751C31.138 12.818325 31.089 12.794525 31.01725 12.822025C30.94075 12.851375 30.6945 12.68645 30.4245 12.425125C30.0405 12.0534 29.95175 11.904125 29.89775 11.538875C29.80575 10.916475 29.90725 10.4501 30.1345 10.4501C30.27275 10.4501 30.328 10.364425 30.37375 10.079675C30.4095 9.8562 30.48325 9.70925 30.56 9.70925C30.71325 9.70925 30.7145 9.753975 30.585 10.7157C30.529 11.1326 30.50925 11.57785 30.541 11.7051C30.61175 11.987 31.215 12.67265 31.39225 12.67265C31.58675 12.67265 31.5455 12.353625 31.32575 12.1547C30.97775 11.83985 30.88625 11.556375 30.96975 11.05205C31.012 10.797375 31.049 10.391 31.052 10.149125C31.057 9.756375 31.07975 9.709225 31.26575 9.70905C31.4715 9.708875 31.47375 9.7223 31.44525 10.781175C31.41925 11.752325 31.43225 11.857725 31.58425 11.897725C31.6765 11.922075 31.8325 12.10795 31.93075 12.31085C32.268 13.00735 32.73125 13.318125 34.52 14.04795C36.192 14.7303 36.43525 14.8555 37.557 15.613025C37.92475 15.8613 38.23425 16.008625 38.3195 15.97595C38.56475 15.88185 38.39625 15.702025 37.5135 15.1158C36.53 14.462925 36.29875 14.3382 35.49075 14.02555C32.98975 13.057725 32.558 12.812125 32.205 12.156375C32.111 11.9819 31.981 11.8392 31.91625 11.8392C31.78825 11.8392 31.74625 10.548525 31.85625 9.998625L31.914 9.70925H33.3535C34.79575 9.70925 35.1375 9.750175 38.74375 10.355C40.58725 10.6642 41.831 10.736625 44.89525 10.713375C46.53125 10.700875 47.91775 10.7206 47.977 10.757175C48.036 10.793675 48.1135 10.776525 48.149 10.719125C48.1845 10.6616 48.156 10.57825 48.08575 10.5338C48.01575 10.489275 46.49975 10.45195 44.717 10.45075C41.0745 10.448325 40.8015 10.4261 37.29025 9.84685C35.0665 9.48005 34.6025 9.431425 33.327 9.431425H31.8825L31.9335 9.13045C32.22225 7.426025 32.34475 6.329175 32.25575 6.24175C32.0895 6.078225 31.92275 6.415125 31.85775 7.046425C31.82475 7.365 31.72925 8.049625 31.64525 8.56795C31.51075 9.39735 31.47075 9.50875 31.31225 9.4968C31.14575 9.4843 31.13675 9.433725 31.19375 8.83225C31.2275 8.47415 31.317 7.889525 31.39225 7.532975C31.57725 6.656 31.5845 6.539225 31.45725 6.49485C31.27325 6.430775 31.167 6.7585 30.952 8.051675C30.76075 9.202775 30.66475 9.53255 30.55325 9.421125C30.529 9.396875 30.65075 8.54535 30.82375 7.5289C31.107 5.86475 31.1325 5.29355 30.9075 5.649625C30.8645 5.7177 30.73875 6.273525 30.62825 6.884725C30.40525 8.11955 30.3585 7.987225 30.50725 6.541075C30.635 5.29735 30.60625 5.357375 31.02825 5.45665C31.351 5.532575 34.2105 5.91115 35.549 6.05515C35.8545 6.088125 37.063 6.2751 38.2345 6.470875C39.406 6.66665 41.28125 6.935025 42.40175 7.06735C43.52225 7.1996 45.106 7.411025 45.921 7.53705C46.73575 7.663175 47.84025 7.831625 48.375 7.911375C50.21525 8.185775 51.572 8.42265 52.54225 8.638975C53.077 8.75825 53.7335 8.88505 54.00075 8.920775C54.268 8.956525 54.5075 9.019225 54.53275 9.06015C54.6245 9.208525 54.28525 10.4501 54.15275 10.4501C53.9985 10.4501 53.9965 10.41415 54.12375 9.955475C54.178 9.7599 54.19725 9.53365 54.16625 9.4529C54.07225 9.20815 53.8005 9.558575 53.78725 9.941575C53.781 10.12005 53.7515 10.29045 53.7215 10.32025C53.69175 10.350175 53.362 10.346 52.98875 10.311L52.31 10.247375L52.3105 9.9552C52.31075 9.556425 52.04375 9.55255 52.005 9.95075L51.977 10.2385L51.27325 10.298025C50.88625 10.330725 50.38825 10.357475 50.16675 10.357475C49.94525 10.357475 49.764 10.39545 49.764 10.44195C49.764 10.58585 50.482 10.6566 51.25125 10.58855L51.98575 10.523525L51.9305 10.97295C51.85225 11.610075 51.71675 12.1085 51.5145 12.50505C51.39075 12.74775 51.37025 12.866675 51.4445 12.912425C51.69575 13.0678 52.11525 12.08535 52.23 11.0737L52.29025 10.53975L52.7635 10.593175C53.786 10.708475 53.73075 10.62115 53.466 11.700275C53.36625 12.10775 53.3055 12.263975 53.33125 12.04755C53.37175 11.706025 53.3545 11.653975 53.20175 11.653975C53.05425 11.653975 53.0025 11.77845 52.88375 12.41845C52.6895 13.465825 52.434 14.104275 51.9345 14.79075C51.4105 15.510875 51.22075 15.59505 49.59025 15.83055C48.22575 16.027625 47.79525 16.136325 47.59825 16.3335C47.52825 16.403325 47.3725 16.477225 47.25175 16.497775C47.131 16.51835 47.08425 16.517325 47.148 16.49555C47.265 16.45545 47.30475 16.263675 47.2145 16.173375C47.1395 16.098375 45.6575 16.427225 44.67075 16.737925C44.1455 16.9033 43.8655 16.959425 43.97625 16.8772C44.18075 16.72495 45.817 16.191725 46.07925 16.191725C46.18175 16.191725 46.245 16.1229 46.245 16.0115C46.245 15.83815 46.2265 15.836575 45.75875 15.970575C44.1895 16.420075 43.46675 16.777075 43.46675 17.1026C43.46675 17.192425 43.4215 17.31125 43.36625 17.366625C43.1845 17.548325 43.44425 17.5972 43.7505 17.43885C44.19875 17.20715 44.17275 17.344125 43.71825 17.61055C43.49525 17.741225 43.115 18.0885 42.87325 18.38225C42.63125 18.676075 42.35675 18.9701 42.26325 19.035675C42.09 19.1569 41.6415 20.387925 41.3315 21.59235C41.2095 22.065125 41.17525 22.136975 41.21275 21.840725C41.2415 21.611525 41.3645 21.02995 41.48575 20.5484C41.618 20.022775 41.67275 19.6391 41.622 19.588525C41.46225 19.4286 41.25375 20.0511 40.9475 21.603L40.64225 23.15085L40.32625 23.1011C40.15225 23.0737 39.9705 23.01175 39.922 22.963325C39.8445 22.8858 39.916 21.626075 40.096 19.896C40.11975 19.6668 40.08075 19.2857 40.00925 19.0491L39.879 18.61895L40.18825 18.748125C40.56975 18.9076 41.7675 18.915275 42.06725 18.760175C42.4555 18.5594 42.24975 18.4591 41.519 18.492725C40.644 18.533 40.081 18.394175 40.00925 18.120525C39.96525 17.9518 39.93475 17.9393 39.8135 18.039975C39.7345 18.105525 39.67 18.21305 39.67 18.278975C39.67 18.344925 39.6235 18.414275 39.567 18.433175C39.49575 18.456975 39.51175 18.608375 39.6195 18.92565C39.76375 19.349975 39.7645 19.482975 39.631 20.727975C39.55175 21.46735 39.476 22.1843 39.46275 22.321275L39.4385 22.5702L39.0315 22.2005C38.22775 21.4704 38.0545 21.42095 36.39975 21.4478C35.3955 21.4642 34.7555 21.43075 34.3625 21.3414C33.39025 21.120425 32.88825 21.084875 32.22775 21.19045C31.01075 21.384925 30.44325 21.8536 30.30125 22.78135C30.04675 24.4441 30.08625 24.664975 30.733 25.2055C31.46925 25.821 31.74975 25.85375 32.788 25.446C33.186 25.2895 33.55325 25.15025 33.60425 25.13625C33.655 25.12225 33.90525 25.0175 34.15975 24.9036C35.2295 24.425025 35.9925 24.3077 36.58075 24.531425C37.0415 24.70655 38.5565 24.7423 39.04475 24.5895L39.48425 24.451975L39.303 24.70645C38.93525 25.223 38.3745 25.6245 37.2995 26.141C36.69325 26.43225 36.06125 26.774 35.89525 26.90025C35.598 27.1265 35.22475 27.729 35.22475 27.9825C35.22475 28.05375 35.101 28.3575 34.95 28.6575C34.7715 29.0115 34.641 29.461 34.578 29.9375C34.52475 30.3415 34.47125 30.677 34.4595 30.68275C34.29425 30.76475 33.257 31.66175 32.70125 32.2035C32.0105 32.8765 31.9835 32.919 31.9835 33.33075C31.9835 33.79825 32.176 34.06475 32.513 34.06475C32.65575 34.06475 32.71825 33.9875 32.7615 33.757C32.82325 33.42875 32.87675 33.359 33.84325 32.34725C34.27975 31.89025 34.49775 31.5795 34.57025 31.31025C34.627 31.099 34.7725 30.84825 34.8935 30.75325C35.3165 30.4205 35.51125 29.9145 35.49025 29.203L35.471 28.55475L35.834 28.30525C36.03375 28.16825 36.54525 27.92375 36.97075 27.76225C37.39625 27.60075 38.01325 27.28475 38.3415 27.05975L38.9385 26.651L38.88825 26.95475C38.86075 27.12175 38.79375 27.6125 38.7395 28.0455C38.623 28.9745 38.2715 30.59425 37.9055 31.8885C37.76125 32.398 37.617 33.04375 37.585 33.324C37.55275 33.604 37.40775 34.271 37.26225 34.80575C37.117 35.3405 36.9715 35.91075 36.939 36.07275C36.89675 36.2825 36.83075 36.364 36.7105 36.35475C36.6175 36.348 36.272 36.479 35.9425 36.646C35.3765 36.9335 35.274 36.953 34.074 37.00325C33.25825 37.0375 32.48075 37.01375 31.89925 36.93675C30.816 36.7935 30.417 36.85325 29.99675 37.22225C29.66875 37.51025 29.17375 38.38375 29.25975 38.523C29.3725 38.70525 29.58425 38.5785 29.76775 38.21925C30.02125 37.722 30.46525 37.32125 30.8405 37.251C31.0075 37.2195 31.447 37.26775 31.83925 37.36025C32.46375 37.50725 32.69325 37.51425 33.94775 37.42425C35.323 37.32575 35.37225 37.31475 36.06625 36.954L36.7765 36.58475L36.63575 36.94325C36.46175 37.38575 36.5315 37.49025 37.20625 37.799C37.94225 38.136 38.585 38.26175 39.18775 38.18675C39.852 38.104 40.09125 37.9885 39.9505 37.81875C39.8945 37.75125 39.8605 37.641 39.875 37.5735C39.89375 37.48625 39.72275 37.4325 39.27875 37.3865C38.93625 37.351 38.534 37.295 38.38475 37.26225C38.062 37.19125 37.943 37.3255 38.14775 37.53C38.2375 37.62 38.45425 37.6765 38.7095 37.6765C38.9635 37.6765 39.103 37.7125 39.068 37.76925C38.9695 37.9285 37.99225 37.7595 37.35475 37.473C36.88975 37.26375 36.786 37.1835 36.8985 37.11975C36.97875 37.0745 37.092 36.879 37.15025 36.6855C37.63025 35.09425 37.927 33.89725 37.9995 33.26125C38.04675 32.8475 38.1525 32.3485 38.2345 32.1525C38.553 31.39125 39.1565 28.43475 39.29925 26.93675C39.37375 26.1535 39.431 25.93675 39.64775 25.61075C39.7905 25.39625 39.965 25.10625 40.03575 24.966225C40.2205 24.600225 40.36975 24.65145 40.50275 25.12625C40.59 25.4375 40.594 25.6405 40.51875 25.93875C40.2865 26.86175 39.85525 29.17175 39.771 29.94375C39.5285 32.1715 39.38525 35.7125 39.5135 36.31775L39.5885 36.67225L38.86525 36.6255C38.46725 36.5995 38.017 36.565 37.864 36.54875C37.666 36.5275 37.58625 36.55875 37.58625 36.6575C37.58625 36.8665 38.1875 37.022 39.08025 37.04375C39.54625 37.055 39.92025 37.1085 39.98175 37.17225C40.0395 37.2325 40.31575 37.55375 40.596 37.8865C41.3125 38.73725 41.78125 38.93725 44.4375 39.5265C46.69125 40.0265 46.80325 40.08325 47.02675 40.8405C47.23225 41.53675 47.55 41.359 47.36 40.65375C47.227 40.1595 46.88775 39.76875 46.434 39.58725C46.23175 39.50625 45.367 39.29425 44.512 39.116C42.8505 38.76925 41.8955 38.497 41.522 38.2635C41.05625 37.97225 40.1185 36.889 39.9315 36.42625C39.72825 35.92325 39.72325 36.172 40.041 31.00875C40.12175 29.70025 40.69825 26.3395 40.873 26.1595C40.91575 26.11525 41.01375 26.20125 41.09125 26.35125C41.329 26.81075 41.85075 27.24175 43.03 27.95275C44.3185 28.7295 44.519 28.87525 44.5635 29.06625C44.581 29.1415 44.6305 29.55725 44.67375 29.99025C44.8065 31.323 45.41175 32.78275 46.09075 33.40675C46.22325 33.529 46.30575 33.67475 46.2735 33.731C46.2415 33.78725 46.246 33.806 46.28325 33.7725C46.32075 33.739 46.58175 33.83275 46.86325 33.98075C47.4625 34.296 47.624 34.31075 47.9225 34.0775C48.044 33.98275 48.32325 33.81375 48.543 33.70225C48.763 33.5905 48.92625 33.44925 48.90625 33.3885C48.88425 33.32225 48.594 33.25775 48.1825 33.22825C47.4535 33.17575 47.18825 33.04575 46.55875 32.43225C46.16325 32.047 46.048 31.80575 45.64975 30.528C45.4485 29.8825 45.1875 29.2645 45.00425 28.99775C44.835 28.75175 44.6655 28.44725 44.6275 28.321C44.437 27.6855 44.09275 27.286 43.2965 26.77575C42.85525 26.493 42.21675 26.039 41.8775 25.767C40.88325 24.969925 40.5005 24.26315 41.34225 24.7784C41.57325 24.9199 41.823 25.04875 41.897 25.06475C42.15725 25.121 43.557 26.05175 44.17975 26.5825C45.8265 27.9865 46.24975 28.1025 47.094 27.38125C47.69475 26.868 48.353 26.04075 48.45525 25.67075C48.5515 25.3225 48.38175 24.664125 48.1275 24.4002C48.017 24.285275 47.50875 23.97985 46.99775 23.7214C46.487 23.462925 46.097 23.22355 46.131 23.189475C46.16525 23.155375 46.13075 23.1513 46.05475 23.180575C45.9785 23.20975 45.61975 23.177525 45.257 23.108975C44.63375 22.9911 44.52725 22.998425 43.3145 23.242525C42.60875 23.384575 41.87525 23.502375 41.684 23.504225C41.256 23.5085 41.2545 23.491825 41.57 22.08985C41.9085 20.5859 42.34875 19.250975 42.48875 19.3047C42.55225 19.32905 42.76575 19.149025 42.9635 18.904725C43.52225 18.21425 43.83725 17.949025 44.39075 17.7027C45.6705 17.132975 47.57525 16.82005 50.69275 16.66745C52.5485 16.576675 52.7775 16.5037 53.17425 15.87835C53.59725 15.211375 53.933 14.067775 54.43575 11.58175C54.7005 10.271725 54.9485 9.131175 54.98625 9.0471C55.0735 8.853925 54.75575 8.733525 53.6535 8.542475C53.47525 8.51155 53.121 8.429225 52.8665 8.3595C52.13125 8.158175 50.1065 7.7733 48.7455 7.576125C48.05775 7.4765 46.995 7.313975 46.384 7.214875C44.8285 6.9627 43.408 6.77 42.2165 6.6495C40.935 6.51995 38.4215 6.08535 39.2995 6.145175C39.6305 6.167675 40.12575 6.21435 40.40025 6.2488C40.7975 6.2988 40.8905 6.286125 40.85725 6.186475C40.795 5.999675 40.5 5.9431 37.76275 5.5923C36.38275 5.415425 34.3425 5.102525 33.22875 4.897025C32.115 4.691425 31.15 4.52325 31.08425 4.52325C31.01875 4.52325 30.965 4.603275 30.965 4.70115ZM38.30575 6.06915C38.39575 6.092675 38.52075 6.0911 38.5835 6.065725C38.64625 6.04035 38.5725 6.021175 38.41975 6.023025C38.267 6.024875 38.2155 6.045625 38.30575 6.06915ZM30.324 8.281525C30.3285 8.3894 30.35025 8.41135 30.38 8.33755C30.40675 8.270675 30.40325 8.190775 30.3725 8.160025C30.34175 8.129275 30.32 8.1839 30.324 8.281525ZM16.36605 9.157575C16.3053 9.218325 16.292725 9.396325 16.333375 9.618575C16.421075 10.098375 16.288725 10.341175 15.7541 10.6816C15.2471 11.004425 15.18995 11.19095 15.59825 11.19095C16.138975 11.19095 16.253275 11.350425 16.8228 12.9002C17.046625 13.509175 17.16645 13.418425 17.16645 12.64005C17.16645 12.257125 17.207575 11.835775 17.257775 11.703625C17.390375 11.354875 17.7334 11.025 17.999925 10.9899C18.159575 10.968875 18.23145 10.901925 18.23145 10.774225C18.23145 10.6142 18.179675 10.593075 17.850825 10.618825C17.32565 10.660025 17.022725 10.383225 16.81205 9.669425C16.645825 9.106275 16.539425 8.984225 16.36605 9.157575ZM30.13875 9.2076C30.14325 9.315475 30.165 9.337425 30.19475 9.263625C30.2215 9.19675 30.218 9.116825 30.18725 9.086075C30.1565 9.05535 30.13475 9.109975 30.13875 9.2076ZM30.0535 9.70925C30.0535 9.836575 30.0745 9.8887 30.1 9.825C30.12575 9.761375 30.12575 9.6572 30.1 9.593475C30.0745 9.52985 30.0535 9.5819 30.0535 9.70925ZM16.395975 10.7105C16.16 10.95685 16.15815 10.967675 16.3328 11.076775C16.4319 11.138625 16.587025 11.331425 16.6776 11.50525L16.842325 11.821325L17.032375 11.390425L17.2224 10.959425L16.930775 10.708L16.63915 10.456675L16.395975 10.7105ZM53.93125 10.793675C53.93125 11.054625 53.3465 14.124725 53.28475 14.187975C53.08825 14.389125 53.0385 14.124275 53.15275 13.48575C53.31225 12.594675 53.2995 12.27815 53.135 13.043075C52.9555 13.87785 52.43225 14.898375 51.907 15.437525C51.407 15.95075 51.219 16.0115 49.55325 16.198375C49.00425 16.259875 48.5685 16.323575 48.585 16.339875C48.60125 16.356175 49.4045 16.32415 50.37 16.268775C52.28525 16.15875 52.52775 16.09355 52.82425 15.608375C53.22325 14.955425 53.67775 13.46935 53.98425 11.8165C54.06225 11.396075 54.1475 10.979075 54.17375 10.889975C54.205 10.784225 54.17125 10.727925 54.0765 10.727925C53.99675 10.727925 53.93125 10.75745 53.93125 10.793675ZM52.409 11.2141C51.89475 12.91685 51.73875 13.27785 51.2595 13.87655C50.85175 14.385875 50.753 14.46665 50.236 14.714275C49.93075 14.8604 48.6955 15.17305 48.4235 15.17305C48.408 15.17305 48.40125 15.100075 48.4085 15.010975C48.4175 14.896425 48.3535 14.848925 48.18975 14.848925C48.00975 14.848925 47.952 14.902175 47.9305 15.08785C47.91 15.2639 47.80875 15.368075 47.54575 15.4842C47.16875 15.650425 47.01 15.8824 47.166 16.03835C47.22875 16.10115 47.31325 16.083075 47.42375 15.982975C47.6655 15.76405 48.0385 15.6408 49.03875 15.449C49.53125 15.35455 50.144 15.187025 50.40025 15.076725C50.959 14.836425 51.68425 14.101775 52.02325 13.4325C52.316 12.854725 52.7275 11.61945 52.7275 11.318C52.7275 11.0865 52.4725 11.003325 52.409 11.2141ZM51.0375 11.568775C50.86475 11.66935 50.81375 11.9318 50.967 11.9318C51.10925 11.9318 51.427 11.63 51.3745 11.5449C51.314 11.446825 51.2375 11.452275 51.0375 11.568775ZM19.090375 11.70565C18.97165 11.824375 19.160375 12.144525 19.5523 12.489575C19.782425 12.6921 19.928275 12.857875 19.876325 12.857875C19.824375 12.857875 19.7287 12.986325 19.6637 13.143375L19.545425 13.4288L19.433575 13.166525C19.271875 12.7873 18.982675 12.5645 18.631125 12.5481C18.38425 12.536525 18.32405 12.56885 18.32405 12.713025C18.32405 12.838425 18.41655 12.9164 18.6316 12.97205C18.973225 13.060575 19.13445 13.344425 19.250475 14.06175C19.333925 14.577475 19.447375 14.802625 19.623775 14.802625C19.726575 14.802625 19.75945 14.678525 19.75945 14.290325C19.75945 13.663 19.92975 13.2307 20.280725 12.96705C20.732275 12.62775 20.78395 12.5718 20.7284 12.481875C20.698775 12.434 20.5141 12.394825 20.317875 12.394825C20.0332 12.394825 19.912725 12.337225 19.7214 12.109875C19.589525 11.9532 19.481625 11.7865 19.481625 11.73945C19.481625 11.647225 19.175275 11.620725 19.090375 11.70565ZM36.96 14.30235C36.8395 14.42255 37.03275 14.64305 37.57475 15.0043C37.88675 15.2123 38.39825 15.6321 38.71125 15.937225C39.22475 16.4374 39.48475 16.54835 39.48475 16.267375C39.48475 16.081425 38.32725 15.028025 37.79475 14.729275C37.50175 14.564975 37.26225 14.3893 37.26225 14.33875C37.26225 14.238825 37.049 14.213075 36.96 14.30235ZM49.1775 14.30875C49.07075 14.415525 49.1105 14.7101 49.2315 14.708625C49.44375 14.706025 49.6065 14.54525 49.549 14.39525C49.491 14.2442 49.289 14.19715 49.1775 14.30875ZM47.09475 15.049125C47.13275 15.3827 47.4025 15.411225 47.4025 15.081725C47.4025 14.93245 47.34325 14.840025 47.2335 14.818925C47.097 14.792625 47.07025 14.8367 47.09475 15.049125ZM38.929 15.2775C38.929 15.335 39.19875 15.667925 39.5285 16.017425C39.87875 16.388775 40.1075 16.70625 40.0785 16.78125C40.04375 16.872375 40.227 16.981825 40.70825 17.157425C41.25175 17.3556 41.51625 17.3995 42.0335 17.377175C42.51875 17.35625 42.67975 17.316325 42.67975 17.216975C42.67975 17.116125 42.525 17.081575 42.0285 17.071475C41.2715 17.0562 40.41075 16.78645 40.41075 16.56455C40.41075 16.484075 40.1285 16.1381 39.78325 15.79565C39.186 15.202875 38.929 15.047 38.929 15.2775ZM46.28625 15.458925C46.25225 15.5143 46.26675 15.602375 46.319 15.6546C46.436 15.771475 46.6155 15.67275 46.6155 15.4917C46.6155 15.33575 46.377 15.31205 46.28625 15.458925ZM22.39875 15.677475C21.94035 15.795075 21.08605 16.0015 20.5003 16.13625C19.914575 16.271 19.10195 16.480475 18.694475 16.601775C18.287 16.723 17.015975 17.097975 15.869975 17.43505C14.72395 17.77205 12.932 18.3365 11.887875 18.689425C9.8383 19.382125 7.432275 20.101675 7.370875 20.040175C7.34995 20.01935 7.888925 19.825325 8.568575 19.6092C9.86405 19.1971 9.9987 19.13485 9.90895 18.98955C9.837825 18.87445 8.74415 19.171725 6.8408 19.8233C5.413725 20.3118 3.917675 20.755575 1.5622075 21.389175C0.37684 21.707925 0.21626 21.782025 0.37184 21.9376C0.4392575 22.005025 0.69115 21.97465 1.2006725 21.837675C1.603235 21.729425 2.3051 21.540875 2.76035 21.418725C3.2156 21.296475 3.605475 21.213775 3.6266 21.235C3.647725 21.2561 3.10855 21.445575 2.4284525 21.656075C1.748255 21.86665 1.02444 22.092625 0.8199625 22.158275C0.60067 22.228675 0.3664675 22.247475 0.2488575 22.20395C0.1131885 22.15375 0.0344745 22.1694 0.00243248 22.253025C-0.023497425 22.320525 0.160881 22.986925 0.4121225 23.7338C0.663365 24.480775 1.01416 25.6945 1.1916875 26.43075C1.3718075 27.17825 1.656575 28.0695 1.83614 28.44775C2.1069225 29.01825 2.21342 29.15 2.508275 29.278C3.15255 29.558 3.70355 29.64075 4.543675 29.584C6.5764 29.44625 8.4367 29.4215 9.71865 29.51525C11.2034 29.6235 11.9224 29.8045 12.56955 30.23275C12.840425 30.412 12.95285 30.44325 13.032675 30.36175C13.258625 30.131 12.0064 29.4035 11.122475 29.252C9.827825 29.03025 8.219525 28.96725 6.7019 29.079C3.4336 29.319 2.743775 29.2225 2.2980625 28.462C1.96153 27.88775 1.857715 27.48975 2.0443175 27.48975C2.2494425 27.48975 2.1707275 27.02575 1.659445 25.221C1.233175 23.716125 1.1760375 23.41505 1.316615 23.41505C1.35977 23.41505 1.48914 23.800575 1.604065 24.271675C1.9381 25.641 2.820275 28.25825 3.02335 28.48225C3.283875 28.76975 4.10315 29.038 4.20705 28.86975C4.30975 28.70375 4.154175 28.533 3.83625 28.46325C3.467775 28.38225 3.227375 28.08375 3.0153 27.4435C2.914075 27.13775 2.698875 26.5335 2.5369 26.10075C2.16369 25.10275 1.7827975 23.692875 1.85494 23.576175C1.8852225 23.5271 1.8526225 23.4481 1.7824275 23.4007C1.6893575 23.337725 1.7149175 23.3218 1.876795 23.3416C2.0772875 23.36615 2.14026 23.5032 2.52755 24.75785C3.231075 27.037 3.79525 28.29975 4.0639 28.1965C4.136775 28.16875 4.318825 28.24875 4.4684 28.3745C5.02515 28.843 5.3752 28.89725 7.303825 28.815C9.388975 28.726 9.717825 28.73675 10.858175 28.92975C11.47465 29.034 11.755725 29.048 11.825925 28.97775C12.01845 28.78525 11.72165 28.6725 10.5759 28.503C9.567975 28.35375 9.213025 28.34475 7.554525 28.427C5.52125 28.52775 5.24925 28.49475 4.6939 28.08025C4.53175 27.95925 4.33485 27.86025 4.256325 27.86025C4.1779 27.86025 4.05445 27.7455 3.982125 27.6055C3.715325 27.08925 3.186075 25.64225 2.870275 24.565775C2.69165 23.9567 2.51985 23.3919 2.4886475 23.3105C2.4423425 23.189925 2.582925 23.12465 3.2472 22.95795C4.51015 22.64105 4.8656 22.588075 6.367575 22.492225C7.13715 22.44315 8.454475 22.358775 9.294875 22.3047C11.250925 22.178925 12.497025 21.969825 15.360625 21.287025C16.633975 20.983475 17.833225 20.710825 18.025675 20.6813C18.242175 20.64795 18.352 20.589525 18.31395 20.52785C18.2106 20.360775 17.317325 20.497275 15.499525 20.9579C12.234025 21.78545 11.2122 21.945375 8.091 22.11745C5.512725 22.2596 4.46395 22.3759 3.4462 22.6327C2.896675 22.77125 2.44151 22.836175 2.265465 22.800975C2.04404 22.7567 1.97894 22.77615 1.97894 22.886825C1.97894 22.97405 1.861605 23.053525 1.6779675 23.09045C1.512385 23.1238 1.307725 23.170375 1.2230825 23.1941C1.11177 23.2252 1.05213 23.159375 1.0074 22.955625C0.972025 22.794675 0.886085 22.6742 0.80663 22.6742C0.7005025 22.6742 0.6820725 22.739675 0.7287475 22.952025C0.774865 23.161875 0.7566225 23.229825 0.6542925 23.229825C0.5128825 23.229825 0.372765 22.7669 0.4812075 22.657725C0.5154725 22.623175 1.0644475 22.443225 1.7011175 22.257925C2.33779 22.072625 3.212925 21.796475 3.64585 21.644125C4.978 21.17545 6.2935 20.769175 8.3688 20.185375C9.463875 19.877375 11.09525 19.376375 11.994 19.07215C12.89275 18.76785 14.43465 18.2837 15.42045 17.99615C16.40625 17.7087 17.796175 17.2942 18.50925 17.0751C19.222325 16.856075 20.305825 16.5628 20.917025 16.423425C21.8533 16.209875 22.585725 16.0216 23.486875 15.76275C23.59865 15.730625 23.6493 15.7685 23.65015 15.88455C23.650875 15.97705 23.811275 16.7091 24.006675 17.511375C24.252075 18.51855 24.327275 18.969925 24.24995 18.969925C24.1506 18.969925 23.90295 18.2198 23.533925 16.801075C23.468725 16.550475 23.358625 16.32645 23.28915 16.3033C23.1257 16.24885 23.17275 16.55455 23.542525 17.948475C23.822025 19.00195 23.8522 19.2571 23.6532 18.885275C23.524475 18.644675 23.371125 18.6345 23.371125 18.866475C23.371125 18.964725 23.287775 19.062725 23.18025 19.090875C22.985325 19.1418 22.9655 19.115025 22.8677 18.66895C22.8351 18.51975 22.7502 18.414275 22.66295 18.414275C22.541 18.414275 22.5247 18.481525 22.573225 18.7847C22.678225 19.441475 22.479125 19.179675 22.16825 18.252225C21.83875 17.2692 21.741975 17.096775 21.65195 17.331425C21.619825 17.41505 21.722625 17.8215 21.880425 18.234625C22.038125 18.64775 22.167225 19.039275 22.167225 19.10475C22.167225 19.2069 20.597175 19.725675 19.99865 19.82135C19.90095 19.8369 19.803725 19.901825 19.7826 19.96545C19.729725 20.124275 20.229975 20.113975 20.870725 19.943225C21.1594 19.866275 21.392675 19.8445 21.40925 19.89285C21.42525 19.9398 21.49795 19.95535 21.57075 19.927375C21.64355 19.899425 21.683175 19.844325 21.658825 19.80495C21.603525 19.7155 22.1538 19.5989 22.275775 19.6743C22.32495 19.70475 22.353 19.899325 22.338 20.10685C22.32095 20.343375 22.3531 20.498125 22.424225 20.521825C22.5047 20.548675 22.53765 20.4095 22.53765 20.042575C22.53765 19.758275 22.576375 19.52555 22.6236 19.52555C22.75 19.52555 22.8476 20.48165 22.7762 21.01995C22.692775 21.649125 22.365125 22.507775 22.23845 22.429425C22.17805 22.392125 22.16555 22.411275 22.206775 22.47805C22.298175 22.62595 21.56335 23.360775 21.41545 23.269375C21.349425 23.22855 21.3295 23.240575 21.3658 23.299375C21.39925 23.353475 21.214675 23.5498 20.955375 23.736025C20.5756 24.00885 20.4955 24.03905 20.54235 23.891525C20.624875 23.631575 20.46345 23.57175 20.2174 23.77095C19.986525 23.957925 20.048025 24.20675 20.3013 24.110425C20.3853 24.078575 20.3037 24.2112 20.119975 24.4051C19.71575 24.831925 19.635075 25.033 19.809725 25.178C19.91595 25.266 19.957825 25.2445 20.025325 25.06725C20.17645 24.6697 21.688625 23.430425 21.839025 23.580725C21.87525 23.616925 21.8932 23.6049 21.87895 23.55395C21.864775 23.503025 22.003875 23.3056 22.18815 23.1152C22.37245 22.9248 22.64055 22.5289 22.783975 22.235425C23.020325 21.751825 23.0468 21.59765 23.065975 20.59055C23.085425 19.5715 23.102 19.47695 23.266475 19.450825C23.553175 19.40545 23.695525 19.9709 23.6934 21.146175C23.69145 22.18625 23.57365 22.751325 23.29 23.0799C23.023925 23.388 20.9613 24.721275 20.8536 24.654675C20.79545 24.61875 20.774975 24.631625 20.8073 24.683775C20.83905 24.735175 20.75765 24.877025 20.626525 24.9991C20.4954 25.121 20.352775 25.312 20.309725 25.4235C20.266575 25.535 20.135625 25.67575 20.018575 25.736C19.8428 25.8265 19.82595 25.82425 19.921525 25.723C20.062 25.57425 20.073475 25.35975 19.94095 25.35975C19.7098 25.35975 17.93955 26.804 17.3036 27.51125C17.075325 27.76525 16.88865 27.95375 16.88865 27.93025C16.88865 27.7835 17.145725 27.19375 17.367875 26.83125C17.66125 26.35225 17.679325 26.285 17.513725 26.28775C17.37315 26.29 16.804275 27.24025 16.73435 27.58975C16.6986 27.76875 16.7402 27.897 16.879 28.03575C17.132 28.28875 17.188675 28.28175 17.370475 27.976C17.56485 27.649 18.12725 27.10625 18.04225 27.328C18.008075 27.41675 17.9499 27.48975 17.91315 27.48975C17.722475 27.48975 17.205725 28.44075 16.923925 29.30975L16.6072 30.287L16.74935 31.36575C16.8276 31.95875 16.951975 32.69425 17.0257 32.99975C17.0995 33.3055 17.157575 33.618 17.1548 33.6945C17.14655 33.9195 16.72075 32.2255 16.601925 31.495C16.5285 31.04325 16.451525 30.8235 16.366625 30.8235C16.06935 30.8235 16.390775 32.44925 17.222675 35.153C17.468175 35.95075 17.5804 36.19475 17.7021 36.19475C17.832125 36.19475 17.94305 36.53575 18.312575 38.07C18.881625 40.43375 18.910975 40.52675 19.72065 42.53825C20.089675 43.45525 20.5428 44.58025 20.727475 45.03875C21.16865 46.13375 21.2395 46.282 21.487125 46.62475C21.60215 46.784 21.666675 46.94375 21.63075 46.97975C21.594725 47.01575 21.60695 47.03125 21.6579 47.01425C21.708825 46.9975 21.76225 47.02525 21.7767 47.076C21.809575 47.192 20.720425 47.66925 20.4077 47.676C20.109775 47.68225 19.903275 47.814 19.984575 47.9455C20.08515 48.10825 20.446675 48.067 21.10985 47.8175C21.4474 47.6905 21.76725 47.6135 21.820775 47.6465C21.874225 47.6795 21.890975 47.663 21.857925 47.6095C21.79355 47.50525 22.045725 47.359 22.236675 47.38975C22.455525 47.425 22.3517 47.195 21.944325 46.742C21.6616 46.4275 21.449625 46.05325 21.2546 45.5245C21.09965 45.1045 20.842125 44.4485 20.682275 44.0665C20.52235 43.68425 20.274075 43.05925 20.130525 42.67725C19.986975 42.29525 19.723425 41.60775 19.544875 41.14925C19.366325 40.69075 18.967675 39.289 18.6589 38.03425C18.35015 36.77925 17.93305 35.1705 17.732 34.459C17.53095 33.74775 17.2824 32.649 17.1797 32.01775C16.92475 30.4505 16.903275 30.17525 17.03615 30.17525C17.096825 30.17525 17.2184 29.87325 17.3062 29.504C17.5054 28.667 17.75025 28.23475 18.40275 27.56875C19.26345 26.69025 20.513925 25.81225 22.22695 24.8838C24.137625 23.847975 24.80625 23.441725 24.97295 23.2151C25.348 22.7055 25.278 21.057 24.802725 19.20145C24.6853 18.743025 24.461475 17.8679 24.30535 17.2567C24.1492 16.6455 24.006025 15.99955 23.987125 15.8213C23.954825 15.515775 23.932225 15.49625 23.59255 15.4805C23.39435 15.471325 22.85715 15.55995 22.39875 15.677475ZM46.598 16.6254C46.665 16.65215 46.74475 16.648825 46.7755 16.618075C46.80625 16.587325 46.75175 16.565475 46.654 16.56945C46.54625 16.5739 46.52425 16.59585 46.598 16.6254ZM44.746 17.088425C44.81275 17.1152 44.89275 17.11185 44.9235 17.0811C44.95425 17.050375 44.8995 17.0285 44.802 17.0325C44.694 17.03695 44.672 17.058875 44.746 17.088425ZM44.30025 17.2104C44.22375 17.25975 44.203 17.300125 44.254 17.300125C44.305 17.300125 44.409 17.25975 44.4855 17.2104C44.562 17.161025 44.58275 17.12065 44.53175 17.12065C44.48075 17.12065 44.37675 17.161025 44.30025 17.2104ZM40.47375 17.64665C40.34525 17.854375 40.76575 18.056625 41.5915 18.184425C41.93525 18.237675 41.985 18.223525 41.985 18.0732C41.985 17.9379 41.871 17.877725 41.4525 17.792325C41.15975 17.7325 40.831 17.65685 40.72225 17.62415C40.61325 17.591475 40.5015 17.60155 40.47375 17.64665ZM23.83415 19.4436C23.83415 19.5174 23.89445 19.8057 23.96815 20.084175C24.052625 20.4031 24.08985 20.881875 24.0689 21.3777C24.031125 22.270525 23.974 22.59215 23.7898 22.948225C23.6345 23.24855 23.0921 23.83965 22.997 23.81215C22.959575 23.801325 22.456075 24.1034 21.877925 24.48355C20.711725 25.25025 20.597725 25.38675 21.63205 24.777675C22.00285 24.5594 22.702025 24.177675 23.1859 23.9294C24.77495 23.114175 24.90755 22.936 24.829875 21.721175C24.763275 20.67945 24.4875 19.34035 24.3396 19.34035C24.25245 19.34035 24.277925 19.54325 24.438325 20.126125C24.5775 20.632125 24.62095 20.93255 24.560375 20.97005C24.40165 21.068125 24.30905 20.893075 24.120675 20.13935C23.945375 19.437575 23.83415 19.167625 23.83415 19.4436ZM3.81375 21.163125C3.880525 21.1899 3.96045 21.18655 3.9912 21.155825C4.02195 21.125075 3.9673 21.1032 3.8697 21.1072C3.7618 21.111625 3.73985 21.133575 3.81375 21.163125ZM32.09025 21.471775C31.52875 21.589675 31.056 21.842125 30.83825 22.140225C30.62725 22.4287 30.67725 22.550375 30.947 22.405925C31.25875 22.239225 32.78325 22.11245 33.701 22.176975C34.35275 22.222725 34.83125 22.195525 35.58525 22.06975L36.59575 21.9012L37.369 22.279975C37.879 22.529825 38.309 22.672625 38.63275 22.699575L39.12375 22.7405L38.88075 22.48685C38.747 22.347375 38.4225 22.11615 38.1595 21.972975C37.685 21.7147 37.6695 21.71285 36.1835 21.735075C35.067 21.751825 34.54425 21.7208 34.129 21.6133C33.3955 21.423175 32.58825 21.36715 32.09025 21.471775ZM36.128 22.26505C36.09825 22.2947 35.164 22.3561 34.052 22.401475C31.52375 22.504625 30.77975 22.702625 30.77975 23.27235C30.77975 23.4772 31.22575 23.96125 31.58375 24.1448C31.948 24.3315 32.63375 24.257225 33.68625 23.916975C34.66275 23.6012 34.7605 23.5873 35.73225 23.6248C36.2935 23.646475 37.19025 23.718625 37.72525 23.7852C38.55225 23.888175 38.76675 23.8865 39.1605 23.773725C39.50725 23.67445 39.63075 23.5922 39.65175 23.44625C39.68725 23.20215 39.3205 23.058325 38.466 22.981375C38.01825 22.941 37.68825 22.835425 37.17725 22.569075C36.5205 22.2269 36.24575 22.14725 36.128 22.26505ZM41.07375 22.488975C41.07375 22.616325 41.09475 22.66845 41.12025 22.60475C41.146 22.541125 41.146 22.436925 41.12025 22.373225C41.09475 22.3096 41.07375 22.36165 41.07375 22.488975ZM20.98 22.7931C20.9212 22.86385 20.9138 22.964425 20.961575 23.04175C21.027975 23.149275 21.066975 23.15075 21.187825 23.05045C21.2681 22.983875 21.333775 22.8719 21.333775 22.8018C21.333775 22.64105 21.110675 22.635575 20.98 22.7931ZM40.97375 23.006C40.97825 23.1139 41.00025 23.13585 41.02975 23.062025C41.0565 22.995175 41.053 22.91525 41.02225 22.8845C40.9915 22.85375 40.96975 22.9084 40.97375 23.006ZM44.20775 23.297075C44.08025 23.320125 43.5595 23.4394 43.05 23.5621C42.54075 23.684825 41.91575 23.789825 41.661 23.795475L41.198 23.80575L41.61475 23.889375C41.84375 23.935325 42.94825 24.032825 44.06875 24.106C45.18925 24.17925 46.252 24.28305 46.43025 24.33685C46.954 24.49495 47.475 24.831475 47.69025 25.151L47.891 25.44875L48.00175 25.18125C48.0825 24.986025 48.0855 24.862875 48.0125 24.72635C47.867 24.45455 46.31425 23.650275 45.49825 23.424025C44.80275 23.231225 44.65225 23.2164 44.20775 23.297075ZM40.00575 23.624425C39.89125 24.051825 39.94125 24.25065 40.187 24.344075C40.47325 24.4529 40.55475 24.411675 40.73225 24.0684C40.865 23.8116 40.8625 23.806225 40.5695 23.7377C40.40575 23.69945 40.2375 23.674725 40.1955 23.682775C40.1535 23.690825 40.14375 23.657575 40.174 23.608975C40.204 23.56025 40.191 23.4972 40.145 23.468775C40.099 23.440425 40.03625 23.510425 40.00575 23.624425ZM0.9856375 24.37825C1.1453825 24.863225 1.2890175 25.247 1.3047625 25.23125C1.3696775 25.1665 0.8904375 23.56155 0.7968125 23.53035C0.74097 23.511725 0.82589 23.893275 0.9856375 24.37825ZM30.50175 24.074325C30.50175 24.51865 30.53075 24.58135 30.884 24.907675C31.35975 25.34675 31.794 25.50425 32.168 25.37375C32.99275 25.0865 34.477 24.40465 34.433 24.333425C34.40475 24.287875 34.43775 24.272125 34.5065 24.298525C34.575 24.324825 34.8115 24.282675 35.03225 24.2048C35.5275 24.03005 35.89575 24.029225 36.8455 24.200825C37.253 24.27445 37.82825 24.336125 38.124 24.337875C38.6935 24.3413 39.45425 24.187575 39.53775 24.052175C39.56525 24.00765 39.47175 24.015425 39.3295 24.0695C38.974 24.204625 37.66775 24.19655 37.0145 24.05515C36.18125 23.87475 34.51025 23.889575 34.1115 24.0808C33.932 24.166825 33.68175 24.25685 33.55575 24.28065C33.4295 24.30455 33.209 24.36955 33.06575 24.4252C32.67725 24.575875 31.7355 24.5492 31.373 24.37715C31.2 24.2951 30.93325 24.08525 30.78025 23.910875L30.50175 23.593775V24.074325ZM19.2476 24.159975C19.172325 24.28185 19.368925 24.526325 19.5422 24.526325C19.613975 24.526325 19.69825 24.45965 19.72955 24.378075C19.8202 24.141725 19.381525 23.943275 19.2476 24.159975ZM41.1705 24.245075C41.25725 24.300375 41.75725 24.46855 42.28175 24.61885C43.5115 24.971225 43.806 25.10325 44.791 25.74425C46.09825 26.59475 46.4395 26.6285 47.20225 25.9825C47.5375 25.69875 47.551 25.66725 47.441 25.42575C47.37525 25.28175 47.11925 25.053 46.85425 24.90195C46.32425 24.60005 45.70625 24.494575 43.5595 24.339725C42.82075 24.286475 41.94575 24.220825 41.61475 24.193775C41.16125 24.15675 41.05175 24.169425 41.1705 24.245075ZM39.44575 25.049C39.05825 25.58175 38.4035 26.04125 37.35475 26.51625C36.52725 26.891 35.77825 27.3875 35.69025 27.62C35.64975 27.72675 35.6265 27.825 35.63825 27.8385C35.65 27.85175 35.84325 27.76275 36.06725 27.6405C36.2915 27.51825 36.75225 27.32825 37.091 27.218C38.1655 26.86875 38.91925 26.215 39.64 25.00825C39.9795 24.4402 39.872 24.462625 39.44575 25.049ZM18.833375 25.08975C18.833375 25.31525 19.0498 25.2835 19.0948 25.05125C19.1126 24.959725 19.065375 24.89675 18.97905 24.89675C18.8932 24.89675 18.833375 24.97595 18.833375 25.08975ZM43.189 25.30475C43.189 25.32525 43.36625 25.446 43.5825 25.57325C43.799 25.70025 44.25675 26.06125 44.5995 26.37575C44.973 26.71825 45.26625 26.92025 45.3315 26.88C45.398 26.839 45.4155 26.853 45.37625 26.91625C45.2955 27.04675 45.96375 27.39725 46.293 27.39725C46.42575 27.39725 46.70175 27.26225 46.90875 27.09625C47.26325 26.81175 48.18975 25.7275 48.18975 25.59725C48.18975 25.56375 47.92925 25.74775 47.611 26.006C46.754 26.701 46.348 26.8765 45.88475 26.7515C45.67975 26.6965 45.48525 26.60775 45.4525 26.555C45.4195 26.50175 45.32525 26.48425 45.243 26.516C45.1605 26.5475 45.12125 26.54525 45.1555 26.511C45.243 26.4235 43.46225 25.26725 43.24 25.26725C43.21175 25.26725 43.189 25.284 43.189 25.30475ZM41.059 25.5045C41.059 25.6235 41.44825 26.2675 41.68125 26.53375C41.823 26.69575 42.3935 27.10425 42.949 27.44125C44.41175 28.3295 44.349 28.30375 44.0965 27.91C43.96025 27.6975 43.5665 27.3805 43.00375 27.03025C42.52 26.729 41.8845 26.25175 41.5915 25.9695C41.2985 25.6875 41.059 25.47825 41.059 25.5045ZM39.628 25.9385C39.603 26.05325 39.49525 26.793 39.3885 27.58225C39.282 28.37175 39.0925 29.51775 38.9675 30.129C38.5765 32.04275 38.353 33.3345 38.40425 33.38575C38.52975 33.51125 38.65125 33.2635 38.78725 32.6045C38.8685 32.21075 39.0355 31.451 39.158 30.91625C39.47975 29.51225 39.556 29.086 39.762 27.536C39.9845 25.861 39.988 25.73025 39.8105 25.73025C39.73525 25.73025 39.653 25.824 39.628 25.9385ZM19.342725 26.15725L18.9723 26.4885L19.365875 26.19425C19.704625 25.941 19.826775 25.81875 19.7363 25.82425C19.7236 25.825 19.54645 25.97475 19.342725 26.15725ZM1.5232225 26.15475C1.5276675 26.2625 1.549615 26.2845 1.5791575 26.21075C1.60592 26.14375 1.602585 26.064 1.57184 26.03325C1.541095 26.0025 1.51924 26.057 1.5232225 26.15475ZM1.6158275 26.525C1.6202725 26.633 1.6422225 26.655 1.6717625 26.581C1.6985275 26.51425 1.6951925 26.43425 1.6644475 26.4035C1.6337 26.37275 1.6118475 26.4275 1.6158275 26.525ZM18.577225 26.7515C18.4109 26.903 18.309325 27.02675 18.35155 27.02675C18.393775 27.02675 18.54805 26.90175 18.694475 26.749C19.0348 26.39375 18.96915 26.39525 18.577225 26.7515ZM1.708435 26.8955C1.71288 27.0035 1.7348275 27.02525 1.76437 26.9515C1.7911325 26.88475 1.7878 26.80475 1.7570525 26.774C1.7263075 26.74325 1.7044525 26.798 1.708435 26.8955ZM9.943125 28.03C9.943125 28.28325 9.978875 28.2985 10.8291 28.40675C11.23315 28.4585 11.832125 28.6065 12.160125 28.736C12.8609 29.01275 13.0236 29.02825 12.9824 28.81375C12.939525 28.59125 11.71145 28.13825 10.9155 28.0515C10.558975 28.0125 10.194275 27.949 10.1052 27.9105C9.980725 27.85675 9.943125 27.8845 9.943125 28.03ZM12.147825 27.96375C11.979175 28.068 12.11975 28.17375 12.721325 28.395C13.528875 28.69225 13.74 28.80675 13.74 28.948C13.74 29.24175 15.7043 28.872 16.21725 28.48125C16.28095 28.43275 16.333 28.33575 16.333 28.2655C16.333 28.119 16.043775 28.09375 15.909125 28.2285C15.7468 28.39075 14.738675 28.69375 14.36085 28.69375C14.1461 28.69375 13.948925 28.63725 13.8891 28.5585C13.744275 28.368 12.294775 27.873 12.147825 27.96375ZM35.05525 29.064C34.98775 29.24225 34.9 29.61225 34.86075 29.88625C34.79 30.3815 34.79025 30.383 34.95875 30.164C35.159 29.90375 35.25075 29.498 35.20875 29.05775L35.1785 28.74L35.05525 29.064ZM15.135875 29.334C14.5343 29.48825 14.332125 29.65175 14.64255 29.733C14.945925 29.81225 16.0047 29.498 16.038425 29.31875C16.0751 29.12275 15.951075 29.125 15.135875 29.334ZM16.238075 29.57625C16.17835 29.64825 15.8769 29.83325 15.56825 29.9875C14.9902 30.27625 14.503 30.34575 14.322225 30.165C14.188325 30.031 14.0018 30.148 14.034225 30.34575C14.0481 30.43025 14.02995 30.5465 13.993925 30.604C13.95725 30.66225 14.066625 30.855 14.241475 31.0405C14.413825 31.223 14.661825 31.65525 14.792675 32.001C15.378875 33.5495 15.828475 34.86925 16.243625 36.26025C16.49005 37.08575 16.84105 38.17675 17.02375 38.6845C17.5029 40.01675 18.1004 42.4565 18.239775 43.64975C18.275525 43.95525 18.40415 44.497 18.52565 44.8535C18.64725 45.21 18.828475 46.00175 18.9284 46.613C19.0284 47.22425 19.137875 47.82475 19.171575 47.94725C19.213725 48.10025 19.200475 48.15 19.129175 48.106C19.0173 48.03675 18.8833 48.158 18.35395 48.8075C18.165225 49.039 17.773125 49.35525 17.4742 49.51675C16.316875 50.14275 15.42805 50.54025 14.855375 50.68775C14.01255 50.90475 13.7813 51.04725 13.5032 51.52175C13.1965 52.04525 13.11945 53.1595 13.38625 53.214C13.50885 53.23875 13.554225 53.15125 13.60055 52.8C13.707325 51.991 13.753525 51.8435 13.98735 51.5655C14.14395 51.3795 14.3891 51.243 14.743575 51.14425C15.031975 51.064 15.460175 50.93725 15.694925 50.863C16.263725 50.68275 18.152175 49.59275 18.447575 49.274C18.576575 49.13475 18.7266 49.02075 18.780875 49.02075C18.83505 49.02075 18.879675 48.95825 18.879975 48.882C18.880325 48.8055 18.93765 48.64225 19.007475 48.519L19.13435 48.29525L19.253825 48.5185C19.3392 48.678 19.3442 48.75975 19.271425 48.80475C19.199175 48.8495 19.204825 48.9105 19.290575 49.01375C19.45245 49.209 20.573375 49.2105 21.226425 49.01675C21.491475 48.938 21.7555 48.90275 21.8132 48.93825C21.876075 48.97725 21.892475 48.96175 21.854125 48.89975C21.815975 48.838 21.93395 48.723 22.14705 48.6145C22.343175 48.51425 22.561925 48.3625 22.63295 48.27675C22.744725 48.142 22.74075 48.10525 22.6036 48.005C22.51645 47.94125 22.44505 47.84175 22.44505 47.7835C22.44505 47.647 22.477 47.6405 21.7982 47.91625C21.475825 48.04725 21.104 48.16275 20.97195 48.17275C20.6807 48.19525 20.6458 48.453 20.928525 48.49325C21.036675 48.50875 21.3597 48.439 21.646225 48.33825C21.93275 48.2375 22.167225 48.175 22.167225 48.1995C22.167225 48.224 21.945725 48.34525 21.675025 48.46925C21.1705 48.70025 20.30305 48.857 19.801675 48.808C19.54385 48.78275 19.52265 48.75525 19.553025 48.484C19.599525 48.06825 19.15705 45.428 18.93135 44.7745C18.828375 44.47625 18.704 43.91375 18.655025 43.52425C18.453975 41.926 17.59625 38.8985 16.14575 34.66675C15.15005 31.76225 14.963075 31.306 14.613475 30.93L14.3853 30.68475L14.82665 30.6245C15.069375 30.59125 15.4347 30.49375 15.63845 30.40775C15.989325 30.25925 16.610825 29.7505 16.610825 29.6115C16.610825 29.47675 16.3418 29.45125 16.238075 29.57625ZM44.949 30.04425C44.9495 30.58375 45.274 31.6815 45.64925 32.41225C46.03125 33.156 47.5135 34.22475 47.71375 33.90075C47.74875 33.84425 47.90125 33.73325 48.053 33.65425L48.32875 33.51025L47.88675 33.50975C47.4335 33.50925 47.00325 33.29525 46.39625 32.76825C46.2495 32.641 46.0945 32.54675 46.05175 32.55875C46.00875 32.571 45.996 32.523 46.023 32.4525C46.05025 32.38175 46.03 32.29775 45.97825 32.26575C45.9265 32.23375 45.69175 31.61575 45.4565 30.89225C45.22125 30.1685 45.01075 29.5585 44.98875 29.5365C44.9665 29.51425 44.94875 29.74275 44.949 30.04425ZM33.62425 31.79975C33.3295 32.031 33.114 32.26125 33.145 32.3115C33.17575 32.3615 33.16475 32.391 33.1205 32.377C33.00675 32.34125 32.49225 32.78775 32.35775 33.039C32.2945 33.157 32.27275 33.356 32.3075 33.49475L32.3695 33.74075L32.49825 33.4345C32.56925 33.266 32.9825 32.759 33.41675 32.3075C34.10275 31.5945 34.2805 31.379 34.183 31.37925C34.17025 31.37925 33.91875 31.5685 33.62425 31.79975ZM38.09725 34.895C37.996 35.09375 37.87075 35.28225 37.819 35.31425C37.65675 35.4145 37.717 35.63925 37.9065 35.63925C38.0225 35.63925 38.17275 35.4945 38.32325 35.2375C38.595 34.7735 38.612 34.66075 38.42 34.58725C38.3255 34.55075 38.223 34.6485 38.09725 34.895ZM17.259075 37.26625C17.259075 37.34625 17.4679 38.086 17.7232 38.91C17.978425 39.73425 18.423325 41.3565 18.7118 42.51525C19.0661 43.93825 19.276125 44.622 19.358925 44.622C19.524325 44.622 19.513675 44.42875 19.305575 43.6555C19.2088 43.29575 19.018325 42.4805 18.882275 41.84375C18.4587 39.86075 17.593 37.12075 17.3901 37.12075C17.31805 37.12075 17.259075 37.18625 17.259075 37.26625ZM30.289 37.6425C30.25325 37.67825 30.224 37.81775 30.224 37.9525C30.224 38.35475 30.6525 38.65625 31.9395 39.16025C32.6005 39.419 33.016 39.6035 32.86325 39.57025C31.80425 39.339 30.3435 39.0655 30.1675 39.0655C29.92575 39.0655 29.79075 39.225 29.92175 39.356C29.97075 39.405 30.44675 39.52375 30.9795 39.61975C31.51225 39.71575 32.8835 40.02275 34.02625 40.30175C36.42275 40.887 36.94725 40.9945 39.34575 41.394C40.9065 41.654 41.325 41.688 43.05 41.696C45.54175 41.7075 47.171 41.5975 47.171 41.418C47.171 41.3155 46.9705 41.2865 46.22175 41.28025L45.27275 41.2725L45.77875 41.15025C46.369 41.0075 46.667 40.724 46.51825 40.446C46.39625 40.21825 46.245 40.219 46.245 40.4475C46.245 40.767 45.69675 40.867 43.92975 40.86925C43.0385 40.8705 41.91325 40.8505 41.4295 40.82525C40.59425 40.78125 40.54825 40.7885 40.5225 40.9695C40.49575 41.156 40.4765 41.1575 39.64075 41.043C38.08625 40.82975 35.07525 40.1995 35.5325 40.183C35.63725 40.17925 35.69 40.11975 35.6715 40.0265C35.64975 39.91725 35.34525 39.80375 34.56225 39.6135C33.36425 39.32225 31.24475 38.573 30.847 38.3C30.65825 38.17075 30.59675 38.05875 30.6155 37.88025C30.64025 37.64175 30.4375 37.494 30.289 37.6425ZM41.31475 41.261C41.43 41.28325 41.59675 41.28225 41.68525 41.25925C41.77375 41.236 41.6795 41.218 41.47575 41.219C41.272 41.22 41.1995 41.239 41.31475 41.261ZM42.5175 41.3535C42.63225 41.3755 42.81975 41.3755 42.93425 41.3535C43.04875 41.3315 42.95525 41.31325 42.726 41.31325C42.49675 41.31325 42.403 41.3315 42.5175 41.3535ZM44.41775 41.35225C44.508 41.37575 44.633 41.37425 44.6955 41.349C44.75825 41.3235 44.6845 41.3045 44.53175 41.30625C44.379 41.308 44.32775 41.32875 44.41775 41.35225ZM19.786125 45.752C19.733425 45.81825 19.6699 46.0945 19.645075 46.36625C19.61045 46.74475 19.63155 46.87225 19.735375 46.91225C19.929575 46.98675 20.0344 46.76825 20.0344 46.289C20.0344 45.79075 19.931975 45.56925 19.786125 45.752ZM28.64975 46.95125C28.4205 46.999 27.733 47.158 27.12175 47.30475C24.831425 47.85425 24.210125 47.878 23.252675 47.45275C22.65935 47.18925 22.44505 47.157 22.44505 47.3315C22.44505 47.443 22.7161 47.56875 23.83415 47.975C24.2994 48.144 24.415625 48.15075 25.177 48.05275C25.63525 47.99375 26.60125 47.80175 27.3235 47.626C28.04575 47.45 28.888 47.27975 29.195 47.24775L29.7535 47.18925L30.18675 47.6165C30.6035 48.02725 30.77975 48.08725 30.77975 47.8185C30.77975 47.6345 30.3365 47.1375 30.0325 46.98025C29.7415 46.82975 29.2795 46.82 28.64975 46.95125ZM29.3605 47.55375C29.327 47.58725 29.346 47.67075 29.40275 47.739C29.5475 47.9135 29.40375 48.062 28.61425 48.55375C27.82975 49.0425 26.90675 49.47075 25.62425 49.941C25.106 50.13075 24.606025 50.34525 24.512875 50.4175C24.351 50.543 24.3507 50.5545 24.507775 50.67625C24.653175 50.78925 24.478425 50.858 22.97975 51.27625C22.048975 51.536 20.974925 51.813 20.592925 51.89175C20.2109 51.97075 19.815025 52.05475 19.71315 52.0785C19.611275 52.102 19.580075 52.0975 19.6437 52.06825C19.8402 51.978 19.773625 51.75275 19.551075 51.75475C19.43645 51.756 18.9747 51.838 18.524825 51.9375C17.605975 52.14075 16.159625 52.30425 15.150875 52.319C14.469 52.329 14.20305 52.23 14.20305 51.966C14.20305 51.7785 13.88835 51.85575 13.850475 52.0525C13.833625 52.14 13.930875 52.3225 14.06655 52.45825L14.31315 52.70475L15.6704 52.65275C16.4168 52.62425 16.9442 52.62225 16.842325 52.64825C16.740475 52.674 16.21955 52.79775 15.68475 52.923C14.35335 53.2345 14.110425 53.31975 14.110425 53.476C14.110425 53.731 14.3876 53.71475 15.61325 53.38825C16.2893 53.20825 17.029875 53.03375 17.259075 53.00075C18.250225 52.85725 21.559275 52.08475 23.17165 51.62025C25.98025 50.8115 26.89825 50.43325 29.31475 49.09C29.96075 48.731 30.5095 48.4575 30.53425 48.48225C30.55925 48.507 30.626 48.4405 30.68275 48.33425C30.76825 48.1745 30.7595 48.141 30.6325 48.141C30.4415 48.141 29.46225 48.5685 28.99875 48.85425C28.46 49.18625 28.4725 49.1045 29.01925 48.71975C29.639 48.28375 29.89425 47.95175 29.81075 47.68925C29.7515 47.50225 29.4905 47.42375 29.3605 47.55375ZM26.14925 50.1785C26.073 50.22775 26.052 50.26825 26.103 50.26825C26.154 50.26825 26.25825 50.22775 26.3345 50.1785C26.411 50.129 26.43175 50.08875 26.38075 50.08875C26.33 50.08875 26.22575 50.129 26.14925 50.1785ZM25.4085 50.45625C25.332 50.5055 25.31125 50.546 25.36225 50.546C25.413 50.546 25.51725 50.5055 25.59375 50.45625C25.67 50.407 25.691 50.3665 25.64 50.3665C25.589 50.3665 25.48475 50.407 25.4085 50.45625ZM19.1865 52.1865C19.25325 52.21325 19.333175 52.20975 19.363925 52.179C19.394675 52.14825 19.340025 52.1265 19.242425 52.1305C19.13455 52.135 19.1126 52.157 19.1865 52.1865ZM18.72345 52.279C18.790225 52.30575 18.87015 52.3025 18.9009 52.27175C18.93165 52.241 18.877 52.219 18.7794 52.223C18.6715 52.2275 18.64955 52.2495 18.72345 52.279Z" fill="white"></path></svg> 