<?xml version="1.0" encoding="UTF-8"?> <svg xmlns="http://www.w3.org/2000/svg" width="180" height="62" viewBox="0 0 180 62" fill="none"><path d="M87.295 7.215C87.49 7.735 86.06 8.125 84.435 8.125C82.81 8.125 80.405 7.865 77.09 7.28C73.775 6.695 70.85 6.175 68.25 5.655C64.74 8.775 61.1 12.285 57.33 16.25L47.385 26.715C41.34 33.085 35.1 38.285 28.665 42.315C22.23 46.28 15.73 48.165 9.23 47.84C6.955 47.775 4.875 47.125 2.925 45.89C0.974995 44.655 -4.81308e-06 42.51 -4.81308e-06 39.325C-4.81308e-06 35.945 1.43 31.98 4.225 28.145C3.64 27.69 1.69 25.675 1.625 21.515C1.56 17.03 4.16 12.285 9.49 7.41C14.82 2.47 24.05 3.57628e-07 37.115 3.57628e-07C41.6 3.57628e-07 46.605 0.389999 52.13 1.235C57.655 2.015 62.92 2.925 67.925 3.965C69.03 2.99 71.825 1.3 74.165 0.715003C75.01 0.455002 75.66 0.389999 75.66 0.715003C75.66 0.974999 75.14 1.04 74.555 1.3C72.475 2.145 70.525 3.315 69.42 4.29C71.89 4.875 74.815 5.525 78.195 6.24C81.575 6.955 84.045 7.28 85.54 7.28C86.775 7.28 87.23 7.02 87.295 7.215ZM66.365 5.33C62.27 4.615 57.33 3.965 51.675 3.315C46.02 2.6 41.08 2.275 36.985 2.275C24.635 2.275 15.795 4.355 10.465 8.58C5.2 12.805 2.535 17.095 2.6 21.45C2.6 24.375 3.575 26.585 4.615 27.625C6.89 24.765 9.815 21.97 13.26 19.565C15.925 17.745 19.11 16.12 22.815 14.755C26.585 13.39 30.16 12.675 33.605 12.675C35.88 12.675 37.83 13.13 39.39 14.04C40.95 14.885 41.665 16.51 41.6 18.785C41.6 19.37 41.34 19.89 41.145 19.89C40.82 19.89 40.885 19.435 40.885 18.59C40.82 15.015 37.83 13.585 34.45 13.585C31.395 13.585 27.95 14.495 24.245 16.25C20.54 18.005 17.42 19.825 14.885 21.71C6.63 27.495 1.04 33.995 1.04 39.715C1.04 42.51 1.95 44.33 3.705 45.305C5.525 46.28 7.475 46.735 9.49 46.8C14.755 46.93 20.475 44.785 26.65 40.365C32.89 35.88 38.74 31.005 44.265 25.61C53.04 17.03 59.865 10.465 66.365 5.33ZM72.5126 18.59C72.5126 19.565 71.6676 20.41 70.6926 20.41C69.7176 20.41 68.8076 19.565 68.8076 18.59C68.8076 17.615 69.7176 16.77 70.6926 16.77C71.6676 16.77 72.5126 17.615 72.5126 18.59ZM68.0276 23.985C65.2326 26.455 62.5676 28.99 60.0326 31.59C57.4976 34.125 55.6126 36.075 54.5076 37.44C52.9476 39.325 51.9076 40.755 51.9076 41.73C51.9076 42.055 52.1676 42.38 52.6226 42.38C53.3376 42.38 54.2476 41.99 55.4176 41.275C56.6526 40.56 57.6276 39.91 58.4726 39.325C59.5776 38.48 60.7476 37.505 62.1126 36.4L65.1676 33.8C65.4926 33.475 65.8826 33.215 66.1426 33.54C66.3376 33.735 66.2076 33.995 65.8826 34.255C65.0376 34.97 63.9326 36.01 62.4376 37.245C60.9426 38.48 59.8376 39.39 59.0576 39.975C56.9776 41.535 54.0526 43.42 51.9076 43.42C50.3476 43.42 49.6326 42.705 49.6326 41.34C49.6326 39.455 51.5176 36.335 54.4426 33.215C55.6776 31.915 57.3676 30.355 59.3826 28.47C61.4626 26.585 63.1526 25.35 64.4526 24.635C65.4276 24.115 67.1826 23.92 68.0276 23.985ZM91.5525 23.725C92.6575 23.725 93.3075 24.375 93.3075 25.415C93.3075 26.39 92.7875 27.69 91.9425 28.73C93.8275 27.495 95.7125 26.39 97.6625 25.285C99.6125 24.18 101.107 23.66 102.212 23.66C103.577 23.66 104.227 24.635 104.227 25.61C104.227 26.715 103.512 28.08 102.082 29.575C100.652 31.07 99.3525 32.305 98.1825 33.345C96.1025 35.23 94.3475 37.05 92.9825 38.415C91.6175 39.91 90.6425 41.015 90.6425 41.73C90.6425 42.25 91.0325 42.38 91.3575 42.38C92.4625 42.38 94.6075 41.275 96.7525 39.715C99.4175 37.83 101.692 35.815 103.252 34.515C103.967 33.93 104.422 33.54 104.682 33.8C104.942 33.995 104.747 34.385 104.422 34.645C103.642 35.36 102.472 36.335 100.977 37.57C99.4825 38.805 98.1825 39.845 96.9475 40.69C94.6725 42.315 92.3325 43.42 90.7075 43.42C89.6025 43.42 88.4325 42.64 88.4325 41.015C88.4325 40.04 88.9525 38.87 89.7975 37.505C91.4225 35.23 92.7225 33.995 95.3875 31.59C96.3625 30.615 97.7275 29.445 99.4175 28.08C101.107 26.715 101.952 25.675 101.952 25.09C101.952 24.83 101.822 24.7 101.562 24.7C100.847 24.7 99.3525 25.35 97.0775 26.65C94.8025 27.885 92.5275 29.315 90.3175 30.94C87.6525 33.02 84.9225 35.23 81.9975 38.545C80.6975 40.04 78.8775 42.315 77.7725 43.68C77.4475 43.68 76.9925 42.965 76.9925 42.12C76.9925 41.535 77.7725 40.105 79.2675 37.96C80.7625 35.815 82.5825 33.67 84.7275 31.59C85.7025 30.615 87.0025 29.445 88.6925 28.015C90.3825 26.585 91.2275 25.61 91.2275 25.09C91.2275 24.895 91.1625 24.7 90.8375 24.7C89.7325 24.7 87.4575 25.805 83.8825 28.015C80.3075 30.225 77.4475 32.37 75.3025 34.45C71.1425 38.415 68.5425 41.535 67.0475 43.68C66.7225 43.68 66.2025 43.03 66.2025 42.055C66.2025 41.34 67.0475 39.845 68.8025 37.505C70.4925 35.1 72.5075 32.695 74.8475 30.29C76.9275 28.015 79.3325 26.065 80.8925 25.025C81.9975 24.31 83.7525 23.985 85.3775 23.985C83.1025 25.545 79.4625 28.86 76.6025 32.045C76.4075 32.24 76.5375 32.305 76.6025 32.24C78.2275 30.875 80.6325 29.12 83.9475 26.975C87.2625 24.83 89.7975 23.725 91.5525 23.725ZM128.994 18.59C128.994 19.565 128.149 20.41 127.174 20.41C126.199 20.41 125.289 19.565 125.289 18.59C125.289 17.615 126.199 16.77 127.174 16.77C128.149 16.77 128.994 17.615 128.994 18.59ZM124.509 23.985C121.714 26.455 119.049 28.99 116.514 31.59C113.979 34.125 112.094 36.075 110.989 37.44C109.429 39.325 108.389 40.755 108.389 41.73C108.389 42.055 108.649 42.38 109.104 42.38C109.819 42.38 110.729 41.99 111.899 41.275C113.134 40.56 114.109 39.91 114.954 39.325C116.059 38.48 117.229 37.505 118.594 36.4L121.649 33.8C121.974 33.475 122.364 33.215 122.624 33.54C122.819 33.735 122.689 33.995 122.364 34.255C121.519 34.97 120.414 36.01 118.919 37.245C117.424 38.48 116.319 39.39 115.539 39.975C113.459 41.535 110.534 43.42 108.389 43.42C106.829 43.42 106.114 42.705 106.114 41.34C106.114 39.455 107.999 36.335 110.924 33.215C112.159 31.915 113.849 30.355 115.864 28.47C117.944 26.585 119.634 25.35 120.934 24.635C121.909 24.115 123.664 23.92 124.509 23.985ZM150.374 33.865C150.699 34.19 150.179 34.645 149.854 34.905C147.839 36.66 145.109 39.065 142.704 40.69C140.299 42.315 138.024 43.42 136.464 43.42C134.969 43.42 134.124 42.64 134.124 41.08C134.124 40.105 134.709 38.805 135.554 37.505C137.179 35.23 138.479 33.995 141.144 31.59C142.119 30.68 143.484 29.51 145.174 28.08C146.864 26.65 147.709 25.675 147.774 25.09C147.774 24.83 147.644 24.7 147.319 24.7C146.214 24.7 143.874 25.805 140.299 28.08C136.724 30.355 133.929 32.435 131.784 34.45C130.159 35.945 128.859 37.375 127.754 38.61C126.649 39.845 125.284 41.535 123.529 43.68C123.009 43.68 122.684 42.965 122.684 42.185C122.684 41.47 123.529 39.975 125.154 37.7C126.779 35.36 128.794 32.89 131.329 30.29C133.409 28.145 135.749 26.065 137.309 25.025C138.414 24.31 140.234 23.985 141.859 23.985C139.584 25.545 135.944 28.86 133.084 32.045C132.889 32.24 133.019 32.305 133.084 32.24C134.709 30.875 137.114 29.12 140.364 26.975C143.679 24.83 146.149 23.725 147.904 23.725C149.269 23.725 149.984 24.57 149.984 25.545C149.984 26.65 149.269 27.95 147.839 29.51C146.409 31.005 145.109 32.305 143.939 33.345C141.859 35.23 140.104 37.05 138.739 38.415C137.114 40.17 136.399 41.015 136.399 41.73C136.399 42.185 136.659 42.38 137.114 42.38C138.154 42.38 140.429 41.21 142.574 39.715C144.849 38.09 147.709 35.49 149.464 34.125C149.724 33.865 150.114 33.605 150.374 33.865ZM178.908 24.31H179.623C178.518 25.415 176.893 27.235 174.618 29.77L169.548 35.555L162.853 42.835C159.538 46.41 156.158 49.53 152.713 52.13C144.458 58.435 136.463 61.49 128.988 61.49C125.608 61.49 122.683 60.775 120.213 59.41C117.743 58.045 116.313 56.16 115.988 53.755C115.793 52.715 115.988 52.13 116.313 52.065C116.638 52 116.768 52.52 116.833 53.105C117.288 55.51 118.653 57.33 120.928 58.565C123.203 59.8 125.803 60.385 128.663 60.385C132.563 60.385 136.398 59.41 140.103 57.525C143.808 55.64 147.188 53.495 150.113 51.155C154.988 47.255 160.513 41.6 165.193 36.4C165.453 36.14 165.258 35.945 164.998 36.205C160.318 40.625 156.158 43.42 154.078 43.42C152.453 43.42 151.803 42.575 151.868 41.275C151.868 38.87 154.143 34.97 157.003 32.045C159.278 29.705 161.943 27.69 164.933 26.065C167.988 24.44 170.328 23.595 172.083 23.595C173.188 23.595 174.228 23.79 174.228 25.09C174.228 25.805 173.708 26.975 172.343 28.47C172.278 28.665 172.343 28.665 172.538 28.6C173.058 28.08 173.838 27.365 174.813 26.52C175.788 25.61 176.568 25.025 177.023 24.765C177.543 24.44 178.193 24.31 178.908 24.31ZM173.318 25.22C173.318 24.895 173.058 24.57 172.603 24.57C170.783 24.57 165.973 27.885 159.993 33.605C158.368 35.165 157.003 36.725 155.768 38.35C154.533 39.975 153.948 41.145 153.948 41.86C153.948 42.185 154.078 42.51 154.598 42.51C155.443 42.445 157.068 41.535 159.473 39.78C161.878 37.96 164.283 35.75 166.818 33.215C167.923 32.045 169.288 30.615 170.913 28.99C172.538 27.3 173.318 26.065 173.318 25.22Z" fill="white" fill-opacity="0.2"></path></svg> 