<?xml version="1.0" encoding="UTF-8"?> <svg xmlns="http://www.w3.org/2000/svg" width="154" height="77" viewBox="0 0 154 77" fill="none"><path fill-rule="evenodd" clip-rule="evenodd" d="M105.991 1.43383C105.735 1.75166 105.745 1.81215 106.067 1.92267C106.868 2.1965 108.121 1.46832 107.483 1.09944C107.039 0.842473 106.341 0.998851 105.991 1.43383ZM108.109 0.785452C107.972 1.20826 108.893 1.46841 109.459 1.16651C110.11 0.819216 110.139 0.74375 109.73 0.45343C109.324 0.165455 108.238 0.387732 108.109 0.785452ZM110.407 0.487111C110.498 0.843606 111.229 1.05198 111.841 0.895893C112.39 0.755796 112.272 0.217983 111.66 0.0731749C110.991 -0.0851343 110.317 0.136994 110.407 0.487111ZM103.966 2.24958C103.732 2.42045 103.565 2.65398 103.594 2.76876C103.679 3.10201 104.687 3.00008 105.116 2.61458C105.907 1.90442 104.883 1.57935 103.966 2.24958ZM112.753 0.322023C112.677 0.933028 114.388 1.25439 114.579 0.665083C114.663 0.406144 113.919 0.0261094 113.278 0.000842158C112.955 -0.0117175 112.782 0.0943683 112.753 0.322023ZM102.123 3.41348C101.493 3.83686 101.642 4.23624 102.392 4.13642C103.023 4.05264 103.656 3.37019 103.361 3.09167C103.113 2.85683 102.847 2.92588 102.123 3.41348ZM115.002 0.549858C114.898 0.87092 115.707 1.34399 116.401 1.36785C117.207 1.39559 116.87 0.583971 115.995 0.38982C115.159 0.204148 115.112 0.211625 115.002 0.549858ZM100.466 4.7035C99.8747 5.10087 99.723 5.70108 100.2 5.7536C100.649 5.80264 101.586 5.00043 101.496 4.64496C101.399 4.26584 101.09 4.28331 100.466 4.7035ZM117.346 1.33811C117.438 1.69851 118.678 2.25895 118.896 2.03838C119.175 1.75434 118.921 1.31441 118.358 1.10853C117.672 0.857685 117.248 0.953843 117.346 1.33811ZM98.6552 6.467C98.4823 6.63402 98.3881 6.95731 98.4464 7.18564C98.5318 7.52074 98.6366 7.55032 98.9896 7.33892C99.5596 6.9979 100.038 6.30921 99.8363 6.11891C99.626 5.91993 99.0449 6.09112 98.6552 6.467ZM107.965 4.15554C105.287 5.64486 102.721 9.62878 101.871 13.6178C100.936 18.0027 101.873 21.4236 104.662 23.811L105.559 24.5787L104.014 25.7445C100.842 28.1364 98.3368 29.4643 97.8547 29.0084C97.7002 28.8624 97.5627 28.924 97.3523 29.2336C96.8525 29.9694 93.1822 30.3212 87.683 30.16C83.6446 30.0419 75.5912 29.2542 74.9623 28.9161C74.6195 28.7319 74.3677 28.7163 74.2718 28.8738C74.1761 29.031 73.5086 29.1212 72.4431 29.1213C70.412 29.1211 66.0839 29.6542 64.1857 30.1383C63.4243 30.3325 62.6904 30.4323 62.5549 30.3597C62.4192 30.2874 62.0795 30.2195 61.7994 30.209C61.4227 30.1949 61.3117 30.2736 61.3726 30.5124C61.4203 30.6992 61.2596 30.9003 60.9904 30.9907C60.7349 31.0764 60.3876 31.1968 60.2184 31.2583C60.0492 31.3199 59.1718 31.6355 58.2685 31.9598C55.588 32.9221 52.5554 34.3984 50.0522 35.9598L48.85 36.7098L47.8978 36.2984C46.8822 35.8594 43.8187 35.1218 42.619 35.027C42.1227 34.9877 41.8603 34.8366 41.7866 34.5476C41.6666 34.077 41.0419 34.121 40.7371 34.6216C40.5988 34.8488 40.3392 34.9179 39.6984 34.8981C38.0097 34.8459 34.9274 35.3514 32.7551 36.0364C28.6843 37.3201 23.3829 40.2093 17.705 44.2386C14.9443 46.1976 8.55238 51.9513 6.86166 53.9991C5.00763 56.2448 3.61547 58.0338 3.10664 58.8248C2.58887 59.6299 2.53722 59.8869 2.73642 60.668L2.96783 61.5753L3.99283 60.0117C9.75509 51.2215 22.3979 41.2479 32.3924 37.6079C34.2997 36.9134 37.4632 36.272 38.7119 36.3269C39.0665 36.3425 39.0836 36.3865 38.8704 36.7367C38.6257 37.1382 38.7952 37.49 39.1852 37.3906C39.3052 37.36 39.6204 37.0837 39.8858 36.7768C40.3605 36.2278 40.3888 36.2202 41.5943 36.3106C43.1224 36.4253 45.9276 37.0088 46.7681 37.3866L47.4009 37.6713L46.9252 38.0025C43.2729 40.5469 40.3251 43.4239 37.6697 47.0358C34.2523 51.6837 33.5972 55.6579 35.6875 59.0604C36.4691 60.3329 37.8864 61.6551 39.0778 62.2237C39.3708 62.3637 40.3559 62.633 41.267 62.8226C43.6113 63.3103 46.5316 62.9095 48.9057 61.7743C52.1128 60.2406 54.3757 57.8267 55.5514 54.6848C57.9979 48.1476 56.4592 41.8138 51.5641 38.2707L50.3426 37.3865L50.8706 37.0196C52.5712 35.8381 56.9409 33.8489 60.6269 32.578L63.2676 31.6675L63.8223 32.0836C64.1273 32.3123 64.5695 32.4504 64.8051 32.3903C65.1577 32.3004 65.1866 32.1956 64.9686 31.7976C64.7151 31.3345 64.7385 31.3095 65.5226 31.2096C65.973 31.1522 67.0065 30.9926 67.8196 30.8552C70.6397 30.3785 75.67 30.3418 75.7862 30.7972C75.8681 31.1183 76.937 31.9254 77.1939 31.8599C77.3012 31.8325 77.3299 31.5787 77.2578 31.2959C77.1857 31.013 77.1567 30.7739 77.1936 30.7645C77.2302 30.7552 79.0621 30.92 81.2643 31.1307C88.1611 31.791 94.1768 31.6905 97.4257 30.8604C99.8831 30.2326 102.816 28.5674 105.597 26.2205L106.841 25.1708L108.101 25.4953C114.973 27.2652 124.627 24.0146 139.21 15.0203C141.948 13.3315 148.712 8.93316 150.213 7.86495C150.441 7.70295 150.488 7.40324 150.362 6.90892C150.208 6.30496 150.125 6.22752 149.847 6.42827C146.26 9.02036 137.308 14.6864 132.435 17.4487C130.288 18.6653 125.575 20.9905 123.838 21.6896L122.649 22.1681L122.981 21.5824C123.291 21.0341 123.134 20.3628 122.719 20.4686C122.374 20.5568 121.829 21.7711 122.018 22.0331C122.159 22.2291 121.969 22.3931 121.281 22.6703C119.778 23.2758 114.639 24.5207 113.371 24.5866C111.297 24.6948 107.833 24.2488 108.106 23.909C108.145 23.8591 108.91 22.9309 109.804 21.8465C111.49 19.8013 112.239 18.6234 113.342 16.2793C115.755 11.1525 115.444 5.55799 112.657 3.94593C111.208 3.10781 109.731 3.17369 107.965 4.15554ZM119.599 2.00853C119.344 2.42751 120.253 3.35133 120.786 3.21537C121.293 3.08616 121.156 2.70012 120.409 2.14997C119.924 1.79261 119.748 1.76198 119.599 2.00853ZM97.1773 8.36001C96.7556 9.05252 96.8566 9.31817 97.4804 9.15908C97.9428 9.04114 98.4839 8.21148 98.3755 7.78648C98.2941 7.46722 97.4853 7.85425 97.1773 8.36001ZM108.095 5.68831C105.333 7.55592 102.866 12.7172 102.856 16.6482C102.851 19.0787 104.256 21.9625 105.975 23.0453L106.659 23.4757L107.967 21.9903C112.22 17.1614 114.302 11.3679 113.257 7.26952C112.73 5.20522 111.612 4.44729 109.812 4.93401C109.26 5.08325 108.488 5.42274 108.095 5.68831ZM95.8985 10.3131C95.543 10.9401 95.6954 11.367 96.226 11.2317C96.5853 11.1401 97.1631 9.91479 96.9446 9.70805C96.6623 9.44132 96.2612 9.6731 95.8985 10.3131ZM121.435 3.5318C121.396 3.98035 122.061 4.86205 122.378 4.78114C122.836 4.66438 122.845 4.26699 122.4 3.75203C121.927 3.20461 121.474 3.10096 121.435 3.5318ZM94.857 12.3772C94.4894 13.1832 94.5356 13.4155 95.0381 13.2874C95.5072 13.1677 95.964 12.3889 95.8431 11.9145C95.7111 11.3972 95.193 11.6402 94.857 12.3772ZM123.021 5.85631C123.213 6.4103 123.401 6.61925 123.688 6.60024C124.027 6.57753 124.048 6.45622 123.821 5.80307C123.629 5.24908 123.442 5.04013 123.154 5.05914C122.815 5.08185 122.795 5.20316 123.021 5.85631ZM57.7246 23.2302C57.314 23.6664 57.9289 23.8908 58.7412 23.6008C59.1914 23.44 59.4071 23.2448 59.3561 23.0446C59.2629 22.6793 58.121 22.8093 57.7246 23.2302ZM59.9816 22.6903C59.5026 23.1519 60.1228 23.5064 61.0119 23.2796C61.8812 23.0579 61.8556 22.5023 60.9718 22.408C60.2759 22.334 60.3833 22.3033 59.9816 22.6903ZM55.4987 23.9543C54.9893 24.3224 55.4093 24.7084 56.1215 24.5268C56.8126 24.3506 57.3351 23.7754 56.987 23.5739C56.7893 23.4596 55.8518 23.6993 55.4987 23.9543ZM94.0088 14.5217C93.8807 15.2011 94.2098 15.7287 94.5945 15.4606C94.7482 15.3535 94.9028 14.9561 94.9379 14.5773C95.02 13.6947 95.0372 13.7258 94.54 13.8526C94.2934 13.9155 94.0701 14.1968 94.0088 14.5217ZM53.8855 24.5938C53.6455 24.7054 53.3707 24.9573 53.2747 25.1538C53.1362 25.4376 53.1826 25.5202 53.4989 25.555C54.0328 25.6136 54.9269 25.0072 54.8354 24.6486C54.7517 24.3203 54.5054 24.306 53.8855 24.5938ZM62.215 22.6788C62.0059 23.0224 62.74 23.2771 63.4311 23.1008C64.178 22.9103 64.2674 22.7116 63.7425 22.408C63.4063 22.2135 62.3884 22.394 62.215 22.6788ZM51.52 25.9262C51.2857 26.0951 51.1334 26.387 51.1814 26.5752C51.2525 26.8542 51.4051 26.8584 52.0093 26.5978C52.8027 26.2559 53.1329 25.7364 52.6535 25.5848C52.2883 25.4691 52.0584 25.5385 51.52 25.9262ZM123.998 8.0925C124.24 9.04144 124.831 9.12397 124.832 8.2089C124.833 7.51589 124.526 7.08148 124.111 7.18751C123.875 7.2476 123.845 7.4908 123.998 8.0925ZM64.4698 23.1098C64.7122 23.4831 65.7956 23.6809 66.1695 23.4203C66.4975 23.1919 66.4921 23.1705 66.03 22.8716C65.494 22.5248 64.2164 22.7198 64.4698 23.1098ZM33.9839 30.9703C33.6201 31.2412 33.8383 31.698 34.3442 31.7239C35.0081 31.7579 35.6222 31.3149 35.4415 30.9324C35.2881 30.6075 34.4415 30.6295 33.9839 30.9703ZM36.0544 30.5152C35.6583 30.9258 36.2695 31.195 37.0762 30.9651C37.8546 30.7436 37.9691 30.6055 37.6931 30.2219C37.4647 29.9045 36.4721 30.082 36.0544 30.5152ZM38.3891 29.9045C37.98 30.3291 38.5027 30.5538 39.3798 30.3301C39.9483 30.1851 40.186 30.0285 40.1359 29.8321C40.0116 29.3448 38.883 29.3916 38.3891 29.9045ZM40.7176 29.2576C40.3144 29.5488 40.59 29.9669 41.182 29.9616C41.4918 29.9588 41.9131 29.8058 42.118 29.6217C42.8361 28.9767 41.5644 28.646 40.7176 29.2576ZM31.7232 31.7705C31.5932 31.8646 31.5201 32.0725 31.561 32.2328C31.6122 32.4335 31.8863 32.4603 32.4417 32.3186C33.3755 32.0805 33.5805 31.8599 33.1514 31.5553C32.8493 31.3407 32.1783 31.442 31.7232 31.7705ZM43.0702 28.9297C42.7211 29.2919 43.0818 29.5387 43.8414 29.4569C44.7633 29.3576 45.0845 28.9628 44.4547 28.703C43.9071 28.4773 43.4308 28.5551 43.0702 28.9297ZM49.4768 27.4117C49.2406 27.6944 49.2251 27.8587 49.4239 27.9758C49.7984 28.1964 50.9564 27.4502 50.8552 27.0534C50.759 26.6766 49.9056 26.8984 49.4768 27.4117ZM29.5545 32.7129C29.2848 33.0457 29.2817 33.1563 29.5394 33.2426C30.0103 33.4003 31.1459 32.802 31.0547 32.4443C30.9483 32.0271 29.9675 32.2027 29.5545 32.7129ZM45.3019 28.7606C45.2526 29.1551 45.7561 29.3531 46.4019 29.1932C46.9409 29.0597 47.1465 28.6254 46.773 28.4093C46.3377 28.1575 45.3475 28.3941 45.3019 28.7606ZM93.8538 16.1825C93.7423 16.296 93.6167 16.67 93.5749 17.0139C93.5123 17.5276 93.5659 17.6465 93.8753 17.6804C94.1045 17.7057 94.3254 17.544 94.4398 17.2676C94.768 16.4748 94.3424 15.6863 93.8538 16.1825ZM27.5361 33.4082C26.9581 33.7754 27.0298 34.1988 27.6631 34.1593C28.2773 34.1209 29.0096 33.6507 28.9316 33.3448C28.8343 32.9632 28.1905 32.9924 27.5361 33.4082ZM47.466 28.7106C47.2855 29.4146 47.6128 29.5778 48.4515 29.2016C49.3927 28.7795 49.5808 28.4977 49.1337 28.1804C48.6215 27.8167 47.6132 28.1374 47.466 28.7106ZM66.8045 23.6953C66.9075 24.0991 67.6215 24.4255 68.1361 24.3039C68.7258 24.1647 68.4168 23.6245 67.6506 23.4545C66.7711 23.2593 66.6986 23.2799 66.8045 23.6953ZM25.4497 34.3193C25.2262 34.4808 25.007 34.7247 24.9626 34.8616C24.835 35.2548 25.9985 35.141 26.5482 34.7065C27.0288 34.3267 27.0293 34.3074 26.5651 34.1267C26.0213 33.9153 26.0059 33.9179 25.4497 34.3193ZM49.9207 28.3517C49.8118 28.6873 50.6313 28.9942 51.2288 28.8419C51.8381 28.6865 51.9454 28.3462 51.4563 28.1207C50.9543 27.8894 50.0255 28.029 49.9207 28.3517ZM23.3277 35.3579C22.6686 35.7766 22.8526 36.1626 23.6591 36.0531C24.2238 35.9765 24.7766 35.5039 24.6915 35.1702C24.6225 34.8999 23.89 35.0006 23.3277 35.3579ZM124.415 9.75038C124.254 10.3758 124.571 11.1234 124.954 11.0255C125.289 10.9401 125.381 9.84684 125.088 9.43921C124.821 9.06844 124.559 9.18964 124.415 9.75038ZM45.8477 30.0433C45.3258 30.4746 45.4279 30.9785 46.0073 30.8308C46.6193 30.6747 47.1612 30.1417 47.0703 29.7852C46.9813 29.4363 46.4459 29.5494 45.8477 30.0433ZM21.0445 36.4657C20.6237 36.7698 20.9314 37.2259 21.4654 37.0897C22.1917 36.9045 22.5876 36.5855 22.503 36.2539C22.4309 35.9713 21.5524 36.0989 21.0445 36.4657ZM52.208 28.637C52.4276 28.9734 53.7011 29.087 53.9878 28.7959C54.19 28.5906 54.1702 28.5034 53.8744 28.2933C53.4479 27.9907 51.9832 28.2926 52.208 28.637ZM68.8656 24.7481C68.9826 25.2069 69.7721 25.6464 70.2573 25.5226C70.7546 25.3958 70.6048 25.064 69.8539 24.6298C69.086 24.1854 68.7329 24.2277 68.8656 24.7481ZM18.8528 37.5807C18.5204 38.1267 18.7323 38.2532 19.5246 37.9812C20.0634 37.7963 20.2888 37.603 20.2734 37.3389C20.2565 37.0501 20.1088 36.9975 19.6468 37.1153C19.3144 37.2001 18.9571 37.4095 18.8528 37.5807ZM54.5196 28.645C54.4193 28.9536 55.4519 29.2985 56.0334 29.1502C56.6415 28.9951 56.5707 28.6974 55.8642 28.439C55.2488 28.2136 54.6288 28.3087 54.5196 28.645ZM93.5172 19.2751C93.4813 19.9321 93.5338 20.0728 93.8258 20.1048C94.264 20.1527 94.4471 19.6508 94.262 18.9077C94.0584 18.0899 93.5686 18.3316 93.5172 19.2751ZM16.8644 38.5262C16.3876 38.9254 16.3837 39.163 16.8528 39.2145C17.3604 39.2702 18.301 38.6677 18.2175 38.3404C18.1233 37.9712 17.4104 38.0691 16.8644 38.5262ZM43.9549 31.8471L43.5996 32.4307L44.1023 32.3741C44.6828 32.3089 45.5601 31.4647 45.3015 31.2202C44.9953 30.9309 44.3219 31.2444 43.9549 31.8471ZM14.6617 39.6824C14.5258 39.8235 14.5073 40.0679 14.6204 40.2253C14.7861 40.4556 14.9525 40.4388 15.4702 40.1402C15.8243 39.936 16.1383 39.7628 16.1679 39.7553C16.1978 39.7476 16.1866 39.6026 16.1433 39.4329C16.0554 39.0883 15.075 39.2534 14.6617 39.6824ZM56.7724 29.1683C56.8438 29.4483 57.8552 29.781 58.2945 29.669C58.7228 29.5597 58.6813 29.1251 58.2165 28.8563C57.8441 28.6408 56.7008 28.8877 56.7724 29.1683ZM124.585 11.9339C124.371 12.3795 124.49 13.2792 124.765 13.2955C125.175 13.3199 125.41 12.8873 125.326 12.2654C125.236 11.6022 124.832 11.4213 124.585 11.9339ZM42.2787 33.1821C41.5822 34.0387 42.4904 34.2345 43.2335 33.3879C43.4459 33.1462 43.5973 32.8611 43.5701 32.7544C43.4972 32.4684 42.6237 32.7576 42.2787 33.1821ZM12.5329 40.9763C12.3286 41.395 12.5716 41.5488 13.1886 41.3914C13.8817 41.2147 14.2743 40.8908 14.1911 40.5646C14.095 40.1877 12.7556 40.5201 12.5329 40.9763ZM70.8105 26.2239C70.9158 26.6368 71.7014 27.1261 72.097 27.0253C72.4784 26.928 72.2042 26.2313 71.6781 25.961C71.0569 25.6419 70.6904 25.7529 70.8105 26.2239ZM10.6896 42.1561C10.5523 42.3814 10.5221 42.6435 10.6226 42.7386C10.9594 43.0569 12.3378 42.0836 12.2176 41.6123C12.1386 41.3025 10.9522 41.7247 10.6896 42.1561ZM59.2179 29.8094C59.4467 30.2902 60.6246 30.5639 60.8528 30.1891C60.9831 29.9751 60.8747 29.8165 60.4405 29.5855C59.7153 29.1995 58.9907 29.3324 59.2179 29.8094ZM93.7061 21.0482C93.4367 22.0987 94.1683 22.9642 94.5488 22.0451C94.7706 21.5092 94.4924 20.6212 94.0952 20.5969C93.9471 20.5881 93.7721 20.7911 93.7061 21.0482ZM8.86883 43.1986C8.31541 43.6556 8.45994 44.131 9.10248 43.9671C9.88704 43.7671 10.2228 43.4553 10.1139 43.0285C10.0027 42.5924 9.5237 42.6578 8.86883 43.1986ZM72.5726 27.2672C72.3708 27.5982 72.6389 28.1196 73.1877 28.4634C73.7836 28.8368 74.1262 28.6813 73.979 28.1041C73.8719 27.6845 72.7315 27.0058 72.5726 27.2672ZM124.386 14.396C123.98 15.4374 124.591 16.1205 125.029 15.1143C125.246 14.6158 125.088 13.73 124.796 13.8046C124.686 13.8324 124.502 14.0985 124.386 14.396ZM6.86221 44.556C6.68924 44.723 6.58468 45.0054 6.63016 45.1837C6.6949 45.4376 6.8493 45.4429 7.34347 45.2086C8.07069 44.8637 8.49192 44.3794 8.25751 44.1579C8.04138 43.9536 7.25371 44.1784 6.86221 44.556ZM4.82721 46.0526C4.68988 46.3338 4.71745 46.4841 4.92852 46.6062C5.30309 46.8229 6.40265 46.0489 6.29877 45.6416C6.19867 45.2491 5.06495 45.5658 4.82721 46.0526ZM94.1172 23.2557C94.0478 23.8106 94.4418 24.496 94.8158 24.4714C95.2583 24.4422 95.3501 23.8647 95.0111 23.2455C94.7322 22.736 94.1812 22.7425 94.1172 23.2557ZM37.5981 38.1365C37.1324 38.6667 37.2171 39.207 37.7445 39.0725C38.2145 38.9527 38.9032 37.9506 38.6682 37.7284C38.4178 37.4916 38.0367 37.6368 37.5981 38.1365ZM2.87638 47.4996C2.6502 47.9166 2.66162 47.9816 2.96683 48.0151C3.46503 48.0699 4.49335 47.3486 4.4059 47.0057C4.2963 46.576 3.18249 46.9356 2.87638 47.4996ZM123.96 16.3764C123.567 16.8034 123.471 17.678 123.796 17.8623C124.025 17.9924 124.192 17.857 124.471 17.3138C124.834 16.6102 124.795 16.1987 124.366 16.1772C124.249 16.1713 124.066 16.2611 123.96 16.3764ZM1.17997 48.6342C0.728582 49.0696 0.924544 49.5595 1.48914 49.4072C2.02985 49.2614 2.58626 48.657 2.49807 48.3112C2.42436 48.0222 1.60673 48.2226 1.17997 48.6342ZM35.9678 40.2287C35.8245 40.5963 35.8434 40.8156 36.0279 40.9223C36.3828 41.1276 37.2849 40.2981 37.2569 39.7919C37.2256 39.2274 36.2261 39.5662 35.9678 40.2287ZM65.3997 32.6718C65.3087 32.9522 65.7781 33.4898 66.3408 33.7492C66.9246 34.0183 67.1955 33.5174 66.734 33.0223C66.2998 32.5569 65.5048 32.3479 65.3997 32.6718ZM94.9598 25.5474C94.9286 26.0314 95.5361 26.963 95.8334 26.8871C96.1913 26.7959 96.2105 26.3449 95.8861 25.6545C95.5442 24.9271 95.0036 24.8645 94.9598 25.5474ZM0.0381294 50.0877C0.137493 50.4773 0.248143 50.5597 0.466749 50.4074C0.804048 50.1721 0.614758 49.6092 0.189113 49.5814C0.0108929 49.5697 -0.0456528 49.7592 0.0381294 50.0877ZM123.018 18.9673C122.761 19.4571 122.975 20.1843 123.348 20.0892C123.684 20.0036 124.111 19.0797 124.006 18.6674C123.917 18.3163 123.255 18.5171 123.018 18.9673ZM34.6562 42.0867C34.2685 43.081 35.0703 43.1526 35.6256 42.1732C36.0569 41.4121 36.0085 41.268 35.3757 41.4294C35.0872 41.5029 34.7715 41.7913 34.6562 42.0867ZM47.0058 39.6363C44.5909 41.4156 41.5886 44.1714 40.4943 45.6135C40.3893 45.752 39.6976 46.6527 38.9572 47.6155C37.5045 49.5043 36.2567 52.0879 35.9443 53.8539C35.7163 55.1423 36.1771 57.3339 36.9169 58.4784C38.0342 60.2078 40.0033 61.3891 42.179 61.6358C43.7622 61.8153 47.0209 61.1915 48.6756 60.3922C53.4395 58.0913 56.1525 52.0415 55.0175 46.2502C54.5614 43.9232 53.9727 42.6751 52.5854 41.0935C51.4549 39.8046 49.3542 38.3011 48.8659 38.4311C48.6728 38.4825 47.8358 39.025 47.0058 39.6363ZM67.1247 34.2307C67.0354 34.5054 67.9466 35.3389 68.3666 35.3663C68.8759 35.3996 68.7011 34.6112 68.1191 34.2498C67.4678 33.8454 67.2512 33.8413 67.1247 34.2307ZM96.0551 27.404C95.9908 27.919 96.6137 28.7695 96.9857 28.6746C97.3779 28.5746 97.304 27.7719 96.8587 27.2943C96.4519 26.8582 96.1175 26.9038 96.0551 27.404ZM33.4971 43.7416C32.9951 44.5661 33.061 44.8678 33.7072 44.703C34.3874 44.5296 34.7823 43.4896 34.2594 43.2485C33.9722 43.1161 33.8168 43.2166 33.4971 43.7416ZM77.613 32.1519C77.494 32.5182 78.6709 33.4539 78.9797 33.2387C79.3375 32.9892 79.3341 32.9756 78.7479 32.329C78.2913 31.8249 77.7468 31.7399 77.613 32.1519ZM68.8636 35.8512C68.8078 36.2966 69.5493 37.1771 69.8749 37.0524C70.266 36.9027 69.9659 35.9859 69.4367 35.714C68.9362 35.4567 68.9121 35.4624 68.8636 35.8512ZM32.1509 45.8926C31.6427 47.0075 32.4438 47.18 33.0623 46.0887C33.4178 45.4617 33.2654 45.0348 32.7348 45.1701C32.5764 45.2105 32.3137 45.5356 32.1509 45.8926ZM79.4297 33.6615C79.4823 33.8681 79.8238 34.1975 80.1884 34.3933C80.7322 34.6857 80.871 34.6887 80.9614 34.4106C81.0966 33.9945 80.6513 33.4806 80.0278 33.3331C79.4001 33.1845 79.3193 33.2289 79.4297 33.6615ZM31.1228 47.6409C30.695 48.3435 30.718 48.9708 31.1679 48.8561C31.5003 48.7713 32.1437 47.6973 32.0597 47.3678C31.9372 46.8872 31.505 47.0132 31.1228 47.6409ZM70.0768 37.8125C70.043 38.339 70.7311 39.2044 71.1075 39.1084C71.4437 39.0227 71.257 38.128 70.8008 37.6386C70.3962 37.205 70.1115 37.2732 70.0768 37.8125ZM81.3932 34.7067C81.3003 34.9928 82.3943 35.7917 82.7537 35.7001C83.2782 35.5663 83.1943 35.1872 82.5502 34.7812C81.8927 34.3668 81.5115 34.3422 81.3932 34.7067ZM119.752 25.1316C119.514 25.5704 119.539 26.3187 119.79 26.2546C120.238 26.1405 120.971 25.2155 120.884 24.8746C120.751 24.354 120.092 24.5033 119.752 25.1316ZM99.1774 31.1391C99.3109 31.6626 99.781 32.0149 100.202 31.9074C100.546 31.8197 100.341 30.9531 99.9192 30.7089C99.4124 30.4158 99.0469 30.6275 99.1774 31.1391ZM152.546 17.2307C152.573 17.3373 152.705 17.4574 152.838 17.4978C152.972 17.5382 153.044 17.4269 152.999 17.2506C152.954 17.0743 152.823 16.954 152.707 16.9835C152.591 17.013 152.519 17.1242 152.546 17.2307ZM150.702 18.2087C150.443 18.5166 150.447 18.6119 150.725 18.7371C151.119 18.9143 152.453 18.1826 152.365 17.8376C152.283 17.5163 151.055 17.7905 150.702 18.2087ZM30.0806 49.6443C29.6185 50.4032 29.6697 51.0605 30.1724 50.8239C30.6914 50.5798 31.1376 49.3517 30.7822 49.1461C30.5649 49.0204 30.3812 49.1509 30.0806 49.6443ZM83.4348 35.7446C83.3555 35.9883 84.6082 36.7608 84.9435 36.6752C85.046 36.6491 85.151 36.4591 85.1767 36.253C85.2594 35.5915 83.638 35.1181 83.4348 35.7446ZM118.349 27.069C117.914 27.7286 117.968 28.034 118.493 27.8999C119.038 27.761 119.704 26.8465 119.441 26.5983C119.127 26.3011 118.746 26.4653 118.349 27.069ZM148.972 19.1788C148.532 19.4214 148.48 20.0202 148.896 20.0657C149.404 20.1216 150.306 19.469 150.284 19.062C150.265 18.7013 149.758 18.7465 148.972 19.1788ZM71.0329 39.7505C70.9129 40.1194 71.5954 41.394 71.8744 41.3228C72.2695 41.222 72.2584 40.5001 71.8531 39.9331C71.5054 39.4464 71.1567 39.3689 71.0329 39.7505ZM100.793 32.2026C100.904 32.6391 101.799 33.2529 102.182 33.1552C102.701 33.023 102.578 32.6002 101.897 32.1738C101.33 31.8185 100.699 31.835 100.793 32.2026ZM146.94 20.5504C146.501 21.0506 146.682 21.3683 147.314 21.2071C147.97 21.0397 148.452 20.5118 148.23 20.2033C147.973 19.8468 147.43 19.9931 146.94 20.5504ZM85.7711 36.5612C85.8548 36.8896 86.7926 37.2991 87.2143 37.1916C87.6081 37.0911 87.3809 36.4771 86.873 36.2691C86.289 36.0298 85.677 36.1922 85.7711 36.5612ZM116.853 28.7844C116.319 29.4658 116.368 29.7587 116.989 29.5911C117.515 29.4493 118.087 28.8438 118.003 28.5172C117.897 28.0985 117.279 28.242 116.853 28.7844ZM144.78 21.9795C144.622 22.3036 144.644 22.3911 144.904 22.4698C145.369 22.6107 146.257 22.0508 146.234 21.631C146.207 21.1484 145.05 21.4257 144.78 21.9795ZM28.995 51.949C28.6578 52.689 28.6624 52.9108 29.0174 53.0184C29.3258 53.1117 30.1199 51.8225 29.9316 51.534C29.6634 51.123 29.2978 51.2849 28.995 51.949ZM88.0193 36.9569C87.9347 37.2173 88.6807 37.596 89.3278 37.6214C90.2538 37.658 90.0221 36.989 89.03 36.7614C88.4093 36.6189 88.1103 36.6767 88.0193 36.9569ZM102.941 33.197C102.842 33.501 103.949 34.2383 104.35 34.1359C104.8 34.0212 104.473 33.2829 103.876 33.0644C103.227 32.8269 103.053 32.8516 102.941 33.197ZM142.768 23.0412C142.067 23.7174 142.879 23.9886 143.802 23.3866C144.54 22.9047 144.446 22.3742 143.66 22.5838C143.342 22.6685 142.941 22.8742 142.768 23.0412ZM115.048 30.3296C114.876 30.4966 114.768 30.7675 114.81 30.9316C114.911 31.3286 116.039 31.04 116.275 30.5567C116.63 29.8296 115.738 29.6645 115.048 30.3296ZM140.712 24.2491C140.379 24.7951 140.591 24.9216 141.384 24.6496C141.922 24.4647 142.148 24.2714 142.132 24.0073C142.116 23.7185 141.968 23.6659 141.506 23.7837C141.173 23.8685 140.816 24.0779 140.712 24.2491ZM71.914 42.682C72.201 43.5382 72.5024 43.6651 72.7183 43.0207C72.8789 42.5415 72.3389 41.6425 71.9498 41.7417C71.6993 41.8056 71.691 42.0176 71.914 42.682ZM90.328 37.259C90.2401 37.5296 91.2311 37.9199 91.7015 37.7999C92.2454 37.6612 92.2851 37.3882 91.8068 37.0787C91.3375 36.775 90.4501 36.883 90.328 37.259ZM113.066 31.8186C112.585 32.3654 112.823 32.6324 113.61 32.4317C114.247 32.2691 114.679 31.6657 114.368 31.3716C114.092 31.1104 113.513 31.309 113.066 31.8186ZM138.925 25.106C138.347 25.5222 138.516 26.0799 139.169 25.9134C139.88 25.7321 140.291 25.4111 140.212 25.0997C140.159 24.894 139.555 24.6588 139.383 24.7771C139.365 24.7893 139.159 24.9374 138.925 25.106ZM105.152 33.9411C105.049 34.2565 105.579 34.6404 106.158 34.6701C106.471 34.6862 106.593 34.8183 106.573 35.1215C106.535 35.7113 106.969 35.7145 108.333 35.1347C109.309 34.7196 109.538 34.6886 109.899 34.9223C110.456 35.2827 111.353 35.2121 111.558 34.792C111.684 34.5337 111.588 34.435 111.132 34.357C110.807 34.3015 110.454 34.0989 110.346 33.9067C110.181 33.6128 109.938 33.6138 108.816 33.9128C108.082 34.1082 107.34 34.3931 107.166 34.5457C106.915 34.766 106.859 34.7463 106.896 34.4495C106.926 34.2068 106.732 33.988 106.339 33.8245C105.655 33.5395 105.27 33.5774 105.152 33.9411ZM28.0534 54.1399C27.9364 54.4701 27.9398 54.8783 28.0613 55.0471C28.256 55.3178 28.3291 55.2818 28.6806 54.743C29.121 54.0683 29.0619 53.3368 28.5769 53.4604C28.4061 53.504 28.1704 53.8099 28.0534 54.1399ZM92.8007 37.2828C92.6781 37.6606 92.9564 37.8451 93.7426 37.9071C94.3113 37.952 94.4476 37.8984 94.4828 37.6157C94.5066 37.4252 94.4221 37.2108 94.2952 37.1393C93.8941 36.9136 92.8893 37.01 92.8007 37.2828ZM111.217 32.8769C110.46 33.3577 110.663 33.8404 111.529 33.6196C112.169 33.4563 112.653 33.0181 112.567 32.6795C112.502 32.4249 111.756 32.5339 111.217 32.8769ZM136.665 26.4348C136.281 26.9055 136.565 27.2347 137.211 27.0698C137.826 26.9132 138.379 26.2527 138.109 25.9978C137.823 25.7276 137.05 25.9617 136.665 26.4348ZM94.9441 37.3844C95.0641 37.8548 96.3853 38.0185 96.7804 37.6117C96.9916 37.3944 96.9738 37.306 96.6771 37.0953C96.3034 36.83 94.864 37.0701 94.9441 37.3844ZM134.489 27.6115C134.23 27.919 134.237 28.0002 134.538 28.1389C135.014 28.3586 136.054 27.7741 136.028 27.3011C136.003 26.85 134.952 27.0617 134.489 27.6115ZM97.3872 37.2992C97.4753 37.6446 97.9679 37.7354 98.7169 37.5444C99.1026 37.446 99.1984 37.3202 99.0796 37.0685C98.8677 36.6199 97.2696 36.8378 97.3872 37.2992ZM99.6902 36.9404C99.6412 37.3325 100.706 37.5366 101.205 37.2306C101.649 36.9578 101.567 36.4758 101.066 36.421C100.434 36.3515 99.7305 36.617 99.6902 36.9404ZM104.496 35.5693C103.918 35.8787 104.361 36.426 105.09 36.3048C105.85 36.1783 106.385 35.7066 106.002 35.5011C105.644 35.3092 104.92 35.3419 104.496 35.5693ZM132.479 28.5721C132.304 28.7791 132.256 29.0379 132.372 29.1471C132.666 29.4252 133.465 29.1826 133.86 28.6956C134.146 28.3418 134.141 28.2699 133.822 28.1608C133.313 27.9868 132.854 28.1275 132.479 28.5721ZM101.911 36.5844C102.002 36.9438 102.496 37.0187 103.345 36.8022C103.831 36.6783 103.938 36.5636 103.813 36.2995C103.599 35.847 101.792 36.1179 101.911 36.5844ZM72.0175 44.4811C71.9497 45.0237 72.1913 45.8008 72.4524 45.8799C72.8164 45.99 73.1061 44.8899 72.8386 44.4132C72.5615 43.9188 72.0827 43.9586 72.0175 44.4811ZM130.568 29.3944C129.529 29.9846 130.246 30.4831 131.368 29.9509C132.009 29.647 132.065 29.1713 131.468 29.1058C131.267 29.0838 131.09 29.0791 131.073 29.0954C131.056 29.1117 130.829 29.2461 130.568 29.3944ZM27.3731 56.0131C26.9932 56.8284 27.2885 57.7228 27.7691 57.2122C27.9922 56.9752 28.2314 56.0797 28.1534 55.7738C28.0765 55.472 27.5498 55.6335 27.3731 56.0131ZM112.053 34.5567C111.9 35.0285 113.349 35.2449 113.769 34.8128C113.98 34.5955 113.962 34.5071 113.665 34.2964C113.283 34.0248 112.167 34.2049 112.053 34.5567ZM128.281 30.3748C127.584 30.7552 128.05 31.1589 128.928 30.9352C129.629 30.7563 129.752 30.652 129.664 30.3091C129.559 29.8963 129.119 29.9172 128.281 30.3748ZM126.128 31.2409C125.684 31.543 125.661 31.874 126.077 31.9997C126.489 32.1245 127.72 31.4717 127.643 31.1689C127.555 30.8257 126.678 30.8674 126.128 31.2409ZM114.379 34.5126C114.462 34.8389 114.962 34.9351 115.655 34.7584C116.236 34.6101 116.375 34.4081 116.13 34.0678C115.875 33.7122 114.278 34.1177 114.379 34.5126ZM124.034 31.9537C123.763 32.0997 123.575 32.3538 123.617 32.5184C123.712 32.8899 125.331 32.5324 125.363 32.1331C125.393 31.7503 124.607 31.6443 124.034 31.9537ZM116.803 34.1916C116.972 34.5494 117.947 34.5319 118.479 34.1615C118.979 33.8126 118.183 33.4562 117.368 33.6643C116.79 33.8116 116.674 33.9192 116.803 34.1916ZM119.501 33.2927C118.897 33.5491 119.045 34.0309 119.726 34.0247C120.384 34.0186 120.892 33.6945 120.801 33.3384C120.724 33.0348 120.156 33.0148 119.501 33.2927ZM121.618 32.8059C121.384 32.9747 121.205 33.1644 121.221 33.2276C121.279 33.4518 122.36 33.4558 122.767 33.2332C123.169 33.0137 123.233 32.3875 122.843 32.4868C122.737 32.5139 122.514 32.5277 122.347 32.5177C122.18 32.5074 121.852 32.6371 121.618 32.8059ZM26.6332 58.4578C26.4833 59.2527 26.6123 59.6578 26.9852 59.5627C27.2831 59.4867 27.6868 58.3374 27.5728 57.8902C27.4615 57.4539 26.7402 57.8896 26.6332 58.4578ZM72.0123 46.7762C71.8658 47.3475 72.1377 48.0893 72.5017 48.1117C72.644 48.1205 72.7894 47.8172 72.8246 47.4378C72.9296 46.3092 72.27 45.772 72.0123 46.7762ZM26.2538 60.4503C25.9796 60.9006 26.2868 61.9317 26.6663 61.8349C27.0309 61.7419 27.2513 61.023 27.0987 60.4246C26.9789 59.9547 26.5476 59.9679 26.2538 60.4503ZM71.9106 48.7214C71.641 48.9955 71.5275 49.9844 71.7313 50.2854C71.9847 50.6592 72.5462 50.0092 72.5473 49.3412C72.5485 48.6948 72.2361 48.3908 71.9106 48.7214ZM26.0146 62.7035C25.7413 63.4042 25.8917 63.9815 26.361 64.0329C26.8126 64.0825 27.002 63.5914 26.8176 62.8499C26.6318 62.1038 26.2741 62.0386 26.0146 62.7035ZM71.0897 51.3445C70.8361 51.8121 70.9296 52.7402 71.2222 52.6594C71.6383 52.5443 72.0991 51.4849 71.9638 50.9544C71.8753 50.6076 71.3661 50.8347 71.0897 51.3445ZM70.1427 53.6982C69.8307 54.4578 69.9139 54.749 70.4073 54.6232C70.8567 54.5086 71.0796 54.1255 71.119 53.401C71.1569 52.7019 70.4655 52.9122 70.1427 53.6982ZM26.198 65.6789C26.4314 66.5943 26.9835 66.7179 26.9988 65.858C27.0149 64.9513 26.8478 64.6368 26.4089 64.7487C26.0582 64.8382 26.0231 64.9932 26.198 65.6789ZM69.1707 55.6647C68.7525 56.4025 68.8312 56.7779 69.3751 56.6392C69.8423 56.52 70.3133 55.4471 70.0199 55.1698C69.7335 54.8991 69.5414 55.0112 69.1707 55.6647ZM26.481 67.0627C26.2916 67.3735 26.6428 68.35 27.0039 68.5165C27.5356 68.7616 27.7464 68.142 27.3615 67.4648C27.0441 66.9062 26.6779 66.7391 26.481 67.0627ZM67.9047 57.8068C67.5987 58.4779 67.7188 58.8143 68.2187 58.6868C68.578 58.5952 69.1558 57.3699 68.9373 57.1631C68.6393 56.8814 68.2025 57.1534 67.9047 57.8068ZM27.2685 69.2719C27.0701 69.5975 27.3337 70.154 27.8696 70.5411C28.3411 70.8821 28.4041 70.8814 28.4491 70.5344C28.5463 69.7873 27.5821 68.7566 27.2685 69.2719ZM66.5913 59.6088C66.1802 60.3341 66.2502 60.7225 66.7679 60.5904C67.2371 60.4708 67.6939 59.692 67.5729 59.2176C67.4485 58.7296 66.9851 58.9142 66.5913 59.6088ZM65.246 61.3197C65.0336 61.5614 64.9058 61.939 64.9619 62.1589C65.0811 62.6263 65.1081 62.6258 65.7192 62.1428C66.2082 61.7563 66.3797 61.2242 66.1001 60.9601C65.8671 60.7397 65.6893 60.8147 65.246 61.3197ZM28.3931 71.6503C28.53 72.1872 29.5747 72.8004 29.7795 72.464C30.0271 72.0573 29.1796 71.0529 28.6934 71.1769C28.4521 71.2385 28.3351 71.423 28.3931 71.6503ZM63.7808 63.0228C63.1381 63.59 63.2623 64.4415 63.9294 64.0409C64.5117 63.691 64.8029 63.2927 64.7185 62.9616C64.6079 62.5281 64.3201 62.547 63.7808 63.0228ZM61.9897 64.7825C61.3717 65.3439 61.4577 65.8883 62.1368 65.7151C62.6458 65.5853 63.1817 64.8433 63.0733 64.4183C62.9913 64.097 62.5994 64.2287 61.9897 64.7825ZM29.9765 73.0502C29.8517 73.4342 30.779 74.1505 31.2463 74.0313C31.8038 73.8891 31.6587 73.4527 30.9222 73.0566C30.246 72.6932 30.0927 72.6922 29.9765 73.0502ZM60.3683 66.3322C59.7694 66.9424 59.8393 67.3965 60.5056 67.2265C61.0676 67.0832 61.6311 66.2082 61.3394 65.9323C61.081 65.6879 60.9462 65.7436 60.3683 66.3322ZM31.869 74.3203C31.6874 74.8791 33.2733 75.4864 33.5785 74.9752C33.7138 74.749 33.5808 74.5886 33.0401 74.3253C32.2537 73.9426 31.9919 73.9415 31.869 74.3203ZM58.2237 68.0714C57.9172 68.5748 58.1328 68.9271 58.664 68.7917C59.1134 68.677 59.7124 67.934 59.6267 67.5977C59.5658 67.3591 58.4224 67.7451 58.2237 68.0714ZM56.5516 69.3786C55.9627 69.8651 56.1493 70.3094 56.8657 70.1266C57.4943 69.9663 57.8771 69.5238 57.7656 69.0865C57.6843 68.7679 57.1295 68.9015 56.5516 69.3786ZM34.0523 75.3894C34.1432 75.7459 34.8742 75.9542 35.4862 75.7981C36.0936 75.6432 35.901 75.1569 35.1836 75.0342C34.3755 74.8959 33.9598 75.0265 34.0523 75.3894ZM54.545 70.736C54.0936 71.1714 54.2896 71.6613 54.8542 71.509C55.3949 71.3632 55.9513 70.7588 55.8631 70.413C55.7894 70.124 54.9718 70.3244 54.545 70.736ZM36.3483 75.5733C36.0088 75.9179 36.9073 76.3121 37.6184 76.1307C37.9574 76.0443 38.214 75.8923 38.1886 75.793C38.0755 75.3494 36.7272 75.1885 36.3483 75.5733ZM52.4958 71.9328C52.2294 72.3703 52.3671 72.8075 52.7416 72.712C53.2579 72.5804 54.0145 71.8874 53.8762 71.673C53.685 71.3764 52.7245 71.5572 52.4958 71.9328ZM38.6761 75.9471C38.7593 76.2734 39.2591 76.3696 39.9521 76.1928C40.5692 76.0355 40.7088 75.7841 40.329 75.5144C39.915 75.2206 38.58 75.5702 38.6761 75.9471ZM50.4917 72.8544C49.8776 73.2968 50.0887 73.8277 50.8043 73.641C51.5718 73.4407 51.9258 73.045 51.6634 72.6805C51.4269 72.3517 51.1282 72.3961 50.4917 72.8544ZM40.996 75.6221C40.7783 75.9795 41.505 76.235 42.2201 76.0526C42.7978 75.9053 42.9131 75.7976 42.7845 75.5253C42.6739 75.2908 42.3842 75.2234 41.8652 75.311C41.4484 75.3816 41.0573 75.5214 40.996 75.6221ZM48.0513 73.8291C47.7289 74.0697 47.8785 74.5353 48.2928 74.5808C48.7651 74.6325 49.843 73.8938 49.6749 73.6335C49.5278 73.4057 48.4436 73.5363 48.0513 73.8291ZM43.3494 75.2896C43.229 75.6601 43.9611 75.8643 44.5763 75.6318C45.451 75.3011 45.1704 74.7676 44.2078 74.9311C43.7757 75.0047 43.3895 75.1659 43.3494 75.2896ZM45.6506 74.7395C45.5217 75.1363 45.9044 75.3323 46.5034 75.176C47.21 74.9917 47.6214 74.5822 47.3542 74.3296C47.1017 74.091 45.756 74.4147 45.6506 74.7395Z" fill="#E7E0CB" fill-opacity="0.8"></path></svg> 