<?xml version="1.0" encoding="UTF-8"?> <svg xmlns="http://www.w3.org/2000/svg" width="288" height="71" viewBox="0 0 288 71" fill="none"><path d="M100.569 0.490877H101.521C102.903 0.864877 103.595 1.49388 103.595 2.37788V3.04088C103.595 3.09754 103.623 3.12588 103.68 3.12588C103.68 4.45188 102.864 6.68454 101.232 9.82388C100.484 10.9119 99.951 11.5409 99.6337 11.7109C99.3164 11.6202 99.1577 11.2122 99.1577 10.4869L99.2597 9.36488C99.067 8.76421 98.9707 8.44688 98.9707 8.41288H98.7837C98.217 8.96821 97.401 10.0052 96.3357 11.5239C95.9504 11.8072 95.7577 11.9659 95.7577 11.9999C95.4517 11.9092 95.2987 11.6882 95.2987 11.3369C95.2987 11.1102 95.327 10.8269 95.3837 10.4869C95.259 10.2829 95.1967 10.0959 95.1967 9.92588V9.73888C96.3867 8.23154 97.2367 7.31921 97.7467 7.00188C97.4294 5.78921 97.2707 4.97321 97.2707 4.55388C97.4747 3.18254 97.8544 2.20788 98.4097 1.62988C98.9877 1.02921 99.7074 0.649544 100.569 0.490877ZM98.0187 4.82588C98.0187 5.75521 98.2737 6.48054 98.7837 7.00188C100.665 4.02121 101.606 2.25888 101.606 1.71488C101.606 1.63554 101.419 1.47688 101.045 1.23888C99.5374 1.46554 98.7837 1.81121 98.7837 2.27588C98.2737 2.62721 98.0187 3.47721 98.0187 4.82588ZM102.269 2.47988C101.906 3.18254 101.186 4.34421 100.11 5.96488C99.6677 6.80354 99.4467 7.30788 99.4467 7.47788V7.74988C99.696 8.12388 99.8207 8.87754 99.8207 10.0109V10.5889H100.11C102.059 7.03021 103.034 4.95621 103.034 4.36688C103.034 4.29888 103 4.20254 102.932 4.07788C103 3.73788 103.034 3.45454 103.034 3.22788V2.85388C102.932 2.60454 102.711 2.47988 102.371 2.47988H102.269ZM96.0467 10.6739H96.1317C96.3017 10.6739 96.9024 9.89188 97.9337 8.32788C98.0584 8.32788 98.1207 8.16921 98.1207 7.85188V7.74988H97.9337C97.3104 7.74988 96.7097 8.66221 96.1317 10.4869C96.075 10.4869 96.0467 10.5492 96.0467 10.6739ZM106.537 4.62188H107.047C107.341 4.62188 107.659 4.91088 107.999 5.48888C108.407 5.48888 108.611 5.68721 108.611 6.08388C108.214 7.04721 107.664 8.05588 106.962 9.10988C106.792 9.51788 106.707 9.77288 106.707 9.87488C106.707 10.9629 106.939 11.5069 107.404 11.5069C107.608 11.5069 107.863 11.5409 108.169 11.6089C108.486 11.5409 108.803 11.5069 109.121 11.5069C109.121 11.7109 108.633 11.9432 107.659 12.2039C106.514 12.2039 105.942 11.5125 105.942 10.1299L105.755 10.0449C104.916 10.9629 104.111 11.5975 103.341 11.9489C103.001 11.9489 102.802 11.7165 102.746 11.2519V10.6569C102.972 7.90288 103.488 6.35021 104.293 5.99888C105.143 5.08088 105.891 4.62188 106.537 4.62188ZM103.443 10.2149V10.5719L103.528 10.9969H103.783C104.168 10.6682 104.74 10.2659 105.5 9.78988C105.794 9.55188 105.998 9.06454 106.112 8.32788L107.132 5.99888V5.82888C107.132 5.65888 106.792 5.54554 106.112 5.48888C105.058 5.89688 104.338 6.55421 103.953 7.46088L103.443 10.2149ZM111.743 7.86888C112.559 8.03888 114.123 8.22588 116.435 8.42988C116.435 8.49788 116.469 8.53188 116.537 8.53188C116.537 8.46388 116.571 8.42988 116.639 8.42988L116.826 8.71888H116.724C116.395 8.71888 116.112 8.69054 115.874 8.63388C115.046 8.75854 114.502 8.82088 114.242 8.82088L113.375 8.71888L113.188 8.82088L111.267 8.63388C111.153 8.69054 111.023 8.71888 110.876 8.71888C110.876 8.46954 110.813 8.34488 110.689 8.34488L110.978 7.95388L111.165 8.05588H111.267C111.584 8.05588 111.743 7.99354 111.743 7.86888ZM120.363 4.57088C121.53 4.80888 122.114 5.33588 122.114 6.15188H122.029C122.074 6.38988 122.131 6.50888 122.199 6.50888C122.085 6.74688 122.029 6.92254 122.029 7.03588C122.323 7.19454 122.471 7.42688 122.471 7.73288C122.471 7.97088 122.029 8.41288 121.145 9.05888C120.397 9.90888 119.932 10.6115 119.751 11.1669C119.807 11.1669 119.836 11.1952 119.836 11.2519L120.006 11.1669H120.176V11.2519C119.62 11.5919 119.241 12.1529 119.037 12.9349C118.175 14.6349 117.382 16.2725 116.657 17.8479C116.226 18.7319 115.699 19.1739 115.076 19.1739C113.965 18.4712 113.41 17.6495 113.41 16.7089L113.58 16.4539V15.0429C114.124 14.0002 114.974 13.2069 116.13 12.6629L118.782 11.5239C118.782 11.4219 118.929 11.0989 119.224 10.5549L119.037 10.4699C119.037 10.6172 118.742 10.7645 118.153 10.9119C117.45 10.9119 117.099 10.3509 117.099 9.22888C117.688 6.23688 118.481 4.74088 119.479 4.74088L120.363 4.57088ZM120.006 5.26788C120.006 5.48321 119.626 5.86854 118.867 6.42388C118.334 7.34188 118.068 8.33921 118.068 9.41588C118.124 9.76721 118.215 9.94288 118.34 9.94288H118.425C119.581 9.94288 120.606 8.85488 121.502 6.67888V6.50888C121.502 6.06688 121.15 5.65321 120.448 5.26788V5.36988L120.278 5.26788H120.006ZM114.209 16.4539C114.526 17.8025 114.877 18.4769 115.263 18.4769C115.591 18.4769 116.441 16.9809 117.813 13.9889C118.164 13.2749 118.34 12.7139 118.34 12.3059C118.283 12.3059 118.255 12.2775 118.255 12.2209C116.985 12.8555 116.101 13.3542 115.603 13.7169L114.464 15.7399L114.209 16.4539ZM125.946 4.62188H126.456C126.751 4.62188 127.068 4.91088 127.408 5.48888C127.816 5.48888 128.02 5.68721 128.02 6.08388C127.624 7.04721 127.074 8.05588 126.371 9.10988C126.201 9.51788 126.116 9.77288 126.116 9.87488C126.116 10.9629 126.349 11.5069 126.813 11.5069C127.017 11.5069 127.272 11.5409 127.578 11.6089C127.896 11.5409 128.213 11.5069 128.53 11.5069C128.53 11.7109 128.043 11.9432 127.068 12.2039C125.924 12.2039 125.351 11.5125 125.351 10.1299L125.164 10.0449C124.326 10.9629 123.521 11.5975 122.75 11.9489C122.41 11.9489 122.212 11.7165 122.155 11.2519V10.6569C122.382 7.90288 122.898 6.35021 123.702 5.99888C124.552 5.08088 125.3 4.62188 125.946 4.62188ZM122.852 10.2149V10.5719L122.937 10.9969H123.192C123.578 10.6682 124.15 10.2659 124.909 9.78988C125.204 9.55188 125.408 9.06454 125.521 8.32788L126.541 5.99888V5.82888C126.541 5.65888 126.201 5.54554 125.521 5.48888C124.467 5.89688 123.748 6.55421 123.362 7.46088L122.852 10.2149ZM129.112 10.6229H129.588C129.792 11.1895 129.894 11.7845 129.894 12.4079V12.7989C129.894 13.1615 129.685 13.6545 129.265 14.2779C129.265 14.5385 129.141 14.7709 128.891 14.9749H128.806V14.8219C129.112 13.8019 129.265 13.0992 129.265 12.7139V12.2549C129.265 11.9829 129.192 11.5182 129.044 10.8609C129.09 10.7589 129.112 10.6795 129.112 10.6229ZM145.123 4.62188C145.757 4.76921 146.075 5.17721 146.075 5.84588C146.075 6.35588 145.82 7.01888 145.31 7.83488V8.02188H145.599C145.859 8.02188 146.205 7.99354 146.636 7.93688C146.76 7.99354 146.857 8.02188 146.925 8.02188V8.12388C146.834 8.31654 146.109 8.53754 144.749 8.78688C144.749 8.94554 144.335 9.35354 143.508 10.0109C142.454 11.3369 141.638 11.9999 141.06 11.9999L140.958 11.8129V11.7109C142.658 10.1242 143.508 9.21188 143.508 8.97388L143.321 8.87188C142.187 8.93988 141.434 8.97388 141.06 8.97388L140.584 8.87188V8.68488C140.64 8.43554 141.179 8.27688 142.199 8.20888C142.981 8.27688 143.389 8.31088 143.423 8.31088C144.295 8.31088 144.924 7.48921 145.31 5.84588V5.47188C145.31 5.34721 145.247 5.28488 145.123 5.28488C143.615 5.47754 142.862 6.01588 142.862 6.89988C142.544 6.89988 142.352 6.76954 142.284 6.50888C142.284 5.57954 143.105 4.95054 144.749 4.62188H145.123ZM147.881 4.51988L148.357 4.85988L148.238 5.09788V5.55688H148.357C149.389 4.86554 150.04 4.51988 150.312 4.51988H150.533C150.703 4.51988 150.896 4.82588 151.111 5.43788L149.955 9.92588V10.0449C150.579 10.0449 152.233 8.62254 154.919 5.77788C154.919 5.60788 155.072 5.41521 155.378 5.19988C155.526 5.27921 155.639 5.31888 155.718 5.31888V5.55688C155.027 6.30488 154.681 7.52888 154.681 9.22888C154.602 9.22888 154.562 9.34788 154.562 9.58588C154.8 10.4245 154.919 10.9232 154.919 11.0819C154.398 11.0819 154.013 10.2772 153.763 8.66788L153.984 7.39288C151.582 10.0789 150.086 11.4219 149.496 11.4219L149.156 10.8439C149.156 10.5039 149.462 8.85488 150.074 5.89688V5.43788H149.955C147.813 6.92254 146.742 8.07288 146.742 8.88888C146.459 9.34221 145.994 10.3395 145.348 11.8809L145.127 11.9999H145.008C144.702 11.8412 144.549 11.6089 144.549 11.3029C144.663 11.3029 144.969 10.4245 145.467 8.66788C145.649 8.47521 146.34 7.16621 147.541 4.74088C147.768 4.67288 147.881 4.59921 147.881 4.51988ZM160.371 4.62188C161.051 4.62188 161.572 5.11488 161.935 6.10088C161.935 8.08421 160.983 9.76721 159.079 11.1499C158.342 11.7165 157.549 12.0225 156.699 12.0679C156.144 11.7619 155.866 11.3652 155.866 10.8779C155.866 9.98254 156.297 8.69621 157.158 7.01888C157.441 6.04421 157.963 5.33588 158.722 4.89388C159.345 4.71254 159.895 4.62188 160.371 4.62188ZM158.076 6.64488C158.178 6.83754 158.269 7.17188 158.348 7.64788C158.257 7.97654 158.076 8.25421 157.804 8.48088C157.963 9.29688 158.144 9.81821 158.348 10.0449V10.2319C157.838 9.94854 157.441 9.48954 157.158 8.85488C156.886 8.85488 156.733 9.55754 156.699 10.9629V11.2349C156.699 11.3255 156.79 11.4219 156.971 11.5239H157.056C158.745 10.8779 160.065 9.71054 161.017 8.02188C161.198 7.35321 161.317 7.01888 161.374 7.01888C161.374 5.97621 160.796 5.45488 159.64 5.45488C158.858 5.65888 158.365 5.96488 158.161 6.37288C158.104 6.48621 158.076 6.57688 158.076 6.64488ZM176.374 4.55388C176.714 4.65588 176.884 4.88821 176.884 5.25088C176.385 6.42954 175.682 7.50621 174.776 8.48088C174.708 8.74154 174.674 9.00788 174.674 9.27988V10.1809C174.708 10.5889 174.81 10.7929 174.98 10.7929H175.371C175.654 10.5549 176.629 10.0505 178.295 9.27988C179.065 6.66188 179.604 5.35288 179.91 5.35288C180.25 5.22821 180.516 5.16588 180.709 5.16588C180.845 5.38121 180.913 5.57954 180.913 5.76088C180.913 6.72421 180.476 7.73288 179.604 8.78688C179.128 9.28554 178.89 10.0562 178.89 11.0989C179.026 11.5295 179.094 11.8299 179.094 11.9999C178.493 11.4785 178.193 10.8439 178.193 10.0959C176.3 11.0932 175.195 11.5919 174.878 11.5919C174.198 11.5919 173.858 10.8552 173.858 9.38188H173.569L170.135 11.5919H169.948C169.608 11.4899 169.438 11.0535 169.438 10.2829V9.68788C169.438 9.37054 169.608 9.10421 169.948 8.88888C170.412 9.01354 170.747 9.21188 170.951 9.48388L170.849 9.68788V9.89188C170.871 10.0279 170.939 10.0959 171.053 10.0959C171.268 9.95988 171.466 9.89188 171.648 9.89188C171.67 10.0279 171.738 10.0959 171.852 10.0959H171.954C173.359 8.99654 174.062 8.22021 174.062 7.76688C174.436 5.69288 174.974 4.65588 175.677 4.65588C175.937 4.58788 176.17 4.55388 176.374 4.55388ZM175.065 6.96788V7.06988C175.541 6.74121 175.779 6.37288 175.779 5.96488V5.86288H175.677C175.269 5.99888 175.065 6.36721 175.065 6.96788ZM180.097 6.37288L179.706 7.47788H179.808L180.301 6.76388V6.37288H180.097ZM183.447 4.62188C183.583 4.62188 183.725 4.95621 183.872 5.62488C183.747 6.01021 183.555 6.34454 183.294 6.62788H183.039V6.21988C182.812 6.21988 182.614 6.58254 182.444 7.30788H183.209C184.206 7.30788 184.705 8.03321 184.705 9.48388V9.56888H184.96C186.864 8.84354 187.816 8.11821 187.816 7.39288C188.292 6.75821 188.626 6.19721 188.819 5.70988L188.989 5.62488H189.499C189.771 5.77221 189.907 5.99888 189.907 6.30488C189.907 6.69021 189.295 7.38721 188.071 8.39588C187.062 9.92588 186.558 10.7645 186.558 10.9119V11.2519H186.643C186.7 11.2519 187.034 11.1385 187.646 10.9119C187.725 10.9119 187.81 10.9969 187.901 11.1669V11.2519C187.674 11.5125 187.227 11.7619 186.558 11.9999C186.059 11.8525 185.81 11.6315 185.81 11.3369C185.901 10.8722 186.122 10.3112 186.473 9.65388H186.388C185.447 9.90321 184.444 10.4642 183.379 11.3369C182.325 11.7789 181.679 11.9999 181.441 11.9999C180.716 11.8525 180.353 11.4899 180.353 10.9119C180.489 9.73321 181.299 7.72154 182.784 4.87688C183.067 4.70688 183.288 4.62188 183.447 4.62188ZM182.121 8.31088V8.22588C181.838 8.32788 181.696 8.55454 181.696 8.90588V9.14388C181.696 9.61988 182.087 9.95421 182.869 10.1469H182.954C183.079 10.1469 183.192 10.1242 183.294 10.0789L183.447 10.1469C183.9 9.99954 184.127 9.86354 184.127 9.73888V9.39888C184.127 8.56021 183.651 8.14088 182.699 8.14088L182.121 8.31088ZM181.101 10.5719V11.0819C181.101 11.2292 181.356 11.3369 181.866 11.4049C182.535 11.0875 182.897 10.8665 182.954 10.7419C182.648 10.7419 182.172 10.5209 181.526 10.0789H181.356C181.186 10.1242 181.101 10.2885 181.101 10.5719ZM193.171 0.422877H193.443C193.625 0.422877 193.744 0.836544 193.8 1.66388C193.8 1.83388 193.562 2.69521 193.086 4.24788C192.678 5.33588 192.293 6.10654 191.93 6.55988H191.845V6.47488C192.616 3.89088 193.001 1.99254 193.001 0.779877H192.916C192.996 0.541877 193.081 0.422877 193.171 0.422877ZM190.06 11.2859C190.774 11.3199 191.131 11.4105 191.131 11.5579V11.6429C190.837 11.6429 190.689 11.7619 190.689 11.9999C190.032 11.9432 189.703 11.8242 189.703 11.6429V11.3709C189.737 11.3709 189.856 11.3425 190.06 11.2859ZM55.97 17.4909H56.174C56.922 17.9782 57.296 18.5449 57.296 19.1909C57.1147 19.9275 56.8314 20.7435 56.446 21.6389C56.684 21.8429 57.0014 22.5059 57.398 23.6279C57.398 25.1125 57.0807 26.2119 56.446 26.9259C56.1174 27.7532 55.5224 28.3482 54.661 28.7109L53.522 28.9999C52.9894 28.9999 52.3604 28.4332 51.635 27.2999H51.261C51.261 27.5719 51.074 27.8552 50.7 28.1499C50.5754 28.0932 50.479 28.0649 50.411 28.0649V27.6739C50.411 27.5265 50.7907 26.8975 51.55 25.7869C52.0034 24.7442 53.0687 22.7042 54.746 19.6669C54.746 19.3835 55.0917 19.0039 55.783 18.5279H55.885L56.174 18.7149L56.072 19.1909C56.14 19.3155 56.174 19.4119 56.174 19.4799C55.256 20.5452 54.7177 21.0779 54.559 21.0779L54.474 21.5539L54.661 21.6389C55.6697 21.4915 56.174 21.1175 56.174 20.5169C56.3214 20.5169 56.412 20.1372 56.446 19.3779V18.5279C56.446 18.4259 56.3214 18.3012 56.072 18.1539H55.885C54.9897 18.1539 54.0774 18.5279 53.148 19.2759C53.148 19.4459 52.8647 19.7915 52.298 20.3129C52.23 20.4375 52.196 20.5339 52.196 20.6019H52.111C51.9864 20.6019 51.924 20.5395 51.924 20.4149V19.5649C53.1367 18.1822 54.4854 17.4909 55.97 17.4909ZM53.335 24.0019V24.1889H53.624C54.6214 23.0895 55.12 22.4605 55.12 22.3019L54.933 22.1999C54.3324 22.4492 53.9244 22.8912 53.709 23.5259C53.4597 23.5259 53.335 23.6845 53.335 24.0019ZM52.859 25.1239C52.757 25.0672 52.6324 25.0389 52.485 25.0389L52.111 25.7869V25.9739H52.672C52.74 25.9739 52.774 25.9455 52.774 25.8889C52.8647 25.9455 53.0517 25.9739 53.335 25.9739V26.1779C52.8364 26.3365 52.5247 26.5235 52.4 26.7389C52.7627 27.6229 53.3237 28.0649 54.083 28.0649C55.273 28.0649 56.123 26.8975 56.633 24.5629V23.6279C56.633 22.9479 56.412 22.5399 55.97 22.4039C55.8454 22.4039 55.2164 23.0952 54.083 24.4779C53.573 24.9085 53.165 25.1239 52.859 25.1239ZM60.54 21.4689C60.9253 21.9109 61.118 22.2962 61.118 22.6249V23.5599C60.812 25.1125 60.659 26.3932 60.659 27.4019C60.659 27.8439 61.237 28.1159 62.393 28.2179C62.393 28.3765 62.0473 28.5295 61.356 28.6769C60.3473 28.6769 59.843 28.0195 59.843 26.7049C59.843 25.8549 59.9563 24.9992 60.183 24.1379V23.5599H59.962C59.962 24.0019 59.3783 25.2825 58.211 27.4019C58.211 27.5265 56.851 30.3599 54.131 35.9019H53.672C53.672 35.7432 53.6323 35.6639 53.553 35.6639C56.817 28.7165 58.449 25.0332 58.449 24.6139C58.9363 22.5965 59.5936 21.5879 60.421 21.5879C60.421 21.5085 60.4606 21.4689 60.54 21.4689ZM67.0429 21.6219C67.9382 21.8599 68.3859 22.3075 68.3859 22.9649C68.3859 23.7242 67.0712 24.7952 64.4419 26.1779L64.3569 26.6369C64.3569 27.8269 64.5949 28.4219 65.0709 28.4219C66.1249 28.2972 66.8729 28.1782 67.3149 28.0649C67.3149 28.1215 67.3432 28.1499 67.3999 28.1499C67.3999 28.5692 66.5669 28.8979 64.9009 29.1359C64.0055 29.1359 63.5579 28.3595 63.5579 26.8069C63.1385 26.5235 62.9289 26.3479 62.9289 26.2799V26.1779C63.6995 25.7585 64.0849 24.9539 64.0849 23.7639C64.7195 22.5739 65.3769 21.9789 66.0569 21.9789C66.0569 21.8429 66.3855 21.7239 67.0429 21.6219ZM64.7139 25.0219H64.8159C65.6205 25.0219 66.5442 24.4269 67.5869 23.2369C67.6435 23.1235 67.6719 23.0329 67.6719 22.9649C67.2299 22.6022 66.9295 22.4209 66.7709 22.4209L66.6009 22.5229C66.4989 22.4549 66.3799 22.4209 66.2439 22.4209C65.2239 22.8629 64.7139 23.7299 64.7139 25.0219ZM74.3829 21.5539C74.7229 21.6559 74.8929 21.8882 74.8929 22.2509C74.3942 23.4295 73.6915 24.5062 72.7849 25.4809C72.7169 25.7415 72.6829 26.0079 72.6829 26.2799V27.1809C72.7169 27.5889 72.8189 27.7929 72.9889 27.7929H73.3799C73.6632 27.5549 74.6379 27.0505 76.3039 26.2799C77.0745 23.6619 77.6129 22.3529 77.9189 22.3529C78.2589 22.2282 78.5252 22.1659 78.7179 22.1659C78.8539 22.3812 78.9219 22.5795 78.9219 22.7609C78.9219 23.7242 78.4855 24.7329 77.6129 25.7869C77.1369 26.2855 76.8989 27.0562 76.8989 28.0989C77.0349 28.5295 77.1029 28.8299 77.1029 28.9999C76.5022 28.4785 76.2019 27.8439 76.2019 27.0959C74.3092 28.0932 73.2042 28.5919 72.8869 28.5919C72.2069 28.5919 71.8669 27.8552 71.8669 26.3819H71.5779L68.1439 28.5919H67.9569C67.6169 28.4899 67.4469 28.0535 67.4469 27.2829V26.6879C67.4469 26.3705 67.6169 26.1042 67.9569 25.8889C68.4215 26.0135 68.7559 26.2119 68.9599 26.4839L68.8579 26.6879V26.8919C68.8805 27.0279 68.9485 27.0959 69.0619 27.0959C69.2772 26.9599 69.4755 26.8919 69.6569 26.8919C69.6795 27.0279 69.7475 27.0959 69.8609 27.0959H69.9629C71.3682 25.9965 72.0709 25.2202 72.0709 24.7669C72.4449 22.6929 72.9832 21.6559 73.6859 21.6559C73.9465 21.5879 74.1789 21.5539 74.3829 21.5539ZM73.0739 23.9679V24.0699C73.5499 23.7412 73.7879 23.3729 73.7879 22.9649V22.8629H73.6859C73.2779 22.9989 73.0739 23.3672 73.0739 23.9679ZM78.1059 23.3729L77.7149 24.4779H77.8169L78.3099 23.7639V23.3729H78.1059ZM84.2782 21.5539H84.3632C85.0205 21.6559 85.3492 21.9845 85.3492 22.5399L85.2642 22.9819H85.3492C85.0885 23.8999 84.3405 24.9482 83.1052 26.1269C83.2299 26.9769 83.2922 27.5775 83.2922 27.9289V28.0139C83.2922 28.2745 83.9495 28.4842 85.2642 28.6429C85.2642 28.6995 85.3265 28.7279 85.4512 28.7279V28.8129C84.9072 28.9375 84.5162 28.9999 84.2782 28.9999H83.9212C82.9579 28.9999 82.4762 28.6995 82.4762 28.0989C82.4762 28.0649 82.5102 27.6795 82.5782 26.9429L82.3062 26.7559C80.6969 28.0705 79.5919 28.7279 78.9912 28.7279H78.5322C78.2942 28.6259 78.0562 28.2689 77.8182 27.6569C78.0222 26.5235 78.4415 25.9569 79.0762 25.9569C79.3142 25.9569 79.5239 26.2232 79.7052 26.7559C79.7052 27.0165 79.3765 27.2885 78.7192 27.5719V27.6569C78.8325 27.6569 78.8892 27.8042 78.8892 28.0989H79.4332C79.6939 27.8155 80.5609 27.2489 82.0342 26.3989V26.1269C81.6149 25.5942 81.4052 25.0842 81.4052 24.5969V24.3419C81.4052 23.4919 82.0059 22.6532 83.2072 21.8259C83.4112 21.6445 83.7682 21.5539 84.2782 21.5539ZM82.1192 24.6989C82.2552 25.4129 82.4365 25.7699 82.6632 25.7699H82.7482C84.0629 24.6025 84.7202 23.6165 84.7202 22.8119V22.7269C84.4255 22.7269 84.2782 22.6022 84.2782 22.3529H84.0062C83.0089 22.3529 82.3799 23.1349 82.1192 24.6989ZM102.716 21.4519C103.169 21.4519 103.396 21.6785 103.396 22.1319C103.396 22.9592 102.478 24.1832 100.642 25.8039V26.1439C100.642 27.1752 101.367 27.9742 102.818 28.5409V28.6599H102.597C100.942 28.6599 100.024 27.9345 99.843 26.4839C98.2224 27.1752 97.0437 27.8609 96.307 28.5409C95.4684 28.7675 95.049 28.9205 95.049 28.9999C94.3577 28.9999 94.012 28.4275 94.012 27.2829C94.1934 26.2175 94.42 25.6849 94.692 25.6849H94.811C95.423 25.6849 95.729 26.0645 95.729 26.8239C95.6497 26.9599 95.61 27.1129 95.61 27.2829V27.7419C97.4347 26.8239 98.6927 26.2515 99.384 26.0249C99.5767 25.8889 100.036 24.8575 100.761 22.9309C101.396 21.9449 102.047 21.4519 102.716 21.4519ZM101.339 23.7299V24.0869H101.458C102.059 23.6449 102.359 23.1859 102.359 22.7099H102.138C101.934 22.7892 101.668 23.1292 101.339 23.7299ZM107.328 21.6219C108.224 21.8599 108.671 22.3075 108.671 22.9649C108.671 23.7242 107.357 24.7952 104.727 26.1779L104.642 26.6369C104.642 27.8269 104.88 28.4219 105.356 28.4219C106.41 28.2972 107.158 28.1782 107.6 28.0649C107.6 28.1215 107.629 28.1499 107.685 28.1499C107.685 28.5692 106.852 28.8979 105.186 29.1359C104.291 29.1359 103.843 28.3595 103.843 26.8069C103.424 26.5235 103.214 26.3479 103.214 26.2799V26.1779C103.985 25.7585 104.37 24.9539 104.37 23.7639C105.005 22.5739 105.662 21.9789 106.342 21.9789C106.342 21.8429 106.671 21.7239 107.328 21.6219ZM104.999 25.0219H105.101C105.906 25.0219 106.83 24.4269 107.872 23.2369C107.929 23.1235 107.957 23.0329 107.957 22.9649C107.515 22.6022 107.215 22.4209 107.056 22.4209L106.886 22.5229C106.784 22.4549 106.665 22.4209 106.529 22.4209C105.509 22.8629 104.999 23.7299 104.999 25.0219ZM111.064 21.5199L111.54 21.8599L111.421 22.0979V22.5569H111.54C112.572 21.8655 113.223 21.5199 113.495 21.5199H113.716C113.886 21.5199 114.079 21.8259 114.294 22.4379L113.138 26.9259V27.0449C113.762 27.0449 115.416 25.6225 118.102 22.7779C118.102 22.6079 118.255 22.4152 118.561 22.1999C118.709 22.2792 118.822 22.3189 118.901 22.3189V22.5569C118.21 23.3049 117.864 24.5289 117.864 26.2289C117.785 26.2289 117.745 26.3479 117.745 26.5859C117.983 27.4245 118.102 27.9232 118.102 28.0819C117.581 28.0819 117.196 27.2772 116.946 25.6679L117.167 24.3929C114.765 27.0789 113.269 28.4219 112.679 28.4219L112.339 27.8439C112.339 27.5039 112.645 25.8549 113.257 22.8969V22.4379H113.138C110.996 23.9225 109.925 25.0729 109.925 25.8889C109.642 26.3422 109.177 27.3395 108.531 28.8809L108.31 28.9999H108.191C107.885 28.8412 107.732 28.6089 107.732 28.3029C107.846 28.3029 108.152 27.4245 108.65 25.6679C108.832 25.4752 109.523 24.1662 110.724 21.7409C110.951 21.6729 111.064 21.5992 111.064 21.5199ZM121.548 21.6219C121.752 21.6219 121.854 21.7579 121.854 22.0299C121.265 22.5965 120.687 23.7185 120.12 25.3959C119.848 26.3819 119.712 27.1979 119.712 27.8439C119.78 28.0479 119.848 28.1499 119.916 28.1499C121.288 27.3225 122.546 26.3365 123.69 25.1919C124.699 24.2512 125.583 23.1972 126.342 22.0299L126.852 21.9279C127.192 21.9279 127.362 22.1319 127.362 22.5399C127.102 23.4579 126.626 24.1719 125.934 24.6819C125.254 25.4752 124.914 26.5292 124.914 27.8439C124.914 28.3879 125.186 28.6939 125.73 28.7619V28.8639C125.73 28.9999 125.662 29.0679 125.526 29.0679H125.322C124.574 29.0679 124.2 28.5579 124.2 27.5379L124.302 26.3139H123.996C122.41 27.7192 121.016 28.5692 119.814 28.8639C119.27 28.8639 118.998 28.3879 118.998 27.4359V27.3339C118.998 26.0192 119.712 24.1152 121.14 21.6219H121.548ZM129.449 21.5199L129.925 21.8599L129.806 22.0979V22.5569H129.925C130.957 21.8655 131.608 21.5199 131.88 21.5199H132.101C132.271 21.5199 132.464 21.8259 132.679 22.4379L131.523 26.9259V27.0449C132.147 27.0449 133.801 25.6225 136.487 22.7779C136.487 22.6079 136.64 22.4152 136.946 22.1999C137.094 22.2792 137.207 22.3189 137.286 22.3189V22.5569C136.595 23.3049 136.249 24.5289 136.249 26.2289C136.17 26.2289 136.13 26.3479 136.13 26.5859C136.368 27.4245 136.487 27.9232 136.487 28.0819C135.966 28.0819 135.581 27.2772 135.331 25.6679L135.552 24.3929C133.15 27.0789 131.654 28.4219 131.064 28.4219L130.724 27.8439C130.724 27.5039 131.03 25.8549 131.642 22.8969V22.4379H131.523C129.381 23.9225 128.31 25.0729 128.31 25.8889C128.027 26.3422 127.562 27.3395 126.916 28.8809L126.695 28.9999H126.576C126.27 28.8412 126.117 28.6089 126.117 28.3029C126.231 28.3029 126.537 27.4245 127.035 25.6679C127.217 25.4752 127.908 24.1662 129.109 21.7409C129.336 21.6729 129.449 21.5992 129.449 21.5199ZM156.723 16.2499C156.972 16.3179 157.187 16.3519 157.369 16.3519V16.6239C153.436 17.3719 150.937 18.0292 149.872 18.5959L149.974 18.7829H149.413C149.413 18.9642 149.35 19.0549 149.226 19.0549C149.226 19.2815 149.537 20.0635 150.161 21.4009C150.24 22.1375 150.365 22.6419 150.535 22.9139C150.535 25.6565 149.345 27.6512 146.965 28.8979C146.897 28.8979 146.806 28.9319 146.693 28.9999C146.251 28.8979 146.03 28.7109 146.03 28.4389C146.03 26.7275 146.84 24.7272 148.461 22.4379L149.498 21.7749C148.999 20.6982 148.466 19.9502 147.9 19.5309C147.956 18.5335 148.33 18.0349 149.022 18.0349C149.316 17.7175 150.665 17.3435 153.068 16.9129C153.283 16.6862 154.501 16.4652 156.723 16.2499ZM146.778 28.0649L146.965 28.1499C148.903 26.8919 149.872 25.4582 149.872 23.8489V23.5599C149.872 23.4352 149.685 23.3445 149.311 23.2879C148.483 23.2879 147.673 24.7215 146.88 27.5889L146.778 28.0649ZM153.332 21.6219C153.468 21.6219 153.61 21.9562 153.757 22.6249C153.633 23.0102 153.44 23.3445 153.179 23.6279H152.924V23.2199C152.698 23.2199 152.499 23.5825 152.329 24.3079H153.094C154.092 24.3079 154.59 25.0332 154.59 26.4839V26.5689H154.845C156.749 25.8435 157.701 25.1182 157.701 24.3929C158.177 23.7582 158.512 23.1972 158.704 22.7099L158.874 22.6249H159.384C159.656 22.7722 159.792 22.9989 159.792 23.3049C159.792 23.6902 159.18 24.3872 157.956 25.3959C156.948 26.9259 156.443 27.7645 156.443 27.9119V28.2519H156.528C156.585 28.2519 156.919 28.1385 157.531 27.9119C157.611 27.9119 157.696 27.9969 157.786 28.1669V28.2519C157.56 28.5125 157.112 28.7619 156.443 28.9999C155.945 28.8525 155.695 28.6315 155.695 28.3369C155.786 27.8722 156.007 27.3112 156.358 26.6539H156.273C155.333 26.9032 154.33 27.4642 153.264 28.3369C152.21 28.7789 151.564 28.9999 151.326 28.9999C150.601 28.8525 150.238 28.4899 150.238 27.9119C150.374 26.7332 151.185 24.7215 152.669 21.8769C152.953 21.7069 153.174 21.6219 153.332 21.6219ZM152.006 25.3109V25.2259C151.723 25.3279 151.581 25.5545 151.581 25.9059V26.1439C151.581 26.6199 151.972 26.9542 152.754 27.1469H152.839C152.964 27.1469 153.077 27.1242 153.179 27.0789L153.332 27.1469C153.786 26.9995 154.012 26.8635 154.012 26.7389V26.3989C154.012 25.5602 153.536 25.1409 152.584 25.1409L152.006 25.3109ZM150.986 27.5719V28.0819C150.986 28.2292 151.241 28.3369 151.751 28.4049C152.42 28.0875 152.783 27.8665 152.839 27.7419C152.533 27.7419 152.057 27.5209 151.411 27.0789H151.241C151.071 27.1242 150.986 27.2885 150.986 27.5719ZM162.768 21.5539C163.482 21.5539 163.907 22.0129 164.043 22.9309V23.1519C164.043 23.7299 163.584 24.4042 162.666 25.1749H162.343C162.127 25.1295 162.02 24.8462 162.02 24.3249V24.1039C162.02 24.0359 162.161 23.9282 162.445 23.7809C162.683 23.9282 162.864 24.0019 162.989 24.0019L163.091 23.7809V23.2539C163.091 23.1405 162.841 22.9989 162.343 22.8289C160.994 22.8289 160.32 23.8942 160.32 26.0249C160.252 26.0249 160.218 26.2345 160.218 26.6539V26.7729C160.331 27.7589 160.58 28.2519 160.966 28.2519C162.314 28.2519 162.989 28.3595 162.989 28.5749C162.989 28.7562 162.598 28.8979 161.816 28.9999L161.595 28.8979C161.538 28.8979 161.255 28.9319 160.745 28.9999C159.963 28.9999 159.504 28.2575 159.368 26.7729V26.2289C159.674 23.6789 160.24 22.4039 161.068 22.4039C161.068 22.3132 161.634 22.0299 162.768 21.5539ZM166.796 21.5199L167.272 21.8599L167.153 22.0979V22.5569H167.272C168.304 21.8655 168.955 21.5199 169.227 21.5199H169.448C169.618 21.5199 169.811 21.8259 170.026 22.4379L168.87 26.9259V27.0449C169.494 27.0449 171.148 25.6225 173.834 22.7779C173.834 22.6079 173.987 22.4152 174.293 22.1999C174.441 22.2792 174.554 22.3189 174.633 22.3189V22.5569C173.942 23.3049 173.596 24.5289 173.596 26.2289C173.517 26.2289 173.477 26.3479 173.477 26.5859C173.715 27.4245 173.834 27.9232 173.834 28.0819C173.313 28.0819 172.928 27.2772 172.678 25.6679L172.899 24.3929C170.497 27.0789 169.001 28.4219 168.411 28.4219L168.071 27.8439C168.071 27.5039 168.377 25.8549 168.989 22.8969V22.4379H168.87C166.728 23.9225 165.657 25.0729 165.657 25.8889C165.374 26.3422 164.909 27.3395 164.263 28.8809L164.042 28.9999H163.923C163.617 28.8412 163.464 28.6089 163.464 28.3029C163.578 28.3029 163.884 27.4245 164.382 25.6679C164.564 25.4752 165.255 24.1662 166.456 21.7409C166.683 21.6729 166.796 21.5992 166.796 21.5199ZM177.926 21.4689C178.312 21.9109 178.504 22.2962 178.504 22.6249V23.5599C178.198 25.1125 178.045 26.3932 178.045 27.4019C178.045 27.8439 178.623 28.1159 179.779 28.2179C179.779 28.3765 179.434 28.5295 178.742 28.6769C177.734 28.6769 177.229 28.0195 177.229 26.7049C177.229 25.8549 177.343 24.9992 177.569 24.1379V23.5599H177.348C177.348 24.0019 176.765 25.2825 175.597 27.4019C175.597 27.5265 174.237 30.3599 171.517 35.9019H171.058C171.058 35.7432 171.019 35.6639 170.939 35.6639C174.203 28.7165 175.835 25.0332 175.835 24.6139C176.323 22.5965 176.98 21.5879 177.807 21.5879C177.807 21.5085 177.847 21.4689 177.926 21.4689ZM185.092 21.6219C185.772 21.6219 186.294 22.1149 186.656 23.1009C186.656 25.0842 185.704 26.7672 183.8 28.1499C183.064 28.7165 182.27 29.0225 181.42 29.0679C180.865 28.7619 180.587 28.3652 180.587 27.8779C180.587 26.9825 181.018 25.6962 181.879 24.0189C182.163 23.0442 182.684 22.3359 183.443 21.8939C184.067 21.7125 184.616 21.6219 185.092 21.6219ZM182.797 23.6449C182.899 23.8375 182.99 24.1719 183.069 24.6479C182.979 24.9765 182.797 25.2542 182.525 25.4809C182.684 26.2969 182.865 26.8182 183.069 27.0449V27.2319C182.559 26.9485 182.163 26.4895 181.879 25.8549C181.607 25.8549 181.454 26.5575 181.42 27.9629V28.2349C181.42 28.3255 181.511 28.4219 181.692 28.5239H181.777C183.466 27.8779 184.786 26.7105 185.738 25.0219C185.92 24.3532 186.039 24.0189 186.095 24.0189C186.095 22.9762 185.517 22.4549 184.361 22.4549C183.579 22.6589 183.086 22.9649 182.882 23.3729C182.826 23.4862 182.797 23.5769 182.797 23.6449ZM186.515 27.6229H186.991C187.195 28.1895 187.297 28.7845 187.297 29.4079V29.7989C187.297 30.1615 187.088 30.6545 186.668 31.2779C186.668 31.5385 186.544 31.7709 186.294 31.9749H186.209V31.8219C186.515 30.8019 186.668 30.0992 186.668 29.7139V29.2549C186.668 28.9829 186.595 28.5182 186.447 27.8609C186.493 27.7589 186.515 27.6795 186.515 27.6229ZM200.111 21.4859H200.366L201.522 22.7609H201.641C201.641 22.3755 202.112 22.1602 203.052 22.1149C203.211 22.2055 203.336 22.2509 203.426 22.2509V22.7609L201.522 26.5859V27.6059C201.522 27.7305 201.692 27.9005 202.032 28.1159H202.151C202.707 28.1159 203.557 28.0705 204.701 27.9799V28.2349C203.636 28.5749 203.001 28.7449 202.797 28.7449H201.522C200.922 28.4389 200.621 28.0139 200.621 27.4699V27.2149C200.621 26.6255 201.177 25.3959 202.287 23.5259V23.0159H202.151C200.905 23.3899 199.885 24.0699 199.091 25.0559V25.3109L199.482 25.9399C199.176 25.9399 198.876 26.3649 198.581 27.2149C198.4 27.2262 197.975 27.7815 197.306 28.8809C197.148 28.9602 197.023 28.9999 196.932 28.9999C196.762 28.7959 196.677 28.6259 196.677 28.4899C196.677 28.2292 197.612 26.1892 199.482 22.3699C199.482 22.0299 199.692 21.7352 200.111 21.4859ZM199.856 23.5259H200.366C200.536 23.5259 200.621 23.4409 200.621 23.2709C200.621 23.1009 200.536 23.0159 200.366 23.0159C200.094 23.0952 199.924 23.2652 199.856 23.5259ZM208.251 21.4689C208.636 21.9109 208.829 22.2962 208.829 22.6249V23.5599C208.523 25.1125 208.37 26.3932 208.37 27.4019C208.37 27.8439 208.948 28.1159 210.104 28.2179C210.104 28.3765 209.758 28.5295 209.067 28.6769C208.058 28.6769 207.554 28.0195 207.554 26.7049C207.554 25.8549 207.667 24.9992 207.894 24.1379V23.5599H207.673C207.673 24.0019 207.089 25.2825 205.922 27.4019C205.922 27.5265 204.562 30.3599 201.842 35.9019H201.383C201.383 35.7432 201.343 35.6639 201.264 35.6639C204.528 28.7165 206.16 25.0332 206.16 24.6139C206.647 22.5965 207.304 21.5879 208.132 21.5879C208.132 21.5085 208.171 21.4689 208.251 21.4689ZM214.72 21.6219H215.23C215.524 21.6219 215.842 21.9109 216.182 22.4889C216.59 22.4889 216.794 22.6872 216.794 23.0839C216.397 24.0472 215.847 25.0559 215.145 26.1099C214.975 26.5179 214.89 26.7729 214.89 26.8749C214.89 27.9629 215.122 28.5069 215.587 28.5069C215.791 28.5069 216.046 28.5409 216.352 28.6089C216.669 28.5409 216.986 28.5069 217.304 28.5069C217.304 28.7109 216.816 28.9432 215.842 29.2039C214.697 29.2039 214.125 28.5125 214.125 27.1299L213.938 27.0449C213.099 27.9629 212.294 28.5975 211.524 28.9489C211.184 28.9489 210.985 28.7165 210.929 28.2519V27.6569C211.155 24.9029 211.671 23.3502 212.476 22.9989C213.326 22.0809 214.074 21.6219 214.72 21.6219ZM211.626 27.2149V27.5719L211.711 27.9969H211.966C212.351 27.6682 212.923 27.2659 213.683 26.7899C213.977 26.5519 214.181 26.0645 214.295 25.3279L215.315 22.9989V22.8289C215.315 22.6589 214.975 22.5455 214.295 22.4889C213.241 22.8969 212.521 23.5542 212.136 24.4609L211.626 27.2149ZM222.221 17.4229L222.612 17.5079C222.702 17.4512 222.81 17.4229 222.935 17.4229C223.513 17.9442 223.802 18.5279 223.802 19.1739C223.802 19.8992 222.77 20.9022 220.708 22.1829V22.4209C221.467 22.4209 221.971 22.7892 222.221 23.5259L222.306 24.0019V24.8009C222.306 25.1862 221.988 25.9229 221.354 27.0109C221.354 27.5662 220.691 28.2292 219.365 28.9999H219.28C218.804 28.9319 218.566 28.6939 218.566 28.2859L218.736 26.7049C218.679 26.3535 218.651 26.0079 218.651 25.6679V24.7159C218.651 24.5005 218.809 23.9962 219.127 23.2029H218.974C218.69 23.2935 218.424 23.7185 218.175 24.4779H218.022C217.806 24.3759 217.699 24.2455 217.699 24.0869C217.699 23.2369 218.333 22.6022 219.603 22.1829C219.875 22.0922 220.271 21.1685 220.793 19.4119C221.291 18.0859 221.767 17.4229 222.221 17.4229ZM221.83 18.9359C221.875 19.0265 221.898 19.1285 221.898 19.2419C221.478 19.2419 221.11 19.9332 220.793 21.3159H220.946C221.671 20.9872 222.413 20.4035 223.173 19.5649V19.2419C222.991 18.8792 222.782 18.6185 222.544 18.4599H222.374C222.011 18.7205 221.83 18.8792 221.83 18.9359ZM220.317 23.2879C220.101 23.8432 219.784 24.9539 219.365 26.6199C219.467 26.9825 219.518 27.2999 219.518 27.5719V27.6569C219.314 27.6569 219.212 27.7872 219.212 28.0479V28.3709C219.529 28.3709 219.948 28.0252 220.47 27.3339C220.878 27.3339 221.303 26.4329 221.745 24.6309V24.0869C221.382 23.5542 221.144 23.2879 221.031 23.2879C220.906 23.2879 220.798 23.3162 220.708 23.3729C220.617 23.3162 220.515 23.2879 220.402 23.2879H220.317ZM225.64 21.5709C226.808 21.8089 227.391 22.3359 227.391 23.1519H227.306C227.352 23.3899 227.408 23.5089 227.476 23.5089C227.363 23.7469 227.306 23.9225 227.306 24.0359C227.601 24.1945 227.748 24.4269 227.748 24.7329C227.748 24.9709 227.306 25.4129 226.422 26.0589C225.674 26.9089 225.21 27.6115 225.028 28.1669C225.085 28.1669 225.113 28.1952 225.113 28.2519L225.283 28.1669H225.453V28.2519C224.898 28.5919 224.518 29.1529 224.314 29.9349C223.453 31.6349 222.66 33.2725 221.934 34.8479C221.504 35.7319 220.977 36.1739 220.353 36.1739C219.243 35.4712 218.687 34.6495 218.687 33.7089L218.857 33.4539V32.0429C219.401 31.0002 220.251 30.2069 221.407 29.6629L224.059 28.5239C224.059 28.4219 224.207 28.0989 224.501 27.5549L224.314 27.4699C224.314 27.6172 224.02 27.7645 223.43 27.9119C222.728 27.9119 222.376 27.3509 222.376 26.2289C222.966 23.2369 223.759 21.7409 224.756 21.7409L225.64 21.5709ZM225.283 22.2679C225.283 22.4832 224.904 22.8685 224.144 23.4239C223.612 24.3419 223.345 25.3392 223.345 26.4159C223.402 26.7672 223.493 26.9429 223.617 26.9429H223.702C224.858 26.9429 225.884 25.8549 226.779 23.6789V23.5089C226.779 23.0669 226.428 22.6532 225.725 22.2679V22.3699L225.555 22.2679H225.283ZM219.486 33.4539C219.804 34.8025 220.155 35.4769 220.54 35.4769C220.869 35.4769 221.719 33.9809 223.09 30.9889C223.442 30.2749 223.617 29.7139 223.617 29.3059C223.561 29.3059 223.532 29.2775 223.532 29.2209C222.263 29.8555 221.379 30.3542 220.88 30.7169L219.741 32.7399L219.486 33.4539ZM231.224 21.6219H231.734C232.029 21.6219 232.346 21.9109 232.686 22.4889C233.094 22.4889 233.298 22.6872 233.298 23.0839C232.902 24.0472 232.352 25.0559 231.649 26.1099C231.479 26.5179 231.394 26.7729 231.394 26.8749C231.394 27.9629 231.627 28.5069 232.091 28.5069C232.295 28.5069 232.55 28.5409 232.856 28.6089C233.174 28.5409 233.491 28.5069 233.808 28.5069C233.808 28.7109 233.321 28.9432 232.346 29.2039C231.202 29.2039 230.629 28.5125 230.629 27.1299L230.442 27.0449C229.604 27.9629 228.799 28.5975 228.028 28.9489C227.688 28.9489 227.49 28.7165 227.433 28.2519V27.6569C227.66 24.9029 228.176 23.3502 228.98 22.9989C229.83 22.0809 230.578 21.6219 231.224 21.6219ZM228.13 27.2149V27.5719L228.215 27.9969H228.47C228.856 27.6682 229.428 27.2659 230.187 26.7899C230.482 26.5519 230.686 26.0645 230.799 25.3279L231.819 22.9989V22.8289C231.819 22.6589 231.479 22.5455 230.799 22.4889C229.745 22.8969 229.026 23.5542 228.64 24.4609L228.13 27.2149ZM236.719 16.8619H236.787C237.762 16.8619 238.465 17.4625 238.895 18.6639C238.895 18.7092 238.924 18.9132 238.98 19.2759C238.98 20.0239 237.7 21.8599 235.138 24.7839H235.053V24.6989C235.427 24.0869 236.034 23.2595 236.872 22.2169C237.258 21.4235 237.581 20.8965 237.841 20.6359C238.193 19.9672 238.368 19.3892 238.368 18.9019V18.8169C238.006 17.8195 237.456 17.3209 236.719 17.3209H236.566C236.181 17.4455 235.954 17.5929 235.886 17.7629C235.932 17.8649 235.954 17.9442 235.954 18.0009C235.762 18.3635 235.665 18.6355 235.665 18.8169C235.665 18.8735 235.688 18.9529 235.733 19.0549C235.688 19.3269 235.665 19.5535 235.665 19.7349V19.9559C235.858 20.1825 235.954 20.3072 235.954 20.3299V20.6359H235.733C235.121 20.2052 234.747 19.7009 234.611 19.1229C234.997 17.7629 235.399 17.0829 235.818 17.0829C235.988 16.9355 236.289 16.8619 236.719 16.8619ZM234.22 27.8609H234.526C234.651 28.1895 235.031 28.4955 235.665 28.7789V28.8469C235.359 28.8582 235.206 28.9092 235.206 28.9999C234.504 28.9999 234.152 28.6995 234.152 28.0989C234.198 27.9969 234.22 27.9175 234.22 27.8609ZM6.25132 34.4909H6.45532C7.20332 34.9782 7.57732 35.5449 7.57732 36.1909C7.39599 36.9275 7.11266 37.7435 6.72732 38.6389C6.96532 38.8429 7.28266 39.5059 7.67932 40.6279C7.67932 42.1125 7.36199 43.2119 6.72732 43.9259C6.39866 44.7532 5.80366 45.3482 4.94232 45.7109L3.80332 45.9999C3.27066 45.9999 2.64166 45.4332 1.91632 44.2999H1.54232C1.54232 44.5719 1.35532 44.8552 0.981322 45.1499C0.856655 45.0932 0.760322 45.0649 0.692322 45.0649V44.6739C0.692322 44.5265 1.07199 43.8975 1.83132 42.7869C2.28466 41.7442 3.34999 39.7042 5.02732 36.6669C5.02732 36.3835 5.37299 36.0039 6.06432 35.5279H6.16632L6.45532 35.7149L6.35332 36.1909C6.42132 36.3155 6.45532 36.4119 6.45532 36.4799C5.53732 37.5452 4.99899 38.0779 4.84032 38.0779L4.75532 38.5539L4.94232 38.6389C5.95099 38.4915 6.45532 38.1175 6.45532 37.5169C6.60266 37.5169 6.69332 37.1372 6.72732 36.3779V35.5279C6.72732 35.4259 6.60266 35.3012 6.35332 35.1539H6.16632C5.27099 35.1539 4.35866 35.5279 3.42932 36.2759C3.42932 36.4459 3.14599 36.7915 2.57932 37.3129C2.51132 37.4375 2.47732 37.5339 2.47732 37.6019H2.39232C2.26766 37.6019 2.20532 37.5395 2.20532 37.4149V36.5649C3.41799 35.1822 4.76666 34.4909 6.25132 34.4909ZM3.61632 41.0019V41.1889H3.90532C4.90266 40.0895 5.40132 39.4605 5.40132 39.3019L5.21432 39.1999C4.61366 39.4492 4.20566 39.8912 3.99032 40.5259C3.74099 40.5259 3.61632 40.6845 3.61632 41.0019ZM3.14032 42.1239C3.03832 42.0672 2.91366 42.0389 2.76632 42.0389L2.39232 42.7869V42.9739H2.95332C3.02132 42.9739 3.05532 42.9455 3.05532 42.8889C3.14599 42.9455 3.33299 42.9739 3.61632 42.9739V43.1779C3.11766 43.3365 2.80599 43.5235 2.68132 43.7389C3.04399 44.6229 3.60499 45.0649 4.36432 45.0649C5.55432 45.0649 6.40432 43.8975 6.91432 41.5629V40.6279C6.91432 39.9479 6.69332 39.5399 6.25132 39.4039C6.12666 39.4039 5.49766 40.0952 4.36432 41.4779C3.85432 41.9085 3.44632 42.1239 3.14032 42.1239ZM12.1813 38.6219C12.8613 38.6219 13.3826 39.1149 13.7453 40.1009C13.7453 42.0842 12.7933 43.7672 10.8893 45.1499C10.1526 45.7165 9.35927 46.0225 8.50927 46.0679C7.95393 45.7619 7.67627 45.3652 7.67627 44.8779C7.67627 43.9825 8.10693 42.6962 8.96827 41.0189C9.2516 40.0442 9.77293 39.3359 10.5323 38.8939C11.1556 38.7125 11.7053 38.6219 12.1813 38.6219ZM9.88627 40.6449C9.98827 40.8375 10.0789 41.1719 10.1583 41.6479C10.0676 41.9765 9.88627 42.2542 9.61427 42.4809C9.77293 43.2969 9.95427 43.8182 10.1583 44.0449V44.2319C9.64827 43.9485 9.2516 43.4895 8.96827 42.8549C8.69627 42.8549 8.54327 43.5575 8.50927 44.9629V45.2349C8.50927 45.3255 8.59993 45.4219 8.78127 45.5239H8.86627C10.5549 44.8779 11.8753 43.7105 12.8273 42.0219C13.0086 41.3532 13.1276 41.0189 13.1843 41.0189C13.1843 39.9762 12.6063 39.4549 11.4503 39.4549C10.6683 39.6589 10.1753 39.9649 9.97127 40.3729C9.9146 40.4862 9.88627 40.5769 9.88627 40.6449ZM16.0014 38.5199L16.4774 38.8599L16.3584 39.0979V39.5569H16.4774C17.5087 38.8655 18.1604 38.5199 18.4324 38.5199H18.6534C18.8234 38.5199 19.016 38.8259 19.2314 39.4379L18.0754 43.9259V44.0449C18.6987 44.0449 20.3534 42.6225 23.0394 39.7779C23.0394 39.6079 23.1924 39.4152 23.4984 39.1999C23.6457 39.2792 23.759 39.3189 23.8384 39.3189V39.5569C23.147 40.3049 22.8014 41.5289 22.8014 43.2289C22.722 43.2289 22.6824 43.3479 22.6824 43.5859C22.9204 44.4245 23.0394 44.9232 23.0394 45.0819C22.518 45.0819 22.1327 44.2772 21.8834 42.6679L22.1044 41.3929C19.7017 44.0789 18.2057 45.4219 17.6164 45.4219L17.2764 44.8439C17.2764 44.5039 17.5824 42.8549 18.1944 39.8969V39.4379H18.0754C15.9334 40.9225 14.8624 42.0729 14.8624 42.8889C14.579 43.3422 14.1144 44.3395 13.4684 45.8809L13.2474 45.9999H13.1284C12.8224 45.8412 12.6694 45.6089 12.6694 45.3029C12.7827 45.3029 13.0887 44.4245 13.5874 42.6679C13.7687 42.4752 14.46 41.1662 15.6614 38.7409C15.888 38.6729 16.0014 38.5992 16.0014 38.5199ZM38.8207 38.5539C39.1607 38.6559 39.3307 38.8882 39.3307 39.2509C38.832 40.4295 38.1293 41.5062 37.2227 42.4809C37.1547 42.7415 37.1207 43.0079 37.1207 43.2799V44.1809C37.1547 44.5889 37.2567 44.7929 37.4267 44.7929H37.8177C38.101 44.5549 39.0757 44.0505 40.7417 43.2799C41.5123 40.6619 42.0507 39.3529 42.3567 39.3529C42.6967 39.2282 42.963 39.1659 43.1557 39.1659C43.2917 39.3812 43.3597 39.5795 43.3597 39.7609C43.3597 40.7242 42.9233 41.7329 42.0507 42.7869C41.5747 43.2855 41.3367 44.0562 41.3367 45.0989C41.4727 45.5295 41.5407 45.8299 41.5407 45.9999C40.94 45.4785 40.6397 44.8439 40.6397 44.0959C38.747 45.0932 37.642 45.5919 37.3247 45.5919C36.6447 45.5919 36.3047 44.8552 36.3047 43.3819H36.0157L32.5817 45.5919H32.3947C32.0547 45.4899 31.8847 45.0535 31.8847 44.2829V43.6879C31.8847 43.3705 32.0547 43.1042 32.3947 42.8889C32.8593 43.0135 33.1937 43.2119 33.3977 43.4839L33.2957 43.6879V43.8919C33.3183 44.0279 33.3863 44.0959 33.4997 44.0959C33.715 43.9599 33.9133 43.8919 34.0947 43.8919C34.1173 44.0279 34.1853 44.0959 34.2987 44.0959H34.4007C35.806 42.9965 36.5087 42.2202 36.5087 41.7669C36.8827 39.6929 37.421 38.6559 38.1237 38.6559C38.3843 38.5879 38.6167 38.5539 38.8207 38.5539ZM37.5117 40.9679V41.0699C37.9877 40.7412 38.2257 40.3729 38.2257 39.9649V39.8629H38.1237C37.7157 39.9989 37.5117 40.3672 37.5117 40.9679ZM42.5437 40.3729L42.1527 41.4779H42.2547L42.7477 40.7639V40.3729H42.5437ZM45.894 38.6219C46.03 38.6219 46.1717 38.9562 46.319 39.6249C46.1943 40.0102 46.0017 40.3445 45.741 40.6279H45.486V40.2199C45.2593 40.2199 45.061 40.5825 44.891 41.3079H45.656C46.6533 41.3079 47.152 42.0332 47.152 43.4839V43.5689H47.407C49.311 42.8435 50.263 42.1182 50.263 41.3929C50.739 40.7582 51.0733 40.1972 51.266 39.7099L51.436 39.6249H51.946C52.218 39.7722 52.354 39.9989 52.354 40.3049C52.354 40.6902 51.742 41.3872 50.518 42.3959C49.5093 43.9259 49.005 44.7645 49.005 44.9119V45.2519H49.09C49.1467 45.2519 49.481 45.1385 50.093 44.9119C50.1723 44.9119 50.2573 44.9969 50.348 45.1669V45.2519C50.1213 45.5125 49.6737 45.7619 49.005 45.9999C48.5063 45.8525 48.257 45.6315 48.257 45.3369C48.3477 44.8722 48.5687 44.3112 48.92 43.6539H48.835C47.8943 43.9032 46.8913 44.4642 45.826 45.3369C44.772 45.7789 44.126 45.9999 43.888 45.9999C43.1627 45.8525 42.8 45.4899 42.8 44.9119C42.936 43.7332 43.7463 41.7215 45.231 38.8769C45.5143 38.7069 45.7353 38.6219 45.894 38.6219ZM44.568 42.3109V42.2259C44.2847 42.3279 44.143 42.5545 44.143 42.9059V43.1439C44.143 43.6199 44.534 43.9542 45.316 44.1469H45.401C45.5257 44.1469 45.639 44.1242 45.741 44.0789L45.894 44.1469C46.3473 43.9995 46.574 43.8635 46.574 43.7389V43.3989C46.574 42.5602 46.098 42.1409 45.146 42.1409L44.568 42.3109ZM43.548 44.5719V45.0819C43.548 45.2292 43.803 45.3369 44.313 45.4049C44.9817 45.0875 45.3443 44.8665 45.401 44.7419C45.095 44.7419 44.619 44.5209 43.973 44.0789H43.803C43.633 44.1242 43.548 44.2885 43.548 44.5719ZM63.0068 38.6219C63.2108 38.6219 63.3128 38.7579 63.3128 39.0299C62.7234 39.5965 62.1454 40.7185 61.5788 42.3959C61.3068 43.3819 61.1708 44.1979 61.1708 44.8439C61.2388 45.0479 61.3068 45.1499 61.3748 45.1499C62.7461 44.3225 64.0041 43.3365 65.1488 42.1919C66.1574 41.2512 67.0414 40.1972 67.8008 39.0299L68.3108 38.9279C68.6508 38.9279 68.8208 39.1319 68.8208 39.5399C68.5601 40.4579 68.0841 41.1719 67.3928 41.6819C66.7128 42.4752 66.3728 43.5292 66.3728 44.8439C66.3728 45.3879 66.6448 45.6939 67.1888 45.7619V45.8639C67.1888 45.9999 67.1208 46.0679 66.9848 46.0679H66.7808C66.0328 46.0679 65.6588 45.5579 65.6588 44.5379L65.7608 43.3139H65.4548C63.8681 44.7192 62.4741 45.5692 61.2728 45.8639C60.7288 45.8639 60.4568 45.3879 60.4568 44.4359V44.3339C60.4568 43.0192 61.1708 41.1152 62.5988 38.6219H63.0068ZM81.4244 34.4229L81.8154 34.5079C81.9061 34.4512 82.0137 34.4229 82.1384 34.4229C82.7164 34.9442 83.0054 35.5279 83.0054 36.1739C83.0054 36.8992 81.9741 37.9022 79.9114 39.1829V39.4209C80.6707 39.4209 81.1751 39.7892 81.4244 40.5259L81.5094 41.0019V41.8009C81.5094 42.1862 81.1921 42.9229 80.5574 44.0109C80.5574 44.5662 79.8944 45.2292 78.5684 45.9999H78.4834C78.0074 45.9319 77.7694 45.6939 77.7694 45.2859L77.9394 43.7049C77.8827 43.3535 77.8544 43.0079 77.8544 42.6679V41.7159C77.8544 41.5005 78.0131 40.9962 78.3304 40.2029H78.1774C77.8941 40.2935 77.6277 40.7185 77.3784 41.4779H77.2254C77.0101 41.3759 76.9024 41.2455 76.9024 41.0869C76.9024 40.2369 77.5371 39.6022 78.8064 39.1829C79.0784 39.0922 79.4751 38.1685 79.9964 36.4119C80.4951 35.0859 80.9711 34.4229 81.4244 34.4229ZM81.0334 35.9359C81.0787 36.0265 81.1014 36.1285 81.1014 36.2419C80.6821 36.2419 80.3137 36.9332 79.9964 38.3159H80.1494C80.8747 37.9872 81.6171 37.4035 82.3764 36.5649V36.2419C82.1951 35.8792 81.9854 35.6185 81.7474 35.4599H81.5774C81.2147 35.7205 81.0334 35.8792 81.0334 35.9359ZM79.5204 40.2879C79.3051 40.8432 78.9877 41.9539 78.5684 43.6199C78.6704 43.9825 78.7214 44.2999 78.7214 44.5719V44.6569C78.5174 44.6569 78.4154 44.7872 78.4154 45.0479V45.3709C78.7327 45.3709 79.1521 45.0252 79.6734 44.3339C80.0814 44.3339 80.5064 43.4329 80.9484 41.6309V41.0869C80.5857 40.5542 80.3477 40.2879 80.2344 40.2879C80.1097 40.2879 80.0021 40.3162 79.9114 40.3729C79.8207 40.3162 79.7187 40.2879 79.6054 40.2879H79.5204ZM84.4362 38.6219C84.5722 38.6219 84.7138 38.9562 84.8612 39.6249C84.7365 40.0102 84.5438 40.3445 84.2832 40.6279H84.0282V40.2199C83.8015 40.2199 83.6032 40.5825 83.4332 41.3079H84.1982C85.1955 41.3079 85.6942 42.0332 85.6942 43.4839V43.5689H85.9492C87.8532 42.8435 88.8052 42.1182 88.8052 41.3929C89.2812 40.7582 89.6155 40.1972 89.8082 39.7099L89.9782 39.6249H90.4882C90.7602 39.7722 90.8962 39.9989 90.8962 40.3049C90.8962 40.6902 90.2842 41.3872 89.0602 42.3959C88.0515 43.9259 87.5472 44.7645 87.5472 44.9119V45.2519H87.6322C87.6888 45.2519 88.0232 45.1385 88.6352 44.9119C88.7145 44.9119 88.7995 44.9969 88.8902 45.1669V45.2519C88.6635 45.5125 88.2158 45.7619 87.5472 45.9999C87.0485 45.8525 86.7992 45.6315 86.7992 45.3369C86.8898 44.8722 87.1108 44.3112 87.4622 43.6539H87.3772C86.4365 43.9032 85.4335 44.4642 84.3682 45.3369C83.3142 45.7789 82.6682 45.9999 82.4302 45.9999C81.7048 45.8525 81.3422 45.4899 81.3422 44.9119C81.4782 43.7332 82.2885 41.7215 83.7732 38.8769C84.0565 38.7069 84.2775 38.6219 84.4362 38.6219ZM83.1102 42.3109V42.2259C82.8268 42.3279 82.6852 42.5545 82.6852 42.9059V43.1439C82.6852 43.6199 83.0762 43.9542 83.8582 44.1469H83.9432C84.0678 44.1469 84.1812 44.1242 84.2832 44.0789L84.4362 44.1469C84.8895 43.9995 85.1162 43.8635 85.1162 43.7389V43.3989C85.1162 42.5602 84.6402 42.1409 83.6882 42.1409L83.1102 42.3109ZM82.0902 44.5719V45.0819C82.0902 45.2292 82.3452 45.3369 82.8552 45.4049C83.5238 45.0875 83.8865 44.8665 83.9432 44.7419C83.6372 44.7419 83.1612 44.5209 82.5152 44.0789H82.3452C82.1752 44.1242 82.0902 44.2885 82.0902 44.5719ZM93.6166 38.4689C94.0019 38.9109 94.1946 39.2962 94.1946 39.6249V40.5599C93.8886 42.1125 93.7356 43.3932 93.7356 44.4019C93.7356 44.8439 94.3136 45.1159 95.4696 45.2179C95.4696 45.3765 95.1239 45.5295 94.4326 45.6769C93.4239 45.6769 92.9196 45.0195 92.9196 43.7049C92.9196 42.8549 93.0329 41.9992 93.2596 41.1379V40.5599H93.0386C93.0386 41.0019 92.4549 42.2825 91.2876 44.4019C91.2876 44.5265 89.9276 47.3599 87.2076 52.9019H86.7486C86.7486 52.7432 86.7089 52.6639 86.6296 52.6639C89.8936 45.7165 91.5256 42.0332 91.5256 41.6139C92.0129 39.5965 92.6702 38.5879 93.4976 38.5879C93.4976 38.5085 93.5372 38.4689 93.6166 38.4689ZM100.782 38.6219C101.462 38.6219 101.984 39.1149 102.346 40.1009C102.346 42.0842 101.394 43.7672 99.4905 45.1499C98.7538 45.7165 97.9605 46.0225 97.1105 46.0679C96.5551 45.7619 96.2775 45.3652 96.2775 44.8779C96.2775 43.9825 96.7081 42.6962 97.5695 41.0189C97.8528 40.0442 98.3741 39.3359 99.1335 38.8939C99.7568 38.7125 100.306 38.6219 100.782 38.6219ZM98.4875 40.6449C98.5895 40.8375 98.6801 41.1719 98.7595 41.6479C98.6688 41.9765 98.4875 42.2542 98.2155 42.4809C98.3741 43.2969 98.5555 43.8182 98.7595 44.0449V44.2319C98.2495 43.9485 97.8528 43.4895 97.5695 42.8549C97.2975 42.8549 97.1445 43.5575 97.1105 44.9629V45.2349C97.1105 45.3255 97.2011 45.4219 97.3825 45.5239H97.4675C99.1561 44.8779 100.476 43.7105 101.428 42.0219C101.61 41.3532 101.729 41.0189 101.785 41.0189C101.785 39.9762 101.207 39.4549 100.051 39.4549C99.2695 39.6589 98.7765 39.9649 98.5725 40.3729C98.5158 40.4862 98.4875 40.5769 98.4875 40.6449ZM105.351 38.5539C106.065 38.5539 106.49 39.0129 106.626 39.9309V40.1519C106.626 40.7299 106.167 41.4042 105.249 42.1749H104.926C104.71 42.1295 104.603 41.8462 104.603 41.3249V41.1039C104.603 41.0359 104.744 40.9282 105.028 40.7809C105.266 40.9282 105.447 41.0019 105.572 41.0019L105.674 40.7809V40.2539C105.674 40.1405 105.424 39.9989 104.926 39.8289C103.577 39.8289 102.903 40.8942 102.903 43.0249C102.835 43.0249 102.801 43.2345 102.801 43.6539V43.7729C102.914 44.7589 103.163 45.2519 103.549 45.2519C104.897 45.2519 105.572 45.3595 105.572 45.5749C105.572 45.7562 105.181 45.8979 104.399 45.9999L104.178 45.8979C104.121 45.8979 103.838 45.9319 103.328 45.9999C102.546 45.9999 102.087 45.2575 101.951 43.7729V43.2289C102.257 40.6789 102.823 39.4039 103.651 39.4039C103.651 39.3132 104.217 39.0299 105.351 38.5539ZM114.751 38.4519C115.204 38.4519 115.431 38.6785 115.431 39.1319C115.431 39.9592 114.513 41.1832 112.677 42.8039V43.1439C112.677 44.1752 113.402 44.9742 114.853 45.5409V45.6599H114.632C112.977 45.6599 112.059 44.9345 111.878 43.4839C110.257 44.1752 109.079 44.8609 108.342 45.5409C107.503 45.7675 107.084 45.9205 107.084 45.9999C106.393 45.9999 106.047 45.4275 106.047 44.2829C106.228 43.2175 106.455 42.6849 106.727 42.6849H106.846C107.458 42.6849 107.764 43.0645 107.764 43.8239C107.685 43.9599 107.645 44.1129 107.645 44.2829V44.7419C109.47 43.8239 110.728 43.2515 111.419 43.0249C111.612 42.8889 112.071 41.8575 112.796 39.9309C113.431 38.9449 114.082 38.4519 114.751 38.4519ZM113.374 40.7299V41.0869H113.493C114.094 40.6449 114.394 40.1859 114.394 39.7099H114.173C113.969 39.7892 113.703 40.1292 113.374 40.7299ZM118.02 38.6219C118.224 38.6219 118.326 38.7579 118.326 39.0299C117.737 39.5965 117.159 40.7185 116.592 42.3959C116.32 43.3819 116.184 44.1979 116.184 44.8439C116.252 45.0479 116.32 45.1499 116.388 45.1499C117.76 44.3225 119.018 43.3365 120.162 42.1919C121.171 41.2512 122.055 40.1972 122.814 39.0299L123.324 38.9279C123.664 38.9279 123.834 39.1319 123.834 39.5399C123.574 40.4579 123.098 41.1719 122.406 41.6819C121.726 42.4752 121.386 43.5292 121.386 44.8439C121.386 45.3879 121.658 45.6939 122.202 45.7619V45.8639C122.202 45.9999 122.134 46.0679 121.998 46.0679H121.794C121.046 46.0679 120.672 45.5579 120.672 44.5379L120.774 43.3139H120.468C118.882 44.7192 117.488 45.5692 116.286 45.8639C115.742 45.8639 115.47 45.3879 115.47 44.4359V44.3339C115.47 43.0192 116.184 41.1152 117.612 38.6219H118.02ZM123.78 45.0309C124.165 45.0762 124.358 45.2065 124.358 45.4219C124.233 45.8412 124.171 46.1302 124.171 46.2889V46.8669C124.103 46.8669 124.006 46.9009 123.882 46.9689C123.621 46.9009 123.491 46.7082 123.491 46.3909V45.6089C123.491 45.3822 123.587 45.1895 123.78 45.0309ZM140.851 34.4229C141.339 34.4229 141.582 34.6722 141.582 35.1709C141.48 35.5789 140.959 36.2872 140.018 37.2959V37.6699H140.103C141.293 36.7972 142.126 36.3609 142.602 36.3609H142.976C143.713 36.6102 144.081 37.0465 144.081 37.6699C143.775 38.4292 143.622 38.8315 143.622 38.8769H143.35V38.7749C143.475 38.5709 143.537 38.3839 143.537 38.2139V37.4829C143.413 37.1769 143.073 37.0239 142.517 37.0239C141.577 37.2619 140.619 37.9362 139.644 39.0469L139.083 40.1689C139.582 40.9622 139.831 41.5799 139.831 42.0219C139.763 43.1325 139.729 43.8692 139.729 44.2319C139.877 44.7985 140.035 45.0819 140.205 45.0819H140.29C140.54 45.0819 142.143 44.7702 145.101 44.1469L145.203 44.3339C144.127 44.7645 142.461 45.2575 140.205 45.8129C139.401 45.8129 138.998 45.1329 138.998 43.7729L138.896 43.2289C139.021 42.9795 139.083 42.6395 139.083 42.2089V41.5459H138.896C138.59 41.5459 138.16 42.7245 137.604 45.0819H137.689C137.519 45.5692 137.304 45.8752 137.043 45.9999H136.771C136.647 45.9999 136.584 45.9375 136.584 45.8129V44.7929C136.584 44.4869 136.522 44.3339 136.397 44.3339C136.862 43.1552 137.236 42.5659 137.519 42.5659C137.519 42.5205 137.485 42.3392 137.417 42.0219L139.083 37.7549V37.5679L138.437 37.6699H138.25L137.23 36.4629C136.154 37.9249 135.292 39.1885 134.646 40.2539H134.357C134.176 40.1972 134.085 40.0159 134.085 39.7099V39.3359C134.539 37.6019 135.003 36.7349 135.479 36.7349C135.763 35.9302 136.284 35.5279 137.043 35.5279C137.429 35.6072 137.893 36.1342 138.437 37.1089L138.624 37.1939C139.01 37.1939 139.412 36.7972 139.831 36.0039C140.273 35.1879 140.613 34.6609 140.851 34.4229ZM134.918 38.3159C134.941 38.4405 135.003 38.5029 135.105 38.5029L136.686 36.4629V36.2759H136.584C135.723 36.8652 135.292 37.3299 135.292 37.6699C135.292 37.7492 135.168 37.9645 134.918 38.3159ZM149.343 38.6219H149.853C150.148 38.6219 150.465 38.9109 150.805 39.4889C151.213 39.4889 151.417 39.6872 151.417 40.0839C151.02 41.0472 150.471 42.0559 149.768 43.1099C149.598 43.5179 149.513 43.7729 149.513 43.8749C149.513 44.9629 149.745 45.5069 150.21 45.5069C150.414 45.5069 150.669 45.5409 150.975 45.6089C151.292 45.5409 151.61 45.5069 151.927 45.5069C151.927 45.7109 151.44 45.9432 150.465 46.2039C149.32 46.2039 148.748 45.5125 148.748 44.1299L148.561 44.0449C147.722 44.9629 146.918 45.5975 146.147 45.9489C145.807 45.9489 145.609 45.7165 145.552 45.2519V44.6569C145.779 41.9029 146.294 40.3502 147.099 39.9989C147.949 39.0809 148.697 38.6219 149.343 38.6219ZM146.249 44.2149V44.5719L146.334 44.9969H146.589C146.974 44.6682 147.547 44.2659 148.306 43.7899C148.601 43.5519 148.805 43.0645 148.918 42.3279L149.938 39.9989V39.8289C149.938 39.6589 149.598 39.5455 148.918 39.4889C147.864 39.8969 147.144 40.5542 146.759 41.4609L146.249 44.2149ZM155.025 38.6049C156.544 39.0922 157.411 39.5399 157.626 39.9479C157.626 40.0612 157.722 40.4125 157.915 41.0019H158.102C159.451 39.7212 160.187 39.0809 160.312 39.0809C161.083 39.0809 161.468 39.4662 161.468 40.2369V40.4239C161.468 40.7525 161.338 40.9452 161.077 41.0019C160.624 40.5599 160.335 40.3389 160.21 40.3389C159.315 40.5542 158.867 41.7669 158.867 43.9769C158.867 44.5435 159.672 44.8665 161.281 44.9459C161.598 44.8212 161.757 44.7249 161.757 44.6569C161.882 44.7249 161.978 44.7589 162.046 44.7589V44.9459C161.094 45.2632 160.42 45.4219 160.023 45.4219C158.81 45.2405 158.204 44.6625 158.204 43.6879V41.8689H158.102C157.898 41.8689 157.739 42.1919 157.626 42.8379C157.105 43.8352 156.561 44.5719 155.994 45.0479H155.807C155.705 45.0479 155.609 44.9515 155.518 44.7589C155.529 44.1355 156.073 43.1382 157.15 41.7669L157.235 41.3929C157.235 40.3615 156.98 39.8459 156.47 39.8459H156.368C155.042 43.0872 153.699 45.1385 152.339 45.9999C151.829 45.7959 151.574 45.5069 151.574 45.1329C151.574 44.0902 151.863 43.4215 152.441 43.1269C152.758 42.4582 152.917 42.0389 152.917 41.8689C152.656 41.8689 152.526 41.3872 152.526 40.4239C153.059 39.2112 153.892 38.6049 155.025 38.6049ZM153.206 40.8149H153.393C154.186 39.9762 154.702 39.5569 154.94 39.5569V39.2849H154.838C153.75 39.4322 153.206 39.9422 153.206 40.8149ZM152.339 45.2349H152.526C154.453 42.6622 155.416 41.0585 155.416 40.4239V40.3389C155.416 40.2029 155.354 40.1349 155.229 40.1349H155.127C153.914 40.8149 152.985 42.2882 152.339 44.5549V45.2349ZM166.119 38.6219C167.014 38.8599 167.462 39.3075 167.462 39.9649C167.462 40.7242 166.147 41.7952 163.518 43.1779L163.433 43.6369C163.433 44.8269 163.671 45.4219 164.147 45.4219C165.201 45.2972 165.949 45.1782 166.391 45.0649C166.391 45.1215 166.419 45.1499 166.476 45.1499C166.476 45.5692 165.643 45.8979 163.977 46.1359C163.081 46.1359 162.634 45.3595 162.634 43.8069C162.214 43.5235 162.005 43.3479 162.005 43.2799V43.1779C162.775 42.7585 163.161 41.9539 163.161 40.7639C163.795 39.5739 164.453 38.9789 165.133 38.9789C165.133 38.8429 165.461 38.7239 166.119 38.6219ZM163.79 42.0219H163.892C164.696 42.0219 165.62 41.4269 166.663 40.2369C166.719 40.1235 166.748 40.0329 166.748 39.9649C166.306 39.6022 166.005 39.4209 165.847 39.4209L165.677 39.5229C165.575 39.4549 165.456 39.4209 165.32 39.4209C164.3 39.8629 163.79 40.7299 163.79 42.0219ZM169.855 38.5199L170.331 38.8599L170.212 39.0979V39.5569H170.331C171.362 38.8655 172.014 38.5199 172.286 38.5199H172.507C172.677 38.5199 172.869 38.8259 173.085 39.4379L171.929 43.9259V44.0449C172.552 44.0449 174.207 42.6225 176.893 39.7779C176.893 39.6079 177.046 39.4152 177.352 39.1999C177.499 39.2792 177.612 39.3189 177.692 39.3189V39.5569C177 40.3049 176.655 41.5289 176.655 43.2289C176.575 43.2289 176.536 43.3479 176.536 43.5859C176.774 44.4245 176.893 44.9232 176.893 45.0819C176.371 45.0819 175.986 44.2772 175.737 42.6679L175.958 41.3929C173.555 44.0789 172.059 45.4219 171.47 45.4219L171.13 44.8439C171.13 44.5039 171.436 42.8549 172.048 39.8969V39.4379H171.929C169.787 40.9225 168.716 42.0729 168.716 42.8889C168.432 43.3422 167.968 44.3395 167.322 45.8809L167.101 45.9999H166.982C166.676 45.8412 166.523 45.6089 166.523 45.3029C166.636 45.3029 166.942 44.4245 167.441 42.6679C167.622 42.4752 168.313 41.1662 169.515 38.7409C169.741 38.6729 169.855 38.5992 169.855 38.5199ZM181.24 38.5539C181.954 38.5539 182.379 39.0129 182.515 39.9309V40.1519C182.515 40.7299 182.056 41.4042 181.138 42.1749H180.815C180.599 42.1295 180.492 41.8462 180.492 41.3249V41.1039C180.492 41.0359 180.633 40.9282 180.917 40.7809C181.155 40.9282 181.336 41.0019 181.461 41.0019L181.563 40.7809V40.2539C181.563 40.1405 181.313 39.9989 180.815 39.8289C179.466 39.8289 178.792 40.8942 178.792 43.0249C178.724 43.0249 178.69 43.2345 178.69 43.6539V43.7729C178.803 44.7589 179.052 45.2519 179.438 45.2519C180.786 45.2519 181.461 45.3595 181.461 45.5749C181.461 45.7562 181.07 45.8979 180.288 45.9999L180.067 45.8979C180.01 45.8979 179.727 45.9319 179.217 45.9999C178.435 45.9999 177.976 45.2575 177.84 43.7729V43.2289C178.146 40.6789 178.712 39.4039 179.54 39.4039C179.54 39.3132 180.106 39.0299 181.24 38.5539ZM188.396 38.5539H188.481C189.139 38.6559 189.467 38.9845 189.467 39.5399L189.382 39.9819H189.467C189.207 40.8999 188.459 41.9482 187.223 43.1269C187.348 43.9769 187.41 44.5775 187.41 44.9289V45.0139C187.41 45.2745 188.068 45.4842 189.382 45.6429C189.382 45.6995 189.445 45.7279 189.569 45.7279V45.8129C189.025 45.9375 188.634 45.9999 188.396 45.9999H188.039C187.076 45.9999 186.594 45.6995 186.594 45.0989C186.594 45.0649 186.628 44.6795 186.696 43.9429L186.424 43.7559C184.815 45.0705 183.71 45.7279 183.109 45.7279H182.65C182.412 45.6259 182.174 45.2689 181.936 44.6569C182.14 43.5235 182.56 42.9569 183.194 42.9569C183.432 42.9569 183.642 43.2232 183.823 43.7559C183.823 44.0165 183.495 44.2885 182.837 44.5719V44.6569C182.951 44.6569 183.007 44.8042 183.007 45.0989H183.551C183.812 44.8155 184.679 44.2489 186.152 43.3989V43.1269C185.733 42.5942 185.523 42.0842 185.523 41.5969V41.3419C185.523 40.4919 186.124 39.6532 187.325 38.8259C187.529 38.6445 187.886 38.5539 188.396 38.5539ZM186.237 41.6989C186.373 42.4129 186.555 42.7699 186.781 42.7699H186.866C188.181 41.6025 188.838 40.6165 188.838 39.8119V39.7269C188.544 39.7269 188.396 39.6022 188.396 39.3529H188.124C187.127 39.3529 186.498 40.1349 186.237 41.6989ZM201.564 38.4859H201.819L202.975 39.7609H203.094C203.094 39.3755 203.564 39.1602 204.505 39.1149C204.664 39.2055 204.788 39.2509 204.879 39.2509V39.7609L202.975 43.5859V44.6059C202.975 44.7305 203.145 44.9005 203.485 45.1159H203.604C204.159 45.1159 205.009 45.0705 206.154 44.9799V45.2349C205.089 45.5749 204.454 45.7449 204.25 45.7449H202.975C202.374 45.4389 202.074 45.0139 202.074 44.4699V44.2149C202.074 43.6255 202.629 42.3959 203.74 40.5259V40.0159H203.604C202.357 40.3899 201.337 41.0699 200.544 42.0559V42.3109L200.935 42.9399C200.629 42.9399 200.329 43.3649 200.034 44.2149C199.853 44.2262 199.428 44.7815 198.759 45.8809C198.6 45.9602 198.476 45.9999 198.385 45.9999C198.215 45.7959 198.13 45.6259 198.13 45.4899C198.13 45.2292 199.065 43.1892 200.935 39.3699C200.935 39.0299 201.145 38.7352 201.564 38.4859ZM201.309 40.5259H201.819C201.989 40.5259 202.074 40.4409 202.074 40.2709C202.074 40.1009 201.989 40.0159 201.819 40.0159C201.547 40.0952 201.377 40.2652 201.309 40.5259ZM209.703 38.4689C210.089 38.9109 210.281 39.2962 210.281 39.6249V40.5599C209.975 42.1125 209.822 43.3932 209.822 44.4019C209.822 44.8439 210.4 45.1159 211.556 45.2179C211.556 45.3765 211.211 45.5295 210.519 45.6769C209.511 45.6769 209.006 45.0195 209.006 43.7049C209.006 42.8549 209.12 41.9992 209.346 41.1379V40.5599H209.125C209.125 41.0019 208.542 42.2825 207.374 44.4019C207.374 44.5265 206.014 47.3599 203.294 52.9019H202.835C202.835 52.7432 202.796 52.6639 202.716 52.6639C205.98 45.7165 207.612 42.0332 207.612 41.6139C208.1 39.5965 208.757 38.5879 209.584 38.5879C209.584 38.5085 209.624 38.4689 209.703 38.4689ZM214.863 38.6219C215.067 38.6219 215.169 38.7579 215.169 39.0299C214.58 39.5965 214.002 40.7185 213.435 42.3959C213.163 43.3819 213.027 44.1979 213.027 44.8439C213.095 45.0479 213.163 45.1499 213.231 45.1499C214.603 44.3225 215.861 43.3365 217.005 42.1919C218.014 41.2512 218.898 40.1972 219.657 39.0299L220.167 38.9279C220.507 38.9279 220.677 39.1319 220.677 39.5399C220.417 40.4579 219.941 41.1719 219.249 41.6819C218.569 42.4752 218.229 43.5292 218.229 44.8439C218.229 45.3879 218.501 45.6939 219.045 45.7619V45.8639C219.045 45.9999 218.977 46.0679 218.841 46.0679H218.637C217.889 46.0679 217.515 45.5579 217.515 44.5379L217.617 43.3139H217.311C215.725 44.7192 214.331 45.5692 213.129 45.8639C212.585 45.8639 212.313 45.3879 212.313 44.4359V44.3339C212.313 43.0192 213.027 41.1152 214.455 38.6219H214.863ZM221.847 38.7579H221.966C222.09 38.7579 222.249 38.9165 222.442 39.2339V39.6929C221.422 41.4609 220.713 42.8322 220.317 43.8069C220.317 44.4302 220.475 44.7419 220.793 44.7419C222.833 43.4612 223.887 42.7189 223.955 42.5149C224.079 41.9142 224.391 41.2852 224.89 40.6279C224.958 39.9932 225.275 39.4492 225.842 38.9959C226.85 38.9959 227.355 39.2679 227.355 39.8119C227.355 40.3899 226.499 41.4042 224.788 42.8549C224.47 43.7955 224.312 44.4245 224.312 44.7419C224.312 45.1272 224.391 45.3199 224.55 45.3199C226.624 44.4925 227.91 43.5179 228.409 42.3959C228.624 41.9312 228.981 41.3815 229.48 40.7469V40.6279L229.361 40.4069C230.063 39.4662 230.647 38.9959 231.112 38.9959C231.508 39.0979 231.707 39.3699 231.707 39.8119V39.9309C231.707 40.6902 230.885 41.7839 229.242 43.2119C228.924 43.5292 228.766 43.9599 228.766 44.5039V45.0989C229.015 45.6882 229.406 46.2719 229.939 46.8499V46.9689H229.582C228.494 46.3682 227.95 45.5069 227.95 44.3849H227.831C227.604 44.3849 227.173 44.6569 226.539 45.2009C225.598 45.7902 224.856 46.1075 224.312 46.1529C223.768 46.0622 223.496 45.6315 223.496 44.8609V44.2659H223.02C221.376 45.2859 220.362 45.7959 219.977 45.7959C219.659 45.7165 219.501 45.4842 219.501 45.0989V44.0279C219.852 42.5999 220.402 41.2739 221.15 40.0499C221.365 39.1885 221.597 38.7579 221.847 38.7579ZM225.247 41.5799H225.366C225.513 41.5799 225.745 41.3022 226.063 40.7469V40.2879H225.961C225.802 40.2879 225.564 40.7185 225.247 41.5799ZM229.701 42.0389H229.939C229.939 41.9029 230.211 41.4722 230.755 40.7469C230.755 40.5882 230.681 40.5089 230.534 40.5089C229.978 40.9282 229.701 41.4382 229.701 42.0389ZM239.604 38.4519C240.057 38.4519 240.284 38.6785 240.284 39.1319C240.284 39.9592 239.366 41.1832 237.53 42.8039V43.1439C237.53 44.1752 238.255 44.9742 239.706 45.5409V45.6599H239.485C237.83 45.6599 236.912 44.9345 236.731 43.4839C235.11 44.1752 233.931 44.8609 233.195 45.5409C232.356 45.7675 231.937 45.9205 231.937 45.9999C231.245 45.9999 230.9 45.4275 230.9 44.2829C231.081 43.2175 231.308 42.6849 231.58 42.6849H231.699C232.311 42.6849 232.617 43.0645 232.617 43.8239C232.537 43.9599 232.498 44.1129 232.498 44.2829V44.7419C234.322 43.8239 235.58 43.2515 236.272 43.0249C236.464 42.8889 236.923 41.8575 237.649 39.9309C238.283 38.9449 238.935 38.4519 239.604 38.4519ZM238.227 40.7299V41.0869H238.346C238.946 40.6449 239.247 40.1859 239.247 39.7099H239.026C238.822 39.7892 238.555 40.1292 238.227 40.7299ZM244.879 38.6219C245.559 38.6219 246.08 39.1149 246.443 40.1009C246.443 42.0842 245.491 43.7672 243.587 45.1499C242.85 45.7165 242.057 46.0225 241.207 46.0679C240.651 45.7619 240.374 45.3652 240.374 44.8779C240.374 43.9825 240.804 42.6962 241.666 41.0189C241.949 40.0442 242.47 39.3359 243.23 38.8939C243.853 38.7125 244.403 38.6219 244.879 38.6219ZM242.584 40.6449C242.686 40.8375 242.776 41.1719 242.856 41.6479C242.765 41.9765 242.584 42.2542 242.312 42.4809C242.47 43.2969 242.652 43.8182 242.856 44.0449V44.2319C242.346 43.9485 241.949 43.4895 241.666 42.8549C241.394 42.8549 241.241 43.5575 241.207 44.9629V45.2349C241.207 45.3255 241.297 45.4219 241.479 45.5239H241.564C243.252 44.8779 244.573 43.7105 245.525 42.0219C245.706 41.3532 245.825 41.0189 245.882 41.0189C245.882 39.9762 245.304 39.4549 244.148 39.4549C243.366 39.6589 242.873 39.9649 242.669 40.3729C242.612 40.4862 242.584 40.5769 242.584 40.6449ZM259.215 34.4229L259.606 34.5079C259.697 34.4512 259.805 34.4229 259.929 34.4229C260.507 34.9442 260.796 35.5279 260.796 36.1739C260.796 36.8992 259.765 37.9022 257.702 39.1829V39.4209C258.462 39.4209 258.966 39.7892 259.215 40.5259L259.3 41.0019V41.8009C259.3 42.1862 258.983 42.9229 258.348 44.0109C258.348 44.5662 257.685 45.2292 256.359 45.9999H256.274C255.798 45.9319 255.56 45.6939 255.56 45.2859L255.73 43.7049C255.674 43.3535 255.645 43.0079 255.645 42.6679V41.7159C255.645 41.5005 255.804 40.9962 256.121 40.2029H255.968C255.685 40.2935 255.419 40.7185 255.169 41.4779H255.016C254.801 41.3759 254.693 41.2455 254.693 41.0869C254.693 40.2369 255.328 39.6022 256.597 39.1829C256.869 39.0922 257.266 38.1685 257.787 36.4119C258.286 35.0859 258.762 34.4229 259.215 34.4229ZM258.824 35.9359C258.87 36.0265 258.892 36.1285 258.892 36.2419C258.473 36.2419 258.105 36.9332 257.787 38.3159H257.94C258.666 37.9872 259.408 37.4035 260.167 36.5649V36.2419C259.986 35.8792 259.776 35.6185 259.538 35.4599H259.368C259.006 35.7205 258.824 35.8792 258.824 35.9359ZM257.311 40.2879C257.096 40.8432 256.779 41.9539 256.359 43.6199C256.461 43.9825 256.512 44.2999 256.512 44.5719V44.6569C256.308 44.6569 256.206 44.7872 256.206 45.0479V45.3709C256.524 45.3709 256.943 45.0252 257.464 44.3339C257.872 44.3339 258.297 43.4329 258.739 41.6309V41.0869C258.377 40.5542 258.139 40.2879 258.025 40.2879C257.901 40.2879 257.793 40.3162 257.702 40.3729C257.612 40.3162 257.51 40.2879 257.396 40.2879H257.311ZM262.414 38.4689C262.799 38.9109 262.992 39.2962 262.992 39.6249V40.5599C262.686 42.1125 262.533 43.3932 262.533 44.4019C262.533 44.8439 263.111 45.1159 264.267 45.2179C264.267 45.3765 263.921 45.5295 263.23 45.6769C262.221 45.6769 261.717 45.0195 261.717 43.7049C261.717 42.8549 261.83 41.9992 262.057 41.1379V40.5599H261.836C261.836 41.0019 261.252 42.2825 260.085 44.4019C260.085 44.5265 258.725 47.3599 256.005 52.9019H255.546C255.546 52.7432 255.506 52.6639 255.427 52.6639C258.691 45.7165 260.323 42.0332 260.323 41.6139C260.81 39.5965 261.468 38.5879 262.295 38.5879C262.295 38.5085 262.335 38.4689 262.414 38.4689ZM268.917 38.6219C269.812 38.8599 270.26 39.3075 270.26 39.9649C270.26 40.7242 268.945 41.7952 266.316 43.1779L266.231 43.6369C266.231 44.8269 266.469 45.4219 266.945 45.4219C267.999 45.2972 268.747 45.1782 269.189 45.0649C269.189 45.1215 269.217 45.1499 269.274 45.1499C269.274 45.5692 268.441 45.8979 266.775 46.1359C265.88 46.1359 265.432 45.3595 265.432 43.8069C265.013 43.5235 264.803 43.3479 264.803 43.2799V43.1779C265.574 42.7585 265.959 41.9539 265.959 40.7639C266.594 39.5739 267.251 38.9789 267.931 38.9789C267.931 38.8429 268.26 38.7239 268.917 38.6219ZM266.588 42.0219H266.69C267.495 42.0219 268.418 41.4269 269.461 40.2369C269.518 40.1235 269.546 40.0329 269.546 39.9649C269.104 39.6022 268.804 39.4209 268.645 39.4209L268.475 39.5229C268.373 39.4549 268.254 39.4209 268.118 39.4209C267.098 39.8629 266.588 40.7299 266.588 42.0219ZM276.257 38.5539C276.597 38.6559 276.767 38.8882 276.767 39.2509C276.268 40.4295 275.566 41.5062 274.659 42.4809C274.591 42.7415 274.557 43.0079 274.557 43.2799V44.1809C274.591 44.5889 274.693 44.7929 274.863 44.7929H275.254C275.537 44.5549 276.512 44.0505 278.178 43.2799C278.949 40.6619 279.487 39.3529 279.793 39.3529C280.133 39.2282 280.399 39.1659 280.592 39.1659C280.728 39.3812 280.796 39.5795 280.796 39.7609C280.796 40.7242 280.36 41.7329 279.487 42.7869C279.011 43.2855 278.773 44.0562 278.773 45.0989C278.909 45.5295 278.977 45.8299 278.977 45.9999C278.376 45.4785 278.076 44.8439 278.076 44.0959C276.183 45.0932 275.078 45.5919 274.761 45.5919C274.081 45.5919 273.741 44.8552 273.741 43.3819H273.452L270.018 45.5919H269.831C269.491 45.4899 269.321 45.0535 269.321 44.2829V43.6879C269.321 43.3705 269.491 43.1042 269.831 42.8889C270.296 43.0135 270.63 43.2119 270.834 43.4839L270.732 43.6879V43.8919C270.755 44.0279 270.823 44.0959 270.936 44.0959C271.151 43.9599 271.35 43.8919 271.531 43.8919C271.554 44.0279 271.622 44.0959 271.735 44.0959H271.837C273.242 42.9965 273.945 42.2202 273.945 41.7669C274.319 39.6929 274.857 38.6559 275.56 38.6559C275.821 38.5879 276.053 38.5539 276.257 38.5539ZM274.948 40.9679V41.0699C275.424 40.7412 275.662 40.3729 275.662 39.9649V39.8629H275.56C275.152 39.9989 274.948 40.3672 274.948 40.9679ZM279.98 40.3729L279.589 41.4779H279.691L280.184 40.7639V40.3729H279.98ZM286.152 38.5539H286.237C286.895 38.6559 287.223 38.9845 287.223 39.5399L287.138 39.9819H287.223C286.963 40.8999 286.215 41.9482 284.979 43.1269C285.104 43.9769 285.166 44.5775 285.166 44.9289V45.0139C285.166 45.2745 285.824 45.4842 287.138 45.6429C287.138 45.6995 287.201 45.7279 287.325 45.7279V45.8129C286.781 45.9375 286.39 45.9999 286.152 45.9999H285.795C284.832 45.9999 284.35 45.6995 284.35 45.0989C284.35 45.0649 284.384 44.6795 284.452 43.9429L284.18 43.7559C282.571 45.0705 281.466 45.7279 280.865 45.7279H280.406C280.168 45.6259 279.93 45.2689 279.692 44.6569C279.896 43.5235 280.316 42.9569 280.95 42.9569C281.188 42.9569 281.398 43.2232 281.579 43.7559C281.579 44.0165 281.251 44.2885 280.593 44.5719V44.6569C280.707 44.6569 280.763 44.8042 280.763 45.0989H281.307C281.568 44.8155 282.435 44.2489 283.908 43.3989V43.1269C283.489 42.5942 283.279 42.0842 283.279 41.5969V41.3419C283.279 40.4919 283.88 39.6532 285.081 38.8259C285.285 38.6445 285.642 38.5539 286.152 38.5539ZM283.993 41.6989C284.129 42.4129 284.311 42.7699 284.537 42.7699H284.622C285.937 41.6025 286.594 40.6165 286.594 39.8119V39.7269C286.3 39.7269 286.152 39.6022 286.152 39.3529H285.88C284.883 39.3529 284.254 40.1349 283.993 41.6989Z" fill="#0A1843"></path><path d="M88.6029 55.5539C89.3169 55.5539 89.7419 56.0129 89.8779 56.9309V57.1519C89.8779 57.7299 89.4189 58.4042 88.5009 59.1749H88.1779C87.9626 59.1295 87.8549 58.8462 87.8549 58.3249V58.1039C87.8549 58.0359 87.9966 57.9282 88.2799 57.7809C88.5179 57.9282 88.6992 58.0019 88.8239 58.0019L88.9259 57.7809V57.2539C88.9259 57.1405 88.6766 56.9989 88.1779 56.8289C86.8292 56.8289 86.1549 57.8942 86.1549 60.0249C86.0869 60.0249 86.0529 60.2345 86.0529 60.6539V60.7729C86.1662 61.7589 86.4156 62.2519 86.8009 62.2519C88.1496 62.2519 88.8239 62.3595 88.8239 62.5749C88.8239 62.7562 88.4329 62.8979 87.6509 62.9999L87.4299 62.8979C87.3732 62.8979 87.0899 62.9319 86.5799 62.9999C85.7979 62.9999 85.3389 62.2575 85.2029 60.7729V60.2289C85.5089 57.6789 86.0756 56.4039 86.9029 56.4039C86.9029 56.3132 87.4696 56.0299 88.6029 55.5539ZM94.4845 55.6219C95.1645 55.6219 95.6858 56.1149 96.0485 57.1009C96.0485 59.0842 95.0965 60.7672 93.1925 62.1499C92.4558 62.7165 91.6625 63.0225 90.8125 63.0679C90.2572 62.7619 89.9795 62.3652 89.9795 61.8779C89.9795 60.9825 90.4102 59.6962 91.2715 58.0189C91.5548 57.0442 92.0762 56.3359 92.8355 55.8939C93.4588 55.7125 94.0085 55.6219 94.4845 55.6219ZM92.1895 57.6449C92.2915 57.8375 92.3822 58.1719 92.4615 58.6479C92.3708 58.9765 92.1895 59.2542 91.9175 59.4809C92.0762 60.2969 92.2575 60.8182 92.4615 61.0449V61.2319C91.9515 60.9485 91.5548 60.4895 91.2715 59.8549C90.9995 59.8549 90.8465 60.5575 90.8125 61.9629V62.2349C90.8125 62.3255 90.9032 62.4219 91.0845 62.5239H91.1695C92.8582 61.8779 94.1785 60.7105 95.1305 59.0219C95.3118 58.3532 95.4308 58.0189 95.4875 58.0189C95.4875 56.9762 94.9095 56.4549 93.7535 56.4549C92.9715 56.6589 92.4785 56.9649 92.2745 57.3729C92.2178 57.4862 92.1895 57.5769 92.1895 57.6449ZM99.2056 55.5539C99.5683 55.6559 99.7496 55.9052 99.7496 56.3019V56.5229C99.7496 56.7949 99.5003 57.3332 99.0016 58.1379C99.2736 58.2399 99.5229 58.6025 99.7496 59.2259L99.6476 59.4299C99.7156 59.9399 99.7496 60.2289 99.7496 60.2969C99.6023 61.4415 99.5286 62.0875 99.5286 62.2349H99.7496C100.18 61.8949 101.223 61.3905 102.878 60.7219V60.8409C102.81 61.0449 102.413 61.2942 101.688 61.5889C100.078 62.6542 99.1829 63.3739 99.0016 63.7479C98.2196 66.2299 97.1769 67.9922 95.8736 69.0349C95.4089 69.4882 94.7233 69.8452 93.8166 70.1059C92.9553 69.8905 92.5246 69.5675 92.5246 69.1369C92.4566 68.7402 92.4226 68.4512 92.4226 68.2699C93.1933 66.8985 94.6666 65.5725 96.8426 64.2919C97.9193 63.4645 98.4576 62.9602 98.4576 62.7789C98.6729 62.3029 98.8146 61.5095 98.8826 60.3989H98.7806L98.8826 60.1949V59.5489C98.8826 59.1182 98.7409 58.9029 98.4576 58.9029C98.2196 58.9482 97.4999 59.7359 96.2986 61.2659H95.8736C95.7263 61.2659 95.6526 61.1922 95.6526 61.0449V60.9429C95.6526 60.3309 96.6953 59.1069 98.7806 57.2709C98.7806 57.1689 98.8543 57.0272 99.0016 56.8459V56.5229H98.6786C97.6246 57.2142 96.8709 58.0075 96.4176 58.9029C96.2703 58.8235 96.1626 58.7839 96.0946 58.7839C96.0946 57.4352 97.1316 56.3585 99.2056 55.5539ZM93.3916 68.9159L93.7146 69.1369H93.8166C95.0973 69.1369 96.3949 67.7712 97.7096 65.0399C97.7776 65.0399 97.8116 65.0059 97.8116 64.9379V64.6149C96.6329 65.1022 95.1936 66.2865 93.4936 68.1679L93.3916 68.9159ZM106.202 55.5709C107.37 55.8089 107.953 56.3359 107.953 57.1519H107.868C107.914 57.3899 107.97 57.5089 108.038 57.5089C107.925 57.7469 107.868 57.9225 107.868 58.0359C108.163 58.1945 108.31 58.4269 108.31 58.7329C108.31 58.9709 107.868 59.4129 106.984 60.0589C106.236 60.9089 105.772 61.6115 105.59 62.1669C105.647 62.1669 105.675 62.1952 105.675 62.2519L105.845 62.1669H106.015V62.2519C105.46 62.5919 105.08 63.1529 104.876 63.9349C104.015 65.6349 103.222 67.2725 102.496 68.8479C102.066 69.7319 101.539 70.1739 100.915 70.1739C99.8048 69.4712 99.2494 68.6495 99.2494 67.7089L99.4194 67.4539V66.0429C99.9634 65.0002 100.813 64.2069 101.969 63.6629L104.621 62.5239C104.621 62.4219 104.769 62.0989 105.063 61.5549L104.876 61.4699C104.876 61.6172 104.582 61.7645 103.992 61.9119C103.29 61.9119 102.938 61.3509 102.938 60.2289C103.528 57.2369 104.321 55.7409 105.318 55.7409L106.202 55.5709ZM105.845 56.2679C105.845 56.4832 105.466 56.8685 104.706 57.4239C104.174 58.3419 103.907 59.3392 103.907 60.4159C103.964 60.7672 104.055 60.9429 104.179 60.9429H104.264C105.42 60.9429 106.446 59.8549 107.341 57.6789V57.5089C107.341 57.0669 106.99 56.6532 106.287 56.2679V56.3699L106.117 56.2679H105.845ZM100.048 67.4539C100.366 68.8025 100.717 69.4769 101.102 69.4769C101.431 69.4769 102.281 67.9809 103.652 64.9889C104.004 64.2749 104.179 63.7139 104.179 63.3059C104.123 63.3059 104.094 63.2775 104.094 63.2209C102.825 63.8555 101.941 64.3542 101.442 64.7169L100.303 66.7399L100.048 67.4539ZM111.786 55.6219H112.296C112.591 55.6219 112.908 55.9109 113.248 56.4889C113.656 56.4889 113.86 56.6872 113.86 57.0839C113.464 58.0472 112.914 59.0559 112.211 60.1099C112.041 60.5179 111.956 60.7729 111.956 60.8749C111.956 61.9629 112.189 62.5069 112.653 62.5069C112.857 62.5069 113.112 62.5409 113.418 62.6089C113.736 62.5409 114.053 62.5069 114.37 62.5069C114.37 62.7109 113.883 62.9432 112.908 63.2039C111.764 63.2039 111.191 62.5125 111.191 61.1299L111.004 61.0449C110.166 61.9629 109.361 62.5975 108.59 62.9489C108.25 62.9489 108.052 62.7165 107.995 62.2519V61.6569C108.222 58.9029 108.738 57.3502 109.542 56.9989C110.392 56.0809 111.14 55.6219 111.786 55.6219ZM108.692 61.2149V61.5719L108.777 61.9969H109.032C109.418 61.6682 109.99 61.2659 110.749 60.7899C111.044 60.5519 111.248 60.0645 111.361 59.3279L112.381 56.9989V56.8289C112.381 56.6589 112.041 56.5455 111.361 56.4889C110.307 56.8969 109.588 57.5542 109.202 58.4609L108.692 61.2149ZM117.349 55.5199L117.825 55.8599L117.706 56.0979V56.5569H117.825C118.857 55.8655 119.508 55.5199 119.78 55.5199H120.001C120.171 55.5199 120.364 55.8259 120.579 56.4379L119.423 60.9259V61.0449C120.047 61.0449 121.701 59.6225 124.387 56.7779C124.387 56.6079 124.54 56.4152 124.846 56.1999C124.994 56.2792 125.107 56.3189 125.186 56.3189V56.5569C124.495 57.3049 124.149 58.5289 124.149 60.2289C124.07 60.2289 124.03 60.3479 124.03 60.5859C124.268 61.4245 124.387 61.9232 124.387 62.0819C123.866 62.0819 123.481 61.2772 123.231 59.6679L123.452 58.3929C121.05 61.0789 119.554 62.4219 118.964 62.4219L118.624 61.8439C118.624 61.5039 118.93 59.8549 119.542 56.8969V56.4379H119.423C117.281 57.9225 116.21 59.0729 116.21 59.8889C115.927 60.3422 115.462 61.3395 114.816 62.8809L114.595 62.9999H114.476C114.17 62.8412 114.017 62.6089 114.017 62.3029C114.131 62.3029 114.437 61.4245 114.935 59.6679C115.117 59.4752 115.808 58.1662 117.009 55.7409C117.236 55.6729 117.349 55.5992 117.349 55.5199ZM128.275 55.6219H128.751C128.751 55.7465 128.78 55.8089 128.836 55.8089C128.836 55.9222 128.264 56.6532 127.119 58.0019C126.87 58.2739 126.745 58.5969 126.745 58.9709L126.932 59.0559C127.284 58.9992 127.539 58.9709 127.697 58.9709C128.4 58.9709 128.751 59.5432 128.751 60.6879C128.298 61.9572 127.788 62.5919 127.221 62.5919C126.859 62.9092 126.445 63.0679 125.98 63.0679H125.793C125.567 62.9885 125.374 62.6995 125.215 62.2009C125.215 61.0335 125.47 60.0192 125.98 59.1579C125.98 58.5345 126.519 57.5145 127.595 56.0979L127.799 56.1999C127.879 55.9392 128.037 55.7465 128.275 55.6219ZM125.878 62.4049C126.037 62.5295 126.167 62.5919 126.269 62.5919C126.541 62.4899 127.142 61.9799 128.071 61.0619C128.071 60.4272 127.85 60.1099 127.408 60.1099C126.456 60.1099 125.98 60.6199 125.98 61.6399C125.98 61.6965 125.946 61.9515 125.878 62.4049ZM141.408 55.5539C142.122 55.5539 142.547 56.0129 142.683 56.9309V57.1519C142.683 57.7299 142.224 58.4042 141.306 59.1749H140.983C140.768 59.1295 140.66 58.8462 140.66 58.3249V58.1039C140.66 58.0359 140.802 57.9282 141.085 57.7809C141.323 57.9282 141.505 58.0019 141.629 58.0019L141.731 57.7809V57.2539C141.731 57.1405 141.482 56.9989 140.983 56.8289C139.635 56.8289 138.96 57.8942 138.96 60.0249C138.892 60.0249 138.858 60.2345 138.858 60.6539V60.7729C138.972 61.7589 139.221 62.2519 139.606 62.2519C140.955 62.2519 141.629 62.3595 141.629 62.5749C141.629 62.7562 141.238 62.8979 140.456 62.9999L140.235 62.8979C140.179 62.8979 139.895 62.9319 139.385 62.9999C138.603 62.9999 138.144 62.2575 138.008 60.7729V60.2289C138.314 57.6789 138.881 56.4039 139.708 56.4039C139.708 56.3132 140.275 56.0299 141.408 55.5539ZM147.375 51.4229L147.766 51.5079C147.857 51.4512 147.964 51.4229 148.089 51.4229C148.667 51.9442 148.956 52.5279 148.956 53.1739C148.956 53.8992 147.925 54.9022 145.862 56.1829V56.4209C146.621 56.4209 147.126 56.7892 147.375 57.5259L147.46 58.0019V58.8009C147.46 59.1862 147.143 59.9229 146.508 61.0109C146.508 61.5662 145.845 62.2292 144.519 62.9999H144.434C143.958 62.9319 143.72 62.6939 143.72 62.2859L143.89 60.7049C143.833 60.3535 143.805 60.0079 143.805 59.6679V58.7159C143.805 58.5005 143.964 57.9962 144.281 57.2029H144.128C143.845 57.2935 143.578 57.7185 143.329 58.4779H143.176C142.961 58.3759 142.853 58.2455 142.853 58.0869C142.853 57.2369 143.488 56.6022 144.757 56.1829C145.029 56.0922 145.426 55.1685 145.947 53.4119C146.446 52.0859 146.922 51.4229 147.375 51.4229ZM146.984 52.9359C147.029 53.0265 147.052 53.1285 147.052 53.2419C146.633 53.2419 146.264 53.9332 145.947 55.3159H146.1C146.825 54.9872 147.568 54.4035 148.327 53.5649V53.2419C148.146 52.8792 147.936 52.6185 147.698 52.4599H147.528C147.165 52.7205 146.984 52.8792 146.984 52.9359ZM145.471 57.2879C145.256 57.8432 144.938 58.9539 144.519 60.6199C144.621 60.9825 144.672 61.2999 144.672 61.5719V61.6569C144.468 61.6569 144.366 61.7872 144.366 62.0479V62.3709C144.683 62.3709 145.103 62.0252 145.624 61.3339C146.032 61.3339 146.457 60.4329 146.899 58.6309V58.0869C146.536 57.5542 146.298 57.2879 146.185 57.2879C146.06 57.2879 145.953 57.3162 145.862 57.3729C145.771 57.3162 145.669 57.2879 145.556 57.2879H145.471ZM151.934 55.6219C152.614 55.6219 153.135 56.1149 153.498 57.1009C153.498 59.0842 152.546 60.7672 150.642 62.1499C149.905 62.7165 149.112 63.0225 148.262 63.0679C147.707 62.7619 147.429 62.3652 147.429 61.8779C147.429 60.9825 147.86 59.6962 148.721 58.0189C149.004 57.0442 149.526 56.3359 150.285 55.8939C150.908 55.7125 151.458 55.6219 151.934 55.6219ZM149.639 57.6449C149.741 57.8375 149.832 58.1719 149.911 58.6479C149.82 58.9765 149.639 59.2542 149.367 59.4809C149.526 60.2969 149.707 60.8182 149.911 61.0449V61.2319C149.401 60.9485 149.004 60.4895 148.721 59.8549C148.449 59.8549 148.296 60.5575 148.262 61.9629V62.2349C148.262 62.3255 148.353 62.4219 148.534 62.5239H148.619C150.308 61.8779 151.628 60.7105 152.58 59.0219C152.761 58.3532 152.88 58.0189 152.937 58.0189C152.937 56.9762 152.359 56.4549 151.203 56.4549C150.421 56.6589 149.928 56.9649 149.724 57.3729C149.667 57.4862 149.639 57.5769 149.639 57.6449ZM161.279 55.5539C162.14 55.5539 162.571 56.4152 162.571 58.1379C161.052 61.3792 159.613 62.9999 158.253 62.9999C157.505 62.9999 157.074 62.0989 156.961 60.2969C157.029 59.9002 157.063 59.6169 157.063 59.4469H156.74C155.425 60.1269 154.383 60.9882 153.612 62.0309C153.306 62.6089 153.051 62.8979 152.847 62.8979C152.564 62.7845 152.422 62.6769 152.422 62.5749C152.977 60.6822 154.128 58.3759 155.873 55.6559H156.094C156.457 55.6559 156.672 55.8032 156.74 56.0979C156.74 56.9252 156.343 57.4635 155.55 57.7129C154.972 58.8575 154.683 59.5035 154.683 59.6509H155.006C156.105 58.9595 157.114 58.4949 158.032 58.2569C158.95 56.4549 160.032 55.5539 161.279 55.5539ZM157.93 61.8099C157.93 61.9345 158.145 62.0819 158.576 62.2519C159.947 61.4812 160.99 60.1495 161.704 58.2569C161.704 57.4975 161.596 56.9195 161.381 56.5229C159.874 56.5229 158.723 57.8885 157.93 60.6199V61.8099ZM174.489 55.5539C175.203 55.5539 175.628 56.0129 175.764 56.9309V57.1519C175.764 57.7299 175.305 58.4042 174.387 59.1749H174.064C173.848 59.1295 173.741 58.8462 173.741 58.3249V58.1039C173.741 58.0359 173.882 57.9282 174.166 57.7809C174.404 57.9282 174.585 58.0019 174.71 58.0019L174.812 57.7809V57.2539C174.812 57.1405 174.562 56.9989 174.064 56.8289C172.715 56.8289 172.041 57.8942 172.041 60.0249C171.973 60.0249 171.939 60.2345 171.939 60.6539V60.7729C172.052 61.7589 172.301 62.2519 172.687 62.2519C174.035 62.2519 174.71 62.3595 174.71 62.5749C174.71 62.7562 174.319 62.8979 173.537 62.9999L173.316 62.8979C173.259 62.8979 172.976 62.9319 172.466 62.9999C171.684 62.9999 171.225 62.2575 171.089 60.7729V60.2289C171.395 57.6789 171.961 56.4039 172.789 56.4039C172.789 56.3132 173.355 56.0299 174.489 55.5539ZM179.707 55.6219C180.603 55.8599 181.05 56.3075 181.05 56.9649C181.05 57.7242 179.736 58.7952 177.106 60.1779L177.021 60.6369C177.021 61.8269 177.259 62.4219 177.735 62.4219C178.789 62.2972 179.537 62.1782 179.979 62.0649C179.979 62.1215 180.008 62.1499 180.064 62.1499C180.064 62.5692 179.231 62.8979 177.565 63.1359C176.67 63.1359 176.222 62.3595 176.222 60.8069C175.803 60.5235 175.593 60.3479 175.593 60.2799V60.1779C176.364 59.7585 176.749 58.9539 176.749 57.7639C177.384 56.5739 178.041 55.9789 178.721 55.9789C178.721 55.8429 179.05 55.7239 179.707 55.6219ZM177.378 59.0219H177.48C178.285 59.0219 179.209 58.4269 180.251 57.2369C180.308 57.1235 180.336 57.0329 180.336 56.9649C179.894 56.6022 179.594 56.4209 179.435 56.4209L179.265 56.5229C179.163 56.4549 179.044 56.4209 178.908 56.4209C177.888 56.8629 177.378 57.7299 177.378 59.0219ZM187.047 55.5539C187.387 55.6559 187.557 55.8882 187.557 56.2509C187.059 57.4295 186.356 58.5062 185.449 59.4809C185.381 59.7415 185.347 60.0079 185.347 60.2799V61.1809C185.381 61.5889 185.483 61.7929 185.653 61.7929H186.044C186.328 61.5549 187.302 61.0505 188.968 60.2799C189.739 57.6619 190.277 56.3529 190.583 56.3529C190.923 56.2282 191.19 56.1659 191.382 56.1659C191.518 56.3812 191.586 56.5795 191.586 56.7609C191.586 57.7242 191.15 58.7329 190.277 59.7869C189.801 60.2855 189.563 61.0562 189.563 62.0989C189.699 62.5295 189.767 62.8299 189.767 62.9999C189.167 62.4785 188.866 61.8439 188.866 61.0959C186.974 62.0932 185.869 62.5919 185.551 62.5919C184.871 62.5919 184.531 61.8552 184.531 60.3819H184.242L180.808 62.5919H180.621C180.281 62.4899 180.111 62.0535 180.111 61.2829V60.6879C180.111 60.3705 180.281 60.1042 180.621 59.8889C181.086 60.0135 181.42 60.2119 181.624 60.4839L181.522 60.6879V60.8919C181.545 61.0279 181.613 61.0959 181.726 61.0959C181.942 60.9599 182.14 60.8919 182.321 60.8919C182.344 61.0279 182.412 61.0959 182.525 61.0959H182.627C184.033 59.9965 184.735 59.2202 184.735 58.7669C185.109 56.6929 185.648 55.6559 186.35 55.6559C186.611 55.5879 186.843 55.5539 187.047 55.5539ZM185.738 57.9679V58.0699C186.214 57.7412 186.452 57.3729 186.452 56.9649V56.8629H186.35C185.942 56.9989 185.738 57.3672 185.738 57.9679ZM190.77 57.3729L190.379 58.4779H190.481L190.974 57.7639V57.3729H190.77ZM194.104 55.6219H194.58C194.58 55.7465 194.608 55.8089 194.665 55.8089C194.665 55.9222 194.092 56.6532 192.948 58.0019C192.698 58.2739 192.574 58.5969 192.574 58.9709L192.761 59.0559C193.112 58.9992 193.367 58.9709 193.526 58.9709C194.228 58.9709 194.58 59.5432 194.58 60.6879C194.126 61.9572 193.616 62.5919 193.05 62.5919C192.687 62.9092 192.273 63.0679 191.809 63.0679H191.622C191.395 62.9885 191.202 62.6995 191.044 62.2009C191.044 61.0335 191.299 60.0192 191.809 59.1579C191.809 58.5345 192.347 57.5145 193.424 56.0979L193.628 56.1999C193.707 55.9392 193.866 55.7465 194.104 55.6219ZM191.707 62.4049C191.865 62.5295 191.996 62.5919 192.098 62.5919C192.37 62.4899 192.97 61.9799 193.9 61.0619C193.9 60.4272 193.679 60.1099 193.237 60.1099C192.285 60.1099 191.809 60.6199 191.809 61.6399C191.809 61.6965 191.775 61.9515 191.707 62.4049ZM203.436 55.5539C204.297 55.5539 204.728 56.4152 204.728 58.1379C203.209 61.3792 201.77 62.9999 200.41 62.9999C199.662 62.9999 199.231 62.0989 199.118 60.2969C199.186 59.9002 199.22 59.6169 199.22 59.4469H198.897C197.582 60.1269 196.539 60.9882 195.769 62.0309C195.463 62.6089 195.208 62.8979 195.004 62.8979C194.72 62.7845 194.579 62.6769 194.579 62.5749C195.134 60.6822 196.284 58.3759 198.03 55.6559H198.251C198.613 55.6559 198.829 55.8032 198.897 56.0979C198.897 56.9252 198.5 57.4635 197.707 57.7129C197.129 58.8575 196.84 59.5035 196.84 59.6509H197.163C198.262 58.9595 199.271 58.4949 200.189 58.2569C201.107 56.4549 202.189 55.5539 203.436 55.5539ZM200.087 61.8099C200.087 61.9345 200.302 62.0819 200.733 62.2519C202.104 61.4812 203.147 60.1495 203.861 58.2569C203.861 57.4975 203.753 56.9195 203.538 56.5229C202.03 56.5229 200.88 57.8885 200.087 60.6199V61.8099Z" fill="#EE2711"></path></svg> 