<?xml version="1.0" encoding="UTF-8"?> <svg xmlns="http://www.w3.org/2000/svg" width="183" height="24" viewBox="0 0 183 24" fill="none"><path d="M6.5468 1.37988C7.00013 1.55321 7.2268 1.81321 7.2268 2.15988C7.2268 2.33321 6.4068 4.07988 4.7668 7.39988V7.73988L4.9868 7.85988C5.5068 7.45988 6.51346 6.89988 8.0068 6.17988C8.51346 5.00654 9.3668 3.81321 10.5668 2.59988C10.7535 2.22654 11.0535 2.03988 11.4668 2.03988H11.6868C11.7535 2.03988 11.9001 2.19321 12.1268 2.49988C12.1268 3.04654 11.1601 4.08654 9.2268 5.61988C7.92013 7.59321 6.32013 10.3865 4.4268 13.9999C3.9868 14.6665 3.4268 14.9999 2.7468 14.9999H2.5268C1.71346 14.9999 1.19346 14.4399 0.966797 13.3199C0.966797 13.2132 1.11346 13.0265 1.4068 12.7599C2.30013 12.8399 2.7468 12.9532 2.7468 13.0999C2.3068 13.4065 2.0868 13.6332 2.0868 13.7799C2.15346 14.0732 2.37346 14.2199 2.7468 14.2199C3.4668 13.9532 4.5868 12.2065 6.1068 8.97988C6.16013 8.97988 6.3468 8.71321 6.6668 8.17988V7.95988L4.3068 8.97988C3.8668 8.81988 3.6468 8.66654 3.6468 8.51988V8.41988C3.6468 7.88654 4.39346 6.17321 5.8868 3.27988C6.03346 2.99988 6.1068 2.69988 6.1068 2.37988H5.9868C4.3468 3.25988 3.5268 4.15321 3.5268 5.05988H3.2068C3.07346 5.05988 2.96013 4.83988 2.8668 4.39988C2.8668 3.33321 4.09346 2.32654 6.5468 1.37988ZM10.9999 6.23988C11.4266 6.35988 11.6399 6.65321 11.6399 7.11988V7.37988C11.6399 7.69988 11.3466 8.33321 10.7599 9.27988C11.0799 9.39988 11.3733 9.82654 11.6399 10.5599L11.5199 10.7999C11.5999 11.3999 11.6399 11.7399 11.6399 11.8199C11.4666 13.1665 11.3799 13.9265 11.3799 14.0999H11.6399C12.1466 13.6999 13.3733 13.1065 15.3199 12.3199V12.4599C15.2399 12.6999 14.7733 12.9932 13.9199 13.3399C12.0266 14.5932 10.9733 15.4399 10.7599 15.8799C9.83992 18.7999 8.61325 20.8732 7.07992 22.0999C6.53325 22.6332 5.72659 23.0532 4.65992 23.3599C3.64659 23.1065 3.13992 22.7265 3.13992 22.2199C3.05992 21.7532 3.01992 21.4132 3.01992 21.1999C3.92659 19.5865 5.65992 18.0265 8.21992 16.5199C9.48659 15.5465 10.1199 14.9532 10.1199 14.7399C10.3733 14.1799 10.5399 13.2465 10.6199 11.9399H10.4999L10.6199 11.6999V10.9399C10.6199 10.4332 10.4533 10.1799 10.1199 10.1799C9.83992 10.2332 8.99325 11.1599 7.57992 12.9599H7.07992C6.90659 12.9599 6.81992 12.8732 6.81992 12.6999V12.5799C6.81992 11.8599 8.04659 10.4199 10.4999 8.25988C10.4999 8.13988 10.5866 7.97321 10.7599 7.75988V7.37988H10.3799C9.13992 8.19321 8.25325 9.12654 7.71992 10.1799C7.54659 10.0865 7.41992 10.0399 7.33992 10.0399C7.33992 8.45321 8.55992 7.18654 10.9999 6.23988ZM4.15992 21.9599L4.53992 22.2199H4.65992C6.16659 22.2199 7.69325 20.6132 9.23992 17.3999C9.31992 17.3999 9.35992 17.3599 9.35992 17.2799V16.8999C7.97325 17.4732 6.27992 18.8665 4.27992 21.0799L4.15992 21.9599ZM18.7115 6.39988C18.8581 6.39988 18.9915 6.61988 19.1115 7.05988C19.1115 8.05988 18.7581 8.63321 18.0515 8.77988C17.6115 9.49988 17.3915 10.0265 17.3915 10.3599V11.5599C17.7515 11.5599 18.1448 11.7332 18.5715 12.0799H18.7115C21.4315 11.4265 22.7915 10.4599 22.7915 9.17988C23.4848 7.85988 24.1115 7.19988 24.6715 7.19988C25.3648 7.51988 25.7115 7.91321 25.7115 8.37988C25.7115 9.28654 24.9248 10.0799 23.3515 10.7599C22.8181 11.4265 22.5515 12.0865 22.5515 12.7399V13.2799C22.5515 13.7465 22.7248 14.0532 23.0715 14.1999H24.7915V14.3399C24.7915 14.6865 24.1248 14.8599 22.7915 14.8599H22.4115C22.0248 14.8599 21.7115 14.3332 21.4715 13.2799L21.6115 13.0199V11.8199H21.4715L18.9715 12.6199C18.7181 12.6199 18.0515 12.4865 16.9715 12.2199C16.7181 13.2865 16.4181 13.8199 16.0715 13.8199C15.7248 14.4732 15.4115 14.8665 15.1315 14.9999L14.4715 14.8599C14.4715 13.4865 15.7048 10.7132 18.1715 6.53988C18.3315 6.44654 18.5115 6.39988 18.7115 6.39988ZM24.6715 8.37988C24.6715 8.56654 24.4048 8.96654 23.8715 9.57988C23.9648 9.57988 24.0115 9.61988 24.0115 9.69988C24.3715 9.59321 24.6315 9.37321 24.7915 9.03988V8.37988H24.6715ZM25.5715 13.9399V14.0599C25.5715 14.2465 25.4915 14.3399 25.3315 14.3399V14.1999C25.3581 14.0265 25.4381 13.9399 25.5715 13.9399ZM31.3085 6.31988H31.9085C32.2552 6.31988 32.6285 6.65988 33.0285 7.33988C33.5085 7.33988 33.7485 7.57321 33.7485 8.03988C33.2819 9.17321 32.6352 10.3599 31.8085 11.5999C31.6085 12.0799 31.5085 12.3799 31.5085 12.4999C31.5085 13.7799 31.7819 14.4199 32.3285 14.4199C32.5685 14.4199 32.8685 14.4599 33.2285 14.5399C33.6019 14.4599 33.9752 14.4199 34.3485 14.4199C34.3485 14.6599 33.7752 14.9332 32.6285 15.2399C31.2819 15.2399 30.6085 14.4265 30.6085 12.7999L30.3885 12.6999C29.4019 13.7799 28.4552 14.5265 27.5485 14.9399C27.1485 14.9399 26.9152 14.6665 26.8485 14.1199V13.4199C27.1152 10.1799 27.7219 8.35321 28.6685 7.93988C29.6685 6.85988 30.5485 6.31988 31.3085 6.31988ZM27.6685 12.8999V13.3199L27.7685 13.8199H28.0685C28.5219 13.4332 29.1952 12.9599 30.0885 12.3999C30.4352 12.1199 30.6752 11.5465 30.8085 10.6799L32.0085 7.93988V7.73988C32.0085 7.53988 31.6085 7.40654 30.8085 7.33988C29.5685 7.81988 28.7219 8.59321 28.2685 9.65988L27.6685 12.8999ZM39.2532 6.31988C40.3065 6.59988 40.8332 7.12654 40.8332 7.89988C40.8332 8.79321 39.2865 10.0532 36.1932 11.6799L36.0932 12.2199C36.0932 13.6199 36.3732 14.3199 36.9332 14.3199C38.1732 14.1732 39.0532 14.0332 39.5732 13.8999C39.5732 13.9665 39.6065 13.9999 39.6732 13.9999C39.6732 14.4932 38.6932 14.8799 36.7332 15.1599C35.6799 15.1599 35.1532 14.2465 35.1532 12.4199C34.6599 12.0865 34.4132 11.8799 34.4132 11.7999V11.6799C35.3199 11.1865 35.7732 10.2399 35.7732 8.83988C36.5199 7.43988 37.2932 6.73988 38.0932 6.73988C38.0932 6.57988 38.4799 6.43988 39.2532 6.31988ZM36.5132 10.3199H36.6332C37.5799 10.3199 38.6665 9.61988 39.8932 8.21988C39.9599 8.08654 39.9932 7.97988 39.9932 7.89988C39.4732 7.47321 39.1199 7.25988 38.9332 7.25988L38.7332 7.37988C38.6132 7.29988 38.4732 7.25988 38.3132 7.25988C37.1132 7.77988 36.5132 8.79988 36.5132 10.3199ZM43.6485 6.19988L44.2085 6.59988L44.0685 6.87988V7.41988H44.2085C45.4218 6.60654 46.1885 6.19988 46.5085 6.19988H46.7685C46.9685 6.19988 47.1952 6.55988 47.4485 7.27988L46.0885 12.5599V12.6999C46.8218 12.6999 48.7685 11.0265 51.9285 7.67988C51.9285 7.47988 52.1085 7.25321 52.4685 6.99988C52.6418 7.09321 52.7752 7.13988 52.8685 7.13988V7.41988C52.0552 8.29988 51.6485 9.73988 51.6485 11.7399C51.5552 11.7399 51.5085 11.8799 51.5085 12.1599C51.7885 13.1465 51.9285 13.7332 51.9285 13.9199C51.3152 13.9199 50.8618 12.9732 50.5685 11.0799L50.8285 9.57988C48.0018 12.7399 46.2418 14.3199 45.5485 14.3199L45.1485 13.6399C45.1485 13.2399 45.5085 11.2999 46.2285 7.81988V7.27988H46.0885C43.5685 9.02654 42.3085 10.3799 42.3085 11.3399C41.9752 11.8732 41.4285 13.0465 40.6685 14.8599L40.4085 14.9999H40.2685C39.9085 14.8132 39.7285 14.5399 39.7285 14.1799C39.8618 14.1799 40.2218 13.1465 40.8085 11.0799C41.0218 10.8532 41.8352 9.31321 43.2485 6.45988C43.5152 6.37988 43.6485 6.29321 43.6485 6.19988ZM57.5626 6.31988C58.6159 6.59988 59.1426 7.12654 59.1426 7.89988C59.1426 8.79321 57.5959 10.0532 54.5026 11.6799L54.4026 12.2199C54.4026 13.6199 54.6826 14.3199 55.2426 14.3199C56.4826 14.1732 57.3626 14.0332 57.8826 13.8999C57.8826 13.9665 57.9159 13.9999 57.9826 13.9999C57.9826 14.4932 57.0026 14.8799 55.0426 15.1599C53.9892 15.1599 53.4626 14.2465 53.4626 12.4199C52.9692 12.0865 52.7226 11.8799 52.7226 11.7999V11.6799C53.6292 11.1865 54.0826 10.2399 54.0826 8.83988C54.8292 7.43988 55.6026 6.73988 56.4026 6.73988C56.4026 6.57988 56.7892 6.43988 57.5626 6.31988ZM54.8226 10.3199H54.9426C55.8892 10.3199 56.9759 9.61988 58.2026 8.21988C58.2692 8.08654 58.3026 7.97988 58.3026 7.89988C57.7826 7.47321 57.4292 7.25988 57.2426 7.25988L57.0426 7.37988C56.9226 7.29988 56.7826 7.25988 56.6226 7.25988C55.4226 7.77988 54.8226 8.79988 54.8226 10.3199ZM75.0101 6.31988C75.7567 6.49321 76.1301 6.97321 76.1301 7.75988C76.1301 8.35988 75.8301 9.13988 75.2301 10.0999V10.3199H75.5701C75.8767 10.3199 76.2834 10.2865 76.7901 10.2199C76.9367 10.2865 77.0501 10.3199 77.1301 10.3199V10.4399C77.0234 10.6665 76.1701 10.9265 74.5701 11.2199C74.5701 11.4065 74.0834 11.8865 73.1101 12.6599C71.8701 14.2199 70.9101 14.9999 70.2301 14.9999L70.1101 14.7799V14.6599C72.1101 12.7932 73.1101 11.7199 73.1101 11.4399L72.8901 11.3199C71.5567 11.3999 70.6701 11.4399 70.2301 11.4399L69.6701 11.3199V11.0999C69.7367 10.8065 70.3701 10.6199 71.5701 10.5399C72.4901 10.6199 72.9701 10.6599 73.0101 10.6599C74.0367 10.6599 74.7767 9.69321 75.2301 7.75988V7.31988C75.2301 7.17321 75.1567 7.09988 75.0101 7.09988C73.2367 7.32654 72.3501 7.95988 72.3501 8.99988C71.9767 8.99988 71.7501 8.84654 71.6701 8.53988C71.6701 7.44654 72.6367 6.70654 74.5701 6.31988H75.0101ZM78.2555 6.19988L78.8155 6.59988L78.6755 6.87988V7.41988H78.8155C80.0289 6.60654 80.7955 6.19988 81.1155 6.19988H81.3755C81.5755 6.19988 81.8022 6.55988 82.0555 7.27988L80.6955 12.5599V12.6999C81.4289 12.6999 83.3755 11.0265 86.5355 7.67988C86.5355 7.47988 86.7155 7.25321 87.0755 6.99988C87.2489 7.09321 87.3822 7.13988 87.4755 7.13988V7.41988C86.6622 8.29988 86.2555 9.73988 86.2555 11.7399C86.1622 11.7399 86.1155 11.8799 86.1155 12.1599C86.3955 13.1465 86.5355 13.7332 86.5355 13.9199C85.9222 13.9199 85.4689 12.9732 85.1755 11.0799L85.4355 9.57988C82.6089 12.7399 80.8489 14.3199 80.1555 14.3199L79.7555 13.6399C79.7555 13.2399 80.1155 11.2999 80.8355 7.81988V7.27988H80.6955C78.1755 9.02654 76.9155 10.3799 76.9155 11.3399C76.5822 11.8732 76.0355 13.0465 75.2755 14.8599L75.0155 14.9999H74.8755C74.5155 14.8132 74.3355 14.5399 74.3355 14.1799C74.4689 14.1799 74.8289 13.1465 75.4155 11.0799C75.6289 10.8532 76.4422 9.31321 77.8555 6.45988C78.1222 6.37988 78.2555 6.29321 78.2555 6.19988ZM90.5896 6.31988C90.8296 6.31988 90.9496 6.47988 90.9496 6.79988C90.2563 7.46654 89.5763 8.78654 88.9096 10.7599C88.5896 11.9199 88.4296 12.8799 88.4296 13.6399C88.5096 13.8799 88.5896 13.9999 88.6696 13.9999C90.2829 13.0265 91.7629 11.8665 93.1096 10.5199C94.2963 9.41321 95.3363 8.17321 96.2296 6.79988L96.8296 6.67988C97.2296 6.67988 97.4296 6.91988 97.4296 7.39988C97.1229 8.47988 96.5629 9.31988 95.7496 9.91988C94.9496 10.8532 94.5496 12.0932 94.5496 13.6399C94.5496 14.2799 94.8696 14.6399 95.5096 14.7199V14.8399C95.5096 14.9999 95.4296 15.0799 95.2696 15.0799H95.0296C94.1496 15.0799 93.7096 14.4799 93.7096 13.2799L93.8296 11.8399H93.4696C91.6029 13.4932 89.9629 14.4932 88.5496 14.8399C87.9096 14.8399 87.5896 14.2799 87.5896 13.1599V13.0399C87.5896 11.4932 88.4296 9.25321 90.1096 6.31988H90.5896ZM103.845 6.21988L104.505 7.75988C104.359 8.10654 104.212 8.29321 104.065 8.31988C103.959 8.31988 103.699 8.05988 103.285 7.53988C102.312 8.07321 101.205 9.06654 99.9652 10.5199V10.6399C100.339 12.4532 100.785 13.6665 101.305 14.2799C101.305 14.4265 101.232 14.4999 101.085 14.4999C100.525 14.4999 99.9719 13.6932 99.4252 12.0799H99.0852C98.7519 12.0799 98.2386 12.5932 97.5452 13.6199C97.3452 13.7932 96.8319 14.4932 96.0052 15.7199H95.8852V15.5999C95.8852 14.7465 96.9186 13.0199 98.9852 10.4199V10.1999C98.8519 9.38654 98.7386 8.97988 98.6452 8.97988L98.7652 8.41988V8.31988C98.7652 7.79988 98.6919 7.53988 98.5452 7.53988C98.6786 7.20654 98.8252 7.02654 98.9852 6.99988H99.0852C99.5252 7.03988 99.7452 7.14654 99.7452 7.31988V7.43988C99.7452 7.65321 99.7119 7.75988 99.6452 7.75988L99.8652 9.19988H99.9652C102.099 7.21321 103.319 6.21988 103.625 6.21988H103.845ZM117.746 6.25988C119.119 6.53988 119.806 7.15988 119.806 8.11988H119.706C119.759 8.39988 119.826 8.53988 119.906 8.53988C119.772 8.81988 119.706 9.02654 119.706 9.15988C120.052 9.34654 120.226 9.61988 120.226 9.97988C120.226 10.2599 119.706 10.7799 118.666 11.5399C117.786 12.5399 117.239 13.3665 117.026 14.0199C117.092 14.0199 117.126 14.0532 117.126 14.1199L117.326 14.0199H117.526V14.1199C116.872 14.5199 116.426 15.1799 116.186 16.0999C115.172 18.0999 114.239 20.0265 113.386 21.8799C112.879 22.9199 112.259 23.4399 111.526 23.4399C110.219 22.6132 109.566 21.6465 109.566 20.5399L109.766 20.2399V18.5799C110.406 17.3532 111.406 16.4199 112.766 15.7799L115.886 14.4399C115.886 14.3199 116.059 13.9399 116.406 13.2999L116.186 13.1999C116.186 13.3732 115.839 13.5465 115.146 13.7199C114.319 13.7199 113.906 13.0599 113.906 11.7399C114.599 8.21988 115.532 6.45988 116.706 6.45988L117.746 6.25988ZM117.326 7.07988C117.326 7.33321 116.879 7.78654 115.986 8.43988C115.359 9.51988 115.046 10.6932 115.046 11.9599C115.112 12.3732 115.219 12.5799 115.366 12.5799H115.466C116.826 12.5799 118.032 11.2999 119.086 8.73988V8.53988C119.086 8.01988 118.672 7.53321 117.846 7.07988V7.19988L117.646 7.07988H117.326ZM110.506 20.2399C110.879 21.8265 111.292 22.6199 111.746 22.6199C112.132 22.6199 113.132 20.8599 114.746 17.3399C115.159 16.4999 115.366 15.8399 115.366 15.3599C115.299 15.3599 115.266 15.3265 115.266 15.2599C113.772 16.0065 112.732 16.5932 112.146 17.0199L110.806 19.3999L110.506 20.2399ZM124.355 6.31988C125.408 6.59988 125.935 7.12654 125.935 7.89988C125.935 8.79321 124.388 10.0532 121.295 11.6799L121.195 12.2199C121.195 13.6199 121.475 14.3199 122.035 14.3199C123.275 14.1732 124.155 14.0332 124.675 13.8999C124.675 13.9665 124.708 13.9999 124.775 13.9999C124.775 14.4932 123.795 14.8799 121.835 15.1599C120.781 15.1599 120.255 14.2465 120.255 12.4199C119.761 12.0865 119.515 11.8799 119.515 11.7999V11.6799C120.421 11.1865 120.875 10.2399 120.875 8.83988C121.621 7.43988 122.395 6.73988 123.195 6.73988C123.195 6.57988 123.581 6.43988 124.355 6.31988ZM121.615 10.3199H121.735C122.681 10.3199 123.768 9.61988 124.995 8.21988C125.061 8.08654 125.095 7.97988 125.095 7.89988C124.575 7.47321 124.221 7.25988 124.035 7.25988L123.835 7.37988C123.715 7.29988 123.575 7.25988 123.415 7.25988C122.215 7.77988 121.615 8.79988 121.615 10.3199ZM128.75 6.19988L129.31 6.59988L129.17 6.87988V7.41988H129.31C130.523 6.60654 131.29 6.19988 131.61 6.19988H131.87C132.07 6.19988 132.297 6.55988 132.55 7.27988L131.19 12.5599V12.6999C131.923 12.6999 133.87 11.0265 137.03 7.67988C137.03 7.47988 137.21 7.25321 137.57 6.99988C137.743 7.09321 137.877 7.13988 137.97 7.13988V7.41988C137.157 8.29988 136.75 9.73988 136.75 11.7399C136.657 11.7399 136.61 11.8799 136.61 12.1599C136.89 13.1465 137.03 13.7332 137.03 13.9199C136.417 13.9199 135.963 12.9732 135.67 11.0799L135.93 9.57988C133.103 12.7399 131.343 14.3199 130.65 14.3199L130.25 13.6399C130.25 13.2399 130.61 11.2999 131.33 7.81988V7.27988H131.19C128.67 9.02654 127.41 10.3799 127.41 11.3399C127.077 11.8732 126.53 13.0465 125.77 14.8599L125.51 14.9999H125.37C125.01 14.8132 124.83 14.5399 124.83 14.1799C124.963 14.1799 125.323 13.1465 125.91 11.0799C126.123 10.8532 126.937 9.31321 128.35 6.45988C128.617 6.37988 128.75 6.29321 128.75 6.19988ZM141.084 6.31988C141.324 6.31988 141.444 6.47988 141.444 6.79988C140.751 7.46654 140.071 8.78654 139.404 10.7599C139.084 11.9199 138.924 12.8799 138.924 13.6399C139.004 13.8799 139.084 13.9999 139.164 13.9999C140.777 13.0265 142.257 11.8665 143.604 10.5199C144.791 9.41321 145.831 8.17321 146.724 6.79988L147.324 6.67988C147.724 6.67988 147.924 6.91988 147.924 7.39988C147.617 8.47988 147.057 9.31988 146.244 9.91988C145.444 10.8532 145.044 12.0932 145.044 13.6399C145.044 14.2799 145.364 14.6399 146.004 14.7199V14.8399C146.004 14.9999 145.924 15.0799 145.764 15.0799H145.524C144.644 15.0799 144.204 14.4799 144.204 13.2799L144.324 11.8399H143.964C142.097 13.4932 140.457 14.4932 139.044 14.8399C138.404 14.8399 138.084 14.2799 138.084 13.1599V13.0399C138.084 11.4932 138.924 9.25321 140.604 6.31988H141.084ZM149.3 6.47988H149.44C149.586 6.47988 149.773 6.66654 150 7.03988V7.57988C148.8 9.65988 147.966 11.2732 147.5 12.4199C147.5 13.1532 147.686 13.5199 148.06 13.5199C150.46 12.0132 151.7 11.1399 151.78 10.8999C151.926 10.1932 152.293 9.45321 152.88 8.67988C152.96 7.93321 153.333 7.29321 154 6.75988C155.186 6.75988 155.78 7.07988 155.78 7.71988C155.78 8.39988 154.773 9.59321 152.76 11.2999C152.386 12.4065 152.2 13.1465 152.2 13.5199C152.2 13.9732 152.293 14.1999 152.48 14.1999C154.92 13.2265 156.433 12.0799 157.02 10.7599C157.273 10.2132 157.693 9.56654 158.28 8.81988V8.67988L158.14 8.41988C158.966 7.31321 159.653 6.75988 160.2 6.75988C160.666 6.87988 160.9 7.19988 160.9 7.71988V7.85988C160.9 8.75321 159.933 10.0399 158 11.7199C157.626 12.0932 157.44 12.5999 157.44 13.2399V13.9399C157.733 14.6332 158.193 15.3199 158.82 15.9999V16.1399H158.4C157.12 15.4332 156.48 14.4199 156.48 13.0999H156.34C156.073 13.0999 155.566 13.4199 154.82 14.0599C153.713 14.7532 152.84 15.1265 152.2 15.1799C151.56 15.0732 151.24 14.5665 151.24 13.6599V12.9599H150.68C148.746 14.1599 147.553 14.7599 147.1 14.7599C146.726 14.6665 146.54 14.3932 146.54 13.9399V12.6799C146.953 10.9999 147.6 9.43988 148.48 7.99988C148.733 6.98654 149.006 6.47988 149.3 6.47988ZM153.3 9.79988H153.44C153.613 9.79988 153.886 9.47321 154.26 8.81988V8.27988H154.14C153.953 8.27988 153.673 8.78654 153.3 9.79988ZM158.54 10.3399H158.82C158.82 10.1799 159.14 9.67321 159.78 8.81988C159.78 8.63321 159.693 8.53988 159.52 8.53988C158.866 9.03321 158.54 9.63321 158.54 10.3399ZM165.27 6.31988C166.324 6.59988 166.85 7.12654 166.85 7.89988C166.85 8.79321 165.304 10.0532 162.21 11.6799L162.11 12.2199C162.11 13.6199 162.39 14.3199 162.95 14.3199C164.19 14.1732 165.07 14.0332 165.59 13.8999C165.59 13.9665 165.624 13.9999 165.69 13.9999C165.69 14.4932 164.71 14.8799 162.75 15.1599C161.697 15.1599 161.17 14.2465 161.17 12.4199C160.677 12.0865 160.43 11.8799 160.43 11.7999V11.6799C161.337 11.1865 161.79 10.2399 161.79 8.83988C162.537 7.43988 163.31 6.73988 164.11 6.73988C164.11 6.57988 164.497 6.43988 165.27 6.31988ZM162.53 10.3199H162.65C163.597 10.3199 164.684 9.61988 165.91 8.21988C165.977 8.08654 166.01 7.97988 166.01 7.89988C165.49 7.47321 165.137 7.25988 164.95 7.25988L164.75 7.37988C164.63 7.29988 164.49 7.25988 164.33 7.25988C163.13 7.77988 162.53 8.79988 162.53 10.3199ZM169.846 6.21988H170.426V6.49988C170.426 6.95321 170.132 7.29321 169.546 7.51988C169.159 8.61321 168.966 9.29988 168.966 9.57988V9.71988H169.266C170.999 7.73321 172.512 6.61321 173.806 6.35988H174.386C175.359 6.35988 175.946 6.74654 176.146 7.51988C175.946 7.83988 175.846 8.08654 175.846 8.25988H175.566C175.566 7.56654 175.219 7.12654 174.526 6.93988C171.939 7.80654 170.426 8.78654 169.986 9.87988V10.1599C170.799 12.1199 171.339 13.0999 171.606 13.0999L173.506 13.5399C173.679 13.4332 173.879 13.3799 174.106 13.3799L174.826 13.5399C175.146 13.3399 175.439 13.2399 175.706 13.2399H176.726C176.926 13.2665 177.026 13.3665 177.026 13.5399C175.866 13.9265 174.452 14.1199 172.786 14.1199H171.906C170.986 14.1199 170.052 13.2399 169.106 11.4799H168.666C168.479 11.4799 168.386 11.6265 168.386 11.9199L168.526 12.6599C168.046 12.8865 167.366 13.6665 166.486 14.9999H166.046C165.846 14.9999 165.746 14.8999 165.746 14.6999V14.5599C167.772 9.18654 169.139 6.40654 169.846 6.21988ZM180.01 0.719877H180.09C181.237 0.719877 182.063 1.42654 182.57 2.83988C182.57 2.89321 182.603 3.13321 182.67 3.55988C182.67 4.43988 181.163 6.59988 178.15 10.0399H178.05V9.93988C178.49 9.21988 179.203 8.24654 180.19 7.01988C180.643 6.08654 181.023 5.46654 181.33 5.15988C181.743 4.37321 181.95 3.69321 181.95 3.11988V3.01988C181.523 1.84654 180.877 1.25988 180.01 1.25988H179.83C179.377 1.40654 179.11 1.57988 179.03 1.77988C179.083 1.89988 179.11 1.99321 179.11 2.05988C178.883 2.48654 178.77 2.80654 178.77 3.01988C178.77 3.08654 178.797 3.17988 178.85 3.29988C178.797 3.61988 178.77 3.88654 178.77 4.09988V4.35988C178.997 4.62654 179.11 4.77321 179.11 4.79988V5.15988H178.85C178.13 4.65321 177.69 4.05988 177.53 3.37988C177.983 1.77988 178.457 0.979877 178.95 0.979877C179.15 0.806544 179.503 0.719877 180.01 0.719877ZM177.07 13.6599H177.43C177.577 14.0465 178.023 14.4065 178.77 14.7399V14.8199C178.41 14.8332 178.23 14.8932 178.23 14.9999C177.403 14.9999 176.99 14.6465 176.99 13.9399C177.043 13.8199 177.07 13.7265 177.07 13.6599Z" fill="#0A1843"></path></svg> 